<?xml version="1.0" encoding="utf-8"?>
<!-- Generator: Adobe Illustrator 25.2.3, SVG Export Plug-In . SVG Version: 6.00 Build 0)  -->
<svg version="1.1" id="レイヤー_1" xmlns="http://www.w3.org/2000/svg" xmlns:xlink="http://www.w3.org/1999/xlink" x="0px"
	 y="0px" viewBox="0 0 437.3 302.5" style="enable-background:new 0 0 437.3 302.5;" xml:space="preserve">
<style type="text/css">
	.st0{fill:#E8EBDC;}
</style>
<g>
	<path class="st0" d="M236.8,258.6L236.8,258.6c-11.1,11.1-29,11.1-40.1,0L43.3,105.2c-11.1-11.1-11.1-29,0-40.1l0,0
		c11.1-11.1,29-11.1,40.1,0l153.3,153.3C247.8,229.5,247.8,247.5,236.8,258.6z"/>
	<path class="st0" d="M198.4,258.6L198.4,258.6c11.1,11.1,29,11.1,40.1,0l153.3-153.3c11.1-11.1,11.1-29,0-40.1l0,0
		c-11.1-11.1-29-11.1-40.1,0L198.4,218.4C187.3,229.5,187.3,247.5,198.4,258.6z"/>
</g>
</svg>
