<?xml version="1.0" encoding="utf-8"?>
<!-- Generator: Adobe Illustrator 25.2.3, SVG Export Plug-In . SVG Version: 6.00 Build 0)  -->
<svg version="1.1" id="レイヤー_1" xmlns="http://www.w3.org/2000/svg" xmlns:xlink="http://www.w3.org/1999/xlink" x="0px"
	 y="0px" viewBox="0 0 200 25.84" style="enable-background:new 0 0 200 25.84;" xml:space="preserve">
<style type="text/css">
	.st0{fill:#FFFFFF;}
</style>
<path class="st0" d="M0.02,14.73l0.06,11.24h199.9V8.6c-2.44-0.03-5.53-0.23-8.39-0.9c0,0-2.7-0.69-4.81-1.42s-4.13-1.65-6.49-2.15
	c-2.11-0.45-4.21-0.55-5.12-0.54c-0.91-0.01-3.01,0.1-5.12,0.54c-2.36,0.5-4.39,1.42-6.49,2.15c-2.11,0.73-4.81,1.42-4.81,1.42
	c-2.63,0.62-5.47,0.83-7.81,0.89c-2.34-0.05-5.17-0.27-7.81-0.89c0,0-2.7-0.69-4.81-1.42c-2.11-0.73-4.13-1.65-6.49-2.15
	c-2.11-0.45-4.21-0.55-5.12-0.54c-0.91-0.01-3.01,0.1-5.12,0.54c-2.36,0.5-4.39,1.42-6.49,2.15S110.3,7.7,110.3,7.7
	c-2.75,0.64-5.71,0.85-8.1,0.89c-2.39-0.04-5.35-0.25-8.1-0.89c0,0-2.7-0.69-4.81-1.42c-2.11-0.73-4.13-1.65-6.49-2.15
	c-2.11-0.45-4.21-0.55-5.12-0.54c-0.91-0.01-3.01,0.1-5.12,0.54c-2.36,0.5-4.39,1.42-6.49,2.15c-2.11,0.73-4.81,1.42-4.81,1.42
	c-2.63,0.62-5.47,0.83-7.81,0.89c-2.34-0.05-5.17-0.27-7.81-0.89c0,0-2.7-0.69-4.81-1.42c-2.11-0.73-4.13-1.65-6.49-2.15
	c-2.11-0.45-4.21-0.55-5.12-0.54c-0.91-0.01-3.01,0.1-5.12,0.54c-2.36,0.5-4.39,1.42-6.49,2.15S12.82,7.7,12.82,7.7
	C7.07,9.04,0.36,8.5,0.02,8.47V14.73z"/>
</svg>
