<?xml version="1.0" encoding="utf-8"?>
<!-- Generator: Adobe Illustrator 25.2.3, SVG Export Plug-In . SVG Version: 6.00 Build 0)  -->
<svg version="1.1" id="レイヤー_1" xmlns="http://www.w3.org/2000/svg" xmlns:xlink="http://www.w3.org/1999/xlink" x="0px"
	 y="0px" viewBox="0 0 199.5 25.8" style="enable-background:new 0 0 199.5 25.8;" xml:space="preserve">
<style type="text/css">
	.st0{fill:#F4EEED;}
</style>
<path class="st0" d="M200.6,12.5c-2.1,0-6.1-0.2-9.1-0.9c0,0-2.7-0.7-4.7-1.4c-0.7-0.2-1.4-0.5-2.1-0.8c-1.4-0.5-2.9-1.1-4.5-1.5
	c-2.6-0.5-5-0.5-5.3-0.5s-2.6,0-5.3,0.5c-2,0.4-3.7,1.1-5.4,1.8c-0.4,0.2-0.8,0.3-1.2,0.5c-2,0.7-4.7,1.4-4.7,1.4
	c-2.6,0.6-5.4,0.8-7.5,0.9c-2.2-0.1-5-0.3-7.6-0.9c0,0-2.7-0.7-4.7-1.4c-0.7-0.2-1.4-0.5-2.1-0.8c-1.4-0.5-2.9-1.1-4.5-1.5
	c-2.6-0.5-5-0.5-5.3-0.5s-2.6,0-5.3,0.5c-2,0.4-3.7,1.1-5.4,1.8c-0.4,0.2-0.8,0.3-1.2,0.5c-2,0.7-4.7,1.4-4.7,1.4
	c-2.6,0.6-5.4,0.9-7.9,0.9c-2.9,0-5.5-0.3-7.8-0.9c0,0-2.7-0.7-4.7-1.4C88.7,10,88,9.8,87.3,9.5c-1.4-0.5-2.9-1.1-4.5-1.5
	c-2.6-0.5-5-0.5-5.3-0.5c-0.3,0-2.6,0-5.3,0.5c-2,0.4-3.7,1.1-5.4,1.8c-0.4,0.2-0.8,0.3-1.2,0.5c-2,0.7-4.7,1.4-4.7,1.4
	c-2.6,0.6-5.4,0.8-7.5,0.9c-2.2-0.1-5-0.3-7.6-0.9c0,0-2.7-0.7-4.7-1.4c-0.7-0.2-1.4-0.5-2.1-0.8C37.5,8.9,36,8.4,34.4,8
	c-2.6-0.5-5-0.5-5.3-0.5s-2.6,0-5.3,0.5c-2,0.4-3.7,1.1-5.4,1.8c-0.4,0.2-0.8,0.3-1.2,0.5c-2,0.7-4.7,1.4-4.7,1.4
	c-5.6,1.2-13.1,0.8-13.5,0.7l-0.1,0.5v1.5c1.6,0.2,8.7,0.4,14.1-0.8c0.1,0,2.8-0.7,4.9-1.4c0.4-0.2,0.8-0.3,1.3-0.5
	c1.7-0.7,3.2-1.3,5.1-1.7c2-0.4,4-0.5,4.9-0.5S32,9.6,34,10c1.5,0.3,2.9,0.8,4.2,1.4c0.7,0.3,1.4,0.6,2.2,0.8
	c2.1,0.7,4.8,1.4,4.9,1.4c2.7,0.6,5.7,0.8,8.1,0.9c2.3-0.1,5.2-0.3,8-0.9c0.1,0,2.8-0.7,4.9-1.4c0.4-0.2,0.8-0.3,1.3-0.5
	c1.7-0.7,3.3-1.3,5.1-1.7c2-0.4,4-0.5,4.9-0.5s2.9,0.1,4.9,0.5c1.5,0.3,2.9,0.8,4.2,1.4c0.7,0.3,1.4,0.6,2.2,0.8
	c2.1,0.7,4.8,1.4,4.9,1.4c2.5,0.6,5.3,0.9,8.3,0.9c2.6,0,5.5-0.3,8.4-0.9c0.1,0,2.8-0.7,4.9-1.4c0.4-0.2,0.8-0.3,1.3-0.5
	c1.7-0.7,3.3-1.3,5.1-1.7c2-0.4,4-0.5,4.9-0.5s2.9,0.1,4.9,0.5c1.5,0.3,2.9,0.8,4.2,1.4c0.7,0.3,1.4,0.6,2.2,0.8
	c2.1,0.7,4.8,1.4,4.9,1.4c2.7,0.6,5.7,0.8,8.1,0.9c2.3-0.1,5.2-0.3,8-0.9c0.1,0,2.8-0.7,4.9-1.4c0.4-0.2,0.8-0.3,1.3-0.5
	c1.7-0.7,3.2-1.3,5.1-1.7c2-0.4,4-0.5,4.9-0.5s2.9,0.1,4.9,0.5c1.5,0.3,2.9,0.8,4.2,1.4c0.7,0.3,1.4,0.6,2.2,0.8
	c2.1,0.7,4.8,1.4,4.9,1.4c3.1,0.8,7.4,0.9,9.6,0.9V12.5z"/>
</svg>
