<?xml version="1.0" encoding="utf-8"?>
<!-- Generator: Adobe Illustrator 25.2.3, SVG Export Plug-In . SVG Version: 6.00 Build 0)  -->
<svg version="1.1" id="レイヤー_1" xmlns="http://www.w3.org/2000/svg" xmlns:xlink="http://www.w3.org/1999/xlink" x="0px"
	 y="0px" viewBox="0 0 200 25.8" style="enable-background:new 0 0 200 25.8;" xml:space="preserve">
<style type="text/css">
	.st0{fill:#F8E9E7;}
</style>
<path class="st0" d="M0,14.7L0.1,26H200V8.6c-2.4,0-5.5-0.2-8.4-0.9c0,0-2.7-0.7-4.8-1.4s-4.1-1.7-6.5-2.2c-2.1-0.5-4.2-0.5-5.1-0.5
	c-0.9,0-3,0.1-5.1,0.5c-2.4,0.5-4.4,1.4-6.5,2.2c-2.1,0.7-4.8,1.4-4.8,1.4c-2.6,0.6-5.5,0.8-7.8,0.9c-2.3-0.1-5.2-0.3-7.8-0.9
	c0,0-2.7-0.7-4.8-1.4s-4.1-1.7-6.5-2.2c-2.1-0.5-4.2-0.5-5.1-0.5s-3,0.1-5.1,0.5c-2.4,0.5-4.4,1.4-6.5,2.2s-4.8,1.4-4.8,1.4
	c-2.8,0.6-5.7,0.9-8.1,0.9S97,8.4,94.2,7.7c0,0-2.7-0.7-4.8-1.4s-4.1-1.7-6.5-2.2c-2.1-0.5-4.2-0.5-5.1-0.5s-3,0.1-5.1,0.5
	c-2.4,0.5-4.4,1.4-6.5,2.2C64,7,61.3,7.7,61.3,7.7c-2.6,0.6-5.5,0.8-7.8,0.9c-2.3-0.1-5.2-0.3-7.8-0.9c0,0-2.7-0.7-4.8-1.4
	s-4.1-1.7-6.5-2.2c-2.1-0.5-4.2-0.5-5.1-0.5s-3,0.1-5.1,0.5c-2.4,0.5-4.4,1.4-6.5,2.2s-4.8,1.4-4.8,1.4C7.1,9,0.4,8.5,0,8.5V14.7z"
	/>
</svg>
