<?xml version="1.0" encoding="utf-8"?>
<!-- Generator: Adobe Illustrator 25.2.3, SVG Export Plug-In . SVG Version: 6.00 Build 0)  -->
<svg version="1.1" id="レイヤー_1" xmlns="http://www.w3.org/2000/svg" xmlns:xlink="http://www.w3.org/1999/xlink" x="0px"
	 y="0px" viewBox="0 0 200 25.8" style="enable-background:new 0 0 200 25.8;" xml:space="preserve">
<style type="text/css">
	.st0{fill:#F9F2EF;}
</style>
<path class="st0" d="M0,17.4c0.3,0,7.1-0.6,12.8,0.8c0,0,2.7,0.7,4.8,1.4s4.1,1.6,6.5,2.1c2.1,0.4,4.2,0.6,5.1,0.5
	c0.9,0,3-0.1,5.1-0.5c2.4-0.5,4.4-1.4,6.5-2.1s4.8-1.4,4.8-1.4c2.6-0.6,5.5-0.8,7.8-0.9c2.3,0.1,5.2,0.3,7.8,0.9
	c0,0,2.7,0.7,4.8,1.4c2.1,0.7,4.1,1.6,6.5,2.1c2.1,0.4,4.2,0.6,5.1,0.5c0.9,0,3-0.1,5.1-0.5c2.4-0.5,4.4-1.4,6.5-2.1
	s4.8-1.4,4.8-1.4c2.8-0.6,5.7-0.9,8.1-0.9c2.4,0,5.3,0.2,8.1,0.9c0,0,2.7,0.7,4.8,1.4c2.1,0.7,4.1,1.7,6.5,2.2
	c2.1,0.4,4.2,0.5,5.1,0.5c0.9,0,3-0.1,5.1-0.5c2.4-0.5,4.4-1.4,6.5-2.2c2.1-0.7,4.8-1.4,4.8-1.4c2.6-0.6,5.5-0.8,7.8-0.9
	c2.3,0.1,5.2,0.3,7.8,0.9c0,0,2.7,0.7,4.8,1.4c2.1,0.7,4.1,1.7,6.5,2.2c2.1,0.4,4.2,0.5,5.1,0.5c0.9,0,3-0.1,5.1-0.5
	c2.4-0.5,4.4-1.4,6.5-2.2c2.1-0.7,4.8-1.4,4.8-1.4c2.9-0.7,5.9-0.9,8.4-0.9V-0.1L0.1-0.1L0,11.1V17.4z"/>
</svg>
