<?xml version="1.0" encoding="utf-8"?>
<!-- Generator: Adobe Illustrator 25.2.3, SVG Export Plug-In . SVG Version: 6.00 Build 0)  -->
<svg version="1.1" id="レイヤー_1" xmlns="http://www.w3.org/2000/svg" xmlns:xlink="http://www.w3.org/1999/xlink" x="0px"
	 y="0px" viewBox="0 0 50 50" style="enable-background:new 0 0 50 50;" xml:space="preserve">
<style type="text/css">
	.st0{fill:#FFFFFF;}
</style>
<g>
	<path class="st0" d="M44.4,42.2l-1.9,1.9c-0.5,0.5-1.4,0.5-1.9,0L6.7,10.3c-0.5-0.5-0.5-1.4,0-1.9l1.9-1.9c0.5-0.5,1.4-0.5,1.9,0
		l33.8,33.8C44.9,40.8,44.9,41.6,44.4,42.2z"/>
	<path class="st0" d="M44.4,42.2l-1.9,1.9c-0.5,0.5-1.4,0.5-1.9,0L6.7,10.3c-0.5-0.5-0.5-1.4,0-1.9l1.9-1.9c0.5-0.5,1.4-0.5,1.9,0
		l33.8,33.8C44.9,40.8,44.9,41.6,44.4,42.2z"/>
	<path class="st0" d="M42.5,6.4l1.9,1.9c0.5,0.5,0.5,1.4,0,1.9L10.6,44.1c-0.5,0.5-1.4,0.5-1.9,0l-1.9-1.9c-0.5-0.5-0.5-1.4,0-1.9
		L40.5,6.4C41.1,5.9,41.9,5.9,42.5,6.4z"/>
</g>
</svg>
