<?xml version="1.0" encoding="utf-8"?>
<!-- Generator: Adobe Illustrator 25.2.3, SVG Export Plug-In . SVG Version: 6.00 Build 0)  -->
<svg version="1.1" id="レイヤー_1" xmlns="http://www.w3.org/2000/svg" xmlns:xlink="http://www.w3.org/1999/xlink" x="0px"
	 y="0px" viewBox="0 0 50 50" style="enable-background:new 0 0 50 50;" xml:space="preserve">
<style type="text/css">
	.st0{fill:#FFFFFF;}
</style>
<g>
	<path class="st0" d="M41.1,15.1H9.2c-1.2,0-2.2-1-2.2-2.2v0c0-1.2,1-2.2,2.2-2.2h31.9c1.2,0,2.2,1,2.2,2.2v0
		C43.3,14.1,42.3,15.1,41.1,15.1z"/>
	<path class="st0" d="M41.1,27.5H9.2c-1.2,0-2.2-1-2.2-2.2v0c0-1.2,1-2.2,2.2-2.2h31.9c1.2,0,2.2,1,2.2,2.2v0
		C43.3,26.5,42.3,27.5,41.1,27.5z"/>
	<path class="st0" d="M41.1,40H9.2c-1.2,0-2.2-1-2.2-2.2v0c0-1.2,1-2.2,2.2-2.2h31.9c1.2,0,2.2,1,2.2,2.2v0C43.3,39,42.3,40,41.1,40
		z"/>
</g>
</svg>
