<?xml version="1.0" encoding="utf-8"?>
<!-- Generator: Adobe Illustrator 25.2.3, SVG Export Plug-In . SVG Version: 6.00 Build 0)  -->
<svg version="1.1" id="レイヤー_1" xmlns="http://www.w3.org/2000/svg" xmlns:xlink="http://www.w3.org/1999/xlink" x="0px"
	 y="0px" viewBox="0 0 50 50" style="enable-background:new 0 0 50 50;" xml:space="preserve">
<style type="text/css">
	.st0{fill:#FFFFFF;}
</style>
<g>
	<path class="st0" d="M38.7,42.4L7.2,10.9c-0.9-0.9-0.9-2.5,0-3.4l0,0c0.9-0.9,2.5-0.9,3.4,0L42.1,39c0.9,0.9,0.9,2.5,0,3.4l0,0
		C41.1,43.3,39.6,43.3,38.7,42.4z"/>
	<path class="st0" d="M10.8,42.4l31.5-31.5c0.9-0.9,0.9-2.5,0-3.4l0,0c-0.9-0.9-2.5-0.9-3.4,0L7.4,39c-0.9,0.9-0.9,2.5,0,3.4l0,0
		C8.4,43.3,9.9,43.3,10.8,42.4z"/>
</g>
</svg>
