<?xml version="1.0" encoding="utf-8"?>
<!-- Generator: Adobe Illustrator 25.2.3, SVG Export Plug-In . SVG Version: 6.00 Build 0)  -->
<svg version="1.1" id="レイヤー_1" xmlns="http://www.w3.org/2000/svg" xmlns:xlink="http://www.w3.org/1999/xlink" x="0px"
	 y="0px" viewBox="0 0 500 332.33" style="enable-background:new 0 0 500 332.33;" xml:space="preserve">
<style type="text/css">
	.st0{fill:#040000;}
	.st1{fill:none;stroke:#040000;stroke-width:0.5;stroke-miterlimit:10;}
</style>
<g>
	<g>
		<path class="st0" d="M120.93,78.27c6.21-5.06,10.62-10.91,14.01-18.2c2.09-4.62,4.12-11.34,4.12-13.72c0-1.37-0.72-2.02-3.54-3.18
			c0.72-1.01,1.3-1.37,2.38-1.37c2.17,0,4.69,0.72,7.8,2.24c3.97-2.89,5.99-4.91,9.39-9.53c-4.48-0.14-6.86-0.22-8.45-0.22
			c-6.36,0-11.48,0.58-18.85,1.95c-2.31,0.51-2.31,0.51-5.99,1.88c-0.43,0.14-0.72,0.22-0.87,0.22c-2.02,0-6.43-5.13-6.43-7.37
			c0-0.14,0.07-0.36,0.22-0.79c4.12,2.6,5.13,3.03,7.37,3.03c0.79,0,1.66-0.07,2.67-0.14c3.76-0.29,11.99-0.72,21.45-1.16
			c7.37-0.43,7.66-0.43,9.24-1.08c1.59-0.58,1.88-0.65,2.09-0.65c1.01,0,2.31,0.94,4.77,3.39c1.16,1.16,1.52,1.66,1.52,2.09
			c0,0.36-0.58,0.79-1.37,1.08c-1.44,0.51-1.73,0.65-2.89,1.3l-0.79,0.51c-1.73,1.08-6.57,3.97-11.92,7.01
			c-0.65,1.16-0.65,1.23-1.59,2.46c-1.23,1.66-1.44,2.09-2.17,3.9c-4.91,13.65-11.19,21.59-21.38,27.3L120.93,78.27z"/>
		<path class="st0" d="M207.02,46.49c6.5,1.23,9.32,2.09,12.86,3.83c4.04,2.02,5.99,4.19,5.99,6.79c0,1.73-0.94,2.96-2.24,2.96
			c-0.94,0-1.23-0.29-3.47-3.03c-4.12-5.06-7.73-7.44-13.14-8.67v14.59c0,3.25,0.14,4.69,0.51,7.87c0.14,1.08,0.22,2.09,0.22,2.82
			c0,2.53-2.02,5.06-4.04,5.06c-1.23,0-1.59-0.79-1.59-3.25c0-0.87,0-1.95,0.07-3.1c0.36-5.49,0.58-9.24,0.65-10.91l0.22-20.66
			c-0.07-8.88-0.22-9.17-6.14-10.62c0.94-1.08,1.81-1.37,3.76-1.37c3.47,0,7.8,1.88,7.8,3.39c0,0.36-0.14,0.72-0.29,1.23
			c-0.72,1.59-1.01,3.47-1.08,7.8L207.02,46.49z"/>
		<path class="st0" d="M273.97,42.67c0.07-0.29,0.07-0.65,0.07-1.01c0-6.79-0.22-7.15-4.62-8.09c1.16-0.94,2.31-1.3,3.75-1.3
			c2.96,0,6.21,1.73,6.21,3.32c0,0.43,0,0.58-0.36,1.37c-0.94,2.46-1.37,5.2-1.37,9.61c0,3.18,0.14,4.55,0.87,9.32
			c0.07,0.65,0.14,1.16,0.14,1.52c0,2.6-1.73,4.84-3.76,4.84c-1.01,0-1.52-0.51-1.52-1.66c0-0.79,0.07-2.17,0.22-3.61
			c0.07-0.94,0.07-1.81,0.14-2.6L273.97,42.67z M269.64,78.13c8.59-4.26,13.29-8.02,16.97-13.79c3.11-4.84,4.33-11.05,4.33-22.39
			c0-4.69-0.14-8.09-0.43-9.03c-0.43-1.73-1.08-2.02-5.78-3.11c1.59-0.94,2.6-1.3,3.97-1.3c3.39,0,7.94,2.17,7.94,3.76
			c0,0.14-0.07,0.58-0.36,1.3c-0.65,1.52-0.65,1.66-0.65,3.83c-0.29,17.12-0.72,20.08-3.9,26.22c-3.75,6.79-13.07,13.43-21.67,15.53
			L269.64,78.13z"/>
		<path class="st0" d="M365.62,42.74c-2.17,0-4.62,0-8.96,0.14c2.17,2.31,2.89,3.39,2.89,4.62c0,0.36,0,0.43-0.29,1.16
			c-0.79,2.46-1.01,4.62-1.59,15.31c10.69-0.14,10.69-0.14,16.25-1.37c1.88-0.36,2.31-0.43,2.82-0.43c2.6,0,6.79,2.82,6.79,4.55
			c0,0.72-0.72,1.16-1.81,1.16c-0.79,0-1.73-0.07-2.74-0.22c-4.04-0.51-5.56-0.58-9.82-0.58c-9.24,0-18.85,0.51-26.65,1.37
			c-2.09,0.22-4.12,0.72-6.21,1.37c-1.52,0.51-1.73,0.58-2.17,0.58c-2.46,0-6.57-4.33-6.57-6.79c0-0.36,0.07-0.65,0.22-1.37
			c3.11,2.82,4.26,3.25,7.51,3.25c0.94,0,1.73,0,3.97-0.22c7-0.51,7.37-0.51,14.44-0.87l0.36-14.16v-0.43
			c0-3.47-0.29-4.69-1.52-6.79c-4.26,0.36-6.43,0.79-9.03,1.59c-0.79,0.29-1.44,0.43-1.81,0.43c-1.16,0-3.47-1.3-4.91-2.67
			c-1.08-1.01-1.44-1.95-1.73-4.19c3.83,2.24,5.13,2.6,8.23,2.6c1.16,0,2.09,0,4.41-0.22c4.04-0.36,7.94-0.65,11.84-0.94
			c3.68-0.29,4.62-0.43,6.86-1.16c1.66-0.51,1.95-0.58,2.38-0.58c1.59,0,5.27,2.74,5.27,3.83c0,0.87-0.58,1.01-3.97,1.01H365.62z"/>
	</g>
	<g>
		<path class="st0" d="M118.26,211.42c10.88-1.55,17.22-3.23,25.72-6.58c15.79-6.46,23.44-15.07,23.44-26.79
			c0-6.34-2.75-12.2-7.54-16.15c-3.71-3.11-7.06-4.43-13.04-5.02c-7.89,12.2-14.71,20.93-22.85,29.07c0.96,1.79,1.79,3.47,2.27,3.95
			c1.44,2.15,1.55,2.51,1.55,4.07c0,1.32-0.24,2.87-0.72,4.31c-0.6,2.15-1.44,2.99-3.11,2.99c-2.27,0-3.83-2.27-6.58-9.21
			c-6.1,5.5-9.09,7.77-13.88,10.65c-6.58,4.07-10.77,5.5-15.19,5.5c-3.95,0-6.34-2.75-6.34-7.3c0-8.73,3.95-18.18,11.12-26.55
			c5.98-7.06,10.17-10.29,20.1-15.43c0.72-8.25,0.84-9.45,1.56-17.58c-4.19,0.72-5.74,1.08-8.85,1.79s-3.71,0.84-4.9,0.84
			c-2.51,0-5.14-1.55-7.18-4.19c-2.63-3.35-4.43-7.54-4.43-10.29c0-0.84,0.24-1.43,0.96-2.39c7.18,9.81,8.01,10.53,13.28,10.53
			c3.35,0,6.34-0.48,12.2-1.79c2.87-12.32,3.11-14,3.11-16.99c0-3.83-0.96-4.78-8.01-7.77c1.79-1.2,2.87-1.79,3.95-1.79
			c5.74,0,15.31,5.26,15.31,8.49c0,0.84-0.24,1.2-2.39,4.9c-2.15,4.07-3.83,7.89-5.02,12.32c8.85-2.15,11.24-2.87,15.07-5.02
			c-1.08-0.84-2.15-1.55-2.63-1.79c-3.71-2.75-3.83-2.75-5.5-5.14l0.84-1.2c4.9,2.75,10.05,4.79,12.08,4.79
			c0.6,0,1.32-0.12,2.27-0.24c3.11-0.6,5.14-0.84,5.5-0.84c2.27,0,6.34,2.87,6.34,4.55c0,1.79-3.35,3.11-12.32,4.9
			c-8.73,1.79-12.8,2.75-22.73,5.14c-1.2,5.5-1.67,9.33-2.15,16.51c6.34-2.03,9.69-2.63,20.33-3.95c0.48-1.79,0.84-2.87,0.84-3.23
			c0-1.08-0.72-2.51-3.83-6.82c0.96-0.24,1.56-0.36,1.91-0.36c3.11,0,11.24,6.82,11.24,9.45c0,0.36-0.12,0.6-0.6,1.08
			c8.97,1.79,14.35,4.07,18.78,7.89c5.14,4.43,8.25,11.48,8.25,18.54c0,14-10.53,24.64-29.9,30.14c-9.69,2.87-17.22,3.83-28.11,3.95
			L118.26,211.42z M113.24,163.22c-13.04,6.94-22.97,21.65-22.97,34.21c0,1.67,0.36,2.15,1.56,2.15c1.91,0,6.7-1.79,11.12-4.07
			c4.9-2.63,7.77-4.79,12.56-8.97c-1.91-7.54-2.39-11.12-2.39-19.5L113.24,163.22z M138.36,157.12c-8.01,0.36-11.96,1.2-18.66,3.71
			c-0.12,1.67-0.24,2.51-0.24,3.71c0,5.98,0.72,11,2.39,16.39C130.46,170.99,132.85,167.64,138.36,157.12z"/>
		<path class="st0" d="M240.02,200.9c12.8-1.08,21.05-2.99,30.14-6.82c11.48-4.78,17.34-12.92,17.34-23.56
			c0-9.21-5.26-16.63-14.59-20.57c-4.9-2.03-8.73-2.75-17.58-3.23c-5.5,11.36-9.81,19.14-15.67,27.75c0.96,1.2,1.91,2.27,2.27,2.63
			c2.99,2.87,3.83,4.07,3.83,5.5c0,1.67-1.44,2.75-3.83,2.75c-2.75,0-4.67-1.08-7.54-4.43c-9.57,9.45-15.31,12.56-23.44,12.56
			c-7.54,0-11.84-4.43-11.84-12.44c0-10.76,6.1-19.38,20.1-28.59c-6.58-19.14-8.25-21.65-17.7-26.2c1.44-0.6,2.63-0.96,3.47-0.96
			c1.08,0,3.95,0.84,5.98,1.79c4.43,2.03,7.06,6.1,14.35,22.25c7.54-3.59,14.11-5.26,23.92-6.34c3.23-8.61,4.9-14.35,4.9-16.27
			c0-2.99-4.43-4.43-14.47-4.54c1.67-2.15,2.27-2.51,4.78-3.11c1.79-0.48,3.71-0.72,5.26-0.72c6.7,0,14.59,4.9,14.59,9.09
			c0,0.84-0.24,1.55-1.2,3.11c-1.55,2.39-2.03,3.23-2.87,5.02l-0.48,1.2c-0.36,0.84-1.44,3.35-2.63,5.98
			c9.33,0.36,13.04,0.96,18.78,2.99c13.16,4.67,20.69,14.11,20.69,26.08c0,12.44-8.01,21.89-23.33,27.03
			c-9.57,3.35-16.87,4.31-32.77,4.55L240.02,200.9z M220.76,156.4c-9.93,7.06-15.19,15.55-15.19,24.76c0,4.67,1.56,6.7,4.9,6.7
			c5.98,0,13.4-4.07,20.33-11.24C227.1,170.87,225.07,166.92,220.76,156.4z M235.71,170.27c4.67-6.7,7.66-12.32,11.96-23.33
			c-8.97,0.96-14.83,2.75-20.81,6.34C230.09,161.18,231.65,164.05,235.71,170.27z"/>
		<path class="st0" d="M350.9,142.28c-3.95,6.7-5.86,10.65-8.01,16.99c-4.07,11.48-6.82,24.64-6.82,33.01c0,1.55,0.36,4.9,0.72,6.7
			c0.36,1.67,0.36,1.91,0.36,2.75c0,1.91-1.32,2.99-3.83,2.99c-3.11,0-5.38-2.87-7.54-9.69c-1.67-5.14-2.63-12.68-2.63-20.21
			c0-6.94,0.84-12.8,2.99-21.65c1.67-6.58,3.71-14.59,4.19-16.39c0.36-0.84,0.48-1.55,0.48-2.15c0-2.27-2.75-5.14-8.25-8.49
			c0.84-1.08,1.44-1.44,2.03-1.44c1.32,0,6.46,2.51,11,5.38c2.87,1.79,4.67,3.83,4.67,5.26c0,0.96-0.12,1.2-2.99,4.79
			c-4.54,5.86-8.49,20.69-8.49,32.65c0,5.14,0.48,8.49,2.03,15.07c3.95-19.5,9.81-34.69,18.18-46.65L350.9,142.28z M360.35,152.69
			c5.14-5.62,8.97-8.97,16.39-14.47c-9.57-0.84-13.16-1.56-18.18-3.83c-5.14-2.39-5.86-3.23-5.86-6.22
			c8.61,3.95,13.16,5.02,22.01,5.02c5.62,0,12.56-1.08,18.42-2.87c1.67-0.48,2.99-0.84,3.83-0.84c2.87,0,7.89,3.83,7.89,5.86
			c0,1.91-1.2,2.27-7.42,2.27c-12.44,0-18.3,2.75-34.93,16.63L360.35,152.69z M355.68,165.13c1.43,12.56,3.23,16.75,8.37,20.33
			c5.02,3.47,10.65,4.55,22.73,4.55c9.57,0,15.55-0.48,19.5-1.79c3.11-0.96,3.23-0.96,4.42-0.96c3.35,0,8.61,3.59,8.61,5.86
			c0,2.87-4.67,3.95-17.34,3.95c-20.45,0-31.34-1.44-37.56-5.02c-7.3-4.31-11.24-11.48-11.24-20.69c0-2.03,0.24-3.23,0.72-5.98
			L355.68,165.13z"/>
	</g>
	<g>
		<path class="st0" d="M114.88,294.8c0,0.44-0.46,0.9-1.37,1.37c-0.91,0.48-1.79,0.72-2.64,0.72c-1.77,0-2.7-0.92-2.77-2.75
			c-0.98,1.91-2.49,2.86-4.54,2.86c-1.1,0-2.02-0.33-2.73-0.99c-0.72-0.66-1.08-1.5-1.08-2.53c0-2.12,1.27-3.79,3.8-5.03
			c0.87-0.41,2.38-0.83,4.52-1.24v-0.97c0-2.27-0.12-3.77-0.35-4.49c-0.41-1.32-1.34-1.97-2.79-1.97c-0.9,0-1.66,0.25-2.26,0.74
			c-0.61,0.49-0.91,1.11-0.91,1.86c0,0.21,0.16,0.31,0.47,0.31c0.31,0,0.6,0.16,0.85,0.46s0.38,0.66,0.38,1.04
			c0,1.13-0.56,1.7-1.69,1.7c-0.59,0-1.07-0.2-1.46-0.6c-0.38-0.4-0.57-0.91-0.57-1.53c0-1.21,0.48-2.26,1.43-3.13
			c1.06-0.95,2.53-1.43,4.41-1.43c2.84,0,4.58,0.77,5.22,2.32c0.23,0.59,0.35,1.77,0.35,3.52v7.24c0,1.19,0.01,1.88,0.04,2.09
			c0.13,0.93,0.5,1.39,1.12,1.39c0.72,0,1.32-0.26,1.78-0.77c0.26-0.28,0.45-0.43,0.58-0.43
			C114.82,294.57,114.88,294.65,114.88,294.8z M108.07,290.7v-2.83c-1.91,0.44-3.27,1.01-4.1,1.72c-0.83,0.71-1.24,1.66-1.24,2.84
			c0,0.83,0.23,1.5,0.71,2.03c0.47,0.53,1.06,0.79,1.77,0.79c1.09,0,1.97-0.62,2.63-1.86C108,293.13,108.07,292.22,108.07,290.7z"/>
		<path class="st0" d="M136.2,294.26c0,0.23-0.32,0.65-0.97,1.24c-1.11,1.01-2.42,1.51-3.95,1.51c-1.42,0-2.49-0.36-3.21-1.08
			c-0.41-0.41-0.62-1.62-0.62-3.63v-11.5c-0.03-0.26-0.17-0.4-0.43-0.42h-1.47c-0.57,0-0.85-0.09-0.85-0.27
			c0-0.18,0.14-0.28,0.42-0.31c2-0.18,3.56-1.17,4.69-2.97c0.15-0.24,0.35-0.35,0.58-0.35c0.18,0,0.27,0.09,0.27,0.27v0.16
			c0,0.13,0,0.35,0,0.66c0,1.08,0.05,1.78,0.15,2.09c0.23,0.05,0.62,0.08,1.16,0.08c1.42,0,2.36-0.06,2.83-0.19
			c0.1-0.03,0.19-0.04,0.27-0.04c0.21,0,0.31,0.11,0.31,0.33c0,0.37-1.04,0.56-3.13,0.56c-0.36,0-0.89,0-1.59,0v7.16
			c0,3.61,0.09,5.88,0.27,6.79c0.18,0.92,0.77,1.37,1.78,1.37c0.85,0,1.81-0.48,2.86-1.43c0.1-0.13,0.22-0.19,0.35-0.19
			C136.11,294.07,136.2,294.13,136.2,294.26z"/>
		<path class="st0" d="M161.94,292.33c0,0.26-0.2,0.72-0.6,1.37c-0.4,0.66-0.81,1.19-1.22,1.61c-1.11,1.14-2.59,1.7-4.45,1.7
			c-2.32,0-4.26-0.84-5.82-2.51c-1.56-1.68-2.34-3.75-2.34-6.23c0-2.58,0.74-4.73,2.23-6.46c1.48-1.73,3.33-2.59,5.55-2.59
			c1.83,0,3.37,0.54,4.6,1.61s1.9,2.44,1.97,4.12c-0.83,0.13-1.92,0.18-3.29,0.15h-2.71c-0.18,0-1.73,0.04-4.64,0.12
			c-0.13,0.85-0.19,1.66-0.19,2.43c0,2.6,0.5,4.59,1.49,6c0.99,1.4,2.39,2.1,4.2,2.1c1.03,0,1.86-0.23,2.48-0.7
			c0.62-0.46,1.29-1.35,2.01-2.67c0.1-0.21,0.25-0.31,0.43-0.31C161.83,292.06,161.94,292.15,161.94,292.33z M158.57,284.43
			c-0.1-3.1-1.21-4.64-3.33-4.64c-2.09,0-3.39,1.55-3.91,4.64H158.57z"/>
		<path class="st0" d="M182.52,296.27c0,0.23-0.17,0.35-0.5,0.35h-0.46c-0.05,0-0.74-0.03-2.05-0.08h-1.2
			c-0.21,0-1.24,0.02-3.1,0.06c-0.15,0.01-0.31,0.02-0.46,0.02c-0.39,0.03-0.58-0.08-0.58-0.33c0-0.17,0.14-0.25,0.43-0.25h1.01
			c0.72,0,1.08-0.16,1.08-0.46c0.03-0.15,0.04-1.16,0.04-3.02v-19.7c0-0.85-0.03-1.32-0.08-1.39c-0.08-0.21-0.28-0.31-0.62-0.31
			h-0.31h-1.08c-0.36,0-0.54-0.11-0.54-0.33c0-0.19,0.32-0.3,0.97-0.33c1.24-0.08,2.39-0.36,3.44-0.85l0.81-0.39l0.31-0.12
			c0.21,0.75,0.3,1.88,0.27,3.41v2.75v18.96c0,0.77,0.01,1.23,0.04,1.37c0.03,0.14,0.12,0.24,0.27,0.29
			c0.03,0.03,0.5,0.05,1.43,0.08C182.23,296,182.52,296.09,182.52,296.27z"/>
		<path class="st0" d="M203.07,296.31c0,0.23-0.22,0.35-0.66,0.35c0.03,0-0.28-0.03-0.93-0.08c-0.77-0.05-1.42-0.08-1.93-0.08h-4.02
			c-0.13,0.1-0.28,0.16-0.46,0.16c-0.28,0-0.43-0.1-0.43-0.29c0-0.27,0.26-0.41,0.77-0.41c0.98-0.03,1.52-0.1,1.61-0.21
			c0.09-0.12,0.14-0.65,0.14-1.61v-11.72c-0.03-0.64-0.06-1.03-0.1-1.14s-0.2-0.17-0.48-0.17h-1.12c-0.1,0-0.23,0-0.39,0
			c-0.28,0-0.43-0.09-0.43-0.27c0-0.16,0.22-0.25,0.65-0.27c1.71-0.08,3.17-0.48,4.39-1.21l0.38-0.23c0.2,0.39,0.31,1.09,0.31,2.12
			c0-0.05,0,0.08,0,0.39c0,0.31,0,0.81,0,1.51v10.54c0,1.03,0.02,1.63,0.06,1.81c0.04,0.18,0.17,0.3,0.41,0.35
			c0.39,0.1,0.95,0.15,1.7,0.15C202.89,296,203.07,296.11,203.07,296.31z M200.17,272.2c0,1.16-0.58,1.74-1.74,1.74
			c-0.49,0-0.9-0.16-1.24-0.48c-0.34-0.32-0.5-0.72-0.5-1.18c0-1.21,0.58-1.82,1.74-1.82C199.59,270.46,200.17,271.04,200.17,272.2z
			"/>
		<path class="st0" d="M229.89,292.33c0,0.26-0.2,0.72-0.6,1.37c-0.4,0.66-0.81,1.19-1.22,1.61c-1.11,1.14-2.59,1.7-4.45,1.7
			c-2.32,0-4.26-0.84-5.82-2.51c-1.56-1.68-2.34-3.75-2.34-6.23c0-2.58,0.74-4.73,2.23-6.46c1.48-1.73,3.33-2.59,5.55-2.59
			c1.83,0,3.37,0.54,4.6,1.61s1.9,2.44,1.97,4.12c-0.83,0.13-1.92,0.18-3.29,0.15h-2.71c-0.18,0-1.73,0.04-4.64,0.12
			c-0.13,0.85-0.19,1.66-0.19,2.43c0,2.6,0.5,4.59,1.49,6c0.99,1.4,2.39,2.1,4.2,2.1c1.03,0,1.86-0.23,2.48-0.7
			c0.62-0.46,1.29-1.35,2.01-2.67c0.1-0.21,0.25-0.31,0.43-0.31C229.78,292.06,229.89,292.15,229.89,292.33z M226.52,284.43
			c-0.1-3.1-1.21-4.64-3.33-4.64c-2.09,0-3.39,1.55-3.91,4.64H226.52z"/>
		<path class="st0" d="M254.77,281.92c0,0.59-0.18,1.08-0.54,1.47c-0.36,0.39-0.83,0.58-1.39,0.58c-0.46,0-0.85-0.14-1.16-0.41
			c-0.31-0.27-0.46-0.61-0.46-1.03c0-0.36,0.12-0.67,0.35-0.93c0.23-0.26,0.35-0.44,0.35-0.54c0-0.39-0.28-0.58-0.85-0.58
			c-0.72,0-1.34,0.45-1.86,1.35c-0.59,1.05-0.89,3-0.89,5.85v7.62c0,0.31,0.11,0.5,0.33,0.58c0.22,0.08,0.88,0.13,1.99,0.15
			c0.28,0.05,0.43,0.15,0.43,0.31c0,0.18-0.17,0.27-0.5,0.27c-0.59,0-1.15,0-1.66,0c-0.52,0-1.5,0-2.94,0c-0.75,0-1.29,0-1.62,0
			c-0.34,0-0.76,0-1.28,0c-0.41,0-0.62-0.08-0.62-0.23c0-0.16,0.17-0.23,0.5-0.23h0.54c0.88,0,1.39-0.1,1.55-0.31
			c0.05-0.1,0.08-0.58,0.08-1.44v-10.7c0-1.43-0.21-2.25-0.64-2.47c-0.43-0.22-1.1-0.34-2.03-0.37c-0.31,0-0.46-0.09-0.46-0.27
			s0.13-0.27,0.39-0.27h0.27c0.39,0,0.77,0.02,1.16,0.06c0.39,0.04,0.55,0.06,0.5,0.06c0.95,0,2.01-0.27,3.17-0.81l0.5-0.23
			l0.31-0.12c0.1,0.62,0.15,1.24,0.15,1.86v0.77c0.83-1.75,1.99-2.63,3.48-2.63c0.83,0,1.51,0.25,2.05,0.75
			S254.77,281.17,254.77,281.92z"/>
		<path class="st0" d="M300.27,294.8c0,0.44-0.46,0.9-1.37,1.37c-0.91,0.48-1.79,0.72-2.64,0.72c-1.77,0-2.7-0.92-2.77-2.75
			c-0.97,1.91-2.49,2.86-4.54,2.86c-1.1,0-2.02-0.33-2.73-0.99c-0.72-0.66-1.08-1.5-1.08-2.53c0-2.12,1.26-3.79,3.8-5.03
			c0.87-0.41,2.38-0.83,4.52-1.24v-0.97c0-2.27-0.12-3.77-0.35-4.49c-0.41-1.32-1.34-1.97-2.79-1.97c-0.9,0-1.66,0.25-2.26,0.74
			c-0.61,0.49-0.91,1.11-0.91,1.86c0,0.21,0.16,0.31,0.47,0.31s0.6,0.16,0.85,0.46c0.25,0.31,0.38,0.66,0.38,1.04
			c0,1.13-0.56,1.7-1.69,1.7c-0.59,0-1.07-0.2-1.46-0.6c-0.38-0.4-0.57-0.91-0.57-1.53c0-1.21,0.48-2.26,1.43-3.13
			c1.06-0.95,2.53-1.43,4.41-1.43c2.84,0,4.58,0.77,5.22,2.32c0.23,0.59,0.35,1.77,0.35,3.52v7.24c0,1.19,0.01,1.88,0.04,2.09
			c0.13,0.93,0.5,1.39,1.12,1.39c0.72,0,1.32-0.26,1.78-0.77c0.26-0.28,0.45-0.43,0.58-0.43
			C300.21,294.57,300.27,294.65,300.27,294.8z M293.46,290.7v-2.83c-1.91,0.44-3.27,1.01-4.1,1.72c-0.83,0.71-1.24,1.66-1.24,2.84
			c0,0.83,0.24,1.5,0.71,2.03c0.47,0.53,1.06,0.79,1.77,0.79c1.09,0,1.97-0.62,2.63-1.86C293.39,293.13,293.46,292.22,293.46,290.7z
			"/>
		<path class="st0" d="M337.07,296.33c0,0.19-0.22,0.29-0.66,0.29c-0.05,0-0.33,0-0.83,0s-1.18,0-2.03,0c-0.08,0-1.44,0-4.1,0
			c-0.33,0-0.5-0.08-0.5-0.25c0-0.19,0.14-0.29,0.43-0.29h0.31h0.97c0.39-0.03,0.61-0.12,0.68-0.27s0.1-0.7,0.1-1.63v-9.62
			c0-1.5-0.2-2.57-0.6-3.2c-0.4-0.63-1.07-0.95-2.02-0.95c-0.67,0-1.29,0.2-1.86,0.6s-0.98,0.91-1.21,1.53
			c-0.1,0.39-0.15,1.82-0.15,4.29v7.31c0,0.85,0.01,1.34,0.04,1.47c0.08,0.31,0.3,0.46,0.68,0.46h1.1c0.33,0,0.49,0.1,0.49,0.29
			c0,0.17-0.19,0.25-0.58,0.25h-0.27c-0.26,0-1.13,0-2.63,0c-0.52,0-1.21,0-2.07,0s-1.39,0-1.57,0h-0.43c-0.31,0-0.46-0.1-0.46-0.31
			c0-0.13,0.08-0.21,0.23-0.23c0.15-0.03,0.67-0.04,1.55-0.04c0.41-0.03,0.63-0.15,0.66-0.39l0.04-0.54v-10.77
			c0-1.49-0.19-2.52-0.56-3.09c-0.37-0.57-1.03-0.85-1.98-0.85c-0.95,0-1.74,0.3-2.37,0.89c-0.63,0.59-0.94,1.34-0.94,2.24v10.96
			c0,0.77,0.06,1.23,0.17,1.37s0.49,0.21,1.12,0.21h0.3c0.15-0.03,0.29-0.04,0.42-0.04c0.28,0,0.42,0.1,0.42,0.31
			c0,0.18-0.17,0.27-0.5,0.27h-0.39c-0.62-0.03-1.59-0.03-2.9,0h-3.79c-0.36,0-0.54-0.1-0.54-0.31c0-0.18,0.17-0.27,0.5-0.27
			c0.98,0,1.55-0.04,1.7-0.13c0.16-0.09,0.25-0.25,0.27-0.48v-10.04c0-1.93-0.04-3.06-0.12-3.4c-0.08-0.33-0.45-0.5-1.12-0.5h-0.54
			c-0.23,0-0.48,0-0.74,0c-0.34,0-0.5-0.09-0.5-0.27c0-0.16,0.06-0.25,0.17-0.27c0.12-0.03,0.54-0.06,1.26-0.12
			c0.59-0.03,1.34-0.18,2.23-0.46s1.4-0.53,1.53-0.74c0.28-0.28,0.49-0.43,0.62-0.43c0.13,0,0.21,0.1,0.23,0.31
			c0.03,0.21,0.05,0.93,0.08,2.17c1.03-1.65,2.62-2.48,4.77-2.48c2.3,0,3.7,0.86,4.19,2.59c1.01-1.73,2.62-2.59,4.84-2.59
			c1.91,0,3.2,0.68,3.88,2.05c0.36,0.72,0.54,1.92,0.54,3.6v9.56c0,0.88,0.04,1.36,0.13,1.45c0.09,0.09,0.49,0.16,1.2,0.21h0.69
			C336.93,296.05,337.07,296.14,337.07,296.33z"/>
		<path class="st0" d="M363.54,292.33c0,0.26-0.2,0.72-0.6,1.37c-0.4,0.66-0.81,1.19-1.22,1.61c-1.11,1.14-2.59,1.7-4.45,1.7
			c-2.32,0-4.26-0.84-5.82-2.51c-1.56-1.68-2.34-3.75-2.34-6.23c0-2.58,0.74-4.73,2.23-6.46c1.48-1.73,3.33-2.59,5.55-2.59
			c1.83,0,3.37,0.54,4.6,1.61s1.9,2.44,1.97,4.12c-0.83,0.13-1.92,0.18-3.29,0.15h-2.71c-0.18,0-1.73,0.04-4.64,0.12
			c-0.13,0.85-0.19,1.66-0.19,2.43c0,2.6,0.5,4.59,1.49,6c0.99,1.4,2.39,2.1,4.2,2.1c1.03,0,1.86-0.23,2.48-0.7
			c0.62-0.46,1.29-1.35,2.01-2.67c0.1-0.21,0.24-0.31,0.42-0.31C363.44,292.06,363.54,292.15,363.54,292.33z M360.17,284.43
			c-0.1-3.1-1.21-4.64-3.33-4.64c-2.09,0-3.39,1.55-3.91,4.64H360.17z"/>
		<path class="st0" d="M394.15,296.33c0,0.19-0.19,0.29-0.58,0.29h-0.46c-0.46,0-1.1,0-1.9,0c-2.53,0-4.02,0-4.49,0h-0.27
			c-0.34,0-0.5-0.09-0.5-0.27c0-0.13,0.07-0.21,0.21-0.23c0.14-0.03,0.64-0.05,1.49-0.08c0.49-0.03,0.77-0.1,0.85-0.21
			c0.08-0.12,0.12-0.53,0.12-1.25v-7.41c0-2.8-0.1-4.48-0.31-5.02c-0.44-1.16-1.32-1.74-2.63-1.74c-1.29,0-2.37,0.57-3.25,1.7
			c-0.26,0.33-0.39,0.8-0.39,1.39v12.04c0,0.31,0.28,0.48,0.83,0.5l1.18,0.04c0.26,0,0.39,0.09,0.39,0.27
			c0,0.18-0.15,0.27-0.46,0.27h-0.62c-0.57,0-1.47,0-2.71,0c-0.28,0-0.9,0-1.84,0c-0.94,0-1.49,0-1.64,0h-0.23
			c-0.39,0-0.58-0.08-0.58-0.24s0.23-0.26,0.7-0.3c0.33,0,0.66,0,0.97,0c0.39,0,0.62-0.09,0.7-0.27l0.12-0.58v-8.41
			c0-2.93-0.03-4.55-0.08-4.86c-0.05-0.31-0.37-0.46-0.97-0.46c-0.18,0-0.49,0-0.93,0h-0.19c-0.52,0-0.77-0.1-0.77-0.29
			c0-0.25,0.27-0.37,0.81-0.37c0.77-0.03,1.61-0.17,2.52-0.43c0.9-0.26,1.53-0.55,1.9-0.89c0.23-0.21,0.41-0.31,0.54-0.31
			c0.18,0,0.27,0.25,0.27,0.74v1.86c1.34-1.73,3.07-2.59,5.18-2.59c1.86,0,3.2,0.68,4.02,2.05c0.46,0.77,0.7,2.24,0.7,4.41v8.82
			c0,0.83,0.04,1.28,0.12,1.35c0.16,0.15,0.53,0.23,1.12,0.23c0.08,0,0.22,0,0.42,0h0.27C394.02,296.08,394.15,296.16,394.15,296.33
			z"/>
		<path class="st0" d="M414.5,296.31c0,0.23-0.22,0.35-0.66,0.35c0.03,0-0.28-0.03-0.93-0.08c-0.77-0.05-1.42-0.08-1.94-0.08h-4.02
			c-0.13,0.1-0.28,0.16-0.46,0.16c-0.28,0-0.43-0.1-0.43-0.29c0-0.27,0.26-0.41,0.77-0.41c0.98-0.03,1.52-0.1,1.61-0.21
			c0.09-0.12,0.14-0.65,0.14-1.61v-11.72c-0.03-0.64-0.06-1.03-0.1-1.14c-0.04-0.12-0.2-0.17-0.48-0.17h-1.12c-0.1,0-0.23,0-0.39,0
			c-0.28,0-0.43-0.09-0.43-0.27c0-0.16,0.22-0.25,0.65-0.27c1.71-0.08,3.17-0.48,4.39-1.21l0.38-0.23c0.2,0.39,0.3,1.09,0.3,2.12
			c0-0.05,0,0.08,0,0.39c0,0.31,0,0.81,0,1.51v10.54c0,1.03,0.02,1.63,0.06,1.81c0.04,0.18,0.17,0.3,0.41,0.35
			c0.39,0.1,0.95,0.15,1.7,0.15C414.32,296,414.5,296.11,414.5,296.31z M411.6,272.2c0,1.16-0.58,1.74-1.74,1.74
			c-0.49,0-0.9-0.16-1.24-0.48s-0.5-0.72-0.5-1.18c0-1.21,0.58-1.82,1.74-1.82S411.6,271.04,411.6,272.2z"/>
	</g>
	<line class="st1" x1="36.15" y1="289.78" x2="65.21" y2="289.78"/>
	<line class="st1" x1="437.97" y1="289.78" x2="467.03" y2="289.78"/>
</g>
</svg>
