<?xml version="1.0" encoding="utf-8"?>
<!-- Generator: Adobe Illustrator 25.2.3, SVG Export Plug-In . SVG Version: 6.00 Build 0)  -->
<svg version="1.1" id="レイヤー_1" xmlns="http://www.w3.org/2000/svg" xmlns:xlink="http://www.w3.org/1999/xlink" x="0px"
	 y="0px" viewBox="0 0 319.75 217.17" style="enable-background:new 0 0 319.75 217.17;" xml:space="preserve">
<style type="text/css">
	.st0{fill:#666666;}
</style>
<g>
	<g>
		<path class="st0" d="M77,62.55c3.91-3.19,6.69-6.87,8.83-11.47c1.32-2.91,2.59-7.15,2.59-8.65c0-0.86-0.46-1.27-2.23-2
			c0.46-0.64,0.82-0.86,1.5-0.86c1.37,0,2.96,0.46,4.92,1.41c2.5-1.82,3.78-3.1,5.92-6.01c-2.82-0.09-4.32-0.14-5.33-0.14
			c-4.01,0-7.24,0.36-11.88,1.23c-1.46,0.32-1.46,0.32-3.78,1.18c-0.27,0.09-0.46,0.14-0.55,0.14c-1.27,0-4.05-3.23-4.05-4.64
			c0-0.09,0.05-0.23,0.14-0.5c2.59,1.64,3.23,1.91,4.64,1.91c0.5,0,1.05-0.05,1.68-0.09c2.37-0.18,7.56-0.46,13.52-0.73
			c4.64-0.27,4.82-0.27,5.83-0.68c1-0.36,1.18-0.41,1.32-0.41c0.64,0,1.46,0.59,3,2.14c0.73,0.73,0.96,1.05,0.96,1.32
			c0,0.23-0.36,0.5-0.87,0.68c-0.91,0.32-1.09,0.41-1.82,0.82l-0.5,0.32c-1.09,0.68-4.14,2.5-7.51,4.42c-0.41,0.73-0.41,0.77-1,1.55
			c-0.77,1.05-0.91,1.32-1.37,2.46c-3.1,8.6-7.06,13.61-13.47,17.21L77,62.55z"/>
		<path class="st0" d="M131.27,42.53c4.1,0.77,5.87,1.32,8.1,2.41c2.55,1.27,3.78,2.64,3.78,4.28c0,1.09-0.59,1.87-1.41,1.87
			c-0.59,0-0.77-0.18-2.18-1.91c-2.59-3.19-4.87-4.69-8.28-5.46v9.19c0,2.05,0.09,2.96,0.32,4.96c0.09,0.68,0.14,1.32,0.14,1.77
			c0,1.59-1.27,3.19-2.55,3.19c-0.77,0-1-0.5-1-2.05c0-0.55,0-1.23,0.05-1.96c0.23-3.46,0.36-5.83,0.41-6.87l0.14-13.02
			c-0.05-5.6-0.14-5.78-3.87-6.69c0.59-0.68,1.14-0.86,2.37-0.86c2.19,0,4.92,1.18,4.92,2.14c0,0.23-0.09,0.46-0.18,0.77
			c-0.46,1-0.64,2.18-0.68,4.92L131.27,42.53z"/>
		<path class="st0" d="M173.47,40.12c0.05-0.18,0.05-0.41,0.05-0.64c0-4.28-0.14-4.51-2.91-5.1c0.73-0.59,1.46-0.82,2.37-0.82
			c1.87,0,3.91,1.09,3.91,2.09c0,0.27,0,0.36-0.23,0.86c-0.59,1.55-0.87,3.28-0.87,6.05c0,2,0.09,2.87,0.55,5.87
			c0.04,0.41,0.09,0.73,0.09,0.96c0,1.64-1.09,3.05-2.37,3.05c-0.64,0-0.96-0.32-0.96-1.05c0-0.5,0.04-1.37,0.14-2.28
			c0.05-0.59,0.05-1.14,0.09-1.64L173.47,40.12z M170.74,62.46c5.42-2.69,8.38-5.05,10.7-8.69c1.96-3.05,2.73-6.96,2.73-14.11
			c0-2.96-0.09-5.1-0.27-5.69c-0.27-1.09-0.68-1.27-3.64-1.96c1-0.59,1.64-0.82,2.5-0.82c2.14,0,5.01,1.37,5.01,2.37
			c0,0.09-0.05,0.36-0.23,0.82c-0.41,0.96-0.41,1.05-0.41,2.41c-0.18,10.79-0.46,12.65-2.46,16.52c-2.37,4.28-8.24,8.47-13.66,9.79
			L170.74,62.46z"/>
		<path class="st0" d="M231.24,40.16c-1.37,0-2.91,0-5.64,0.09c1.37,1.46,1.82,2.14,1.82,2.91c0,0.23,0,0.27-0.18,0.73
			c-0.5,1.55-0.64,2.91-1,9.65c6.74-0.09,6.74-0.09,10.24-0.86c1.18-0.23,1.46-0.27,1.78-0.27c1.64,0,4.28,1.77,4.28,2.87
			c0,0.46-0.46,0.73-1.14,0.73c-0.5,0-1.09-0.05-1.73-0.14c-2.55-0.32-3.5-0.36-6.19-0.36c-5.83,0-11.88,0.32-16.8,0.86
			c-1.32,0.14-2.59,0.46-3.91,0.86c-0.96,0.32-1.09,0.36-1.37,0.36c-1.55,0-4.14-2.73-4.14-4.28c0-0.23,0.05-0.41,0.14-0.86
			c1.96,1.77,2.69,2.05,4.73,2.05c0.59,0,1.09,0,2.5-0.14c4.42-0.32,4.64-0.32,9.1-0.55l0.23-8.92v-0.27c0-2.18-0.18-2.96-0.96-4.28
			c-2.69,0.23-4.05,0.5-5.69,1c-0.5,0.18-0.91,0.27-1.14,0.27c-0.73,0-2.19-0.82-3.1-1.68c-0.68-0.64-0.91-1.23-1.09-2.64
			c2.41,1.41,3.23,1.64,5.19,1.64c0.73,0,1.32,0,2.78-0.14c2.55-0.23,5.01-0.41,7.46-0.59c2.32-0.18,2.91-0.27,4.32-0.73
			c1.05-0.32,1.23-0.36,1.5-0.36c1,0,3.32,1.73,3.32,2.41c0,0.55-0.36,0.64-2.5,0.64H231.24z"/>
	</g>
	<g>
		<path class="st0" d="M75.73,146.48c6.86-0.98,10.86-2.04,16.21-4.15c9.95-4.07,14.78-9.5,14.78-16.89c0-4-1.73-7.69-4.75-10.18
			c-2.34-1.96-4.45-2.79-8.22-3.17c-4.98,7.69-9.27,13.19-14.4,18.32c0.6,1.13,1.13,2.19,1.43,2.49c0.9,1.36,0.98,1.58,0.98,2.56
			c0,0.83-0.15,1.81-0.45,2.71c-0.38,1.36-0.9,1.88-1.96,1.88c-1.43,0-2.41-1.43-4.15-5.81c-3.85,3.47-5.73,4.9-8.75,6.71
			c-4.15,2.56-6.79,3.47-9.58,3.47c-2.49,0-4-1.73-4-4.6c0-5.5,2.49-11.46,7.01-16.74c3.77-4.45,6.41-6.48,12.67-9.73
			c0.45-5.2,0.53-5.96,0.98-11.08c-2.64,0.45-3.62,0.68-5.58,1.13c-1.96,0.45-2.34,0.53-3.09,0.53c-1.58,0-3.24-0.98-4.52-2.64
			c-1.66-2.11-2.79-4.75-2.79-6.48c0-0.53,0.15-0.9,0.6-1.51c4.52,6.18,5.05,6.63,8.37,6.63c2.11,0,4-0.3,7.69-1.13
			c1.81-7.77,1.96-8.82,1.96-10.71c0-2.41-0.6-3.02-5.05-4.9c1.13-0.75,1.81-1.13,2.49-1.13c3.62,0,9.65,3.32,9.65,5.35
			c0,0.53-0.15,0.75-1.51,3.09c-1.36,2.56-2.41,4.98-3.17,7.77c5.58-1.36,7.09-1.81,9.5-3.17c-0.68-0.53-1.36-0.98-1.66-1.13
			c-2.34-1.73-2.41-1.73-3.47-3.24l0.53-0.75c3.09,1.73,6.33,3.02,7.61,3.02c0.38,0,0.83-0.08,1.43-0.15
			c1.96-0.38,3.24-0.53,3.47-0.53c1.43,0,4,1.81,4,2.86c0,1.13-2.11,1.96-7.77,3.09c-5.5,1.13-8.07,1.73-14.32,3.24
			c-0.75,3.47-1.06,5.88-1.36,10.4c4-1.28,6.11-1.66,12.82-2.49c0.3-1.13,0.53-1.81,0.53-2.04c0-0.68-0.45-1.58-2.41-4.3
			c0.6-0.15,0.98-0.23,1.21-0.23c1.96,0,7.09,4.3,7.09,5.96c0,0.23-0.08,0.38-0.38,0.68c5.65,1.13,9.05,2.56,11.84,4.98
			c3.24,2.79,5.2,7.24,5.2,11.69c0,8.82-6.63,15.53-18.85,19c-6.11,1.81-10.86,2.41-17.72,2.49L75.73,146.48z M72.57,116.1
			c-8.22,4.37-14.48,13.65-14.48,21.56c0,1.06,0.23,1.36,0.98,1.36c1.21,0,4.22-1.13,7.01-2.56c3.09-1.66,4.9-3.02,7.92-5.65
			c-1.21-4.75-1.51-7.01-1.51-12.29L72.57,116.1z M88.4,112.26c-5.05,0.23-7.54,0.75-11.76,2.34c-0.08,1.06-0.15,1.58-0.15,2.34
			c0,3.77,0.45,6.94,1.51,10.33C83.42,121,84.93,118.89,88.4,112.26z"/>
		<path class="st0" d="M152.48,139.85c8.07-0.68,13.27-1.89,19-4.3c7.24-3.02,10.93-8.14,10.93-14.85c0-5.81-3.32-10.48-9.2-12.97
			c-3.09-1.28-5.5-1.73-11.08-2.04c-3.47,7.16-6.18,12.06-9.88,17.49c0.6,0.75,1.21,1.43,1.43,1.66c1.88,1.81,2.41,2.56,2.41,3.47
			c0,1.06-0.9,1.73-2.41,1.73c-1.73,0-2.94-0.68-4.75-2.79c-6.03,5.96-9.65,7.92-14.78,7.92c-4.75,0-7.46-2.79-7.46-7.84
			c0-6.79,3.85-12.21,12.67-18.02c-4.15-12.06-5.2-13.65-11.16-16.51c0.9-0.38,1.66-0.6,2.19-0.6c0.68,0,2.49,0.53,3.77,1.13
			c2.79,1.28,4.45,3.85,9.05,14.02c4.75-2.26,8.9-3.32,15.08-4c2.04-5.43,3.09-9.05,3.09-10.25c0-1.88-2.79-2.79-9.12-2.87
			c1.06-1.36,1.43-1.58,3.02-1.96c1.13-0.3,2.34-0.45,3.32-0.45c4.22,0,9.2,3.09,9.2,5.73c0,0.53-0.15,0.98-0.75,1.96
			c-0.98,1.51-1.28,2.04-1.81,3.17l-0.3,0.75c-0.23,0.53-0.91,2.11-1.66,3.77c5.88,0.23,8.22,0.6,11.84,1.88
			c8.29,2.94,13.04,8.9,13.04,16.44c0,7.84-5.05,13.8-14.7,17.04c-6.03,2.11-10.63,2.71-20.66,2.86L152.48,139.85z M140.35,111.8
			c-6.26,4.45-9.58,9.8-9.58,15.61c0,2.94,0.98,4.22,3.09,4.22c3.77,0,8.44-2.56,12.82-7.09
			C144.34,120.93,143.06,118.44,140.35,111.8z M149.77,120.55c2.94-4.22,4.83-7.77,7.54-14.7c-5.65,0.6-9.35,1.73-13.12,4
			C146.23,114.82,147.21,116.63,149.77,120.55z"/>
		<path class="st0" d="M222.37,102.91c-2.49,4.22-3.69,6.71-5.05,10.71c-2.56,7.24-4.3,15.53-4.3,20.81c0,0.98,0.23,3.09,0.45,4.22
			c0.23,1.06,0.23,1.21,0.23,1.73c0,1.21-0.83,1.89-2.41,1.89c-1.96,0-3.39-1.81-4.75-6.11c-1.06-3.24-1.66-7.99-1.66-12.74
			c0-4.37,0.53-8.07,1.88-13.65c1.06-4.15,2.34-9.2,2.64-10.33c0.23-0.53,0.3-0.98,0.3-1.36c0-1.43-1.73-3.24-5.2-5.35
			c0.53-0.68,0.91-0.9,1.28-0.9c0.83,0,4.07,1.58,6.94,3.39c1.81,1.13,2.94,2.41,2.94,3.32c0,0.6-0.08,0.75-1.88,3.02
			c-2.87,3.69-5.35,13.04-5.35,20.58c0,3.24,0.3,5.35,1.28,9.5c2.49-12.29,6.18-21.86,11.46-29.4L222.37,102.91z M228.33,109.47
			c3.24-3.54,5.66-5.65,10.33-9.12c-6.03-0.53-8.29-0.98-11.46-2.41c-3.24-1.51-3.69-2.04-3.69-3.92c5.43,2.49,8.29,3.17,13.87,3.17
			c3.54,0,7.92-0.68,11.61-1.81c1.06-0.3,1.88-0.53,2.41-0.53c1.81,0,4.98,2.41,4.98,3.69c0,1.21-0.75,1.43-4.67,1.43
			c-7.84,0-11.54,1.73-22.02,10.48L228.33,109.47z M225.39,117.31c0.91,7.92,2.04,10.56,5.28,12.82c3.17,2.19,6.71,2.87,14.32,2.87
			c6.03,0,9.8-0.3,12.29-1.13c1.96-0.6,2.04-0.6,2.79-0.6c2.11,0,5.43,2.26,5.43,3.69c0,1.81-2.94,2.49-10.93,2.49
			c-12.89,0-19.75-0.9-23.67-3.17c-4.6-2.71-7.09-7.24-7.09-13.04c0-1.28,0.15-2.04,0.45-3.77L225.39,117.31z"/>
	</g>
	<g>
		<g>
			<path class="st0" d="M70.08,184.36c0,0.28-0.29,0.57-0.87,0.87c-0.58,0.3-1.14,0.46-1.68,0.46c-1.13,0-1.72-0.58-1.76-1.75
				c-0.62,1.22-1.58,1.82-2.89,1.82c-0.7,0-1.28-0.21-1.74-0.63c-0.46-0.42-0.69-0.96-0.69-1.61c0-1.35,0.8-2.41,2.42-3.2
				c0.55-0.26,1.51-0.53,2.88-0.79v-0.62c0-1.44-0.07-2.4-0.22-2.86c-0.26-0.84-0.85-1.26-1.77-1.26c-0.57,0-1.06,0.16-1.44,0.47
				c-0.39,0.31-0.58,0.71-0.58,1.18c0,0.13,0.1,0.2,0.3,0.2c0.2,0,0.38,0.1,0.54,0.29c0.16,0.2,0.24,0.42,0.24,0.67
				c0,0.72-0.36,1.08-1.07,1.08c-0.37,0-0.68-0.13-0.93-0.38c-0.24-0.25-0.37-0.58-0.37-0.97c0-0.77,0.3-1.44,0.91-2
				c0.67-0.61,1.61-0.91,2.81-0.91c1.81,0,2.91,0.49,3.32,1.48c0.15,0.38,0.22,1.12,0.22,2.24v4.61c0,0.75,0.01,1.2,0.02,1.33
				c0.08,0.59,0.32,0.89,0.71,0.89c0.46,0,0.84-0.16,1.13-0.49c0.16-0.18,0.29-0.27,0.37-0.27S70.08,184.26,70.08,184.36z
				 M65.74,181.75v-1.8c-1.21,0.28-2.08,0.64-2.61,1.1c-0.53,0.45-0.79,1.06-0.79,1.81c0,0.53,0.15,0.96,0.45,1.29
				s0.68,0.5,1.13,0.5c0.7,0,1.25-0.39,1.67-1.18C65.69,183.29,65.74,182.72,65.74,181.75z"/>
			<path class="st0" d="M83.65,184.01c0,0.15-0.21,0.41-0.62,0.79c-0.71,0.64-1.54,0.96-2.51,0.96c-0.9,0-1.58-0.23-2.04-0.69
				c-0.26-0.26-0.39-1.03-0.39-2.31v-7.32c-0.02-0.16-0.11-0.25-0.27-0.27h-0.94c-0.36,0-0.54-0.06-0.54-0.17
				c0-0.11,0.09-0.18,0.27-0.2c1.27-0.12,2.27-0.75,2.99-1.89c0.1-0.15,0.22-0.22,0.37-0.22c0.11,0,0.17,0.06,0.17,0.17v0.1
				c0,0.08,0,0.22,0,0.42c0,0.69,0.03,1.13,0.1,1.33c0.15,0.03,0.39,0.05,0.74,0.05c0.9,0,1.5-0.04,1.8-0.12
				c0.07-0.02,0.12-0.02,0.17-0.02c0.13,0,0.2,0.07,0.2,0.21c0,0.24-0.67,0.35-1.99,0.35c-0.23,0-0.57,0-1.01,0v4.56
				c0,2.3,0.06,3.74,0.17,4.32c0.11,0.58,0.49,0.87,1.13,0.87c0.54,0,1.15-0.3,1.82-0.91c0.07-0.08,0.14-0.12,0.22-0.12
				C83.59,183.89,83.65,183.93,83.65,184.01z"/>
			<path class="st0" d="M100.02,182.78c0,0.16-0.13,0.46-0.38,0.87c-0.25,0.42-0.51,0.76-0.78,1.02c-0.71,0.72-1.65,1.08-2.83,1.08
				c-1.48,0-2.71-0.53-3.71-1.6c-0.99-1.07-1.49-2.39-1.49-3.96c0-1.64,0.47-3.01,1.42-4.11c0.94-1.1,2.12-1.65,3.53-1.65
				c1.17,0,2.14,0.34,2.93,1.02s1.21,1.56,1.26,2.62c-0.53,0.08-1.22,0.12-2.09,0.1h-1.72c-0.12,0-1.1,0.03-2.96,0.07
				c-0.08,0.54-0.12,1.05-0.12,1.55c0,1.65,0.32,2.92,0.95,3.82c0.63,0.89,1.52,1.34,2.67,1.34c0.66,0,1.18-0.15,1.58-0.44
				c0.39-0.29,0.82-0.86,1.28-1.7c0.07-0.13,0.16-0.2,0.27-0.2C99.96,182.61,100.02,182.67,100.02,182.78z M97.88,177.76
				c-0.07-1.97-0.77-2.96-2.12-2.96c-1.33,0-2.16,0.99-2.49,2.96H97.88z"/>
			<path class="st0" d="M113.13,185.29c0,0.15-0.11,0.22-0.32,0.22h-0.3c-0.03,0-0.47-0.02-1.31-0.05h-0.76
				c-0.13,0-0.79,0.01-1.97,0.04c-0.1,0.01-0.2,0.01-0.3,0.01c-0.25,0.02-0.37-0.05-0.37-0.21c0-0.11,0.09-0.16,0.27-0.16h0.64
				c0.46,0,0.69-0.1,0.69-0.29c0.02-0.1,0.02-0.74,0.02-1.92v-12.54c0-0.54-0.02-0.84-0.05-0.89c-0.05-0.13-0.18-0.2-0.39-0.2h-0.2
				h-0.69c-0.23,0-0.35-0.07-0.35-0.21c0-0.12,0.21-0.19,0.62-0.21c0.79-0.05,1.52-0.23,2.19-0.54l0.52-0.25l0.2-0.07
				c0.13,0.48,0.19,1.2,0.17,2.17v1.75v12.07c0,0.49,0.01,0.78,0.02,0.87c0.02,0.09,0.07,0.15,0.17,0.19
				c0.02,0.02,0.32,0.03,0.91,0.05C112.94,185.12,113.13,185.18,113.13,185.29z"/>
			<path class="st0" d="M126.2,185.32c0,0.15-0.14,0.22-0.42,0.22c0.02,0-0.18-0.02-0.59-0.05c-0.49-0.03-0.9-0.05-1.23-0.05h-2.56
				c-0.08,0.07-0.18,0.1-0.3,0.1c-0.18,0-0.27-0.06-0.27-0.18c0-0.17,0.16-0.26,0.49-0.26c0.62-0.02,0.96-0.06,1.02-0.14
				s0.09-0.41,0.09-1.02v-7.46c-0.02-0.41-0.04-0.65-0.06-0.73c-0.02-0.07-0.13-0.11-0.31-0.11h-0.71c-0.07,0-0.15,0-0.25,0
				c-0.18,0-0.27-0.06-0.27-0.17c0-0.1,0.14-0.16,0.41-0.17c1.08-0.05,2.02-0.3,2.79-0.77l0.24-0.14c0.13,0.25,0.19,0.7,0.19,1.35
				c0-0.03,0,0.05,0,0.25c0,0.2,0,0.52,0,0.96v6.71c0,0.66,0.01,1.04,0.04,1.16c0.02,0.11,0.11,0.19,0.26,0.22
				c0.25,0.07,0.61,0.1,1.08,0.1C126.09,185.12,126.2,185.19,126.2,185.32z M124.36,169.98c0,0.74-0.37,1.11-1.11,1.11
				c-0.31,0-0.57-0.1-0.79-0.31c-0.21-0.21-0.32-0.46-0.32-0.75c0-0.77,0.37-1.16,1.11-1.16S124.36,169.24,124.36,169.98z"/>
			<path class="st0" d="M143.27,182.78c0,0.16-0.13,0.46-0.38,0.87c-0.25,0.42-0.51,0.76-0.78,1.02c-0.71,0.72-1.65,1.08-2.83,1.08
				c-1.48,0-2.71-0.53-3.71-1.6c-0.99-1.07-1.49-2.39-1.49-3.96c0-1.64,0.47-3.01,1.42-4.11c0.94-1.1,2.12-1.65,3.53-1.65
				c1.17,0,2.14,0.34,2.93,1.02s1.21,1.56,1.26,2.62c-0.53,0.08-1.22,0.12-2.09,0.1h-1.72c-0.12,0-1.1,0.03-2.96,0.07
				c-0.08,0.54-0.12,1.05-0.12,1.55c0,1.65,0.32,2.92,0.95,3.82c0.63,0.89,1.52,1.34,2.67,1.34c0.66,0,1.18-0.15,1.58-0.44
				c0.39-0.29,0.82-0.86,1.28-1.7c0.07-0.13,0.16-0.2,0.27-0.2C143.2,182.61,143.27,182.67,143.27,182.78z M141.13,177.76
				c-0.07-1.97-0.77-2.96-2.12-2.96c-1.33,0-2.16,0.99-2.49,2.96H141.13z"/>
			<path class="st0" d="M159.1,176.16c0,0.38-0.12,0.69-0.34,0.94c-0.23,0.25-0.53,0.37-0.89,0.37c-0.3,0-0.54-0.09-0.74-0.26
				c-0.2-0.17-0.29-0.39-0.29-0.65c0-0.23,0.07-0.43,0.22-0.59c0.15-0.16,0.22-0.28,0.22-0.34c0-0.25-0.18-0.37-0.54-0.37
				c-0.46,0-0.85,0.29-1.18,0.86c-0.38,0.67-0.57,1.91-0.57,3.72v4.85c0,0.2,0.07,0.32,0.21,0.37c0.14,0.05,0.56,0.08,1.27,0.1
				c0.18,0.03,0.27,0.1,0.27,0.2c0,0.12-0.11,0.17-0.32,0.17c-0.38,0-0.73,0-1.06,0c-0.33,0-0.95,0-1.87,0c-0.48,0-0.82,0-1.03,0
				s-0.48,0-0.81,0c-0.26,0-0.39-0.05-0.39-0.15s0.11-0.15,0.32-0.15h0.34c0.56,0,0.89-0.07,0.98-0.2c0.03-0.07,0.05-0.37,0.05-0.92
				v-6.81c0-0.91-0.14-1.43-0.41-1.57c-0.27-0.14-0.7-0.22-1.29-0.23c-0.2,0-0.3-0.06-0.3-0.17c0-0.11,0.08-0.17,0.25-0.17h0.17
				c0.25,0,0.49,0.01,0.74,0.04c0.25,0.03,0.35,0.04,0.32,0.04c0.61,0,1.28-0.17,2.02-0.52l0.32-0.15l0.2-0.07
				c0.07,0.39,0.1,0.79,0.1,1.18v0.49c0.52-1.12,1.26-1.67,2.22-1.67c0.53,0,0.96,0.16,1.31,0.48S159.1,175.68,159.1,176.16z"/>
			<path class="st0" d="M188.07,184.36c0,0.28-0.29,0.57-0.87,0.87c-0.58,0.3-1.14,0.46-1.68,0.46c-1.13,0-1.71-0.58-1.76-1.75
				c-0.62,1.22-1.58,1.82-2.89,1.82c-0.7,0-1.28-0.21-1.74-0.63c-0.46-0.42-0.69-0.96-0.69-1.61c0-1.35,0.81-2.41,2.42-3.2
				c0.55-0.26,1.51-0.53,2.88-0.79v-0.62c0-1.44-0.07-2.4-0.22-2.86c-0.26-0.84-0.85-1.26-1.77-1.26c-0.58,0-1.06,0.16-1.44,0.47
				c-0.39,0.31-0.58,0.71-0.58,1.18c0,0.13,0.1,0.2,0.3,0.2c0.2,0,0.38,0.1,0.54,0.29c0.16,0.2,0.24,0.42,0.24,0.67
				c0,0.72-0.36,1.08-1.07,1.08c-0.37,0-0.68-0.13-0.93-0.38c-0.24-0.25-0.37-0.58-0.37-0.97c0-0.77,0.3-1.44,0.91-2
				c0.67-0.61,1.61-0.91,2.81-0.91c1.81,0,2.91,0.49,3.33,1.48c0.15,0.38,0.22,1.12,0.22,2.24v4.61c0,0.75,0.01,1.2,0.02,1.33
				c0.08,0.59,0.32,0.89,0.71,0.89c0.46,0,0.84-0.16,1.13-0.49c0.16-0.18,0.29-0.27,0.37-0.27
				C188.03,184.21,188.07,184.26,188.07,184.36z M183.73,181.75v-1.8c-1.21,0.28-2.08,0.64-2.61,1.1c-0.53,0.45-0.79,1.06-0.79,1.81
				c0,0.53,0.15,0.96,0.45,1.29s0.68,0.5,1.13,0.5c0.7,0,1.25-0.39,1.67-1.18C183.68,183.29,183.73,182.72,183.73,181.75z"/>
			<path class="st0" d="M211.49,185.33c0,0.12-0.14,0.18-0.42,0.18c-0.03,0-0.21,0-0.53,0s-0.75,0-1.29,0c-0.05,0-0.92,0-2.61,0
				c-0.21,0-0.32-0.05-0.32-0.16c0-0.12,0.09-0.18,0.27-0.18h0.2h0.62c0.25-0.02,0.39-0.07,0.43-0.17c0.04-0.1,0.06-0.44,0.06-1.04
				v-6.12c0-0.95-0.13-1.63-0.38-2.04s-0.68-0.6-1.28-0.6c-0.42,0-0.82,0.13-1.19,0.38s-0.62,0.58-0.77,0.97
				c-0.07,0.25-0.1,1.16-0.1,2.73v4.65c0,0.54,0.01,0.85,0.02,0.94c0.05,0.2,0.19,0.29,0.44,0.29h0.7c0.21,0,0.32,0.06,0.32,0.18
				c0,0.11-0.12,0.16-0.37,0.16h-0.17c-0.16,0-0.72,0-1.67,0c-0.33,0-0.77,0-1.32,0c-0.55,0-0.88,0-1,0h-0.27
				c-0.2,0-0.29-0.07-0.29-0.2c0-0.08,0.05-0.13,0.15-0.15c0.1-0.02,0.43-0.02,0.99-0.02c0.26-0.02,0.4-0.1,0.42-0.25l0.03-0.34
				v-6.85c0-0.95-0.12-1.61-0.36-1.96c-0.24-0.36-0.66-0.54-1.26-0.54s-1.11,0.19-1.5,0.57c-0.4,0.38-0.6,0.85-0.6,1.42v6.98
				c0,0.49,0.04,0.78,0.11,0.87c0.07,0.09,0.31,0.13,0.72,0.13h0.19c0.1-0.02,0.19-0.02,0.27-0.02c0.18,0,0.27,0.07,0.27,0.2
				c0,0.12-0.11,0.17-0.32,0.17h-0.25c-0.39-0.02-1.01-0.02-1.85,0h-2.41c-0.23,0-0.35-0.07-0.35-0.2c0-0.11,0.11-0.17,0.32-0.17
				c0.62,0,0.99-0.03,1.08-0.09c0.1-0.06,0.16-0.16,0.17-0.31v-6.39c0-1.23-0.02-1.95-0.07-2.16c-0.05-0.21-0.29-0.32-0.71-0.32
				h-0.34c-0.15,0-0.3,0-0.47,0c-0.21,0-0.32-0.06-0.32-0.17c0-0.1,0.04-0.16,0.11-0.17s0.34-0.04,0.8-0.07
				c0.38-0.02,0.85-0.11,1.42-0.29s0.89-0.34,0.97-0.47c0.18-0.18,0.31-0.27,0.39-0.27s0.13,0.07,0.15,0.2
				c0.02,0.13,0.03,0.59,0.05,1.38c0.66-1.05,1.67-1.58,3.03-1.58c1.46,0,2.35,0.55,2.66,1.65c0.64-1.1,1.67-1.65,3.08-1.65
				c1.22,0,2.04,0.44,2.47,1.31c0.23,0.46,0.35,1.22,0.35,2.29v6.08c0,0.56,0.03,0.87,0.08,0.92c0.06,0.06,0.31,0.1,0.76,0.13h0.44
				C211.4,185.15,211.49,185.21,211.49,185.33z"/>
			<path class="st0" d="M228.33,182.78c0,0.16-0.13,0.46-0.38,0.87c-0.25,0.42-0.51,0.76-0.78,1.02c-0.71,0.72-1.65,1.08-2.83,1.08
				c-1.48,0-2.71-0.53-3.71-1.6c-0.99-1.07-1.49-2.39-1.49-3.96c0-1.64,0.47-3.01,1.42-4.11c0.94-1.1,2.12-1.65,3.53-1.65
				c1.17,0,2.14,0.34,2.93,1.02s1.21,1.56,1.26,2.62c-0.53,0.08-1.22,0.12-2.09,0.1h-1.72c-0.12,0-1.1,0.03-2.96,0.07
				c-0.08,0.54-0.12,1.05-0.12,1.55c0,1.65,0.32,2.92,0.95,3.82c0.63,0.89,1.52,1.34,2.67,1.34c0.66,0,1.18-0.15,1.58-0.44
				c0.39-0.29,0.82-0.86,1.28-1.7c0.07-0.13,0.16-0.2,0.27-0.2C228.27,182.61,228.33,182.67,228.33,182.78z M226.19,177.76
				c-0.07-1.97-0.77-2.96-2.12-2.96c-1.33,0-2.16,0.99-2.49,2.96H226.19z"/>
			<path class="st0" d="M247.81,185.33c0,0.12-0.12,0.18-0.37,0.18h-0.3c-0.3,0-0.7,0-1.21,0c-1.61,0-2.56,0-2.86,0h-0.17
				c-0.21,0-0.32-0.06-0.32-0.17c0-0.08,0.04-0.13,0.13-0.15c0.09-0.02,0.41-0.03,0.95-0.05c0.31-0.02,0.49-0.06,0.54-0.13
				c0.05-0.07,0.07-0.34,0.07-0.8v-4.72c0-1.78-0.07-2.85-0.2-3.19c-0.28-0.74-0.84-1.11-1.67-1.11c-0.82,0-1.51,0.36-2.07,1.08
				c-0.16,0.21-0.25,0.51-0.25,0.88v7.67c0,0.2,0.17,0.3,0.53,0.32l0.75,0.02c0.17,0,0.25,0.06,0.25,0.17c0,0.12-0.1,0.17-0.29,0.17
				h-0.39c-0.36,0-0.94,0-1.72,0c-0.18,0-0.57,0-1.17,0c-0.6,0-0.95,0-1.05,0h-0.15c-0.25,0-0.37-0.05-0.37-0.15
				s0.15-0.17,0.44-0.19c0.21,0,0.42,0,0.62,0c0.25,0,0.39-0.06,0.44-0.17l0.07-0.37v-5.35c0-1.87-0.02-2.9-0.05-3.09
				s-0.24-0.29-0.62-0.29c-0.12,0-0.31,0-0.59,0h-0.12c-0.33,0-0.49-0.06-0.49-0.18c0-0.16,0.17-0.24,0.52-0.24
				c0.49-0.02,1.03-0.11,1.6-0.27c0.57-0.16,0.98-0.35,1.21-0.57c0.15-0.13,0.26-0.2,0.34-0.2c0.12,0,0.17,0.16,0.17,0.47v1.18
				c0.85-1.1,1.95-1.65,3.3-1.65c1.18,0,2.04,0.44,2.56,1.31c0.3,0.49,0.44,1.43,0.44,2.81v5.61c0,0.53,0.02,0.81,0.07,0.86
				c0.1,0.1,0.34,0.15,0.71,0.15c0.05,0,0.14,0,0.27,0h0.17C247.73,185.17,247.81,185.22,247.81,185.33z"/>
			<path class="st0" d="M260.77,185.32c0,0.15-0.14,0.22-0.42,0.22c0.02,0-0.18-0.02-0.59-0.05c-0.49-0.03-0.9-0.05-1.23-0.05h-2.56
				c-0.08,0.07-0.18,0.1-0.29,0.1c-0.18,0-0.27-0.06-0.27-0.18c0-0.17,0.16-0.26,0.49-0.26c0.62-0.02,0.96-0.06,1.02-0.14
				s0.09-0.41,0.09-1.02v-7.46c-0.02-0.41-0.04-0.65-0.06-0.73c-0.02-0.07-0.13-0.11-0.31-0.11h-0.71c-0.07,0-0.15,0-0.25,0
				c-0.18,0-0.27-0.06-0.27-0.17c0-0.1,0.14-0.16,0.41-0.17c1.08-0.05,2.02-0.3,2.79-0.77l0.24-0.14c0.13,0.25,0.19,0.7,0.19,1.35
				c0-0.03,0,0.05,0,0.25c0,0.2,0,0.52,0,0.96v6.71c0,0.66,0.01,1.04,0.04,1.16c0.03,0.11,0.11,0.19,0.26,0.22
				c0.25,0.07,0.61,0.1,1.08,0.1C260.65,185.12,260.77,185.19,260.77,185.32z M258.92,169.98c0,0.74-0.37,1.11-1.11,1.11
				c-0.31,0-0.58-0.1-0.79-0.31c-0.21-0.21-0.32-0.46-0.32-0.75c0-0.77,0.37-1.16,1.11-1.16
				C258.55,168.87,258.92,169.24,258.92,169.98z"/>
		</g>
		<rect x="19.97" y="180.91" class="st0" width="18.49" height="0.5"/>
		<rect x="275.7" y="180.91" class="st0" width="18.5" height="0.5"/>
	</g>
</g>
</svg>
