<?xml version="1.0" encoding="utf-8"?>
<!-- Generator: Adobe Illustrator 25.2.3, SVG Export Plug-In . SVG Version: 6.00 Build 0)  -->
<svg version="1.1" id="レイヤー_1" xmlns="http://www.w3.org/2000/svg" xmlns:xlink="http://www.w3.org/1999/xlink" x="0px"
	 y="0px" viewBox="0 0 571.26 309.38" style="enable-background:new 0 0 571.26 309.38;" xml:space="preserve">
<style type="text/css">
	.st0{fill:#FCF0D0;}
</style>
<g>
	<path class="st0" d="M529.96,120.24c-0.38-2.1-0.87-3.88-0.99-5.67c-0.17-2.64-0.15-5.29-0.08-7.94c0.04-1.45,0.18-2.93,0.59-4.31
		c0.19-0.66,1.07-1.52,1.7-1.58c3.1-0.3,6.23-0.36,9.35-0.49c0.22-0.01,0.5-0.08,0.64,0.03c1.85,1.36,3.82,0.31,5.74,0.33
		c1.94,0.02,3.87,0.03,5.81,0.16c1.58,0.1,2.96,1.28,3.19,2.82c0.51,3.48,1.36,6.99,1.18,10.45c-0.17,3.24,0.35,6.34,0.57,9.5
		c0.31,4.33-3.73,5.73-6.73,4.86c-0.71-0.21-1.51-0.13-2.26-0.15c-1.5-0.03-3-0.06-4.5-0.05c-0.68,0.01-1.36,0.17-2.03,0.18
		c-1.28,0.01-2.57-0.02-3.85-0.08c-1.99-0.09-4-0.05-5.95-0.38c-1.76-0.29-2.72-1.48-2.88-3.43
		C529.34,122.89,528.34,121.27,529.96,120.24z"/>
	<g>
		<path class="st0" d="M85.12,252.63c0.92,1.44,1.75,2.88,3.36,3.82c1.34,0.78,2.09,2.24,1.72,3.93c-0.48,2.25-3.25,2.95-5.09,1.28
			c-1.15-1.05-2.36-2.09-3.3-3.32c-1.96-2.57-4.58-2.29-7.24-1.94c-1.34,0.17-2.66,0.59-4,0.64c-0.95,0.03-1.91-0.4-2.88-0.58
			c-0.48-0.09-1-0.21-1.46-0.12c-1.36,0.27-2.51-0.04-3.33-1.17c-0.7-0.97-1.49-1.95-1.85-3.05c-0.57-1.74-1.87-2.15-3.3-1.96
			c-1.67,0.22-3.41,0.6-4.9,1.36c-3.59,1.82-7.34,1.59-10.47-1c-0.37-0.3-0.83-0.72-0.89-1.14c-0.31-2.06-2.03-3.01-3.31-4.25
			c-0.5-0.48-1.51-0.47-2.3-0.6c-0.46-0.08-1.09,0.21-1.41-0.01c-1.31-0.89-2.33-0.01-3.49,0.31c-0.92,0.25-1.92,0.21-2.89,0.21
			c-0.95,0-1.92-0.07-2.86-0.22c-0.39-0.07-0.73-0.44-1.09-0.68c0.27-0.36,0.49-0.79,0.83-1.06c0.78-0.63,1.69-1.11,2.44-1.77
			c2.25-2,5.15-1.67,7.78-2.1c1.27-0.21,2.8,0.35,4.05,0.92c1.65,0.75,3.4,1.28,4.14,3.53c0.46,1.38,2.28,2.34,3.57,3.38
			c0.25,0.2,1,0.11,1.31-0.12c1.94-1.45,4.12-1.96,6.51-1.98c1.26-0.01,2.52-0.55,3.76-0.49c1.48,0.07,3.01,0.33,4.37,0.88
			c0.77,0.31,1.5,1.27,1.76,2.1c0.26,0.84,0.65,1.13,1.33,1.57c0.99,0.64,1.71,1.69,2.63,2.65c1.96-1.2,4.39-1.26,6.85-1.43
			c2.52-0.17,4.81,0.14,6.92,1.6c0.48,0.33,1.22,0.28,1.84,0.41C84.54,252.34,84.83,252.48,85.12,252.63z"/>
		<path class="st0" d="M85.19,277.67c-1.03,2.1-2.73,2.23-4.87,1.02c-2.47-1.39-5.14-2.52-7.85-3.33c-1.12-0.33-2.66,0.3-3.88,0.8
			c-5.3,2.13-7.79,0.03-9.82-3.65c-0.33-0.6-1.11-0.96-1.72-1.38c-0.3-0.21-0.72-0.25-1.03-0.46c-1.44-0.99-3.67-0.77-5.26-0.14
			c-2.17,0.87-4.52,1.3-6.79,1.87c-0.22,0.06-0.54-0.09-0.76-0.23c-2.3-1.47-4.64-2.81-6.4-5.06c-1.51-1.94-3.43-3.69-6.33-3.06
			c-1.72,0.37-3.43,0.79-5.17,1.02c-1.38,0.18-2.79,0.13-4.19,0.08c-0.21-0.01-0.64-0.69-0.56-0.89c0.74-1.82,1.12-3.97,3.74-4.13
			c1.32-0.08,2.64-0.27,3.94-0.52c1.2-0.24,2.36-0.75,3.56-0.89c0.66-0.08,1.4,0.34,2.08,0.58c0.6,0.21,1.2,0.46,1.75,0.76
			c1.19,0.66,2.42,1.28,3.51,2.09c1.69,1.25,3.21,2.73,4.93,3.93c0.74,0.52,1.75,0.8,2.66-0.14c0.37-0.38,1.07-0.46,1.63-0.65
			c1.16-0.39,2.31-0.81,3.49-1.13c2.02-0.55,4.1-0.68,5.99,0.33c1.8,0.96,3.46,2.2,5.18,3.32c0.13,0.09,0.24,0.22,0.34,0.35
			c0.61,0.81,1.17,2.28,1.82,2.32c1.63,0.1,3.38-0.22,4.94-0.78c2.59-0.93,4.91-0.8,7.28,0.61c1.91,1.14,3.97,2.04,5.96,3.04
			C84.91,274.1,85.85,276.32,85.19,277.67z"/>
	</g>
	<path class="st0" d="M103.2,36.38c-0.77,1.63-1.41,2.96-2.04,4.29c-0.11,0.23-0.38,0.48-0.33,0.66c0.75,2.97-1.11,5.31-1.94,7.87
		c-0.73,2.23-1.8,4.34-2.77,6.48c-0.24,0.53-0.58,1.08-1.01,1.46c-1.19,1.03-6.08,0.99-7.48,0.28c-1.42-0.72-3.03-1.07-4.53-1.66
		c-0.59-0.23-1.07-0.72-1.65-1c-0.45-0.22-0.97-0.34-1.47-0.41c-1.09-0.17-2.23-0.15-3.29-0.44c-1.58-0.44-3.21-0.91-4.62-1.71
		c-1.7-0.97-1.81-2.32-1.25-4.23c0.86-2.96,1.49-5.98,2.22-8.98c0.1-0.42,0.16-0.86,0.36-1.23c1.52-2.97,3.14-5.89,4.6-8.88
		c1.42-2.9,3.93-3.49,6.71-1.75c1.8,1.13,3.87,1.83,5.85,2.68c1.08,0.46,2.21,0.79,3.31,1.21c2.31,0.89,4.68,1.67,6.88,2.77
		C101.71,34.25,102.31,35.4,103.2,36.38z M77.82,47.67c0.36,0.07,0.79,0.13,1.2,0.25c1.99,0.61,3.71,1.82,5.96,1.92
		c1.38,0.06,2.7,1.25,4.08,1.86c0.36,0.16,1.12,0.22,1.22,0.05c0.98-1.73,1.92-3.48,2.75-5.28c1.04-2.26,1.97-4.57,3.08-7.18
		c-0.55-0.73-1.26-1.95-3.02-1.68c-0.4,0.06-0.87-0.1-1.25-0.27c-2.87-1.28-5.72-2.6-8.56-3.89C80.37,37.64,78.77,42.5,77.82,47.67z
		"/>
</g>
</svg>
