<?xml version="1.0" encoding="utf-8"?>
<!-- Generator: Adobe Illustrator 25.2.3, SVG Export Plug-In . SVG Version: 6.00 Build 0)  -->
<svg version="1.1" id="レイヤー_1" xmlns="http://www.w3.org/2000/svg" xmlns:xlink="http://www.w3.org/1999/xlink" x="0px"
	 y="0px" viewBox="0 0 911.54 309.38" style="enable-background:new 0 0 911.54 309.38;" xml:space="preserve">
<style type="text/css">
	.st0{fill:#E6EBDA;}
</style>
<g>
	<path class="st0" d="M817.61,102.92c-0.71-0.36-1.49-0.62-2.11-1.09c-0.7-0.54-1.27-1.27-1.87-1.94c-0.23-0.26-0.33-0.69-0.6-0.84
		c-2.65-1.52-1.48-5.77,0.9-7.14c4.41-2.52,8.73-5.23,13.67-6.71c0.85-0.26,1.57-0.95,2.41-1.28c1.64-0.64,3.3-1.24,5-1.73
		c1.37-0.4,2.73,0.58,2.83,2.08c0.21,3.01,0.28,6.03,0.41,9.05c0.01,0.31-0.06,0.64,0.04,0.92c1.07,3.24,0.66,6.58,0.72,9.88
		c0.03,1.54,0.15,3.1-0.07,4.61c-0.11,0.8-0.72,2.03-1.32,2.18c-1.68,0.4-3.51,0.62-5.2,0.36c-1.26-0.2-2.37-1.3-3.59-1.9
		c-1.08-0.54-2.29-0.84-3.33-1.44c-1.59-0.9-3.07-2.01-4.64-2.95c-1.09-0.65-2.25-1.17-3.38-1.74
		C817.52,103.11,817.57,103.01,817.61,102.92z"/>
	<path class="st0" d="M682.66,282.96c-0.67,2.51-1.1,5.11-2.08,7.48c-0.58,1.41-2.01,2.48-3.1,3.67c-0.23,0.25-0.58,0.45-0.91,0.56
		c-1.3,0.43-2.6,0.85-3.91,1.21c-3.85,1.06-7.43,0.49-10.72-1.83c-0.88-0.62-1.8-1.22-2.79-1.63c-2.19-0.92-2.5-2.91-3.33-4.8
		c-0.98-2.23-0.87-4.22-0.21-6.36c0.16-0.53,0.46-1.02,0.71-1.52c0.48-0.98,0.88-2.02,1.48-2.92c0.9-1.35,1.68-3.09,2.99-3.79
		c2.94-1.58,5.8-3.82,9.51-3.16c1.65,0.29,3.29,0.68,4.93,1.04c0.19,0.04,0.46,0.16,0.52,0.31c0.86,2.19,3.24,2.46,4.78,3.8
		c1.5,1.31,1.12,3,1.49,4.53c0.26,1.09,0.29,2.23,0.42,3.35C682.52,282.92,682.59,282.94,682.66,282.96z M670.34,275.3
		c-0.06,0.1-0.12,0.21-0.17,0.31c-0.96,0.11-1.91,0.27-2.87,0.32c-1.07,0.06-1.91,0.29-2.56,1.32c-0.65,1.02-1.59,1.89-2.47,2.74
		c-1.16,1.12-1.59,4.64-0.65,6c2.11,3.08,5.66,4.66,9.77,3.91c2.17-0.4,3.47-1.35,4.18-3.36c0.32-0.91,1.2-1.87,1.04-2.64
		c-0.45-2.08,0.06-4.59-2.18-6.04C673.06,277,671.69,276.16,670.34,275.3z"/>
	<path class="st0" d="M425.6,44.2c-2.06,0.94-4.01,0.96-6.07-0.24c-2.47-1.44-5.09-2.63-7.66-3.9c-0.58-0.29-1.24-0.44-1.83-0.72
		c-0.59-0.28-1.16-0.62-1.71-0.97c-1.05-0.67-2.01-1.5-3.13-2.03c-2.76-1.32-5.65-2.39-8.37-3.77c-2.28-1.16-2.08-4.63,0.25-6.18
		c2.03-1.35,4.02-2.76,6.12-4c1.01-0.6,2.22-0.86,3.34-1.28c0.26-0.1,0.68-0.14,0.76-0.33c0.6-1.36,1.87-1.34,3.02-1.76
		c1.09-0.39,1.99-1.33,2.95-2.06c3.73-2.84,7.72-1.15,8.33,3.53c0.17,1.31,0.57,2.46,1.3,3.67c0.91,1.5,1.24,3.4,1.62,5.17
		c0.4,1.89,0.46,3.76,1.28,5.66c1.19,2.73,1.58,5.81,0.2,8.76C425.87,43.89,425.73,44.05,425.6,44.2z M419.86,37.51
		c0.36-0.73,0.73-1.39,1-2.1c0.16-0.41,0.34-0.94,0.2-1.3c-0.37-1-0.93-1.93-1.36-2.91c-0.44-1.01-1.33-2.15-1.14-3.05
		c0.55-2.65-0.65-4.45-2.1-6.23c-2.74,0.67-4.44,3.58-7.62,2.82c-0.98,2.48-3.26,3.34-5.26,4.19
		C409.08,31.81,414.5,34.67,419.86,37.51z"/>
	<path class="st0" d="M43.69,192.65c-0.63,0.48-1.21,1.07-1.91,1.41c-0.8,0.39-1.7,0.58-2.57,0.82c-0.33,0.09-0.76-0.01-1.02,0.16
		c-2.53,1.71-5.83-1.22-6-3.96c-0.31-5.07-0.84-10.15,0.01-15.23c0.15-0.88-0.16-1.83-0.09-2.73c0.15-1.76,0.35-3.51,0.65-5.25
		c0.25-1.4,1.73-2.19,3.11-1.62c2.79,1.15,5.54,2.41,8.3,3.62c0.28,0.12,0.55,0.33,0.84,0.37c3.38,0.46,6.19,2.31,9.18,3.72
		c1.39,0.66,2.85,1.24,4.11,2.1c0.67,0.46,1.5,1.55,1.37,2.15c-0.38,1.68-0.99,3.43-1.97,4.83c-0.73,1.05-2.21,1.55-3.29,2.38
		c-0.96,0.73-1.77,1.68-2.76,2.36c-1.52,1.03-3.16,1.87-4.7,2.86c-1.06,0.69-2.04,1.5-3.06,2.26
		C43.82,192.83,43.76,192.74,43.69,192.65z"/>
	<g>
		<path class="st0" d="M878.59,243.27c0.87,1.36,1.65,2.71,3.17,3.6c1.26,0.73,1.97,2.11,1.63,3.71c-0.46,2.13-3.07,2.79-4.8,1.2
			c-1.09-0.99-2.23-1.97-3.11-3.13c-1.85-2.42-4.32-2.16-6.83-1.84c-1.27,0.16-2.51,0.56-3.78,0.6c-0.9,0.03-1.81-0.38-2.72-0.55
			c-0.45-0.09-0.94-0.2-1.38-0.11c-1.29,0.25-2.37-0.04-3.14-1.1c-0.66-0.91-1.41-1.84-1.75-2.88c-0.54-1.64-1.77-2.03-3.12-1.85
			c-1.57,0.21-3.22,0.57-4.62,1.28c-3.38,1.72-6.93,1.5-9.88-0.94c-0.35-0.29-0.78-0.68-0.84-1.07c-0.29-1.94-1.92-2.84-3.12-4.01
			c-0.47-0.46-1.42-0.45-2.17-0.57c-0.44-0.07-1.03,0.2-1.33-0.01c-1.23-0.84-2.2-0.01-3.3,0.29c-0.86,0.24-1.82,0.2-2.73,0.19
			c-0.9,0-1.81-0.06-2.69-0.21c-0.37-0.06-0.69-0.42-1.03-0.64c0.26-0.34,0.46-0.74,0.79-1c0.74-0.59,1.6-1.05,2.3-1.67
			c2.12-1.89,4.86-1.58,7.34-1.99c1.2-0.2,2.64,0.33,3.82,0.87c1.56,0.71,3.21,1.21,3.91,3.34c0.43,1.3,2.15,2.2,3.37,3.19
			c0.24,0.19,0.94,0.11,1.24-0.11c1.83-1.37,3.89-1.85,6.14-1.87c1.19-0.01,2.38-0.52,3.55-0.47c1.39,0.06,2.84,0.31,4.12,0.83
			c0.72,0.29,1.42,1.2,1.66,1.98c0.25,0.79,0.61,1.07,1.26,1.48c0.93,0.6,1.62,1.6,2.48,2.5c1.85-1.13,4.14-1.19,6.47-1.35
			c2.38-0.16,4.54,0.13,6.53,1.51c0.45,0.31,1.15,0.27,1.73,0.38C878.04,243,878.31,243.14,878.59,243.27z"/>
		<path class="st0" d="M878.65,266.9c-0.97,1.98-2.57,2.1-4.59,0.96c-2.33-1.31-4.85-2.38-7.41-3.14c-1.06-0.31-2.51,0.29-3.66,0.75
			c-5,2.01-7.35,0.03-9.27-3.45c-0.31-0.56-1.05-0.9-1.63-1.3c-0.29-0.2-0.68-0.23-0.97-0.43c-1.36-0.93-3.46-0.73-4.96-0.13
			c-2.05,0.82-4.26,1.22-6.41,1.77c-0.21,0.05-0.51-0.09-0.72-0.22c-2.17-1.39-4.38-2.65-6.04-4.78c-1.43-1.83-3.23-3.48-5.97-2.89
			c-1.62,0.35-3.24,0.75-4.88,0.96c-1.3,0.17-2.63,0.12-3.95,0.08c-0.2-0.01-0.61-0.65-0.53-0.84c0.7-1.71,1.06-3.75,3.53-3.9
			c1.25-0.08,2.5-0.25,3.72-0.49c1.13-0.22,2.22-0.71,3.36-0.84c0.62-0.07,1.32,0.32,1.96,0.55c0.57,0.2,1.13,0.43,1.65,0.72
			c1.12,0.62,2.28,1.21,3.31,1.97c1.59,1.18,3.03,2.57,4.65,3.71c0.7,0.49,1.66,0.76,2.51-0.13c0.35-0.36,1.01-0.44,1.53-0.62
			c1.09-0.37,2.18-0.77,3.29-1.07c1.91-0.52,3.87-0.64,5.65,0.31c1.7,0.91,3.27,2.07,4.89,3.13c0.13,0.08,0.23,0.2,0.32,0.33
			c0.57,0.77,1.1,2.15,1.72,2.19c1.54,0.1,3.19-0.21,4.66-0.73c2.44-0.88,4.63-0.76,6.87,0.58c1.8,1.08,3.74,1.93,5.62,2.87
			C878.39,263.54,879.28,265.63,878.65,266.9z"/>
	</g>
</g>
</svg>
