<?xml version="1.0" encoding="utf-8"?>
<!-- Generator: Adobe Illustrator 25.3.1, SVG Export Plug-In . SVG Version: 6.00 Build 0)  -->
<svg version="1.1" id="レイヤー_1" xmlns="http://www.w3.org/2000/svg" xmlns:xlink="http://www.w3.org/1999/xlink" x="0px"
	 y="0px" viewBox="0 0 518.4 396.8" style="enable-background:new 0 0 518.4 396.8;" xml:space="preserve">
<style type="text/css">
	.st0{fill:#7A6150;}
	.st1{fill:#F1EBE3;}
	.st2{fill:#FFEFDA;}
	.st3{fill:#FFEBE7;}
	.st4{fill:#F2E2F1;}
</style>
<g>
	<path class="st0" d="M278.4,145.8c-1.8,0.3-2.7-0.7-2.2-2.5c0.3-1,0.4-2,0.6-3.1c0-0.1-0.1-0.1,0-0.2c0.3-0.7,0.7-1.3,0.8-2
		c0.1-0.7-0.1-1.5-0.1-2.2c0-0.6,0.1-1.3,0.2-1.9c0.1-0.4,0.4-0.7,0.5-1.1c0.1-0.2,0.2-0.4,0.2-0.6c-0.5-1.7,0-3.3,0.3-5.3
		c-0.6,0.4-1.1,0.7-1.6,1c-0.2,0.1-0.4,0.3-0.7,0.4c-1.3,0.6-2.6,1.1-3.9,1.7c-0.9,0.4-1.8,0.8-2.7,1.3c-0.9,0.5-1.8,0.3-2.3-0.5
		c-0.3-0.6,0.1-1.5,0.9-1.9c1.8-1,3.5-2,5.3-2.9c1.1-0.6,2.2-1,3.5-1.5c-1-0.8-1.8-0.9-2.8-0.9c-1.3,0-2.5-0.3-3.8-0.4
		c-0.6-0.1-1.2,0-1.8-0.1c-0.6-0.1-1.1-0.2-1.7-0.3c-0.8,0-1.6,0.1-2.4,0.1c-0.8,0-1.6,0.1-2.4,0.1c-1-0.1-1.9-0.3-3-0.2
		c-1.7,0.2-3.5,0.1-5.3,0.2c-0.4,0-0.7,0-1.3,0.1c3.5,2.8,5.8,6.8,10,9.1c0.4-0.3,0.9-0.9,1.6-1.2c0.7-0.3,1.6-0.3,2.4-0.4
		c0,0,0.1,0.1,0.1,0.1c0,0.7,0.2,1.6-0.1,2c-0.5,0.7-1.4,1.1-2.1,1.5c-0.3,0.2-0.7,0.1-1,0.2c-0.2,0-0.4,0.1-0.6,0.1
		c-1-0.3-2-0.5-3-1c-1.1-0.5-2.1-1.2-3-2c-1.2-1.1-2.2-2.3-3.3-3.5c-0.7-0.7-1.5-1.4-2.4-2.2c-0.1,0.7-0.1,1.2-0.1,1.8
		c0,0.3,0,0.6-0.2,0.7c-0.7,0.5-0.5,1.2-0.4,1.8c0.1,2.4-0.3,4.8-1,7.1c-0.2,0.7-0.2,1.4-0.2,2.2c-0.1,0.6-0.1,1.3-0.2,2.2
		c0.8,0,1.6-0.1,2.4,0c1.3,0.1,2.5,0.4,3.8,0.5c1.2,0.1,2.4,0,3.6,0c0.8,0,1.7,0.2,2.5,0.2c0.9,0.1,1.8-0.1,2.6,0.1
		c1.7,0.4,3.4,0.1,5.1,0.2c1.8,0.1,3.6,0.5,5.4,0.8c0.2,0,0.5,0.4,0.5,0.6c0.2,1.1-0.5,1.7-1.6,1.6c-0.6-0.1-1.2,0.1-1.8,0.1
		c-2.2,0-4.4,0-6.6-0.1c-1,0-2.1-0.3-3.1-0.4c-1.6-0.1-3.1,0-4.7,0c-0.3,0-0.5,0-0.8-0.1c-1.8-0.8-3.6-0.3-5.5-0.5
		c-0.7-0.1-1.5-0.2-2.2-0.2c-0.2,0-0.4,0-0.5,0c-1.6,0.5-2.7-0.6-2.4-2.3c0.4-1.9,0.7-3.8,1-5.7c0.3-1.8,0.6-3.5,0.9-5.3
		c0.3-1.6,0.5-3.3,0.7-5c0.2-1.5,0.3-2.9,0.4-4.4c0.1-0.6,1.2-1.6,1.9-1.6c0.6,0,1.3-0.2,1.9-0.3c1.8-0.2,3.6-0.8,5.5-0.2
		c0.9,0.3,2,0.1,3,0c0.8,0,1.6-0.2,2.4-0.2c0.9,0,2-0.3,2.6,0.1c1.4,0.8,2.8-0.2,4.1,0.5c0.5,0.3,1.3,0,1.9-0.1
		c1.3,0,2.3,0.6,3.2,1.4c0.6,0.5,1.1,0.4,1.6,0c0.5-0.4,0.7-0.3,1.3,0c0.6,0.3,1.3,1.1,2.3,0.4c0.5-0.4,1-0.4,1.2,0.6
		c0.3,0.9,0.3,1.6,0,2.5c-0.2,0.6-0.3,1.3-0.3,2c-0.1,1.3-0.2,2.6-0.4,3.8c0,0.2-0.1,0.5-0.3,0.6c-0.6,0.6-0.8,1.2-0.4,2.1
		c0.2,0.4,0,1,0,1.4c0,0.6-0.1,1.3-0.2,1.9c0,0.2,0,0.4,0,0.5c-1.3,1-0.3,2.5-0.7,3.7c-0.1,0.3-0.1,0.6-0.2,1
		C279.2,143.4,278.8,144.6,278.4,145.8z"/>
	<path class="st0" d="M193.3,150c0.7-0.6,1.4-1.2,2.1-1.7c0.7-0.6,1.3-1.5,2.4-1.3c0-1.5,1.7-0.4,2.1-1.5c0.2,0.5,0.3,0.8,0.5,1.2
		c-0.3,0-0.5,0-0.6,0c-0.3,2-0.5,2.4-5,5.1c1.2-0.2,2.5-0.4,3.7-0.6c1.9-0.3,3.8-0.6,5.7-0.9c0.9-0.1,1.9,0.5,2,1.2
		c0.1,1.1-0.5,1.6-1.7,1.8c-1.3,0.2-2.5,0.4-3.8,0.6c-0.6,0.1-1.2,0.3-1.8,0.4c-0.6,0.1-1.2-0.1-1.7,0c-0.8,0.1-1.5,0.5-2.3,0.7
		c-0.4,0.1-0.8,0.4-1.2,0.3c-0.9,0-1.7,0.1-2.2,1.1c-0.1,0.3-1.1,0.4-1.5,0.1c-0.5-0.3-1-0.9-1-1.4c-0.1-2.4,0.8-4.7,1.5-7
		c0.4-1.3,1-2.5,1.6-3.7c0.4-0.8,1.8-1,2.4-0.5c0.5,0.5,0.3,0.9,0.1,1.5c-0.5,1.5-0.9,3.1-1.4,4.6C193.2,150,193.2,150,193.3,150z"
		/>
	<path class="st0" d="M215.6,139.4c-0.4,0.8-0.9,1.2-1.8,1.5c-1,0.3-1.8,1-2.7,1.5c-1.2,0.6-2.3,1.5-3.7,1.2
		c-0.8-0.2-0.9-0.6-0.4-1.2c0.1-0.1,0.2-0.3,0.2-0.4c0-0.8,0.5-1.2,1.2-1.5c1.6-0.6,3.2-1.2,4.9-1.7
		C214.1,138.4,214.9,138.7,215.6,139.4z"/>
	<path class="st0" d="M232.8,134.1c0-1.1,0.9-1.4,1.6-1.6c1.1-0.4,2.3-0.6,3.4-0.7c0.8-0.1,1.6,0,2.3,0.2c0.4,0.1,0.9,0.6,0.9,0.9
		c0,0.4-0.4,0.9-0.8,1.2c-0.6,0.4-1.4,0.6-2.1,0.8c-1.3,0.3-2.6,0.6-4,0.9C233.5,135.8,232.7,134.9,232.8,134.1z"/>
	<path class="st0" d="M223.8,135.6c0.1,0.2,0.2,0.5,0.4,1c0.3-1.2,0.9-2,2-1.5c0.6,0.3,1.8,0.5,1.3,1.9c-0.2-0.1-0.3-0.2-0.3-0.2
		c-0.5,0.3-0.9,0.8-1.4,0.9c-0.4,0.1-0.9-0.2-1.5-0.4c-0.8,1-2.1,1.5-3.6,1.7c-0.7,0.1-1.5,0-1.8-0.8c-0.1-0.5,0-1.5,0.3-1.6
		c0.9-0.5,1.9-0.8,3-1C222.7,135.4,223.2,135.5,223.8,135.6z"/>
	<path class="st0" d="M346.6,150c-0.7-0.6-1.4-1.2-2.1-1.7c-0.7-0.6-1.3-1.5-2.4-1.3c0-1.5-1.7-0.4-2.1-1.5
		c-0.2,0.5-0.3,0.8-0.5,1.2c0.3,0,0.5,0,0.6,0c0.3,2,0.5,2.4,5,5.1c-1.2-0.2-2.5-0.4-3.7-0.6c-1.9-0.3-3.8-0.6-5.7-0.9
		c-0.9-0.1-1.9,0.5-2,1.2c-0.1,1.1,0.5,1.6,1.7,1.8c1.3,0.2,2.5,0.4,3.8,0.6c0.6,0.1,1.2,0.3,1.8,0.4c0.6,0.1,1.2-0.1,1.7,0
		c0.8,0.1,1.5,0.5,2.3,0.7c0.4,0.1,0.8,0.4,1.2,0.3c0.9,0,1.7,0.1,2.2,1.1c0.1,0.3,1.1,0.4,1.5,0.1c0.5-0.3,1-0.9,1-1.4
		c0.1-2.4-0.8-4.7-1.5-7c-0.4-1.3-1-2.5-1.6-3.7c-0.5-0.8-1.8-1-2.4-0.5c-0.5,0.5-0.3,0.9-0.1,1.5c0.5,1.5,0.9,3.1,1.4,4.6
		C346.8,150,346.7,150,346.6,150z"/>
	<path class="st0" d="M324.4,139.4c0.4,0.8,0.9,1.2,1.8,1.5c1,0.3,1.8,1,2.7,1.5c1.2,0.6,2.3,1.5,3.7,1.2c0.8-0.2,0.9-0.6,0.4-1.2
		c-0.1-0.1-0.2-0.3-0.2-0.4c0-0.8-0.5-1.2-1.2-1.5c-1.6-0.6-3.2-1.2-4.9-1.7C325.8,138.4,325,138.7,324.4,139.4z"/>
	<path class="st0" d="M307.2,134.1c0-1.1-0.9-1.4-1.6-1.6c-1.1-0.4-2.3-0.6-3.4-0.7c-0.8-0.1-1.6,0-2.3,0.2
		c-0.4,0.1-0.9,0.6-0.9,0.9c0,0.4,0.4,0.9,0.8,1.2c0.6,0.4,1.4,0.6,2.1,0.8c1.3,0.3,2.6,0.6,4,0.9
		C306.4,135.8,307.2,134.9,307.2,134.1z"/>
	<path class="st0" d="M316.2,135.6c-0.1,0.2-0.2,0.5-0.4,1c-0.3-1.2-0.9-2-2-1.5c-0.6,0.3-1.8,0.5-1.3,1.9c0.2-0.1,0.3-0.2,0.3-0.2
		c0.5,0.3,0.9,0.8,1.4,0.9c0.4,0.1,0.9-0.2,1.5-0.4c0.8,1,2.1,1.5,3.6,1.7c0.7,0.1,1.5,0,1.8-0.8c0.1-0.5,0-1.5-0.3-1.6
		c-0.9-0.5-1.9-0.8-3-1C317.3,135.4,316.7,135.5,316.2,135.6z"/>
</g>
<g>
	<path class="st0" d="M357.2,91.4c-1.2-0.3-1.8-1.5-3.2-1.6c-0.4,0-0.7-0.7-1.1-1c-1.2-0.9-2.5-1.7-3.6-2.6
		c-0.3-0.3-0.5-0.7-0.8-1.1c-0.1-0.2-0.1-0.4-0.2-0.5c-0.2-0.3-0.7-0.7-0.6-0.9c0.2-0.5,0.6-1.1,1.1-1.2c1.3-0.3,2.6-0.4,3.9-0.6
		c0.8-0.1,1.5-0.4,2.3-0.7c1.5-0.5,3-0.9,4.4-1.5c0.8-0.3,1.4-0.8,2.1-1.3c0.3-0.2,0.6-0.2,0.9-0.4c0.3-0.2,0.5-0.4,0.8-0.6
		c0.4-0.3,0.8-0.7,1.2-1c0.1-0.1,0.2,0,0.3-0.1c0.8-1.2,1.7-2.4,2.5-3.7c0.5-0.7,0.9-1.5,1.3-2.3c0.2-0.3,0.3-0.7,0.2-1.1
		c-0.2-1.1-0.5-2.2-0.9-3.2c-0.4-0.9-1.1-1.7-1.8-2.4c-0.9-0.9-1.8-1.7-2.8-2.4c-0.5-0.4-1.2-0.5-1.8-0.8c-0.4-0.2-0.6-0.6-0.7-0.8
		c-1.3-0.3-2.4-0.5-3.4-0.7c-1.6-0.4-3.2-0.8-4.9-1.2c-0.7-0.2-1.3-0.5-1.9-0.6c-1.3-0.3-2.6-0.4-3.9-0.6c-0.8-0.1-1.7-0.3-2.5-0.4
		c-0.2,0-0.4-0.1-0.6-0.1c-0.8,0.3-1.4,0.5-2.2-0.1c-0.3-0.2-0.9,0.2-1.3,0.2c-0.6,0-1.2-0.1-1.8-0.2c-0.9-0.1-1.9-0.3-2.8-0.3
		c-1,0-1.9,0.2-2.9,0.2c-0.8,0-1.6-0.1-2.3-0.1c-2.6,0.1-5.2,0.2-7.8,0.4c-0.9,0.1-1.8,0.3-2.7,0.3c-0.9,0.1-1.8,0-2.8,0.1
		c-0.4,0-0.7,0.1-1.1,0.1c-0.7,0.1-1.4,0.4-2.1,0.4c-1.4,0.1-1.5,0-1.6-1.3c0.7-0.4,1.4-0.9,2.1-1.3c0.1-0.1,0.4,0,0.5,0
		c0.3,0,0.6,0.1,0.9,0c2.3-0.9,4.8-0.8,7.2-0.9c1.7-0.1,3.5-0.2,5.2-0.3c1.3-0.1,2.7-0.2,4-0.3c1.3,0,2.6,0,3.8,0.1
		c2,0.1,3.9,0.1,5.9,0.3c2,0.2,4,0.4,6,0.7c1.6,0.3,3.2,0.8,4.8,1.1c1.5,0.3,3.1,0.4,4.5,0.8c1.3,0.4,2.5,1,3.8,1.6
		c0.1,0.1,0.2,0.2,0.3,0.2c2.1-0.2,3.4,1.4,5,2.2c1.1,0.5,2.3,1.7,2.8,3.2c0.2,0.5,0.7,0.8,0.9,1.3c0.4,0.8,0.7,1.7,0.8,2.5
		c0.3,1.8,1,3.6,0,5.5c-0.3,0.6-0.6,1.2-1,1.7c-0.5,0.7-0.9,1.5-1.5,2.1c-0.5,0.5-1.1,1-1.7,1.4c-0.1,0.1-0.4,0-0.5,0.1
		c-0.6,1.7-2.9,1.7-3.5,3.4c-0.2,0.4-1.1,0.6-1.7,0.9c-0.2,0.1-0.4,0.1-0.5,0.2c-1.4,1-3.1,1.2-4.7,1.6c-1,0.2-2,0.6-3.4,1
		c1,0.7,1.8,1.4,2.7,1.9c1.7,1.1,3.6,1.8,5.5,2.6c0.8,0.3,1.7,1,2.1,1.7c0.7,1.4,0,2.2-1.2,2.5c-1.2,0.3-2.4,0.5-3.6,0.8
		c-1.6,0.4-3.1,0.1-4.6,0.3c-1.8,0.2-3.5-0.1-5.1-0.9c-0.3-0.2-0.8,0-1.3,0c-1.7-0.1-3.1-1.1-4.7-1.6s-2.9-1.5-4.2-2.4
		c-0.6-0.4-1.1-1-1.7-1.5c-0.1-0.1-0.4-0.3-0.5-0.2c-1.6,0.2-3.2,0.5-4.8,0.5c-1.2,0-2.5,0.5-3.6-0.5c-0.6,0.6-1.3,0.7-2.1,0.4
		c-0.3-0.1-0.7,0.1-1.1,0.1c-1.6,0-3.2,0.1-4.8-0.1c-2.2-0.3-4.6-0.6-6.6-1.7c-1.3-0.7-2.8-1.3-3.6-2.7c-0.3-0.4-0.2-1.2,0.1-1.7
		c0.1-0.2,1-0.3,1.4-0.2c0.5,0.1,1,0.5,1.5,0.8c1.4,1,3.1,1.5,4.7,1.8c1.7,0.4,3.3,0.7,5,1c0.2,0,0.4,0.2,0.5,0.1
		c1.5-0.8,2.9,0.3,4.4,0.1c1.7-0.3,3.5-0.5,5.2-0.6c1.6-0.1,3.1-0.2,4.7-0.1c0.5,0,1,0.8,1.5,1.2c0.1,0.1,0.2,0.4,0.4,0.5
		c1.4,0.8,2.8,1.7,4.3,2.4c1.3,0.6,2.7,0.9,4,1.4c0.3,0.1,0.6,0.1,0.8,0.3c0.8,0.7,1.6,0.6,2.6,0.5c0.7-0.1,1.4,0.3,2.2,0.4
		c1.5,0,3.1-0.1,4.6-0.2C357.1,91.6,357.1,91.5,357.2,91.4z"/>
	<path class="st0" d="M305.5,55.8c0.3-0.2,0.7-0.7,1.1-0.7c0.8,0.1,1.6,0.3,2.3,0.7c0.3,0.2,0.6,1.2,0.4,1.3
		c-0.5,0.4-1.1,0.8-1.7,0.7c-1-0.1-1.9-0.3-3,0.2s-2.4,0.4-3.7,0.6c-0.3,0.1-0.6,0.4-1,0.4c-2.4,0.3-4.4,1.4-6.5,2.5
		c-0.7,0.4-1.5,0.7-2.2,1.1c-1,0.5-4,2.5-4.4,3.5c-0.6,1.4-1.4,2.6-1.4,4.3c0,2.4,0.7,4.5,2.1,6.3c0.3,0.5,1,0.7,1.4,1.1
		c0.6,0.5,1.1,1,1.7,1.5c0.2,0.2,0.5,0.4,0.7,0.5c1.2,0.6,2.5,1.2,3.7,1.8c0.2,0.1,0.4,0.2,0.6,0.3c1.7,0.1,3.4,0.1,5,0.3
		c0.9,0.1,2.1,0.1,2.6,1.4c1.2-1.4,2.5-1.1,3.7-0.7c0.3-0.1,0.7-0.3,0.9-0.2c0.2,0.2,0.4,0.5,0.4,0.8c0,0.9-0.6,1.3-1.4,1.5
		c-1.2,0.2-2.2,0.1-3.2-0.8c-0.8,1.4-2.2,1-3.4,1c-1.4,0-2.8-0.4-4.2-0.7c-0.2,0-0.4-0.2-0.6-0.3c-0.5-0.2-0.9-0.5-1.4-0.5
		c-0.9,0.1-1.6,0-2.3-0.7c-0.5-0.5-1.2-0.8-2.1-1.3c-0.9,0.5-1.6-0.3-2.2-1.2c-0.2-0.3-0.5-0.5-0.8-0.8c-0.7-0.6-1.5-1.2-2-1.9
		c-1.2-1.9-2.5-3.9-1.8-6.4c0.2-0.9-0.1-1.9-0.1-2.8c0-0.1,0-0.3,0-0.4c0.5-1,1-1.9,1.6-2.9c0.5-0.8,1.1-1.6,1.7-2.3
		c0.8-0.9,1.7-1.7,2.7-2.3c1-0.6,2.2-0.9,3.2-1.6c1.4-0.9,2.8-1.3,4.4-1.7c1.2-0.3,2.3-0.8,3.5-1c1.4-0.2,2.6-1.2,4.1-1.1
		C304.5,55.5,305,55.7,305.5,55.8z"/>
	<path class="st0" d="M337.2,72.1c0-0.1,0.1-0.3,0.1-0.6c0.2,0.3,0.3,0.4,0.5,0.6c0.7-0.7,1.1-0.6,2.8,1c-0.6-0.1-1.2-0.2-1.8-0.3
		c-0.1,0-0.4-0.1-0.4,0c-0.5,0.5-1,0.4-1.6,0.2c-0.7-0.2-1.2-0.2-1.7,0.4c-0.3,0.3-0.7,0.4-1.2,0.1c-0.4-0.3-1.1-0.1-1.7-0.1
		c-1,0.1-2.1,0.2-3.1,0.2c-0.2,0-0.5,0-0.8,0c-0.7-0.1-1.4-0.2-2.2-0.2c-0.9,0-1.9,0-2.8,0c-1.7,0-3.5-0.1-5.2-0.2
		c-2.6-0.2-5.3,0.1-7.9,0.2c-1.1,0-2.1,0-3.2,0c-0.1,0-0.3,0-0.4,0.1c-0.4,0.1-1,0.3-1.2,0.1c-0.4-0.4-0.6-1-0.8-1.6
		c0-0.1,0.3-0.5,0.5-0.6c1.5-0.4,3-0.8,4.5-1c0.9-0.1,1.8-0.1,2.8-0.1c1.8,0,3.6,0,5.4,0c2.4,0,4.8,0.1,7.3,0.2
		c1.3,0,2.6,0.3,3.8,0.2c1.6,0,3.1,0.6,4.6,0.6C335,71.4,336,72.1,337.2,72.1z"/>
	<path class="st0" d="M338.8,63.3c0.6,0.9,0.5,1.2-0.3,2.1c-0.2-0.2-0.3-0.4-0.5-0.6c-0.8,0.4-1,0.4-2.5-0.6
		c-0.2,0.3-0.3,0.8-0.6,0.9c-0.7,0.1-1.3,0.1-2,0.1c-0.2,0-0.4-0.2-0.5-0.1c-1.7,0.9-3.5,0.2-5.2,0.4c-0.3,0-0.6,0.1-0.8,0.2
		c-0.3,0.1-0.6,0.3-0.8,0.2c-1.4-0.6-2.8,0-4.1,0.1c-1.6,0.1-3.1,0.2-4.7-0.2c-0.1,0-0.1,0-0.2,0.1c-0.9,0.4-1.8,0.4-2.7,0.3
		s-1.7,0.2-2.6,0.2c-0.5,0-1.1-0.2-1.8-0.3c-0.8,0.2-1.7,0.6-2.6,0.6c-0.3,0-0.7-0.7-0.9-1.1c-0.2-0.6,0.1-1.2,0.8-1.4
		c0.6-0.2,1.3-0.1,2-0.3c1.9-0.5,4-0.5,5.9-0.3c1.8,0.1,3.6-0.2,5.4,0c0.7,0.1,1.4-0.2,2.2-0.2c1.9,0,3.9,0.2,5.8,0.3
		c0.9,0,1.8-0.1,2.7,0c1.2,0.1,2.5,0.3,3.7,0.4c1,0.1,1.9,0,2.9,0c0.3,0,0.6,0.2,0.8,0.1C338.4,63.9,338.5,63.6,338.8,63.3z"/>
</g>
<g>
	<path class="st0" d="M217.5,30.3c1.3,0.8,2.6,0.1,4,0.3c1.4,0.2,2.8,0.6,4.2,0.5c1.6,0,3.1,0.9,4.6,0.8c1.5,0,2.8,0.4,4.2,0.6
		c2.5,0.4,4.9,1,7.4,1.5c0.6,0.1,1.2,0.2,1.8,0.3c0.6,0.2,1.1,0.5,1.7,0.7c0.3,0.1,0.8,0.1,1.1,0.3c1.3,0.7,2.7,1.2,3.8,2.1
		c1.3,0.9,2.4,2.2,3.6,3.2c1,0.9,1.2,2.1,1.6,3.3c0.2,0.8,0.8,1.5,1,2.3c0.2,0.9,0.3,2,0,2.8c-0.5,1.4-0.7,3.1-2.3,3.9
		c-0.2,0.1-0.3,0.6-0.5,0.8c-0.3,0.4-0.5,1.1-0.8,1.1c-1.1,0.1-1.5,1.1-2.3,1.6c-0.6,0.3-1.2,0.7-1.7,1c-0.9,0.5-1.7,1.2-2.6,1.6
		c-0.5,0.2-1.1,0.2-1.7,0.3c-0.3,0-0.7-0.2-1-0.3c-0.1,0.1-0.1,0.2-0.2,0.2c-0.2,0.3-0.4,0.5-0.6,0.8c-0.1-0.1-0.4-0.3-0.3-0.3
		c0.1-0.3,0.3-0.6,0.5-0.8c0.3-0.3,0.7-0.5,0.6-1.1c-0.1-0.7,1.5-2.1,2.3-2.4c1.1-0.5,2.1-1.1,3.1-1.6c0.9-0.5,1.7-1.3,2.7-1.7
		c0.5-0.2,0.5-0.5,0.6-0.8c0.4-1,1-2,1.2-3.1c0.2-1.4,0.3-3-0.8-4.3c-0.7-0.8-1.2-1.9-2-2.7c-0.7-0.7-1.6-1.4-2.5-1.9
		c-1.5-0.8-2.9-1.7-4.7-2c-2.5-0.4-4.9-1.4-7.3-1.5c-1.8-0.1-3.3-1-5.1-1.1c-0.3,0-0.6-0.3-1-0.5c-0.5,0-1.2,0.1-1.8,0
		c-1.4-0.2-2.9-0.4-4.3-0.6c-1.2-0.1-2.3-0.3-3.5-0.4c-0.6,0-1.3-0.1-1.9,0c-1.4,0.2-2.9-0.7-4.4,0.3c-0.2,0.1-0.7-0.2-1.1-0.2
		c-1.6-0.1-3.2-0.4-4.8,0.4c-0.3,0.1-0.9-0.1-1.1-0.4c-0.4-0.6-0.6-1.5,0.2-1.8c1.4-0.6,2.8-1,4.3-0.4c0.2,0.1,0.5,0,0.8-0.1
		c1.4-0.1,2.8-0.3,4.2-0.4c0.2,0,0.3-0.1,0.4-0.2C217.3,30.3,217.4,30.3,217.5,30.3z"/>
	<path class="st0" d="M197.4,74.1c0.7-0.8,1.2-1.6,1.9-2.2c0.6-0.6,1.5-1.1,2-1.8c0.5-0.7,0.9-1.6,0.9-2.5c0-0.6-0.5-1.2-0.9-1.7
		c-0.5-0.8-1.2-1.2-2.3-1.1c-0.8,0-1.6-0.7-2.4-0.9c-1.3-0.3-2.6-0.4-3.8-0.8c-2.1-0.5-4.2-1.2-6.3-1.7c-0.8-0.2-1.7-0.2-2.5-0.5
		c-1.4-0.6-2.9-0.8-4.4-1.2c-1.3-0.4-2.4-1.1-3.7-1.6c-1.2-0.5-2.5-0.9-3.7-1.6c-1-0.6-2.1-1.3-2.4-2.7c-1.6-0.3-2.3-1.3-2.5-3
		c-0.1-0.6-0.7-1.1-0.2-1.7c0.2-0.3,0.6-0.5,0.9-0.7c0.7,0.6,1.3,1.2,1.9,1.9c0.2,0.3,0.3,0.7,0.4,1c0.5,1.6,1.9,2,3.2,2.7
		c0.7,0.4,1.5,0.6,1.9,1.1c0.5,0.5,1.8,1.1,0.1,2.2c0.2,0,0.3,0,0.5,0c0.1-0.1,0.2-0.1,0.2-0.2c0.1-0.1,0-0.3,0.1-0.4
		c0.3-0.2,0.6-0.5,0.9-0.4c1.1,0.2,2.1,0.4,3.1,0.7c1.1,0.4,2.2,0.9,3.3,1.4c0.1,0.1,0.3,0.2,0.4,0.2c1.3-0.7,2.4,0.1,3.6,0.4
		c1,0.2,2,0.5,3,0.8c1.7,0.5,3.5,0.9,5.2,1.4c0.2,0,0.3,0,0.5,0c0.6,0.1,1.2,0.2,1.8,0.5c1,0.5,2.2,0.5,2.9,1.6c0.1,0.1,0.5,0,0.7,0
		c1.5,0,2,1.2,2.6,2.2c0.2,0.5,0.4,1,0.6,1.4c0.6,1.5-0.3,2.7-0.6,4c0,0.1-0.1,0.2-0.1,0.3c-1.2,1.3-2.4,2.6-3.7,3.9
		c-0.3,0.3-0.9,0.5-1.3,0.7c-0.4,0.2-0.7,0.5-1,0.7c0.1,0.1,0.1,0.2,0.2,0.4c1-0.3,2.1-0.6,3.1-0.9c0.5-0.1,1-0.3,1.5-0.4
		c1.7-0.2,2.9-1.4,4.5-2c1.1-0.4,2.2-0.9,3.4-1.2c0.2-0.1,0.3-0.3,0.5-0.4c0.6-0.3,1.3-0.7,1.9-1c0.3-0.2,0.6-0.3,0.9-0.5
		c0.5-0.2,1.1-0.5,1.6-0.7c0.1-0.1,0.2-0.1,0.3-0.2c0.5-0.3,0.9-0.7,1.4-1.1c0.1,0.1,0.1,0.1,0.2,0.2c-0.2,0.2-0.4,0.4-0.6,0.7
		c-0.2,0.2-0.5,0.6-0.4,0.8c0.4,1-0.4,1.2-0.9,1.6c-0.5,0.4-0.9,0.9-1.4,1.2c-0.4,0.3-0.9,0.5-1.4,0.7c-0.4,0.2-0.8,0.4-1.2,0.6
		c-1.7,0.8-3.4,1.7-5.2,2.5c-0.4,0.2-0.8,0.1-1.4,0.2c-0.5,1-1.3,1.5-2.6,1.2c-0.1,0-0.3,0-0.4,0.1c-1.3,1.1-2.9,1-4.4,1.4
		s-2.8,1.4-4.4,1.7c-1.3,0.3-2.7,0.1-4.1-0.1c-0.3,0-0.7-0.8-0.7-1.3c0-0.8,0.3-1.6,1.2-2c1.3-0.7,2.6-1.4,3.9-2.1
		c0.7-0.4,1.3-0.9,2-1.2C196.5,74.3,197.1,74.2,197.4,74.1z"/>
	<path class="st0" d="M175.8,36.8c0.2-1.1,0.8-1.4,2.2-1.8c1.4-0.3,2.6-1,4-1.4c1-0.3,2.1-0.7,3.1-0.9c1.7-0.3,3.4-0.6,5-0.9
		c1.5-0.2,3-0.3,4.5-0.4c0.5,0,1,0.2,1.5,0.3c-0.2,0.5-0.3,1.1-0.7,1.4s-1.1,0.2-1.7,0.4c-0.5,0.1-1,0.3-1.5,0.4
		c-1.8,0.4-3.7-0.1-5.4,1c-0.6,0.4-1.6,0.2-2.4,0.3c-0.3,0-0.5,0.2-0.7,0.3c-0.4,0.1-0.9,0.2-1.3,0.3c-0.6,0.2-1.1,0.4-1.7,0.6
		c-0.4,0.1-0.8,0.2-1.2,0.3c-0.2,0-0.5,0-0.7,0.1c-0.8,0.3-1.7,0.4-2.5,0.8c-0.6,0.3-1,0.8-1.5,1.2c-0.9,0.6-1.8,1.3-2.6,1.9
		c-0.2,0.2-0.4,0.5-0.6,0.7c-0.1,0.2-0.2,0.4-0.4,0.6c-1.3,1-1.9,2.5-2.4,4c-0.2,0.7-1.2,1.2-1.9,1c-0.8-0.3-0.8-1-0.6-1.5
		c0.6-1.4,1.3-2.7,2-4c0.1-0.2,0.3-0.3,0.3-0.5c0.1-0.8,0.7-1.2,1.4-1.5c0.3-0.1,0.4-0.4,0.7-0.6c1.1-0.8,2.2-1.6,3.4-2.3
		C174.7,36.6,175.3,36.8,175.8,36.8z"/>
	<path class="st0" d="M221,68.2c0,0.2,0.1,0.4,0.1,0.6c-0.5,0.1-1.1,0.3-1.6,0.2c-0.3,0-0.8-0.3-1-0.5c-0.2-0.4-0.1-0.9-0.1-1.3
		c0.3,0,0.7,0,1,0c0.2,0,0.3,0.1,0.3,0c0.4-0.3,0.7-0.5,1-0.7c1.7-1.5,4.2-1.9,5.5-4c0.2-0.3,0.3-0.6,0.3-1c0-0.7,0.1-1,0.9-1.1
		c1.5-0.2,3-0.5,4.5-0.8c2-0.4,4-0.8,6-1.2c1.5-0.3,2.9-0.9,4.3,0c0.3-0.4,0.5-0.7,0.7-1c0.1,0.1,0.2,0.1,0.2,0.2
		c0,0.1,0,0.3-0.1,0.4c-0.5,0.7-0.9,1.5-1.5,2.2c-0.5,0.6-1,0.9-1.9,0.8c-1,0-2,0.5-3,0.7c-2.2,0.6-4.4,1.1-6.7,1.1
		c-0.3,0-0.6,0-1,0c-0.1,0.3-0.3,0.6-0.3,0.9c0.1,1-0.8,1.7-1.4,1.9c-1.1,0.2-1.5,1.2-2.2,1.6c-1.1,0.7-2.4,1-3.7,1.4
		C221.5,68.6,221.2,68.3,221,68.2z"/>
	<path class="st0" d="M211.6,49.6c0.7-0.1,1.3-0.3,1.8-0.3c1.2,0,2.5,0.1,3.7,0.3c0.2,0,0.6,0.5,0.6,0.6c-0.1,0.6-0.3,1.2-1,1.3
		c-0.4,0-0.8,0.1-1.1,0.1c-1.2-0.3-2.4,0-3.6,0c-1,0-2.1-0.4-3.3,0.1c-0.8,0.4-1.9,0-2.9,0c-0.3,0-0.6-0.1-1-0.2
		c-0.1-0.3-0.2-0.6-0.3-0.9c-0.1,0-0.1,0-0.2,0.1c0,0.2,0.1,0.3,0.2,0.6c-2.1,0.4-4.2,0.7-6.4,0.2c-0.6-0.1-1.2,0.1-1.8,0.1
		c-1.3,0-2.6-0.1-3.9-0.1c-0.7,0-1.3,0.2-2,0.3c-0.8,0-1.6,0.1-2.3-0.1c-0.2,0-0.5-0.7-0.5-1c0.1-0.4,0.4-1.1,0.7-1.2
		c1.2-0.1,2.5-0.1,3.7-0.1c0.2,0,0.3-0.1,0.5-0.1c0.4-0.1,0.7-0.3,1.1-0.3c2.7,0,5.4,0.1,8.1,0c0.9,0,1.7-0.2,2.2,0.7
		c1.8-1.1,3.6-0.9,5.5-0.1C210.6,48.9,210.8,48.9,211.6,49.6z"/>
	<path class="st0" d="M213.4,42.5c0.6,0.3,1.1,0.6,1.7,0.9c0,0.1-0.1,0.3-0.1,0.4c-1.2,0-2.5,0-3.7,0.1c-0.9,0.1-1.9,0-2.8,0.3
		c-1.6,0.6-3.2,0.5-4.9,0.5c-1.1,0-2.1,0-3.2,0.1c-0.9,0.1-1.7-0.1-2.3-0.7c-0.4-0.4-0.6-1.1,0.1-1.5c0.6-0.3,1.4-0.7,2.1-0.6
		c2.1,0.3,4.1,0.1,6.2,0.2c1,0,2.1,0.3,3.1,0.5c0.4,0.1,0.9-0.1,1.4-0.1c0.4,0,0.7,0,1.1,0C212.5,42.6,212.9,42.6,213.4,42.5
		C213.4,42.5,213.4,42.5,213.4,42.5z"/>
	<path class="st0" d="M196.2,44.9c-1.4-0.2-2.5-0.4-3.6-0.4c-0.8,0-1.7,0.2-2.5,0.3c-0.8,0-1.6-0.8-1.4-1.5c0.1-0.4,0.7-0.8,1.2-0.9
		c0.9-0.3,1.7-0.3,2.7-0.1c1,0.2,2-0.2,3.1-0.2c0.4,0,1,0,1.3,0.3c0.4,0.4,0.8,1.1,0.6,1.4C197.3,44.3,196.5,44.6,196.2,44.9z"/>
	<path class="st0" d="M203.3,33.2c-1,0.5-1.9,0.7-3,0.3c-0.3-0.1-0.6,0-0.9,0.1c-0.6,0.4-1.2,0.2-1.4-0.4c-0.2-0.5-0.2-1.1-0.2-1.7
		c0-0.1,0.7-0.4,0.9-0.3c1,0.4,1.9,0.6,3,0.6C202.5,31.9,203.1,32.4,203.3,33.2z"/>
	<path class="st0" d="M221.8,50.1c0.5-0.3,2.2-0.1,2.5,0.3c0.1,0.1-0.2,0.5-0.4,0.6c-0.5,0.2-1.1,0.2-1.6,0.3c0,0.1,0,0.2,0,0.3
		c-0.2-0.2-0.3-0.4-0.5-0.6c-0.1,0.1-0.2,0.1-0.2,0.2c-0.2,0.1-0.3,0.3-0.5,0.4c-0.6-0.8-1.5,0-2.1-0.4c-0.3-0.2-0.4-0.5-0.7-0.7
		c0.2-0.2,0.5-0.5,0.7-0.5c0.8-0.1,1.7,0.2,2.4-0.4C221.5,49.7,221.7,49.9,221.8,50.1z"/>
</g>
<g>
	<path class="st1" d="M86.2,224.1c0,0-3.3-2.5-7.5,10c0,0-7.5,25.4-9.2,33.4c-1.7,7.9-2.5,17.9-2.9,22.1c-0.4,4.2-1.3,26.7-1.3,29.2
		s3.8,27.9,3.8,27.9l30.4,3l29.6-33.4c0,0,15.4,0.8,23.4-2.5c8-3.3,16.7-5.4,20.4-8.8c3.8-3.3,5-5.4,5-5.4l-8.1-14.3
		c0,0-2.7,2.1-7.5,2c-4.8-0.2-13.2-0.2-13.2-0.2s3.7-4.1,5.4-6.2c1.7-2.1,14.2-15.9,14.2-15.9s-0.8-3.8-2.9-5
		c-2.1-1.3-9.6-10.4-9.6-10.4l-25.4,22.9c0,0-5.8-31.7-7.1-35.5c-1.3-3.8-4.2-12.9-4.2-12.9s-6.7,5-10.8,5.8
		c-4.2,0.8-14.6-3.3-16.3-3.8S89.6,221.6,86.2,224.1z"/>
	<path class="st2" d="M68.4,146.7c0,0-3.2,9-4.1,14.4c-0.9,5.4-0.2,16.1,2.3,20c2.6,4,6.8,9.1,9.6,11.7c2.8,2.6,4.2,3.7,5.6,6.5
		s0,3.5,0.9,4.9c0.9,1.4,3,2.3,4.2-0.5s2.1,0.9,5.4-1.2c3.3-2.1,6.8-3.3,9.3-6.3c2.6-3,3.7-7.5,3.7-7.5s-3.5-1.4-3.7-5.6
		s-0.5-7.7,2.6-8.6c3-0.9,7.5,0.9,7.5,0.9s3.3-4.9,4.9-6.1s1.9,3,4,0.5c2.1-2.6,2.8-9.6,2.8-13.5c0-4-0.2-8.4-0.2-8.4
		s11.2,8.9,12.6,10.5c1.4,1.6,2.8,3.5,3,2.8s1.2-5.4-0.2-9.3c-1.4-4-7.9-12.8-11.2-15.2c-3.3-2.3-17.9-8.9-21.4-9.1
		c-3.5-0.2-10.7,1.4-14,2.3s-5.6-0.2-9.8,2.3C77.8,135,70.7,139.8,68.4,146.7z"/>
	<path class="st0" d="M222.4,288.4c-0.4-1.5-0.1-2.2,1.3-2.5c1.2-0.3,2.4-0.8,3.6-1.2c1.2-0.4,2.4-0.6,3.4-1.2
		c1.5-0.9,2.8-2,4.1-3.3c-1.6,0.8-3.2,0.5-5,0.2c-0.5,0.7-1.3,1-2.5,1c-1.5,0.1-3,0.7-4.5,0.9c-1.2,0.2-2.4,0.1-3.6,0.1
		c-0.7,0-1.3-0.1-2-0.2c-0.8-0.1-1.6-0.2-2.3-0.3c-1.1-0.3-2.3-0.5-3.3-0.9c-0.7-0.2-1.2-0.8-1.9-1.3c-1.2,0.7-4.6,0.1-5.9-1.2
		c-0.3-0.3-0.7-0.4-1.1-0.5c-0.7-0.2-1.5-0.4-1.5-1.3c0-0.8-0.1-1.7,1-1.9c0.2,0,0.4-0.4,0.6-0.5c0.6-0.3,1.2-0.6,1.8-0.7
		s1,0,1.3-0.8c0.4-1,1.2-2.1,2.1-2.7c1.1-0.7,2.2-1.5,3-2.5c0.5-0.6,1.1-1.2,1.6-1.8c-0.1-0.1-0.2-0.2-0.3-0.2
		c-1.2,0.6-2.8,0.9-3.6,1.8c-0.9,1.1-2.1,1.4-3.1,2.1c-2.9,1.9-5.9,3.7-8.9,5.5c-1.1,0.7-2.3,1.2-3.4,1.9c-1.2,0.8-2.3,1.7-3.5,2.5
		c-0.2,0.2-0.5,0.3-0.8,0.4c-1.8,1-3.6,1.9-5.3,2.9c-0.2,0.1-0.5,0.3-0.6,0.5c-0.8,1.1-2.1,1.5-3.1,1.1c-0.9,0.7-1.6,1.3-2.4,1.7
		c-0.7,0.3-1.5,0.2-2.2,0.3c-1,0.1-1.3,0.7-0.9,1.6c0.9,1.8,1.8,3.6,2.7,5.5c0.5,1.1,0.9,2.3,1.4,3.5c0.1,0.2,0.3,0.3,0.4,0.4
		c0.2,0.2,0.5,0.3,0.5,0.5c0,1.4,0.9,2.8-0.1,4.1c-0.1,0.2-0.3,0.5-0.4,0.5c-1.5,0.2-2,1.6-3.1,2.4c-0.9,0.6-1.7,1.4-2.7,1.6
		c-1.4,0.2-2.4,1.1-3.4,1.8c-1.3,1-2.7,1.5-4.2,1.7c-0.4,0.1-0.9,0.3-1.3,0.5c-0.7,0.3-1.3,0.5-2,0.8c-1.4,0.6-2.9,1.2-4.3,1.8
		c-1.4,0.5-2.8,0.9-4.1,1.6c-1.8,1-4,0.7-5.9,1.6c-1.4,0.7-3.1,1.2-4.7,0.8h-0.1c-1.3,1-2.8,0.9-4.3,1c-0.8,0.1-1.7,0.2-2.5,0.2
		c-0.9,0-1.8,0-2.6,0s-1.6-0.1-2.2-0.2c-0.5,0.4-0.9,0.7-1.4,1.1c-0.2,0.2-0.5,0.3-0.6,0.5c-0.4,1.1-1.2,1.6-2.4,1.8
		c0.4,1.6-1.3,1.8-2,2.5c-0.6,0.5-0.9,1.7-2,1.5c-0.1,0-0.3,0.2-0.2,0.2c0.2,1.3-1.2,1.5-1.7,2.4c-0.6,1.1-1.9,1.7-2.9,2.7
		c-0.8,0.8-1.4,1.8-2.3,2.4c-1.9,1.2-2.7,3.5-4.8,4.5c-0.4,0.2-0.7,0.7-1,1.1c-1.4,2-3.4,3.3-5.2,4.7c-0.8,0.6-1.4,1.6-2.1,2.3
		c-1.2,1.3-2.5,2.4-3.4,4c-0.6,1-1.9,1.6-2.9,2.5c-0.9,0.8-1.7,1.8-2.6,2.6c-0.4,0.4-0.9,0.7-1.1,0.8c-0.7,0.7-1.1,1.2-1.6,1.7
		c-1.3,1.4-2.6,2.8-3.9,4.2c-0.4,0.4-0.8,0.7-1.2,1.1c-0.3,0.3-0.6,0.6-0.9,0.9c-0.4,0.4-0.8,0.8-1.2,1.2c-0.3,0.2-0.6,0.5-0.8,0.7
		c-0.4,0.3-0.7,0.6-1,0.9c-1.2,1.2-2.3,2.5-3.6,3.7c-2,2-4.1,4-6.1,6c-1.1-0.3-2.3-0.5-3.7-0.9c0.3-0.5,0.4-1.2,0.8-1.7
		c2.2-2.3,4.5-4.5,6.7-6.8c2.1-2.1,4.1-4.4,6.2-6.4c2.2-2.2,4.6-4.1,6.7-6.3c0.7-0.7,1.3-1.3,2.4-1.4c0.3,0,0.7-0.3,0.9-0.6
		c1.3-2.7,3.7-4.3,5.7-6.4c1.2-1.2,2.3-2.4,3.6-3.4c1.3-1,2.4-2,3.3-3.4c0.1-0.2,0.6-0.2,0.8-0.3c0.4-0.2,1-0.6,1-0.9
		c0-1,0.8-1.2,1.3-1.6c0.7-0.5,1.5-0.7,1.9-1.5c0.2-0.4,0.8-0.5,1.2-0.8c0.2-0.1,0.4-0.3,0.6-0.5c0.3-0.4,0.6-0.7,0.9-1.1
		c0.3-0.3,0.5-0.7,0.8-1.1c0.1-0.1,0.2-0.3,0.2-0.3c1,0,1.2-0.9,1.7-1.5c1.2-1.5,2.5-2.8,3.8-4.1c0.3-0.3,1-0.4,1.3-0.7
		c0.5-0.5,0.8-1.3,1.3-1.8c0.8-0.9,1.6-1.8,2.4-2.7s1.5-1.8,2.5-2.8c-1.8-0.5-3.5-0.9-5-1.5c-1.4-0.5-2.7-1.4-4-2.1
		c-0.4-0.2-1-0.2-1.4-0.5c-0.8-0.4-1.7-0.9-2.5-1.4s-1.5-1-2.2-1.4c-0.8-0.5-1.7-1.1-2.5-1.6c-1.4-0.9-3-1.6-4.1-2.7
		c-1.9-2-4.8-2.7-6.1-5.3c-0.6-1.2-1.5-1.7-2.5-2.3c-0.5-0.3-0.9-0.9-1.3-1.3c-0.3-0.3-0.4-0.9-0.7-1.1c-1.5-0.9-1.8-2.4-2.2-3.8
		c-0.1-0.5,0.5-1.3,0.8-1.9c0.4,0.2,0.9,0.4,1.2,0.7c1.2,1.1,2.3,2.1,3.4,3.3c0.3,0.3,0.4,0.9,0.7,1.3c0.9,0.9,1.9,1.8,2.9,2.7
		s2.1,1.9,3.1,2.8c1.1,0.8,2.2,1.6,3.3,2.4c0.2,0.1,0.5,0.2,0.6,0.3c1.4,1.8,3.4,2.8,5.3,3.9c2.4,1.4,4.8,2.6,7.3,3.6
		c2.1,0.8,4.2,1.5,6.2,2.4c0.5,0.2,0.8,0.7,1.2,1.1c0.8,0.1,1.6,0.2,2.9,0.4c0.5,0,1.5-0.2,2.5-0.2c2.5,0.1,4.9,0.2,7.3-0.6
		c2.3-0.8,4.8-0.8,7.1-1.3c1.6-0.4,3.2-1,4.8-1.5c1.3-0.4,2.7-0.9,4-1.4c0.4-0.1,0.7-0.4,1-0.5c2.1-0.8,4.2-1.7,6.2-2.5
		c1.4-0.6,2.8-1.2,4.2-1.8c0.4-0.1,0.8,0,1.2-0.1s1-0.2,1.1-0.4c0.4-1.4,1.8-1.6,2.7-2.3c0.7-0.5,1.4-1.1,2.1-1.7
		c-0.9-0.9-1.6-1.6-0.8-2.8c0.2-0.3,0.1-0.8-0.1-1.1c-0.7-1.8-1.5-3.5-2.3-5.3c-0.1-0.2-0.2-0.5-0.3-0.7c-0.5-0.6-1.4-1.1-1-2.2
		c0-0.1-0.2-0.4-0.3-0.6c-0.3-0.7-0.7-1.5-1-2.3c-1.7,0.6-3.6,1.2-5.6,1.8c-0.6,0.2-1.3,0.2-2,0.2c-1.1,0-2.2,0.1-3.1,0.8
		c-0.2,0.1-0.5,0.2-0.7,0.2c-2.3-0.5-4.5,0.3-6.8,0.3c-0.4,0-0.8-0.1-1.2-0.1c-1.8,0.1-3.6,0.3-5.4,0.4c-0.5,0-1,0.1-1.5,0
		c-1.5-0.1-3-0.2-4.5-0.4c-0.4-0.1-0.7-0.6-1.1-0.8c-0.3-0.1-0.6-0.2-0.9-0.2c-0.8,0-1.6,0.4-2.3,0.2c-2.1-0.5-4.2-1.2-6.2-2
		c-0.4-0.2-0.7-0.7-1.1-1c-0.9-0.6-1.6-1.8-3-1.6c-0.1,0-0.4-0.1-0.4-0.2c-0.7-1.7-3.1-2.1-3.4-4.1c0-0.1-0.1-0.2-0.1-0.2
		c-2.1-0.7-2.8-3-4.6-4c-0.9-0.5-1.3-1.7-2-2.6c-0.5-0.6-1.2-1.2-1.8-1.8c-0.3-0.3-0.4-0.7-0.6-1.1c-0.1-0.1,0-0.4-0.1-0.4
		c-1.7-0.6-1.6-2.4-2.5-3.5c-0.2-0.2-0.2-0.4-0.4-0.6c-1.2-0.7-1.6-1.7-1-3.1c-2.3-0.2-3.2-1.8-4.1-3.6c-0.6-1.2-1.6-2.1-2.3-3.3
		c-0.4-0.7-0.5-1.5-0.9-2.4c-1-0.2-1.9-1-2.8-2.2c-1-1.3-1.3-3-2.8-3.9c-0.8-0.5-0.6-1.6-0.2-2.3c0.3-0.4,1.1-0.8,1.6-0.7
		c0.6,0.1,1.2,0.7,1.7,1.1c0.3,0.3,0.4,0.7,0.7,1c0.5,0.7,1,1.3,1.5,1.9c0.3,0.4,0.5,1,0.9,1.3c1.1,0.7,1.4,1.7,1,3
		c2.2,0.3,2.7,2.1,3.6,3.7c0.8,1.5,1.9,2.8,2.8,4.2c0.2,0.3,0.3,0.6,0.2,1c-0.3-0.1-0.5-0.3-1.1-0.5c0.1,0.6,0.2,1,0.4,1.4
		c1.5-0.9,2.6-0.4,3,1.2c0,0.1,0.1,0.3,0.2,0.4c1.5,0.9,1.9,2.6,2.7,4c0.2,0.4,0.6,0.7,1,0.9c0.7,0.4,1.2,0.9,1.3,1.8
		c0,0.2,0.3,0.4,0.4,0.5c1.4,1,2.7,2.3,3.4,3.9c0.1,0.2,0.1,0.5,0.2,0.9c1.2,0.1,2.3,0.3,2.5,1.8c0,0.1,0.2,0.2,0.3,0.3
		c0.6,0.4,1.2,0.8,1.7,1.3c0.7,0.7,1,1.8,2.1,2.2c0.3,0.1,0.3,0.8,0.4,1c0.8,0.3,1.4,0.5,2,0.7c0.2,0.1,0.6,0.2,0.6,0.1
		c0.2-0.6,0.5-1.2,0.6-1.8c0-0.2-0.3-0.5-0.5-0.7c-0.9-0.9-0.8-3.2,0.2-3.9c-0.1-0.2-0.2-0.5-0.4-0.7c-0.7-0.6-1.3-1.1-0.8-2.2
		c0.2-0.4-0.4-1.2-0.5-1.8c-0.1-0.5-0.2-1-0.3-1.6c-0.2-1.2-0.3-2.4-0.5-3.6c-0.2-1.5-0.5-3-0.7-4.5c-0.1-0.5,0.1-1,0.2-1.6
		c-1.9-0.5-1.6-2.5-2-4.1c-0.2-0.9-0.5-1.9-0.8-2.8c-0.1-0.4-0.2-0.8-0.3-1.1c-0.3-1.2-0.6-2.4-0.9-3.7c-0.4-1.7-0.7-3.5-1-5.2
		c-0.1-0.3-0.2-0.7,0-0.9c0.7-0.8,0.2-1.5,0-2.2c-0.4-1.7-0.8-3.4-1.3-5c-0.2-0.8-0.5-1.6-0.8-2.5c-0.4-1.2-0.7-2.4-1.1-3.6
		c-0.2-0.7-0.6-0.9-1.3-0.6c-1.1,0.6-2.5,0.3-3.5,1.1c-1.4,1.2-3.2,1.5-4.9,2.2c-1.4,0.5-3.1,0.3-4.7,0.6c-1.9,0.5-3.6-0.2-5.2-0.9
		c-2.1-0.9-4.3-1.5-6.2-3c-0.8-0.7-2.1-0.9-3.1-1.3c-0.8-0.3-1.6-1-2.5-1c-1-0.1-2.1,0.2-3.1,0.5c-1.2,0.4-1.5,1.5-1.9,2.6
		c-0.9,2.2-2.1,4.4-3.1,6.5c-0.1,0.2-0.1,0.5-0.2,0.8c-0.1,0.5-0.3,1-0.4,1.5c-0.1,0.3-0.1,0.6-0.2,0.9c-0.2,0.8-0.2,1.6-0.6,2.2
		c-1.1,1.9-1.4,4-2,6c-0.3,1.2-1.1,2.3-1.6,3.5c-0.2,0.3-0.5,0.8-0.4,1c0.6,1.6-0.2,2.8-1,3.5c-0.3,1.4-0.5,2.5-0.7,3.5
		c-0.1,0.4-0.1,0.9-0.1,1.4c0.1,1.5-0.3,2.1-1.9,2.4c1.5,1.7,0.6,3.4,0.2,5.1c-0.1,0.5-0.1,1-0.2,1.6c-0.1,1.6,0,3.2-1.2,4.5
		c0.9,1.4,0.4,2.9,0.2,4.4c-0.2,1.3-0.3,2.5-0.5,3.8c-0.1,0.7-0.1,1.4-0.4,2c-0.6,1.3-0.1,2.5-0.2,3.8c-0.3,2.3-0.2,4.7-0.3,7.1
		c0,1.1,0.2,2.2,0,3.3c-0.5,1.9,0.3,3.8-0.6,5.6c0,0.1,0,0.2,0.1,0.3c0.7,1.6,0.7,3.2-0.4,4.6c-0.2,0.2-0.1,0.7,0,1
		c0.6,1.4,0.9,2.7,0.1,4.1c-0.3,0.5-0.1,1.4-0.1,2.1c-0.1,1.4-0.8,2.3-1.9,2.2c-1-0.1-1.7-1.3-1.7-2.5c0-2.5-0.3-4.9-0.3-7.4
		c0-1.5-0.2-2.9,0.3-4.4c0.2-0.7-0.3-1.6-0.4-2.4c-0.1-1.5-0.1-3-0.2-4.5c0-1.4,0.2-2.7,0-4.1c-0.3-1.6,0-3.4-0.1-5
		c0-3.5-0.1-7.1-0.2-10.6c0-0.9-0.4-1.9-0.6-2.8c-0.3-1.5-0.7-3.1-1-4.6c-0.1-0.5,0-1,0.2-1.5c0.5-1.1,0.5-2-0.3-2.9
		c-0.6-0.7-0.7-1.3,0-1.9c-0.2-0.4-0.5-0.8-0.6-1.2c-0.7-2-1.3-4-1.9-6c-0.2-0.7-0.4-1.5-0.4-2.3c0-1.6-1.5-2.8-0.9-4.4
		c-0.9-1-0.5-2.6-1.7-3.5c-1.1-0.9-0.9-2.2,0-2.8c-0.7-1-1.5-2-2.2-3c-0.9-1.4-2-2.5-3.8-3c-1.3-0.4-2.5-0.6-3.9-0.5
		c-0.8,0.1-1.8-0.6-2.5-0.9c-2,0.4-4.1,0.9-6.1,1.2c-1.6,0.2-2.2,1-2.4,2.5c-0.3,1.9,0.6,4-0.3,5.7c-0.7,1.5,0.2,2.9-0.3,4.3
		c-0.3,0.7,0.4,1.7,0.6,2.6c0.5,2,0.7,4,0.3,6c-0.3-0.1-0.7-0.1-1.3-0.2c0.3,0.8,0.6,1.5,0.8,2.2c-0.1,0.1-0.2,0.1-0.2,0.2
		c-0.9-1.2-1.9-2.4-2.8-3.6c-0.4-0.5,0.3-0.9,0.1-1.6c-0.5-1.4-0.3-3.1-0.4-4.7c0-0.1,0.3-0.3,0.2-0.3c-0.8-1.2-1-2.4-0.7-3.9
		c0.1-0.6,0.1-1.2,0.1-1.8c0.1-0.8,0.2-1.7,0.4-2.5c0.1-0.6,0.4-1.1,0.8-1.8c-0.4-0.6-0.7-1.5,0.1-2.4c0.1-0.1-0.1-0.3-0.1-0.5
		c0-0.9,0.1-1.6,1-2.1c1.8-1,3.7-1.8,5.8-2c0.5,0,1.1-0.2,1.6-0.3c0.2,0,0.5-0.2,0.5-0.1c1.2,1,2.4,0.2,3.6,0.3
		c1.3,0.1,2.7-0.3,3.9,0.6c0.2,0.1,0.7-0.1,1-0.1c1.8,0.2,3.4,1.1,4.6,2.3c1.2,1.2,2,2.8,2.9,4.3c0.3,0.5,0.3,1.2,0.5,2
		c1.6,0.5,0.3,2.1,0.9,3.3c1.2-0.1,1.3,1.2,1.6,2c0.4,1.3,1.7,2.3,1.3,3.9c0,0.1,0.2,0.4,0.3,0.5c0.1,0.2,0.3,0.3,0.4,0.6
		c0.7,2.7,1.5,5.3,2.1,8c0.1,0.5-0.1,1.2,0,1.8c0.3,1.8,0.8,3.5,1.1,5.2c0.2,1.2,0.4,2.5,0.6,3.8c0.1,0.8,0.2,1.7,0.6,2.6
		c0.2-0.4,0.5-0.7,0.6-1.1c0.2-1.5,0.2-3,0.3-4.5c0.1-1.2,0.1-2.3,0.2-3.5c0.2-1.9,0.7-2.4,2.5-2.3c-1.6-1-1.7-1.8-0.6-3.2
		c0.2-0.3,0.3-0.8,0.4-1.3c0.2,0,0.5,0,0.7,0.1c-1.8-1.1,0.1-2.5-0.3-3.8c-0.3-1.2,0.5-2.7,1.8-3.6c-0.5-0.9-0.7-1.6-0.1-2.6
		s0.8-2.2,1.1-3.3c0.1-0.4,0.2-0.9,0.5-1.2c1-0.9,0.8-2.2,1.1-3.3c0.2-0.8,0.8-1.5,1.3-2.2c0.1-0.1,0.4-0.2,0.4-0.2
		c-0.7-1.6,1.4-2.7,0.9-4.4c-0.1-0.4,0.1-1.1,0.4-1.6c1-2,2.2-4,3-6.1c0.7-1.6,2.1-2.1,3.5-2.7c0.7-0.3,1.2-0.4,1.4-1.4
		c0.1-0.7,0.8-1.3,1.3-1.9c0.1-0.1,0.3-0.2,0.3-0.3c0.8-2.5,1.5-5,2.2-7.5c0.3-0.8,0.6-1.7,0.8-2.5c0.2-1,0.1-2,0.2-2.9
		c0.1-1.4-0.1-2.8,1-3.9c0.7-0.7,1.8-0.6,2.2,0.4c0.2,0.6,0.3,1.3,0.3,1.9c0,1.1,0.2,2.4-0.1,3.4c-0.6,1.5-0.4,3.1-0.8,4.6
		c-0.4,2-1.2,4-1.9,6c-0.2,0.4-0.5,1-0.9,1.2c-1.2,0.5-1,1.8-1.7,2.7c1.6,0.7,3.2,1.3,4.7,1.9c0.3,0.1,0.7,0.4,0.8,0.7
		c0.4,0.6,0.7,0.7,1.5,0.8c1,0.1,1.9,1.1,2.9,1.4c2.5,0.8,4.9,2.3,7.6,1.5c2.3-0.7,4.9-0.5,6.9-2.6c0.8-0.8,0.9-1.3,1-2.4
		c0.2-2.2-1.3-3.8-1.6-5.8c-0.3-2.1-0.4-4,0-6.1c0.3-1.8,1.3-3,2.2-4.4c0.7-1.1,1.6-2,2.4-2.9c0.5-0.6,1.2-0.6,1.9-0.4
		c0.6,0.2,1.2,0.1,1.8,0c2.2-0.2,4.4-0.5,6.5-0.6c0.9,0,1.7,0.3,2.8,0.5c0.5-0.2,1.2-0.6,2-0.8c2.1-0.5,3.4-2,4.4-3.7
		c0.9-1.5,1.7-3,2.6-4.5c0.8-1.3,1.7-2.5,2.6-3.7c0.1-0.2,0.4-0.3,0.4-0.5c-0.1-1.5,1.1-2.2,1.8-3.2c0.5-0.6,1-1.1,0.9-2
		c0-0.2,0.3-0.6,0.6-0.7c1.1-0.4,1.3-1.4,1.6-2.4l0,0c0.7-0.3,1.5-0.3,1.7,0.4c0.2,0.6,0.2,1.5-0.1,2.1c-0.6,1.4-1.4,2.8-2.1,4.2
		c-0.4,0.8-0.9,1.5-1.4,2.2c-0.5,0.9-1.1,1.7-1.6,2.6c-1,1.8-1.9,3.8-2.9,5.6c-0.7,1.2-1.5,2.4-2.4,3.6c-0.4,0.5-1.1,0.9-1.7,1.3
		c-0.9,0.6-1.8,1.3-2.8,1.6c-0.8,0.2-1.8-0.1-2.7-0.3c0-0.1-0.1-0.2-0.1-0.4c-0.1,0.2-0.1,0.4-0.2,0.5c-0.6,0.2-1.1,0.4-1.7,0.7
		h-0.1c-1.9,0.2-3.8,0.4-5.7,0.5c-1.3,0.1-2.8-0.4-4,0c-0.9,0.2-1.7,1.2-2.2,2.1c-0.7,1.4-1.1,2.9-1.5,4.4c-0.2,0.6,0.1,1.4,0.2,2.1
		c0.1,0.5,0.3,1.1,0.4,1.6c0.3,1.4,0.7,2.7,1.1,4.1c0,0.1,0.4,0.3,0.5,0.3c2-0.3,2.2-0.1,2.8,1.7c0.4,1.3,0.9,2.5,1.3,3.8
		c0.7,2.2,1.5,4.3,2.2,6.5c0.5,1.6,1,3.2,1.5,4.8c0.2,0.6,0.3,1.2,0.2,1.7c-0.5,1.8,0.7,3.1,1.1,4.7c0.4,1.8,1.5,3.5,0.7,5.4
		c-0.3,0.8,0.1,1.6,0.8,2.2c0.9,0.9,1,2,0.1,2.8c0.8,1.2,0.9,3.1,0.5,3.8c0.5,1,1,1.9,1.2,2.8c0.5,2.1,0.7,4.3,1.1,6.4
		c0,0.2,0.2,0.4,0.3,0.6c0.4-0.4,0.8-0.8,1.2-1.1c1.2-1.1,2.5-2.2,3.7-3.3c0.4-0.3,0.9-0.6,1.3-0.9c1.3-1.2,2.6-2.5,4-3.8
		c0.2-0.2,0.6-0.3,0.8-0.6c0.3-0.3,0.6-0.6,0.9-1c0.5-0.5,0.9-1.1,1.5-1.6c0.7-0.6,1.7-0.8,2.1-1.9c0.3-0.6,1.2-1,1.8-1.5
		c0.1-0.1,0.3-0.1,0.3-0.1c0.5-1.7,2.5-2,3.3-3.5c0.9-1.6,2.7-2.3,4.7-1.5c1.2,0.4,1.4-0.3,1.8-0.9c0.3-0.3,0.4-0.7,0.6-1
		c-0.7-1.1-0.5-2.9,0.4-3.8c0.1-0.2,0.3-0.4,0.3-0.6c0.2-1.2,0.2-2.5,0.5-3.7c0.2-1,0.7-2,1.1-2.9c0-0.1,0.2-0.2,0.2-0.3
		c0.2-0.9,0.5-1.9,0.5-2.8c0.1-2.5,0-5,0.3-7.6c0.1-1.7,0.7-3.4,1-5.1c0-0.1,0.1-0.2,0.1-0.2c-0.4-1.9,0.5-3.2,1.7-4.6
		c1-1.2,1.4-1.6,2.7-0.6c0.3,0.2,0.9,0.1,1.3,0.2c1.5,0.3,1.9,1.6,2.3,2.7c0.7,1.9,1.1,3.9,1.7,5.8c0.3,0.1,0.7,0.1,1.1,0.2
		c0-0.2,0.1-0.4,0-0.4c-0.8-0.9-0.3-1.4,0.5-1.9c0.3-0.2,0.7-0.5,0.7-0.7c-0.3-1.3,0.8-2,1.2-3c0.2-0.5,0.7-0.8,1.1-1.2
		c0.1-0.1,0.4-0.2,0.5-0.3c0.8-1.2,1.3-2.7,2.3-3.6c1.4-1.1,1.6-2.8,2.9-4c1.1-0.9,2-1.9,3.4-2.2c0.7-0.2,1.4-0.3,1.6,1
		c0.4-0.5,0.6-0.8,0.8-1c2.4,0.6,2.2,2.3,1.9,4.1c-0.1,0.7-0.3,1.4-0.5,2.6c0.8-0.8,1.4-1.4,2-2.1c0.8-0.9,1.8-0.8,2.8-0.6
		c0.4,0.1,0.8,0.7,1.1,1.1c0.1,0.1,0.1,0.4,0,0.5c-0.3,0.6-0.2,1.2,0.1,1.7c0.1,0.2,0.1,0.6,0,0.7c-1.4,1.2-0.9,3.3-2.1,4.6
		c-0.4,0.4-0.6,1-1,1.6c1,0.4,1.9-1.7,3-0.2c0.9-1.8,1.5-2.1,3.5-1.6c0.2,0,0.4,0.2,0.5,0.3c0.4,0.9,0.9,1.8,1.2,2.8
		c0.1,0.5,0,1.2-0.3,1.6c-0.8,1.2-1.8,2.3-2.7,3.5c-0.5,0.6-0.9,1.2-1.3,1.8c-0.4,0.6-0.9,1.2-1.5,2.2c0.7-0.1,1.1-0.1,1.5-0.2
		c1.5-0.6,4.5,0,5.6,1.1c0.2,0.2,0.5,0.2,0.7,0.3c1.6,0.4,2.3,1.7,1.5,3.1c-0.5,0.9-0.9,1.9-2.1,2.5c-1,0.5-1.7,1.8-2.6,2.7
		c-1.2,1.3-2.7,2.1-4.4,2.5c-0.1,0-0.3-0.1-0.3,0c-1.3,2-4.2,1.7-5.4,3.8c-0.2,0.3-0.7,0.6-1.1,0.7c-1.5,0.5-2.1,2-3.2,2.9
		c-1,0.8-2,1.7-3.1,2.5c-0.3,0.2-1,0.1-1.5,0.1c-0.1,2.1-1.4,2.8-3.2,2.4c-0.2,0-0.4-0.1-0.6-0.1c-1.1,0.4-2.1,1.1-3.2,1.3
		c-1.7,0.3-2.9,1.1-3.9,2.5c-0.3,0.4-1,0.6-1.5,1s-0.8,1-1.4,1.6c0.7,0.6,1.6,1.4,2.4,2.1c0.2,0.1,0.4,0.4,0.3,0.6
		c-0.3,0.8-0.5,1.7-1,2.3c-1.1,1.5-2.3,2.8-3.4,4.2c-0.5,0.6-0.9,1.1-1.5,1.6c-0.9,0.7-1,0.7-2.1,0.2c0.7,1.9-0.4,2.8-1.7,3.8
		c-1.1,0.9-1.9,2.1-3,3c-1,1-2.1,2-3.7,1.9c0.1,2.3-0.9,3.2-2.5,3.8c0,0.1,0,0.2,0,0.3c1.1-0.1,2.2-0.3,3.3-0.4
		c1.2-0.1,2.5,0,3.8-0.1c0.4,0,0.7-0.2,1-0.2c0.7-0.2,1.5-0.3,2.2-0.5c1.5-0.3,3-0.4,4.4-0.9c1.3-0.5,2.4-0.4,3.5,0.1
		c0.4,0.1,0.5,0.8,0.9,1.3c1.6-0.5,3.3-1.1,5.1-1.5c2.1-0.5,3.8-1.5,5.4-2.9c0.7-0.6,1.6-0.9,2.3-1.3c0.6-0.3,1.1-0.7,1.7-1.1
		c0.6-0.4,1.2-0.8,1.9-1.1c1.2-0.7,2.5-1.3,3.5-2.2c2.1-1.8,4.7-2.5,7-3.8c0.6-0.3,1-1,1.6-1.4s1.3-0.7,2-1c1.4-0.9,2.7-2,4.2-2.6
		c1.5-0.5,2.5-1.8,4-2.4c0.9-0.4,1.6-0.2,2.6,0.5c0.4-0.5,0.8-1.2,1.3-1.5c0.4-0.3,1.3-0.3,1.6-0.1c0.4,0.2,0.4,1,0.6,1.5
		c0.1,0.2-0.1,0.6,0,0.8c0.7,1.6,0,3-0.8,4.1c-1.3,1.6-2.5,3.3-4.4,4.3c-0.9,0.5-1.6,1.3-2.4,2c-0.2,0.2-0.5,0.4-0.6,0.4
		c-1-0.4-1.1,0.7-1.8,0.9c3.2,0.6,3.2,0.6,4.5,2.4c0.6-1.1,1.4-0.8,2.4-0.6c1.8,0.5,3.6,1,5.5,1.3c1.5,0.2,3,0.2,4.4,0.1
		c0.8,0,1.5-0.4,2.2-0.7c1.2-0.6,2.4-1,3.8-0.4c0.2,0.1,0.5,0.2,0.9,0c1.8-0.9,3.7-1.7,5.7-0.8c0.7,0.3,1.3,0.9,2,1.4l0.1,0.1
		c-0.4,1,0.9,1.7,0.5,2.5c-0.3,0.9-1,1.7-1.6,2.5c-0.4,0.5-1,0.9-1.5,1.3c0.9,1.3,0.6,2.7,0,3.8c-1,1.6-2.3,3.1-3.6,4.5
		c-0.5,0.5-1.2,0.7-1.8,1.2c-1.3,1.1-2.4,2.6-3.8,3.4c-1.8,1.1-3.9,1.7-5.9,2.5c-0.2,0.1-0.5-0.1-0.8-0.1c-0.5,0-1-0.1-1.4,0.1
		c-0.9,0.4-1.7,1-2.7,0.4c-0.1-0.1-0.3,0-0.5,0.1c-1.6,0.7-3.2,1.1-4.8-0.2c-0.1-0.1-0.3-0.2-0.4-0.2c-1.4,0.9-2.7,0-4-0.3
		c-2.2-0.5-4.3-1.3-6.7-0.5c-0.6,0.2-1.5,0-2.2-0.2c-1.5-0.4-3.3,0.3-4.4-1.3c-0.2-0.2-0.3-0.7-0.2-0.8c0.4-0.5-0.1-1.4,1-1.6
		c1.7-0.3,3.3,0.3,4.9,0.3c1.2,0,2.4-0.3,3.5-0.3c1.2,0,2.4,0.3,3.5,0.6c1.5,0.4,3.1,1.5,4.5,1.3c2-0.2,4.2,1.2,6.3-0.5
		c-0.5-0.1-0.8-0.2-1.1-0.3s-0.8-0.1-0.9-0.3c-0.1-0.3,0-1,0.2-1.1c1-0.5,2.1-1.1,3.2-1.4c1.5-0.3,3.1-0.4,4.6-0.5
		c2.9-0.1,5.2-1.6,7.3-3.2c1.2-0.9,2-2.4,2.9-3.6c-0.1-0.1-0.2-0.2-0.3-0.3c-1.5,0.6-3,1.2-4.5,1.8c-0.9,0.4-1.8,0.8-2.7,1
		C223.7,289.6,222.7,289.7,222.4,288.4L222.4,288.4z M183.4,224.6c0-0.2-0.2-0.8-0.1-1.3c0.3-1.1,0.9-2.1,1.3-3.1
		c0.3-0.7,0.6-1.4,0.9-2.1c0.3-0.8,0.4-1.8,0.8-2.6c0.9-1.8,1.6-3.7,1.9-5.7c0.1-0.5,0.2-0.9,0.3-1.3c-0.1-0.1-0.2-0.2-0.4-0.2
		c-0.5,0.5-0.9,1-1.4,1.6c-0.8,1-1.7,1.9-2.5,2.9c-0.6,0.8-1,1.8-1.5,2.7c-0.4,0.7-0.9,1.3-1.4,1.9c-0.5,0.7-1.4,1.3-1.5,2
		c-0.2,1.4-1,2-2.2,2.3c0,0.3,0.1,0.6,0,0.9c-0.8,1.8-1.6,3.5-2.5,5.3c-0.2,0.5-0.6,0.9-0.9,1.3c-0.2,0.3-0.5,0.7-0.5,1
		c0.2,2.1,0.4,4.2,0.8,6.3c0.2,1.3-0.2,2.4-0.5,3.5c-0.1,0.4-0.8,0.7-1.2,1c-0.1-0.1-0.2-0.1-0.3-0.2c0.1-0.6,0.2-1.2,0.3-1.8
		c-1.5-0.3-1.1-1.9-1.7-2.9c-0.6-1.1-0.8-2.5-0.9-3.8c-0.1-1.2-0.7-2.7,0.9-3.6c0.1,0,0-0.5-0.1-0.8c-0.2-0.6-0.5-1.2-0.7-1.8
		c-0.1-0.4-0.1-0.8-0.2-1.2c-0.1-0.6-0.3-1.1-0.4-1.7c-0.3-1.2-0.5-2.5-0.9-3.7c-0.2-0.7-0.8-1.2-1.2-2c-0.4,1-0.8,1.7-0.9,2.4
		c-0.1,0.9,0,1.9,0,2.9c-0.1,1.1-0.4,2.1-0.4,3.2c0,0.9,0.2,1.9,0.3,2.8c0.1,0.4,0.4,0.9,0.4,1.2c-0.4,1.6-0.9,3.2-1.4,4.8
		c-0.3,1.1-1.7,1.6-1.5,3c0.1,0.6,0,1.1,0,1.7c-0.1,1.2-0.2,2.5-0.2,3.7c-0.1,1.4,0.5,3-1.4,3.4c0,1.5,0,2.9-1,4
		c-0.4,0.4-0.9,0.8-1.1,1.3c-0.3,0.9,0.7,0.7,1.1,1.1c0.1,0,0.1,0.1,0.1,0.2c1,1.2,2,2.3,2.9,3.5c0.5,0.6,0.9,1.3,1.4,1.9
		c0.4-0.3,0.6-0.8,0.9-0.8c0.8-0.1,0.8-0.8,1.2-1.2c1.1-1.2,2.3-2.1,3.6-3.1c0.5-0.4,1.1-0.5,1.7-0.7c1.4-0.3,2.8-0.9,4.4-0.2
		c0.9-0.9,1.9-1.9,3.6-0.8c-0.4-1.4,0.1-2.2,0.9-2.8c0.5-0.4,0.9-0.8,1.3-1.3c0.9-1,1.7-2.1,2.7-2.9c1-0.9,2.2-1.6,3.4-2.3
		c0.5-0.3,1-0.5,1.5-0.8s1-0.7,1.5-1c0.4-0.3,0.9-0.7,1.3-0.9c0.8-0.3,1.6-0.4,2.4-0.7c1.2-0.5,2.3-1.2,3.4-1.8
		c0.2-0.1,0.5-0.3,0.7-0.5c0.8-0.8,1.6-1.6,2.3-2.5c0.4-0.4,0.5-1-0.3-1.2c-0.4-0.1-0.9-0.1-1.3-0.2c-2.7-0.4-4.8,1-6.9,2.3
		c-2,1.3-4.3,1.4-6.4,2.4c-0.7,0.3-1.3,0-1.7-0.7c-0.6-1-0.1-1.8,0.6-2.4c1.4-1.1,2.9-2.1,4-3.5c0.3-0.4,1.1-0.5,1.4-0.7
		c2.3-2.9,4.5-5.8,6.7-8.8c-0.6-0.2-0.9-0.3-1.2-0.4c-0.4,0.6-0.8,1.5-1.4,1.7c-2.3,0.8-2.7,3.5-4.8,4.5v0.2c-0.4,0.5-1,1-1.3,1.5
		c-0.7,1.1-2,0.9-3,1.6c-0.4,0.3-1.4,0.3-1.9,0c-0.4-0.3-0.8-1.1-0.7-1.6c0.1-0.8,0.7-1.4,1.1-2.1c0.8,0.3,1.3,0.5,1.8,0.7
		c0-0.1,0.1-0.1,0.1-0.2c-0.4-0.3-0.8-0.6-1.4-1.1c0.5-0.8,1.1-1.6,1.6-2.4c0.1-0.2,0.2-0.4,0.2-0.5c0.2-0.6,0.4-1.3,0.8-1.6
		c1.6-1.5,2.1-3.7,3.4-5.4c0,0,0-0.1-0.1-0.3c-0.2,0-0.4-0.1-0.5,0c-0.9,1-1.4,2.4-3,2.5c-1.1,1.9-2.3,3.8-3.3,5.8
		c-0.8,1.6-2.3,2.1-3.6,2.9c-0.1-0.1-0.2-0.2-0.2-0.2C182.4,226,182.8,225.4,183.4,224.6z M145.2,261.3c-0.1,0.2-0.2,0.8-0.6,1.1
		c-1.1,1.1-2.2,2.2-3.3,3.2c-0.3,0.3-1,0.2-1.2,0.5c-0.8,0.9-1.6,1.8-2.3,2.7c-1.2,1.5-2.8,2.4-4.6,3c-0.3,0.1-0.6,0.5-0.7,0.9
		c-0.1,0.6-0.1,1.3-0.2,1.9c-0.5,0.2-0.9,0.4-1.4,0.6c2.1,0.5,2.3,0.7,2.3,2.5c0,1-0.4,2.1,0.5,2.9c0.1,0.1-0.1,0.4-0.1,0.6
		c0,0.5,0,1,0.2,1.4c0.9,2,3.3,1.9,4.8,3.1c0.1,0.1,0.5-0.1,0.6-0.2c1.2-0.7,2.2-0.5,3,0.3c1.2-0.6,2.4-0.6,3.6-0.5
		c0.6,0.1,1.5,0.2,1.7-0.7c0.2-1.5,1.1-2.1,2.3-2.1c0.3-0.5,0.5-0.9,0.8-1.1c0.7-0.6,1.6-0.9,2.3-1.6c2.3-2.1,3.8-4.9,6.3-6.7
		c1-0.7,2-1.6,2.7-2.1c0.6-1,1-1.8,1.5-2.5c1.1-1.3,2.3-2.4,3.3-3.7c0.3-0.4,0.4-1,0.5-1.2c-1-0.9-1.7-1.5-2.4-2.3
		c-1-1-1.9-2.1-2.8-3.1c-0.7-0.7-1.5-1.3-2.1-2c-1.3-1.5-2.5-3.1-3.8-4.8c-2.1,1.9-4,3.6-5.9,5.3c-1,0.9-1.9,1.8-2.8,2.6
		C146.7,260.1,146,260.6,145.2,261.3z"/>
	<path class="st0" d="M147,182.5c-0.3-0.2-0.6-0.5-0.9-0.5c-1.2-0.2-2-0.9-2.6-1.9c-0.3-0.5-0.9-0.8-1.3-1.3c-0.7-1.1-1.5-2-2.7-2.6
		c-0.4-0.2-0.5-1.1-0.7-1.7c-0.3-0.8-0.6-1.6-1-2.5c-0.4-0.9,0-2.2,0.9-2.6c-1.3-0.9-1.6-2-1.1-3.4c0.2-0.4,0.3-1-0.4-1.5
		c-0.6-0.4-0.9-1.3-1.4-2c-0.2-0.3-0.4-0.7-0.6-1.1c-0.6,0.9-1.2,1.3-2.4,0.8c-0.9-0.3-2.1,0.1-3.2,0.1c-0.5,0-1.3-0.3-1.4-0.6
		c-0.1-0.6,0-1.5,0.5-1.9c1.3-1,2.7-1.7,4.4-0.5c0-0.1,0.1-0.2,0.1-0.3c-3.1-2.8-6.1-5.6-9.3-8.5c-0.1,0.3-0.3,0.6-0.2,0.8
		c0.4,1,0.9,2.1,1.1,3.1c0.2,0.6-0.1,1.4-0.1,2.1c0,1.3,0.2,2.6,0.1,4c-0.1,1.1-0.5,2.1-0.6,3.2c-0.2,0.9-0.2,1.8-0.3,2.7
		c-0.4,2.5-1.7,4.6-3.6,6.3c-1.2,1.1-2,1-3.1-0.3c-0.1-0.1-0.2-0.1-0.2-0.1c-1.2,1.3-2.4,2.6-3.6,3.9c-0.5,0.5-1.1,1-1.7,1.3
		c-1,0.4-1.9-0.1-2.5-0.7c-0.9-1-2-1.2-3.2-1c-0.8,0.1-1.5,0.6-2.2,1c-0.2,0.1-0.5,0.3-0.6,0.5c-0.2,0.9-0.6,1.8-0.5,2.6
		c0,1.3,0.3,2.6,0.5,3.9c0,0.1,0.1,0.3,0.1,0.3c-1,1.2,0.1,1.5,0.8,1.9c0.9,0.5,1.9,0.9,2.9,1.3c0.5,0.2,1,0.5,1.5,0.7
		c-0.1,0.3-0.4,0.6-0.3,0.7c1.1,1.5-0.2,1.6-1,1.8c-0.4,0.2-0.9,0.1-1.4,0.2c-0.1,1.5-0.3,3-1.3,4.3c-0.2,0.3-0.3,0.8-0.4,1.2
		c-0.2,1.5-1,2.6-2.2,3.5c-0.6,0.4-1.1,1.1-1.6,1.6c-1,0.9-2.3,0.7-2.5-0.5c-0.1-0.5,0.2-1.4,0.7-1.7c0.9-0.7,1-1.7,1.6-2.5
		c0.5-0.8,1.1-1.7,1.4-2.6c0.3-1,0.4-2.1,0.7-3.1c0.1-0.5,0.4-1,0.5-1.5c-1.7-1.4-1.8-1.8-0.7-3.6c-2,0.4-2.7-1.7-2.5-3.2
		c0.1-1.1,0-2.3,0.1-3.5c0.1-0.9,0.1-1.9,0.5-2.6c0.7-1.3,1.5-2.8,3.1-3.2c1.4-0.3,2.7-0.5,4.1-0.6c1.2-0.1,2.4,0.4,3.4,1.2
		c0.6,0.5,0.7,0.1,1-0.3c1.4-2.2,2.8-4.4,4.4-6.4c0.8-1.1,2-1,2.8,0.1c0.3,0.3,0.5,0.7,0.7,1c0.6-1.5,1.2-2.9,1.7-4.4
		c0-0.1,0.1-0.2,0-0.3c-0.6-1.8,0.1-3.5-0.1-5.3c-0.1-1.3-0.3-2.6-0.3-3.8c0-0.7,0.3-1.4,0.5-2.3c-1.5-1.2-0.8-3.2-1.2-4.9
		c-0.1-0.3,0.3-1,0.5-1c0.7-0.1,1.3,0.1,2,0.2c0.5,0.1,0.9,0.4,1.4,0.5c0.3,0.1,0.7,0.2,1,0.4c0.8,0.7,1.8,1.3,2.4,2.1
		c0.8,1.2,1.9,1.7,3,2.5c0.6,0.5,1.2,1.1,1.8,1.6c1.4,1.4,2.8,2.8,4.1,4.3c0.3,0.4,0.5,0.8,0.9,1.3c0.1-0.2,0.2-0.4,0.3-0.6
		c0.3-2.6-0.4-5.1-1.4-7.5c-0.7-1.6-2.4-2.8-2-4.8c0-0.1-0.4-0.3-0.5-0.4c-1.3-1.1-2.7-2.1-3.9-3.2c-1.2-1.1-2.3-2.4-3.4-3.6
		c-0.2-0.2-0.5-0.2-0.8-0.3c-0.8-0.4-1.5-0.9-2.3-1.3c-0.7-0.4-1.4-0.7-2-1.1c-0.5-0.4-1.2-0.8-1.3-1.3c-0.1-0.6,0.3-1.7,0.7-1.8
		c0.7-0.2,1.6,0.2,2.4,0.4c0.5,0.1,0.9,0.5,1.3,0.6c1,0.4,2,0.8,2.3,2c0,0.2,0.2,0.4,0.4,0.4c1.2,0,1.9,0.7,2.8,1.3
		c0.8,0.6,1.5,1,1.9,1.9c0.2,0.5,1,0.8,1.5,1.3c1,1.1,1.8,2.2,2.8,3.3c-0.6,0.4-0.9,0.6-1.2,0.8c0.7,0.1,1.4,0.1,1.9,0.4
		c0.6,0.3,1.1,0.9,1.4,1.5c0.7,1.5,1.4,2.9,2,4.5c0.3,0.8,0.3,1.6,0.4,2.5c0.1,0.6,0.3,1.2,0.3,1.9c0.1,0.6,0.1,1.1,0.1,1.7
		c0,0.8-0.1,1.6-0.1,2.3c-0.1,0.8,0,1.8-0.4,2.4c-1,1.4-0.2,2.7,0.1,4c0.3,1.1,0.4,2.1-0.3,3c1.3,1.4,2.3,4.4,2.1,6.3
		c1.3,0,2.2,0.7,2.8,1.8c0.3,0.4,0.8,0.8,1.3,1c1.6,0.6,1.9,2.7,0.6,3.8C147.2,182.2,147.1,182.4,147,182.5L147,182.5z"/>
	<path class="st0" d="M44.1,376.5c-0.2-0.5-0.5-0.9-0.5-1.4c-0.4-3.2-0.8-6.4-0.9-9.7c-0.1-2-1-3.9-0.4-6c0.3-1-0.3-2.2-0.5-3.4
		c0-0.4,0.1-0.9,0.3-1.6c-0.8-0.8-1.4-2-1-3.6c0.1-0.4-0.1-0.8-0.3-1.2c-0.1-0.3-0.4-0.7-0.4-1c0.4-2.1-1.3-4-0.6-6.2
		c0.1-0.5-0.1-1.2-0.3-1.7c-0.4-1-0.6-2,0.2-2.9c0.1-0.1,0-0.5,0-0.8c-0.1-0.5-0.3-1-0.3-1.4c0.1-0.9,0.4-1.8-0.4-2.6
		c-0.3-0.3-0.1-0.9-0.2-1.4c-0.2-1.3-0.4-2.5-0.6-3.8c-0.2-1.8-0.5-3.5-0.6-5.3c0-0.6,0.7-1.2,1.1-1.9c-2.1-1.6-1.8-4.4-2.4-6.7
		c-0.1-0.4,0.6-1.1,1.1-1.8c0.7,0.4,1.9-0.4,2.2,1c0.2,0.9,0.5,1.7,0.6,2.5c0.2,1,0.1,2,0.3,3c0.1,1-0.2,1.6-1.6,1.8
		c0.9,0.4,1.4,0.5,1.9,0.9c0.9,0.7,0.5,1.8,0.7,2.7c0.2,1.2,0.5,2.4,0.6,3.5c0.1,1.8,1.1,3.6,0.2,5.4c-0.1,0.2,0,0.5,0.1,0.6
		c0.8,0.6,0.6,1.4,0.7,2.2c0.2,1.8-0.3,3.6,0.7,5.3c0.1,0.2,0,0.7-0.1,1c-0.3,2.9,0,5.7,0.7,8.5c0.2,0.9,0,1.9,0.2,2.9
		c0.2,1.2,0.5,2.4,0.8,3.6c0,0.1,0.1,0.1,0.1,0.2c0.2,2.3,0.3,4.6,0.5,6.9c0.1,1.2,0.5,2.3,0.6,3.5c0.2,1.7,0.2,3.5,0.3,5.2
		c0,0.3,0.2,0.6,0.2,0.9C45.9,374.4,44.6,375,44.1,376.5L44.1,376.5z"/>
	<path class="st0" d="M86,347.4c0,2-0.6,2.6-2.7,2.6c-1.8-0.1-3.7,0.1-5.5,0c-1.2,0-2.6-0.6-3.6-0.3c-1.4,0.5-2.7,0.1-4,0.1
		c-2,0.1-4-0.1-6-0.1c-1.1,0-2.1,0.2-3.2,0.1c-0.9-0.1-1.8-0.4-2.7-0.6c-1-0.2-1-1.2-0.7-1.7c0.4-0.6,1.2-1.3,1.8-1.3
		c1.5-0.1,3,0.3,4.4,0.4c0.9,0,1.8-0.2,2.7-0.3c0.1-1.1,0.1-2.3,0.2-3.4c0-0.1,0.1-0.2,0.1-0.2c-1-0.9-0.6-2.2-0.8-3.3
		c-0.3-2.2-0.5-4.3-0.8-6.5c-0.1-0.5-0.4-1-0.4-1.5c-0.2-1.3-0.3-2.5-0.5-3.8c0-0.2-0.1-0.5,0-0.6c1.3-1.7,0-3.2-0.2-4.8
		c-0.1-1-0.2-2,0-2.9c0.3-1,1.3-1.6,2.2-1.1c0.6,0.3,1.2,1.2,1.3,2c0.2,1.4,0.1,2.9,0.1,4.2c-0.3,0.2-0.7,0.3-0.8,0.5
		c-0.1,0.3,0,0.8,0.2,1c0.7,0.6,0.8,1.2,0.7,2.1c-0.1,0.5,0.2,1,0.2,1.5c0,0.9,0,1.8,0,2.7c0,0.3-0.1,0.8,0.1,1
		c1.4,1.9,0.9,4.2,1.5,6.2s0.5,4.3,0.6,6.4c0,0.8,0.3,0.9,1,0.9c1.5-0.1,3-0.2,4.5-0.2s2.9,0.1,4.4,0.1c1.1,0,2.1,0,3.2,0.1
		c0.7,0.1,1.4,0.4,2.1,0.5c0.4,0.1,0.7,0,1.1,0c0.6-0.1,1.2-0.4,1.9-0.4c1.1,0,2.2,0.1,3.2,0.2c0.4,0.1,0.9,0.3,1.3,0.6
		c0.3,0.2,0.5,0.6,0.8,1c-0.3,0.2-0.7,0.4-1,0.7c-1.6,1-3.3,1-5.1,0.7c-0.9-0.1-1.3-0.6-1.4-1.5C86.3,348,86.2,347.7,86,347.4z"/>
	<path class="st0" d="M36.7,272.8c0.3,0.8,0.6,1.4,0.6,2.1c0.1,1.3,0.2,2.5,0.1,3.8c0,1.2,0.1,2.6,0.6,3.9c0.4,1,0.1,1.8-0.6,2.5
		c1.1,1.3,0.9,2.9,1,4.5c0,0.3-0.1,0.5-0.1,0.8c0.2,1.9,0.6,3.8,0.7,5.7c0.1,1.4-0.1,2.7,0,4.1s0.3,2.7,0.4,4.1c0.1,0.6,0,1.3,0,1.9
		c0.1,0.9,0.1,1.9,0.2,2.8c0.1,0.9-0.6,2.2-1.6,2.4c-1,0.1-1.8-0.5-2.1-1.7c0-0.1-0.1-0.2-0.1-0.2c0.6-1.8-0.3-3.5,0-5.3
		c0-0.3,0.3-0.5,0.5-1c-1-2.8-1.2-5.9-0.8-9.1c0.1-1.1-0.1-2.2-0.2-3.3c-0.1-1.5-0.3-3.1-0.4-4.6c0-0.4,0.3-0.7,0.6-1.2
		c-0.6-0.3-0.9-0.9-0.8-2c0.1-0.7-0.5-1.4-0.5-2.1c0.1-2.2-0.2-4.3-0.4-6.4c0-0.4,0.3-0.8,0.5-1.3c-0.8-0.8-1.6-1.7-0.7-3
		c0.1-0.1,0-0.3-0.1-0.4c-0.3-1.4-0.5-2.8-0.8-4.3c-0.2-0.8-0.2-1.7-0.5-2.5c-0.3-1,0.2-1.8,1-2.1c0.4-0.2,1.3-0.1,1.6,0.2
		c0.5,0.6,0.8,1.4,1,2.1c0.1,0.4,0,0.8,0.1,1.3c0.2,1.5,0.3,3,0.6,4.6c0.1,0.6,0.3,1.1,0.3,1.7C37,271.4,36.8,272.2,36.7,272.8z"/>
	<path class="st0" d="M110.9,130.9c-0.7-0.2-1.3-0.5-2-0.6c-1.6-0.3-3.3-0.7-4.9-0.7c-1,0-2,0.3-2.9-0.5c-0.1-0.1-0.4,0-0.6,0
		c-1.5,0.5-3.1,1-4.6,1.5c-0.4,0.1-0.7,0.4-1,0.6s-0.7,0.5-1,0.5c-0.6,0-1.1,0-1.4,0.7c-0.1,0.2-0.5,0.3-0.8,0.3
		c-1.1-0.1-2.2-0.3-3.1-0.4c-1.2,0.5-2.2,0.9-3.3,1.4c-1,0.5-2.1,0.9-3.1,1.5c-1,0.6-2,1.4-3,2.1c-0.9,0.6-2,0.3-2.7-0.6
		c-0.4-0.6-0.1-1.9,0.6-2.4c1.1-0.8,2.1-1.5,3.3-2.1c1.8-0.9,3.6-1.8,5.4-2.6c0.2-0.1,0.4-0.2,0.5-0.1c1.2,0.6,2.4,0,3.6,0
		c1.3,0,2.7,0.6,3.2-1.3c0,0,0.1-0.1,0.2-0.1c2.4-0.4,4.4-2.4,7-1.4c0.2,0.1,0.5,0,0.8-0.1c3.3-0.5,6.3,0.1,9.3,1.4
		c1.4,0.6,2.8,1.2,4.3,1.8c1.5,0.6,3,1.1,4.5,1.8c0.4,0.2,0.9,0.9,0.8,1.3c-0.1,0.7-0.7,1-1.4,0.7c-1-0.3-2.1-0.4-3.1-1.1
		c-0.8-0.6-2.1-0.6-3.2-0.9C111.8,131.4,111.3,131.1,110.9,130.9C111,130.8,111,130.8,110.9,130.9z"/>
	<path class="st0" d="M72.6,191.4c-1.8-1.3-3.4-2.9-4.5-4.9c-0.4-0.6-1-1.1-1.3-1.7c-0.4-0.7-0.7-1.5-1.1-2.3
		c-0.3-0.5-0.7-0.9-1-1.4s-0.5-1.1-0.8-1.7c-0.2-0.5-0.5-1-0.8-1.5c-0.6-1-0.9-2-0.7-3.2c0.1-0.5-0.2-1.1-0.3-1.7
		c-0.2-0.9-0.4-1.8-0.4-2.7c0-2.1,0.1-4.3,0.3-6.4c0.2-1.5,0.6-3,1-4.4c0.4-1.4,0.3-2.9,1.2-4.1c0.5-0.7,0.9-1.5,1.5-2.4
		c1.1-0.2,2.2,0.8,1.9,2.2c-0.3,1.6-0.9,3.1-1.3,4.7c-0.2,0.9-0.5,1.7-0.6,2.6c-0.2,1.3-0.4,2.7-0.5,4c-0.1,0.7,0.1,1.4,0.2,2.1
		c0.1,1.7,0,3.3,0.1,5c0,0.6,0.3,1.3,0.5,1.9c0.5,1.3,1.2,2.5,1.7,3.8c0.9,2.2,2.5,3.9,3.8,5.8c0.9,1.2,1.7,2.4,2.5,3.7
		c0.3,0.5,0.3,1.1,0.3,1.7c0,0.2-0.4,0.4-0.6,0.5c-0.3,0.1-0.6,0.1-0.9,0.1C72.7,191.1,72.7,191.3,72.6,191.4z"/>
	<path class="st0" d="M138.9,191.3c0,1.3-0.8,1.8-2.2,1.6c-1.3-0.2-2.5-0.4-3.8-0.5c-1-0.1-1.2,0.3-0.8,1.2c0.1,0.1,0.2,0.2,0.2,0.3
		c-0.4,1.4,0.6,2.2,1.1,3.3c0.6,1.1,0.3,2.2-0.5,2.6c-1.1,0.5-2.5,0.1-2.7-1.1c-0.3-1.5-1.4-2.8-1.5-4.3c-0.1-1.9,0.1-3.7,1.7-5.1
		c0.8-0.6,1.7-0.7,2.6-0.6c1.6,0.2,3.1,0.7,4.7,0.9C138.6,189.9,138.8,190.6,138.9,191.3z"/>
	<path class="st0" d="M75,191.4C75.1,191.4,75.1,191.4,75,191.4c3.1,0.1,4.3,2.9,6.5,4.3c0.2,0.1,0.3,0.6,0.4,0.8
		c0.6,1.1,1.3,2.3,1.8,3.4c1.1,2.3,0.1,5-2.1,6.2c-0.6,0.3-1.5-0.1-1.4-0.7c0.1-0.9,0.4-1.8,0.7-2.8c0.1-0.2,0.3-0.5,0.2-0.5
		c-1-1-0.1-2.8-1.9-3.5c-0.5-0.2-0.8-1-1.4-1.4c-0.8-0.7-1.6-1.3-2.5-1.9c-0.8-0.6-1.2-2.1-0.8-3.1C74.8,192.1,74.9,191.8,75,191.4z
		"/>
	<path class="st0" d="M93.3,199.2c-1.1,1.2-1.8,1.4-3.3,0.4c0.2-2.2,0.8-4.3,1.8-6.3c0.2-0.4,0.9-0.9,1.2-0.8
		c0.4,0.2,0.8,0.8,0.9,1.3c0.2,1.1,0.2,2.3,0.3,3.5c1.3-0.7,1-2.1,1.3-3.3c0.2-1.1,0.9-1.6,1.9-1.8c0.9-0.2,1.5,0.4,1.8,1.2
		c0.1,0.3,0.1,0.7,0,1c-0.7,1.8-1.3,3.7-2.1,5.4c-0.6,1.4-2,1.7-3.3,1.7c-0.9,0-1.1-0.4-0.6-1.2c0.2-0.3,0.3-0.6,0.4-0.9
		C93.5,199.3,93.4,199.3,93.3,199.2z"/>
	<path class="st0" d="M68.4,146.7c-0.6-2.5,1.9-6.9,4-6.9c0.1-0.5,0.2-1.1,0.4-1.6c0.3-1,1-1.3,2-1.4c1-0.1,1.4,0.6,1.6,1.3
		s0.2,1.7-0.8,2.1c-0.3,0.1-0.7,0.2-0.9,0.4c-0.3,0.3-0.5,0.7-0.7,1.1c-0.2,0.3-0.1,0.7-0.3,1c-0.8,1.4-1.7,2.8-2.6,4.1
		c-0.3,0.4-0.8,0.6-1.3,0.9c0.1,0.6,0.4,1.4-0.8,1.6c0.2,0.3,0.3,0.5,0.4,0.8c-0.7,0.3-1.4,0.6-2.3,1.1c0.6-0.8-0.7-1.6,0.4-2.3
		c0,0,0-0.2,0-0.3C66.5,147.1,67.7,147.1,68.4,146.7z"/>
	<path class="st0" d="M90.3,202.3c-0.6,1.4-0.9,2.9-1.7,4.2c-0.4,0.6-1.4,1-2.2,1.1c-0.7,0.1-1-0.5-0.8-1.2c0.4-1.6,0.8-3.3,1.1-4.9
		c0-0.2,0-0.5-0.1-0.6c-0.7-1.3-0.3-2.5,0.2-3.7c0.4-1,1.2-1,2,0.2c0.6,1,1.6,1.9,0.9,3.3c-0.2,0.4,0.3,1.1,0.4,1.6
		C90.1,202.3,90.2,202.3,90.3,202.3z"/>
	<path class="st0" d="M180.1,298c0.5-0.6,0.9-1.2,1.4-1.7c0.5-0.6,1.2-0.6,2-0.5c1,0.1,2-0.1,3-0.2s2.1-0.4,3.1-0.2
		c0.6,0.1,1.4,0.9,1.7,1.5c0.2,0.6,0.2,1.5-0.9,1.7c-1.4,0.2-2.8,0.9-4.3,0.1c-0.3-0.2-0.9,0.2-1.3,0.2c-0.9,0.1-1.8,0.4-2.7,0.3
		C181.4,299.1,180.8,298.5,180.1,298z"/>
	<path class="st0" d="M222.4,288.4L222.4,288.4c0,0.1-0.1,0.1-0.1,0.1c-1.2,2.3-3.2,2.1-5.3,1.8c-0.8-0.1-1.7,0-2.4-0.2
		c-0.7-0.2-1.5-0.7-1.7-1.2c-0.5-1.5,0.1-2.3,1.8-2.3c1.8,0,3.7,0,5.5,0C221.4,286.7,221.7,287.8,222.4,288.4z"/>
	<path class="st0" d="M132.3,171.6c-0.5,1.2-0.8,2.3-1.5,3.2c-0.3,0.4-1.3,0.4-2,0.4c-0.3,0-0.7-0.7-0.8-1.1
		c-0.5-1.5-0.9-3.1,0.3-4.5c0.4-0.5,0.9-1.2,1.3-1.2c0.6,0,1.5,0.4,1.9,0.9C131.9,169.9,132,170.9,132.3,171.6z"/>
	<path class="st0" d="M44.1,376.5c0.2,0,0.5,0,0.5,0.1c0.3,1.7,1.6,2,3,2c0.1,0,0.2,0,0.3,0c0,0,0.1,0.1,0.3,0.2
		c-0.2,0.5-0.5,1-0.7,1.5c-1.4-1.3-1.6,0.4-2.5,0.8C44.7,379.6,44.4,378,44.1,376.5L44.1,376.5z"/>
	<path class="st0" d="M66.1,377.3c0.9-0.7,1.8-1.4,2.7-2.1c-0.4,0.8-0.7,1.4-1,2C67.4,377.9,66.8,377.7,66.1,377.3z"/>
</g>
<g>
	<path class="st3" d="M428.8,234.2c0,0-8.8,9.1-10.4,10.4c-1.6,1.3-7.5,6.3-7.5,6.3s1.3,11.9,0.9,18.2c-0.3,6.3-0.9,27.3-2.5,32.6
		c-1.6,5.3-5.3,27-5.3,27l11.6,12.2l33.4,34c0,0,4.6-19.8,6.4-29.9c1.9-10,3.1-41.1,3.8-46.8c0.7-5.7-2.5-38.6-5-46.1
		s-9.7-20.7-9.7-20.7L428.8,234.2z"/>
	<path class="st4" d="M441.8,126.1c0,0-11-2.7-17.2-1.8s-17.2,5.6-21.7,8.9c-4.5,3.3-11.3,11.9-12.8,16c-1.5,4.2-2.4,11-2.1,14
		s0.6,6.8,0.9,5.9c0.3-0.9,4.8-2.4,9.2-7.7c4.5-5.3,8-11,8-11s1.2,9.8,3.6,13.4c2.4,3.6,7.1,8.3,7.1,8.3s3,0.3,4.5-0.3
		s5.9,1.2,5.9,3.9s-0.3,9.2-2.7,10.4c-2.4,1.2-2.8,2.3-2.8,2.3s-1.6,6.4,1.2,13.5s7.6,11.5,8.8,14.5c1.2,3,1.2,7.4-0.9,11.3
		c-2.1,3.9-5,6.5-5.9,7.7s0.3,3,3.9,1.8s6.2-0.9,6.2-0.9s5.6,2.1,10.4-0.6c4.8-2.7,12.5-10.1,16-14.6c3.6-4.5,5-11.3,5.3-18.1
		s-1.2-23.2-1.5-27.6c-0.3-4.5-3-30-5.3-33.9C457.6,137.6,451,125.6,441.8,126.1z"/>
	<path class="st0" d="M455.2,376.9c0.3,0.6,0.6,1.1,1.4,1.5c1.2,0.6,2.2,1.8,3.2,2.8c0.3,0.3,0.6,0.6,0.8,1c0.4,0.5,0.9,1.1,1.3,1.6
		c0.4,0.4,0.9,0.8,1.3,1.3c0.8,1,1.7,1.9,2.5,2.9c0.2,0.2,0.2,0.8,0.1,0.9c-0.2,0.2-0.8,0.5-1,0.4c-0.8-0.3-1.6-0.7-2.2-1.3
		c-1.3-1.3-2.4-2.9-3.8-4.1c-1.2-1.2-2.7-2-3.9-3.2c-2-1.9-3.6-4.1-5.8-5.7c-1.5-1.1-2.5-2.4-3.8-3.6c-1.5-1.4-3-2.8-4.6-4.1
		c-0.8-0.7-1.9-1.2-2.3-2.4c-0.1-0.4-0.8-0.5-1.2-0.8c-1.4-1-2-2.8-3.7-3.5c-0.6-0.3-1.1-1.2-1.5-1.8c-0.8-1.2-1.7-2.2-2.9-3
		c-1.1-0.7-1.9-1.9-2.8-2.9c-1.4-1.3-2.8-2.5-4.2-3.8c-0.3-0.3-0.5-0.7-0.8-1c-0.6-0.6-1.3-1.2-1.9-1.8c-1-1-2-2-3-3
		c-0.7-0.6-1.5-1.2-2.2-1.8c-0.9-0.9-1.8-1.8-2.7-2.8c-0.6-0.6-1.3-1.2-2-1.9c-0.3-0.4-0.6-0.8-0.8-1.2c-0.1-0.2-0.3-0.4-0.5-0.5
		c-1.3-0.5-2.4-1.3-2.9-2.7c0-0.1-0.1-0.2-0.2-0.3c-0.8-0.4-1.4-0.7-1.8-1.7c-0.4-0.9-1.6-1.5-2.4-2.2c-0.6-0.6-1.2-1.2-1.9-1.8
		c-0.3-0.3-0.7-0.6-1-0.8c-0.6-0.4-1-0.6-1.4-1c-0.2-0.2-0.5-0.5-0.5-0.7c0-0.8-0.6-1.1-1.1-1.5c-1.1-0.9-2.1-2-3.2-3
		c-1.2-1-2.5-1.9-3.7-3c-0.4-0.3-0.4-1.1-0.7-1.4c-0.3-0.4-0.9-0.6-1.4-0.9c-0.6-0.5-1.2-1-1.7-1.6s-0.9-1.2-1.5-1.8
		c-0.9-0.9-1.9-1.6-2.9-2.4c-0.1-0.1-0.2-0.4-0.3-0.6c-0.1-0.2-0.2-0.5-0.3-0.5c-1.1,0.3-1.1-0.8-1.6-1.3c-0.9-0.9-1.7-2-3-2.5
		c-0.5-0.2-1-0.8-1.3-1.4c-0.3-0.7-0.9-1.1-1.3-1.6c-0.8-0.8-1.8-1.4-2.4-2.4c-0.3-0.6-1.2-0.8-1.8-1.4c-0.6-0.7-1.5-1.2-2.3-1.8
		c-0.6-0.5-0.8-1-0.2-1.9c0.6,0.5,1.2,0.9,1.8,1.3c1.2-0.8,2.2-0.5,3.2,0.9c0.6,0.8,1.5,1.4,2.2,2.2c1.2,1.4,3,2,4.4,3.1
		c1.8,1.4,3.4,2.8,4.7,4.7c0.4,0.6,1.2,0.9,1.7,1.4c2.4,2.2,4.7,4.4,7,6.7c1,1,2,2,2.9,3c0.4,0.5,0.7,0.6,1.1-0.1
		c0.1-0.3,0.4-0.6,0.7-0.9c-0.1-0.3-0.2-0.6-0.4-1c-0.4-1.3,0.1-2.2,1.4-2.5c0.5-0.1,1.3-0.2,1.4-0.1c0.3,0.8,0.8,1.9,0.5,2.4
		c-0.8,1.1-0.4,2.2-0.3,3.2c0,0.2,0,0.5-0.1,0.7c-0.6,2.1-0.3,2.8,1.7,3.6c0.2,0.1,0.4,0.2,0.6,0.4c0.7,0.7,1.3,1.5,2,2.2
		c0.2,0.2,0.7,0.4,1,0.4c0.2,0,0.4-0.4,0.5-0.7c0.2-1.2,0.2-2.5,0.5-3.7c0.2-0.9,0.7-1.8,1-2.7c0.1-0.2,0.1-0.5,0.1-0.7
		c0.1-0.8,0.2-1.6,0.4-2.4c0.6-2.1,1.4-4.1,1.9-6.1c0.6-2,0.4-4.1,0.5-6.1c0.1-1.2,0.2-2.5,0.5-3.7c0.1-0.5,0.5-0.9,0.8-1.4
		c-0.7-1.7-0.1-7.1,1-8.2c-1.5-0.8-0.5-2.1-0.6-3.2c-0.1-1.3-0.1-2.4,1.3-3.3c-1.6-0.3-1.6-1.5-1.6-2.4c0-1,0.5-1.9,1.5-2.2
		c-0.4-0.4-0.9-0.7-1-1.1c-0.2-0.4-0.1-1-0.1-1.5c0-1.1-0.1-2.2-0.1-3.4c0-0.1-0.1-0.3-0.1-0.4c0.1-1.4,0.3-2.7,0.4-4.1
		c0.1-0.9,0.5-1.7-0.2-2.5c-0.1-0.1-0.1-0.3-0.1-0.4c-0.1-3.2-0.3-6.3-0.4-9.5c0-0.6,0.3-1.2,0.3-1.8c0-0.7-0.3-1.4-0.2-2.1
		c0.1-0.6,0.4-1.3,0.8-1.8c0.8-1.1,1.6-2.1,2.5-3.1c0.4-0.4,1-0.6,1.5-1c0.4-0.3,0.9-0.5,1.3-0.9c0.9-0.8,1.6-1.7,2.5-2.6
		c-2.6-0.8-5.2-1.5-8-2.4c-0.2,0.3-0.6,0.8-0.8,1.3c-0.7,1.4-1.4,2.8-2.2,4.1c-1,1.6-2,3.2-3.2,4.7c-0.3,0.4-1.4,0.5-1.8,0.2
		c-0.6-0.3-1.4-0.9-1-1.9c0.4-0.9,1-1.7,1.5-2.5c0.4-0.7,0.7-1.4,1.1-2c0.9-1.6,1.7-3.2,2.7-4.8c0.5-0.8,1.3-1.5,1.6-2.4
		c0.4-1.2,1.1-2.2,1.9-3.1c0.2-0.3,0.5-0.6,0.5-0.9c0-1.3,0.4-2.2,1.6-3c0.6-0.4,0.8-1.5,1.2-2.3c0.9-1.7,1.6-3.5,2-5.4
		c0.3-1.3,0.8-2.5,0.3-3.9c-0.4-1-0.1-2.3-0.4-3.5c-0.5-1.9-1-3.9-2.5-5.4c-0.4-0.4-1.2-0.3-1.9-0.3c-1.8-0.1-3.6-0.2-5.4-0.3
		c-0.4,0-0.9,0-1.3,0c-2.8,0.1-5.4-0.5-7.8-1.8c-1.2-0.6-2.1-1.9-3.1-2.8c-1.4-1.3-2.5-2.9-3.1-4.7c-0.2-0.7-0.8-1.3-1.1-2
		c-0.2-0.4-0.5-0.8-0.6-1.2c-0.1-1.3-0.9-2.1-1.7-3.1c-0.7-0.8-1.1-2-1.6-3c-0.1-0.2-0.2-0.3-0.3-0.5c-0.6-1.2-1.2-2.4-1.7-3.6
		c-0.1-0.3-0.2-0.7-0.3-1c-0.1-0.3-0.2-0.8-0.1-1c0.6-0.8,1-1.7,1.6-2.4c0.8-1,1.8-2.3,3.1-2.1c0.7-1.4,1.3-2.6,1.9-3.9
		c0.2-0.4,0.5-0.8,0.6-1.3c0.3-0.8,0.2-1.2-0.6-1.8c-1.6-1.4-2.2-3.5-2.5-5.6c-0.1-1-0.1-2.1-0.2-3.1c0-0.7-0.1-1.4,0-2.1
		c0.1-2,0.1-4,0.5-6c0.3-1.9,0.9-3.8,1.4-5.6c0.8-2.6,2-5.1,3.4-7.5c1.3-2.1,2.8-4.2,4.9-5.7c0.2-0.2,0.4-0.4,0.6-0.7
		c0.6-1.3,1.7-1.9,2.8-2.5c0.4-0.2,0.8-0.7,1.2-0.9c0.8-0.4,1.6-0.8,2.4-1.2c0.3-0.1,0.5-0.3,0.7-0.5c0.4-0.3,0.7-1,1-1
		c2,0,3-2.1,4.7-2.3c1.9-0.3,2.9-2.1,4.8-2.1c0.4,0,0.9-0.1,1.3-0.1c0.5,0,0.9,0,1.3-0.6c0.4-0.5,1.3-1,1.9-0.9
		c1.8,0.4,3.3-0.6,4.9-0.6s3.1-1.2,4.7-0.3c0.1,0.1,0.4-0.1,0.5-0.1c0.9,0,1.8,0.1,2.7,0.1c1.1,0,2.3-0.1,3.4-0.1
		c1.9,0.1,3.9-0.4,5.7,0.8c0.3,0.2,0.8,0.3,1.1,0.3c1.6,0.2,3.2,0.3,4.3,1.8c0.6,0.8,1.5,1.3,2.3,2c0.2,0.1,0.3,0.3,0.4,0.5
		c0.6,0.6,1,1.4,2,1.6c0.6,0.1,1.1,0.8,1.7,1.2c0.2,0.1,0.3,0.4,0.5,0.5c1.4,0.3,2.2,1.2,2.7,2.4c0.1,0.2,0.4,0.4,0.5,0.5
		c0.3,0.3,0.9,0.6,0.9,0.9c-0.1,1.7,1.8,2.5,1.9,4.2c0.1,0.5,0.9,1,1,1.5c0.3,1.7,1.4,3.1,1.9,4.7c0.1,0.4,0.1,0.8,0.2,1.3
		c0.1,0.6,0.1,1.3,0.2,1.9c0.2,0.8,0.9,1.5,0.4,2.5c-0.1,0.3,0.6,0.8,0.7,1.3c0.4,2.7,0.9,5.5,0.9,8.2c0,1,0.4,1.5,0.6,2.2
		c0.3,1,0.3,2.1,0.4,3.2c0,0.2-0.1,0.4,0,0.6c0.8,2.8,0.3,5.6,0.6,8.4c0.2,1.8,0.4,3.7,0.6,5.5c0.2,1.6,0.5,3.2,0.6,4.8
		c0,0.4-0.3,0.9-0.5,1.3c1.4,1.8,1,3.5-0.7,5.1c0.1,0,0.2,0.1,0.4,0.1c0.3-0.3,0.6-0.5,0.9-0.8c0.1,0,0.1,0,0.2,0.1
		c-0.2,0.4-0.3,0.8-0.5,1.3c1.6,0.8,1.5,2,0.9,3.5c-0.2,0.4,0.1,1,0.2,1.5c0.3,1.3,0.6,2.6-0.2,3.9c0.9,1.5,0.4,3.4-0.9,4.5
		c0.2,0.6,0.6,1.2,0.5,1.7c-0.5,2.3-0.2,4.8-1.8,6.9c-0.3,0.3,0,1.1-0.2,1.5c-1,1.8-0.9,4.2-3,5.4c-0.2,0.1-0.3,0.5-0.5,0.8
		c-0.3,0.4-0.7,0.9-1.1,1.3c-0.2,0.2-0.4,0.4-0.6,0.7c-0.3,0.6-0.5,1.3-1,1.7c-1,0.9-2.1,1.8-3.2,2.6c-0.8,0.6-1.7,1.1-2.6,1.7
		c-0.4,0.3-0.7,0.6-1,0.9c-0.7,0.9-1.1,2.2-2.7,2.4c0.4,2-1.8,1.6-2.5,2.7c1.6,0.9,2,1.6,1.8,2.7c0.5,1,0.9,1.8,1.4,2.6
		c0.5,0.9,1,1.8,1.5,2.7c0.6,1,0.4,1.9-0.6,2.8c0.1,0,0.2,0.1,0.3,0.1c0.3-0.1,0.7-0.2,0.9-0.3c0.4,0.6,0.9,1.2,1.1,1.9
		c0.7,2.7,2.1,5.2,1.9,8.2c-0.1,1.5,1,2.6,2.4,2.9c0.6-1.7,1.2-3.4,1.9-5c0.8-2,1.8-3.9,2.6-5.9c0.1-0.2,0.3-0.5,0.4-0.7
		c0.9-1,1.5-2.1,1.8-3.4c0.2-0.7,0.8-1.3,1.2-2c0.5-0.9,1.3-0.6,2.1-0.6c0.1,0,0.3-0.1,0.3-0.2c0.5-1.4,1.7-1.2,2.9-1.2
		c1.7,0,3.4,0.1,5,0.9c0.7,0.4,1.3,1.1,1.9,1.6c-0.1,0.1-0.1,0.2-0.1,0.1c2.3,0.5,4.7,0.8,6.7,2.5c0.2,0.2,0.4,0.3,0.4,0.5
		c0.4,1.1,1.1,2.2,1.1,3.3c-0.1,1.9,0.9,4.1-1,5.3c0,0.8,0,1.4-0.1,2c-0.4,1.8-0.9,3.5-1.3,5.3c-0.2,1.2-0.2,2.4-0.4,3.6
		c-0.5,2.1-1.2,4.2-1.8,6.2c0,0.1-0.1,0.2-0.1,0.3c0,1.5,0,1.5-1.3,1.9c0.9,0.5,1,1.3,0.7,2.6c-0.4,1.6-0.5,3.3-0.7,5
		c0,0.2-0.1,0.5-0.1,0.7c-0.4,1.5-0.9,2.9-1.1,4.4c-0.3,1.9-0.3,3.8-0.5,5.7c-0.1,1.1-0.4,2.3-0.6,3.4c-0.2,1.3-0.5,2.7-0.8,4
		c-0.4,2.1-0.9,4.3-1.3,6.4c-0.3,1.9-0.5,3.8-0.8,5.6c-0.3,1.5-0.1,3.1-1.2,4.5c-0.3,0.4-0.3,1.1-0.3,1.7s0.1,1.2,0,1.7
		c-0.2,1.2-0.5,2.5-0.9,3.7c-0.1,0.3-0.4,0.4-0.6,0.7c-0.2,0.3-0.6,0.8-0.5,1c0.5,1,0.1,1.9-0.1,2.8c-0.2,0.8-0.4,1.6-0.5,2.4
		c-0.3,1.1-1.2,1.6-2.3,1.3c-0.9-0.2-1.4-1-1.2-2.1c0.3-1.2,0.5-2.4,0.9-3.5c0.3-0.7,0.9-1.3,1.2-1.7c0-0.8,0-1.6,0-2.3
		c0.1-1.1,0.3-2.2,0.4-3.3c0-0.1,0-0.2,0.1-0.3c1.8-2.8,0.6-6.2,2-9.1c0.3-0.6,0.2-1.6,0.4-2.5c0.3-1.7,0.3-3.6,0.9-5.2
		c0.7-2.2,0.7-4.5,1.1-6.8c0.3-2,0.9-4,1.2-6c0.2-1.3,0.1-2.7,0.5-4c0.4-1.7,0.3-3.5,0.6-5.1c0.3-1.8,1.2-3.5,1.8-5.3
		c0.3-0.8,1.1-1.8,0.9-2.5c-0.4-1.3,0.1-2.5,0.1-3.8c0-1.3,0.4-2.5,0.6-3.7c0.3-1.8,0.4-3.6,0.9-5.2c0.5-1.7,0.3-3.7,1.9-4.9
		c0.1-0.1,0.2-0.3,0.2-0.4c-0.1-1.6-0.2-3.3-0.3-4.9c0-0.2-0.2-0.5-0.5-0.6c-1.2-0.7-2.5-1.3-3.7-1.9c-0.1,0-0.2-0.1-0.2-0.1
		c-0.6-2.2-2.9-1.4-4.3-2.1c-1.1-0.6-2.5-1.2-3.9-0.8c-0.4,0.1-0.8,0.2-1,0.4c-0.8,0.9-1.9,1.7-1.7,3.1c0,0.1-0.1,0.2-0.1,0.3
		c-1.7,1.8-2.4,4.3-3.6,6.4c-1,1.7-1.3,3.7-2.1,5.5c-1,2.1-1.4,4.4-1.8,6.6c-0.3,1.7,0.2,3.5,0.3,5.3c0,1.2-0.1,2.5-0.2,3.7
		c0,1.4-0.1,2.9,0,4.3c0.1,1.6,0.7,3.2,0.3,4.7c-0.4,1.9,0.6,3.4,0.4,5.2c-0.3,1.8-0.3,3.7-0.4,5.5c0,0.6,0.2,1.1,0.2,1.7
		c0,0.7-0.2,1.4-0.3,2.1c0,0.2-0.2,0.4-0.2,0.4c1.3,1.7-0.4,3.7,0.4,5.5c0.2,0.4-0.2,1.1-0.3,1.6c0,0.3,0,0.6,0,0.9
		c0.2,2.3,0.5,4.7-0.3,7c-0.2,0.4-0.2,1,0,1.4c0.5,1.4,0,2.8-0.1,4.1c-0.1,0.5,0,1.1-0.1,1.6c-0.2,1.2-0.6,2.4-0.7,3.6
		c-0.2,1.1-0.2,2.3-0.3,3.5c-0.1,0.6-0.1,1.3-0.2,1.9c-0.2,1.5-0.6,2.9-0.7,4.4c-0.1,1.3-0.1,2.5-0.1,3.8c0,0.1,0,0.2,0,0.2
		c-1.3,1.3-0.3,3.1-0.8,4.4c-0.5,1.7-0.2,3.3-0.7,5c-0.6,1.9-0.4,4.1-0.7,6.1c-0.1,0.5-0.1,1.3-0.5,1.5c-0.9,0.6-0.7,1.3-0.6,2
		c0.4,2.2-0.2,4.3-0.8,6.4c-0.1,0.3,0,0.8-0.1,1.1c-0.7,2.2-1.4,4.4-2.2,6.5c-0.1,0.3-0.6,0.5-0.9,0.8
		C452.3,374.2,453.7,375.5,455.2,376.9L455.2,376.9z M409.3,332.1c0.7,0.7,1.1,1.1,1.6,1.5c0.5,0.5,1.2,0.8,1.6,1.4
		c0.6,0.6,1,1.5,1.6,2.1c1.9,1.9,3.9,3.6,5.7,5.6c1,1.1,1.1,0.2,1.5-0.3c0.2-0.2,0.3-0.5,0.4-0.7c0.6-1.7,2.4-2.5,3-4.4
		c0.4-1.5,1.6-2.7,2.5-4.1c1-1.7,2-3.3,2.9-5c0.6-1.2,1-2.5,1.7-3.6c0.6-0.9,1.5-1.6,1.2-3c-0.2-0.7,0.5-1.6,0.7-2.5
		c0.7-2.1,1.3-4.2,2-6.3c0.4-1.3,0.8-2.7,1.2-4c0.2-0.5,0.2-1.1,0.4-1.5c0.7-1.6,1.9-3.1,1-5.1c-0.2-0.5,0.3-1.4,0.5-2.1
		c0.4-1.3,1.1-2.6,1.2-4c0.1-1.8,0-3.6,1-5.2c0.2-0.4,0.1-1.1,0.1-1.6c0.1-0.8,0.1-1.7,0.3-2.5c0.3-1.3,0.6-2.6,0.9-3.8
		c0.2-0.7,0.7-1.5,0.5-2.1c-0.4-1.1-0.1-1.9,0.2-2.9c0.3-1.1,0.4-2.2,0.6-3.3s0.3-2.2,0.6-3.3c0.5-1.9,1-3.8,1.5-5.8
		c0.1-0.3,0-0.6,0-0.9c0-0.5,0-1,0.2-1.5c0.5-1.1,1-2.2,1.7-3.3c0.3-0.4,0.9-0.6,1.4-0.9c0.1,0.4,0.3,0.9,0.4,1.3
		c0,0.2,0,0.3,0.1,0.5c0.6,1.9-0.2,3.7-0.7,5.5c-0.3,1.4-1.2,2.7-0.8,4.3c0.1,0.3,0.2,0.7,0.1,0.9c-1.3,1.8-0.3,4-1.4,5.9
		c-0.6,1-0.4,2.5-0.7,3.9c-0.5,1.9-0.5,4-0.7,6c-0.1,1-0.1,2.1-0.6,2.9c-0.4,0.7-0.6,1.4-0.6,2.1c0,0.5,0.1,1,0,1.5
		c-0.6,2.9-1.2,5.8-1.9,8.7c-0.3,1.1-0.9,2.1-1.4,3.1c-0.1,0.1-0.4,0.2-0.6,0.1c-0.9-0.3-0.8-0.3-1.2,0.4c0.6,0.1,1.2,0.2,1.8,0.3
		c0.6,1.6-0.1,2.9-0.7,4.3c-0.3,0.7-0.4,1.5-0.5,2.2c-0.1,0.4,0.1,1-0.1,1.3c-0.7,0.9-0.8,2.1-1.1,3.2c-0.4,1.3-0.8,2.6-1.3,3.9
		c-0.3,0.8-0.4,1.7-1,2.3s-1.1,1-0.7,1.9c0,0.1,0,0.2-0.1,0.3c-0.9,1.6-1.8,3.3-2.7,4.9c-1.3,2.3-2.7,4.5-3.8,6.8
		c-0.6,1.2-1.2,2.1-2.2,2.5c-0.2,0.8-0.3,1.5-0.5,2.1c-0.3,0.7-0.8,1.3-1.2,1.9c-0.4,0.6-0.7,1.3-1.2,2c0.5,0.6,1.1,1.4,1.8,2.1
		c1.2,1.3,2.4,2.4,3.6,3.7c1.4,1.4,2.6,3,4,4.4c1.6,1.6,3.4,2.9,5,4.5c1.1,1,2.1,2.3,3.2,3.3c0.4,0.4,1.1,0.7,1.6,1.1
		c0.5,0.5,1,1.1,1.5,1.6c0.7,0.8,1.5,1.6,2.2,2.4c0.6,0.6,1.3,1.2,1.9,1.8c0.5-1.2,1-2.3,1.3-3.5c0.4-1.3,0.6-2.7,0.8-4.1
		c0.3-1.6,0.5-3.2,0.8-4.8c0.1-0.4,0.4-0.8,0.7-1.1c0.3-0.3,0.7-0.5,1-0.7c-0.3-0.4-0.7-0.7-0.7-1c0-1.5,0.1-2.9,0.2-4.4
		c0-0.4,0.2-0.8,0.2-1.1c0.1-1,0.1-2.1,0.3-3.1c0.2-0.9,0.8-1.8,0.8-2.6c0-1.5-0.7-3,0.6-4.3c0,0,0-0.2,0-0.3
		c-0.6-3,0.3-5.9,0.5-8.8c0.1-1.1,0.3-2.1,0.5-3.2c0.2-0.9,0.6-1.7,0.7-2.6c0.3-2.4,0.6-4.8,0.7-7.2c0.2-3.8,0.3-7.6,0.3-11.5
		c0-3.2,0.1-6.4-0.1-9.5c-0.2-6.2-0.5-12.4-0.9-18.5c-0.1-1.7-0.5-3.5-1-5.1c-0.3-0.9-1.3-1.7,0-2.5c-0.3-0.4-0.7-0.8-0.7-1.2
		c0.1-1.1-0.5-2.3-0.3-3.3c0.3-2.2-0.6-4.1-0.8-6.1c-0.1-1.2-0.4-2.5-0.7-3.7c-0.4-1.8-0.7-3.6-1.1-5.4c-0.3-1.2-0.6-2.3-0.9-3.6
		c-1.2-0.5-3.2-5.2-3-6.6c-0.6-1.3-1.1-2.2-1.6-3.2c-1.4,0.3-2.9,0.5-4.4,0.8c-0.8,0.1-1.6,0.3-2.3,0.3c-1,0-2.2-1.1-2.2-1.9
		c0.1-1.3,0.9-1.5,2-1.5s2.3-0.1,3.3-0.5c2-0.8,3.9-1.8,5.9-2.7c-0.1-0.1-0.2-0.2-0.3-0.3c0.8-1,1.5-2.1,2.3-3.1
		c0.1-0.1,0.4-0.1,0.6-0.1c0.3-0.1,0.5-0.2,0.7-0.3c1.3-1.1,2.7-2.2,3.9-3.3c1.2-1.1,2.4-2.4,3.5-3.6c0.2-0.2,0.2-0.7,0.4-0.7
		c1.6-0.5,1.9-2.1,2.5-3.3c0.5-1,0.6-2.3,1.7-3c-1-0.6-0.5-1.2-0.2-1.9c0.3-0.9,0.6-1.9,0.7-2.9c0-1.3,0-2.6,1.4-3.4
		c-0.5-0.8-0.6-2.6-0.1-3.8c0.1-0.3,0.4-0.5,0-1c-0.8-0.9-0.4-3.4,0.2-4.1c-0.2-0.9-0.6-1.6-0.6-2.4c0-0.6,0.5-1.3,0.8-1.9
		c-1.2-0.3-2-4.2-0.9-5.7c-0.2-0.2-0.6-0.5-0.6-0.7c-0.3-1.3-0.5-2.5-0.6-3.8c-0.1-1,0.1-1.9,0-2.9c-0.1-1.6-0.5-3.3-0.6-4.9
		c-0.1-2.1,0-4.2,0-6.3c0-0.4-0.1-0.8-0.2-1.2c-0.4-1.4-0.8-2.8-0.4-4.3c0.1-0.2,0-0.7-0.1-0.7c-0.8-0.4-0.7-1.2-0.8-1.9
		c-0.3-2.8-0.6-5.6-1.1-8.4c-0.4-2-1-4-1.6-5.9c-0.4-1.2-0.2-2.5-1-3.7c-1-1.6-1.9-3.2-2.7-4.9c-0.6-1.2-0.9-2.4-2.2-3
		c-0.2-0.1-0.2-0.4-0.4-0.6c-0.4-0.5-0.7-1.2-1.2-1.6c-1.5-1.2-2.9-2.5-4.6-3.4c-1.2-0.7-2.6-1.1-4-1.5c-1.1-0.3-2.1-0.8-3.3-0.9
		c-1.5-0.1-3.1-0.5-4.6-0.5c-1.7,0-3.4,0.3-5.1,0.5c-1.6,0.1-3.2,0-4.9,0.1c-1.1,0.1-2.2,0.5-3.2,0.5c-1.2,0-2.4,0.8-3.5-0.1
		c-0.1,0-0.5,0.2-0.6,0.5c-0.3,0.7-0.8,1-1.5,1.3c-2,0.8-3.9,1.9-6,2.7c-1.3,0.6-2.7,1.1-3.9,1.8c-0.4,0.3-1,0.3-1.3,0.9
		c-0.2,0.3-0.4,0.5-0.7,0.6c-1.3,1-2.6,1.9-3.9,2.9c-1.1,0.8-2.1,1.7-3.2,2.6c-0.2,0.2-0.5,0.3-0.6,0.5c-0.5,1-0.9,2-1.4,3
		c-1.2,2.7-2.4,5.4-3.7,8.2c-0.3,0.6-0.8,1.1-0.9,1.7c-0.2,2.4-0.3,4.8-0.4,7.2c0,1.3,0.1,2.6,0.1,3.8c7.2-3.3,11.5-9.5,15.4-15.9
		c1.4,0.9,2.1,1.8,1.8,3.4c-0.1,0.6,0.1,1.5,0.6,1.9c1.1,1,0.9,2,0.7,2.6c0.8,1.5,1.8,2.6,1.9,3.8c0.2,1.9,1.1,3.3,2,4.9
		c0.7,1.3,1.5,2.5,2.3,3.7c0.4,0.6,0.7,1.3,1.2,1.6c1.4,1,2.9,1.1,4.4-0.1c0.3-0.2,1-0.4,1.1-0.3c0.8,0.7,1.8,0.7,2.7,1
		c0.9,0.3,2,0.8,2.4,1.5c0.9,1.8,1.6,3.6,1.7,5.8c0.2,4.3-1.8,8.9-6.8,9.9c0,1.3-0.1,2.6,0,3.8c0.1,1.3,0.3,2.6,0.6,3.8
		c0.2,1,0.7,2,1,3c0.2,0.9,0.1,1.9-0.8,2.4s-1.6-0.1-2.1-0.8c-1.6-2.2-1.6-4.8-1.8-7.3c-0.2-1.8,0.5-3.6,0.8-5.4
		c0.2-1.3,0.4-2.6,0.6-3.9c0.3,0,0.7,0,1,0.2c1.1,0.7,1.8,0.5,2.3-0.6c0.1-0.2,0.3-0.4,0.5-0.6c1.2-1.1,1.2-2.8,1.2-4.1
		c0.1-1.5-0.8-3.1-1.4-4.6c-0.2-0.6-1.2-1.5-1.3-1.4c-1.1,0.7-2.8,0.2-3.6,1.6c-0.2,0.3-0.9,0.5-1.2,0.4c-1.4-0.4-2.9-0.6-3.8-2
		c-0.4-0.6-1.1-1-1.5-1.6c-0.8-1.1-1.5-2.2-2.2-3.3c-0.4-0.6-0.5-1.5-0.9-2c-0.8-0.9-1-1.9-1-3c0-0.3-0.2-0.6-0.4-0.9
		c-0.6-1-1.5-1.9-1.3-3.2c0.2-1.2,0-2.2-1.2-2.7c-0.8,0.8-1.6,1.6-2.2,2.1c-0.6,0.9-1.1,1.7-1.5,2.3c0.8,0.7,1.6,1.4,2.3,2.3
		c0.2,0.3,0.1,0.9,0,1.3c0,0.1-0.6,0.1-1,0.1c-0.2,0-0.4,0-0.6,0c-1-0.1-2.2,0.1-3-0.3c-0.9-0.4-1.3,0.1-1.9,0.4
		c-0.6,0.4-1.1,0.8-1.7,1.2s-1.2,0.6-1.2,1.5c0,1-0.1,2-0.3,3c-0.4,2.7-1.3,5.3-2.5,7.8c-0.7,1.4-2.1,2.1-3.5,1.6
		c0.1,0.5,0.4,1.2,0.2,1.6c-0.3,0.6-0.8,1.1-1.4,1.4c-1.4,0.9-1.7,1.4-1.1,2.6c0.7,1.3,1.6,2.6,2.3,3.8c1.1,1.7,2.2,3.4,3.2,5.1
		c0.8,1.4,1.3,2.9,2,4.4c0.4,0.8,0.9,1.6,1.4,2.4c0.4,0.5,0.8,1,1.3,1.4c0.9,0.6,1.9,1,2.7,1.5c1.2,0.8,2.5,0.9,3.8,0.8
		c0.4,0,0.8-0.2,1.2-0.1c2,0.1,3.9,0.3,5.9,0.4c1.2,0.1,2.5,0.1,3.7,0.3c0.4,0.1,0.9,0.4,1.2,0.8c0.5,0.6,0.6,1.4,1.1,1.9
		c2,1.9,1.8,4.5,2.6,6.8c0.2,0.6-0.3,1.5-0.1,2.2c0.3,1.7,0.3,3.3-0.1,5c-0.5,2.4-1.2,4.7-2.5,6.8c-0.5,0.8-1.2,1.4-1.2,2.5
		c0,0.5-0.6,1.2-1,1.4c-1.2,0.5-1.3,1.7-1.9,2.6c-0.1,0.1,0.1,0.6,0.3,0.7c0.7,0.4,1.4,0.8,2.2,1.1c1,0.4,2.1,0.5,3.1,0.9
		c1.1,0.4,2.2,0.9,3.4,1.4c0.5-1.2,2-1.7,1.9-3.2c0-0.2,0.3-0.4,0.4-0.5c1.6-1.3,3.1-2.6,4.7-4c0.2-0.2,0.5-0.6,0.5-0.9
		c0-0.9,0.6-1.2,1.3-1.5c0.3-0.2,0.5-0.4,0.6-0.5c-0.1-0.7-0.2-1.2-0.1-1.7c0.2-1,0.7-2,0.6-2.9c-0.2-2-0.6-4.1-1.1-6.1
		c-0.2-1-0.4-1.8,0.6-2.5c-2.6-0.4-4-2.9-2.8-5.2c-1.2,0.8-1.8,0.1-2.4-0.7c-1.1-1.6-2.1-3.2-3-4.8c-0.2-0.3-0.3-0.9-0.2-1.2
		c0.3-0.6,0.7-1.3,1.3-1.5c0.6-0.2,1.6,0,1.9,0.5c1,1.4,1.9,3,2.8,4.5c0.3,0.5,0.7,1.2,0.6,1.8c-0.2,0.9,0.2,1.2,0.9,1.5
		c1.1,0.4,2.4,2.6,2,3.6c-0.2,0.7-0.1,0.9,0.5,1.2c0.3,0.1,0.6,0.4,0.7,0.7c0.3,0.6,0.6,1.2,0.7,1.9c0.3,1.3,0.7,2.6,0.8,3.9
		c0.1,1.4-0.1,2.8-0.1,4.3c0,1.9-0.9,3.1-2.6,3.5c1.4,1.2,0.8,2.4-1.8,3.7c-0.2,0.8-0.3,1.5-0.5,2.4c1.2-0.4,2.4-0.7,3.4-1.3
		c1.9-1.1,3.7-2.5,5.6-3.6c0.3-0.2,0.9-0.2,1.1,0s0.2,0.7,0.2,1.1c0,0.3-0.1,0.5-0.2,0.8c-0.2,1.3-0.8,1.9-2.1,2.1
		c-0.2,0-0.5,0-0.5,0.1c-0.6,1.6-2.2,1.9-3.3,2.7c-2.1,1.3-4.3,2.3-6.9,1.4c-0.6-0.2-1.3-0.3-1.6,0.7c-0.2,0.7-0.9,1.2-1.4,1.7
		c-0.8,0.9-1.7,1.7-2.4,2.7c-0.5,0.6-0.8,1.4-1.4,1.8c-1.8,1.3-3.5,2.8-5.3,4.2c-1.3,1.1-1.3,2.3-1.4,3.5c-0.1,3.1,1,6.2-0.1,9.2
		c0,0.1,0,0.2,0,0.2c1.1,1.1,0.1,2.4,0.4,3.6c0.2,0.7,0.2,1.5,0.2,2.3c0,1.7,0,3.5-0.1,5.2c0,1,0.1,2-0.4,2.8
		c-0.5,0.9-1.3,1.5,0.1,2.2c0.1,0.1,0.1,0.3,0.1,0.5c0.1,1.2,0.1,2.3-1.2,3c1.5,1.7,1.7,4.3,0.7,6.5c0.2,0.8,0.3,1.6,0.2,2.4
		c0,0.7-0.3,1.4-0.2,2c0.3,1.6-0.2,3-1,4c0.2,1,0.6,1.8,0.5,2.6c-0.3,2.1-0.9,4.3-1.3,6.4c-0.2,0.8-0.2,1.7-0.4,2.6
		c-0.4,1.6-1,3.1-1.4,4.6c-0.4,1.4-0.5,2.9-0.9,4.3c-0.4,1.8-1,3.6-1.5,5.8c0.8-0.5,1.7-0.8,1.8-1.2c0.4-1.4,1-2.7,1.8-3.9
		c1-1.6,1.5-3.5,2.3-5.2c0.3-0.8,0.7-1.5,0.9-2.3c0.8-2.5,1.5-5.1,2.2-7.6c0.1-0.5,0.3-1,0.4-1.6c0.4-2.5,1.4-4.7,3.4-6.4
		c-1.2-0.5-1.5-1.2-1.2-2.4c0.3-0.8,0.6-1.6,0.8-2.5c0.3-1.1,0.5-2.3,0.8-3.5c0.2-0.8,0.8-1.5,0.4-2.6c-0.3-1.1,0-2.5,0.1-3.7
		c0.1-0.8,0.4-1.7,0.5-2.5c0.1-0.7,0.1-1.4,0.2-2.1c0-0.7,0-1.5,0.1-2.3c0.1-0.7,0.5-1.5,0.3-2.2c-0.4-1.8,0-3.6-0.1-5.3
		c0-0.8-0.1-1.6,0-2.4c0.1-1.4-0.6-2.9,0.5-4.2c-0.6-1.4,0-2.7,0.3-4.2c0.4-2,1.1-3.8,2.3-5.4c1.5-2.1,1.5-2.1,4.3-1.4
		c-0.4,0.7-0.7,1.4-1,2.1c-0.6,1-1.4,1.9-1.8,2.9c-0.6,2-1,4.1-1.5,6.1c0,0.1,0.1,0.2,0.1,0.3c0.1,1.4,0.6,2.9,0.3,4.2
		c-0.6,2.1,0.2,4-0.1,6c-0.2,1.2,0,2.4-0.1,3.6c-0.1,0.8-0.6,1.7-0.4,2.5c0.8,2.9-0.4,5.6-1,8.2c-0.5,2.3,0.4,4.9-1.4,6.9
		c-0.1,0.1,0,0.5,0,0.8c0,1.6-0.2,3-2.2,3.5c0.8,0.4,1.8,0.7,1.3,1.8c-0.2,0.6-0.5,1.2-0.7,1.8c-0.6,1.7-1.2,3.5-1.6,5.3
		c-0.5,1.9-0.7,3.8-1.2,5.7c-0.2,0.9-0.8,1.7-1.1,2.6c-0.5,1.3-0.9,2.7-1.5,4.1c-0.8,1.9-1.7,3.9-2.7,5.7c-0.3,0.5-0.9,0.8-1.3,1.2
		c-0.2,0.2-0.6,0.3-0.6,0.6c-0.4,1.9-1.9,3.1-3.1,4.5c-0.3,0.4-0.8,1.2-0.7,1.3C407.5,330.9,408.2,332.2,409.3,332.1z"/>
	<path class="st0" d="M399.7,267.7c0.2,1.2,0.6,2.3,0.7,3.5c0.1,1-0.1,2-0.1,3.1c0,1.2,0.1,2.3,0.1,3.5c0,0.9-0.2,1.7-0.2,2.6
		c-0.1,2.2-0.1,4.4-0.2,6.6c-0.1,2.2-0.3,4.3-0.4,6.5c-0.1,2.4,0,4.8-0.1,7.2c-0.1,1.4-0.3,2.9-0.4,4.3c-0.1,0.9-0.1,1.8,0.1,2.7
		c0.2,1.3-0.4,2.5-1.7,2.8c-1.2,0.3-2.1-0.5-2.1-1.8c0.1-1.8,0.1-3.5,0.2-5.3c0.2-2.3,0.6-4.6,0.8-7c0.1-0.9-0.2-1.8-0.2-2.7
		c0-1.7,0.1-3.4,0.1-5.1c0-2.7,0-5.4,0-8.2c0-0.8,0.1-1.6,0.1-2.4c0-1.2,0-2.4,0-3.6c0-1.4-0.2-3,0.2-4.3c0.8-3.1,0.3-6.3,0.4-9.4
		c0.1-1.4,0.3-2.9,0.6-4.3c0.4-1.8,1-3.5,1.5-5.2c0.3-1,1-1.5,1.9-1.3c1.3,0.3,1.8,1.1,1.5,2.3c-0.2,0.9-0.6,1.7-0.8,2.6
		c-0.4,2.5-0.8,5.1-1.2,7.6c-0.1,0.6-0.2,1.2-0.5,1.7c-0.5,0.8-0.6,1.6-0.3,2.4c0.1,0.3,0.1,0.7,0.2,1
		C400,267.6,399.9,267.7,399.7,267.7z"/>
	<path class="st0" d="M455.2,376.9c-0.6-1.2,0.3-2.2,0.7-3.2c0.8-2.4,1.6-5,3-7c1-1.3,0.8-2.9,1.7-4.1c0.2-0.3,0-0.8,0-1.2
		c0-2.2,0.2-2.5,2.3-2.8c-1.7-1.2-1.6-1.5-1.1-3.6c0.3-1.4,1.2-2.6,1-4.1c0-0.1,0-0.3,0.1-0.3c1.2-1.8,1.1-4.1,1.9-6.1
		c0.3-0.8,0.1-1.7,0.3-2.5c0.5-1.8,1.2-3.6,1.6-5.4c0.2-1.1,0.2-2.3,1.1-3.1c0.3-0.3,0.7-0.5,1.2-0.6c0.6-0.2,0.7,0.6,1,0.7
		c1,0.7,0.7,1.4,0.6,2.2c-0.1,1-0.3,2-0.6,2.9c-0.3,1.3-0.8,2.6-1.1,3.9c-0.4,1.5-0.5,3.1-1.2,4.6c-0.8,1.8-1.1,3.8-1.6,5.7
		c-0.2,1.1-0.3,2.2-0.5,3.2c-0.4,2.1-0.6,1.9-2,2.7c1.7,1.1,0.9,2.7,0.6,4c-0.5,3.1-1.4,6.1-2.2,9.1c-0.3,1.3-0.7,2.5-1.1,3.7
		c-0.1,0.3-0.4,0.5-0.6,0.8c-0.2,0.4-0.4,0.8-0.7,1.2c-0.4,0.4-0.9,1-1.3,1c-1,0-1.4-0.7-1.3-1.8
		C456.2,376.7,455.7,376.8,455.2,376.9L455.2,376.9z"/>
	<path class="st0" d="M400.3,189.7c-0.3,0.6-0.5,1.1-0.8,1.8c0.9-0.6,1.4-1.6,2.5-0.9c0.9,0.6,0.6,1.6,0.8,2.6
		c0.5,2.4-1.3,3.1-2.5,4.2c-0.5,0.5-1.5,0.7-2.2,1.3c-0.2,0.2-0.9,0.2-1.3,0c-2.1-0.8-3.8-2.2-4.6-4.3c-0.3-0.9-0.1-2.3,0.4-3.2
		c0.4-0.6,1.7-0.9,2.6-0.9c0.8-0.1,1.5,0,2.3-0.3C398.4,189.7,399.3,189.8,400.3,189.7z M395.5,193.5c0.9,1.1,1.7,1.8,2.8,1.5
		c0.8-0.2,1.2-1.1,1-2.2C398,193,396.8,193.2,395.5,193.5z"/>
	<path class="st0" d="M400.9,173.3c0,0,0,0.3,0.1,0.5c0.7,1.3,0,2.3-0.7,3.2c-0.7,1-2.5,0.6-2.9-0.6c-0.6-1.7-0.8-3.5-0.4-5.3
		s1.7-2.4,3.1-1.3c0.6,0.5,0.6,1.9,0.9,2.8C401,172.8,400.9,172.9,400.9,173.3z"/>
</g>
</svg>
