<?xml version="1.0" encoding="utf-8"?>
<!-- Generator: Adobe Illustrator 25.3.1, SVG Export Plug-In . SVG Version: 6.00 Build 0)  -->
<svg version="1.1" id="レイヤー_1" xmlns="http://www.w3.org/2000/svg" xmlns:xlink="http://www.w3.org/1999/xlink" x="0px"
	 y="0px" viewBox="0 0 447.4 249.8" style="enable-background:new 0 0 447.4 249.8;" xml:space="preserve">
<style type="text/css">
	.st0{fill:#FFFFFF;}
	.st1{fill:#7A6150;}
	.st2{fill:#FDE8C4;}
	.st3{fill:#C7E7F5;}
	.st4{fill:#C7E89D;}
	.st5{fill:#FFC5C1;}
	.st6{fill:#FFDF68;}
	.st7{fill:#FFEBE7;}
	.st8{fill:#F2E2F1;}
	.st9{fill:#F1EBE3;}
	.st10{fill:#FFEFDA;}
</style>
<g>
	<path class="st0" d="M343.5,129.5l-1,41.5c0,0,13,62.8,14.5,63.3c1.6,0.5,28.5,1,28.5,1s7.8-54.5,8.3-57.6c0.5-3.1,1-54.5,1-56
		c0-1.6,9.9-9.9,9.9-9.9s2.7-6,0.3-12.6s-5.5-23.2-11.7-25.8c-6.2-2.6-21.8-13-23.9-12.5c-2.1,0.5-21.8,12.5-21.8,12.5l-6.7,32.7
		L343.5,129.5z"/>
	<path class="st0" d="M208.9,77.6c0,0,17,49,19.7,55.4c2.8,6.4,10.2,23.9,10.2,23.9l55.9-20.6L279.4,99L266,62.5
		c0,0-34.4,7.5-35.3,8C229.9,70.9,208.9,77.6,208.9,77.6z"/>
	<path class="st0" d="M83.1,67.3c0,0-9.3,2.1-9.3,10.9s-0.3,16.4-0.3,16.4s-6.3,3.6-2.5,8.7c3.8,5.1,13.4,7.8,13.4,7.8
		s3.3,6.1,5.9,8.7s5.2,4.7,5.2,4.7s0.3,5.6-1.9,9.3s-14.4,6.8-14.4,6.8s-28.3,48.2-28.8,51.3c-0.5,3.1-6.8,1.5-9.4,0.2
		c-2.6-1.3-3.7-4.1-9.9-1.9s-8.3,3.2-11.9,4.8s-11.9,1.8-5.7,5.6c6.2,3.8,12.3,4,12.3,4s-6,6-7.6,11.2s-2,9.4,1.1,8.8
		c3.1-0.5,1.6,4,6,4.3c4.4,0.3,7-1.7,7-1.7s1,6.7,4.7,4.7s3.6-4.7,3.6-4.7s0.3,4.4,4.3,3.5c4-0.9,4.5-7.6,5-10.7
		c0.5-3.1,8.7-12.4,9.8-15.5c1.1-3.2,14.6-23.4,14.6-23.4l55,8.3l10.2-1l17.1,21c0,0,2.9,19.2,4.7,21.6c1.8,2.4,5.9,0.9,6.4-3.3
		c0.5-4.2,4,0.3,6.4,1.2c2.4,0.9,3.4-1.7,3.4-1.7s5.4,6.3,7.1,1.9c1.7-4.4,3.3-3.9,3.3-3.9s7.3,2.3,6.5-3s-8.1-18.8-8.1-18.8
		s10.9-0.9,11.7-3.8c0.8-2.9-1.3-2.9-6-4.5s-13.5-3.6-17.1-3.1c-3.6,0.5-6.1,2.6-6.1,2.6l-8.7-11.5c-2.3-6.7-12.7-33.6-18.4-36.2
		c-5.7-2.6-17-8.3-17-8.3s-13-1.2-12.5-4.7c0.5-3.6,1-9.8,1-9.8s8.8-8.8,10.9-10.9c2.1-2.1,7.9-0.6,9.1-2.9s1-5.8,2.1-9
		c1.2-3.2-3-7.3-3-7.3s-1.6-28-3.1-30.6c-1.5-2.6-33.7-0.6-33.7-0.6L83.1,67.3z"/>
	<g>
		<path class="st1" d="M246.6,24c-1-0.1-1.9-0.2-3-0.3c-0.6,0.4-1,1.4-0.5,2.3c0.1,0.2,0.5,0.3,0.8,0.3c1.5,0.3,1.5,0.3,1.9,1.8
			c0.1,0.6,0.3,1.2,0.5,1.7c0.4,0.9,0.5,1.8-0.1,2.7c-0.1,0.2-0.1,0.4-0.1,0.6c-0.1,1.2-1.2,1.8-2.2,1.2c-0.6-0.4-1.1-1-1.5-1.6
			c-0.1-0.1,0.1-0.6,0.3-0.8c0.1-0.2,0.4-0.2,0.4-0.4c0.3-0.6-0.4-2.6-1.1-3.2c0,0.3,0,0.5,0.1,0.7c0.7,1.8-0.2,3.2-1,4.6
			c-0.1,0.2-0.4,0.3-0.6,0.3c-0.7-0.1-1.9-1.6-1.8-2.4c0.2-0.9,0.5-1.8,0.6-2.8c0.2-0.9,0.2-1.9,0.3-2.8c0.1-0.6,0.1-1.2,0.2-1.9
			c-0.3,0-0.7-0.1-1.2,0c-1.1,0.1-2-0.6-2.1-1.5c0-1.2,0.8-2,2-1.9c1.4,0.1,2.9-0.4,4.3,0.2c0.3,0.1,0.7,0.2,1.1,0.4
			c0.1-0.1,0.3-0.2,0.4-0.3c0.3-0.4,1.2,0,1.1-0.9c-0.1-0.5-0.1-1,0-1.5c0-0.3,0.2-0.6,0.4-0.7c1.3-0.6,2.6,0.2,2.7,1.5
			c0.1,1,0.8,1.4,2.1,1.3c0.2,0,0.5-0.1,0.7-0.2c0.5-0.2,1.9,0.3,2.1,0.8c0.1,0.2-0.1,0.5-0.2,0.6c-0.9,0.6-1.7,1.1-2.8,1.7
			c0.8,1.4,1.6,2.7,2.3,3.8c0.5-0.6,1-1.5,1.7-2.3c0.8-0.8,1.9-0.5,2.1,0.6c0.2,1.1,0.1,2.2-0.5,3.2c-0.3,0.5-0.5,1.1-0.7,1.7
			c0,0.2,0.3,0.5,0.5,0.8c0.5,0.5,1.1,0.9,1.4,1.5c0.2,0.4,0.1,1.2-0.2,1.6c-0.2,0.3-0.9,0.4-1.4,0.3c-0.8-0.1-1.6-0.4-2.4-0.7
			c-0.4,0.7-0.7,1.5-1.3,2.1c-0.4,0.4-1.1,0.6-1.6,0.6c-0.8,0-1.4-0.6-1.5-1.4c0-0.5,0.3-1.1,0.6-1.5c0.5-0.6,1.2-0.9,1.6-1.5
			c0.2-0.2,0.1-0.9-0.1-1.2c-0.6-0.9-1.3-1.7-1.8-2.6c-0.4-0.6-0.6-1.3-1-1.9C247.6,25.7,247,24.8,246.6,24z"/>
		<path class="st1" d="M225.6,18c1.3,0.1,2.5,0,3.6,0.3c1.1,0.3,2,1,3,1.5c0.1,0,0.2,0.2,0.2,0.3c0,1.2,0,2.5,0,3.7
			c0,0.1-0.1,0.3-0.1,0.4c-0.3,1.3-1.2,1.8-2.3,1.3c-0.1-1.3-0.2-2.5-0.5-3.6c-0.2-0.9-1.1-1.2-2.1-0.9c-0.6,0.1-1.3,0-1.9,0.1
			c-1.5,0.2-3,0.4-4.4,0.6c-0.6,0.1-1.2,0.3-1.8,0.5c-0.3,0.1-0.6,0.5-0.6,0.7c0,1-0.6,1.5-1.4,1.7c-0.4,0.1-1,0-1.3-0.3
			c-0.2-0.2-0.2-0.8-0.1-1.3c0.1-0.7,0.3-1.4,0.5-2.1c0.3-1.2,1-1.7,2.2-1.8c1.3-0.1,2.6-0.1,3.9-0.3c1.5-0.2,1.9-0.9,1-2.1
			c-0.9-1.3,0.4-2.3,0.7-3.4c0.1-0.4,1-0.7,1.6-0.8c0.3-0.1,0.8,0.2,1,0.5c0.1,0.1-0.2,0.6-0.3,0.9c-0.1,0.3-0.2,0.6-0.2,0.8
			c0.2,0.9,0.2,1.8-0.5,2.5C225.8,17.5,225.7,17.6,225.6,18z"/>
		<path class="st1" d="M220.2,38c-0.9-0.5-1.7-1.2-1.2-2.3c0.4-0.9,0.4-2.3,1.9-2.2c-0.1-0.5-0.1-0.9-0.2-1.4
			c-0.9,0.4-2.7-0.2-3.1-1c-0.1-0.3-0.1-0.9,0.1-1.1c0.6-0.4,1.4-0.8,2.1-1c1-0.2,2.1,0,3-0.7c0.3-0.2,0.8-0.2,1.1-0.2
			c0.7,0,1.5,0.1,2.2,0c0.7,0,1.4-0.1,2.1-0.2c0.5,1.3,0.3,1.6-1.5,2.5c1.1,0.9,1.7,2.4,3.3,2.7c0.7,0.1,1.4,0.3,2.1,0.6
			c0.4,0.2,0.6,0.7,1,1.1c-1.7,0.2-3,1.6-5,0.9c-1.8-0.7-3.2-1.5-4.1-3.3c-0.5,0.6-1,1.1-1.5,1.6c-0.1,0.1-0.1,0.2-0.1,0.2
			C223.1,36.7,221.5,37.3,220.2,38z"/>
		<path class="st1" d="M267.7,15.7c1.4,0,2.2,1,2,2.1c-0.2,1.4-0.3,2.8-0.5,4.2c-0.1,0.7-0.1,1.4-0.2,2.1c-0.1,0.7-0.5,1.2-1.3,1.1
			c-0.8,0-1.6-0.6-1.7-1.4c-0.3-2.6-0.2-5.3,1.1-7.6C267.3,16,267.6,15.8,267.7,15.7z"/>
		<path class="st1" d="M222.3,27.9c-0.9-0.1-1.6-0.3-2.4-0.4c-0.6-0.1-0.9-0.4-0.9-1.1c0-0.7,0.1-1.3,0.8-1.5c0.9-0.3,1.8-1,2.8-0.6
			c0.1,0,0.4,0.1,0.4,0c1.1-0.9,2-0.1,2.9,0.4c0.9,0.4,0.9,1.7,0,2.1C224.8,27.3,223.5,27.6,222.3,27.9z"/>
		<path class="st1" d="M256.1,17.5c-1.2-0.1-1.9-0.8-2.6-1.3c-0.2-0.2-0.3-0.4-0.6-0.6c-0.6-0.5-0.7-1.1-0.1-1.5
			c0.6-0.4,1.4-0.7,2.1-0.6c0.4,0,0.8,0.7,1.2,1.2c0.2,0.3,0.4,0.6,0.6,0.9c0.2,0.4,0.6,0.9,0.5,1.2
			C257.1,17.1,256.5,17.2,256.1,17.5z"/>
		<path class="st1" d="M268.2,32.2c-0.1,1.2-0.8,1.8-2.1,1.7c-1.1,0-1.9-0.8-1.9-1.8c0-0.9,1.4-1.8,2.5-1.8
			C267.7,30.5,268.2,31.2,268.2,32.2z"/>
	</g>
	<g>
		<path class="st2" d="M234,151.5c1.1-1.1,47.7-35.9,47.7-35.9l7.3,2.9l13.6,26.5L285,153c0,0-24.9,7.3-28.2,7.3
			c-3.3,0-17.7,1.2-17.7,1.2L234,151.5z"/>
		<path class="st3" d="M210.6,78.2c0,1.1,3.7,16.5,3.7,16.5s6.2-2.1,9.7-0.3c3.5,1.8,4.1,5.7,4.1,5.7l6,7.1l2.7,4.8l-0.1,2.9l1.5,3
			l27.1-15.1c0,0-2-5.2-3.2-8.8c-1.2-3.6-2.6-6.7-2.6-6.7s-3-2.4-2.7-6.1c0.4-3.7,3.3-6.2,3.3-6.2s1.1-3.7,3.3-4.4
			c2.2-0.7,8.4,1.1,8.4,1.1l2.2,0.7l-3.3-8.8c0,0-7-0.7-9.2,0.4C259.3,65,210.6,78.2,210.6,78.2z"/>
		<path class="st4" d="M226.7,130.6c0,0,4.4,4.4,6.6,0.5c2.2-3.8,1.1-8.2,2.6-11.5c1.5-3.3,0.4-8.4-1.8-11c-2.2-2.6-4.9-5.4-5.6-8
			c-0.7-2.6-0.3-7.4-4-7.4c-3.7,0-8.8,2.7-8.8,2.7s2.6,9.5,3.3,12.8C219.7,111.9,226.7,130.6,226.7,130.6z"/>
		<path class="st4" d="M262.3,69.7l-2.8,5.9c0,0-6.8,3.4-2.2,9.2c4.7,5.8,3.7,6.6,4.4,10.1c0.6,3.4,3.9,7.1,6.1,7.5s4,4,4,4
			s-2.2,7,0,9.2c2.2,2.2,5.1,4,5.9,5.5c0.7,1.5,1.5,2.9,4.8,3.3s7.3-2.6,7.3-2.6s-11.1-21.5-12.2-27.3c-1-5.8-5.1-21.2-5.1-21.2
			S271.1,64.6,262.3,69.7z"/>
		<path class="st0" d="M212.8,89.5c0,0,5.5,2.6,9.2-1.1c3.7-3.7,5.8-2.8,8.8-6.5c2.9-3.8,3.7-9.8,3.7-9.8l-23.9,6L212.8,89.5z"/>
		<path class="st0" d="M256.3,78.3c0,0-8.7-0.5-10.2,2.8c-1.5,3.3,0.7,4,5.1,3.7c4.4-0.4,7.1,0.8,7.1,0.8L256.3,78.3z"/>
		<path class="st0" d="M245.4,100.3c0,0-1.6-5.5,0.9-7.1s3.9,0.3,5,3.6c1.1,3.3,1.1,5.9,1.1,5.9L245.4,100.3z"/>
		<path class="st5" d="M251.5,99.5l-4.3,1.3l-5.5,16.3l6.4-6.1c0,0,2.8,7.6,2.8,11.2c0,3.7,1.1,11.7,1.1,11.7l10.3-2.5l4.8-2.2
			l-9.1-17.6l4.7,1.8l1.5-2.6c0,0-4.2-5.3-6.5-6.7S251.5,99.5,251.5,99.5z"/>
		<g>
			<path class="st1" d="M270.4,60.9c0.8,0.6,1.5,1,2.1,1.7c0.3,0.3,0.3,1,0.4,1.4c0.7,2.3,1.3,4.6,2,7c0.4,1.4,0.9,2.7,1.3,4.1
				c0.2,0.8,0.4,1.7,0.6,2.6c0.3,1,0.6,2.1,0.9,3.1c0,0,0,0.1,0,0.1c-0.3,1.6,0.8,2.8,1.1,4.3c0.2,1.5,0.9,2.8,1.3,4.3
				c0.2,0.7,0.3,1.4,0.5,2c0.3,1,1.1,1.9,0.7,3c0,0,0,0.1,0.1,0.2c0.7,1.6,1.5,3.2,2.2,4.9c0,0,0,0.1,0,0.1c0.4,1.4,0.8,2.8,1,4.2
				c0.1,0.6-0.2,1.4-0.3,1.9c0.5,0.4,1.1,0.7,1.5,1.3c0.4,0.6,0.6,1.3,0.9,1.9c0.1,0.2,0,0.4,0.1,0.5c0.3,0.8,0.6,1.6,1,2.3
				c0.7,1.4,1.4,2.8,2,4.2c0.9,1.9,1.7,3.8,2.6,5.7c0.6,1.2,1.2,2.3,1.8,3.4c0.5,1,1,2,1.5,3c0.2,0.4,0.6,0.8,0.9,1.3
				c0.9,1.5,1.6,3.2,2.7,4.6c0.5,0.7,0.5,1.5,1,2c0.2,0.2,0.5,0.4,0.7,0.6c0.1,0.2,0.3,0.6,0.2,0.7c-0.2,0.5-0.6,0.9-0.8,1.2
				c0.4,0.6,0.7,1.2,1.1,1.8c0.1,0.1,0.1,0.3,0.2,0.3c1.1,0.3,1,1.3,1.1,2c0.1,0.8-0.1,1.6-0.2,2.4c-0.1,0.8-0.6,1-1.3,0.6
				c-0.6-0.4-1.2-0.1-1.6,0.5c-0.3,0.4-0.7,0.8-1.1,1.1c-0.4,0.3-0.8,0.4-1.2,0.6c-0.9,0.5-1.7,1.1-2.6,1.6
				c-1.7,0.9-3.4,1.8-5.1,2.7c-0.1,0.1-0.2,0.2-0.3,0.2c-2.3,0.5-4,2.1-6.3,2.6c-1,0.2-1.9,0.8-2.8,1.3c-1,0.5-2,1-3.3,1.1
				c-1.1,0-2.1,0.6-3.1,0.9c-2,0.5-4.1,1-6.3,1.1c-0.7,0-1.3,0.5-2,0.7c-0.4,0.1-0.9,0.1-1.4,0.1c-0.8,0-1.5-0.2-2.2,0.4
				c-0.2,0.2-0.8,0.1-1.1,0.1c-0.9,0.1-1.7,0.2-2.6,0.3c-1.9,0.2-3.8,0.3-5.7,0.4c-2.5,0.2-5,0.5-7.5,0.6c-0.9,0.1-1.8-0.1-2.8-0.2
				c-0.5,0-0.9-0.1-1.3-0.2c-0.1,0.5-0.2,0.8-0.3,1.1c-0.4-0.2-0.9-0.3-1.3-0.5c-0.2-0.1-0.3-0.5-0.4-0.7c-0.3-0.5-0.6-1-1-1.5
				c-0.2-0.4-0.3-0.9-0.6-1.1c-1.2-0.9-1.2-2.3-1.2-3.6c-0.1,0-0.1,0.1-0.2,0.1c-0.3-0.5-0.7-1-1-1.5c-0.1-0.1,0-0.3-0.1-0.4
				c-0.7-1.2-1.5-2.4-2.2-3.6c-1.2-2.5-2.4-5-3.5-7.5c-0.3-0.6-0.4-1.3-0.6-2c0-0.1-0.1-0.3-0.2-0.4c-0.5-0.8-1-1.7-1.5-2.5
				c-0.4-0.7-0.8-1.3-1.1-2.1c-0.3-0.8-0.4-1.8-0.6-2.6c-0.1-0.3-0.3-0.7-0.4-1c-0.4-0.7-0.8-1.5-1.1-2.2c-0.4-0.9-0.8-1.9-1.2-2.8
				c-0.1-0.2-0.2-0.4-0.3-0.7c-0.2-0.7-0.4-1.3-0.6-2c-0.3-0.9-0.7-1.8-0.9-2.8c-0.2-0.8-0.3-1.7-1-2.3c-0.2-0.2-0.2-0.7-0.3-1
				c-0.1-0.5-0.1-1.2-0.4-1.5c-0.9-0.9-0.9-2.1-1.3-3.1c-0.2-0.5-0.4-1-0.5-1.4c-0.6-1.6-1.3-3.2-1.6-5c-0.2-1.4-0.9-2.8-1.3-4.1
				c-0.7-2.1-1.3-4.3-1.9-6.4c-0.3-1-0.6-2-0.8-3c-0.3-1.2-0.5-2.5-0.8-3.7c-0.2-1-0.6-1.9-0.9-2.9c-0.1-0.4,0-0.9-0.1-1.4
				c-0.2-0.9-0.4-1.8-0.8-2.7c-0.4-1-0.5-2.1-0.3-3.2c0.1-0.2,0-0.4,0-0.7c0-0.5,0.1-1,0.1-1.4c0-0.1,0.2-0.3,0.2-0.4
				c-0.6-1,0.1-1.6,0.7-2.3c0.3,0.2,0.9,0.3,1,0.5c0.5,1.1,1.2,0.4,1.8,0.3c1.1-0.2,2.1-0.6,3.2-0.9c0.2-0.1,0.4-0.2,0.6-0.3
				c0.8-0.2,1.5-0.4,2.3-0.6c0.5-0.2,1-0.4,1.4-0.6c0.7-0.2,1.5-0.3,2.3-0.5c0.4-0.1,0.8-0.3,1.1-0.4c0.4-0.1,0.7-0.2,1.1-0.4
				c0.6-0.2,1.2-0.5,1.8-0.6c0.5-0.2,1.1-0.3,1.6-0.4c0.9-0.2,1.8-0.4,2.7-0.6c0.2,0,0.4-0.1,0.5-0.2c0.6-0.7,1.3-0.6,1.6-0.4
				c1.1-0.3,1.9-0.6,2.8-0.8c0.6-0.1,1.2-0.3,1.8-0.6c0.7-0.4,1.6-0.3,2.4-0.6c1.4-0.6,3-0.3,4.3-1.3c0.6-0.4,1.7-0.2,2.5-0.3
				c0.2,0,0.5,0.1,0.6,0c0.8-1.1,2-0.8,3-0.9c0.9-0.1,2.1,0.2,2.7-0.3c1-0.7,2.3-0.1,3.1-1.2c0.3-0.4,1.2-0.3,1.8-0.4
				c0.6-0.1,1.2-0.1,1.8-0.2c0.8-0.2,1.6-0.4,2.4-0.5c0.4-0.1,0.8,0.1,1.2,0.1c0.3,0,0.6-0.2,1-0.2c0.6,0,1.2-0.1,1.7,0
				c0.2,0,0.5,0.6,0.4,0.8c-0.1,0.3-0.5,0.6-0.8,0.6c-0.6,0.1-1.2,0.1-1.6,0.6c-0.1,0.1-0.3,0.2-0.4,0.2c-0.8-0.2-1.4,0-1.9,0.7
				c0,0,0,0-0.1,0c-0.9,0-1.8,0-2.7,0.1c-0.4,0-0.7,0.1-1.1,0.2c-0.6,0.2-1.1,0.6-1.7,0.6c-1.2,0-2.2,0.3-3.3,0.9
				c-0.5,0.3-1.2,0.3-1.7,0.5c-0.8,0.3-1.5,0.6-2.3,0.9c-0.1,0-0.3,0.1-0.4,0.1c-1.1-0.4-1.8,0.5-2.7,0.7c-0.5,0.1-1.1,0.2-1.7,0.3
				c-1.2,0.2-2.3,0.9-3.6,1c-1.4,0.1-2.7,0.8-4.1,1.1c-0.7,0.2-1.4,0.2-2.1,0.4c-0.3,0.1-0.7,0.2-1,0.4c-0.7,0.4-1.3,1.1-2,1.1
				c-1.1,0.1-2.2,0.7-3.1,0.6c-1.3-0.1-2.2,0.7-3.3,1c-1.2,0.3-2.3,0.9-3.4,1.1c-0.9,0.2-1.8,0.1-2.8,0.7c-1.1,0.7-2.7,0.6-4.1,0.9
				c-0.3,0.1-0.7,0.2-1,0.3c-0.3,0.1-0.7,0.3-1,0.3c-1.1,0.2-1.4,0.7-1.1,1.7c0.3,1.5,0.4,3,0.7,4.7c0.5,0.3,0.8,1,0.9,2
				c0,0.9,0.5,1.7,0.7,2.5c0.3,1.2,0.5,2.5,0.9,3.7c0.2,0.9,0.6,1.8,0.9,2.7c0.3,0.9,0.6,1.8,0.9,2.7c0.5,1.8,0.9,3.6,1.8,5.3
				c0.5,0.9,0.5,2,0.9,2.9c0.4,1.3,0.9,2.6,1.4,3.8c0.3,0.8,0.4,1.6,0.7,2.3c0.3,0.9,0.6,1.7,0.8,2.6c0.5,2.3,1.7,4.3,2.5,6.5
				c0.4,1,0.6,2,1,3c0.1,0.3,0.3,0.5,0.4,0.9c0.1-0.4,0-0.8,0.2-0.9c0.3-0.1,0.7,0,1-0.1c1.5-0.2,2.3,1.1,3.5,1.6
				c0.9,0.4,1.6,1.2,2.5,1.8c-0.1-0.4-0.2-0.7-0.3-1.1c-0.4-1-0.9-2.1-1.2-3.1c-0.1-0.4,0.3-1,0.4-1.5c-1.6,0.2-1.6-1.2-2.1-2.2
				c-0.3-0.5-0.5-0.9-0.7-1.4c-0.1-0.4-0.1-0.9-0.1-1.1c-0.5-1.2-1-2.2-1.4-3.3c-0.2-0.5-0.2-1.1-0.5-1.5c-0.5-0.7-0.4-1.1,0.3-1.5
				c0.4-0.2,0.7-0.4,0.9-0.6c0.4,0.5,0.7,0.9,0.9,1.2c0.1,0.2,0.2,0.4,0.2,0.6c0.1,0.4,0.1,1,0.3,1.3c0.6,0.7,1,1.4,0.3,2.4
				c1.2,0.1,1.9,0.4,1.4,1.7c-0.1,0.2,0.1,0.6,0.3,0.7c1.1,0.7,0.4,1.9,1.1,2.8c1.2,0.1,1.1,0.1,1.4-1.3c0.1-0.8,0.7-1.4,1.1-2.1
				c0.1-0.2,0.3-0.5,0.2-0.6c-0.4-0.7-0.1-1.7-1.2-1.9c-0.1,0-0.1-0.1-0.1-0.1c-0.1-0.8-0.3-1.6-0.4-2.4c-0.1-0.6,0-1.1,0-1.7
				c0-0.4,0-0.9-0.2-1.2c-0.8-1.1-0.9-2.5-1.3-3.8c-0.1-0.2-0.4-0.4-0.6-0.5c-0.2-0.1-0.6-0.1-0.6-0.2c-0.4-1.6-1.9-2.1-2.8-3.2
				c-0.2-0.2-0.2-0.5-0.2-0.8c0-0.5,0.1-1,0-1.5c0-0.2-0.3-0.5-0.5-0.6c-1-0.1-1.5-0.8-1.9-1.5c-0.2-0.4,0-1.1,0.1-1.6
				c-0.1-0.5-0.1-0.9-0.2-1.3c0-0.2-0.2-0.4-0.4-0.5c-0.6-0.3-1.1-0.6-1.7-0.7c-0.6-0.1-1.3,0.1-1.9,0.1c-0.9,0.1-1.8,0.3-2.7,0.4
				c-0.3,0-0.6-0.2-1-0.3c0.8-0.7,1.4-1.4,2.1-2c0.2-0.2,0.6-0.1,0.9-0.2c0.6-0.1,1.3-0.2,1.9-0.2c0.7,0,1.6-0.6,2.2,0.4
				c0,0,0.1,0,0.1,0c1.7-0.5,1.6,1.6,2.8,2c0.3,0.1,0.2,1.2,0.2,1.9c0,0.7,0,1.3,0.8,1.8c0.5,0.3,0.9,0.7,1.2,1.2
				c0.1,0.2,0.2,0.5,0.1,0.7c-0.2,1,0.1,1.5,1,2c0.6,0.3,1,0.9,1.6,1.3c1.1,1,1.9,2.3,2.5,3.6c0.3,0.7,0.5,1.3,0.9,2
				c0.2,0.3-0.1,0.8,0,1.2c0.1,0.5,0.1,1,0.2,1.5c0.2,1-0.2,2.2,0.8,3c0.8,0.6,0.9,1.9,0.5,2.9c-0.1,0.4-0.1,0.9,0,1.3
				c0.2,0.8,0.3,1.3-0.5,1.9c-0.5,0.3-0.6,1.1-0.9,1.7c-0.2,0.2-0.5,0.6-0.7,0.5c-0.8-0.1-1.1,0.4-1.4,0.9c0.1,0.3,0.4,0.5,0.4,0.8
				c0,1.3,0.7,2.2,1.3,3.3c0.2,0.4,0.2,1,0.4,1.5c0.1,0.6,0,1.2,0.7,1.6c0.1,0.1,0.2,0.4,0.2,0.6c0.1,0.2,0,0.5,0.1,0.6
				c0.9,0.8,0.7,1.9,1,2.9c0.2,0.7,0.7,1.3,1,1.9c0.2,0.4,0.3,0.8,0.5,1.3c0.8,0.1,0.9,0.3,0.6,1.3c-0.1,0.2,0.1,0.6,0.2,0.8
				c0.6,0.6,0.9,1.5,0.4,2.7c-0.7-0.6-1.3-1.2-1.9-1.7c-0.3-0.3-0.7-0.5-0.8-0.8c-0.2-0.4-0.2-0.9-0.1-1.4c-0.5-0.3-1-0.5-1.4-0.9
				c-0.2-0.2-0.3-0.7-0.2-1c0.2-0.7,0-1-0.6-1.1c-0.2,0-0.4-0.2-0.4-0.3c0.1-1.4-1.5-2.4-1.1-3.9c0.1-0.5-1-1.1-1.6-1
				c-0.2,0-0.5,0-0.6-0.1c-0.7-0.4-1.4-0.9-2.1-1.4c-0.9-0.7-1.7-1.4-2.5-2.1c-0.4-0.3-0.8-0.6-1.3-0.8c-0.1,0.1-0.2,0.2-0.3,0.3
				c0.2,0.6,0.4,1.2,0.6,1.8c0.1,0.2,0.4,0.4,0.4,0.7c0,1.3,0.8,2.3,1.2,3.4c0.3,0.7,0.7,1.4,1,2.1c0.5,1.3,0.9,2.5,1.5,3.8
				c0.2,0.5,0.5,1,0.8,1.5c0.5,1,0.9,2.1,1.4,3.1c0.6,1.4,1.2,2.8,1.8,4.2c0.2,0.4,0.1,1,0.3,1.4c0.5,1.3,1,2.5,1.5,3.8
				c0.2,0.5,0.2,1,0.3,1.7c0.1,0.1,0.4,0.3,0.5,0.5c0.3,0.7,0.5,1.3,1.2,1.7c0.8,0.5,0.2,1-0.2,1.5c1.5,0.7,2.9,0.5,4.4,0.3
				c1.2-0.2,2.5-0.1,3.8-0.2c2.1-0.1,4.1-0.2,6.1-0.7c0.4-0.1,0.8,0.1,1.2,0.1c0.2,0,0.4,0.1,0.4,0.1c1.1-0.8,2.3-0.2,3.4-0.4
				c1.1-0.2,2.2-0.1,3.2-0.1c0.3,0,0.6,0,0.9-0.1c2.1-0.8,4.3-0.8,6.4-1.1c0.2,0,0.4-0.1,0.6-0.2c1.1-0.4,2.3-0.8,3.4-1.1
				c0.9-0.2,1.8-0.2,2.7-0.4c0.7-0.2,1.4-0.4,2.1-0.7c1.4-0.5,2.8-1.1,4.2-1.6c0.1-0.1,0.3,0,0.4-0.1c1.3-1.1,3-1.5,4.6-2
				c0.4-0.1,0.8-0.6,1.2-0.8c0.5-0.3,1.1-0.4,1.6-0.6c0.3-0.1,0.6-0.4,0.9-0.5c0.5-0.3,1-0.5,1.5-0.8c0.4-0.2,0.8-0.2,1.2-0.5
				c1.7-1,3.3-2,4.9-3c1.2-0.7,1.4-1.9,0.7-3.1c-0.3-0.6-0.6-1.2-0.7-1.9c-0.1-0.8,0.4-1.4,1.3-1.6c-0.2-0.3-0.4-0.6-0.5-0.6
				c-1,0.1-1-0.7-1.3-1.2c-0.6-0.8-1.3-1.5-2-2.3c-0.6-0.8-1.2-1.6-1.7-2.4c-0.6-1-1.3-1.9-1.9-2.9c-0.3-0.5-0.5-1-0.7-1.5
				c-0.8-1.4-1.6-2.7-2.3-4.1c-1-1.9-2-3.8-2.7-5.8c-0.4-1.1-0.7-2.3-1.6-3.2c-0.1-0.1-0.1-0.5-0.2-0.7c-0.3-0.9-0.6-1.8-0.9-2.7
				c-0.5-1.2-1-2.3,0-3.5c0.1-0.1,0-0.3,0-0.6c-0.2,0.1-0.4,0.2-0.7,0.3c-1-0.8-1.5-1.8-1.8-3.1c-0.3-1.3-1.1-2.5-1.5-3.8
				c-0.3-1-0.4-2-0.5-3c0-0.2,0-0.5-0.1-0.7c-0.4-0.8-1-1.6-1.3-2.4c-0.3-0.8-0.3-1.7-0.5-2.5c-0.1-0.5-0.2-1-0.4-1.4
				c-0.9-1.5-0.7-3.3-1.2-4.9c-0.3-1-0.7-2.1-1.1-3.1c-0.1-0.3-0.4-0.7-0.4-1c0-1.9-0.7-3.5-1.4-5.2c-0.1-0.2-0.1-0.3-0.1-0.5
				c-0.3-1.8-0.4-3.6-0.8-5.4c-0.5-1.9-1.3-3.7-1.9-5.5c-0.1-0.4,0-0.8,0.1-1.2C269.8,61.7,270,61.5,270.4,60.9z"/>
			<path class="st1" d="M252.8,130.5c1.3,0,2.5,0,3.6,0c0.1,0,0.2,0.1,0.3,0c1.5-1.1,3.5,0.3,4.9-1.2c0.3-0.3,0.9-0.3,1.4-0.4
				c1.2-0.3,2.3-0.6,3.4-0.8c-0.8-0.8-1.6-1.6-2.4-2.4c-0.2-0.2-0.3-0.6-0.5-0.9c-0.2-0.3-0.4-0.6-0.6-0.8c-0.1-0.1-0.3-0.2-0.3-0.3
				c-0.8-1.5-1.7-2.9-2.5-4.4c0-0.1-0.1-0.1-0.1-0.1c-1.4-0.8-1.3-2.4-1.9-3.7c-0.2-0.4-0.6-0.8-0.9-1.1c-0.8-0.8-0.8-2.2-0.1-2.8
				c-0.3-0.6-0.6-1.2-0.9-1.8c1.3-0.1,1.9,0.7,1.8,1.8c0.8,0.8,1.5,1.5,2.2,2.2c0.1,0.1,0.2,0.3,0.3,0.4c0.8-0.8,1.7-1.6,2.5-2.4
				c-0.1-0.2-0.2-0.4-0.4-0.5c-0.5-0.2-1-0.4-1.4-0.7c-0.6-0.4-1.2-0.8-1.8-1.2c-0.2-0.1-0.5-0.4-0.7-0.4c-1.3,0.1-1.6-0.9-2-1.8
				c-0.1-0.2-0.2-0.4-0.4-0.6c-1.2-1.2-2.3-2.3-3.5-3.4c-0.1-0.1-0.2-0.3-0.3-0.5c-0.3-0.4-0.6-0.9-1.1-1.3
				c-0.8-0.6-0.9-1.8-0.2-2.4c-0.1-0.4-0.1-0.8-0.3-1.1c-0.4-0.8-0.3-1.8-1.1-2.5c-0.4-0.4-0.7-1-1.1-1.4c-0.2-0.2-0.5-0.3-0.7-0.5
				c-0.3-0.2-0.7-0.3-1-0.4c-0.2-0.1-0.5-0.1-0.6,0c-0.7,0.7-1.3,1.5-1.9,2.2c0.9,1.2,1.2,2.7,2.6,3.1c0.4-0.2,0.9-0.6,1.1-0.5
				c0.6,0.3,1,0.8,1.5,1.3c0.1,0.1,0,0.7-0.1,0.8c-0.7,0.3-1.4,0.4-2.2,0.7c0-0.1,0,0,0,0c0.7,1.5-0.1,2.7-0.7,3.9
				c0,0.1-0.1,0.1-0.1,0.2c0.5,1.7-1.4,2.8-1.2,4.5c0.1,0.5-0.5,1.1-0.7,1.7c-0.2,0.6-0.4,1.2-0.7,1.8c-0.1,0.2-0.3,0.4-0.4,0.6
				c-0.2,0.4-0.7,0.9-0.6,1.3c0.2,0.7-0.2,0.9-0.7,1.1c-0.6,0.3-0.7,0.7-0.4,1.2c0.4,0.6,0.8,1.1,1.4,1.9c-0.5,0.4-1.1,1.1-1.9,1.4
				c-0.4,0.2-1.2-0.3-1.6-0.8c-0.2-0.3-0.1-1,0.1-1.5c0.2-0.4,0.6-0.6,1-1c-0.2-0.8-0.6-1.5,0.1-2.3c0.3-0.3,0.3-0.9,0.4-1.4
				c0.2-0.9,0.5-1.9,0.8-2.8c0.1-0.3,0.3-0.5,0.2-0.8c-0.1-0.7,0.2-1.1,0.6-1.7c0.5-0.8,0.6-1.8,0.8-2.7c0.1-0.3,0.1-0.7,0.3-1
				c0.4-0.6,0.6-1.1,0.5-1.9c-0.1-0.7,0.6-1.4,0.9-2.2c0,0-0.2-0.1-0.5-0.2c-1.1-0.3-1.9-1.1-2-2.2c0-0.2-0.1-0.4-0.2-0.5
				c-1.2-0.7-0.4-1.6-0.3-2.5c0.2-1.1,0.9-1.9,1.6-2.7c0.4-0.4,1.1-0.5,1.7-0.8c0.4-0.2,0.8-0.5,1.2-0.5c0.6,0,1.3,0,1.8,0.2
				c0.7,0.3,1.4,0.7,2.1,1.2c0.4,0.3,0.9,0.6,1,0.9c0.3,0.9,0.5,1.9,0.7,2.9c0.1,0.5,0.3,1,0.3,1.6c0,0.6-0.5,1-0.9,1.4
				c-0.1,0.1-0.2,0.2-0.4,0.3c1,0.4,1.9,0.7,2.8,1.1c0.2,0.1,0.5,0.3,0.7,0.4c0.9,1,1.8,2,2.6,3c1.3,1.9,3.1,3.2,5.1,4.3
				c0.8,0.4,1.7,0.8,2.8,0.4c0.6-0.3,1.3-0.3,1.9-0.8c0.9-0.7,2-0.2,2.2,1.2c0.1,0.8,0.6,1,1.2,1.2c0.1-0.7,0.1-1.4,0.2-2
				c0-0.3,0.1-0.6,0.3-0.8c0.6-0.7,0.3-1.3,0-1.9c-0.2-0.4-0.4-0.9-0.6-1.4c0-0.1,0-0.3,0-0.3c-1.1-0.3-0.7-1.6-1.4-2.1
				c-0.1-0.1-0.2-0.2-0.2-0.3c-0.1-1.3-0.3-2.6-0.4-4c0-0.2,0.2-0.4,0.1-0.5c-0.4-1,0.1-1.8,0.7-2.5c0.2-0.2,0.1-0.6,0.2-0.9
				c0.1-0.3,0.4-0.5,0.6-0.7c0.2-0.2,0.4-0.3,0.6-0.5c0.4-0.3,0.7-0.8,1.3-0.4c0.1,0.1,0.5,0,0.7-0.1c0.5,1.3,0.3,1.6-1.1,2.7
				c-0.7,0.5-1.2,1.3-1.1,2.2c0,0.3,0.1,0.7,0,1c-0.2,0.7,0.1,1.1,0.3,1.7c0.3,0.9,0.5,1.8,1.5,2.3c-0.2,1.4,1.4,1.8,1.6,3
				c0.1,0.5-0.1,1.1-0.2,1.7c-0.1,0.5-0.5,1-0.3,1.5c0.2,0.7,0.1,1.1-0.1,1.8c-0.4,1-0.2,2.2-0.2,3.3c0,0.6,0,1.2,0.3,1.6
				c0.8,1.1,2,1.9,3.2,2.6c0.3,0.2,0.7,0.1,1.1,0.2c1.7,0.4,1.8,1.8,1.9,3.2c0.1,1.3,1.2,2,2.6,1.9c0.6-0.1,1.1,0.1,1.7,0.2
				c0,0.1,0,0.2,0,0.3c-0.9,0.7-1.7,1.3-2.6,2c-0.5,0.4-1.1,0.6-1.6,0c-0.2-0.2-0.5-0.2-0.7-0.3c-0.3-0.2-0.6-0.3-0.8-0.6
				c-0.3-0.4-0.6-0.9-0.8-1.3c-0.1-0.3-0.2-0.6-0.2-0.9c0.1-1.1-0.2-1.8-1.2-2.3c-0.4-0.2-0.9-0.4-1.1-0.8c-0.6-0.8-1.3-0.9-2.1-0.8
				c-0.8,0.1-1.2-0.3-1.4-1c-0.1-0.4-0.3-0.8-0.5-1.4c-0.2,0.3-0.4,0.4-0.4,0.5c-0.4,0.7-0.4,1.7-1.5,1.9c-0.2,0-0.5,0.6-0.6,0.9
				c-0.2,1-1.2,1.4-1.7,2.1c-0.1,0.2-0.5,0.3-0.8,0.4c-0.9,0.2-1.2,0.8-0.6,1.6c0.1,0.2,0.3,0.4,0.5,0.6c1.2,0.9,1,2.2,0.9,3.4
				c0.7,0.1,1.4,0.2,2.1,0.3c0,0.1,0,0.1,0,0.2c-0.2-0.1-0.4-0.1-0.6-0.2c0.2,0.9-0.6,2.1-1.4,2.6c-1,0.6-1.9,1.3-3.1,2.1
				c1.1,0.7,2.2,1.3,3.3,2c0,0,0.1,0,0.2,0c1.4,1.3,3.3,2.2,4.3,3.9c0.4,0.6,0.2,1.6-0.3,2c-0.7,0.5-1.3,0.2-1.8-0.3
				c-0.3-0.2-0.6-0.3-0.9-0.4c-0.3-0.1-0.6-0.2-0.7-0.5c-1-1.6-2.7-2.3-4.2-3.2c-0.1-0.1-0.3-0.1-0.4-0.2c-0.8-1-1.6-1.9-2.6-3
				c-0.1,0.2-0.4,0.5-0.4,0.8c-0.1,1.1,0,2.1-0.1,3.2c0,0.1,0,0.2,0,0.3c-0.5,1.7-0.7,3.5-1.1,5.2c-0.2,0.8,0,1.9-1.1,2.5
				c-0.2,0.1-0.2,0.6-0.2,0.8c-0.3,0-0.7,0.1-1,0.1c-0.4,0-1.1,0.1-1.2-0.2c-0.2-0.4-0.3-1.1-0.1-1.4c0.4-0.7,0.4-1.5,0.6-2.2
				c0.3-0.8,0.2-1.5,0.3-2.3c0.1-1,0.7-2,1.1-3c0.3-0.9,0.5-1.9,0.7-2.8c-1.1-0.7-2.2-0.5-3.3-0.2c-0.4,0.1-0.8,0.2-1.1,0
				c-0.8-0.4-1.2-0.1-1.7,0.5c-0.6,0.6-1,0.6-1.5,0c-0.8-1-1-2.2-0.7-3.5c0.3-1,0.4-2,0.4-3.1c0-1.2-0.1-2.4-0.3-3.6
				c-0.1-1.4-0.3-2.7-0.5-4c-0.2-1.4-0.6-2.8-0.8-4.2c-0.1-0.6,0.1-1.2,0-1.8c-0.1-0.9-0.5-1.8-0.6-2.8c0-0.6,0.3-1.3,0.6-1.9
				c0,0,0.9,0.1,1,0.3c0.6,0.9,1,1.8,1.4,2.8c0,0.1,0.1,0.1,0,0.2c-0.6,1.1,0.8,2.1,0.4,3.2c0,0.1,0.2,0.2,0.2,0.4
				c0.1,0.4,0.3,0.9,0.1,1.3c-0.2,0.7-0.2,1.1,0.1,1.8c0.3,0.7,0.3,1.7,0.4,2.5c0.1,1,0.3,2,0.4,3c0.1,0.7,0,1.5,0,2.2
				C252.8,128,252.8,129.3,252.8,130.5z M269.4,114.4c-0.3-0.5-0.5-0.7-0.7-1.1c-0.2-0.6-0.5-1.1-0.6-1.7c0-0.6,0-1.4-0.6-1.5
				c-0.6,0-0.7,0.8-0.7,1.4c0,0.6-0.3,1.6-1,1.4c-1.1-0.4-1.5,0-1.7,0.9c0,0.1-0.1,0.2-0.2,0.2c-0.9,0.4-0.8,1.1-0.6,1.8
				c0.2,0.6,0.3,1.2,0.7,1.7c0.3,0.4,0.9,0.7,1.5,1c0.3-0.5,0.7-1.2,1.2-1.9c0.4-0.5,0.7-1.1,1.1-1.6c0.2-0.2,0.5-0.3,0.7-0.4
				C268.8,114.7,269.1,114.6,269.4,114.4z"/>
			<path class="st1" d="M259.4,87.2c-0.3-0.5-0.7-1-1.1-1.6c-1.4-0.3-1.8-0.7-1.5-1.9c-1.3-1-1.7-2-1.1-3c-0.8-0.9-0.6-1.8,0.5-2.4
				c-0.3-1,0.4-2.1,1.7-2.8c0.2-0.1,0.4-0.2,0.7-0.3c0.6-0.2,0.8-0.5,0.5-1.1c0,0,0-0.1,0-0.1c0.1-0.6,0.4-1.2,0.4-1.8
				c0.1-0.7,0-1.3,0.9-1.5c0.5-0.1,0.9-0.7,1.3-1.1c0.4-0.4,0.9-0.6,1.5-0.2c0.4,0.3,0.9,0.4,1.3,0.6c0.4,0.2,0.8,0.5,1.4,0.8
				c-0.7,0.4-1.1,0.7-1.5,0.9c-0.2-0.3-0.1-1.1-0.8-0.3c-0.3,0.3-0.9,0.5-1.3,0.6c-0.9,0.1-0.7,0.7-0.5,1.1c0.6,1.5,0.1,2.5-1.4,3.2
				c-0.3,0.1-0.5,0.4-0.7,0.6c-0.3,0.3-0.7,0.6-1.1,1c-0.1,0.5-0.2,1.2-0.6,1.8c-0.2,0.5-0.2,0.8-0.1,1.3c0.5,2,2.1,3.2,3.5,4.4
				c0.8,0.7,0.9,1,0.2,1.8c-0.1,0.1-0.3,0.4-0.2,0.5c0.4,0.7,0.1,1.3-0.3,1.9c0,0.1-0.1,0.1-0.1,0.2c0.5,1.3-0.3,2.8,0.7,4.1
				c0.4,0.5,0.4,1.2,0.7,1.7c0.5,0.7,1.1,1.3,1.6,2c0.7,0.8,0.6,1.1-0.4,1.3c-1.7,0.4-2.7-0.2-3.5-1.7c-0.2-0.4-0.6-0.6-0.8-0.9
				c-1-1-0.9-2.4-1-3.6c-0.1-1.5,0.1-3,0.2-4.4C258.9,87.9,259.2,87.5,259.4,87.2z"/>
			<path class="st1" d="M268.1,78.3c0.9,0.5,1.3,1.1,0.6,2c0.8,0.4,1,0.9,0.9,1.6c0.1,0.4,0.4,0.8,0.4,1.2c0,0.7,0.5,1.4,0.1,2.1
				c0.8,0.5,0.5,1,0,1.6c-0.1,0.1,0.1,0.4,0.1,0.6c0.1,0,0.2,0,0.3,0c-0.2,0.2-0.4,0.5-0.6,0.7c0.3,0.1,0.4,0.1,0.7,0.2
				c-0.3,0.1-0.5,0.2-0.8,0.4c0.4,0,0.8,0.1,1.2,0.1c-0.6,0.2-1.1,0.6-1.6-0.1c-0.1-0.2-0.1-0.4-0.2-0.6c0-0.3-0.1-0.7-0.1-1
				c-0.1,0-0.1,0.1-0.2,0.1c-0.5-0.5-1-1.1-1.6-1.6c-0.2-0.2-0.5-0.2-0.7-0.3c-0.2-0.1-0.4-0.1-0.6-0.2c-1.2-1-2.2-2.1-2.7-3.6
				c-0.2-0.5-0.1-1-0.2-1.5c0.5,0.1,1.1,0.1,1.7,0.3c0.4,0.1,0.8,0.4,1.2,0.6c0.2,0.1,0.4,0.1,0.6,0.1c0.1,0,0.1-0.3,0.1-0.5
				c0-0.9-0.1-1.8-0.1-2.7c0-0.2-0.2-0.3-0.3-0.5c-0.1-0.3-0.2-0.7-0.3-1c0.4-0.1,0.7-0.2,1.1-0.1c0.3,0,0.5,0.2,0.7,0.3
				C268.5,77,268.9,77.5,268.1,78.3z"/>
			<path class="st1" d="M277.8,105.5c0.4,0.1,0.6,0.1,0.9,0.1c0.2,0.7-1.1,1.7,0.5,2.1c-0.2,0.3-0.4,0.4-0.6,0.6
				c0.3,0.1,0.5,0.3,0.9,0.4c-0.3,0.2-0.5,0.4-0.9,0.6c0.5,0,0.7,0.1,1.1,0.1c-0.7,0.7-0.7,1.2,0.4,1.4c-0.8,0.8-1.3,0.1-1.9-0.2
				c0.3-0.1,0.4-0.2,0.7-0.4c-0.3,0-0.6-0.1-1.1-0.1c0.4-0.3,0.6-0.4,0.9-0.7c-0.4,0-0.7-0.1-1.2-0.1c0.1-0.3,0.2-0.7,0.3-1
				c-0.7-0.3-1.2-0.7-1.1-1.7c0.1-0.5-0.2-1.2-0.6-1.5c-1-1.1-1.4-2.3-1.4-3.7c0-0.5-0.5-1.1-0.4-1.6c0.1-0.6,0.4-1.2,0.8-1.6
				c0.6-0.6,1.1-0.4,1.3,0.4c0.1,0.4,0.4,0.7,0.5,1c0.1,0.3,0.2,0.6,0.3,1c0.1,0.5,0.2,1,0.3,1.5c0,0.2,0,0.5-0.1,0.5
				c0.3,0.5,0.7,0.9,0.8,1.4C278.2,104.5,277.9,105,277.8,105.5z"/>
			<path class="st1" d="M236.3,77.1c-0.1-0.1-0.1-0.2-0.2-0.4c0.3,0.1,0.7,0.1,1.1,0.2c-0.1-0.3-0.2-0.4-0.3-0.6
				c0.3,0.1,0.5,0.2,0.7,0.2c0.1-0.3,0.2-0.5,0.3-0.8c0,0.6,0,1,0,1.5c-0.3,0-0.7-0.1-1.1-0.2c0.1,0.3,0.1,0.5,0.1,0.5
				c-0.4,0.3-0.9,0.4-1.2,0.7c-0.6,0.6-1.1,1.4-2,1.8c-0.5,0.2-0.8,0.7-1.3,1c-0.1,0.1-0.3,0.3-0.3,0.3c-0.8-0.5-1.1,0.3-1.5,0.7
				c-0.5,0.4-0.8,1-1.1,1.4c-0.3,0.2-0.5,0.5-0.8,0.7c-0.1,0.1-0.4,0.2-0.5,0.1c-0.6-0.1-1.1-0.2-1.4-0.2c-0.7,0.8-1.2,1.5-1.8,2.1
				c0,0-0.1,0.1-0.2,0.1c-1.1-0.5-1.6,0.7-2.5,1c-1.2,0.4-1.4,0.4-2-0.9c1.3,0.3,2.1-0.3,2.7-1.2c0.1-0.1,0.2-0.1,0.4-0.2
				c0.5-0.2,1.1-0.4,1.6-0.7c1-0.8,1.9-1.7,2.9-2.5c0.1-0.1,0.3-0.2,0.4-0.2c0.9,0.5,1-0.2,1.3-0.7c0.1-0.2,0.3-0.3,0.5-0.3
				c0.4-0.1,0.7-0.2,1.1-0.4c0.4-0.2,0.7-0.4,1.1-0.6c-0.2-0.7,0.6-0.5,1-0.7c0.4-0.1,0.7-0.2,1-0.5
				C234.8,77.6,235.7,77.4,236.3,77.1z"/>
			<path class="st1" d="M238.2,88.1c0.1,0.2,0.4,0.6,0.6,1.1c0.3,0.6,0,1.1-0.6,1.3c-0.5,0.2-0.9,0.4-0.9,1c0,0.2-0.2,0.5-0.3,0.5
				c-0.9,0.1-1.3,1-1.9,1.2c-1.1,0.3-1.5,1.3-2.4,1.8c-0.3,0.2-1,0.4-1.1,0.3c-0.3-0.4-0.6-1-0.5-1.4c0.3-0.9,0.4-2,1.8-2.1
				c0.1,0,0.1-0.1,0.2-0.1c0.8-0.7,1.7-1.4,2.5-2.1c0.2-0.1,0.3-0.3,0.4-0.4C236.6,88.9,237.2,88.6,238.2,88.1z"/>
			<path class="st1" d="M253.8,138.3c-0.5-0.2-0.8-0.3-1.1-0.4c-0.5,0.4-0.5,1.2-1.4,1.2c0,0-0.1,0-0.1,0.1c-0.8,1-1.7,2-2.5,3
				c-0.1,0.1-0.1,0.3-0.2,0.3c-1.7-0.1-2.2,1.6-3.5,2.1c-0.7,0.3-1.4,0.6-2.1,0.4c0.1-1.1,0.8-1.5,1.7-1.8c0.2-0.1,0.5-0.2,0.6-0.4
				c0.4-1.3,1.5-1.9,2.6-2.6c0.4-0.2,0.7-0.7,1.1-1.1c0.2-0.1,0.4-0.2,0.7-0.2c0.4-0.2,0.8-0.3,1.2-0.5c0.3-0.2,0.6-0.4,0.9-0.6
				c0.8-1,0.9-1,1.7-0.2C253.5,137.9,253.6,138,253.8,138.3z"/>
			<path class="st1" d="M239.9,133.2c-0.1-0.8,0.1-1.6,0.9-2c0.2-0.1,0.2-0.4,0.3-0.6c0.3-0.4,0.6-0.8,1.1-1c0.4-0.2,0.9,0,1.3,0
				c-0.1,0.4-0.3,0.8-0.4,1.2c-0.1,0.3-0.3,0.6-0.3,0.9c0.1,1.4-1.2,1.9-1.7,2.9c-0.1,0.2-0.6,0.2-0.9,0.2c-0.1,0-0.2-0.4-0.2-0.7
				C239.9,133.7,239.9,133.4,239.9,133.2z"/>
			<path class="st1" d="M241.2,85.8c0.6-0.3,1.1-0.5,1.6-0.7c-0.1-0.4-0.2-0.6-0.2-0.8c0.1,0,0.1-0.1,0.2-0.1
				c0.3,0.4,0.6,0.7,0.9,1.1c0.1,0.1-0.2,0.5-0.2,0.5c-1.1-0.2-0.8,0.4-0.5,0.9c-0.9-0.1-2,0.4-1.9,1.8c-1.1,0.1-1.5-0.4-1.7-1.6
				c0.7-0.3,1.4-0.5,2.1-0.8C241.3,85.9,241.2,85.8,241.2,85.8z"/>
			<path class="st1" d="M242.6,145.8c-0.5,1.1-0.7,2.1-1.7,2.6c-0.6,0.3-1.7,0-1.9-0.6c-0.1-0.2,0-0.5,0.1-0.6
				c0.7-0.5,1.5-1,2.3-1.3C241.6,145.8,242,145.9,242.6,145.8z"/>
		</g>
	</g>
	<g>
		<ellipse class="st6" cx="174" cy="101.9" rx="6.5" ry="6.7"/>
		<path class="st6" d="M183.6,50.9c0,1.2-1.6,11.4-1.6,11.4l-5.9,2.8l6.3,4.1l2,6.5l3.6-8.1l9.7-3.8l-8.9-6.2L183.6,50.9z"/>
		<path class="st1" d="M183.6,40.5c-0.5,0.3-1.3,0.3-1.4,1.1c0,0.2-0.1,0.4,0,0.6c0.2,0.6,0.5,1.2,0.7,1.8c0.2,0.6,0.6,1.1,1.3,1.1
			c0.8-0.1,1.2-0.6,1.3-1.3c0.1-0.6,0.1-1.2,0-1.8c-0.1-0.3-0.4-0.6-0.7-0.9c-0.2-0.2-0.4-0.4-0.7-0.6
			C184,40.5,183.8,40.5,183.6,40.5z"/>
		<path class="st1" d="M158.2,103.1c0.4,0.5,0.8,0.9,1.5,0.5c0.7-0.4,1.2-1.5,1-2.1c-0.2-0.6-0.9-0.8-1.4-0.4
			c-0.4,0.4-0.7,0.9-1,1.4C158.2,102.7,158.2,102.9,158.2,103.1z"/>
		<path class="st1" d="M186.3,68.8c-0.4,0.8-0.9,1.5-0.4,2.6c0.1,0.3-0.2,0.7-0.3,1.1c-0.1,0-0.2,0-0.2,0c-0.2-1-0.3-2.1-0.5-3.1
			c0-0.2-0.1-0.4-0.2-0.6c-0.5-0.7-0.9-1.3-1.4-1.9c-0.2-0.2-0.7-0.3-1-0.4c-0.9-0.1-1.8-0.1-2.6-0.4c-0.6-0.2-0.9-1-1.4-1.7
			c0.8-0.3,1.4-0.7,2.1-0.9c1.3-0.4,2.2-1.2,3.1-2.2c0.2-0.3,0.4-0.5,0.5-0.8c0.1-0.3,0.2-0.8,0-1.1c-0.5-0.6-0.6-1.2-0.4-2
			c0.2-0.8,0.1-1.7,0.3-2.6c0.1-0.5,0.3-0.9,0.4-1.3c0.1,0,0.2,0,0.3,0.1c0.2,1,0.5,2.1,0.7,3.1c0.2,0.8,0.1,1.7,0.5,2.4
			c0.3,0.6,1,1.1,1.6,1.5c0.1,0.1,0.5-0.1,0.7-0.2c0.5-0.4,0.8-2,0.7-2.6c-0.3-1.2-0.5-2.4-0.8-3.6c-0.3-1-0.8-2-1.2-3
			c-0.2-0.5-0.4-0.9-0.7-1.4c-0.4-0.7-0.9-0.9-1.6-0.6c-0.5,0.2-1.2,0.1-1.4,0.4c-0.7,1.2-1.9,2.2-1.5,3.8c0.1,0.4-0.1,0.8-0.1,1.3
			c0,0.9,0.1,1.9,0.1,2.8c0,0.6-0.2,1.2-0.3,1.8c-0.1,0.3-0.2,0.6-0.3,1c-1.2-0.3-2.2,0.4-3.4,0.8c-1.4,0.6-2.2,1.5-2.8,2.9
			c-0.4,1-0.4,1.5,0.4,2.3c0.3,0.3,0.5,0.6,0.8,1c0.6,0.8,1.3,1.1,2.2,1.1c0.5,0,0.9,0.4,1.3,0.6c0.1,0.1,0.3,0.2,0.4,0.2
			c1.8,0.3,1.9,1.8,2.2,3.1c0.2,0.8,0.6,1.6,0.2,2.5c0,0.1,0,0.2,0,0.3c0.5,0.9,1,1.8,1.2,2.9c0,0.1,0.2,0.2,0.2,0.3
			c0.9,0.7,3-0.1,3.4-1.2c0.3-0.8,0.6-1.6,0.4-2.5c0-0.2,0.1-0.5,0.2-0.6c1-0.8,0.7-2.1,0.9-3.1c0.1-0.3-0.1-0.8-0.2-1.2
			c0.7-0.4,1.4-1.1,2.5-0.4c0.2,0.2,0.9,0,1.2-0.2c0.6-0.4,1.1-0.7,1.9-0.6c0.4,0,0.9-0.3,1.3-0.6c0.7-0.6,1.2-1.3,1.9-1.9
			c0.8-0.6,0.9-1.3,0.3-2.1c-0.2-0.2-0.3-0.5-0.3-0.8c-0.2-0.8-0.5-1.4-1.5-1.4c-0.6,0-1.2-0.4-1.8-0.7c-0.1,0-0.1-0.1-0.2-0.1
			c-1.3,0-2.3-0.8-3.4-1.3c-0.9-0.3-2.1,0.5-2.2,1.5c-0.1,0.6,0.4,1.1,1,1c0.5-0.1,0.8,0.2,1.2,0.4c1,0.5,1.9,1.4,3.2,1.1
			c0.4-0.1,1,0.6,1.4,1c0.2,0.2-0.7,1-1.2,1.1c-1,0.2-2,0.5-3,0.7c-0.4,0.1-0.8,0.1-1.1,0c-1.1-0.3-2.8,0.2-3.3,1.2
			C186.2,67.7,186.3,68.3,186.3,68.8z"/>
		<path class="st1" d="M166.9,102.4c1,0.5,1.9,1,2.8,1.3c0.3,0.1,0.7,0.2,1.1,0.1c0.5,0,1-0.2,1.5-0.2c1.3,0,1.3,0.2,0.9,1.4
			c-0.3,0.9-0.2,2.1-0.1,3.1c0.1,0.7,1.2,1.2,1.9,1c0.6-0.1,0.7-0.6,0.6-1.1c0-0.4-0.1-0.9,0-1.3c0.1-0.6,0.2-1.3,0.3-1.9
			c0.3-1.3,1-1.6,2.4-1.5c1.2,0.1,2.5-0.1,3.7-0.2c0.2,0,0.5-0.7,0.5-1.1c-0.1-0.9-1.2-1.9-2.1-1.9c-1.2,0-2.4,0-3.6,0
			c0-1,0.1-2,0.1-3c0.1-1.4-0.1-2.7-1.2-3.7c-0.5-0.4-0.7-0.4-1.2,0.1c-1,1-1.2,2.1-0.9,3.6c0.2,1.1-0.2,2.3-0.3,3.5
			c-0.9,0.1-1.8,0.1-2.6,0.3c-0.4,0-0.7,0.2-1.1,0.3c-0.2,0.1-0.4,0.3-0.5,0.2c-0.7-0.2-1.1,0-1.4,0.7
			C167.6,102.1,167.3,102.2,166.9,102.4z"/>
		<path class="st1" d="M173.8,117.5c0.9,0,2-0.8,2-1.5c0-1.5-0.7-2.4-1.9-2.4c-1,0-1.7,0.7-1.7,1.6
			C172.3,116.5,172.9,117.4,173.8,117.5z"/>
		<path class="st1" d="M167,64.8c0,1,0.8,2,1.6,1.9c0.7,0,1.8-1,1.8-1.6c0-1.1-0.9-2.1-1.7-2.1C167.8,63.1,167,63.9,167,64.8z"/>
		<path class="st1" d="M186.9,83.6c0-1-0.7-1.8-1.6-1.7c-0.9,0-1.8,1.2-1.8,2.3c0,0.8,1,1.2,2,1.2C186.3,85.4,186.9,84.6,186.9,83.6
			z"/>
		<path class="st1" d="M203.3,66.3c0.8,0,1.8-1,1.8-1.8c0-0.7-0.6-1.4-1.2-1.2c-0.7,0.3-1.5,0.8-1.9,1.5
			C201.4,65.7,202,66.3,203.3,66.3z"/>
		<path class="st1" d="M173.4,89c0.3,0.1,0.5,0.3,0.8,0.3c0.4,0.1,1,0.2,1.2,0c0.3-0.2,0.6-0.9,0.5-1.2c-0.3-0.7-0.7-1.4-1.3-1.9
			c-0.5-0.5-1-0.2-1.1,0.5C173.5,87.6,173.5,88.4,173.4,89z"/>
	</g>
	<g>
		
			<ellipse transform="matrix(1 -4.463285e-03 4.463285e-03 1 -0.1067 1.3473)" class="st6" cx="301.8" cy="24.6" rx="6.5" ry="6.7"/>
		<polygon class="st6" points="318.4,56 325.9,59.9 318.6,64.3 316,76.3 310.6,66.9 304.9,61.7 311.6,58 313.9,49.9 		"/>
		<path class="st1" d="M322.2,56.1c0.1-0.1,0.4,0.1,0.6,0.2c0.4,0.2,0.7,0.4,1.1,0.5c0.4,0.1,1,0,1.4,0.3c0.6,0.4,1.1,0.9,1.6,1.4
			c1.1,1.2,0.7,3.2-0.8,3.9c-2,0.9-4.2,1.2-6.4,1.3c-0.4,0-1.1,0.4-1.1,0.6c0,1.1-0.1,2.4,0.2,3.4c0.3,1.2,0,1.9-0.8,2.6
			c-0.2,0.1-0.3,0.6-0.2,0.8c0.5,0.9,0.5,1.7,0.1,2.6c-0.3,0.5-0.4,1-0.7,1.5c-0.3,0.4-0.7,0.9-1.2,1.1c-0.8,0.2-1.6,0.3-2.2-0.5
			c-0.4-0.5-0.8-1.1-1-1.7c-0.3-1-0.7-1.8-1.1-2.7c-0.6-1.4-0.7-3-1-4.5c-0.1-0.3-0.4-0.7-0.7-0.8c-0.9-0.3-1.9-0.3-2.7-0.8
			c-1.5-0.8-2.9-1.7-3.6-3.4c-0.1-0.3-0.1-0.7-0.2-1c-0.5-1.3,1.1-3.4,2.4-3.2c1.1,0.2,2-0.2,2.9-0.6c0.4-0.2,1-0.1,1.4-0.3
			c0.2-0.1,0.6-0.3,0.6-0.5c0-0.7,0.1-1.4-0.1-2.1c-0.2-0.7-0.2-1.2,0.2-1.8c0.2-0.5,0.3-1.1,0.3-1.6c-0.1-1.8,1-3.2,2.8-3.4
			c0.8-0.1,1.5,0.1,1.7,1.1c0.1,0.4,0.4,0.8,0.6,1.2c0.6,1.4,1.6,2.7,0.6,4.3c1,0,1.2,0.2,1.7,1.8C319.7,55.4,320.9,56.7,322.2,56.1
			z M313.8,52c0,0.5-0.1,0.9,0,1.2c0.4,1.1,0,2-0.2,3c0,0.2,0,0.5,0.1,0.7c0.5,0.8,0.4,1.5-0.4,2c-0.5,0.4-1,0.6-1.7,0.7
			c-1.5,0.2-3,0.9-4.4,1.4c0,0.1,0,0.2-0.1,0.3c0.9,0.4,1.7,0.8,2.6,1c1.4,0.4,3.7,2.2,3.9,3.3c0.2,1,0.3,2,0.6,2.9
			c0.1,0.4,0.4,0.8,0.5,1.1c0.1,0.4,0.2,0.9,0.2,1.3c0,0.2,0,0.4,0,0.8c0.4-0.5,0.7-0.8,0.8-1.1c0.1-0.3,0.1-0.6,0-1
			c0-0.5-0.2-0.9-0.2-1.4c0.1-1.1,0.3-2.1,0.4-3.2c0.1-0.6,0-1.3,0.2-1.8c0.4-0.7,1-1.4,1.6-1.9c0.7-0.5,1.6-0.7,2.4-0.9
			c1.1-0.3,2.3-0.5,3.5-0.9c-1.5-0.3-3-0.6-4.5-0.9c-0.9-0.2-1.9-0.3-2.8-0.7c-1.1-0.4-1.3-2.6-0.4-3.9
			C314.4,54.4,314.6,52.8,313.8,52z"/>
		<path class="st1" d="M300.1,27.7c-0.1,1.1-0.3,2.1-0.2,3.1c0,0.3,0.5,0.7,0.8,0.8c1.3,0.2,2.5-0.4,2-2.3c-0.3-1.2-0.2-1.1,0.9-1.6
			c1.4-0.6,2.7-0.4,4.1-0.5c0.4,0,0.9-0.5,1-0.9c0.3-1.2-0.5-2.2-1.7-2.2c-1,0-2.1,0-3.1,0c-0.4,0-0.7,0.2-1.3,0.3
			c0-1.5-0.1-2.9,0-4.4c0-0.7-0.6-2.1-1.3-2.3c-0.3-0.1-0.8,0.1-0.8,0.3c-0.4,0.8-0.9,1.5-0.7,2.6c0.2,1.2,0.1,2.5,0.1,3.8
			c0,0.3-0.3,0.7-0.6,0.8c-0.5,0.2-1.2,0.2-1.7,0.3c-0.2,0-0.4,0.2-0.4,0.4c0,0.5,0,1.1,0.3,1.5c0.2,0.3,0.7,0.4,1.1,0.4
			C299,27.8,299.6,27.7,300.1,27.7z"/>
		<path class="st1" d="M310.4,42.5c0.3,0.4,0.6,0.8,1,1.3c0.3,0.3,0.6,0.6,0.9,0.8c0.4,0.3,0.8,0.3,1.1-0.1c0.3-0.4,0.7-0.7,0.9-1.1
			c0.1-0.3,0.1-0.8,0.1-1.1c-0.2-1.3-1.6-1.1-2.4-1.7c-0.2-0.1-0.9,0.5-1.3,0.9C310.5,41.6,310.5,42,310.4,42.5z"/>
		<path class="st1" d="M300.8,37.6c0.2-0.6,0.3-1.3-0.5-1.7c-0.7-0.4-1.5-0.6-2.2,0.1c-0.6,0.6-0.6,1.6-0.2,2.4c0.4,0.9,1,1.4,2,0.9
			c0.1-0.1,0.3,0,0.4-0.1c0.4-0.1,0.7-0.3,1.1-0.4C301.2,38.4,301,38.1,300.8,37.6z"/>
		<path class="st1" d="M299.9,11.4c0,1.3,0.7,2.3,1.5,2.4c1,0,1.7-0.7,1.7-1.5c-0.1-1.4-0.6-2.3-1.4-2.3
			C300.8,10,299.9,10.8,299.9,11.4z"/>
		<path class="st1" d="M333.3,60.5c-0.1-1.5-2.1-2.6-3.3-1.8c-0.3,0.2-0.6,0.8-0.5,1.1c0.1,0.8,0.6,1.3,1.4,1.6
			c0.7,0.2,1.1,0,1.6-0.6C332.6,60.7,332.9,60.6,333.3,60.5z"/>
		<path class="st1" d="M298.6,61c0,0.8,0.8,1.9,1.5,1.9c0.5,0,1.5-1.3,1.5-2c0-1-0.6-1.8-1.4-1.8C299.3,59.2,298.7,60,298.6,61z"/>
		<path class="st1" d="M291.5,28.8c1.3,0,2.2-0.4,2.9-1.4c0.3-0.5,0.3-1-0.3-1.4c-0.4-0.3-1.9-0.5-2.3-0.2c-0.6,0.5-0.5,1.2-0.3,1.8
			C291.5,28,291.5,28.4,291.5,28.8z"/>
		<path class="st1" d="M315,79.8c-0.9,0.1-1.6,0.8-1.6,1.8c0,0.7,0.9,1.4,1.6,1.4c0.8-0.1,1.6-0.9,1.6-1.6
			C316.5,80.3,315.9,79.7,315,79.8z"/>
		<path class="st1" d="M313,27.1c0-0.6,0-1.3,0-1.9c0-0.2-0.2-0.3-0.3-0.5c-0.1,0.1-0.3,0.2-0.4,0.4c-0.2,0.3-0.4,0.8-0.9,0.5
			c-0.1,0.2-0.3,0.5-0.2,0.6c0.5,0.4,1.1,0.8,1.7,1.2C312.8,27.2,312.9,27.1,313,27.1z"/>
	</g>
	<g>
		<path class="st7" d="M390.9,142c0,0,0.4,6.7-3.7,11.3s-7.1,6.1-7.1,6.1l-2.8,76.7h37.2c0,0,0-29.8,0-33.7s2.6-41.1,0.5-45.9
			c-2.1-4.7-7-12.2-10.1-13.4C401.9,142,390.9,142,390.9,142z"/>
		<path class="st7" d="M347.9,138.1c0,0-16.7,2.7-18.8,16.2c-2.1,13.5-4.9,47.6-4.9,50.9c0,3.3-2.2,31.9-2.2,31.9h45.4
			c0,0-3.4-43-2.1-50.9s0.7-27.2,0.7-27.2l-12.7-13.2L347.9,138.1z"/>
		<path class="st8" d="M373.2,49.8c0,0-18.4,0.7-25.6,13.1c-7.2,12.4-9.8,27.8-10.3,36.5s-2.1,23.2,2.1,34.5
			c4.1,11.3,7.7,24.2,3.6,26.8c0,0,9.4-2.2,10.9-5.2c1.5-3,4.6-9.7,4.6-12.3s5.1,0,5.1-5.1c0-5.1,0.5-9.8,0.5-9.8
			s-12.6-4.3-13.8-10.6c-1.2-6.3-2.2-14.1-2.2-14.1l6.7-14.4c0,0,7.3,1.9,9.1-0.8c1.7-2.8,14.4-11.7,14.4-11.7s10.5,14.1,13.5,15.1
			s4.6,6.2,4.6,6.2s7.2-2.6,7.2,5.7s-8.7,6.7-8.7,6.7s-5.9,12.5-8.9,14.5c-3,2-4.9,4.2-4.9,4.2s-1,10.4,5.3,13.3
			c6.4,3,18.7-0.6,18.7-0.6s3.9-27.1,3.5-34.4c-0.4-7.3-2.5-27.9-5.1-33c-2.6-5.1-5.8-12.7-10.6-16.4
			C388.2,54.1,379.2,49.1,373.2,49.8z"/>
		<g id="FoougG.tif_1_">
			<g>
				<path class="st1" d="M327.1,169c-0.5-1.6-0.8-3.3,0.2-4.9c0.2-0.4,0.8-0.5,1.2-0.8c0.2-0.1,0.6-0.2,0.6-0.3
					c0-0.3-0.1-0.6-0.3-0.8c-1.3-1.3-1.5-3.5-0.4-5.1c0.4-0.7,1-1.4,0.6-2.3c-0.1-0.2-0.1-0.5,0.1-0.6c0.8-1.1,1.2-2.3,1.5-3.6
					c0.1-0.5,0.1-1.1,0.4-1.5c0.8-1.2,1.6-2.4,2.5-3.6c0.1-0.1,0.1-0.4,0.2-0.5c0.2-0.4,0.4-1,0.7-1.1c1.1-0.3,1.5-1.4,2.3-2
					c0.6-0.4,1.3-0.6,2-0.9c0.4-0.2,0.9-0.4,1.5-0.7c-0.5-1.3-1.1-2.5-1.6-3.8c-0.3-0.7-0.6-1.3-0.8-2c-0.6-1.4-1.1-2.8-1.6-4.3
					c-0.3-0.8-0.4-1.7-0.6-2.6c-0.4-2.1-1-4.2-1.2-6.3c-0.2-1.5,0.1-3.1,0-4.6c-0.1-1.3,0.4-2.8-0.4-4c0-0.1-0.1-0.2-0.1-0.3
					c0.1-1.3,0.2-2.5,0.4-3.8c0.1-0.6,0.1-1.1,0.2-1.7c0.1-0.9,0.3-1.8,0.4-2.8c0.2-1.6,0.3-3.2,0.5-4.8c0.1-0.7,0.3-1.5,0.4-2.2
					c0.1-0.6,0-1.1,0-1.7c0-0.4,0.1-0.9,0.2-1.3c0-0.2,0.2-0.4,0.2-0.6c-0.2-1.8,0.4-3.4,0.8-5.1c0.2-0.7,0.2-1.5,0.4-2.2
					c0.4-2,0.6-3.9,1.2-5.8c0.4-1.2,0.7-2.3,0.9-3.4c0.2-1,0.3-2.4,1.4-3.1c0.1-0.1,0.1-0.4,0.2-0.5c0-0.3,0-0.5,0.1-0.8
					c0.2-0.6,0.3-1.2,0.5-1.8c0-0.1,0.1-0.3,0.2-0.4c1.3-1.4,1.7-3.3,2.6-5c0.4-0.7,0.9-1.4,1.4-2.1c0.6-0.8,0.6-2,1.7-2.4
					c0.1,0,0.1-0.3,0.1-0.5c0.1-0.7,0.4-1.3,1.1-1.6c0.3-0.1,0.5-0.4,0.6-0.6c0.4-0.8,0.7-1.7,1.9-1.6c0.1,0,0.2-0.1,0.3-0.2
					c0.4-1.7,2.1-2.2,3.2-3.1c0.7-0.6,1.6-0.9,2.5-1.3c0,0,0.1,0,0.2,0c1.5,1,2.3-0.6,3.5-0.8c1.3-0.2,2.7-0.6,4-0.9
					c0.9-0.2,1.7-0.2,2.6,0c0.7,0.2,1.5-0.3,2.3-0.4c0.8-0.1,1.6,0,2.3,0.2c0.4,0.1,0.6,0.1,1-0.2c0.4-0.3,1-0.4,1.6-0.5
					c0.4-0.1,0.9,0,1.2-0.1c1.1-0.4,2.1-0.2,3.1,0c0.6,0.1,1.2,0,1.8,0c0.9,0,1.7,0.4,2.7,0.3c0.7,0,1.5,0.6,2.2,1
					c1.4,0.8,2.8,1.7,4.1,2.6c0.3,0.2,0.4,0.5,0.6,0.8c2.2,0.1,3.6,1.7,3.1,3.6c1.2-0.5,2-0.2,2.8,0.8c1.3,1.7,2.9,3.2,4.2,4.9
					c0.9,1.1,1.4,2.4,2.1,3.6c0.8,1.4,0.9,3.2,2,4.5c0.3,0.4,0.2,1.2,0.4,1.8c0.2,0.9,0.4,1.7,0.6,2.5c0.4,1.3,0.8,2.6,1.1,4
					c0.4,1.8,0.5,3.6,1,5.3c0.2,0.9,0.1,1.8,0,2.7c-0.1,1,0.2,2,0.1,3c0,0.8-0.2,1.5,0.3,2.4c0.3,0.5,0,1.4,0,2.2
					c0,0.5,0.1,0.9,0.2,1.4c0,0.1,0.2,0.3,0.2,0.4c-0.1,0.9-0.2,1.8-0.4,2.7c0,0.2-0.1,0.3-0.1,0.5c0.1,1.6,0.2,3.1,0.3,4.7
					c0.1,0.8,0.3,1.6,0.4,2.4c0.1,0.7,0,1.4,0,2.2c0,0.4,0,0.7,0.1,1.1c0,0.2,0.1,0.5,0.1,0.6c-0.7,1.4,0,2.8-0.1,4.2
					c0,0.4-0.1,0.9-0.1,1.3c0,0.4,0,0.7,0,1.1c0,0.4,0.2,1,0,1.3c-0.5,0.9,0.1,1.6,0.2,2.4c0.1,0.6,0.1,1.3,0,2
					c0,0.4-0.2,0.8-0.2,1.2c-0.1,1.5-0.1,3-0.3,4.4c-0.2,2-0.3,4-0.7,6c-0.3,1.8,0,3.7-1,5.3c-0.1,0.1-0.1,0.3-0.1,0.4
					c0.6,0.8,1.2,1.6,1.8,2.4c0.1,0.2,0.4,0.3,0.6,0.5c1.2,1.9,2.4,3.7,3.5,5.6c0.7,1.2,1.3,2.4,1.7,3.7c0.4,1.2,0.5,2.5,0.8,3.7
					c0.2,0.9,0.4,1.7,0.6,2.6c0.1,0.3,0,0.7,0,1.1c0,0.3-0.1,0.7,0,0.9c0.5,0.8,0.4,1.7,0.4,2.7c0,1.2,0.2,2.4,0.2,3.6
					c0,1.3-0.1,2.6,0,3.9c0,0.8,0.1,1.7,0.2,2.5c0,1.4,0,2.8,0,4.2c0,0.4,0,0.8,0,1.3c0,0.2,0.1,0.5,0.1,0.7c-0.7,1.9,0,3.8,0,5.8
					c0,1.8-0.1,3.6-0.2,5.4c0,1.3,0,2.7,0,4c0,0.1,0,0.1,0,0.2c-0.2,0.9-0.6,1.8-0.4,2.5c0.2,0.9,0.3,1.6-0.1,2.5
					c-0.1,0.2,0.1,0.4,0.1,0.6c0,1.4,0,2.8,0.1,4.2c0.1,1.7,0.2,3.4,0.3,5.1c0,0.2,0.2,0.4,0.1,0.6c-0.4,1.5,0.4,2.9,0.4,4.4
					c0,1.1,0.2,2.1,0.2,3.1c0,1.2,0.2,2.4,0.3,3.6c0,1.6,0,3.1-0.1,4.7c0,1.1-0.1,2.2,0,3.3c0,0.4,0.2,0.8,0.4,1.2
					c0.5,1,0.3,1.7-0.6,2.1c-0.9,0.4-2,0.1-2.4-0.8c-0.1-0.3-0.3-0.7-0.3-1.1c0.2-1-0.5-2,0-3.1c0.3-0.6-0.1-1.6-0.2-2.4
					c-0.1-0.8-0.2-1.7-0.3-2.5c-0.1-1.1-0.3-2.1-0.4-3.1c-0.1-1.2-0.1-2.3-0.1-3.5c0-0.3,0-0.6,0-0.9c-0.1-0.6-0.5-1.3-0.4-1.8
					c0.1-1.2,0.2-2.3,0-3.5c-0.2-0.8-0.2-1.6-0.2-2.4c0-0.6,0.1-1.2,0.1-1.9c0-0.1,0.1-0.2,0.1-0.3c-0.6-1.8-0.1-3.5,0.2-5.3
					c0-0.2-0.1-0.4-0.1-0.6c-0.1-0.3-0.3-0.7-0.2-1c0.6-1.4-0.1-2.9,0.1-4.4c0.2-1.6-0.2-3.2-0.1-4.8c0.1-1.8,0.3-3.6,0-5.4
					c-0.1-0.4,0-0.8,0.2-1.2c0.7-1.7-0.1-3.5,0-5.2c0.1-2.1,0.1-4.2,0.2-6.3c0-1.7-0.2-3.3-0.1-5c0.1-2.3-0.4-4.7-0.7-7
					c-0.2-1.6-0.4-3.2-0.8-4.8c-0.2-0.8-0.6-1.6-1-2.3c0-0.1-0.1-0.2-0.1-0.3c0.2-0.9-0.4-1.6-0.7-2.3c-0.2-0.4-0.5-0.7-0.6-1.1
					c-0.3-0.7-0.6-1.4-0.9-2.1c-0.1-0.2-0.3-0.4-0.5-0.7c-0.3-0.4-0.6-0.9-0.7-1.3c-0.2-0.7-1.3-1.6-2.1-1.7
					c-1.4-0.1-2.9-0.2-4.3-0.2c-1.2,0-2.3,0.2-3.5,0.2c-1,0-2.1,0-3.1,0c-0.6,0-1.2,0-1.7,0c-0.2,0.5-0.4,1-0.7,1.5
					c0,0.1-0.1,0.2-0.1,0.3c0.1,2-1.5,3.2-2.3,4.7c-0.4,0.8-1.2,1.4-1.2,2.5c0,0.4-0.4,0.9-0.8,1.1c-1.1,0.6-1.5,2.2-3,2.2
					c-0.4,1-1.8,1-2,2.2c0,0.4-0.7,0.6-1.1,0.9c-0.3,0.3-0.9,0.5-1,0.8c-0.2,0.9-0.3,1.8-0.3,2.7c0,1.1,0.1,2.2,0.1,3.3
					c-0.1,1.9-0.2,3.8-0.3,5.7c0,1.1,0,2.1,0,3.2c0,0.6-0.2,1.2-0.2,1.7c0,1.8,0.1,3.5,0,5.3c0,1.3-0.2,2.6-0.4,3.9
					c-0.1,0.5-0.3,0.9-0.4,1.4c0.7,0.8,0.9,1.8,0.3,2.9c-0.1,0.1-0.1,0.3-0.1,0.4c0.7,1.4,0.6,2.9,0.6,4.4c0,1.8,0,3.7,0,5.5
					c0,0.9,0.1,1.7,0.1,2.6c0,0.4-0.2,0.8-0.2,1.2c-0.1,0.5-0.4,1.1-0.2,1.4c0.8,1.2,0,2.5,0.2,3.7c0,0.1-0.1,0.3-0.1,0.5
					c0,1.5,0.1,3,0.1,4.5c0,0.9-0.1,1.8-0.1,2.7c0,1.8,0,3.5,0,5.3c0,1.1-0.3,2.1,0.2,3.1c0.1,0.2-0.1,0.5-0.1,0.7
					c0,0.1-0.2,0.3-0.2,0.4c0,1.2,0,2.4,0,3.6c0,0.6,0.2,1.1,0.2,1.7c-0.1,1.2-0.2,2.5-0.4,3.7c-0.1,0.9-0.7,1.4-1.5,1.4
					c-1-0.1-1.6-0.6-1.6-1.5c0-1.7,0.1-3.4,0.1-5.1c0-0.7-0.2-1.4-0.3-2c0-0.2-0.1-0.5,0-0.7c0.5-0.7,0.3-1.4,0.3-2.2
					c-0.1-1.8-0.6-3.6-0.1-5.4c0.1-0.4-0.3-1-0.3-1.5c0.1-1.7,0.3-3.4,0.5-5.1c0-0.2,0-0.4,0-0.5c0-1.5,0-3,0-4.5c0-1.7,1-3.4,0-5.1
					c-0.2-0.3-0.1-0.7-0.1-1.1c0.1-2.4,0.1-4.9,0.2-7.3c0.1-1.4,0.4-2.7,0.6-4.1c0-0.2,0-0.4-0.1-0.5c-1-1.2-0.4-2.2,0.3-3.2
					c-0.6-1.8-0.7-3.7-0.5-5.5c0.2-1.4,0.1-2.7,0.2-4.1c0-0.6,0.2-1.3,0.2-1.9c0-0.4-0.2-0.8-0.3-1.2c-0.1-0.3-0.1-0.5-0.1-0.8
					c0.1-1.2,0.3-2.4,0.3-3.7c0-0.7-0.1-1.4-0.2-1.9c-2.7,0.7-5.4,0.9-8.1,0c0.1,0.6,0.1,1.2,0.2,1.9c0.1,1.2,0.3,2.4,0.3,3.6
					c0,1.3-0.1,2.6-0.2,4c0,1.6,0,3.1,0,4.7c0,1.7,0,3.3,0,5c0,2-0.1,4,0,5.9c0,1,0.5,2,0.2,3.1c-0.2,0.7-0.2,1.4-0.5,2
					c-0.4,0.7,0,1.3,0.1,1.9c0.1,0.6,0.1,1.1,0.1,1.7c-0.1,1.4-0.4,2.7-0.6,4.1c-0.1,0.8-0.2,1.5-0.2,2.3c-0.1,0.9-0.2,1.8,0.1,2.8
					c0.3,0.7,0,1.6-0.1,2.4c0,0.7-0.2,1.3-0.2,2c0,1.5-0.1,3.1,0.1,4.6c0.3,1.5-0.4,2.9-0.1,4.4c0,0.2,0,0.5,0.1,0.7
					c0.5,1.5,0.2,3-0.1,4.4c0,0.1-0.1,0.2-0.1,0.3c0.2,1.2,0.4,2.4,0.6,3.6c0,0.1,0,0.1,0,0.2c-0.2,1-0.3,2.1-0.6,3.1
					c-0.2,0.7-1.4,0.8-1.9,0.2c-0.7-0.8-1.5-1.5-1.1-2.8c0.2-0.5,0-1.1-0.1-1.6c0-0.4-0.1-0.9-0.1-1.3c-0.1-1.6-0.1-3.2-0.2-4.8
					c0-1.5,0-2.9,0-4.4c0-0.4,0-0.7,0.1-1.1c0.1-2.2,0.1-4.4,0.1-6.7c0-1.7-0.2-3.4-0.2-5.1c0-1.6,0.2-3.1,0.4-4.7
					c0.1-1.3,0.3-2.7,0.5-4c0.1-0.4,0.2-0.9,0.3-1.3c0-0.1,0.1-0.3,0.1-0.3c-0.8-1.7,0.1-3.5-0.2-5.3c-0.2-1,0.1-2.1,0.1-3.1
					c0-0.3-0.1-0.5-0.1-0.8c0-0.7,0-1.3,0.1-2c0-0.2,0.1-0.4,0.1-0.5c0-2.6-0.1-5.1-0.2-7.7c0-1-0.2-2,0-3c0.3-2.5-0.2-5-0.1-7.5
					c0-1.4-0.3-2.8-0.3-4.2c0-0.9,0.2-1.8,0.3-2.9c-0.1-0.5-0.3-1.1-0.3-1.8c0-0.7-0.2-1.1-1-1c-0.3,0-0.6,0-0.8-0.1
					c-1.2-1-2.8-1.4-3.5-3c-0.2-0.4-0.6-0.8-1-1.2c-1.5,2.3-2.5,2.6-4.6,1.6c-0.4,1-1,1.9-1.3,2.9c-0.8,2.5-2.9,3.7-5.1,4.6
					c-1.1,0.5-2.5,0.8-3.8,0.1c-0.1,0-0.1,0-0.2,0c-0.7-1.1-2.1-1-3-1.7c-0.7-0.6-0.8-0.9,0-1.5c0.6-0.5,1.3-0.9,1.8-1.5
					c1-1.1,1.6-2.4,1.2-4c-0.3-1.1-0.2-2.3-0.2-3.4c0-1.1-0.1-2.1-0.5-3.1c-0.4-1-0.4-2.2-0.6-3.3c-0.2-0.8-0.5-1.5-0.9-2.4
					c-0.9,0.7-1.6,1.4-2.4,2c-0.3,0.3-0.8,0.4-1.2,0.7c-0.4,0.3-0.8,0.7-1.1,1.1c-0.7,0.7-1.5,1.3-1.8,2.3c-0.1,0.2-0.2,0.4-0.2,0.6
					c0.4,1.7-1,2.6-1.5,3.9c-0.3,0.6-0.8,1.1-0.9,1.7c-0.4,1.3-1.3,2.4-0.8,3.9c0.1,0.3-0.4,0.8-0.5,1.3c-0.1,0.7-0.2,1.5-0.3,2.2
					c-0.3,2.1-0.7,4.2-0.9,6.3c-0.1,1.1,0,2.3-0.1,3.5c-0.4,5.3-0.8,10.7-1.1,16c-0.3,4-0.5,8-0.8,12.1c-0.1,1-0.4,2-0.6,3.1
					c0,0.2,0,0.4,0,0.6c0.2,2.6-0.3,5.2-0.8,7.7c-0.1,0.4,0,0.8,0,1.2c0,0.2,0.2,0.5,0.1,0.7c-0.3,1.3-0.7,2.6-1.1,3.9
					c-0.1,0.4-0.1,0.9,0,1.3c0.4,1.6,0.1,3.1-0.2,4.6c-0.1,0.3-0.2,0.6-0.1,0.9c0.6,1.5,0,2.9,0.1,4.4c0,1.2-0.4,2.3-0.4,3.5
					c0.1,1.1-0.5,2.3-1,3.4c-0.4,0.9-1.6,0.9-2.4,0.4c-0.7-0.4-1-1.5-0.7-2.3c0.4-0.9,0.8-1.8,1-2.7c0.2-0.7,0-1.5,0.1-2.3
					c0-1.3,0.1-2.5,0.2-3.8c0.1-1.8-0.2-3.7,0.3-5.2c0.8-2.3,0-4.7,0.7-6.9c0.2-0.6,0.1-1.4,0.1-2.1c0-0.6,0.1-1.1,0.2-1.7
					c0.1-0.6,0.3-1.3,0.3-1.9c0-1.1,0.1-2.1,0.6-3.1c0.2-0.5,0.2-1.2,0.1-1.7c-0.4-1.5,0-2.9,0.3-4.3c0.1-0.9,0.2-1.8,0.3-2.8
					c0.2-1.6,0.4-3.3,0.5-4.9c0.1-0.8,0-1.7,0-2.5c0-0.5,0.1-0.9,0.2-1.4c0.1-0.3,0.2-0.6,0.3-0.9c0.4-1,0.6-2-0.5-2.7
					c-0.1,0-0.1-0.2,0-0.3c0.3-1.1-0.5-2.4,0.4-3.4c0.1-0.1,0-0.3,0-0.4c0.1-1.3,0.1-2.7,0.2-4c0.1-1.3,0.3-2.6,0.6-3.9
					C326.4,170,326.8,169.6,327.1,169z M346.7,100.8c0.2-0.5,0.4-0.9,0.7-1.4c0.5-1,1.1-2,1.5-3.1c0.3-0.6,0.5-1.3,0.8-2
					c0.4-1,0.8-1.9,1.2-2.9c0-0.1,0.1-0.1,0.2-0.2c0.7-0.4,1.1-0.9,1.1-1.7c0-0.2,0.1-0.3,0.2-0.5c0.7-0.8,1.4-1.7,2.2-2.4
					c0.5-0.5,1-0.9,1.6-1.2c1-0.4,1.9,0.4,1.8,1.4c-0.1,0.6-0.1,1.2-0.1,1.7c0.1,0.1,0.2,0.1,0.3,0.2c0.6-0.5,1.2-0.9,1.9-1.3
					c0.6-0.4,1.2-0.7,1.8-1.1c0.6-0.4,1.1-0.8,1.6-1.2c0.2-0.1,0.3-0.3,0.5-0.4c0.4-0.3,1-0.4,1.3-0.8c0.6-0.7,1.2-1.5,2.3-1.4
					c0.1,0,0.2-0.1,0.3-0.2c0.4-0.3,0.7-0.7,1.1-1c1.3-1,2.6-1.9,3.8-3c0.7-0.7,1.1-1.7,1.7-2.4c0.6-0.8,1.4-1.6,2.1-2.4
					c0.7-0.9,1.3-1.8,2-2.6c0.1-0.1,0.4-0.2,0.6-0.3c0.7-0.1,1.3,0,1.8,0.6c0.5,0.7,0.2,1.3-0.2,1.9c-0.3,0.5-0.8,1-1,1.6
					c-0.2,0.6-0.4,1.1-1,1.4c-0.2,0.1-0.3,0.3-0.5,0.4c2.1,2.3,4,4.5,6.1,6.6c1.1,1.2,2.3,2.3,3.5,3.4c1.1,1,2.3,2.1,3.5,3
					c1.1,0.7,2.4,1.2,3.7,1.8c0.1-0.4,0.1-0.6,0.1-0.8c0.2-0.7,0.6-1.2,1.3-1.3c0.7-0.1,1.3,0.2,1.6,0.9c0.2,0.7,0.5,1.6,0.3,2.2
					c-0.4,1.4,0.2,2.7-0.1,3.9c1.3,0.2,2.3-0.4,3.7,0.2c1.4,0.7,2.1,1.7,3,2.7c0.2,0.2,0.2,0.8,0.1,1.1c0,1.1-0.1,2.1-0.2,3.2
					c-0.1,1,0.1,2.2-0.2,3.1c-0.5,1.4-1.6,2.5-3,3c-1,0.4-2.2,0.6-3.3,0.9c-1.2,0.3-2.1-0.4-2.2-1.6c0-0.2,0-0.4,0-0.6
					c-0.1,0-0.2,0-0.4-0.1c-0.4,1.3-0.6,2.8-1.3,4c-0.8,1.1-1.1,2.6-2.1,3.6c0.3,0.8,0.1,1.5-0.4,2.2c-0.4,0.5-0.8,1.1-1.2,1.6
					c-0.5,0.6-0.9,1.3-1.4,1.9c-1,1.1-2.1,2.2-3.3,3.2c-1.4,1.1-3,2.1-4.5,3.1c-0.5,0.3-0.6,0.6-0.3,1.1c0.5,0.9,0.8,1.8,0.5,3
					c-0.6,1.9,1.1,4.9,2.9,5.9c1.1,0.6,2.2,1.4,3.4,2.2c0.9-0.7,2.2-0.3,3.5-0.1c0.4,0.1,0.7,0,1.1,0c0.8,0,1.6,0,2.3,0
					c0.4,0,0.7,0,1.1,0c1.8-0.1,3.7-0.3,5.5-0.3c0.7,0,1.4,0.3,2.2,0.5c0.4-2.4,0.8-4.7,1.1-7c0.3-2.2,0.4-4.4,0.6-6.6
					c0-0.5,0-1,0.1-1.6c0.1-0.6,0.3-1.3,0.2-1.9c-0.3-1.2,0-2.1,0.7-2.9c-0.2-0.5-0.6-0.9-0.6-1.3c-0.2-1.4-0.2-2.9-0.3-4.3
					c0-0.1,0-0.1,0-0.2c0.2-1.4,0.4-2.7,0.6-4.1c0-0.4-0.2-0.8-0.3-1.2c-0.1-0.3-0.1-0.7-0.1-1c0.1-1.1,0.3-2.2,0.2-3.3
					c0-2-0.2-4-0.3-6c0-0.2-0.1-0.4-0.2-0.6c-0.1-0.3-0.1-0.6-0.1-1c-0.6-0.5-0.9-3.1-0.4-4.4c-0.3-0.8-0.6-1.3-0.7-1.9
					c-0.3-1.9,0-3.9-0.7-5.8c-0.1-0.1,0-0.3,0-0.5c-0.2-1.5-0.3-2.9-0.5-4.4c-0.1-1.1-0.1-2.3-0.5-3.4c-0.3-1-0.1-2.1-0.9-3
					c-0.5-0.6-0.9-1.4-0.9-2.2c0-0.9-0.1-1.5-0.8-2c-0.1-0.1-0.1-0.3-0.2-0.5c-1-1.8-1.9-3.7-3-5.4c-0.8-1.4-2.5-2-3.5-3.4
					c-0.5-0.8-0.8-1.4-0.4-2.3c-1.1,0.1-1.8-0.2-2.6-1c-0.9-0.9-1.8-1.7-3-2.2c-1.4-0.6-3-1.1-4.3-1.9c-1.3-0.8-2.7-0.5-4.1-0.7
					c-1.4-0.3-3-0.1-4.5,0.3c-1.6,0.4-3.3-0.5-4.7,0.7c-1.2-0.2-2.4-0.3-3.7,0.1c-1,0.3-2.1,0.3-3.2,0.4c-1.1,0.2-2.3,0.5-3.4,0.8
					c0,0.7-0.5,1.1-1.4,1.3c-0.5,0.1-1,0.2-1.3,0.5c-0.5,0.5-0.9,0.5-1.4,0c-0.1,0.3-0.1,0.6-0.2,0.8c-0.1-0.1-0.1-0.2-0.2-0.2
					c-0.8,0.5-1.8,0.8-2.4,1.5c-0.7,0.7-1.2,1.6-1.8,2.4c-0.9,1.2-1.8,2.3-2.6,3.5c-0.7,1.1-1.3,2.2-1.9,3.4
					c-0.6,1.3-0.8,2.8-1.7,3.9c-1,1.2-1,2.8-1.9,3.9c-0.3,0.4-0.2,1.2-0.3,1.8c-0.1,0.4-0.3,0.8-0.4,1.2c-0.2,0.5-0.5,1-0.6,1.6
					c-0.2,1-0.4,2-0.6,2.9c0,0.2,0,0.4,0,0.5c-0.1,0.5-0.1,0.9-0.2,1.4c-0.1,0.6-0.4,1.1-0.4,1.7c-0.1,1,0,2-0.3,2.9
					c-0.6,1.6-0.9,3.2-1.3,4.9c0,0.2-0.1,0.3-0.1,0.5c0,1.6,0,3.3-0.1,4.9c0,0.5-0.2,0.9-0.3,1.4c-0.2,1.3-0.3,2.6-0.4,3.9
					c-0.1,1.1-0.4,2.1-0.5,3.2c-0.1,1.4-0.2,2.9-0.3,4.4c-0.1,1.4-0.3,2.9-0.2,4.3c0.1,2.4,0.4,4.8,0.7,7.2c0.2,1.2,0.6,2.3,0.9,3.4
					c0.2,0.7,0.4,1.3,0.6,2c0.3,1,0.5,2.2,1,3.1c0.6,1,1.3,2,1.7,3.2c0.7,2,1.8,3.9,2.6,5.9c0.8,2.2,2.4,4.1,1.8,6.7
					c0,0.1,0.1,0.2,0.1,0.3c0.3,1.2,0.6,2.4,0.8,3.7c0.1,0.9,0.3,1.9,0.1,2.9c-0.3,1.6-0.8,3.2-1.2,4.9c0.8-0.1,1.5-0.3,2.1-1
					c1.3-1.5,2.4-3.1,2.7-5.2c0.1-0.8,0.3-1.6,0.7-2.2c0.3-0.5,1.1-0.7,1.7-0.8c0.7-0.1,1.1,0.4,1.4,1c0.1,0.2,0.2,0.4,0.3,0.7
					c0.2-0.3,0.4-0.4,0.5-0.6c1.1-2.4,1.4-5,1.1-7.6c-0.2-1.5-0.1-3.1-0.2-4.6c0-1.2,0.1-2.3,0.1-3.5c0-0.9,0.5-1.4,1.3-1
					c0.5,0.2,1.1,0.7,1.3,1.3c0.3,0.6,0.4,1.4,0.7,2.2c0.6-1,1.1-2,1.5-2.9c0.1-0.2,0-0.4,0-0.6c0.2-0.7,0.3-1.4,0.5-2.2
					c0.1-0.2,0.2-0.5,0.2-0.7c0.2-0.9,0.5-1.8,0.7-2.7c0-0.2,0-0.6-0.2-0.7c-0.4-0.4-0.9-0.6-1.3-0.9c-0.7-0.5-1.2-1.2-2.2-1
					c-0.2,0-0.4,0-0.5-0.2c-1.1-1.1-2.1-2.4-3.4-3.3c0,0-0.1-0.1-0.1-0.2c-0.9-1-1.8-2-2.7-3.1c-0.7-0.9-1.6-1.7-2.1-2.7
					c-0.6-1.1-0.3-2.6-1.6-3.4c-0.2-0.1-0.1-0.5-0.2-0.8c-0.1-0.6-0.2-1.3-0.4-1.9c-0.1-0.5-0.5-0.9-0.6-1.4
					c-0.1-0.3-0.1-0.7-0.2-1.1c-0.2-0.7-0.4-1.4-0.7-2.1c-0.2-0.6-0.3-1.3-0.6-1.8c-0.1-0.2-0.7-0.1-1.1-0.3c-0.5-0.2-1-0.4-0.7-1.1
					c0.4-0.8-0.1-1.6-0.3-2.3c-0.2-0.6-0.4-1.1-0.4-1.7c0-0.9,0.5-1.9,0.2-2.6c-0.6-1.5,0.5-2.8,0-4.3c-0.3-0.9,0.1-2.3,0.6-3.2
					c0.6-1.2,0.4-2.4,0.7-3.5c0.2-1,0.3-2,0.8-2.9c0.3-0.6,0.4-1.1,0.5-1.8c0.1-0.7,0.2-1.6,0.6-2.2c0.4-0.7,1.1-0.3,1.6,0.1
					c0.5,0.4,1.1,0.8,0.6,1.7c-0.3,0.5-0.6,1.1-0.7,1.7c-0.2,1.4-0.2,2.8-0.5,4.2c-0.2,0.9-0.7,1.6-0.6,2.6c0.1,1.3-0.3,2.7-0.5,4
					c-0.1,1.1-0.2,2.1-0.3,3.2c0,0.6-0.1,1.1-0.1,1.7C346.5,99.3,346.6,100.1,346.7,100.8c-1.2,0.6-0.3,1.7-0.7,2.5
					c0.1,0,0.2,0,0.3,0.1C346.5,102.5,346.6,101.7,346.7,100.8z M351.4,114.2c1,0.4,1,0.4,1.2,1.3c0,0.2,0.2,0.4,0.3,0.6
					c1.8,2,3.6,4,5.4,5.9c0.3,0.3,0.5,0.6,0.8,0.8c0.6,0.6,1.3,1.2,1.9,1.7c0.2,0.2,0.4,0.3,0.7,0.4c1,0.3,2.1,0.4,2.9,1
					c1.4,1,2.9,0.9,4.5,1c0.9,0,1.9-0.1,2.8-0.2c1.3,0,2.6,0.1,3.8-0.1c2-0.3,3.6-1.6,5.4-2.5c1.5-0.8,2.8-1.9,4.1-2.9
					c0.5-0.5,0.8-1.3,1.3-1.8c1.5-1.6,2.6-3.3,3.4-5.4c0.8-2.2,2-4.2,2.8-6.4c0.7-1.8,1.2-3.8,1.4-5.7c0.1-2.1,0.7-4.2,1-6.3
					c0.1-0.6,0.2-1.1-0.7-1.1c-0.3,0-0.6-0.2-0.8-0.4c-0.6-0.4-1.1-0.8-1.7-1.1c-0.6-0.3-1.4-0.3-1.9-0.6c-0.8-0.5-1.6-1.1-2.4-1.7
					c-0.6-0.4-1-1-1.6-1.4c-0.3-0.2-0.6-0.3-1-0.4c-0.2-0.1-0.5,0.1-0.7,0c-1-0.4-2-0.9-3-1.3c-0.4-0.2-0.9-0.2-1.3-0.1
					c-1,0.3-1.5,0.1-1.7-0.9c-0.1-0.7-0.1-1.4,0.5-2c0.5-0.5,1.1-0.3,1.6,0c0.3,0.1,0.6,0,1,0.1c0.1-0.1,0.1-0.1,0.2-0.2
					c-0.3-0.4-0.5-0.8-0.8-1.2c-0.7-1-1.5-2-2.3-3c0,0,0-0.1,0-0.1c-0.1-1.1-0.8-1.7-1.6-2.1c-0.4,0.5-0.7,1.1-1.1,1.5
					c-1,1-2.1,1.9-3.2,2.9c-0.6,0.5-1.3,1-1.8,1.6c-1,1.2-1,1.2-2,0.6c-0.7,0.5-1.3,1.1-2,1.5c-1,0.7-2.3,1.1-3.2,1.9
					c-1.1,1.1-2.8,1.1-3.5,2.6c0,0.1-0.2,0.1-0.3,0.2c-0.5,0.3-1,0.6-1.5,1c-1.4,1.1-2.9,1.2-4.3,0.1c-0.1,0.1-0.3,0.3-0.3,0.4
					c-0.6,1.2-1.3,2.3-1.8,3.6c-0.4,1.1-0.7,2.1-1.3,3.2c-0.6,0.9-0.8,2.2-1,3.3c-0.2,0.9-0.2,1.9-0.1,2.8c0.1,0.7,0.3,1.5,0.5,2.2
					c0.4,1.5,0.6,3,1.2,4.4C351.7,112.8,352,113.4,351.4,114.2z M364.2,131.7c0.1,0.1,0.3,0.2,0.3,0.4c0.1,0.6,0.3,1.3,0.2,1.9
					c-0.4,1.8-0.8,3.7-1.4,5.5c-0.5,1.6-1.3,3-3,3.8c-0.2,0.1-0.4,0.5-0.4,0.7c0,1.7,0.1,3.4,0,5.1c0,0.8,0.1,1.4,0.7,2
					c0.4,0.4,0.7,0.8,1,1.2c0.5,0.7,0.9,1.6,1.6,1.9c0.9,0.5,1.3,1.2,1.9,1.9c0.3,0.4,0.8,0.6,1.2,0.9c0.3,0.2,0.7,0.3,0.9,0.5
					c1,1.2,1.2,2.4,0.2,3.8c1.1,0.6,0.6,1.6,0.7,2.4c0.6,0,1.3-0.2,1.7,0c1.2,0.8,2.6,0.2,3.8,0.5c0.5,0.1,1.1,0,1.7-0.1
					c0.7-0.1,1.4-1.7,1.2-2.6c-0.5-2.6,0.3-4,2.6-5.2c0.8-0.4,1.7-1,2.3-1.6c1.2-1.2,2.2-2.6,3.3-3.8c0.4-0.4,1-0.6,1.3-1
					c0.6-0.8,1-1.8,1.4-2.7c0.5-0.9,1-1.9,1.4-2.8c0.3-0.6,0.2-1.1-0.5-1.3c-0.3-0.1-0.7-0.2-0.8-0.4c-0.3-0.6-0.7-0.5-1.2-0.3
					c-0.7,0.3-1.3,0.1-1.8-0.4c-1-1-2.4-1.3-3.2-2.6c-0.6-0.9-1.3-1.8-1.9-2.7c0,0,0-0.1,0-0.2c-0.1-0.5-0.3-1-0.4-1.4
					c-0.1-0.3-0.2-0.6-0.2-1c0-0.8,0-1.7-0.1-2.5c-0.1-0.8-0.2-1.6,0.3-2.3c0.1-0.1,0-0.3,0-0.5c-2.1,0.9-4.1,1.6-6.3,1.3
					c-0.7-0.1-1.4,0.6-2.1,0.5c-1.6-0.1-3.2,0.2-4.8-0.6c-0.6-0.3-1.1-0.2-1.2,0.7C364.7,131,364.3,131.3,364.2,131.7z M398.1,99.7
					c-0.1,0-0.2-0.1-0.3-0.1c-0.7,2.7-1.8,5.3-1.4,8.1c0.8-0.3,1.6-0.7,2.3-0.8c1.8-0.2,3-1.1,3.3-3c0.1-0.5-0.1-1.1,0-1.7
					c0.4-1.3-0.2-2.2-1-3.1c-0.8-0.7-1.3-0.7-2.1,0C398.7,99.4,398.3,99.5,398.1,99.7z"/>
				<path class="st1" d="M338.2,177.4c-0.4-0.5-1-1-1-1.5c0-0.5,0.5-1.1,0.8-1.6c-0.2-0.3-0.7-0.6-0.8-1c-0.4-1.1-0.6-2.3-0.9-3.5
					c-0.3-1.6-0.6-3.3-0.9-4.9c-0.1-0.4-0.1-0.9-0.1-1.3c0-0.5-0.1-1-0.1-1.5c0-0.5-0.1-1.1,0.2-1.3c0.3-0.3,0.9-0.4,1.4-0.3
					c1.4,0.3,1.6,1.6,1.8,2.7c0.5,2.3,0.9,4.5,1.2,6.8c0.1,0.9,0,1.9-0.2,2.9c0,0.3-0.5,0.5-0.7,0.7c0.4,0.7,1.4,1.2,1.1,2.4
					c-0.2,0.6,0.2,1.3,0.3,1.9c0.2,0.8,0.4,1.5,0.4,2.3c0,1.1,0.7,2.2,0.2,3.3c-0.1,0.3-0.3,0.6-0.5,1c0.6,0.9,1.2,1.8,0.8,3.1
					c-0.2,0.5,0.1,1.2,0.1,1.8c0,1.5-0.1,2.9-0.1,4.4c0,1.1,0.2,2.2,0.1,3.3c0,1.4-0.2,2.7-0.2,4.1c0,1,0.2,2.1,0.3,3.1
					c0,0.3,0.1,0.7,0.1,1c0,1.3-0.1,2.7-0.2,4c-0.1,1.4-0.1,2.7-0.1,4.1c0,1.4,0.1,2.9,0.1,4.3c0,0.6,0.1,1.3,0.1,1.9
					c-0.1,2.5,0,5.1-0.3,7.6c-0.2,1.2-0.2,2.3-0.2,3.5c0,0.9-0.1,1.8,0,2.8c0.1,0.8-1.1,2-2,2.1c-0.6,0.1-1.8-1-1.8-1.8
					c0.2-1.7,0.5-3.4,0.7-5.1c0-0.1,0.1-0.3,0-0.4c-0.7-1-0.3-2,0-3c0-0.1,0-0.1,0-0.2c-0.1-1.5-0.2-2.9-0.2-4.4
					c0-1.2,0.2-2.4,0.2-3.5c0-0.7-0.1-1.3-0.1-2c0-0.2-0.1-0.4-0.1-0.5c0.1-1.1,0-2.1-0.1-3.2c-0.2-1.5,0.2-3,0.2-4.5
					c0-1.4,0-2.8,0-4.1c0-1.3,0.1-2.6,0.1-3.8c0-0.1,0-0.2,0-0.4c0-1.1-0.1-2.3-0.1-3.4c0-0.8-0.2-1.6-0.2-2.4
					c0-1.6,0.1-3.2,0.2-4.8c0-0.3,0.1-0.6,0-0.9c-0.4-0.9-0.1-1.6,0.5-2.3c-0.6-1.1-0.9-2.1-0.8-3.4c0.1-0.4-0.1-0.9-0.1-1.3
					C337.3,178.9,337.5,178.1,338.2,177.4z"/>
				<path class="st1" d="M401.5,232.6c-0.2-1.7-0.5-3.4-0.7-5.1c-0.1-1,0-2.1-0.1-3.1c-0.1-2-0.6-4-0.4-6c0.1-1.2-0.3-2.1-0.4-3.2
					c-0.1-1.9,0.2-3.8,0.3-5.6c0-0.5-0.1-1-0.2-1.4c-0.2-0.7-0.3-1.2,0.1-1.9c0.2-0.5,0.3-1.1,0.2-1.7c0-1.2-0.2-2.3-0.2-3.5
					c0-1.6,0.2-3.3,0.1-4.9c-0.2-2.6,0.4-5.2,0.6-7.7c0.2-1.6,0.2-3.2,0.4-4.8c0-0.4,0.2-0.8,0.4-1.1c0.2-0.4,0.4-0.7,0.5-1.1
					c0.1-0.2-0.2-0.5-0.1-0.7c0.2-0.8,0.2-1.6-0.3-2.4c-0.4-0.7-0.2-1.9,0.1-2.7c0.3-0.9,0-1.6-0.1-2.5c0-0.4-0.1-0.7,0-1.1
					c0.3-1.5,0.5-3.1,0.8-4.6c0-0.1,0-0.3,0.1-0.4c0.8-1.3,0.5-2.8,0.8-4.1c0.2-1.3,0.5-2.5,1.1-3.7c0.4-0.7,1.1-0.8,1.6-0.2
					c0.3,0.4,0.6,0.9,0.6,1.4c0,1-0.3,2-0.4,3c-0.1,1-0.1,2-0.2,2.9c-0.1,1-0.4,1.9-0.6,2.9c-0.1,0.3-0.1,0.6-0.1,0.9
					c0,0.4,0.3,0.8,0.2,1.1c-0.3,1.1-0.8,2.1-1.2,3.2c-0.1,0.2,0,0.5,0,0.7c0,0.8,0,1.7-0.1,2.5c-0.2,1.4-0.7,2.8-0.2,4.2
					c0.1,0.2,0.1,0.4,0.1,0.5c-0.3,1.8,0.2,3.5-0.1,5.3c-0.3,1.5,0,3.1,0,4.6c0,0.5-0.2,1-0.3,1.5c0,1.6,0.1,3.3,0,4.9
					c-0.1,1.2-0.4,2.4-0.5,3.5c0,0.2-0.1,0.4,0,0.6c0.4,0.9,0.5,1.7,0.1,2.7c-0.1,0.4,0,0.8,0,1.2c0,1.4,0,2.7,0.2,4.1
					c0.2,1.2,0,2.4-0.1,3.7c0,0.6-0.1,1.2-0.2,1.7c0,0.3-0.1,0.8,0.1,1c0.7,0.9,0.6,1.8,0.4,2.8c0,0.2,0,0.5,0,0.7
					c0.1,1.3,0.3,2.7,0.4,4c0.2,1.8,0.4,3.5,0.6,5.3c0.1,1.1,0.3,2.1,0.4,3.2c0.1,0.9-0.9,1.9-1.8,2c-0.8,0.1-1.8-0.8-1.9-1.7
					c-0.1-0.4,0-0.7-0.1-1.1C401.4,232.6,401.4,232.6,401.5,232.6z"/>
				<path class="st1" d="M357.8,80.3c0,0.1,0.2,0.4,0.3,0.6c0,0.1-0.1,0.1-0.1,0.2c-0.6-0.3-1.1-0.5-1.9-0.9
					c0.5-0.2,0.7-0.2,0.7-0.2c0-0.5-0.1-0.9-0.1-1.2c0.3-0.9,0.6-1.8,0.9-2.8c0.1-0.2,0.1-0.5,0.2-0.7c0.3-0.6,0.7-1.1,1-1.6
					c0.2-0.3,0.4-0.5,0.6-0.8c0.2-0.2,0.3-0.5,0.5-0.7c0.5-0.7,1.1-1.2,1.4-2c0.4-0.8,0.8-1.3,1.6-1.6c0.2-0.1,0.4-0.1,0.4-0.3
					c0.4-1.4,1.6-1.8,2.8-2.2c0.1,0,0.1-0.1,0.1-0.1c0.4-0.6,1-0.9,1.6-0.3c0.5,0.5,0.3,1.8-0.3,2.4c-1.2,1.2-2.3,2.5-3.6,3.6
					c-0.7,0.6-1.1,1.4-1.6,2.2c-0.9,1.2-1.9,2.4-2.8,3.7c-0.4,0.5-0.6,1.2-0.9,1.8C358.6,79.7,358.3,79.9,357.8,80.3z"/>
				<path class="st1" d="M371.8,120.9c-2.1-0.5-4.2-1-5.7-2.5c-0.5-0.4-0.7-1.2-1.1-1.7c-0.5-0.7-1.1-1.3-1.5-2.1
					c-0.2-0.4-0.2-1.1-0.1-1.6c0.2-0.6,0.8-0.9,1.5-0.7c0.3,0.1,0.7,0,0.9-0.2c1.6-1.3,3.4-1.2,5.2-1c1,0.1,2.1,0.1,3.1,0.3
					c0.9,0.2,1.7,0.7,2.5,1c0.2,0.1,0.4,0.2,0.6,0.2c1.1,0,1.7,0.6,1.8,1.7c0,0.2,0,0.5-0.2,0.6c-1.2,0.5-1.6,1.6-2.2,2.6
					c-0.5,0.9-1.6,1.4-2.4,2c-0.5,0.4-1.1,0.8-1.6,1.1C372.3,120.7,372,120.8,371.8,120.9z M373.9,114.3c-0.4,0-0.7-0.1-1-0.1
					c-0.5,0-1,0.1-1.4-0.1c-1-0.4-2-0.3-3.1,0c-1.3,0.4-1.4,0.9-0.5,1.8c0.1,0.1,0.1,0.1,0.2,0.2c0.8,0.9,1.8,1.3,2.9,1.1
					C372.6,117,373.6,116.1,373.9,114.3z"/>
				<path class="st1" d="M382.7,97.3c0.7-0.2,1.4,0.1,2-0.7c0.3-0.4,1.6-0.1,2,0.4c0.4,0.6,0.8,1.2,1,1.8c0.1,0.5,0.1,1.1-0.2,1.5
					c-0.2,0.3-0.9,0.2-1.3,0.2c-0.3,0-0.7,0-0.9,0.2c-0.6,0.5-1.3,0.5-2,0.2c-0.7-0.3-1.4-0.6-2.1-0.8c-0.7-0.2-1.4,0-2-0.2
					c-0.8-0.2-1.6-0.6-2.2-1c-0.4-0.2,0.2-1.9,0.8-2.1c0.8-0.3,1.7-0.4,2.4-1.1C381,95.3,382.2,96,382.7,97.3z"/>
				<path class="st1" d="M354,100.6c0-0.9,0-1.6,0.1-2.3c0.2-1.6,1.3-2.1,2.8-1.5c0.4,0.1,1-0.1,1.4-0.3c0.8-0.4,1.5-0.5,2.3,0
					c0.2,0.1,0.5,0.1,0.7,0.1c0.5,0.1,1.1,0.2,1.4,0.5c0.5,0.5,0.8,1.2,0.5,1.9c-0.1,0.3-0.5,0.5-0.8,0.5c-1.6,0.2-3.2,0.4-4.8,0.6
					c-0.4,0.1-0.8,0.5-1.1,0.8c-0.5,0.5-1,0.6-1.5,0.2C354.8,100.9,354.4,100.8,354,100.6z"/>
				<path class="st1" d="M370.7,104.5c0.7,0,1.4,0.1,1.4,1c0,0.8-1,1.6-1.8,1.6c-0.6,0-1.3-1-1.1-1.9c0.1-0.4,0.8-0.6,1.3-0.9
					C370.6,104.3,370.7,104.4,370.7,104.5z"/>
			</g>
		</g>
	</g>
	<g>
		<path class="st9" d="M106.2,149.3c0,0-13.6-1.7-17.5-4.8c-3.9-3.1-4.9-6.2-4.9-6.2s-4.7-1.3-12.6,3.5S57.3,168.5,54,173.6
			c-3.3,5-7.2,16-7.2,16l-5.7,5.7c0,0,6.6,2.2,9.2,3.9c2.6,1.7,5.3,10.5,5.3,10.5l15.3-23.2c0,0,3,22.6,1.7,27.2
			c-1.3,4.7-2.2,18.2-2.2,18.2h70.1c0,0-1-23.6-1-28.4s0-15.3,0-15.3s9.2,13.1,10.9,14.4c1.7,1.3,6.1,6.6,6.1,6.6s-1.7-7.9,2.6-10.5
			c4.4-2.6,9.6-4.4,9.6-4.4l-3.9-5.2c0,0-10.6-18.3-10.1-21.2c0.5-2.9-5.6-20-9.6-22.6c-3.9-2.6-9.6-5.7-12.2-6.1s-10.5,1.7-9.2,1.7
			S119.3,145.8,106.2,149.3z"/>
		<path class="st10" d="M104.9,49c0,0-7-0.4-14,3.7c-7,4-15.1,14-17.3,18.8c-2.2,4.8-1.8,11.8-1.5,16.5s1.3,6.6,1.3,6.6l3.2-0.8
			l5.4-4.3l2,2.9c0,0,6.1-6.6,8-8.4c1.8-1.8,2.9-4,2.9-4s0.7,4.8,4.8,3.3c4-1.5,7-2.9,8.5-5.1c1.5-2.2,4.1-7,4.1-7s4.7,5.5,7.3,7.4
			c2.6,1.8,4.4,8.5,6.3,10.7c1.8,2.2,5.1,5.9,5.1,5.9s3.7,1.3,5.1-2.5c1.5-3.8,1.1-13.3-0.4-18.9c-1.5-5.5-9.2-16.5-13.6-18.8
			C117.8,52.6,112.6,48.6,104.9,49z"/>
		<g id="_x34_kO44q.tif_1_">
			<g>
				<path class="st1" d="M104.4,47.6c0.7,1,1.8,0.3,2.7,0.5c0.6,0.2,1.2,0.1,1.9,0c0.6,0,1.2-0.1,1.7-0.1c0.4,0,0.9,0,1.2,0.1
					c0.8,0.4,1.6,0.9,2.4,1.3c0.2,0.1,0.4,0.2,0.5,0.2c1.3,0,2.6,0.2,3.6,1.2c0,0,0.1,0.1,0.1,0.1c1.5-0.4,1.8,1.2,2.8,1.6
					c1,0.4,1.4,1.1,2,1.8c0.7,0.8,1.7,1.3,2.6,1.9c0.6,0.4,1.3,0.6,1.9,1.1c1.1,1,2.1,2.1,3.1,3.3c0.5,0.6,0.8,1.4,1.3,2.2
					c0.3,0.5,0.8,1,1.2,1.5c0.2,0.2,0.5,0.4,0.6,0.7c0.5,1.2,0.9,2.4,1.4,3.6c0.3,0.7,0.6,1.4,0.9,2.1c0.1,0.3,0.2,0.6,0.3,0.9
					c0,0.1-0.1,0.4,0,0.4c1.1,1.1,0.7,2.7,1.5,3.9c0.3,0.5,0.1,1.3,0.2,1.9c0.1,0.8,0.3,1.5,0.4,2.2c0.1,0.8,0,1.6,0.1,2.4
					c0.1,0.6,0.3,1.1,0.4,1.7c0.1,0.5,0.1,0.9,0.1,1.4c-0.1,0.8-0.3,1.7-0.3,2.5c0,0.8-0.2,1.4-0.9,1.8c-0.1,0.1-0.3,0.1-0.3,0.1
					c0,1.2-1,1.7-1.6,2.5c-0.8,1.3-0.8,2.1,0.6,3c0.8,0.6,1.6,1.6,1.2,2.9c0,0.1,0,0.3,0.1,0.4c0.7,0.8,0.8,1.7,0.5,2.8
					c-0.5,1.5-0.9,3-1.4,4.4c-0.1,0.4-0.4,0.8-0.6,1.2c-0.3,0.4-0.6,0.8-1,1.1c-0.8,0.6-1.6,1.1-2.3,1.7c-1,0.9-2.2,1-3.4,1
					c-0.3,0-0.5,0-0.8,0c-0.8,0.2-0.9,0.1-1.1-1c-0.4,1.1-0.8,1.9-1.1,2.8c-0.1,0.2-0.3,0.4-0.5,0.5c-0.5,0.6-1,1.2-1.6,1.7
					c-0.1,0.1-0.2,0.2-0.3,0.3c-1.8,1.4-3.1,3.3-4.3,5.2c-1.2,1.8-2.8,2.9-4.8,3.5c-1.2,0.4-1.7,1.6-1.4,2.9c0.2,0.6-0.1,1.4,0,2
					c0.1,1.2-0.1,2.8,0.6,3.7c0.9,1.1,1.1,2.6,2.2,3.5c0.6,0.4,1.3,0.6,2,0.8c0.9,0.2,1.9,0.3,2.8,0.6c1,0.3,2,0.6,3,0.9
					c0.3,0.1,0.7-0.1,0.9-0.1c-0.2,1.5-0.2,3-0.6,4.5c-0.1,0.6-1.1,1-1.7,1.4c-0.4,0.3-0.8,0.6-1.2,0.9c-1.4,1.2-2.9,2.1-4.6,2.6
					c-0.2,0-0.4,0.2-0.5,0.3c-0.6,0.3-1.1,0.8-1.8,1c-1.4,0.6-2.8,1.1-4.2,1.6c-1.3,0.5-2.6,0.7-4,0.5c-1-0.1-2,0.1-3,0.1
					c-1.5,0-3.1,0-4.6-0.2c-0.9-0.1-1.9-0.5-2.8-0.8c-1.1-0.4-2.2-0.8-3.3-1.1c-0.1,0-0.3,0-0.4-0.1c-1.4-1.4-3.4-1.6-4.9-2.7
					c-0.4-0.3-0.7-0.7-1.1-1c-0.9-0.7-1.8-1.3-2.7-2c-1-0.7-1.6-1.6-2-2.7c-1,0-2,0-2.9,0c-0.6,0-1.1-0.2-1.7-0.1
					c-0.7,0.1-1.3,0.3-2,0.5c-0.5,0.1-1,0.3-1.6,0.4c-0.2,0.1-0.4,0.1-0.6,0.2c-1.1,0.6-2.3,1-3.3,1.8c-1.3,1-2.8,1.9-3.2,3.7
					c-0.1,0.5-0.6,0.8-0.9,1.3c-1.1,1.7-2,3.6-3.2,5.2c-0.9,1.3-1.2,2.7-1.7,4.2c-0.4,1.2-1.1,2.3-1.6,3.4c-0.8,1.9-1.6,3.8-2.4,5.7
					c-1,2.3-2.1,4.6-3.1,6.9c-0.1,0.2-0.1,0.5-0.2,0.8c-0.2,0.4-0.4,0.9-0.6,1.3c-0.1,0.2-0.4,0.3-0.5,0.5c-0.4,1-0.6,2-1,2.9
					c-0.4,0.9-0.8,1.8-1.2,2.7c-0.2,0.4-0.2,0.9-0.4,1.4c-0.2,0.4-0.4,0.9-0.5,1.3c-0.5,1.4-0.9,2.8-1.3,4.3c-0.1,0.3-0.1,0.7-0.1,1
					c0.3,0,0.6-0.1,0.9-0.1c1.1,0.1,2.1,0.1,3.2,0.2c0.6,0.1,1.2,0.3,1.8,0.4c1,0.2,2.1,0.2,2.9,0.7c0.8,0.5,1.4,1.3,1.9,2.2
					c0.4,0.7-0.1,1.1-0.9,1c-0.8-0.1-1.6-0.4-2.5-0.5c-1-0.1-2-0.2-3-0.2c-0.1,0-0.1,0-0.2,0c-1.2-0.2-2.4-0.5-3.6-0.7
					c-0.3-0.1-0.6-0.1-0.9-0.1c-0.6,0-1.1,0-1.7,0.1c-0.4,0-0.7,0.1-1.1,0.3c-0.8,0.4-1.7,0.7-1.8,1.9c0.6,0.5,1.1,0.8,2.1,0.2
					c0.7-0.4,1.7-0.4,2.6,0.2c0.7,0.6,1.7,0.8,2.5,1.2c0.7,0.4,1.3,1,2,1.6c0.3,0.3,0.7,0.5,1,0.8c0.3,0.3,0.6,0.6,0.7,1
					c0.2,0.6,0.3,1.2,0.4,1.7c0.3,1.3,0.6,2.5,0.9,4.1c0.7-1.3,1.4-2.3,1.8-3.4c0.6-1.5,1.8-2.6,3-2.5c0.1-1.4,1-2.4,1.8-3.4
					c0.2-0.2,0.3-0.4,0.4-0.7c0.8-1.9,1.9-3.7,3.4-5.2c0.3-0.3,0.6-0.8,0.8-1.2c0.4-1.2,0.7-1.5,2-1.5c0-0.2,0.2-0.4,0.1-0.5
					c-0.4-1.5,0-3.1,0-4.6c0-1.7,0-3.4-0.3-5.1c-0.3-1.9-0.9-3.7-1.2-5.6c-0.2-0.9-0.1-1.9-0.2-2.8c0-0.5-0.2-0.9-0.3-1.4
					c0-0.4,0-0.9,0-1.3c0-0.2,0.1-0.5,0-0.7c-0.4-1,0.1-2.5,1-3c0.5-0.3,0.9-0.2,1,0.4c0.2,0.8,0.4,1.6,0.6,2.4
					c0.2,0.9,0.2,1.8,0.4,2.7c0.1,0.6,0.5,1.2,0.6,1.8c0.1,0.6,0.2,1.2,0.2,1.8c0.1,0.8,0.3,1.5,0.4,2.2c0.2,1.4,0.3,2.8,0.5,4.1
					c0.2,1.2,0.4,2.3,0.5,3.5c0,0.3,0,0.7-0.2,0.8c-0.6,0.6-0.3,1.2-0.2,1.9c0.1,0.6,0.3,1.2,0.3,1.9c0.1,1.7,0.2,3.4,0.2,5
					c0,1.6,0,3.3-0.1,4.9c0,0.7-0.3,1.4-1.1,1.5c-0.8,0.1-1.7-0.1-2-1c-0.3-0.8-0.6-1.6,0-2.4c0.1-0.1,0.1-0.4,0.1-0.5
					c-0.2-0.8-0.4-1.6-0.5-2.4c-0.2,0.2-0.5,0.5-0.6,0.8c-1,1.6-2,3.3-3,4.9c-0.4,0.6-0.9,1.2-1.4,1.6c-0.7,0.6-0.6,1.8-1.8,1.9
					c0,0-0.1,0.1-0.1,0.1c0,1.5-1.3,2.2-2,3.2c-0.8,1.3-1.7,2.5-2.5,3.7c-0.4,0.6-0.7,1.3-1,1.9c-0.1,0.1-0.2,0.1-0.3,0.2
					c-0.1-0.2-0.3-0.3-0.4-0.5c-1.3,0.9-0.9,2.4-1.4,3.7c-0.2,0.5-0.3,1.1-0.5,1.5c-0.6,0.9-0.7,1.9-1.1,2.8
					c-0.7,1.5-0.7,3.1-1.1,4.6c-0.3,0.9-0.3,1.9-0.4,2.9c0,0.2-0.1,0.5-0.2,0.7c-1.3,1.6-1.2,3.7-2.1,5.4c-0.7,1.4-1.5,2.7-3.1,3.2
					c-1,0.3-1.7-0.2-2.4-0.9c-0.3-0.3-0.5-0.6-0.8-0.8c-1.5-1-1.4-2.7-1.9-4.3c-0.4,0.4-0.7,0.8-1,1.2c-0.9,1.7-2.2,2.9-4,3.6
					c-0.1,0.1-0.3,0.1-0.4,0.2c-1.9,1.6-4.3-0.5-4.4-2.5c0-0.4,0-0.7-0.1-1.2c-0.4,0.2-0.6,0.4-0.9,0.6c-1.3,0.8-2.7,1.6-4,2.3
					c-1.1,0.6-3.2-0.2-3.5-1.4c-0.3-1.1-0.5-2.3-0.7-3.5c0,0-0.3,0.1-0.5,0.2c-0.6,0.4-1.2,0.4-1.8,0.1c-0.5-0.3-1.2-0.3-1.7-0.6
					c-1.2-0.7-1.9-1.9-2-3.2c-0.1-1.5-0.3-3-0.2-4.5c0.1-0.9,0.6-1.7,0.9-2.6c0.5-1.4,0.9-2.8,1.3-4.3c0.5-1.4,1-2.8,2.2-3.9
					c0.1-0.1,0.2-0.2,0.3-0.3c0.5-1,0.9-2,1.3-3c0-0.1,0-0.2,0.1-0.5c-0.5,0-1,0.1-1.5,0.1c-0.7,0-1.4-0.2-2.2-0.3
					c-1.3-0.2-2.6-0.4-4-0.7c-0.6-0.1-1.2-0.2-1.7-0.5c-1-0.7-1.9-1.5-2.7-2.4c-0.3-0.3-0.4-1-0.4-1.5c-0.1-0.5,0-1.1,0-1.7
					c0-0.3,0-0.7,0.2-1c0.7-1.5,3.2-2.4,4.7-1.7c0.4-1.4,1.7-1.1,2.7-1.4c0.9-0.3,1.8-0.5,2.8-0.7c0.8-0.2,1.7-0.1,2.4-0.4
					c1.1-0.4,2.4-0.4,3.2-1.3c0.8-0.9,1.8-1.2,3-1.2c1-0.1,2-0.4,3.1-0.4c0.9,0,1.9,0.2,2.8,0.4c0.1,0,0.3,0.2,0.3,0.1
					c1.2-0.8,2.2,0.3,3.4,0.3c0.6,0,1.3,0.6,1.8,1c0.6,0.6,1,0.6,1.6,0.1c1.1-1,2.4-1.9,3.4-2.9c0.5-0.5,0.9-1.2,1.1-2.1
					c0.2-1,0.7-2,1-2.9c0.3-0.8,0.5-1.5,0.8-2.3c0.3-1,0.7-2,1-3c0.3-0.9,0.5-1.8,1.4-2.4c0.4-0.3,0.3-1.2,0.5-1.9
					c0.8-2.1,1.6-4.1,2.3-6.1c0.5-1.4,1-2.7,1.6-4.1c0.3-0.8,1-1.4,1.2-2.2c0.4-1.6,1.4-2.9,2.1-4.3c0.6-1.1,1-2.3,1.6-3.5
					c0.1-0.3,0.4-0.6,0.5-0.9c0.3-0.6,0.5-1.3,0.8-1.9c0.2-0.5,0.4-0.9,0.7-1.4c0.3-0.6,0.7-1.2,1.1-1.8c0.3-0.4,0.7-0.6,1.2-1
					c-0.1-0.7,0.2-1.3,1-1.8c0.6-0.4,1.1-1.2,1.4-1.9c0.4-0.8,1-1.3,1.6-1.9c1.3-1.1,2.6-2.2,4.2-2.7c0.9-0.3,1.8-0.5,2.7-1
					c0.6-0.3,1.6,0,2.4,0c0.3,0,0.6-0.1,0.9-0.2c0.5-0.1,0.9-0.4,1.4-0.4c0.7,0,1.5,0,2.2,0.2c0.9,0.2,1.7,0.5,2.6,0.7
					c0.2,0.1,0.4,0.1,0.6,0c0.7-0.1,1.5-0.1,2.2-0.2c0.5-0.1,1,0,1.4-0.2c1.4-0.8,2.7-1.9,4.2-2.5c1-0.4,1.2-1,1.4-1.8
					c0-0.1,0.1-0.3,0.2-0.3c1-0.7,0.8-1.8,1-2.7c0.2-1,0.4-2,0-3.1c-0.1-0.3,0.2-0.7,0.4-1.1c-1.3-0.8-2.6-1.6-3.8-2.5
					c-0.8-0.7-1.4-1.6-2.2-2.4c-0.2-0.2-0.3-0.4-0.5-0.6c-1.4-1.4-2.7-2.8-4.1-4.2c-0.2-0.2-0.5-0.6-0.4-0.9
					c0.3-1.3-0.6-1.8-1.4-2.4c-0.2-0.1-0.4-0.3-0.4-0.5c-0.4-0.9-0.7-1.7-1.2-2.7c0,1-0.6,1-1.2,0.8c-0.5-0.1-1.1-0.1-1.7-0.1
					c-1.2,0-2-0.6-2.8-1.4c-0.5-0.5-1.2-0.8-1.9-1.3c-0.3-0.2-0.7-0.4-0.8-0.7c-0.5-1.5-1.9-2.6-1.8-4.4c0-0.7-0.2-1.5-0.5-2.1
					c-0.3-0.7-0.2-1.2,0.3-1.8c0.2-0.3,0.4-0.6,0.3-0.9c-0.2-1.9,1.1-2.8,2.4-3.8c1.1-0.9,2.2-0.6,3.2-0.8c0.4-0.5,0.8-0.8,1.1-1.3
					c0.3-0.5,0.6-1,0.8-1.6c0.4-1.3,1-2.6,0.5-4c-0.1-0.1-0.1-0.3-0.1-0.4c0.4-0.9-0.2-1.7-0.4-2.6c0-0.2-0.1-0.5,0-0.6
					c0.7-1.1,0.4-2.3,0.4-3.4c0-0.7,0.2-1.2,0.9-1.4c0.5-0.1,1-0.3,1.5-0.4c0.6-0.1,0.9,0.3,0.8,0.9c-0.2,1.1-0.5,2.2-0.7,3.3
					c-0.1,0.4-0.1,0.9,0.1,1.3c0.5,1,0.3,1.6-0.5,2.1c0.8,0.4,1.6,0.7,2.6,1.1c0.2-0.5-0.1-1.6,0.8-1.7c0.4-0.8,0.7-1.4,1-2.1
					c0.5-1.1,0.9-2.3,1.4-3.4c0.5-1.1,1-2.3,1.5-3.4c0.1-0.3,0.4-0.6,0.4-0.9c0-1,0.2-1.6,1.3-1.7c-0.1-0.7,0.1-1.3,0.8-1.2
					c0.6,0.1,1.3,0.5,1.9,0.8c0.1,0,0.1,0.4,0,0.5c-0.7,1.7-1.3,3.3-2.1,5c-0.4,1-1,1.9-1.5,2.9c-0.4,0.8-0.6,1.7-1.1,2.3
					c-0.7,1-0.9,2.2-1.6,3.3c-0.2,0.4-0.5,0.7-0.6,1c-0.5,1.1-1.6,2-1.4,3.4c0,0.2-0.1,0.5-0.2,0.7c-0.7,1-2.3,1-3-0.1
					c-0.1,0.4-0.2,0.8-0.4,1.1c-0.2,0.3-0.5,0.6-0.8,0.9c0.2,0.9,0.3,2,0.6,3c0.1,0.5,0.4,0.9,0.5,1.4c0.4,1.2,0.7,2.5,1,3.7
					c0.4,1.6,0.8,3.1,1.2,4.7c0.2,0.6,0.4,1.2,0.8,1.7c0.5,0.7,0.6,1.3,0.5,2.2c-0.1,0.5,0.6,1.3,1.1,1.6c1.1,0.8,1.8,1.9,2.7,2.9
					c1.6,1.7,3.3,3.3,5,5c0.2,0.1,0.4,0.2,0.5,0.4c1.2,2,3.2,2.3,5.3,2.4c0.7,0,1.5,0.2,2.2,0.4c1.5,0.3,3,0.6,4.6,0.4
					c1.4-0.1,2.7-0.5,3.8-1.4c0.2-0.1,0.4-0.2,0.7-0.3c1.3-0.4,2.8-0.5,3.9-1.2c1.7-1,3.7-1.6,4.9-3.4c0.9-1.4,2.2-2.5,3.3-3.8
					c0.8-0.9,1.6-1.9,2.3-2.8c0.1-0.1,0.1-0.2,0.1-0.2c0.2-1.8,0.3-1.7,1.1-3.5c0.6-1.4,0.8-3,1.2-4.5c0.1-0.5,0.3-0.9,0.5-1.4
					c0.2-0.8,0.3-1.5,0.5-2.3c0.3-1,0.7-2,1-3c0.2-0.6,0.1-1.3,0.2-1.8c-0.4-0.7-0.8-1.4-1.2-2c-0.7,0.9-2.2,0.9-2.9,0
					c-0.1-0.2-0.2-0.5-0.2-0.7c0.2-1.5-0.8-2.4-1.6-3.5c-0.3-0.5-0.6-1-0.8-1.6c-0.4-1.5-1.4-2.7-2.1-4c-0.8-1.7-1.5-3.5-2.2-5.2
					c-0.4-1.1-0.8-2.3-1.2-3.4c-0.3-1-0.1-1.3,0.9-1.5c0.9-0.2,1.3,0.2,1.4,1.2c1,0.1,1.2,0.8,1.3,1.7c0.1,0.7,0.7,1.4,1,2.1
					c0.3,0.7,0.5,1.5,0.8,2.2c0.4,1.1,0.9,2.3,1.4,3.4c0.3,0.6,0.6,1.2,1,2.1c0.9,0.1,0.7,1.1,0.9,2c0.6-1.5,2-1.2,3-1.4
					c0.6-0.1,1,0.4,1.1,1c0.2,1.2,0.2,2.4,0.6,3.6c0.3,0.8,0.4,1.8,1.3,2.4c0.3,0.2,0.4,0.6,0.7,1.1c0.6-1.4,1.1-2.7,1.8-4
					c0.4-0.8,1-1.6,1.4-2.4c0.2-0.4,0.4-0.9,0.4-1.4c0-1.4,0-2.7-0.1-4.1c-0.1-1-0.3-1.9-0.5-2.9c-0.3-1.7-0.6-3.5-1-5.2
					c0-0.2,0-0.3-0.1-0.4c-0.7-1.1-1.1-2.4-1.5-3.7c-0.3-0.9-1-1.8-1.4-2.6c-0.7-1.3-1.4-2.6-2.1-3.9c-0.5-0.8-1.2-1.5-1.8-2.2
					c-0.2-0.3-0.4-0.6-0.7-0.8c-0.4-0.3-0.7-0.5-1.1-0.8c-0.4-0.3-0.9-0.7-1.3-1c-0.7-0.6-1.5-0.9-2-1.8c-0.2-0.4-0.9-0.6-1.3-0.9
					c-0.4-0.3-0.7-0.8-1.1-1c-1.2-0.7-2.5-1.4-3.8-2c-0.7-0.4-1.6-0.7-2.2-1.2c-0.9-0.6-1.8-0.4-2.7-0.5c-0.4,0-0.7-0.1-1.1-0.2
					c-0.1,0-0.3-0.2-0.3-0.2c-0.7,0.7-1.6,0-2.4,0.3c-0.2,0.1-0.6,0.2-0.8,0.1c-1.6-0.6-2.9,0.2-4.3,0.9c-0.4,0.2-1,0.1-1.5-0.1
					c-1.2-0.6-2.3-0.8-3.6-0.8c-1.5,0-2.5,0.8-3.8,1.3c-0.3,0.1-0.5,0.3-0.8,0.4c-1.5,0.6-3.1,1.2-4.1,2.6c-0.1,0.1-0.2,0.2-0.3,0.2
					C87,55.4,86.4,56.4,86,57c-0.6,0.9-1.6,0.9-2.2,1.6c-0.1,0.2-0.5,0.2-0.7,0.2c-0.2-0.1-0.3-0.4-0.3-0.6c-0.1-0.9-0.1-1.8,1-2.3
					c0.3-0.2,0.5-0.7,0.8-0.9c0.8-0.6,1.3-1.6,2-2c1-0.5,1.7-1.2,2.4-1.9c0,0,0.1-0.1,0.1-0.1c1,0.2,1.7-0.7,2.6-0.9
					c1.8-0.4,3.6-0.7,5.2-1.8c0.2-0.2,0.7-0.3,0.9-0.2c1.1,0.4,2.1,0.1,3.2,0c0.2,0,0.4-0.1,0.4,0c1,1,1.7,0.1,2.5-0.4
					C104.2,47.6,104.3,47.6,104.4,47.6z M22.9,222.1c-0.1-1.8,0.7-3.4,0.5-5.1c0-0.1,0.1-0.2,0.1-0.2c0.1-0.3,0.2-0.6,0.2-1
					c0.2-1.9,1.1-3.5,1.8-5.1c0.1-0.2,0.3-0.6,0.5-0.6c0.6-0.2,1.2-0.4,1.7-0.2c0.6,0.2,1.1,0.8,0.9,1.5c-0.2,0.8-0.6,1.5-0.9,2.3
					c-0.1,0.2-0.2,0.4-0.2,0.6c-0.2,1.1-0.3,2.2-0.5,3.3c-0.1,0.7-0.4,1.5-0.6,2.2c-0.2,0.9-0.4,1.7-0.5,2.6
					c-0.1,0.9-0.2,1.8-0.3,2.8c-0.1,0.8-0.1,1.6-0.1,2.4c0,0.4-0.1,0.9-0.2,1.3c0.2,0,0.3,0,0.3,0c1.6-1.2,3.2-2.5,4.8-3.8
					c0.1-0.1,0.1-0.2,0.1-0.3c0.2-0.5,0.3-1,0.6-1.4c0.3-0.6,0.7-1.2,1.1-1.9c0.8-1.4,1.6-2.9,2.3-4.3c0.1-0.1,0.2-0.2,0.3-0.3
					c0.6-0.9,1.4-1.8,1.9-2.8c0.5-1,1.6-1.3,2.4-0.5c0.8,0.8,0.7,1.7-0.2,3.2c-0.6,1-1,2.1-1.6,3.2c-0.1,0.2-0.2,0.4-0.3,0.6
					c-0.8,1.1-1.7,2.2-1.7,3.7c0,0.2-0.2,0.3-0.2,0.5c-0.1,0.6-0.3,1.2-0.3,1.7c-0.1,0.7-0.2,1.5-0.3,2.3c-0.1,0.3-0.2,0.7-0.3,1.3
					c0.7-0.4,1.3-0.5,1.6-0.8c0.7-1,2-1.5,2.4-2.8c0.3-1.1,0.8-2,1.8-2.7c0.1-0.1,0.1-0.3,0.1-0.5c0.1-0.3,0.1-0.6,0.3-0.9
					c0.4-0.7,0.9-1.5,1.3-2.2c0.6-1.1,1.2-2.2,1.9-3.3c0.6-0.9,1.3-1.7,2-2.4c0.2-0.2,0.7-0.3,0.9-0.2c0.6,0.4,0.7,1.6,0.4,2.3
					c-0.4,0.8-0.8,1.6-1.1,2.4c-0.2,0.6-0.3,1.2-0.6,1.8c-0.5,0.9-1.1,1.8-1.5,2.7c-0.2,0.4-0.2,1.2,0.1,1.5
					c0.6,0.9,0.6,1.8,0.7,2.7c0.1,0.9,0.3,1.8,0.5,3c0.4-0.5,0.6-0.7,0.7-0.9c0.3-0.9,0.6-1.8,0.9-2.7c0.4-0.9,0.9-1.8,1.2-2.7
					c0.3-0.9,0.8-1.9,0.6-2.8c-0.3-2,0.3-3.8,1.1-5.6c0.2-0.4,0.4-0.8,0.5-1.2c0.5-1.3,1-2.6,1.5-3.9c0.1-0.4,0.3-0.8,0.3-1.2
					c0-0.9-0.4-1.9,0.3-2.8c0-0.1,0-0.2,0-0.3c-0.2-1.3-0.3-2.6-0.7-3.8c-0.4-1.2-0.5-2.7-2.3-2.8c0,0-0.1-0.1-0.1-0.1
					c-0.3-0.2-0.7-0.5-1-0.7c-1-0.5-2-0.7-2.9-1.3c-1.2-0.9-1.2-1-2.3,0c-0.6,0.5-1.3,0.4-1.8-0.1c-0.5-0.4-1-0.8-1.5-1.2
					c-0.6-0.5-1.2-1-1.8-1.5c-0.4-0.3-0.8-0.7-1.3-0.9c-0.7-0.3-1.5-0.6-2.3-0.8c-0.2-0.1-0.4,0.1-0.6,0.1c-0.8,0-1.6,0.1-2.3,0.1
					c-0.7,0.1-1.3,0.1-1.9,0.3c-1.2,0.3-2.3,0.7-3.5,1.1c-0.3,0.1-0.5,0.1-0.7,0.3c-0.8,0.7-1.4,1.5-2.7,1.6c-1,0.1-2,0.4-3.1,0.5
					c-0.9,0.1-1.8,0.3-2.7,0.3c-1,0-2-0.6-2.7,0.6c-0.1,0.2-0.4,0.3-0.6,0.4c-0.5,0.2-0.9,0.4-1.7,0.8c0.8,0.5,1.4,0.8,1.9,1.2
					c1.4,1,3.2,0.4,4.7,1.1c1.4,0.7,3.3,0.2,5-0.2c2.1-0.6,4-0.7,5.6,1.2c0.8,0.9,1.8,1.5,3.1,1.7c0.6,0.1,1.3,0.1,2,0.3
					c0.8,0.2,1.4,1.2,1.2,2.1c-0.2,0.7-1.3,1.2-2.1,1c-0.5-0.1-1.1-0.1-1.6-0.2c-0.8-0.2-1.7-0.2-2.4-0.6c-1.1-0.6-2.1-1.5-3.2-2.3
					c-0.1,0.6,0,1.1-0.2,1.5c-0.6,1.2-1.2,2.6-2.1,3.6c-0.6,0.7-1,1.3-1.3,2.1c-1,2.2-2,4.4-2.6,6.7c-0.3,1.2-0.5,2.5-0.6,3.8
					c-0.1,0.8,0.2,1.6,0.3,2.3c0.1,0,0.3,0.1,0.4,0.1C20.8,223.8,21.8,222.9,22.9,222.1z M87.9,141c0.7,0.6,1.2,1.2,1.8,1.6
					c1.1,0.8,2.3,1.6,3.5,2.3c0.9,0.5,1.9,0.8,2.9,1.1c1.3,0.5,2.6,1,3.9,1.4c0.2,0.1,0.4,0.3,0.6,0.2c1.3-0.1,2.5,0.6,3.8,0.2
					c1.4-0.4,2.9,0,4.1-1.1c0.1-0.1,0.4,0,0.5-0.1c1.1-0.5,2.4-0.3,3.6-0.5c2.4-0.5,4.1-2.2,6.1-3.2c0.9-0.5,1.7-1.4,2.5-2.1
					c-0.5-0.2-0.9-0.5-1.3-0.4c-1.9,0.4-2.8-1.4-4.4-1.8c-0.4-0.1-0.7-0.5-1-0.9c-0.4-0.6-0.8-1.2-1.2-1.8c-0.4-0.8-0.9-1.6-1.2-2.4
					c-0.3-0.9-0.4-1.9-0.8-2.7c-0.6-1.3,0.1-2.5-0.2-3.8c0,0,0.1-0.1,0.1-0.2c0-0.2,0.1-0.5,0.1-0.8c-0.5,0.1-0.8,0.2-1.2,0.3
					c-0.8,0.3-1.6,0.9-2.5,1c-1.9,0.2-3.8,0.2-5.7-0.2c-1.3-0.3-2.6-0.2-3.9-0.3c0,1-0.6,2,0,2.9c0.1,0.1-0.1,0.3-0.1,0.4
					c-0.3,0.8-0.5,1.6-0.8,2.3c-0.3,0.8-0.6,1.7-1,2.5c-0.5,1-1.5,1.6-1.8,2.8c0,0.2-0.5,0.3-0.8,0.4c-0.7,0.3-1.4,0.6-2.1,1
					c-0.7,0.4-1.3,0.9-2.1,1.3C89,140.9,88.5,140.9,87.9,141z M80.4,109.1c0.1-0.1,0.2-0.1,0.3-0.2c-0.2-0.3-0.3-0.6-0.5-0.9
					c-0.2-0.5-0.5-0.9-0.7-1.4c-0.2-0.7-0.2-1.5-0.4-2.2c-0.5-1.6-1.1-3.2-1.6-4.8c0-0.1,0-0.2,0-0.4c-0.1-0.6-0.1-1.3-0.2-1.9
					c-0.1-0.3-0.5-0.7-0.7-0.7c-0.8,0.2-1.9,0.4-2.3,0.9c-0.7,1.1-1.4,2.4-0.5,3.8c0.1,0.2,0.2,0.5,0.1,0.7
					c-0.4,0.7,0.1,1.2,0.4,1.8c0.2,0.4,0.4,0.7,0.7,1.1c0.8,0.9,1.4,2,2.3,2.7C78.2,108.2,79.3,108.6,80.4,109.1z M128.4,108.9
					c0.1,0.1,0.2,0.1,0.2,0.2c1.1-0.6,2.3-1,3.2-1.7c0.8-0.6,1.5-1.4,2-2.3c0.6-1.1,1.9-1.9,1.3-3.4c-0.1-0.2,0.1-0.4,0.2-0.6
					c0.1-0.2,0.1-0.5,0.2-0.7c0.3-0.9-0.3-1.6-0.5-2.4c-0.3-0.8-1.9-1.6-2.6-1.4c-0.2,0.1-0.5,0.4-0.6,0.6c-0.3,1.2,0,2.5-0.9,3.5
					c-0.1,0.1,0,0.4,0,0.6c-0.1,0.4-0.1,0.7-0.2,1.1c-0.3,1.1-0.5,2.2-0.9,3.2c-0.3,0.8-0.1,1.9-1,2.5
					C128.5,108.2,128.5,108.6,128.4,108.9z"/>
				<path class="st1" d="M141.4,191.6c-0.2,0.9-0.4,1.6-0.5,2.4c0,0.2,0,0.4,0.1,0.6c0.6,0.9,0.3,1.9-0.3,2.6
					c-0.3,0.4-1.1,0.7-1.7,0.7c-0.4,0-0.9-0.6-1.1-1c-0.2-0.6-0.1-1.3-0.1-1.9c0-0.7,0-1.5,0-2.2c0-1.1,0-2.2,0.1-3.2
					c0-0.7,0-1.4,0.1-2.1c0.1-1,0.2-1.9,0.3-2.9c0.1-0.6,0.3-1.2-0.2-1.7c-0.2-0.2-0.1-0.7-0.1-1.1c0-0.1,0.1-0.2,0.1-0.3
					c0.1-2.8,0.4-5.6,1.1-8.4c0.2-0.8,0-1.8,0.3-2.5c0.5-1.2,0.7-2.5,0.8-3.8c0.1-1.1,0.5-2.2,0.9-3.3c0.2-0.7,0.8-0.9,1.2-0.3
					c0.6,0.8,1.6,1.7,0.8,2.9c-0.1,0.1-0.1,0.3,0,0.3c0.5,0.8,0.1,1.5-0.1,2.3c-0.1,0.5-0.1,1.1-0.1,1.6c-0.1,1-0.3,1.9-0.4,2.9
					c-0.1,0.6-0.2,1.2-0.3,1.8c-0.1,0.5,0,1.1-0.2,1.6c-0.5,1.6-0.8,3.2-0.4,4.9c0.1,0.6-0.1,1.4-0.1,2c-0.1,1.2-0.1,2.4-0.2,3.6
					c0,0.3,0,0.5,0,0.8c1.4,0,1.6,0.2,2.1,1.5c0.2,0.4,0.4,0.8,0.7,1.1c1.5,1.5,2.6,3.3,3.4,5.3c0.4,0.8,0.9,1.5,1.4,2.3
					c0.3,0.5,0.6,1,1,1.7c1.5-0.3,1.8,1.3,2.6,2.3c0.5,0.7,0.8,1.5,1.2,2.2c0.2,0.4,0.4,0.8,0.7,1.3c0.5-1.7,1.1-3.3,1.3-4.9
					c0.1-1.1,0.6-1.7,1.5-2.3c0.6-0.4,1-1,1.6-1.4c0.8-0.6,1.8-1,2.7-1.4c0.8-0.4,1.5-1,2.5-0.7c0.2,0,0.5,0,0.6,0.1
					c0.8,0.8,1.5,0.4,2.1-0.2c0-1.4-1.4-1.4-2.1-2.2c-0.1-0.1-0.5,0-0.8,0c-0.5,0-1.1-0.1-1.6-0.1c-0.1,0-0.2-0.1-0.2-0.1
					c-1.1,0.2-2.1,0.4-3.2,0.6c-0.4,0.1-0.8,0.2-1.2,0.3c-1.2,0.2-2.3,0.4-3.5,0.5c-0.8,0.1-1.5,0.2-2.3,0.2c-0.2,0-0.6-0.5-0.6-0.7
					c0.1-0.5,0.2-1,0.5-1.3c0.8-0.9,1.8-1.4,3-1.6c1.2-0.2,2.4-0.7,3.6-0.9c0.9-0.1,1.8,0,2.8,0.1c0.2,0,0.5,0,0.7,0.1
					c0-0.3,0.1-0.6,0-0.9c-0.6-2-1.1-4-1.8-6c-0.2-0.8-0.6-1.5-1-2.3c-0.4-1-1-2-1.1-3.2c-0.2-1.2-0.9-2.2-1.3-3.4
					c-0.3-0.8-0.5-1.6-0.8-2.4c-0.2-0.6-0.5-1.3-0.8-1.9c-0.3-0.6-0.8-1-0.4-1.8c0-0.1-0.1-0.2-0.1-0.3c-0.7-1.1-1.3-2.1-1.5-3.4
					c-0.2-1.1-0.9-2.1-1.3-3.2c-0.7-1.7-1.4-3.4-2.1-5.2c-0.5-1.3-1-2.5-1.5-3.8c-0.2-0.4-0.4-0.7-0.7-1c-0.1-0.1-0.3-0.2-0.3-0.3
					c-0.3-1.7-2.1-2.3-2.4-4.1c-0.1-0.6-1.1-0.9-1.6-1.5c-1.2-1.3-2.8-1.9-4.3-2.7c-1.1-0.6-2.3-0.9-3.4-1.4
					c-0.2-0.1-0.5-0.2-0.7-0.2c-0.9-0.3-1.8-0.7-2.9-0.5c-1.4,0.3-3,0-4.5-0.2c-0.3,0-0.8-0.5-0.8-0.7c0-0.4,0.3-0.9,0.5-1.3
					c0.1-0.2,0.4-0.3,0.6-0.3c1.6-0.3,3.2-1,4.8,0.1c0.4,0.3,1.2,0,1.8-0.1c0.8-0.2,1.4,0.1,2,0.6c0.2,0.2,0.6,0.4,0.9,0.4
					c1.2,0.2,2.4,0.2,3.2,1.2c0.1,0.1,0.2,0.1,0.3,0.1c1.6-0.5,2.1,1.1,3.2,1.6c0.9,0.4,0.7,1.7,1.8,1.9c0.1,0,0.2,0.2,0.2,0.3
					c-0.2,1.2,0.8,1.5,1.4,2.1c0.4,0.4,0.7,1,1,1.5c0,0,0,0.1,0,0.1c1,0.5,1.2,1.5,1.3,2.5c0.2,1.2,1.3,1.9,1.8,2.9
					c0.7,1.5,1.2,3.1,1.9,4.6c0.4,1,0.8,2,1.4,2.9c0.6,0.9,1.1,2.1,1.3,3.2c0.2,0.6,0.4,1.3,0.6,1.9c0.3,0.7,0.6,1.4,0.8,2.1
					c0.1,0.4-0.1,0.9-0.1,1.3c0.8,0.9,1.5,1.7,1.7,2.9c0.1,0.3,0.3,0.6,0.4,0.9c0.1,0.4,0.3,0.7,0.4,1.1c0.2,0.4,0.3,0.7,0.5,1.1
					c0.1,0.1,0.2,0.3,0.2,0.4c-0.2,1.2,0.3,2.2,0.9,3.2c0,0,0,0.1,0,0.1c0.8,2,1.5,3.9,2.3,5.9c0.3,0.7,0.5,1.5,0.7,2.2
					c0.3,1.7,1.3,2.8,2.6,3.7c0.8,0.5,1.5,1.2,2.2,1.7c0.2,0.1,0.7,0.2,0.8,0c1.1-1.3,2.7-1.4,4.2-1.9c0.1,0,0.2-0.1,0.3,0
					c1.2,0.6,2.1-0.4,3.2-0.3c1.1,0,2.1,0.2,3.2,0.4c0.9,0.1,1.7,0.3,2.6,0.5c0.3,0.1,0.6,0.2,0.7,0.4c0.9,1.1,2.2,1.3,3.4,1.8
					c1,0.4,2,0.3,3.1,0.5c1.4,0.3,2.7,0.5,4,1c0.5,0.2,0.9,0.7,1.4,1.1c1.1-0.5,2.2-0.2,3.2,0.7c0.4,0.4,1.2,0.7,1.3,1.1
					c0.2,1.2,0.2,2.5,0.2,3.7c0,0.1-0.2,0.3-0.3,0.4c-1.1,1.1-2.1,2.4-3.7,2.7c-1.3,0.3-2.6,0.4-3.8,0.6c-0.3,0-0.5,0.2-0.7,0.2
					c-0.9,0.2-1.7,0.6-2.7,0.2c-0.3-0.1-0.7,0-1.1,0.1c0,0.1-0.1,0.3,0,0.3c1.1,1.2,1.1,2.9,2.2,4.1c1,1.1,1.3,2.8,1.9,4.2
					c0.6,1.5,1,3.1,1.7,4.6c0.5,1.2,0,2.3,0.1,3.5c0,0.3,0,0.6,0,0.9c0.2,1.7-0.2,3.4-1.6,4.2c-1.2,0.7-2.6,2-4.2,0.6
					c-0.1-0.1-0.2-0.1-0.1,0c-0.2,1.1-0.3,2.3-0.6,3.3c-0.3,1.2-2.4,2.1-3.5,1.5c-1.6-0.8-3.2-1.8-4.9-2.7c0,0.2-0.1,0.6-0.1,0.9
					c-0.1,2.5-2.2,3.7-4.5,2.7c-1.4-0.6-2.5-1.5-3.5-2.5c-0.3-0.3-0.5-0.8-0.7-1.2c-0.3-0.4-0.6-0.8-1-1.4c-0.2,1-0.4,1.8-0.6,2.5
					c-0.1,0.4-0.3,0.8-0.6,1.1c-0.6,0.7-1.2,1.2-1.8,1.9c-1.2,1.3-2.6,0.8-3.7-0.2c-0.8-0.7-1.1-1.9-1.7-2.8c-1-1.5-0.8-3.4-1.9-5
					c-0.7-1-0.5-2.5-0.7-3.8c-0.2-1.1-0.3-2.2-0.5-3.2c-0.1-0.5-0.7-0.9-0.7-1.4c0-1-0.4-1.6-0.9-2.4c-0.4-0.5-0.4-1.3-0.6-1.9
					c-0.4-0.9-0.9-1.8-1.5-2.6c-0.9-1.5-1.9-3-2.9-4.5c-0.8-1.2-1.7-2.2-2.5-3.4c-0.3-0.5-0.5-1.1-0.8-1.5c-0.5-0.7-1-1.3-1.5-2
					c-0.8-1.1-1.6-2.2-2.4-3.3c-0.7-1.1-1.4-2.2-2.1-3.3C141.9,192.3,141.6,191.9,141.4,191.6z M198,199.4c-0.9-0.7-1.7-1.3-2.5-2
					c-0.1,0-0.2-0.1-0.3-0.1c-0.6,0.1-1.3,0.2-1.9,0.2c-0.5,0-1,0-1.4-0.1c-0.8-0.2-1.6-0.5-2.4-0.6c-1.7-0.2-3.4-0.4-4.5-1.9
					c-0.1-0.1-0.3-0.2-0.5-0.2c-0.3-0.1-0.7-0.1-1-0.2c-1-0.4-2-0.9-3-1.1c-0.8-0.2-1.7,0.1-2.5,0c-1.1-0.1-2.2-0.4-3.2,0.4
					c-0.1,0.1-0.3,0-0.4,0c-0.7,0.1-1.4,0.3-1.9,1c-0.4,0.5-1,0.8-1.4,1.2c-0.6,0.5-1.2,0.9-1.7,1.4c-0.6,0.6-1.3,0.7-2,0.1
					c-1-0.8-1.1-1-2.1,0c-0.2,0.2-0.4,0.3-0.6,0.4c-1.3,0.5-2.7,0.8-3.7,2c-0.1,0.1-0.3,0.2-0.4,0.2c-0.9,0-1.2,0.5-1.2,1.4
					c0,0.2-0.1,0.4-0.2,0.6c-0.8,1.7-1.3,3.5-0.6,5.4c0.1,0.3,0,0.7,0,1c0,0.6-0.1,1.2,0,1.8c0.2,0.7,0.6,1.4,0.8,2.1
					c0.4,1,0.5,2,1.1,2.8c1,1.3,1.1,2.7,1.5,4.2c0.3,1.3-0.5,2.6,0.3,3.8c0.3,0.6,0.7,1.2,0.9,1.8c0.5,1.4,0.9,2.8,1.4,4.2
					c0.1,0.4,0.4,0.7,0.6,1c0.1,0,0.2,0,0.3-0.1c0.2-0.9,0.3-1.9,0.5-2.8c0.1-0.7,0.1-1.6,0.5-2.2c0.5-0.9,0.5-1.6,0.1-2.4
					c-0.6-1.2-1.2-2.5-1.8-3.7c-0.3-0.6-0.5-1.3-0.8-1.9c-0.4-0.9-0.9-1.7-0.3-2.7c0.4-0.7,0.8-0.8,1.3-0.1c0.9,1.2,1.8,2.5,2.7,3.8
					c1.5,2.1,2.1,4.8,4.1,6.6c0.2,0.2,0.1,0.5,0.3,0.8c0.5,0.9,0.7,2,1.7,2.5c0.3,0.1,0.4,0.5,0.7,0.7c0.5,0.4,1,0.7,1.5,1.1
					c0.1-0.1,0.2-0.2,0.2-0.2c-0.1-0.3-0.2-0.6-0.2-0.9c-0.1-0.7-0.2-1.5-0.3-2.2c-0.1-0.6-0.2-1.2-0.4-1.8c0-0.2-0.2-0.4-0.2-0.6
					c0.1-1.1-0.6-1.8-1-2.7c-1-2.1-2.1-4.1-3.2-6.1c-0.4-0.7,0.1-1.7,0.9-2c0.7-0.3,1.5,0,1.8,0.7c0.5,0.9,1,1.8,1.5,2.7
					c0.8,1.3,1.7,2.6,2.6,3.9c0.6,0.9,1,1.9,1.6,2.9c0.5,0.9,0.6,2.2,1.9,2.5c0,0,0.1,0.1,0.1,0.1c0.6,0.6,1.2,1.3,1.9,1.9
					c0.5,0.4,1.1,0.7,1.7,1c-0.1-1.5,0-2.9-0.2-4.3c-0.4-2.3-0.9-4.6-1.4-6.9c-0.1-0.7-0.3-1.4-0.4-2.1c-0.1-0.6-0.1-1.3-0.3-1.9
					c-0.2-0.6-0.7-1.2-0.9-1.9c-0.3-0.9,0.1-1.8,0.9-2.1c0.7-0.3,1.7,0,2.1,0.8c0.6,1.2,1.1,2.4,1.6,3.6c0,0.1,0,0.1,0,0.2
					c-0.2,1.5,1.1,2.9,0.4,4.5c0,0.1,0.1,0.2,0.1,0.3c0.2,1,0.4,1.9,0.7,3c1,0.5,1.6,2.2,3.4,2.2c0.1-0.8,0.3-1.7,0.2-2.5
					c-0.1-2.1-0.3-4.2-1.5-6c-0.1-0.1-0.1-0.2-0.1-0.3c-0.7-2.1-1.3-4.3-2.9-6c-0.1-0.1-0.2-0.3-0.3-0.5c-0.3-0.6-0.6-1.2-0.9-1.8
					c-0.5-0.9-1.5-1.6-0.9-3.1c-0.9,0.7-1.4,1.2-2.1,1.6c-0.9,0.5-1.6,1.4-2.8,1.4c-0.9,0-1.7,0.2-2.6,0.4c-0.7,0.2-1.8-0.3-2-1
					c-0.2-0.8,0.3-1.9,1.1-2.1c0.7-0.1,1.4-0.2,2.1-0.3c1.3-0.2,2.3-1,3.2-1.9c0.9-0.9,1.9-1.5,3.2-1.4c1.3,0.2,2.7,0.6,4,0.7
					c1.2,0.1,2.4,0.1,3.5-0.1c0.8-0.1,1.5-0.5,2.2-0.6C195.7,200.9,197.1,200.6,198,199.4z"/>
				<path class="st1" d="M140.1,224.4c0.3,0.6,0.5,1.2,0.8,1.8c0.4,0.9,0.3,2.3-0.4,3c-0.7,0.8-1.9,0.7-2.2-0.4
					c-0.3-0.9-0.9-1.8-0.2-2.8c0.2-0.3-0.1-0.8-0.1-1.3c0.1,0,0.3,0,0.6,0c0-0.1,0-0.2,0-0.2c-1.1-1.1-1.5-2.6-1.2-4
					c0.3-1.5,0.4-3.1,0.3-4.6c-0.1-1-0.3-2-0.2-3c0.1-0.9,0.5-1.7,0.7-2.6c0.1-0.3,0-0.7-0.1-1c-0.1-0.6-0.5-1.3-0.3-1.7
					c0.3-0.8,0-1.4,0-2.1c-0.1-1.4,0-2.7,0-4.1c0-0.3,0-0.6,0-0.9c-0.2-1.2,0.4-2.1,1.4-2.3c1-0.2,2,0.6,2.1,1.7
					c0.1,1.5-0.1,3.1,0.1,4.6c0.1,1.1-0.4,2.2,0,3.3c0.2,0.5-0.4,1.2-0.7,2c1,1.1,0.7,2.7,0.5,4.3c-0.2,1.3-0.1,2.6-0.1,3.9
					c0,0.9,0.1,1.8,0.1,2.8c0,0.3,0.1,0.7,0.2,1C141.3,223.1,141.2,223.5,140.1,224.4z"/>
				<path class="st1" d="M71.3,224.7c0.4,0,0.6,0,0.6,0c0.1,0.6,0.3,1.2,0.2,1.7c-0.2,1-0.3,2.1-0.8,2.9c-0.6,0.9-2.1,0.1-2.3-1.1
					c-0.2-0.9-0.1-1.7,0.3-2.5c0.2-0.4,0.4-0.9,0.5-1.4c-1-0.7-1.3-1.5-0.8-2.6c0.1-0.3,0.1-0.7,0.1-1c0-1.6-0.3-3.1-0.1-4.7
					c0.1-1.5-0.1-2.9-0.1-4.3c0-0.7,0.5-1.4,0.7-2.2c-0.8-0.7-1-1.5-0.6-2.7c0.2-0.7-0.1-1.7-0.1-2.5c0-1.6,0-3.2,0.1-4.8
					c0-0.8,1-1.5,1.8-1.4c0.8,0,1.6,0.7,1.6,1.5c0,1.9,0,3.8,0,5.7c0,0.7-0.4,1.4,0,2.2c0.2,0.3,0.1,1-0.1,1.2
					c-0.9,0.9-0.4,1.7,0,2.6c0.3,0.8,0.3,1.5,0.3,2.4c-0.1,2.2-0.5,4.4,0.2,6.5c0.4,1.4-0.3,2.6-0.5,3.8
					C72.1,224.3,71.7,224.5,71.3,224.7z"/>
				<path class="st1" d="M73.3,89.4c0.3,0.6,0.5,1.3,0.8,1.9c0.2,0.4,0.7,0.7,1.1,1c-0.6,0.7-1,0.7-1.9,0c-0.4-0.3-1-0.4-1.2-0.8
					c-0.6-0.9-1.2-1.7-1.9-2.6c-0.3-0.4-0.1-1.2-0.1-1.8c-0.1-0.5-0.3-1-0.3-1.6c-0.1-0.5-0.1-0.9,0-1.4c0.1-1.2,0.3-2.4,0.5-3.5
					c0.2-1.6,0.3-3.2,0.6-4.8c0.2-0.8,0.8-1.5,0.7-2.5c0-0.2,0.2-0.5,0.4-0.7c0.2-0.3,0.5-0.7,0.5-1c0.2-1.5,0.8-2.7,1.7-3.8
					c0.2-0.3,0.3-0.7,0.5-1c0.1-0.3,0.3-0.8,0.4-0.8c0.8-0.1,0.8-0.8,1.1-1.3c0.7-0.9,1.4-2,2.7-2.2c0.6-0.1,0.8,0.2,0.7,0.6
					c-0.5,1.4-0.9,3-2.8,3.2c0.5,1.2,0,2.2-0.5,3.2c-0.4,0.9-0.5,1.9-0.9,2.8c-0.4,0.7-0.7,1.4-0.8,2.3c-0.3,1.7-0.8,3.4-1,5.1
					c-0.3,2.2-0.3,4.4-0.4,6.6c0,0.7,0.2,1.4,0.3,2.1c0,0.3-0.1,0.6-0.2,0.9C73.2,89.4,73.3,89.4,73.3,89.4z"/>
				<path class="st1" d="M93.5,83.6c0.2-0.5,0.3-0.9,0.4-1.4c0.4-1.2,0.8-2.4,1.2-3.6c0.7-1.8,1.2-3.6,2.2-5.3
					c0.6-1.1,0.8-2.2,1.2-3.3c0.2-0.6,0.3-1.3,0.7-1.9c0.3-0.4,0.8-0.9,1.3-1c0.5-0.1,1.4,0.1,1.6,0.5c0.3,0.4,0.1,1.2,0,1.8
					c-0.3,1.1-0.9,2.2-1.3,3.4c-0.4,1.1-0.7,2.3-1.2,3.3c-0.2,0.6-0.7,1-1,1.6c-0.4,0.9-0.6,1.9-1.1,2.7c-0.4,0.7-1.1,1.2-1.7,1.7
					c-0.1,0.1-0.3,0.3-0.3,0.4C95.2,83.6,94.3,84,93.5,83.6z"/>
				<path class="st1" d="M107,115.4c-1,0.1-2.1,0.3-3,0.1c-1.2-0.2-2.4,0.2-3.6-0.8c-0.8-0.7-1.5-1.5-2.1-2.3
					c-0.7-0.8,0.3-2.7,1.4-2.8c0.6-0.1,1.1,0.2,1.2,0.8c0.2,1.6,1.5,1.9,2.7,2c1.4,0.2,2.9,0.2,4.1-0.8c0.2-0.2,0.4-0.6,0.5-0.9
					c0.3-0.4,0.5-0.9,0.8-1.1c0.5-0.2,0.9,0,1.3,0.5c1.1,1.3,0.9,1.5,0,3c-0.6,0.9-1.5,1.3-2.1,2c-0.2,0.3-0.8,0.3-1.1,0.4
					C107,115.4,107,115.4,107,115.4z"/>
				<path class="st1" d="M111.7,67c0.2,1.4,0.5,2.7,0.7,4c0,0.2-0.1,0.5-0.2,0.7c-0.2,0.4-0.7,0.8-0.7,1c0.3,1.2-0.6,2-1,2.9
					c-0.1,0.1-0.1,0.3-0.2,0.3c-1.3,0.8-1.1,2.4-2,3.3c-0.6,0.7-1.4,1.2-2.2,1.7c-0.2,0.2-0.4,0.4-0.6,0.7c-0.4,0.2-0.7,0.3-1.4,0.6
					c-0.3-0.4-0.7-1-1.1-1.6c0.8-0.4,1.5-0.8,2.3-1.2c-0.4-1.3,0.8-1.9,1.6-2.6c0.3-0.3,0.8-0.5,0.5-1.1c-0.1-0.2,0.3-0.6,0.4-0.9
					c0.3-0.6,0.6-1.2,0.8-1.8c0.1-0.3,0.2-0.6,0.3-0.9c0.1-0.3,0.2-0.7,0.2-1c0,0,0-0.1,0-0.1c0.8-1.2,0.4-2.9,1.7-3.8
					C111.1,67.1,111.4,67.1,111.7,67z"/>
				<path class="st1" d="M95.5,91.7c0,0.2,0,0.4,0.1,0.6c0.7,1.2,0.5,2.3-0.2,3.3c-0.2,0.3-0.4,0.7-0.6,1c-0.6,1.1-1.1,1.2-2.4,0.8
					c-0.9-0.3-1.2-1-1.2-2c0-0.5-0.3-1-0.4-1.5c-0.1-0.3-0.3-0.6-0.2-0.9c0.4-1.2,0.6-2.6,2.1-3c0.5-0.2,1.3-0.2,1.7,0
					c0.5,0.3,0.8,1,1.2,1.5C95.7,91.6,95.6,91.7,95.5,91.7z"/>
				<path class="st1" d="M114.9,89.8c1.4,0,2.3,1.1,2.9,2c0.6,1.2,0.4,2.1-0.1,3.1c0,0.1-0.1,0.2-0.1,0.3c0,1.5-0.4,2.1-1.9,2.3
					c-0.4,0-1-0.1-1.2-0.4c-0.7-1.2-1.8-2.3-1.5-3.8c0.2-1,0.2-2.2,1-3C114.3,90.1,114.7,89.9,114.9,89.8z"/>
				<path class="st1" d="M102,102c0.4-0.4,0.7-1,1.2-1.2c0.3-0.1,0.9,0.4,1.3,0.7c0.1,0,0.1,0.2,0.2,0.2c0.4,0.5,1.1,1.1,0.4,1.7
					c-0.4,0.4-1.2,0.4-1.8,0.3C102.5,103.6,102.3,102.9,102,102z"/>
				<path class="st1" d="M81.9,59.7c-0.4,0.8-0.8,1.5-1.3,2.4c-0.2-0.5-0.3-1.1-0.4-1.4c0.5-0.4,0.9-0.7,1.2-1
					c0.3-0.4,0.4-0.9,0.6-1.6c0.4,0.7,0.7,1.3,1.1,2c-0.1,0.1-0.2,0.1-0.3,0.2C82.6,60,82.3,59.9,81.9,59.7z"/>
			</g>
		</g>
	</g>
</g>
</svg>
