<?xml version="1.0" encoding="utf-8"?>
<!-- Generator: Adobe Illustrator 25.3.1, SVG Export Plug-In . SVG Version: 6.00 Build 0)  -->
<svg version="1.1" id="レイヤー_1" xmlns="http://www.w3.org/2000/svg" xmlns:xlink="http://www.w3.org/1999/xlink" x="0px"
	 y="0px" viewBox="0 0 403.4 192.7" style="enable-background:new 0 0 403.4 192.7;" xml:space="preserve">
<style type="text/css">
	.st0{fill:#7A6150;}
	.st1{fill:#E7EFFF;}
	.st2{fill:#FFFFFF;}
</style>
<g>
	<path class="st0" d="M216.5,51.7c-2.2,0.4-3.2-0.8-2.6-2.9c0.3-1.2,0.5-2.4,0.7-3.6c0-0.1-0.1-0.2-0.1-0.2c0.3-0.8,0.8-1.5,0.9-2.3
		c0.1-0.8-0.1-1.7-0.1-2.6c0-0.7,0.1-1.5,0.3-2.2c0.1-0.4,0.4-0.8,0.6-1.3c0.1-0.2,0.3-0.5,0.2-0.6c-0.6-2,0-3.9,0.3-6.2
		c-0.7,0.5-1.3,0.8-1.9,1.2c-0.3,0.2-0.5,0.4-0.8,0.5c-1.5,0.7-3.1,1.3-4.6,2c-1.1,0.5-2.2,1-3.2,1.5c-1,0.6-2.2,0.4-2.7-0.6
		c-0.4-0.7,0.1-1.8,1.1-2.3c2.1-1.1,4.1-2.3,6.2-3.4c1.3-0.7,2.6-1.1,4.2-1.8c-1.1-1-2.1-1-3.2-1.1c-1.5-0.1-3-0.4-4.5-0.5
		c-0.7-0.1-1.4,0-2.2-0.1c-0.7-0.1-1.3-0.2-2-0.3c-0.9,0.1-1.8,0.1-2.8,0.2c-0.9,0-1.9,0.2-2.8,0.1c-1.2-0.1-2.3-0.3-3.5-0.2
		c-2,0.2-4.1,0.1-6.2,0.2c-0.4,0-0.8,0-1.5,0.1c4.1,3.3,6.8,8,11.7,10.7c0.5-0.4,1.1-1.1,1.9-1.4c0.9-0.4,1.9-0.3,2.8-0.4
		c0,0,0.2,0.1,0.2,0.2c0,0.8,0.3,1.8-0.1,2.4c-0.6,0.8-1.6,1.3-2.5,1.8c-0.3,0.2-0.8,0.1-1.2,0.2c-0.2,0-0.5,0.1-0.7,0.1
		c-1.2-0.3-2.4-0.6-3.5-1.1c-1.2-0.6-2.5-1.4-3.5-2.3c-1.4-1.2-2.6-2.7-3.9-4.1c-0.8-0.8-1.7-1.6-2.8-2.6c-0.1,0.8-0.1,1.5-0.2,2.1
		c0,0.3,0,0.8-0.2,0.9c-0.8,0.6-0.5,1.4-0.5,2.1c0.1,2.8-0.3,5.6-1.2,8.3c-0.2,0.8-0.2,1.7-0.3,2.5c-0.1,0.7-0.2,1.5-0.3,2.6
		c0.9,0,1.9-0.1,2.8,0c1.5,0.1,2.9,0.4,4.4,0.5c1.4,0.1,2.8,0,4.2,0c1,0,2,0.2,2.9,0.3c1,0.1,2.1-0.1,3.1,0.1c2,0.5,4,0.1,6,0.3
		c2.1,0.1,4.2,0.6,6.3,0.9c0.2,0,0.6,0.4,0.6,0.7c0.3,1.3-0.6,2-1.9,1.9c-0.7-0.1-1.4,0.2-2.1,0.2c-2.6,0-5.2,0-7.8-0.1
		c-1.2,0-2.4-0.4-3.7-0.4c-1.8-0.1-3.7,0-5.5,0c-0.3,0-0.6,0-0.9-0.1c-2.1-1-4.3-0.4-6.4-0.5c-0.9-0.1-1.7-0.2-2.6-0.3
		c-0.2,0-0.4,0-0.6,0c-1.9,0.6-3.2-0.7-2.8-2.6c0.4-2.2,0.8-4.4,1.2-6.6c0.4-2.1,0.8-4.1,1.1-6.2c0.3-1.9,0.6-3.9,0.8-5.8
		c0.2-1.7,0.4-3.4,0.5-5.1c0.1-0.8,1.4-1.9,2.2-1.9c0.8-0.1,1.5-0.3,2.3-0.4c2.1-0.2,4.2-1,6.4-0.3c1.1,0.3,2.3,0.1,3.5,0
		c0.9,0,1.9-0.2,2.8-0.2c1,0,2.3-0.4,3.1,0.1c1.6,1,3.3-0.3,4.8,0.6c0.6,0.3,1.5-0.1,2.3-0.1c1.5-0.1,2.7,0.7,3.8,1.6
		c0.7,0.6,1.2,0.5,1.9,0c0.5-0.5,0.9-0.3,1.5,0c0.7,0.3,1.6,1.2,2.7,0.5c0.6-0.4,1.1-0.5,1.5,0.7c0.3,1.1,0.4,1.9,0,2.9
		c-0.3,0.7-0.3,1.5-0.4,2.3c-0.2,1.5-0.3,3-0.4,4.5c0,0.3-0.1,0.6-0.3,0.8c-0.7,0.7-1,1.4-0.4,2.4c0.2,0.4,0,1.1-0.1,1.7
		c-0.1,0.7-0.1,1.5-0.2,2.2c0,0.2,0.1,0.5-0.1,0.6c-1.6,1.2-0.3,2.9-0.8,4.3c-0.1,0.4-0.1,0.8-0.2,1.1
		C217.5,48.9,217,50.3,216.5,51.7z"/>
	<path class="st0" d="M116.7,56.7c0.8-0.7,1.6-1.3,2.5-2c0.9-0.7,1.5-1.8,2.8-1.5c0-1.8,2-0.4,2.5-1.8c0.2,0.5,0.4,0.9,0.6,1.4
		c-0.3,0-0.5,0-0.7,0c-0.3,2.3-0.6,2.8-5.9,6c1.5-0.2,2.9-0.5,4.4-0.7c2.2-0.4,4.5-0.7,6.7-1c1.1-0.1,2.2,0.6,2.3,1.4
		c0.1,1.3-0.5,1.9-2,2.1c-1.5,0.2-3,0.4-4.5,0.7c-0.7,0.1-1.4,0.4-2.1,0.5c-0.7,0.1-1.4-0.1-2,0c-0.9,0.2-1.8,0.5-2.7,0.8
		c-0.5,0.1-1,0.4-1.5,0.4c-1.1,0-2,0.1-2.6,1.3c-0.2,0.3-1.3,0.4-1.8,0.2c-0.6-0.3-1.2-1.1-1.2-1.7c-0.1-2.8,0.9-5.5,1.7-8.2
		c0.5-1.5,1.1-2.9,1.9-4.3c0.5-1,2.1-1.2,2.8-0.6c0.6,0.6,0.4,1.1,0.1,1.8c-0.6,1.8-1.1,3.6-1.6,5.4
		C116.5,56.7,116.6,56.7,116.7,56.7z"/>
	<path class="st0" d="M142.8,44.2c-0.5,1-1.1,1.4-2.2,1.7c-1.1,0.3-2.1,1.2-3.2,1.7c-1.4,0.7-2.6,1.7-4.3,1.4
		c-1-0.2-1.1-0.7-0.4-1.5c0.1-0.1,0.3-0.3,0.3-0.5c0-1,0.6-1.4,1.4-1.7c1.9-0.7,3.8-1.4,5.7-2C141.1,43,142,43.3,142.8,44.2z"/>
	<path class="st0" d="M163,38c0-1.3,1.1-1.6,1.9-1.9c1.3-0.4,2.6-0.7,4-0.8c0.9-0.1,1.8,0,2.7,0.2c0.4,0.1,1,0.7,1,1.1
		c0,0.5-0.5,1.1-0.9,1.4c-0.8,0.4-1.6,0.7-2.5,0.9c-1.5,0.4-3.1,0.7-4.6,1.1C163.9,40,163,38.9,163,38z"/>
	<path class="st0" d="M152.4,39.7c0.1,0.3,0.2,0.6,0.5,1.2c0.4-1.4,1.1-2.3,2.4-1.8c0.8,0.3,2.1,0.6,1.5,2.2
		c-0.2-0.2-0.4-0.3-0.3-0.2c-0.6,0.4-1.1,0.9-1.6,1c-0.5,0.1-1-0.3-1.8-0.5c-0.9,1.1-2.5,1.8-4.3,2c-0.8,0.1-1.8,0-2.1-0.9
		c-0.2-0.6-0.1-1.7,0.3-1.9c1.1-0.6,2.3-0.9,3.5-1.2C151.1,39.5,151.8,39.7,152.4,39.7z"/>
	<g>
		<path class="st1" d="M63.2,81.5c0,0-25.5,4.4-28.7,6.5s-10.1,1.2-8.1,10.1s12.5,49.3,12.5,49.3s10.1,10.2,12.7,11.2
			s16.8,6.2,22.8,5.8c6.1-0.4,58.5-12,58.5-12s8.2-4.6,7.8-7.4c-0.4-2.8-11.7-9.7-13.3-10.5c-1.6-0.8-16.7-8.9-16.7-8.9L102,88.8
			c0,0-2-7.3-5.7-8.5S69.7,78.3,63.2,81.5z"/>
		<path class="st2" d="M38.9,94.5c0,0-4.9-0.8-4.4,6.1c0.4,6.9,10.1,37.2,10.1,37.2s3.2,4,6.5,3.2c3.2-0.8,51.3-10.5,51.3-10.5
			s2.4,0,2-4.9c-0.4-4.9-5.1-32.3-5.1-32.3S98,88,93.5,87.6c-4.4-0.4-19.4,2-19.4,2L38.9,94.5z"/>
		<path class="st0" d="M24.6,95.2c0.1-0.3,0.3-0.5,0.3-0.8c-0.3-2,0.8-3.6,1.8-5.1c0.9-1.4,2.6-1.5,3.9-2.1c0.3-0.1,0.7-0.1,0.8-0.3
			c0.7-1.5,2.2-1.5,3.5-1.7c0.4-0.1,0.8-0.2,1.2-0.4c0.3-0.1,0.6-0.3,1-0.4c0.8-0.2,1.7-0.4,2.6-0.4c3-0.1,5.9-1.4,8.8-1.6
			c1.3-0.1,2.4-0.6,3.6-0.7c1.6-0.1,3.1-0.3,4.6-0.8c0.8-0.3,1.7-0.1,2.6-0.2c1.5-0.1,3-0.3,4.5-0.5c1.4-0.2,2.7-0.3,4.1-0.5
			c1.1-0.1,2.2-0.6,3.4-0.1c0.5,0.2,1.3-0.4,1.9-0.3c0.6,0.1,1.2,0.5,1.9,0.7c0.3-1.6,1.9-0.9,3.1-1c1.9-0.2,4,0.2,5.8-0.4
			c1.1-0.4,2.2-0.4,3.3-0.9c1-0.5,2.6,0,3.9,0.1c0.2,0,0.5,0.2,0.7,0.1c1.2-0.6,2.4-0.3,3.7,0c1.4,0.3,2.8,0.4,4.1,0.7
			c1.2,0.2,2.4,2.2,2.4,3.3c0,0.3,0.3,0.7,0.5,1c0.2,0.3,0.5,0.5,0.6,0.8c0.6,1.5,1.2,2.9,1.7,4.4c0.1,0.2,0.2,0.4,0.2,0.6
			c-0.3,2.7,1.4,4.8,2,7.3c0.4,1.6,0.8,3.3,1.1,4.9c0.5,2.3,0.9,4.7,1.5,7c0.5,2.1,1.2,4.1,1.7,6.1c0.2,0.8,0.2,1.7,0.2,2.6
			c-0.1,2.3,1.7,3.9,2,6.1c0.1,0.8,0.2,1.7,0.2,2.5c0.1-0.2,0.3-0.4,0.4-0.6c0.2,0.6,0.3,1.4,0.7,1.8c1.4,1.5,3.4,1.8,5.2,2.7
			c0.8,0.4,1.6,0.8,2.4,1.2c2.1,1.1,4.2,2.2,6.4,3.3c0.5,0.3,1.1,0.5,1.7,0.5c1.3,0,1.8,1.1,2.8,1.5c1.5,0.7,2.5,2,3.8,2.8
			c1,0.7,2.4,0.8,3.5,1.5c1.1,0.8,2,1.9,2.1,3.4c0.1,0.7,0.5,1.4,0.4,2.1c-0.1,0.8-0.5,1.7-1.1,2.2c-1.2,1.1-2.6,1.9-3.9,2.8
			c-0.1,0.1-0.2,0.1-0.3,0.2c-1.1,1.7-2.9,1.8-4.6,2.1c-1,0.2-1.9,0.7-2.9,1.1c-0.2,0.1-0.5,0.4-0.7,0.4c-1.5-0.1-2.8,0.5-4.2,1.1
			c-1.4,0.6-3,0.7-4.5,1.1c-2.7,0.7-5.4,1.5-8,2.3c-1.1,0.3-2,0.9-3.3,0.6c-1-0.2-1.5-0.8-1.5-1.7c0-0.8,0.3-1.6,1.4-1.8
			c2.6-0.5,5.3-0.9,7.7-1.9c2.8-1.1,5.6-1.8,8.5-2.4c1.2-0.3,2.3-0.5,3.3-1.2c0.1-0.1,0.4-0.2,0.5-0.2c2,0.6,3.4-1,5.2-1.4
			c0.8-0.2,1.4-1.1,2.2-1.6c0.6-0.4,1.1-0.9,1.7-1.2c1.4-0.8,1.5-2.1,0.1-2.9c-1.9-1.1-3.4-2.6-5.6-3.1c-0.4-0.1-0.9-0.3-1-0.6
			c-0.6-1.4-2-1.6-3.2-2.2c-0.9-0.4-1.7-1.4-2.9-1.1c-0.1,0-0.2-0.1-0.3-0.2c-1.3-1.9-3.6-1.6-5.3-2.6c-1.5-0.9-3.1-1.6-4.7-2.3
			c-0.3-0.1-0.7-0.1-0.9,0c-1.1,0.5-2.3,0-2.6-1.2c-0.3-1.1-0.5-2.3-0.7-3.4c-0.1-0.2-0.3-0.4-0.3-0.6c-0.3-0.8-0.6-1.5-0.9-2.3
			c-0.3-0.8-0.7-1.6-1-2.4c-0.6-2.4-1.2-4.9-1.8-7.3c-0.6-2.4-1.1-4.8-1.7-7.2c-0.4-2-0.7-3.9-1.1-5.9c-0.5-2.1-1.2-4.1-1.7-6.2
			c-0.2-1,0.1-2.3-0.4-3c-0.7-0.9-1.2-1.6-1.4-2.7c-0.2-0.9-0.6-1.7-0.9-2.6c-0.1-0.3-0.3-0.5-0.3-0.7c-0.4-1.3-0.8-2.6-1.2-3.7
			c-2.2-0.5-4.3-0.9-6.3-1.3c-0.3-0.1-0.5-0.2-0.8-0.4c-0.5,0.8-1.2,1-2.3,0.7c-1.1-0.3-2.2-0.3-3.3-0.4c-1-0.1-2-0.2-3-0.1
			c-1,0-1.9,0.2-2.8,0.3c-0.5,0.1-1,0-1.6,0.1c-0.8,1.1-2.3,1.3-3.3,0.2c-0.7,1.5-0.9,1.4-2.8,1.3c-1.2-0.1-2.6,0.1-3.5,0.7
			c-1.2,0.7-2.3,0.3-3.4,0.6c-0.5,0.1-0.9,0.3-1.3,0.4c-0.3,0.1-0.6,0.2-0.9,0.2c-2.4-0.3-4.6,0.7-6.9,1.1c-1.4,0.2-2.8,0.5-4.1,0.4
			c-1.4-0.2-2.5,0.5-3.8,0.7c-1.6,0.2-3.1,0.9-4.6,0.7c-2.1-0.3-3.8,1.2-5.8,1c-1-0.1-2.1,0.9-3.2,1.3c-0.5,0.2-1,0.3-1.5,0.4
			c-1.6,0.5-3.1,1.1-4.1,2.4c-0.3,0.4-0.5,0.9-0.5,1.4c0.1,1.5,0.5,3,0.3,4.5c-0.3,2.3,1.2,4.2,1.2,6.4c0,0.5,0.3,1,0.4,1.6
			c0.4,2.3,1.2,4.6,1.9,6.8c0.6,1.7,0.7,3.5,1.1,5.3c0.1,0.3,0.2,0.7,0.3,1c0.1,0.4,0.4,0.7,0.4,1.1c-0.1,2,1,3.7,1.5,5.6
			c0.4,1.4,0.4,2.9,0.6,4.3c0,0.1-0.1,0.2-0.1,0.3c0.4,0.9,0.9,1.9,1.4,2.8c0.5,0.8,0.7,4.8,0.2,5.5c1.5,1.6,1.3,3.8,1.8,5.7
			c0.3,1.2,0.2,2.9,2.3,2.8c0.1,0,0.1,0.1,0.2,0.2c1,1,2.1,2.1,3.1,3.1c0.2,0.2,0.2,0.6,0.3,1c1.3-1,2.1,0.4,3.1,0.9
			c0.6,0.3,1.1,0.8,1.7,1.2c1.5,1,3,2,4.5,3c0.2,0.1,0.4,0.3,0.5,0.5c0.5,1,1.3,0.9,2.3,1.1c1.3,0.3,2.4,1.1,3.6,1.8
			c1,0.7,1.8,1.5,2.8,2.3c0.2,0.2,0.7,0.1,1,0.1c0.3,0.1,0.6,0.2,1,0.2c0.2,0,0.4-0.1,0.7-0.1c1.9,0,3.7,0.1,5.6,0.1
			c0.6,0,1.4,0.1,1.9-0.1c1.4-0.6,2.8,0.3,4.3-0.3c1-0.5,2.4,0.1,3.4-0.3c1.2-0.3,1.6,0.5,2,1.1c0.3,0.4,0,1.5-0.3,1.8
			c-0.7,0.5-1.7,0.9-2.6,0.9c-1.3-0.1-2.6,0.1-3.8,0.1c-1.6,0-3.2,0.5-4.8-0.1c-0.9-0.4-2.1,0-3.2,0c-1.6-0.1-3.3,0.5-4.7-1
			c-0.2-0.2-0.6-0.1-0.9-0.2c-1.8-0.8-3.6-1.5-5.4-2.3c-0.3-0.1-0.5-0.2-0.8-0.3c-1.3-0.2-2-0.8-1.7-2.2c0-0.1-0.1-0.3-0.2-0.4
			c-1.1,1-2.1,0.9-3.5-0.1c-1.9-1.4-4-2.7-5.9-4c-0.6-0.4-1.1-1.1-1.8-2c-1.9,0.5-2.4-1.9-3.9-2.7c-0.6-0.4-1.2-0.8-1.8-1.2
			c-0.2-0.2-0.7-0.4-0.7-0.5c0-2.7-1.3-5-2-7.4c0-0.1-0.2-0.3-0.2-0.3c0.7-1.2-0.3-2-0.7-3.1c-0.5-1.2-0.6-2.5-0.8-3.8
			c-0.1-0.3-0.1-0.7-0.1-1c-0.1-0.5-0.1-1.1-0.1-1.8c-0.8-0.5-1.3-1.3-1.1-2.6c0-0.2-0.1-0.5-0.1-0.8c-0.3-0.9-1.2-1.6-0.7-2.8
			c0.1-0.1-0.3-0.4-0.4-0.7c-0.2-0.5-0.3-1-0.4-1.5c-0.1-0.5-0.1-1-0.2-1.4c0-0.1-0.2-0.2-0.3-0.4c-0.1-2.8-1.5-5.3-1.9-8.1
			c-0.2-1.8-1.1-3.4-1.6-5.2c-0.2-0.7-0.3-1.4-0.4-2.1c-0.4-2.1-0.7-4.3-1.1-6.4c-0.2-0.9-0.5-1.7-0.7-2.6
			C24.6,95.8,24.6,95.5,24.6,95.2z"/>
		<path class="st0" d="M83.4,133.5c1.6-0.3,2.8-0.6,3.9-0.9c0.4-0.1,0.9-0.3,1.3-0.4c0.8-0.3,1.6-0.8,2.4-1c1.1-0.2,2.1-1.2,3.3-0.4
			c0.1,0,0.3-0.3,0.5-0.4c1.3-0.6,2.4-1.8,4.1-1.4c0.2,0,0.5,0,0.7-0.2c0.7-0.6,1.3-1,2.3-1.1c0.7,0,0.9-1.2,0.6-2.1
			c-0.6-2.1-1.4-4.3-1.5-6.5c-0.1-1.7-0.8-3.3-0.8-4.9c0.1-1.5-1.3-2.9-0.2-4.4c0.1-0.2-0.3-0.6-0.4-1c-0.5-2-1-4-1.4-6
			c-0.1-0.5,0.2-1.1,0.3-1.8c-0.9-0.8-1.5-1.9-1.2-3.6c0.1-0.9-0.6-2-1-3c-0.2-0.5-0.5-1-0.8-1.7c-1.7,2.3-3.2,4.4-4.8,6.5
			c-1.3,1.8-2.7,3.5-4.1,5.3c-0.2,0.3-0.5,0.7-0.5,1c-0.2,1.2-0.5,1.4-1.7,1.1c0.1,1.9-1.9,4.5-3.2,4.3c-0.2,1.5-1,2.7-2.1,3.7
			c-0.6,0.5-1,1.2-1.5,1.9c-1.4,1.9-2.9,3.8-4.3,5.7c-1.1,1.5-2,3.2-3.2,4.7c-1,1.3-2.3,2.4-3.4,3.7c-0.9,1.1-1.7,2.3-2.4,3.6
			c-0.6,0.9-1.9,1.8-2.9,1.6c-0.2,0-0.5-0.2-0.6-0.4c0-0.1,0.2-0.4,0.3-0.5c1.2-1.7,2.4-3.5,3.7-5.2c0.5-0.6,1-1.2,1.5-1.8
			c0.4-0.5,0.7-1,1.1-1.5c1.3-2.1,2.8-4.1,4.6-5.9c0.2-0.2,0.5-0.5,0.6-0.9c0.5-1.3,1.4-2.2,2.5-3c0.9-0.7,1.5-1.9,2.2-2.9
			c0.4-0.5,0.6-1.2,1-1.7c0.7-0.7,1.6-1.4,2.5-2.1c-0.5-0.9,0.3-1.5,1-2.4c0.8-1,1.4-2.1,2.2-3.1c1.3-1.6,2.7-3.1,4.1-4.6
			c0.1-0.1,0.5-0.2,0.5-0.3c-0.2-1.3,0.9-2,1.6-2.9c1-1.4,2.1-2.8,3.2-4.2c0.2-0.2,0.6-0.2,1-0.3c-0.5-1.2,0.2-1.1,1.1-0.7
			c-0.2-0.9-0.3-1.8-0.4-2.6c-1.7-0.5-3.5-1.1-5.4-1.7c-0.8,1.8-2.6,1.5-4.3,1.7c-0.7,0.1-1.3,0.2-2,0.4c-1.4,0.3-2.7,0.9-4.2,0.5
			c-0.7-0.2-1.6,0-2.4,0.1c-1.7,0.2-3.3,0.4-5,0.5c-1.3,0-1.6,1.3-2.5,1.8c-0.9,0.5-1.2,1.6-2.1,2.3c-0.7,0.6-1.2,1.5-1.9,1.6
			c-0.4,0.7-0.6,1.3-1,1.5c-1.3,0.7-1.8,1.8-2.4,3c-0.2,0.4-0.6,1-0.9,1c-1,0-1,0.7-1.3,1.2c-1,1.3-1.4,3.1-3.2,3.9
			c-1.1,0.4-1.6,2-2.4,3.1c-0.1,0.1-0.1,0.4-0.2,0.5c-1.2,1.3-2.4,2.6-3.6,3.9c-0.5,0.5-1,0.9-1.5,1.4c-0.9-1.6-0.4-3.7,1-4.4
			c1.6-0.8,2.3-2.4,3.3-3.7c0.3-0.3,0.6-0.6,0.8-1c0.7-0.9,1.4-1.8,2.1-2.7c0.7-1,1.3-2.1,2.1-2.9c0.4-0.3,1.3,0,2,0
			c-0.1-0.2-0.2-0.7-0.3-1.2c0-0.2,0-0.6,0.1-0.7c0.9-0.9,1.8-1.6,2.7-2.5c0.4-0.4,0.5-1,0.9-1.4c1.2-1.4,2.4-2.8,3.7-4.3
			c-1.4-0.5-2.9-0.2-4.3,0.3c-1.1,0.4-2,0.8-3.3,0.7c-1.4-0.1-2.9,0.5-4.3,0.8c-0.5,0.1-1.1,0.2-1.5,0.1c-1-0.3-1.8,0-2.8,0.3
			c-1.1,0.4-2.1,1-3.3,0.5c-0.2-0.1-0.5,0.1-0.8,0.2c-1.4,0.7-2.7,0.7-4,0c-0.6,0.9-1.1,1.8-2.6,1.8c-1,0-1.9,1.3-2.9,0.1
			c-1.4,0.5-1,1.7-1,2.5c0.1,1.8,0.5,3.6,0.8,5.4c0.1,0.4,0.4,0.7,0.5,1.1c0.2,0.3,0.6,0.8,0.5,1c-0.8,1.6,0.5,2.8,0.8,4.1
			c0.4,1.7,1.1,3.2,1.6,4.9c0.3,1.3-0.3,2.1-1.5,2.3c-1,0.2-1.6-0.6-1.9-1.7c-0.6-2.1-0.5-4.3-1.7-6.3c-0.6-1-0.5-2.3-0.8-3.5
			c-0.4-1.6-0.9-3.2-1-4.8c-0.2-1.7-0.3-3.6,0.9-5.2c-0.5-0.8-0.2-1.7,0.9-1.9c1.9-0.4,3.8-0.9,5.7-1.3c0.5-0.1,1,0,1.5,0
			c1.5-0.6,3-1.5,4.9-1.3c0.4,0.1,0.9-0.4,1.4-0.4c2.4-0.3,4.8-1.3,7.3-0.9c1.7-1.3,4-0.2,5.7-1.4c0.1,0,0.1-0.1,0.2-0.1
			c2.4-0.2,4.8-0.4,7.1-0.6c1.5-0.1,3-0.3,4.6-0.4c1.5-0.1,3,0,4.5-0.1c1.1-0.1,2.2-0.4,3.3-0.6c0.6-0.1,1.3,0,1.9,0
			c0.3,0,0.5-0.1,0.7-0.2c1.3-0.3,2.7-0.7,4-0.8c0.5-0.1,1,0.5,1.6,0.8c0.3-0.5,0.2-1.5,1.4-1.5c0.6,0,1.5-0.5,1.9-0.3
			c1.4,1,3.6,1.2,4.1,3.1c0.5,2,2,3.5,2.2,5.6c0.1,1.6,1.2,3.1,1.5,4.7c0.2,0.9-0.1,2-0.2,3.1c0.8,0.5,1.7,1.3,1.3,2.8
			c-0.1,0.6,0.2,1.3,0.3,2c0.1,1.1,0.1,2.3,0.2,3.4c0,0.2,0.2,0.4,0.4,0.5c0.2,0.2,0.5,0.5,0.5,0.7c0.4,2.8,0.8,5.6,1.2,8.4
			c0.2,1.5,0.5,2.9,0.7,4.4c0.1,0.3,0.4,0.5,0.5,0.8c0.1,0.2,0.4,0.5,0.3,0.7c-0.3,2.2-0.4,4.5-2.3,6.1c-0.6,0.5-1.8,0.8-2.6,0.7
			c-1-0.1-1.7,0.5-2.5,0.9c-1.1,0.7-2.2,0.9-3.5,0.9c-0.5,0-1,0.3-1.5,0.5c-1,0.4-2,0.9-3.1,1.1c-0.7,0.2-1.4,0-2.3,0
			c-1.1,0.5-2.1,2.1-4,1.2c-0.2-0.1-0.4,0-0.6,0.1c-2,1.1-2.9,0.9-4.1-1.1c-0.9,2.3-2.6,3.2-5,3.1c-1,0-2,0.5-3,0.6
			c-1.5,0.2-2.8,0.7-4.4,0.5c-1.2-0.2-2.6,0.2-3.9,0.4c-2.1,0.4-4.2,0.9-6.4,1.4c-0.3,0.1-0.7,0.1-0.9,0c-2.1-0.7-4.2,0-6.3,0.1
			c-1.4,0-2.8,0-4.2-0.2c-1.4-0.2-2-1.2-2-2.8c0-0.2-0.1-0.4-0.3-0.6c-0.8-1.2-1.2-2.5-1.4-4c-0.2-1.1-0.8-2.2-1.2-3.3
			c-0.3-0.7-0.5-1.4-0.7-2.2c0,0-0.1-0.1-0.1-0.1c0.7-1.8-0.9-3.3-0.8-5.1c0.1-1.1,0-2.2-0.6-3.3c-0.3-0.5-0.2-1.2,0-1.8
			c0.2-0.9,1.2-1.2,1.9-0.6c0.8,0.6,1.6,1.2,1.4,2.5c-0.1,0.6,0.4,1.2,0.5,1.9c0.4,2.1,0.8,4.3,1.2,6.4c0,0.2,0,0.4,0.2,0.6
			c1.9,2.1,1.2,4.8,1.8,7.2c0.2,0.9,1.7,2.4,2.7,2.3c2.5-0.3,5-0.7,7.6-0.8c1.8-0.1,3.5-0.4,5.3-0.9c1.2-0.4,2.7,0,4,0
			c0.1,0,0.2,0,0.2,0c2.3-0.4,4.5-0.9,6.8-1.3c0.7-0.1,1.3,0,2-0.1c0.6-0.1,1.2-0.4,1.7-0.4c0.9-0.1,1.9-0.3,2.7-0.1
			c0.9,0.2,1.4-0.1,1.9-0.6C81.4,133.2,82.6,133,83.4,133.5z"/>
		<path class="st0" d="M88.8,161.1c0.7-1.4,1.6-1.1,2.5-0.4c1.5-1.4,3.1-1.9,5.1-2.1c1.6-0.1,3.1-0.7,4.6-1.1c1.3-0.3,2.5-0.7,3.8-1
			c0.9-0.2,1.6,0.2,1.9,1c0.3,0.8,0.5,1.9-0.6,2.2c-1.7,0.6-3.4,1-5.1,1.4c-2.5,0.6-5,1.1-7.5,1.6c-0.3,0.1-0.6,0-0.9,0
			c-0.4,0.1-0.8,0.2-1.2,0.3c-0.5,0.1-1.1,0.2-1.6,0.4c-0.4,0.1-0.8,0.1-1.2,0.3c-1.2,0.6-2.1,0.4-2.9-0.6c-0.6-0.8-0.2-1.5,0.3-2
			C86.5,160.4,87.7,160.4,88.8,161.1z"/>
		<path class="st0" d="M92.2,120.4c0.1,0.6,0.1,1.3-0.9,1.5c-0.1,0-0.3,0.1-0.3,0.1c0,2-2.7,2.2-2.7,4.1c0,0.1-0.2,0.3-0.3,0.3
			c-1.7,0.1-1.9,1.8-2.6,2.8c-0.4,0.6-1.6,0.9-1.3,2c-0.3,0-0.6,0.2-0.8,0.1c-0.5-0.2-0.9-0.6-1.3-1c1.3-1.7,2.6-3.2,3.9-4.8
			c-0.2-0.6-0.5-1.3,0.9-1.6c0.6-0.1,1.1-1,1.6-1.6c1.3-1.8,2.7-3.5,4-5.2c0.9-1.2,2.2-1.9,3.1-3c0.4-0.6,0.7-1.3,1.1-1.8
			c0.4-0.4,1-0.6,1.6-0.9c0.7,0.5,0.6,1.9-0.6,2.7c-0.5,0.4-1.1,0.9-1.3,1.5c-0.3,1-1,1.5-1.7,2.1c-0.5,0.4-0.7,1.2-1.1,1.7
			C93.2,119.7,92.8,120,92.2,120.4z"/>
		<path class="st0" d="M94.3,140.6c0,0.1,0,0.5,0,0.7c-0.2,0.1-0.5,0.1-0.6,0.2c-0.5,0.5-0.8,1.2-1.4,1.5c-1.1,0.4-2,1.4-3.4,1.1
			c-0.8-0.2-1.7,0-2.5-0.1c-0.2,0-0.6-0.6-0.5-0.9c0.3-1.1,2.5-2.2,3.5-2.2c0.9,0,1.7-0.1,2.6-0.2c0.2,0,0.3-0.1,0.5-0.1
			C93,140.7,93.6,140.7,94.3,140.6z"/>
		<path class="st0" d="M89.3,150.7c-1.7,0.8-3.4,1.6-5.1,2.2c-0.8,0.2-1.7-0.2-2.6-0.4c-0.3-0.1-0.7-0.7-0.6-0.9
			c0.1-0.4,0.5-0.9,0.8-0.9c1.5-0.3,3.1-0.4,4.6-0.8C87.7,149.4,88.5,149.5,89.3,150.7z"/>
		<path class="st0" d="M117.2,141.4c-0.8,0.7-1.6,1.5-2.5,2c-0.9,0.5-2.1,0.6-3.1,1c-0.6,0.2-1.1,0.2-1.5-0.5
			c-0.4-0.7-0.3-1.5,0.3-1.9c0.8-0.5,1.8-0.8,2.7-1.1c1.3-0.4,2.6,0.2,3.9,0.2C117.1,141.2,117.1,141.3,117.2,141.4z"/>
		<path class="st0" d="M102.3,147.7c-0.9-0.7-1.3,0.2-1.9,0.4c-0.5,0.2-1,0.3-1.5,0.4c-0.4,0.1-0.8,0.3-1.2,0.3
			c-0.6,0-1.2,0-1.7-0.2c-0.2-0.1-0.3-1-0.1-1.4c0.4-0.6,0.9-1.3,1.5-1.4c1.2-0.3,2.5-0.3,3.8-0.4c1.2-0.1,1.5,0.3,1.2,1.5
			C102.5,147.2,102.4,147.4,102.3,147.7z"/>
		<path class="st0" d="M76.6,153.3c-1.2,0.7-2.1,1.3-3.1,1.8c-0.4,0.2-1,0.3-1.6,0.2c-0.6,0.1-1.2,0.3-1.8,0.4
			c-0.7,0.1-1.4,0.1-1.5-0.9c-0.1-0.9,0.1-1.4,1.1-1.8c2-0.7,4-0.3,6-0.4C76,152.6,76.3,153.1,76.6,153.3z"/>
		<path class="st0" d="M67.1,146.5c-0.3,0.5-0.4,0.9-0.6,1.1c-1.2,0.9-2.4,1.9-3.7,2.7c-0.5,0.3-2.1-0.3-2.3-0.8
			c-0.3-0.9,0.3-2.1,1.4-2.3c1.3-0.3,2.6-0.8,3.9-0.3C66.1,147,66.5,146.7,67.1,146.5z"/>
		<path class="st0" d="M106.6,138.2c-0.5-0.1-0.8-0.2-1.1-0.3c-0.3,1.5-0.6,1.8-2.2,1.7c-0.4,0-0.8,0.1-1.1,0.2
			c-0.7,0.3-1.2,0.1-1.6-0.5c-0.4-0.7-0.3-1.3,0.2-1.8C102,136.1,106,136.1,106.6,138.2z"/>
		<path class="st0" d="M79.4,144.4c-0.7,0.8-0.6,2.1-1.8,1.5c-0.3,0.5-0.7,1.2-1,1.2c-1.1-0.1-2.4,0.7-3.3-0.6
			c-0.6-0.9,0.1-1.3,0.6-1.6c0.9-0.4,1.8-0.9,3-0.5C77.5,144.6,78.4,144.4,79.4,144.4z"/>
		<path class="st0" d="M47.2,115.1c0.2,0.5,0.3,1.1,0.6,1.8c-0.4-0.1-0.6-0.1-0.9-0.1c0.1,0.3,0.1,0.6,0.2,1.1
			c-0.8-0.2-1.4-0.3-2.1-0.4c0-0.1,0-0.2,0-0.4c1.3,0,1.9-0.6,1.8-1.9C47,115.2,47.1,115.2,47.2,115.1z"/>
	</g>
	<path class="st0" d="M296.6,56.7c-0.8-0.7-1.6-1.3-2.5-2c-0.9-0.7-1.5-1.8-2.8-1.5c0-1.8-2-0.4-2.5-1.8c-0.2,0.5-0.4,0.9-0.6,1.4
		c0.3,0,0.5,0,0.7,0c0.3,2.3,0.6,2.8,5.9,6c-1.5-0.2-2.9-0.5-4.4-0.7c-2.2-0.4-4.5-0.7-6.7-1c-1.1-0.1-2.2,0.6-2.3,1.4
		c-0.1,1.3,0.5,1.9,2,2.1c1.5,0.2,3,0.4,4.5,0.7c0.7,0.1,1.4,0.4,2.1,0.5c0.7,0.1,1.4-0.1,2,0c0.9,0.2,1.8,0.5,2.7,0.8
		c0.5,0.1,1,0.4,1.5,0.4c1.1,0,2,0.1,2.6,1.3c0.2,0.3,1.3,0.4,1.8,0.2c0.6-0.3,1.2-1.1,1.2-1.7c0.1-2.8-0.9-5.5-1.7-8.2
		c-0.5-1.5-1.1-2.9-1.9-4.3c-0.5-1-2.1-1.2-2.8-0.6c-0.6,0.6-0.4,1.1-0.1,1.8c0.6,1.8,1.1,3.6,1.6,5.4
		C296.8,56.7,296.7,56.7,296.6,56.7z"/>
	<path class="st0" d="M270.5,44.2c0.5,1,1.1,1.4,2.2,1.7c1.1,0.3,2.1,1.2,3.2,1.7c1.4,0.7,2.6,1.7,4.3,1.4c1-0.2,1.1-0.7,0.4-1.5
		c-0.1-0.1-0.3-0.3-0.3-0.5c0-1-0.6-1.4-1.4-1.7c-1.9-0.7-3.8-1.4-5.7-2C272.2,43,271.2,43.3,270.5,44.2z"/>
	<path class="st0" d="M250.3,38c0-1.3-1.1-1.6-1.9-1.9c-1.3-0.4-2.6-0.7-4-0.8c-0.9-0.1-1.8,0-2.7,0.2c-0.4,0.1-1,0.7-1,1.1
		c0,0.5,0.5,1.1,0.9,1.4c0.8,0.4,1.6,0.7,2.5,0.9c1.5,0.4,3.1,0.7,4.6,1.1C249.4,40,250.3,38.9,250.3,38z"/>
	<path class="st0" d="M260.8,39.7c-0.1,0.3-0.2,0.6-0.5,1.2c-0.4-1.4-1.1-2.3-2.4-1.8c-0.8,0.3-2.1,0.6-1.5,2.2
		c0.2-0.2,0.4-0.3,0.3-0.2c0.6,0.4,1.1,0.9,1.6,1c0.5,0.1,1-0.3,1.8-0.5c0.9,1.1,2.5,1.8,4.3,2c0.8,0.1,1.8,0,2.1-0.9
		c0.2-0.6,0.1-1.7-0.3-1.9c-1.1-0.6-2.3-0.9-3.5-1.2C262.1,39.5,261.5,39.7,260.8,39.7z"/>
	<g>
		<path class="st1" d="M349.9,81.5c0,0,25.5,4.4,28.7,6.5s10.1,1.2,8.1,10.1c-2,8.9-12.5,49.3-12.5,49.3s-10.1,10.2-12.7,11.2
			c-2.6,1-16.8,6.2-22.8,5.8c-6.1-0.4-58.5-12-58.5-12s-8.2-4.6-7.8-7.4c0.4-2.8,11.7-9.7,13.3-10.5c1.6-0.8,16.7-8.9,16.7-8.9
			l8.8-36.7c0,0,2-7.3,5.7-8.5C320.3,79.1,343.4,78.3,349.9,81.5z"/>
		<path class="st2" d="M374.1,94.5c0,0,4.9-0.8,4.4,6.1c-0.4,6.9-10.1,37.2-10.1,37.2s-3.2,4-6.5,3.2c-3.2-0.8-51.3-10.5-51.3-10.5
			s-2.4,0-2-4.9c0.4-4.9,5.1-32.3,5.1-32.3s1.4-5.3,5.9-5.7c4.4-0.4,19.4,2,19.4,2L374.1,94.5z"/>
		<path class="st0" d="M388.5,95.2c-0.1-0.3-0.3-0.5-0.3-0.8c0.3-2-0.8-3.6-1.8-5.1c-0.9-1.4-2.6-1.5-3.9-2.1
			c-0.3-0.1-0.7-0.1-0.8-0.3c-0.7-1.5-2.2-1.5-3.5-1.7c-0.4-0.1-0.8-0.2-1.2-0.4c-0.3-0.1-0.6-0.3-1-0.4c-0.8-0.2-1.7-0.4-2.6-0.4
			c-3-0.1-5.9-1.4-8.8-1.6c-1.3-0.1-2.4-0.6-3.6-0.7c-1.6-0.1-3.1-0.3-4.6-0.8c-0.8-0.3-1.7-0.1-2.6-0.2c-1.5-0.1-3-0.3-4.5-0.5
			c-1.4-0.2-2.7-0.3-4.1-0.5c-1.1-0.1-2.2-0.6-3.4-0.1c-0.5,0.2-1.3-0.4-1.9-0.3c-0.6,0.1-1.2,0.5-1.9,0.7c-0.3-1.6-1.9-0.9-3.1-1
			c-1.9-0.2-4,0.2-5.8-0.4c-1.1-0.4-2.2-0.4-3.3-0.9c-1-0.5-2.6,0-3.9,0.1c-0.2,0-0.5,0.2-0.7,0.1c-1.2-0.6-2.4-0.3-3.7,0
			c-1.4,0.3-2.8,0.4-4.1,0.7c-1.2,0.2-2.4,2.2-2.4,3.3c0,0.3-0.3,0.7-0.5,1c-0.2,0.3-0.5,0.5-0.6,0.8c-0.6,1.5-1.2,2.9-1.7,4.4
			c-0.1,0.2-0.2,0.4-0.2,0.6c0.3,2.7-1.4,4.8-2,7.3c-0.4,1.6-0.8,3.3-1.1,4.9c-0.5,2.3-0.9,4.7-1.5,7c-0.5,2.1-1.2,4.1-1.7,6.1
			c-0.2,0.8-0.2,1.7-0.2,2.6c0.1,2.3-1.7,3.9-2,6.1c-0.1,0.8-0.2,1.7-0.2,2.5c-0.1-0.2-0.3-0.4-0.4-0.6c-0.2,0.6-0.3,1.4-0.7,1.8
			c-1.4,1.5-3.4,1.8-5.2,2.7c-0.8,0.4-1.6,0.8-2.4,1.2c-2.1,1.1-4.2,2.2-6.4,3.3c-0.5,0.3-1.1,0.5-1.7,0.5c-1.3,0-1.8,1.1-2.8,1.5
			c-1.5,0.7-2.5,2-3.8,2.8c-1,0.7-2.4,0.8-3.5,1.5c-1.1,0.8-2,1.9-2.1,3.4c-0.1,0.7-0.5,1.4-0.4,2.1c0.1,0.8,0.5,1.7,1.1,2.2
			c1.2,1.1,2.6,1.9,3.9,2.8c0.1,0.1,0.2,0.1,0.3,0.2c1.1,1.7,2.9,1.8,4.6,2.1c1,0.2,1.9,0.7,2.9,1.1c0.2,0.1,0.5,0.4,0.7,0.4
			c1.5-0.1,2.8,0.5,4.2,1.1c1.4,0.6,3,0.7,4.5,1.1c2.7,0.7,5.4,1.5,8,2.3c1.1,0.3,2,0.9,3.3,0.6c1-0.2,1.5-0.8,1.5-1.7
			c0-0.8-0.3-1.6-1.4-1.8c-2.6-0.5-5.3-0.9-7.7-1.9c-2.8-1.1-5.6-1.8-8.5-2.4c-1.2-0.3-2.3-0.5-3.3-1.2c-0.1-0.1-0.4-0.2-0.5-0.2
			c-2,0.6-3.4-1-5.2-1.4c-0.8-0.2-1.4-1.1-2.2-1.6c-0.6-0.4-1.1-0.9-1.7-1.2c-1.4-0.8-1.5-2.1-0.1-2.9c1.9-1.1,3.4-2.6,5.6-3.1
			c0.4-0.1,0.9-0.3,1-0.6c0.6-1.4,2-1.6,3.2-2.2c0.9-0.4,1.7-1.4,2.9-1.1c0.1,0,0.2-0.1,0.3-0.2c1.3-1.9,3.6-1.6,5.3-2.6
			c1.5-0.9,3.1-1.6,4.7-2.3c0.3-0.1,0.7-0.1,0.9,0c1.1,0.5,2.3,0,2.6-1.2c0.3-1.1,0.5-2.3,0.7-3.4c0.1-0.2,0.3-0.4,0.3-0.6
			c0.3-0.8,0.6-1.5,0.9-2.3c0.3-0.8,0.7-1.6,1-2.4c0.6-2.4,1.2-4.9,1.8-7.3c0.6-2.4,1.1-4.8,1.7-7.2c0.4-2,0.7-3.9,1.1-5.9
			c0.5-2.1,1.2-4.1,1.7-6.2c0.2-1-0.1-2.3,0.4-3c0.7-0.9,1.2-1.6,1.4-2.7c0.2-0.9,0.6-1.7,0.9-2.6c0.1-0.3,0.3-0.5,0.3-0.7
			c0.4-1.3,0.8-2.6,1.2-3.7c2.2-0.5,4.3-0.9,6.3-1.3c0.3-0.1,0.5-0.2,0.8-0.4c0.5,0.8,1.2,1,2.3,0.7c1.1-0.3,2.2-0.3,3.3-0.4
			c1-0.1,2-0.2,3-0.1c1,0,1.9,0.2,2.8,0.3c0.5,0.1,1,0,1.6,0.1c0.8,1.1,2.3,1.3,3.3,0.2c0.7,1.5,0.9,1.4,2.8,1.3
			c1.2-0.1,2.6,0.1,3.5,0.7c1.2,0.7,2.3,0.3,3.4,0.6c0.5,0.1,0.9,0.3,1.3,0.4c0.3,0.1,0.6,0.2,0.9,0.2c2.4-0.3,4.6,0.7,6.9,1.1
			c1.4,0.2,2.8,0.5,4.1,0.4c1.4-0.2,2.5,0.5,3.8,0.7c1.6,0.2,3.1,0.9,4.6,0.7c2.1-0.3,3.8,1.2,5.8,1c1-0.1,2.1,0.9,3.2,1.3
			c0.5,0.2,1,0.3,1.5,0.4c1.6,0.5,3.1,1.1,4.1,2.4c0.3,0.4,0.5,0.9,0.5,1.4c-0.1,1.5-0.5,3-0.3,4.5c0.3,2.3-1.2,4.2-1.2,6.4
			c0,0.5-0.3,1-0.4,1.6c-0.4,2.3-1.2,4.6-1.9,6.8c-0.6,1.7-0.7,3.5-1.1,5.3c-0.1,0.3-0.2,0.7-0.3,1c-0.1,0.4-0.4,0.7-0.4,1.1
			c0.1,2-1,3.7-1.5,5.6c-0.4,1.4-0.4,2.9-0.6,4.3c0,0.1,0.1,0.2,0.1,0.3c-0.4,0.9-0.9,1.9-1.4,2.8c-0.5,0.8-0.7,4.8-0.2,5.5
			c-1.5,1.6-1.3,3.8-1.8,5.7c-0.3,1.2-0.2,2.9-2.3,2.8c-0.1,0-0.1,0.1-0.2,0.2c-1,1-2.1,2.1-3.1,3.1c-0.2,0.2-0.2,0.6-0.3,1
			c-1.3-1-2.1,0.4-3.1,0.9c-0.6,0.3-1.1,0.8-1.7,1.2c-1.5,1-3,2-4.5,3c-0.2,0.1-0.4,0.3-0.5,0.5c-0.5,1-1.3,0.9-2.3,1.1
			c-1.3,0.3-2.4,1.1-3.6,1.8c-1,0.7-1.8,1.5-2.8,2.3c-0.2,0.2-0.7,0.1-1,0.1c-0.3,0.1-0.6,0.2-1,0.2c-0.2,0-0.4-0.1-0.7-0.1
			c-1.9,0-3.7,0.1-5.6,0.1c-0.6,0-1.4,0.1-1.9-0.1c-1.4-0.6-2.8,0.3-4.3-0.3c-1-0.5-2.4,0.1-3.4-0.3c-1.2-0.3-1.6,0.5-2,1.1
			c-0.3,0.4,0,1.5,0.3,1.8c0.7,0.5,1.7,0.9,2.6,0.9c1.3-0.1,2.6,0.1,3.8,0.1c1.6,0,3.2,0.5,4.8-0.1c0.9-0.4,2.1,0,3.2,0
			c1.6-0.1,3.3,0.5,4.7-1c0.2-0.2,0.6-0.1,0.9-0.2c1.8-0.8,3.6-1.5,5.4-2.3c0.3-0.1,0.5-0.2,0.8-0.3c1.3-0.2,2-0.8,1.7-2.2
			c0-0.1,0.1-0.3,0.2-0.4c1.1,1,2.1,0.9,3.5-0.1c1.9-1.4,4-2.7,5.9-4c0.6-0.4,1.1-1.1,1.8-2c1.9,0.5,2.4-1.9,3.9-2.7
			c0.6-0.4,1.2-0.8,1.8-1.2c0.2-0.2,0.7-0.4,0.7-0.5c0-2.7,1.3-5,2-7.4c0-0.1,0.2-0.3,0.2-0.3c-0.7-1.2,0.3-2,0.7-3.1
			c0.5-1.2,0.6-2.5,0.8-3.8c0.1-0.3,0.1-0.7,0.1-1c0.1-0.5,0.1-1.1,0.1-1.8c0.8-0.5,1.3-1.3,1.1-2.6c0-0.2,0.1-0.5,0.1-0.8
			c0.3-0.9,1.2-1.6,0.7-2.8c-0.1-0.1,0.3-0.4,0.4-0.7c0.2-0.5,0.3-1,0.4-1.5c0.1-0.5,0.1-1,0.2-1.4c0-0.1,0.2-0.2,0.3-0.4
			c0.1-2.8,1.5-5.3,1.9-8.1c0.2-1.8,1.1-3.4,1.6-5.2c0.2-0.7,0.3-1.4,0.4-2.1c0.4-2.1,0.7-4.3,1.1-6.4c0.2-0.9,0.5-1.7,0.7-2.6
			C388.5,95.8,388.5,95.5,388.5,95.2z"/>
		<path class="st0" d="M329.6,133.5c-1.6-0.3-2.8-0.6-3.9-0.9c-0.4-0.1-0.9-0.3-1.3-0.4c-0.8-0.3-1.6-0.8-2.4-1
			c-1.1-0.2-2.1-1.2-3.3-0.4c-0.1,0-0.3-0.3-0.5-0.4c-1.3-0.6-2.4-1.8-4.1-1.4c-0.2,0-0.5,0-0.7-0.2c-0.7-0.6-1.3-1-2.3-1.1
			c-0.7,0-0.9-1.2-0.6-2.1c0.6-2.1,1.4-4.3,1.5-6.5c0.1-1.7,0.8-3.3,0.8-4.9c-0.1-1.5,1.3-2.9,0.2-4.4c-0.1-0.2,0.3-0.6,0.4-1
			c0.5-2,1-4,1.4-6c0.1-0.5-0.2-1.1-0.3-1.8c0.9-0.8,1.5-1.9,1.2-3.6c-0.1-0.9,0.6-2,1-3c0.2-0.5,0.5-1,0.8-1.7
			c1.7,2.3,3.2,4.4,4.8,6.5c1.3,1.8,2.7,3.5,4.1,5.3c0.2,0.3,0.5,0.7,0.5,1c0.2,1.2,0.5,1.4,1.7,1.1c-0.1,1.9,1.9,4.5,3.2,4.3
			c0.2,1.5,1,2.7,2.1,3.7c0.6,0.5,1,1.2,1.5,1.9c1.4,1.9,2.9,3.8,4.3,5.7c1.1,1.5,2,3.2,3.2,4.7c1,1.3,2.3,2.4,3.4,3.7
			c0.9,1.1,1.7,2.3,2.4,3.6c0.6,0.9,1.9,1.8,2.9,1.6c0.2,0,0.5-0.2,0.6-0.4c0-0.1-0.2-0.4-0.3-0.5c-1.2-1.7-2.4-3.5-3.7-5.2
			c-0.5-0.6-1-1.2-1.5-1.8c-0.4-0.5-0.7-1-1.1-1.5c-1.3-2.1-2.8-4.1-4.6-5.9c-0.2-0.2-0.5-0.5-0.6-0.9c-0.5-1.3-1.4-2.2-2.5-3
			c-0.9-0.7-1.5-1.9-2.2-2.9c-0.4-0.5-0.6-1.2-1-1.7c-0.7-0.7-1.6-1.4-2.5-2.1c0.5-0.9-0.3-1.5-1-2.4c-0.8-1-1.4-2.1-2.2-3.1
			c-1.3-1.6-2.7-3.1-4.1-4.6c-0.1-0.1-0.5-0.2-0.5-0.3c0.2-1.3-0.9-2-1.6-2.9c-1-1.4-2.1-2.8-3.2-4.2c-0.2-0.2-0.6-0.2-1-0.3
			c0.5-1.2-0.2-1.1-1.1-0.7c0.2-0.9,0.3-1.8,0.4-2.6c1.7-0.5,3.5-1.1,5.4-1.7c0.8,1.8,2.6,1.5,4.3,1.7c0.7,0.1,1.3,0.2,2,0.4
			c1.4,0.3,2.7,0.9,4.2,0.5c0.7-0.2,1.6,0,2.4,0.1c1.7,0.2,3.3,0.4,5,0.5c1.3,0,1.6,1.3,2.5,1.8c0.9,0.5,1.2,1.6,2.1,2.3
			c0.7,0.6,1.2,1.5,1.9,1.6c0.4,0.7,0.6,1.3,1,1.5c1.3,0.7,1.8,1.8,2.4,3c0.2,0.4,0.6,1,0.9,1c1,0,1,0.7,1.3,1.2
			c1,1.3,1.4,3.1,3.2,3.9c1.1,0.4,1.6,2,2.4,3.1c0.1,0.1,0.1,0.4,0.2,0.5c1.2,1.3,2.4,2.6,3.6,3.9c0.5,0.5,1,0.9,1.5,1.4
			c0.9-1.6,0.4-3.7-1-4.4c-1.6-0.8-2.3-2.4-3.3-3.7c-0.3-0.3-0.6-0.6-0.8-1c-0.7-0.9-1.4-1.8-2.1-2.7c-0.7-1-1.3-2.1-2.1-2.9
			c-0.4-0.3-1.3,0-2,0c0.1-0.2,0.2-0.7,0.3-1.2c0-0.2,0-0.6-0.1-0.7c-0.9-0.9-1.8-1.6-2.7-2.5c-0.4-0.4-0.5-1-0.9-1.4
			c-1.2-1.4-2.4-2.8-3.7-4.3c1.4-0.5,2.9-0.2,4.3,0.3c1.1,0.4,2,0.8,3.3,0.7c1.4-0.1,2.9,0.5,4.3,0.8c0.5,0.1,1.1,0.2,1.5,0.1
			c1-0.3,1.8,0,2.8,0.3c1.1,0.4,2.1,1,3.3,0.5c0.2-0.1,0.5,0.1,0.8,0.2c1.4,0.7,2.7,0.7,4,0c0.6,0.9,1.1,1.8,2.6,1.8
			c1,0,1.9,1.3,2.9,0.1c1.4,0.5,1,1.7,1,2.5c-0.1,1.8-0.5,3.6-0.8,5.4c-0.1,0.4-0.4,0.7-0.5,1.1c-0.2,0.3-0.6,0.8-0.5,1
			c0.8,1.6-0.5,2.8-0.8,4.1c-0.4,1.7-1.1,3.2-1.6,4.9c-0.3,1.3,0.3,2.1,1.5,2.3c1,0.2,1.6-0.6,1.9-1.7c0.6-2.1,0.5-4.3,1.7-6.3
			c0.6-1,0.5-2.3,0.8-3.5c0.4-1.6,0.9-3.2,1-4.8c0.2-1.7,0.3-3.6-0.9-5.2c0.5-0.8,0.2-1.7-0.9-1.9c-1.9-0.4-3.8-0.9-5.7-1.3
			c-0.5-0.1-1,0-1.5,0c-1.5-0.6-3-1.5-4.9-1.3c-0.4,0.1-0.9-0.4-1.4-0.4c-2.4-0.3-4.8-1.3-7.3-0.9c-1.7-1.3-4-0.2-5.7-1.4
			c-0.1,0-0.1-0.1-0.2-0.1c-2.4-0.2-4.8-0.4-7.1-0.6c-1.5-0.1-3-0.3-4.6-0.4c-1.5-0.1-3,0-4.5-0.1c-1.1-0.1-2.2-0.4-3.3-0.6
			c-0.6-0.1-1.3,0-1.9,0c-0.3,0-0.5-0.1-0.7-0.2c-1.3-0.3-2.7-0.7-4-0.8c-0.5-0.1-1,0.5-1.6,0.8c-0.3-0.5-0.2-1.5-1.4-1.5
			c-0.6,0-1.5-0.5-1.9-0.3c-1.4,1-3.6,1.2-4.1,3.1c-0.5,2-2,3.5-2.2,5.6c-0.1,1.6-1.2,3.1-1.5,4.7c-0.2,0.9,0.1,2,0.2,3.1
			c-0.8,0.5-1.7,1.3-1.3,2.8c0.1,0.6-0.2,1.3-0.3,2c-0.1,1.1-0.1,2.3-0.2,3.4c0,0.2-0.2,0.4-0.4,0.5c-0.2,0.2-0.5,0.5-0.5,0.7
			c-0.4,2.8-0.8,5.6-1.2,8.4c-0.2,1.5-0.5,2.9-0.7,4.4c-0.1,0.3-0.4,0.5-0.5,0.8c-0.1,0.2-0.4,0.5-0.3,0.7c0.3,2.2,0.4,4.5,2.3,6.1
			c0.6,0.5,1.8,0.8,2.6,0.7c1-0.1,1.7,0.5,2.5,0.9c1.1,0.7,2.2,0.9,3.5,0.9c0.5,0,1,0.3,1.5,0.5c1,0.4,2,0.9,3.1,1.1
			c0.7,0.2,1.4,0,2.3,0c1.1,0.5,2.1,2.1,4,1.2c0.2-0.1,0.4,0,0.6,0.1c2,1.1,2.9,0.9,4.1-1.1c0.9,2.3,2.6,3.2,5,3.1c1,0,2,0.5,3,0.6
			c1.5,0.2,2.8,0.7,4.4,0.5c1.2-0.2,2.6,0.2,3.9,0.4c2.1,0.4,4.2,0.9,6.4,1.4c0.3,0.1,0.7,0.1,0.9,0c2.1-0.7,4.2,0,6.3,0.1
			c1.4,0,2.8,0,4.2-0.2c1.4-0.2,2-1.2,2-2.8c0-0.2,0.1-0.4,0.3-0.6c0.8-1.2,1.2-2.5,1.4-4c0.2-1.1,0.8-2.2,1.2-3.3
			c0.3-0.7,0.5-1.4,0.7-2.2c0,0,0.1-0.1,0.1-0.1c-0.7-1.8,0.9-3.3,0.8-5.1c-0.1-1.1,0-2.2,0.6-3.3c0.3-0.5,0.2-1.2,0-1.8
			c-0.2-0.9-1.2-1.2-1.9-0.6c-0.8,0.6-1.6,1.2-1.4,2.5c0.1,0.6-0.4,1.2-0.5,1.9c-0.4,2.1-0.8,4.3-1.2,6.4c0,0.2,0,0.4-0.2,0.6
			c-1.9,2.1-1.2,4.8-1.8,7.2c-0.2,0.9-1.7,2.4-2.7,2.3c-2.5-0.3-5-0.7-7.6-0.8c-1.8-0.1-3.5-0.4-5.3-0.9c-1.2-0.4-2.7,0-4,0
			c-0.1,0-0.2,0-0.2,0c-2.3-0.4-4.5-0.9-6.8-1.3c-0.7-0.1-1.3,0-2-0.1c-0.6-0.1-1.2-0.4-1.7-0.4c-0.9-0.1-1.9-0.3-2.7-0.1
			c-0.9,0.2-1.4-0.1-1.9-0.6C331.7,133.2,330.5,133,329.6,133.5z"/>
		<path class="st0" d="M324.3,161.1c-0.7-1.4-1.6-1.1-2.5-0.4c-1.5-1.4-3.1-1.9-5.1-2.1c-1.6-0.1-3.1-0.7-4.6-1.1
			c-1.3-0.3-2.5-0.7-3.8-1c-0.9-0.2-1.6,0.2-1.9,1c-0.3,0.8-0.5,1.9,0.6,2.2c1.7,0.6,3.4,1,5.1,1.4c2.5,0.6,5,1.1,7.5,1.6
			c0.3,0.1,0.6,0,0.9,0c0.4,0.1,0.8,0.2,1.2,0.3c0.5,0.1,1.1,0.2,1.6,0.4c0.4,0.1,0.8,0.1,1.2,0.3c1.2,0.6,2.1,0.4,2.9-0.6
			c0.6-0.8,0.2-1.5-0.3-2C326.6,160.4,325.4,160.4,324.3,161.1z"/>
		<path class="st0" d="M320.9,120.4c-0.1,0.6-0.1,1.3,0.9,1.5c0.1,0,0.3,0.1,0.3,0.1c0,2,2.7,2.2,2.7,4.1c0,0.1,0.2,0.3,0.3,0.3
			c1.7,0.1,1.9,1.8,2.6,2.8c0.4,0.6,1.6,0.9,1.3,2c0.3,0,0.6,0.2,0.8,0.1c0.5-0.2,0.9-0.6,1.3-1c-1.3-1.7-2.6-3.2-3.9-4.8
			c0.2-0.6,0.5-1.3-0.9-1.6c-0.6-0.1-1.1-1-1.6-1.6c-1.3-1.8-2.7-3.5-4-5.2c-0.9-1.2-2.2-1.9-3.1-3c-0.4-0.6-0.7-1.3-1.1-1.8
			c-0.4-0.4-1-0.6-1.6-0.9c-0.7,0.5-0.6,1.9,0.6,2.7c0.5,0.4,1.1,0.9,1.3,1.5c0.3,1,1,1.5,1.7,2.1c0.5,0.4,0.7,1.2,1.1,1.7
			C319.8,119.7,320.3,120,320.9,120.4z"/>
		<path class="st0" d="M318.8,140.6c0,0.1,0,0.5,0,0.7c0.2,0.1,0.5,0.1,0.6,0.2c0.5,0.5,0.8,1.2,1.4,1.5c1.1,0.4,2,1.4,3.4,1.1
			c0.8-0.2,1.7,0,2.5-0.1c0.2,0,0.6-0.6,0.5-0.9c-0.3-1.1-2.5-2.2-3.5-2.2c-0.9,0-1.7-0.1-2.6-0.2c-0.2,0-0.3-0.1-0.5-0.1
			C320,140.7,319.4,140.7,318.8,140.6z"/>
		<path class="st0" d="M323.7,150.7c1.7,0.8,3.4,1.6,5.1,2.2c0.8,0.2,1.7-0.2,2.6-0.4c0.3-0.1,0.7-0.7,0.6-0.9
			c-0.1-0.4-0.5-0.9-0.8-0.9c-1.5-0.3-3.1-0.4-4.6-0.8C325.3,149.4,324.5,149.5,323.7,150.7z"/>
		<path class="st0" d="M295.8,141.4c0.8,0.7,1.6,1.5,2.5,2c0.9,0.5,2.1,0.6,3.1,1c0.6,0.2,1.1,0.2,1.5-0.5c0.4-0.7,0.3-1.5-0.3-1.9
			c-0.8-0.5-1.8-0.8-2.7-1.1c-1.3-0.4-2.6,0.2-3.9,0.2C296,141.2,295.9,141.3,295.8,141.4z"/>
		<path class="st0" d="M310.7,147.7c0.9-0.7,1.3,0.2,1.9,0.4c0.5,0.2,1,0.3,1.5,0.4c0.4,0.1,0.8,0.3,1.2,0.3c0.6,0,1.2,0,1.7-0.2
			c0.2-0.1,0.3-1,0.1-1.4c-0.4-0.6-0.9-1.3-1.5-1.4c-1.2-0.3-2.5-0.3-3.8-0.4c-1.2-0.1-1.5,0.3-1.2,1.5
			C310.6,147.2,310.6,147.4,310.7,147.7z"/>
		<path class="st0" d="M336.5,153.3c1.2,0.7,2.1,1.3,3.1,1.8c0.4,0.2,1,0.3,1.6,0.2c0.6,0.1,1.2,0.3,1.8,0.4
			c0.7,0.1,1.4,0.1,1.5-0.9c0.1-0.9-0.1-1.4-1.1-1.8c-2-0.7-4-0.3-6-0.4C337,152.6,336.7,153.1,336.5,153.3z"/>
		<path class="st0" d="M345.9,146.5c0.3,0.5,0.4,0.9,0.6,1.1c1.2,0.9,2.4,1.9,3.7,2.7c0.5,0.3,2.1-0.3,2.3-0.8
			c0.3-0.9-0.3-2.1-1.4-2.3c-1.3-0.3-2.6-0.8-3.9-0.3C347,147,346.6,146.7,345.9,146.5z"/>
		<path class="st0" d="M306.5,138.2c0.5-0.1,0.8-0.2,1.1-0.3c0.3,1.5,0.6,1.8,2.2,1.7c0.4,0,0.8,0.1,1.1,0.2
			c0.7,0.3,1.2,0.1,1.6-0.5c0.4-0.7,0.3-1.3-0.2-1.8C311,136.1,307,136.1,306.5,138.2z"/>
		<path class="st0" d="M333.7,144.4c0.7,0.8,0.6,2.1,1.8,1.5c0.3,0.5,0.7,1.2,1,1.2c1.1-0.1,2.4,0.7,3.3-0.6
			c0.6-0.9-0.1-1.3-0.6-1.6c-0.9-0.4-1.8-0.9-3-0.5C335.5,144.6,334.7,144.4,333.7,144.4z"/>
		<path class="st0" d="M365.8,115.1c-0.2,0.5-0.3,1.1-0.6,1.8c0.4-0.1,0.6-0.1,0.9-0.1c-0.1,0.3-0.1,0.6-0.2,1.1
			c0.8-0.2,1.4-0.3,2.1-0.4c0-0.1,0-0.2,0-0.4c-1.3,0-1.9-0.6-1.8-1.9C366.1,115.2,365.9,115.2,365.8,115.1z"/>
	</g>
</g>
</svg>
