<?xml version="1.0" encoding="utf-8"?>
<!-- Generator: Adobe Illustrator 25.3.1, SVG Export Plug-In . SVG Version: 6.00 Build 0)  -->
<svg version="1.1" id="レイヤー_1" xmlns="http://www.w3.org/2000/svg" xmlns:xlink="http://www.w3.org/1999/xlink" x="0px"
	 y="0px" viewBox="0 0 498.7 551.5" style="enable-background:new 0 0 498.7 551.5;" xml:space="preserve">
<style type="text/css">
	.st0{fill:#FFFFFF;}
	.st1{fill:#FFEBE7;}
	.st2{fill:#F2E2F1;}
	.st3{fill:#7A6150;}
	.st4{fill:#E7EFFF;}
	.st5{fill:#FFFCC1;}
</style>
<g>
	<path class="st0" d="M143,183.5h-26l-0.9,55.4c0,0,20.2,3.6,21.4,3.2C138.8,241.7,143,183.5,143,183.5z"/>
	<path class="st1" d="M151,158.7c0,0-3.4,10.3-6.4,12.7c-2.9,2.4-8.8,7.8-8.8,7.8l-1.5,55.8l-19.9-5.5l-2.6,21.3
		c0,0,31.3,7.7,36.7,9.7s26.3,4.9,30.7,1.7c4.5-3.2,10.3-12.8,9.3-18.3c-0.9-5.5-3.4-45.1-3.4-45.1s-0.3-24.1-3.4-28.4
		c-3.1-4.3-6.9-4.4-10.3-5.9C168.2,163.1,151,158.7,151,158.7z"/>
	<polygon class="st1" points="113.9,169.8 123.2,177.2 121.7,232.6 114.5,229.5 103,218.9 95.9,218.1 109.9,171.9 	"/>
	<path class="st1" d="M95.9,167.8c0,0-9.9-1.5-15.5,5.1s-6.2,17.3-7.8,23.2C71,202,71,223.9,71,223.9s-3.7,13.4-2.7,19.8
		c1.1,6.4,2.7,10.7,8,11.2c5.4,0.5,11.8-9.6,15-15.5s13.9-43.9,16.1-49.8s6.4-19.8,6.4-19.8l-13.7-4.8L95.9,167.8z"/>
	<path class="st2" d="M136.2,71c0,0-3.2,10-7,13.5s-11.7,6.7-11.7,6.7l-1.8-2.9c0,0-9.1,4.1-10.8,5.6s-4.1,3.5-4.1,3.5
		s1.2,10.5,3.2,15.8c2.1,5.3,5.9,12,7,14.1c1.2,2.1,2.9,4.7,2.9,4.7s-6.2,7-7.3,8.8c-1.2,1.8-2.3,6.4-2.9,9.4s-3.5,14.9-3.5,14.9
		l-1.8,2.3l-4.7-2.9c0,0,0-7-1.8-11.7s-6.4-14.9-6.4-22.3c0-7.3-0.3-24.6,2.3-31.4c2.6-6.7,7.9-30.2,11.4-34.3s9.4-16.1,13.5-18.2
		c4.1-2.1,12.9-4.1,16.1-3.2c3.2,0.9,8.5,2.6,8.5,2.6s8.2,0.3,14.4,3.5s12.3,16.4,14.1,22.6s2.6,28.4,2.6,35.7s-1.5,26.1-1.5,32.2
		c0,6.2,0.6,14.4,0.6,16.7s0.9,7.3,0.9,7.3s-12-4.4-14.4-5s-10-7-11.1-11.1c-1.2-4.1-0.3-13.5-0.3-13.5l0.3-5.3c0,0,5.3-6.7,6.7-8.8
		s4.4-6.7,4.4-6.7s5.3,0.9,7.9-2.3s3.8-7.9,1.8-9.7s-2.3-2.9-5-2.6c-2.6,0.3-5-1.2-8.2-3.2c-3.2-2.1-10-12.3-11.4-17.3
		S136.2,71,136.2,71z"/>
	<g>
		<path class="st3" d="M19.9,53.1c0.6-0.7,1.3-1.1,0.8-2.3c-0.5-1.1,0.2-2.4,1-3.3c0.7-0.7,1.3-1.4,2-1.9c0.4-0.3,0.9-0.3,1.4-0.4
			c0.6-0.1,0.9-0.2,0.6-0.9c-0.9-2.7-0.6-5.3,1.2-7.5c0.7-0.8,1.3-1.4,1.7-2.4c0.5-1.4,2.6-1.9,4.1-1.4c0-1.8,0.3-2.2,2.2-2.5
			c1.6-0.3,3.2-0.8,4.9-1.2c1.5-0.3,2.9-0.5,4.4-0.6c0.7,0,1.4,0.3,2,0.6c0.9,0.4,1.7,1,2.7,1.3c0.6,0.2,1.4,0,1.9-0.2
			c2.3-1,4.5-1.1,6.8,0c1.7,0.9,1.7,0.8,1.9,1.9c1.6,0.2,2.8,0.8,3,2.6c0,0.4,0.6,0.8,1,1c1,0.5,1.4,1.3,1.6,2.4
			c0.3,1.8,0.1,3.5-0.5,5.1c2.3,1.1,3.3,3.2,4.1,5.4c-0.4,0.4-0.8,0.9-1.2,1.3c0,0.1,0.1,0.1,0.1,0.2c0.4-0.3,0.8-0.5,1.4-0.9
			c-0.1,0.4-0.2,0.7-0.3,1c2.2,1.2,0.7,8.9-3.3,10.4c-0.2,0.8-0.4,1.4-0.6,2c-0.1,0.3-0.1,0.6,0,0.9c0.3,1.1,0.1,2-0.8,2.7
			c-0.5,0.4-0.9,1.1-1.4,1.6c-1.4,1.2-3.5,1.1-4.9-0.2c-0.5,0.4-1.3,0.6-1,1.6c0.1,0.3-0.1,0.8-0.3,1c-2,1.5-3.7,3.6-6.5,3.6
			c-0.2,0-0.5,0.3-0.7,0.3c-1,0.3-1.9,0.6-3-0.1c-1.1-0.6-2.5-0.7-3.6-1.3c-0.6-0.3-0.8-1.4-1.5-1.7c-0.5-0.2-1.3,0.4-2,0.5
			c-0.5,0-1-0.3-1.5-0.5c-0.3,1.2-1.3,1.6-2.6,1.5c-1.5-0.1-3.1,0.1-4.6-0.6c-1-0.5-1.6-1.5-1.3-2.4c0.4-1.1,1.4-1.4,2.6-1.2
			c1.3,0.3,2.7,0.4,4,0.6c0.6,0.1,1.1,0.2,1.7,0.3c0.5-1.3,1.7-1.5,2.9-1.7c0.2,0,0.3,0,0.4-0.1c0.5-0.4,1-0.7,1.4-0.1
			c0.2,0.4,0.1,1,0.2,1.6c0.7,0.3,1.5,0.8,2.4,1.1c0.9,0.3,1.8,0.7,2.7,0.6c1.2-0.1,2.5-0.4,3.6-0.9c1.3-0.6,2.4-1.4,3.6-2.2
			c-0.3-1.7,0.2-2.7,1.3-2.8c1.1-0.1,1.8,0.6,2,2.1c0.1-1,0.7-1.6,1.6-1.7c1.4-0.2,2-1.4,2.8-2.3c0.2-0.2,0.2-0.8,0-1.1
			c-0.3-1.2,0-2,0.7-2.9c1.3-1.5,2.7-3,3.1-5.1c0.1-0.4-0.1-0.9-0.1-1.4c0-0.6,0.1-1.1,0.2-1.7c0.1-0.1,0.3-0.1,0.4-0.2
			c-0.9-1.1-1.9-2.2-2.9-3.3c-0.3-0.4-0.8-0.6-1.3-0.8c-1.5-0.6-2.1-1.9-1.7-3.5c0.3-1.2,0.7-2.4,0.9-3.7c0.1-0.4-0.1-0.9-0.1-1.4
			s-0.1-1-0.1-1.6c-1.5,0.2-2.5-0.7-3.3-2c-0.1-0.1-0.2-0.3-0.3-0.4c-1.9-0.2-3.6-1.9-5.7-1c-0.3,0.1-0.7,0.1-0.9,0.3
			c-1.4,1.1-2.6,1.2-4.1,0.3c-2.4-1.5-5-1.9-7.7-0.8C39.3,32.9,39.1,33,39,33c-1.4,0-2.8,0-4,0.9c-0.3,0.2-0.8,0-1.3,0
			c-0.8,1.5-1.7,2.9-3.6,3.4c-0.2,0-0.4,0.2-0.4,0.4c-0.7,2.6-1.5,5.2-0.8,7.9c0.2,0.8-0.4,1.5-1.1,1.6c-1.7,0.2-2.4,1.6-3.5,2.6
			c-0.4,0.4-0.6,0.9-0.9,1.2c-0.7,0.6-0.5,1.2-0.1,1.9c0.2,0.3,0.3,0.6,0.3,0.9c-0.1,2.1,0.4,3.2,2.4,4c1,0.4,1.4,1.1,1.3,2.1
			c0,0.6,0.2,1.4,0,1.8c-0.6,0.8-1.4,1.5-2.5,2.5c-0.5-1.3-0.9-2.4-1.3-3.4c-0.1-0.2-0.2-0.4-0.4-0.5c-1.3-0.9-2.2-2.1-2.7-3.5
			c-0.3-0.8-0.2-1.8-0.3-2.7c0-0.1-0.1-0.2-0.2-0.4C19.9,53.6,19.9,53.3,19.9,53.1z"/>
		<path class="st3" d="M103.7,149.1c-0.1-0.4-0.4-0.7-0.3-1c0.2-1.6,0.4-3.2,0.6-4.8c0.1-0.5,0.4-1,0.8-1.4c1.1-1.4,1.8-3.2,3.3-4.4
			c1-0.8,1.7-2,2.6-3c0.7-0.8,1.4-1.5,2-2.1c-0.6-0.6-1.1-1.2-1.6-1.8c-0.2-0.2-0.4-0.5-0.7-0.6c-1-0.3-1.3-1-1.4-2
			c-0.1-0.5-0.5-0.9-0.8-1.3c-0.4-0.6-1-1.1-1.3-1.7c-0.8-1.4-1.7-2.8-2.3-4.3c-0.5-1.2-0.7-2.6-1.3-3.7c-0.7-1.2-1.3-2.3-1.2-3.7
			c-1.5-0.9-0.7-2.7-1.4-4c-0.7-1.3-0.6-3-0.9-4.5s-0.6-2.9-0.9-4.4c-0.3-1.1,0-1.8,0.9-2.4c-1-0.6-1.3-1.6-0.9-2.5
			c0.2-0.6,1.1-1,1.8-1.2c0.9-0.2,1.8-0.3,2.5-1.2c0.6-0.7,1.7-1,2.6-1.6c1.5-0.9,3-1.9,4.5-2.9c0.5-0.3,1-0.4,1.5-0.6
			c0.6-0.5,1.2-1.1,1.9-1.7c0.7-0.6,1.5-1.1,2.1-1.8c1-1,2.4-1.2,3.2-0.3c0.6,0.7,0.3,2.2-0.7,3c0.1,0.9,0.2,1.7,0.3,2.3
			c1.5-0.7,3-1.4,4.4-2.2c0.8-0.4,1.4-1.1,2.1-1.7c1-1,2-2.1,3-3.2c0.1-0.1,0.3-0.2,0.3-0.3c-0.2-1.9,2.1-2.5,2.1-4.4
			c0-0.2,0.3-0.5,0.5-0.7c1.3-1.2,1.9-2.7,2.1-4.5c0-0.5,0.6-0.9,0.7-1.3c0.3-1,1.6-1.6,1.2-3c-0.1-0.2,0.8-0.9,1.3-0.9
			c0.6-0.1,1.5,0.1,1.8,0.5c0.6,0.9,0.9,1.9,1.2,3c0.4,1.1,0.6,2.2,1,3.3c0.9,2.6,1.4,5.4,2.8,7.7c1.2,2,1.6,4.5,3.8,6
			c1.2,0.9,1.9,2.5,2.8,3.9c0.1,0.2,0.2,0.5,0.4,0.6c0.9,0.6,1.3,1.3,0.9,2.5c1.5-0.5,2.3,0.3,3.1,1.4c0.3,0.4,1,0.6,1.6,0.8
			c0.6,0.2,1.2,0.2,1.8,0.3c0.8,0.1,1.6,0.4,2.3,0.2c1.3-0.3,2.3,0.2,3.2,0.9c0.5,0.4,0.8,1,1.7,1.1c0.5,0.1,1,1.1,1.2,1.8
			c0.6,2.1,0.9,4.3,0.2,6.4c-0.3,0.8-0.9,1.5-1.4,2.3c-0.7,1.1-1.2,2.4-2.1,3.1c-1.2,0.9-2.3,2.2-4.1,2.1c-0.8,0-1.6,0.8-2.3,0.7
			c-1.6-0.2-1.7,1-2.3,1.9c-1.2,1.7-2.4,3.3-3.6,4.9c-0.6,0.7-1.2,1.4-1.7,2.1c-0.9,1.5-2.1,2.7-3.5,3.8c-0.2,0.2-0.3,0.5-0.3,0.8
			c-0.1,1.4-0.1,2.9-0.2,4.3c-0.1,1.3-0.1,2.6-0.4,3.9c-0.3,1.3,0.2,2.6,0.1,3.8c-0.1,0.7-0.5,1.3-0.7,2c1.4,0.8,1,2.5,1.4,3.8
			c0.2,0.7,0.5,1.3,0.8,1.9c0.3,0.6,0.7,1.2,1.1,1.7c0.2,0.3,0.4,0.5,0.6,0.8c0.4,0.6,0.8,1.1,1.2,1.7c0.2,0.2,0.2,0.5,0.5,0.7
			c1.5,1.1,2.7,2.4,4.6,2.9c1.7,0.4,3.4,1,5.1,1.5c0.3,0.1,0.6,0,0.9-0.1c-0.1,1.1,0.5,1.6,1.6,1.2c1.4-0.5,4.4,0.7,5.4,2
			c0-0.8,0-1.4-0.1-2.1c-0.2-1.2-0.7-2.4-0.8-3.6c-0.1-1.6,0.5-3.2,0.3-4.8c-0.3-1.8,1-3.6-0.1-5.4c-0.2-0.3-0.3-0.9-0.1-1.3
			c0.5-1.4-0.2-2.7-0.5-4c-0.1-0.3-0.1-0.5-0.1-0.8c0-0.8,0.2-1.6,0.1-2.4c-0.2-1.4,0-2.7,0.5-4c0.2-0.4-0.1-1.1-0.2-1.6
			c-0.3-1.3,0-2.2,1.3-2.6c-1.6-1.4-0.9-3-0.7-4.7c0.1-1.3,0.4-2.5,0.5-3.7c0.2-2.4,0.2-4.8,0.6-7.2c0.5-2.5-0.1-4.8-0.1-7.3
			c0-0.9,0.5-1.8,0.7-2.8c-0.7-1.9-1.1-4.1-0.8-6.3c0.1-0.7-0.1-1.3-0.1-2c0-0.5-0.1-1,0-1.5c0.2-1.1,0.8-2.2-0.1-3.3
			c-0.2-0.2-0.2-0.5-0.2-0.8c0-1.9,0.2-3.8,0-5.6c-0.2-1.8-0.8-3.5-1.1-5.2c-0.2-0.9-0.2-1.8-0.3-2.7c-0.1-0.6-0.1-1.3-0.1-1.9
			c-0.2-0.4-0.6-0.9-0.8-1.4c-0.3-0.8-0.5-1.7-0.8-2.6s-0.5-1.9-0.9-2.8c-0.6-1.4-1.4-2.7-2.1-4.1c-0.2-0.4-0.4-1.2-0.1-1.5
			c0.5-0.5,1.2-1.1,1.8-1s1.2,0.8,1.6,1.4c1,1.4,1.8,2.8,2.1,4.6c0.2,1.2,1,2.4,1.5,3.5c0.6,1.3,0.9,2.7-0.3,3.9
			c1.2,0.6,2,2.2,1.8,3.4c0,0.2-0.1,0.5,0,0.7c0.7,0.8,0.7,1.8,0.8,2.8c0.2,2.1,0.5,4.2,0.7,6.3c0.1,1.2,0.3,2.3-0.4,3.4
			c-0.1,0.1,0.1,0.5,0.2,0.7c0.1,0.3,0.4,0.6,0.4,1c0,1.3,0,2.5,0,3.8c0,2,0.5,4.1,0,5.9c-0.4,1.6,0.4,2.9,0.2,4.3
			c-0.1,1.2,0.1,2.4,0.1,3.6c0,1.1-0.3,2.1-0.1,3.1c0.4,1.9,0.1,3.8-0.1,5.7c-0.2,2.1-0.3,4.2-0.4,6.3c0,0.3,0,0.7-0.2,0.9
			c-0.8,0.6-1,1.4-1.2,2.4c0,0.3-0.4,0.5-0.6,0.7c0.3,0.5,0.9,1,1,1.5c0.2,1.2,0.2,2.5,0.2,3.7s0,2.4-0.1,3.6c0,0.9-0.1,1.9-0.1,2.8
			c0,0.4,0,0.8,0,1.2c0,0.2,0.1,0.4,0.1,0.7c-0.1,1.1-0.3,2.2-0.4,3.3c-0.1,0.6-0.3,1.3-0.2,1.9c0.1,1.7,0.3,3.3,0.5,5
			c0,0.8-0.2,1.6-0.1,2.3c0.4,2.5,0.9,5,1.2,7.2c2.5,1.2,4.6,2.4,6.9,3.2c2,0.7,3.4,2,4.8,3.4c0.9,1,1.6,2.1,1.8,3.5
			c0,0.2,0.1,0.4,0.2,0.6c1.2,2.3,1.6,4.8,1.5,7.4c0,0.6,0.2,1.2,0.3,1.8c0.2,1.5,0.4,3.1,0.6,4.7c0,0.4-0.2,0.8-0.3,1.2
			c-0.1,0.3-0.1,0.6-0.1,0.9c0.2,2.8,0.5,5.7,0.7,8.5c0.1,1.6-0.2,3.1-0.1,4.7c0.1,0.9,0.5,1.8,0.7,2.7c0.1,0.2,0.1,0.4,0.2,0.7
			c0.1,2.7,0.2,5.4,0.3,8.1c0.1,1.7,0.4,3.4,0.4,5.1c0.1,2.3,0,4.5,0.1,6.8c0,0.3,0.1,0.7,0.1,1c0.2,2.1,0.3,4.1,0.5,6.2
			c0.1,1.3-0.4,2.3-1.9,2.7c0.1,0.3,0.2,0.6,0.3,0.8c1.1,0.7,1.7,1.5,1.6,3c-0.1,1.2,0.2,2.4-0.5,3.6c-0.2,0.3-0.1,0.9,0.1,1.2
			c0.5,1.1,0.5,2,0.2,3.2c-0.4,1.4-0.3,2.9-0.6,4.3c-0.1,0.7-0.4,1.5-0.8,2c-0.4,0.5-0.6,0.9-0.5,1.6c0.1,0.7,0,1.3-0.7,1.7
			c-0.5,0.4-0.9,1-1.2,1.5c-0.7,1.3-1.6,1.5-3,0.9c-0.3,1.6-1.3,2.5-2.7,3c-0.7,0.3-1.3,0.8-2,1c-1.6,0.5-3.3,1-5,1.3
			c-0.9,0.2-1.9-0.3-2.8-0.1c-1.3,0.2-2.3-0.4-3.5-0.7c-1.2-0.3-2.6-0.3-3.8-0.5c-1.8-0.2-3.7-0.3-5.5-0.5c-1.5-0.2-3.1-0.4-4.6-0.6
			c-0.3,0-0.6-0.1-0.9-0.2c-1.3-0.3-2.6-0.6-3.9-0.9c-1.7-0.3-3.4-0.5-5.1-0.8c-1.2-0.3-2.4-0.7-3.5-1.1c-0.8-0.3-1.2-1.8-0.8-2.5
			c0.3-0.7,1.6-1,2.4-0.6c1.7,1,3.7,0.8,5.6,1c1.2,0.2,2.4,0.7,3.7,1c0.4,0.1,0.8,0.1,1.3,0.2c0.8,0.2,1.8,0.2,2.4,0.7
			c0.6,0.5,1,0.4,1.5,0.4c1.4,0,2.8,0.2,4.2,0.3c1.5,0.1,2.9,0.1,4.4,0.2c0.6,0,1.3,0,1.9,0.2c2.3,0.9,4.6,0.9,7,1
			c1.8,0.1,3.3-0.7,4.6-1.4c2.2-1.2,4.3-2.7,5.3-5.2c0.3-0.7,1.1-1.3,1.6-1.9c0.1-0.1,0.4-0.3,0.4-0.4c-0.3-1.4,0.9-2.3,1.1-3.6
			c0.1-1-0.1-2.1,0.2-3c0.5-1.4,0.5-2.5-0.2-3.8c-0.3-0.6,0.3-1.5,0.2-2.3c0-0.9-0.3-1.7,0.6-2.4c0.3-0.2,0.2-1.2-0.1-1.6
			c-1.1-1.6-0.7-3.3-0.7-5c-0.1-3.5-0.2-7.1-0.4-10.6c-0.1-1.8-0.1-3.6-0.2-5.4c-0.2-2.9-0.5-5.9-0.7-8.8c-0.1-1.6-0.1-3.2-0.2-4.7
			c0-1.9,0-3.8-0.1-5.6c-0.1-1.9-0.3-3.9-0.4-5.8c-0.3-3.3-0.7-6.5-1-9.8c-0.2-2.1-0.6-4.2-1.5-6.1c-0.4-1-1-1.9-1.9-2.7
			c-1-0.9-2.1-1.6-2.5-3c-0.1-0.4,0-0.8,0-1.1c-0.4,0.4-0.7,0.9-1.2,1.1c-0.6,0.1-1.3,0-1.9-0.2c-1.3-0.4-2.7-0.9-4-1.4
			c-0.5-0.2-0.9-0.6-1.4-0.7c-1-0.3-2-0.6-3-0.6c-1.4,0-4.4-1.8-4.9-3c-1.7,1.5-3.2,0.1-4.8-0.3c-0.9-0.3-1.9-0.6-2.8-0.8
			c-0.1,0-0.3,0.1-0.3,0.1c-0.4,1.1-0.7,2.2-1.2,3.2c-0.2,0.4-0.6,0.6-0.9,1c0.2,0.2,0.5,0.5,1.1,1c-1.1,1.6-2.2,3.2-3.4,4.8
			c-0.1,0.2-0.2,0.3-0.3,0.5c-0.5,2-1.6,3.4-3.8,3.8c-0.2,0-0.4,0.2-0.5,0.3c-1.1,2.1-3.2,2.7-5.2,3.4c-0.5,0.2-0.9,0.5-1,0.8
			c-0.1,1.7-0.2,3.5-0.2,5.2c0,0.6,0.1,1.2,0.2,1.8c0,0.4,0,0.7,0,1.1c0,2,0,3.9,0,5.9c0,0.7,0.1,1.5-0.1,2.2
			c-0.5,1.6,0.1,3.2-0.1,4.9c-0.2,1.5,0,3,0,4.5c0,0.3-0.1,0.5-0.1,0.8c0,1.8-0.1,3.5-0.1,5.3c0,1.7,0.3,3.4,0.2,5.1
			c0,0.5-0.8,1-1.2,1.5c-0.3,0.4-0.6,0.7-1,1c0.1,0.1,0.1,0.2,0.2,0.3c0.3-0.1,0.7-0.2,1-0.3c0.8,1.7,0.7,3.3,0.4,5.1
			c-0.2,1.6,0,3.3,0,5c0,0.3,0.1,0.7-0.1,1c-0.7,1.3-0.2,2.7-0.1,3.9c1.7,0.3,3.4,0.6,5.1,0.8c1.7,0.2,3.4,0.4,5.1,0.6
			c1.1,0.1,2.2-0.2,3.2-0.1c2,0.3,4,0.9,6,1.1c1.3,0.1,2.7-0.2,4.1-0.3c1.6-0.1,2.4,0.3,2.9,2.5c1.1-1.2,0.5-2.6,0.6-3.8
			c0.1-1.3-0.1-2.7-0.1-4.1c0-1,0.1-2,0-3c-0.2-1.2,0.3-2,0.7-2.9c-0.1-0.1-0.3-0.3-0.3-0.6c-0.1-1.4-0.1-2.9-0.2-4.3
			c0-0.7,0.1-1.4,0.1-2.2c0-1.4-0.2-2.9-0.2-4.3c0-1.8,0.3-3.6,0.4-5.4c0.1-1.2,0-2.3,0-3.5c0.1-2.2,0.1-4.3,0.3-6.5
			c0.2-2.1,0.6-4.1,0.8-6.2c0.1-0.5-0.2-1-0.1-1.4c0.3-0.7,1.7-1.1,2.4-0.7c0.8,0.5,0.9,1.2,0.7,2.1c-0.2,0.9-0.2,2-0.3,2.9
			c-0.1,1.5,0,2.9-0.1,4.4c-0.1,1.7-0.2,3.4-0.2,5.1c-0.1,1.9,0.1,3.9-0.1,5.8c-0.1,1-0.6,1.9-0.1,3c0.2,0.4-0.1,1-0.2,1.6
			c0,0.3-0.1,0.6-0.1,0.9c0.1,1.8,0.4,3.6,0.4,5.4c0,0.6-0.6,1.2-0.8,1.8c0.1,0.3,0.3,0.6,0.3,0.9c-0.1,0.7,0,1.3,0.2,1.9
			c0.2,1.1,0.9,2.5-0.2,3.6c-0.1,0.1-0.1,0.4-0.1,0.5c0.1,2.1,0.2,4.3,0.3,6.4c0,0.8,0,1.6,0,2.4l0.1,0.2c1.6-0.1,2.8,0.8,4.2,1.2
			c1.2,0.4,1.6,0.9,1.3,2.2c-0.2,0.9-1.3,1.6-2.2,1.3c-1-0.3-1.9-0.7-2.8-1c-0.6-0.2-1.3-0.6-1.9-0.7c-1.4-0.1-2.4-0.7-3-1.9
			c-1.3,0.3-4.4,0-5.9-0.5l-0.1-0.1c-1.4,1.1-3,0.1-4.5,0.5c-1.1,0.3-2.3,0-3.4-0.2c-2.4-0.3-4.8-0.8-7.2-1.1
			c-1.9-0.3-3.9-0.3-5.8-0.6c-0.9-0.1-1.7-0.5-2.6-0.7c-1.3-0.2-2.6-0.4-3.9-0.5c-1.5-0.2-3-0.2-4.5-0.6c-1.5-0.3-2.9-1-4.4-1.5
			c-1.3-0.4-2.6-0.6-4-1c0.7,2,0.5,3.9,0.1,5.8c-0.3,1.5-0.5,3-0.8,4.5c-0.2,1.7-0.4,3.5-0.6,5.2c0.4,0.2,0.7,0.4,0.9,0.4
			c2,0,3.5,1.1,5.1,2c2,1.1,4.1,1.9,6.3,2.2c0.2,0,0.4,0.1,0.6,0.2c0.9,0.6,1.7,0.9,2.9,0.7c0.5-0.1,1.1,0.5,1.8,0.9
			c1.2-0.8,2.9-0.7,3.8,0.5c0.3,0.4,0.3,1.7,0.1,1.9c-0.8,0.4-1.8,0.7-2.8,0.7c-0.6,0-1.1-0.8-1.7-1.2c0.1-0.1,0.1-0.2,0.2-0.3
			c-0.5,0.3-1.1,0.9-1.4,0.8c-1.2-0.5-2.4-0.1-3.5-0.3c-1.4-0.2-2.7-1-4.1-1.5c-0.9-0.3-1.1-1-1.1-1.9c-1.4,0.9-2.6,0.7-3.9-0.2
			c-0.6-0.4-1.4-0.5-2-0.8c-1.3-0.7-2.6-1.4-3.9-2c-0.7-0.3-1.4-0.4-2.2-0.6c-0.7-0.2-1.4-0.4-2.1-0.5c-0.4-0.1-0.8-0.1-1.2-0.3
			c-0.6-0.3-1.3-0.6-1.6-1.1c-0.2-0.4-0.1-1.4,0.2-1.6c0.5-0.4,1.3-0.6,2-0.5c1.4,0.2,2.8,0.5,4.3,0.8c0.3-1.7,0.6-3.3,0.8-4.9
			c0.1-0.5,0.1-1.1,0.2-1.6c0.2-1,0.3-2.1,0.5-3.1c0.1-1,0.2-2,0.3-2.9c0.1-0.5,0.3-1,0.5-1.6c-0.8-0.5-1.8-1-2.5-1.7
			c-1.1-1.1-2.1-2.4-3.1-3.6c-0.6-0.6-1.2-1.2-1.7-1.9c-0.5-0.8,0.6-2.9,1.5-2.6c0.7,0.2,1.4,0.8,1.9,1.4c1.6,1.7,3.1,3.5,4.7,5.2
			c0.4,0.4,1.2,0.5,1.8,0.5c0.9,0.1,1.8,0.2,3.1,0.3c0.1-1.9,0.2-3.9,0.3-5.9c0.1-2.3,0.2-4.5,0.3-6.8c0-0.9,0-1.8,0.1-2.8
			c0-0.2,0.2-0.5,0.3-0.7c0.1-0.6,0.3-1.4,0.2-1.9c-0.6-1.7,0-3.2,1.7-3.9c-1.4-0.5-1.6-1.4-1.5-2.8c0.2-1.4-0.2-2.9,0.4-4.3
			c-1.2-1.1-0.5-2.5-0.6-3.8c-0.1-2.4-0.1-4.8-0.1-7.3c0-2.1,0.1-4.1,0.1-6.2c0-1-0.5-2,0.5-2.8c0.6-0.5,1.6-0.6,2.2,0
			c1,1,2.3,1.2,3.7,1.3c1.1,0.1,2.1,0.2,3.2,0.1c1.2-0.1,2.4-0.5,3.7-0.8c-0.4-2.4,0.7-4.1,2.2-5.4c1-0.9,2.6-1.1,3.7-1.9
			c1.2-0.9,2.8-1.1,3.8-2.5c0.6-0.9,1.6-1.7,2.3-2.4c1-3.8,2-7.6,3-11.2c-1.4-1.5-2.7-2.9-4.1-4.4c-0.4-0.4-0.8-0.9-1.2-1.3
			c-1.2-1.1-1.7-2.4-1.8-4c0-0.8-0.4-1.7-0.6-2.5c-0.3-1.1-0.1-2,0.9-2.6c-1-0.9-1.8-1.7-1-3.2c0.3-0.6,0-1.4,0.1-2.1
			c0.2-1.6,0.5-3.3,0.7-4.9c0.1,0,0.2,0,0.3,0c-0.2-0.4-0.5-0.9-0.8-1.3c-1.3,0.6-2.5,1.4-3.8,1.6c-1.3,0.2-2.1,0.7-3,1.5
			c-0.6,0.5-1.6,0.4-2.4,0.6c-1.1,0.2-2.2,0.4-3,0.5c0.1,0.7,0.3,1.2,0.2,1.7c-0.1,1.1,0.4,2.2-0.5,3.2c-0.1,0.1,0.2,0.6,0.4,0.8
			c1,0.7,1.2,1.5,0.6,2.6c-0.1,0.2-0.1,0.3-0.2,0.5c-0.2,0.7-0.4,1.3-0.6,2.1c0.1,1.3,0.3,2.8,0.5,4.4c0,0.2,0.1,0.4,0,0.6
			c-0.8,1.2-1.7,2.4-2.6,3.6c-0.4,0.6-0.8,1.2-1.4,1.7c-1.7,1.5-3.4,2.9-5.1,4.4c-0.2,0.2-0.6,0.4-0.7,0.7c-0.5,1.1-1.2,1.3-2.4,1.1
			c-0.4-0.1-1,0.5-1.2,1c-0.5,1.1-1.1,2.2-1.3,3.4c-0.3,1.4,0.5,2.8,1.8,3.3c0.4,0.2,0.9,0.3,1.2,0.6c1.4,1.1,2.3,2.9,4.4,3.2
			c0.3,0,0.5,0.7,0.7,1.2c0.2,0.3,0.2,0.7,0.4,1c0.4,0.7,0.8,1.3,0.3,2.2c-0.4,0.7-0.8,1.3-1.8,1c-0.2-0.1-0.5,0.1-1,0.1
			c-0.5-1.1-1-2.3-1.5-3.5c-0.3-0.6-0.7-0.7-1.3-1c-1.1-0.4-2.2-1.1-3.2-1.8c-0.4-0.2-0.8-0.6-1.2-0.8c-0.7,2-1.4,4.1-2.1,6.1
			c-0.3,0.7-0.6,1.5-0.8,2.2c-0.3,1.3-0.3,2.6-0.8,3.8c-0.7,1.8-0.9,3.8-1.9,5.5c-0.5,0.8-0.7,1.7-0.9,2.6c-0.5,1.6-0.9,3.2-1.4,4.8
			c-1,3.2-2.1,6.3-3.1,9.5c-0.5,1.6-0.7,3.3-1.1,4.9c-0.4,1.5-0.8,2.9-1.3,4.6c1.5-0.3,2.5,0.1,3,1.5c1.5-0.2,3,0.8,3.7,2
			c0.4,0.7,0.4,1.5-0.2,2.2c-0.7,0.8-1.4,0.4-2,0.1c-1-0.4-2.1-1.7-2.2-2.5c-0.7-0.1-1.4-0.3-2.1-0.4c-1-0.2-1.4,0.2-1.5,1.2
			c-0.1,0.6-0.3,1.1-0.6,1.8c1.6,0,2.2,1.2,3.1,2.3c0.5,0.6,1.3,1,2,1.5c1.3,1,2,2.9-0.1,4.1c-2-1.5-4.1-3-6.3-4.7
			c-0.3,0.9-0.6,1.7-1,2.9c2.2-0.7,3.4,0.3,4.3,1.6c0.2,0.2,0.5,0.4,0.7,0.6c0.7,0.6,0.8,1.7,0.1,2.2c-0.6,0.5-1.2,0.6-2-0.1
			c-1-0.9-2.3-1.5-3.5-2.2c-1.4,1.4-1.9,3.2-1.1,4.6c0.5,0.7,1.3,1.2,2,1.9c1.1,1.1,2.1,2.2,3.1,3.2c0.9,0.9,1.9,1.8,2.8,2.6
			c0.2,0.2,0.5,0.5,0.8,0.6c1.4,0.2,1.3,1.3,1.3,2.3c0,0.9-0.8,1.2-1.6,1c-0.6-0.2-1.6-0.1-1.7-1.2c0-0.1-0.3-0.4-0.4-0.3
			c-1.1,0.2-1.6-0.6-2.2-1.3c-1.3-1.5-2.6-3-4-4.5c-0.5-0.5-1.2-0.8-1.8-1.2c-0.3,0.7-0.8,1.5-1.1,2.3c-0.7,2.1-2,3.8-3.2,5.5
			c-0.2,0.3-0.6,0.5-0.9,0.8c-0.2,0.2-0.4,0.5-0.4,0.8c0.1,0.8-0.3,1.5-1,1.7c-1.3,0.3-1.6,1.5-2.2,2.3c-1,1.2-1.5,2.8-3.5,3
			c-0.6,0.1-1,0.9-1.6,1.1c-3.1,1.3-6.1,0.6-8.5-1.9c-0.9-0.9-1.9-1.9-2.3-3c-0.6-1.4-0.6-2.9-0.9-4.4c-0.1-0.3,0.1-0.7,0-0.9
			c-0.7-1.1-0.6-2.3-0.5-3.4c0.1-1.5,0-3.1,0.1-4.6c0.1-0.9,0.4-1.8,0.6-2.7c0.3-1.5,0.4-3,0.7-4.5c0.1-0.7,0.6-1.4,0.7-2.1
			c0.1-0.9,0.3-1.8,0.1-2.6c-0.4-1.2-0.8-2.2,0.2-3.4c0.2-0.2-0.1-0.9,0-1.4c0-1.5,0.1-2.9,0.1-4.4c0-1.4,0-2.8,0.2-4.2
			c0-0.5,0.4-1,0.5-1.5c0.1-0.4,0-0.8,0.1-1.2c0.1-0.9,0.3-1.8,0.4-2.7c0.5-0.2,2-0.2,0.3-1.1c-0.2-0.1-0.2-0.8-0.2-1.2
			c0-1.2,0.1-2.4,0.1-3.6c0-0.1,0-0.2,0-0.2c1-1.4,0.3-3,0.5-4.5c0.3-2.1,0.4-4.2,1.3-6.2c0.1-0.2,0.3-0.5,0.2-0.7
			c-0.5-1.9,0.3-3.5,0.7-5.3c0.2-0.9,0.1-2,0.5-2.9c0.5-1.1,1.3-2.1,2-3.1c0.1-0.2,0.5-0.1,0.7-0.2c0.4-2.6,1.2-4.9,3.9-6
			c0.1,0,0.3-0.1,0.3-0.2c0.2-1.5,1.7-1.9,2.6-2.7c0.3-0.3,0.6-0.7,0.9-0.7c2.1,0,3.5-2.2,5.7-2.1c0.3,0,0.6-0.5,0.9-0.7
			c0.5-0.4,1-0.9,1.5-1.3c-0.4-0.7-0.7-1.4-0.3-2.6c0.3-1-0.1-2.2-0.4-3.3c-0.3-1.5-0.8-3-1.2-4.6c-0.3-1.2-0.7-2.4-1-3.6
			c-0.1-0.2,0.2-0.5,0.5-1c-0.3-0.2-1-0.5-1.3-1c-0.5-0.8-0.7-1.8-1-2.7c-0.4-1.2-0.8-2.4-1.1-3.7c-0.2-0.8-0.2-1.6-0.4-2.4
			c-0.2-0.8-0.5-1.5-0.7-2.3c-0.5-1.9-0.9-3.8-1.3-5.8c-0.1-0.7-0.1-1.4,0-2.1c0.1-1-0.5-2.1,0.3-3c0.1-0.1,0.1-0.3,0.1-0.3
			c-1.2-1.9-0.2-4-0.7-6c-0.1-0.4,0.1-0.8,0.2-1.1c0.2-0.8,0.7-1.6-0.1-2.3c-0.1-0.1-0.1-0.5-0.1-0.7c0.2-2.7,0.3-5.4,0.5-8.2
			c0.3-3.1,0.7-6.3,1.7-9.3c0.3-0.9,0.3-2,0.4-2.9c0-0.1,0-0.3,0-0.4c1.4-2.1,1.8-4.5,2.5-6.9c0.2-0.7,0.8-1.3,1.2-2
			c0.2-0.4,0.6-0.8,0.6-1.2c-0.1-1.9,0.2-3.7,1.9-5c0.5-0.4,0.8-0.9,0.3-1.6c-0.5-0.8,0.4-1.3,0.7-1.9c0.2-0.4,0.5-0.8,0.4-1.1
			c-0.3-0.9,0-1.6,0.4-2.4c0.4-0.7,0.6-1.7,0.8-2.5c0-0.1,0.1-0.2,0.2-0.3c1.7-2.3,2-5.2,3.2-7.7c0.2-0.4,0.5-0.9,0.8-1
			c0.7-0.1,0.7-0.7,0.8-1.1c0.2-2.9,2.2-4.8,3.6-7.1c0.4-0.7,1.2-1.1,2.2-0.6c0.3,0.2,1,0.1,1,0.3c0.1,0.6,0.3,1.4,0,1.9
			c-1.1,2.1-2.4,4.1-3.6,6.1c-0.3,0.5-0.8,0.8-1,1.2c-0.5,1.6-0.9,3.2-1.5,4.8c-0.8,2.1-1.7,4.2-2.7,6.3c-0.5,1.2-1.2,2.3-1.8,3.5
			c-0.1,0.2-0.3,0.5-0.3,0.6c0.3,1.3-0.3,2-1.6,2.4c1.1,1.4,0.6,2.6,0,4c-0.4,0.9-0.4,1.9-1.3,2.5c0.5,1.4-0.5,2.5-0.9,3.8
			c-0.1,0.3-0.2,0.6-0.3,0.9c-0.5,1.6-1,3.2-1.5,4.8c-1.2,3.8-1.8,7.6-2.4,11.5c-0.3,1.8-0.2,3.6-0.4,5.4c-0.1,0.8,0.1,1.6,0,2.4
			c-0.1,0.7-0.4,1.4-0.7,2.2c1.2,0.9,0.5,2.4,0.5,3.7c0.1,1.1,0,2.2,0,3.2c0,0.2,0,0.6-0.1,0.7c-1.1,0.9-0.1,1.8,0,2.7
			c0.1,1.2,0.4,2.4,0.5,3.6c0.1,0.5,0.1,1.1,0.2,1.6c0.1,1.1,0.2,2.3,0.5,3.4c0.2,0.9,0.5,1.7,0.7,2.6c0.3,1,0.5,1.9,0.8,2.9
			c0.4,1.2,1,2.4,1.4,3.6c0.2,0.6,0.1,1.4,0.2,2.1c0.1,0.5,0.2,1,0.5,1.4c0.7,0.7,1.1,1.4,1.1,2.5c0,0.9,0.6,1.8,0.9,2.8
			c0.3,1.1,0.4,2.4,0.9,3.4c1.1,2.2,0.2,4.3,0.2,6.6c0.5,0.3,1.2,0.6,1.8,0.9c0.4-0.7,0.6-1.7,1.3-2.4c1.4-1.6,1.5-3.5,2-5.4
			c0.2-0.8,0.4-1.5,0.6-2.3c0.4-1.3,0.3-2.6,0.8-3.9C101.8,150.6,102.5,149.7,103.7,149.1z M105.5,148.3c-0.1-0.4-0.3-0.8-0.5-1.4
			c-0.5,0.3-0.8,0.6-1.2,0.8c0,0.1,0.1,0.2,0.1,0.4C104.5,148.1,105,148.2,105.5,148.3c-0.1,0.8-0.2,1.6-0.3,2.4
			c-0.3,1.4-0.8,2.8-1,4.2c-0.4,2-0.6,4-1,6c-0.3,1.4-0.9,2.7,0.5,3.7c0.2,0.1,0.3,0.4,0.3,0.5c0.7,0,1.2-0.1,1.7,0
			c1.9,0.6,3.9,1.3,5.8,1.9c0.2-0.9,0.3-1.7,0.7-2.3c0.7-1.3,1.6-2.5,2.5-3.7c0.5-0.6,1-1.5,1.6-1.6c1.8-0.2,2.3-2.3,4-2.5
			c0.9-1.8,3.3-2,4.4-3.8c0.9-1.4,1.3-2.6,0.8-3.9c-0.4-1.2-0.2-2,0.6-2.9c0.5-0.6,0.4-2.5-0.1-2.8c-1.6-1.3-1.7-1.6-0.8-3.4
			c0.6-1,0.4-2-0.3-2.3c-0.5-0.2-1-0.4-1.4-0.5c-2.2-0.5-2.6-0.9-2.7-3.2c0-0.7,0-1.4-0.1-2.1c0-0.2-0.3-0.6-0.4-0.6
			c-0.6,0.1-1.2,0.3-1.7,0.5c-0.7,0.3-1.2,1-1.7,1.4c-1.6,1.2-3,2.5-4.4,4c-1.2,1.3-2.6,2.3-3.7,3.8c-0.3,0.3-0.8,0.6-0.8,0.9
			C107.7,144.4,106.7,146.4,105.5,148.3z M134.7,131.5c0.3-0.8,1.3-0.9,2.3-1.4c1.9-0.9,3.6-2.2,5.4-3.4c0.6-0.4,1.1-0.9,1.5-1.5
			c0.9-1.3,1.6-2.9,2.8-3.9c1.6-1.4,2.7-3.1,3.8-4.8c0.8-1.2,1.4-2.6,2.1-3.9c0.4-0.8,1.1-1.4,1.9-0.9c1.5,0.9,2.7,0.9,4-0.1
			c0.7-0.6,1.5-1,2-1.7c1.6-2.3,3.1-4.6,1.8-7.7c-0.8-1.8-2.4-2.5-4.2-1.5c-0.4,0.2-1.1,0.4-1.5,0.2c-1.9-0.7-3.4-2.3-5.5-2.6
			c-0.2,0-0.3-0.2-0.5-0.3c-1.3-1.3-2.6-2.5-3.8-3.8c-1.5-1.7-3-3.4-4.2-5.3c-1.5-2.3-2.6-4.8-3.8-7.3c-0.2-0.4-0.4-0.8-0.6-1.3
			c-0.6-2-1.2-4.1-1.9-6.3c-0.1,0.3-0.2,0.4-0.3,0.6c-0.6,1.5-1.3,2.9-1.9,4.4c-0.1,0.2-0.3,0.4-0.4,0.6c-1.1,1.4-1.4,3.4-3.1,4.4
			c-0.1,0,0,0.2-0.1,0.2c-0.7,1.1-1.4,2.2-2.2,3.3c-0.3,0.3-0.8,0.5-1.1,0.8c-0.6,1.1-1.4,1.8-2.6,2.2c-1,0.4-2.2,0.7-2.9,1.5
			c-0.9,1-1.8,1.1-2.9,1.3c-1.9,0.2-3.1-0.4-3.9-2c-0.6-1.1-1-1.2-1.9-0.2c-0.4,0.5-1,0.9-1.5,1.3c-1.3,0.8-2.7,1.5-4,2.3
			c-1.3,0.7-2.5,1.5-3.8,2.2c-0.7,0.4-1.4,0.7-2,1c0.3,0.7,0.5,1.1,0.5,1.5c0.4,1.8,0.8,3.7,1.1,5.5c0.3,1.7,0.3,3.4,0.5,5
			c0,0.2,0.1,0.3,0.1,0.5c0.5,1.1,1.1,2.1,1.4,3.2c0.4,1.2,0.5,2.4,1.4,3.4c0.2,0.2,0.4,0.5,0.4,0.7c-0.2,1.2,0.7,2,1.1,3
			c0.8,1.7,2.6,2.9,2.1,4.8c1.7,1.7,3.7,2.8,4.2,5.3c1-0.6,2.2-1.1,3.2-1.9c1.8-1.3,4.1-1,5.3,0.8c0.5,0.7,0.6,1.6,0.9,2.4
			c0.1,0.2,0.3,0.6,0.5,0.6c1.9,0,3.7,0,5.6,0c0.2,0,0.3-0.2,0.5-0.2C132,132.1,133.2,131.8,134.7,131.5z M100.1,166.4
			c-1.1,2.6-2.2,5.3-3.3,7.9c-0.3,0.7-1.1,1.3-1.2,2c-0.3,1.3-0.4,2.5-1.2,3.7c-0.9,1.4-1.3,3.3-2,4.9c-0.5,1.1-1,2.2-1.5,3.3
			c-0.3,0.5-0.4,1.2-0.7,1.7c-0.8,1-1.9,1.9-1.7,3.4c0,0.1-0.1,0.2-0.1,0.3c-0.9,1.8-1.9,3.5-2.8,5.3c-0.8,1.6-1.5,3.2-2.2,4.8
			c-0.2,0.5-0.1,1.2-0.4,1.6c-1.4,1.8-2.3,3.9-2.7,6.2c-0.1,0.4-0.7,0.8-1,1.1c0,0.6,0.1,1.3-0.1,1.9c-1.3,2.8-2.7,5.6-4.1,8.3
			c-0.8,1.7-1.7,3.4-2.5,5c-0.3,0.6-0.9,1.3-0.9,1.9c0,1.1-0.1,2.1-0.4,3.3c-0.5,1.6,0,3.5-0.8,5.1c-0.1,0.1,0.1,0.3,0.1,0.4
			c0,1.5,0.1,3,0.1,4.5c0,1.4-0.8,2.9,0.4,4.2c0.1,0.1,0,0.3,0,0.5c0.1,0.6,0,1.3,0.3,1.9c0.2,0.7,0.9,1.8,1,1.8
			c0.9-0.2,0.8,0.4,1,0.8c0.7,1.3,2.6,1.8,3.9,1.2c0.6-0.3,1.4-0.5,2-0.7c1.4-1.4,2.8-2.7,4.4-4.2c0.2-0.3,0.3-1.1,0.8-1.5
			c0.5-0.3,0.7-0.5,0.8-1.1c0.1-0.4,0.3-0.7,0.5-1.1c1.5-2.4,3.1-4.8,3.8-7.6c0.3-1.4,0.7-2.7,1.4-4c0.6-1.2,1.1-2.3,1.5-3.7
			c0.7-2.9,1.8-5.6,2.7-8.4c0.3-1,0.6-2.1,0.9-3.2c0.2-0.4,0.7-0.7,0.8-1.1c0.3-1,0.4-2,0.7-3.1c0.4-1.8,0.7-3.6,1.2-5.4
			c0.6-2,1.4-4,2.1-6c0.5-1.4,0.7-2.8,1.2-4.2c0.2-0.7,0.7-1.4,1-2.2c0.4-0.9,0.8-1.8,1.1-2.7c0.3-1.2,0.5-2.4,1.3-3.4v-0.1
			c0.1-0.6,0.1-1.2,0.2-1.8c0.2-0.9,0.5-1.8,0.7-2.8c0.4-1.4,0.5-2.9,1.8-3.9c0.3-0.3,0.5-0.7,0.9-1.3c-0.5,0.3-0.8,0.4-1.3,0.8
			c1.2-3.7,2.2-7.1,3.3-10.6c-0.6-0.1-1.2-0.1-1.7-0.3c-2.1-0.8-4.5-0.9-6-2.9c-0.1-0.2-0.6-0.1-0.9-0.2
			C101.5,166.8,100.8,166.6,100.1,166.4z M122.7,231.3c0.8,0.2,1.7,0.5,2.6,0.7c0.7,0.2,1.4,0.7,2,0.6c1.4-0.2,2.6,0.1,3.9,0.7
			c0.7,0.3,1.3,0.3,1.4-0.7c0.1-1.2,0.2-2.4,0.2-3.6c0.1-1.6,0.1-3.1,0.2-4.7c0-0.9,0.2-1.8,0.2-2.7c0-1.3,0-2.4,1.3-3.1
			c0.1-0.1,0.1-0.7,0-0.7c-1-0.3-1.1-1-1.2-1.8c-0.1-0.9,0-1.8,0-2.7c0-1.6-0.1-3.2,0.1-4.8c0.1-1,0.2-1.8,0-2.8
			c-0.2-1.3-0.2-2.8-0.1-4.1c0.3-2.6,0.2-5.1,0.2-7.7c0-0.5,0.3-1,0.5-1.5c-1-2-0.7-4.3-0.5-6.6c-3.2-0.1-6.4,1-9.8-0.7
			c0.1,1.3,0.3,2.3,0.3,3.3c0,2.4,0,4.7-0.1,7.1c-0.1,2-0.2,4.1-0.4,6.1c0,0.3,0.1,0.6,0.1,0.9c0.1,0.5,0.6,1,0.4,1.3
			c-0.5,1-0.1,2-0.2,2.9c-0.2,1.4-0.5,2.6-0.3,4s-0.8,2.7,0,4.3c0.6,1.2-0.4,2.9-0.3,4.4c0.1,1.6-0.2,3.2-0.3,4.8
			c-0.1,1.4,0,2.8,0,4.3C123,229.3,122.8,230.3,122.7,231.3z M87.5,170.9c-1.2,0.8-2.2,1.6-3.2,2.3c-0.6,0.4-1.2,0.8-1.9,1.1
			c-0.1,0.1-0.4,0.1-0.4,0.2c-0.8,1.3-1.6,2.6-2.3,3.9c-0.4,0.7-0.8,1.3-1.2,2c-0.1-0.1-0.2-0.3-0.3-0.4c-0.2,1-0.5,2.1-0.7,3.1
			c-0.5,2.2-1,4.3-1.5,6.5c-0.7,3.5-1.4,6.9-2.1,10.4c0,0.1,0,0.3,0,0.4c0.1,0.8,0.3,1.7,0.2,2.5c-0.2,1.6,0.4,3.4-1.2,4.6
			c-0.1,0,0,0.2,0,0.3c0.4,1.7,0,3.5,0,5.2c0,0.7,0.1,1.6-0.2,2.2c-0.5,1-0.6,1.8,0.3,3c0.4-0.8,0.7-1.4,0.9-2.1
			c0.2-0.6,0.2-1.5,0.6-1.9c1.5-1.2,1.8-3,2.6-4.5c1.2-2.1,1.9-4.6,2.7-6.9c1.5-3.9,4.2-7.1,5.3-11.2c0-0.1,0.2-0.2,0.3-0.3
			c0.6-0.9,1.3-1.8,1.7-2.8c0.7-1.5,1.2-3.1,1.9-4.6c0.8-1.7,2.3-3.3,2.5-5.1s1.8-2.9,1.8-4.8c0-1.3,0.9-2.5,1.5-3.8
			c0.3-0.7,0.6-1.4,1.1-2.4c-1.2,0.6-2.2,1.3-3.2,1.5c-0.9,0.2-1.8,0.5-2.6,1C89.3,170.8,88.5,171.6,87.5,170.9z"/>
		<path class="st3" d="M136.6,47.6c-0.4-0.1-0.9-0.1-1.4-0.3c-0.4-0.1-0.8-0.4-1.2-0.6c-0.2-0.1-0.3-0.3-0.5-0.3
			c-1.4,0.1-2.5-1.1-4-0.6c-0.2,0.1-0.6,0.1-0.8-0.1c-2-1.2-4.1-0.1-6.2-0.4c-1.5-0.2-3.3,0.4-4.9,1c-1.3,0.6-2.4,1.7-3.6,2.5
			c-0.1,0-0.1,0.1-0.2,0.2c-2.4,0.4-3.2,2.8-4.9,4c-1,0.7-1.8,0.4-2.4-0.1c-0.4-0.4-0.3-1.4-0.2-2.1c0.1-0.5,0.6-0.9,1.1-1.2
			c1.6-1.2,3.3-2.2,4.6-3.8c0.3-0.4,0.9-0.5,1.4-0.6c1-0.3,2-0.7,2.8-1.6c0.4-0.4,1.5-0.2,2.3-0.4c1.6-0.4,3.2-0.9,4.8-1.2
			c2.2-0.4,4.3-0.6,6.5,0.1c0.8,0.3,1.7,0.3,2.5,0.5c1.3,0.4,2.6,1,4,1.4c0.8,0.3,1.7,0.5,2.6,0.5c1.2,0,2.5-0.4,3.7-0.3
			c0.9,0,1.7,0.4,2.6,0.6c1.1,0.3,2.3,0.5,3.4,1c0.9,0.4,1.7,0.9,2.4,1.5c1.4,1.2,2.6,2.7,4.1,3.6c1.3,0.8,2.1,2,3.1,2.9
			c1.3,1.2,2.2,2.7,3.1,4.2c0.5,0.7,0.5,1.6-0.3,2.2c-1.2,0.8-1.9,0.6-2.7-0.4c-1-1.3-2.3-2.5-3.2-3.9c-1.3-2.1-3.5-3.3-5.2-4.9
			c-1.6-1.6-3.9-2.5-6.2-3.1c-1.3-0.3-2.6-0.8-4-0.3c-0.3,0.1-0.8-0.3-1.2-0.3C137.9,47.3,137.2,47.5,136.6,47.6z"/>
		<path class="st3" d="M59.6,86.7c-0.6,1.6-2.4,2.7-4.2,2.3c-1.5-0.3-3.2,0-4.4-1.2c-0.6-0.5-1.1-1.1-1.7-1.6
			c-0.7-0.7-0.4-1.5-0.4-2.3c0-1,0.4-1.5,1.1-2.1c0.9-0.9,1.4-2.3,2.7-2.9c0.6-0.3,1.2-0.7,1.8-1c1.4-0.7,2.9-1.5,4.4-2.1
			c0.5-0.2,1.1-0.2,1.6-0.1c0.8,0.1,1.5,0.5,2.2,0.7c1.2,0.3,1.9,0.9,2.3,2c0.2,0.5,0.7,0.8,0.9,1.3c0.7,2,0,3.8-2,5
			c-0.2,0.1-0.3,0.4-0.4,0.6c-0.5,0.6-0.8,1.3-1.4,1.7C61.3,87.7,60.4,87.6,59.6,86.7z M52.5,85.2c1.3,0,2.6,0,3.8,0
			c0.9,0,1.9,0.2,2.6,0.3c0.5-0.6,0.9-1.4,1.6-1.8c0.7-0.4,1.2-1,1.7-1.6c0.6-0.7,0.6-1.4,0.1-1.9c-0.5-0.6-1.5-1.3-2.1-1.2
			c-2.1,0.3-4.1,0.9-5.7,2.4c-0.4,0.3-0.7,0.7-1.1,0.9C52,82.8,52.2,83.8,52.5,85.2z"/>
		<path class="st3" d="M69.8,93.6c0.3,2.7-1.4,4.3-3.1,5.7c-0.9,0.7-2.2,1.5-3.8,1c-0.9-0.3-1.9-0.4-2.7-1.1
			c-1.7-1.3-2.1-3.3-1.3-5.3c0.9-2.1,2.3-2.9,4.5-2.9c1,0,2-0.2,3-0.6s1.7,0.1,2.3,0.7c0.6,0.7,1,1.6,1.5,2.4
			C70,93.5,69.9,93.5,69.8,93.6z M66.2,93.9c-1.3-0.9-2.5,0.3-3.7,0.6c-0.2,0.1-0.3,1.2-0.2,1.8c0,0.2,0.8,0.5,1.3,0.5
			C65.2,96.6,66.4,95.9,66.2,93.9z"/>
		<path class="st3" d="M27.5,69.6c-1.5,0-3.6-2.1-3.4-3.5c0.1-0.6,0.5-1.2,1-1.5c0.6-0.4,1.4-0.5,2,0.3c0.7,1,1.4,1.9,2,2.9
			C29.6,68.4,28.4,69.6,27.5,69.6z"/>
		<path class="st3" d="M113.1,96.2c1.2,0.2,1.8,1.4,2.4,2.5c0.6,1-0.9,3.7-2,4h-0.1c-1.5,0.2-3.8-2.1-3.5-3.6
			C110.3,97.1,111.3,96.1,113.1,96.2z"/>
		<path class="st3" d="M136.7,99c0.1,1.3-0.8,2.5-2,2.6c-1.1,0.2-2-0.4-2.4-1.6c-0.3-0.7,0.5-3.6,1.1-4c1.2-1,3-0.2,3.2,1.5
			C136.7,98,136.6,98.5,136.7,99z"/>
		<path class="st3" d="M135.4,86.7c0.8,0.2,1.7,0.3,2.5,0.7c1,0.5,1.2,1.6,0.7,2.5c-0.5,0.8-1.6,1-2.5,0.5c-0.2-0.1-0.5-0.2-0.7-0.3
			c-0.5-0.2-1-0.4-1.6-0.6c-0.5-0.2-1.1-0.5-1.6-0.7c-0.4-0.2-0.7-0.4-1-0.6c0.3-0.3,0.5-0.8,0.9-0.9
			C133.2,87.1,134.3,86.9,135.4,86.7z"/>
		<path class="st3" d="M120.4,120c0.6-1.4,1.8-1.9,3.2-1.3c0.8,0.3,1.5,1,2,1.7c0.2,0.3,0.1,1.1-0.1,1.4s-0.8,0.3-1.3,0.3
			c-0.5-0.1-1-0.3-1.4-0.6C122,121,121.2,120.5,120.4,120z"/>
		<path class="st3" d="M119.8,108.8c1.8-0.4,2.8,0.5,3.7,1.5c0.2,0.2,0.1,0.9,0,1c-0.6,0.3-1.3,0.7-1.9,0.6c-0.5-0.1-1-0.7-1.4-1.3
			C120,110.1,120,109.5,119.8,108.8z"/>
	</g>
</g>
<g>
	<g>
		<path class="st0" d="M309.3,187c0,0-15.5,28-17.4,30.8s-15.5,20.8-15.5,20.8s12.1,8.7,15.2,9.3s15.9,4.4,15.9,4.4l8.4-10.9
			l15.9,6.2c0,0,11.5-16.9,14.8-22s12.3-21.2,12.3-21.2s-28.6-8.4-31.7-9.9C323.9,192.9,309.3,187,309.3,187z"/>
		<polygon class="st4" points="306.1,253.2 308.9,254.8 327.9,251 332.6,247.3 315.8,241.4 		"/>
		<g>
			<path class="st3" d="M345,200.7c-0.9,1.2-2.1,0.9-3.2,0.6c-1.6-0.4-3.2-1-4.8-1.5c-2.4-0.7-4.9-1.2-7-2.3
				c-1.7-0.9-3.6-0.6-5.1-1.7c-2-1.4-4.6-1.7-6.8-2.7c-2.1-1-4.3-1.7-6-3.4c-0.3-0.3-1-0.3-1.5-0.4c-0.3-0.1-0.7-0.1-1.2-0.2
				c-0.1,0.5-0.3,1.2-0.5,1.8c-0.4,0.8-0.9,1.6-1.3,2.4c-0.5,1-0.8,2-1.3,3c-0.3,0.6-0.8,1.2-1.2,1.8c-0.5,0.9-0.9,1.8-1.3,2.6
				c-0.3,0.6-0.5,1.2-0.8,1.8c-0.5,1-1,2.1-1.6,3c-0.4,0.6-0.5,1.5-1.6,1.4c-0.2,0-0.7,0.8-0.6,1.1c0.2,1.1-0.4,1.8-1,2.5
				c-0.1,0.1-0.3,0.3-0.4,0.5c-0.1,1.9-1.8,2.7-2.7,4c-0.2,0.3-0.4,0.6-0.6,0.9c-0.5,0.9-1.1,1.8-1.6,2.7c-0.6,1-1.2,1.9-1.9,2.8
				c-1.2,1.6-2.5,3.1-3.7,4.8c-1,1.4-2,2.9-2.9,4.4c-0.1,0.2-0.1,0.4-0.2,0.5c-0.7,0.9-1.5,1.7-2.2,2.6c-1.1,1.3-2.3,2.5-3.5,3.9
				c1.1,0.6,2,1.3,3.1,1.8c1,0.5,1.8,1.1,1.9,2.3c1.5-0.4,2.6,0.2,3.5,1.3c0.4,0.4,0.9,0.6,1.4,0.9c0.6,0.4,1.1,0.8,1.9,1.3
				c1.1-0.3,2.4,0.4,3.7,1c1.5,0.6,3,1.2,4.5,1.9s3,1.5,4.5,2.2c0.3,0.1,0.6,0.2,1.1,0.1c0.3,0.4,0.6,0.8,1,1
				c0.9,0.5,1.5-0.1,2.1-0.7c1.2-1.3,2.4-2.5,3.4-3.9c0.8-1,1.3-2.2,1.9-3.3c0.6-1,1.1-2,1.8-2.8c1.3-1.5,2.9-1.2,4.5,0
				c1.4,1.1,3.2,1.8,4.7,2.7c0.6,0.4,1.2,0.9,1.8,1.3c1.4-1,3.7-0.6,5.9,1c1.2-1.2,2.4-2.3,3.7-3.6c-0.3-0.8,0-1.7,0.7-2.6
				c1.4-1.7,2.7-3.5,4-5.2c0.3-0.4,0.5-1,0.6-1.5c0.2-1,0.6-1.9,1.6-2.3c0.2-0.1,0.4-0.4,0.5-0.7c0.5-1,0.9-2,1.5-2.9
				c0.6-0.8,1.6-0.8,2.3-0.4c0.7,0.4,1,1.2,0.6,2c-0.5,1.2-1.8,2.6-2.5,2.8c-0.3,1-0.3,2.1-0.9,2.6c-1.2,1-1.2,2.7-2.7,3.5
				c-0.7,0.4-0.9,1.6-1.2,2.5c-0.5,1.4-1.6,2.2-2.5,3.3c-0.3,0.4-0.3,1.1-0.5,1.5c-0.9,1.3-1.8,2.5-2.9,3.7
				c-0.8,0.9-1.8,1.6-2.7,2.4c-0.1,0.1-0.3,0.3-0.4,0.3c-2.2-0.6-3.2,1.7-5,2c-0.8,0.1-1.6,0.4-2.4,0.7c-1.2,0.4-2.3,0.2-3.3-0.8
				c-0.2,0.2-0.4,0.3-0.4,0.5c-0.1,1.3-1,1.3-2,1.2c-0.2,0-0.4-0.2-0.6-0.1c-1.4,0.2-2.8,0.4-4.1,0.7c-0.2-0.5-0.3-0.8-0.4-1.1
				c-0.2,0.2-0.5,0.3-0.7,0.5c-1.2,0.9-2.5,1.5-4.7,0.6c-0.5-0.2-1.1-0.2-1.7-0.3c-0.3-0.1-0.6,0-0.8-0.2c-1-1.1-2.4-1.3-3.6-1.9
				c-1.6-0.8-3-2.4-5.1-1.9c-0.3,0.1-0.8-0.4-1.2-0.6c-1.5-0.7-3-1.4-4.5-2.2c-0.3-0.2-0.5-0.7-0.8-1.2c-0.7,0.7-1.6,0.1-2.4-0.4
				c-0.8-0.4-1.6-0.8-2.3-1.2c-0.7-0.5-1.3-1.2-2.1-1.6c-0.6-0.4-1.3-0.5-1.9-0.9c-1.6-0.9-3.2-1.8-4.7-2.8
				c-0.8-0.6-1.3-1.4-0.5-2.4c0.1-0.1,0.2-0.2,0.2-0.3c0-2.6,1.9-4.1,3.5-5.8c1.4-1.6,2.5-3.3,3.8-4.9c0.4-0.6,1-1,1.4-1.6
				c1.1-1.4,2.2-2.9,3.2-4.3c1-1.4,1.9-2.9,2.9-4.3c0.3-0.4,0.8-0.7,1.2-1.1c0.6-0.6,1.3-1,1.3-2c0-1.5,1.2-2.4,2.2-3.3
				c0.2-0.2,0.4-0.4,0.5-0.6c0.8-2.3,0.7-2.3,3-2.6c-0.8-0.6-1-1.7-0.5-2.5c0.9-1.5,1.9-2.9,2.7-4.4c0.8-1.5,1.5-3.2,2.3-4.7
				c1.3-2.4,2.7-4.8,4.1-7.2c0.5-0.8,0.6-1.3,0.1-1.9c0.9-1.2,2-0.9,3-0.4s2.3,0.7,1.8,2.4c1.5-1,2.8-0.6,4.1,0.1
				c1,0.6,2.2,0.9,3.3,1.4c1.7,0.8,3.4,1.7,5.1,2.5c1.2,0.5,2.5,0.6,3.8,1c0.5,0.1,0.9,0.5,1.4,0.7c0.1,0.1,0.1,0.2,0.2,0.2
				c1.2,0.2,2.5,0.4,3.7,0.7c1.3,0.3,2.6,0.9,3.9,1.3c2,0.6,4.1,1.2,6.1,1.8c1.7,0.5,2.1,1,2,2.6C345.1,200.5,345.1,200.6,345,200.7
				z M324.6,246.2c-1,1.3-1.9,1.6-3,0.9c-1.4-0.8-2.7-1.7-4.1-2.6c-1.1-0.8-1.8-0.5-2.2,0.8c-0.1,0.4-0.2,0.8-0.5,1.1
				c-1.7,2-3.4,4-5,5.9c0.3,0.5,0.6,0.9,0.9,1.3c0.1,0.1,0.6,0.2,0.6,0.1c0.9-1.1,2.1-1.9,3.4-1.8c1.6,0.1,3.4-1.1,4.6,0.2
				c0.6-0.5,1-1,1.6-1.3c1.1-0.4,2.2-0.6,3.3-0.9c0.8-0.2,1.7-0.4,2.5-0.6c0.4-0.1,0.8-0.2,1.1-0.3c0-0.1-0.1-0.2-0.1-0.3
				C325.1,248.7,324.4,248.2,324.6,246.2z"/>
			<path class="st3" d="M331.5,209.4c-0.7-0.1-1.2-0.2-1.8-0.3c-1.2-0.3-2.4-0.6-3.6-1c-0.7-0.3-1.3-0.8-2-1.1
				c-0.8-0.4-1.5-0.9-2.3-1c-1.9-0.3-3.4-1.3-5-2.2c-0.8-0.5-1.8-0.9-2.7-1.3c-0.8-0.4-1.6-0.9-2.4-1.3c-0.8-0.4-1.7-0.7-2.5-1.1
				c0.3-2.4,1.4-2.8,3.3-1.7c0.9,0.6,2.1,0.7,3,1.1c2.4,1.1,4.7,2.2,7,3.3c1.6,0.7,3.2,1.3,4.7,1.9c1.6,0.7,3.4,0.8,4.9,2
				c0.6,0.5,1.8,0.2,2.7,0.3c0.4,0,0.8,0.1,1.1,0.3c1.4,1.2,3.1,1.4,4.7,1.7c1.7,0.4,2.6,1.1,2.2,2.6c-0.1,0.5-0.8,1.2-1.2,1.2
				c-0.8,0.1-1.7-0.2-2.5-0.5c-2.1-0.6-4.1-1.3-6.1-2C332.5,210,332,209.6,331.5,209.4z"/>
			<path class="st3" d="M326.7,225.1c-1.5-0.6-3.1-1.2-4.6-1.8c-0.6-0.3-1.2-0.6-1.7-1c-1.2-0.7-2.4-1.4-3.7-2
				c-1.2-0.6-2.4-1-3.5-1.6c-0.7-0.3-1.2-0.8-1.9-1.1c-1.2-0.7-2.5-1.4-3.8-1.8c-1.3-0.4-2-1.2-2.1-2.5c0-0.3,0-0.6,0-0.9
				c0.2,0,0.5,0.1,0.7,0.1c2.3,0.1,4.1,1.5,6.2,2.3c1.1,0.4,2.1,1.3,3.2,1.6c1.4,0.3,2.6,1,3.7,1.9c0.7,0.6,1.7,0.9,2.6,1.3
				c2,1,4.1,2,6.2,3c1.3,0.6,2.7,1.2,4,1.9c0.5,0.3,1,0.7,1.3,1.1c0.1,0.1-0.1,0.7-0.3,0.8c-0.6,0.3-1.2,0.5-1.8,0.7h-0.1
				c-0.7,0.1-3.9-1.7-4.2-2.4C326.8,224.8,326.8,225,326.7,225.1z"/>
			<path class="st3" d="M307,206.7c2.3,0.9,4.4,1.8,6.5,2.5c2.5,0.9,4.9,1.9,7.1,3.4c0.2,0.1,0.3,0.2,0.4,0.4
				c0.1,0.1,0.2,0.3,0.4,0.1c0.9,0.3,1.8,0.4,2.6,0.8c0.9,0.4,1.7,0.9,2.6,1.3c1.4,0.6,2.7,1.2,4.1,1.8c0.9,0.4,1.8,0.9,2.5,1.4
				c0.2,0.2,0.3,0.9,0.1,1.2c-0.3,0.6-0.8,1.3-1.7,0.9c-0.9-0.4-1.8-1-2.7-1.4c-1.1-0.5-2.2-0.8-3.2-1.2c-1.5-0.6-3.1-1-4.4-1.9
				c-1.1-0.8-2.2-1.2-3.4-1.6c-1.3-0.3-2.5-1.3-3.7-1.9c-1.9-0.8-3.7-1.8-5.4-3.1c-0.1-0.1-0.2-0.2-0.3-0.2c-0.5-0.1-1.3,0-1.3-0.1
				C306.9,208.5,307,207.7,307,206.7z"/>
			<path class="st3" d="M325.9,234.2c-0.4,0.3-0.7,0.5-1.1,0.8c-0.4-0.5-0.8-1-1.2-1.4c-1.3,0.5-1.7,0.3-2-0.8
				c-0.7-0.2-1.3-0.2-1.8-0.5c-1-0.5-1.9-1.6-2.9-1.7c-1.1-0.1-1.9-0.5-2.7-1c-1-0.6-2-1.1-3.1-1.7c-0.5-0.3-1.3-0.3-1.7-0.7
				c-1-1-2.2-1.3-3.5-1.7c-1.5-0.4-2.8-1.5-4.1-2.2c-0.2-0.1-0.3-0.3-0.4-0.5c0-0.9,1.7-1.9,2.4-1.5c1.7,1,3.4,1.9,5,2.9
				c0.2,0.1,0.4,0.2,0.5,0.2c1.2-0.2,2.1,0.3,3.1,0.9c1.2,0.7,2.7,1.1,3.8,2c1,0.8,2,1,3.1,1.3c0.2,0.1,0.5,0.2,0.7,0.4
				c1.5,1.4,3.3,2,5,2.9c0.8,0.4,1.5,1,2.2,1.6c0.2,0.2,0.2,0.7,0.3,1c-0.3,0-0.7,0-1-0.1C326.2,234.3,326,234.2,325.9,234.2z"/>
			<path class="st3" d="M345,200.7c0.1-0.1,0.1-0.2,0.2-0.4c1.3-1.1,3.5-1.1,5.1-0.3c1,0.5,2.3,0.6,3.4,0.9c0.3,0.1,0.7,0.1,1,0.2
				c1,0.4,2,0.8,3.1,1.1c1.9,0.7,2.4,2.7,1.1,4.3c-0.5,0.6-0.6,1.3-1,2c-0.3,0.4-0.6,0.8-1.1,1.4c0.1,1.2-0.2,1.8-1.3,1.8
				c-1.2,0.1-1.9-0.9-1.4-2.1c0.5-1.2,0.9-2.4,1.4-3.6c0.1-0.3,0.5-0.5,0.8-0.8c-1-0.2-1.9-0.3-2.7-0.6c-1.4-0.4-2.7-0.9-4-1.4
				c-0.3-0.1-0.5-0.3-0.8-0.3C346.8,203.5,345.9,202.1,345,200.7z"/>
			<path class="st3" d="M312.3,237.4c0.5-0.1,0.8-0.2,1.2-0.2c0.3,0.1,0.6,0.3,0.9,0.5c-0.3,0.3-0.6,0.9-0.9,0.9
				c-1.6-0.1-3.3,0.3-4.7-1c-0.1-0.1-0.3-0.2-0.4-0.2c-1.1,0.2-1.9-0.1-2.5-1.3c-0.2-0.4-1.2-0.2-1.8-0.5c-1.5-0.7-2.9-1.5-4.3-2.3
				c-0.5-0.3-0.8-0.7-1.2-1.1c-0.2-0.2-0.5-0.5-0.7-0.5c-1.4,0.3-2-0.8-3-1.3c-0.7-0.4-0.7-0.9-0.5-1.6c0.2-0.7,0.6-0.8,1.3-0.9
				c1.5-0.1,2.5,0.6,3.4,1.5c0.2,0.2,0.5,0.4,0.9,0.4c1.2,0.2,2.2,0.6,3.1,1.4c0.6,0.6,1.8,0.7,2.7,1.1c0.4,0.2,0.6,0.5,1,0.7
				c0.5,0.3,1,0.5,1.4,0.7c0.8,0.4,1.6,0.9,2.4,1.1C311.7,235.6,312.3,236.2,312.3,237.4z"/>
			<path class="st3" d="M349.2,218.4c-0.5-1.8,1.2-2.5,1.7-3.7c0.2-0.6,0.5-1.1,0.9-1.6c0.5-0.6,0.9-1.3,1.6-1.6
				c0.3-0.1,1.3,0.6,1.4,1.1c0.2,0.5-0.3,1.2-0.5,1.8c-0.5,1-0.9,2.1-1.5,3.1c-0.4,0.7-1.1,1.3-1.6,1.9c-0.1,0.2-0.3,0.4-0.3,0.6
				c0,2.1-1.8,3.4-2.5,5.2c-0.2,0.4-1.3,0.6-2,0.5c-0.8-0.1-1.1-1-0.9-1.8c0.1-0.5,0.3-1.1,0.7-1.5
				C347.3,221.1,347.3,219,349.2,218.4z"/>
			<path class="st3" d="M291.1,236.7c-0.5-0.3-1.1-0.6-1.6-1c-0.1,0,0.1-0.6,0.1-0.6c0.7,0,1.4,0.1,2,0.2c0.3,0,0.5,0.2,0.7,0.2
				c0.5,0,1.1,0,1.3,0.6c0,0.1,0.1,0.2,0.2,0.2c1.9-0.1,2.7,1.8,4.2,2.5c1.8,0.9,3.6,1.9,5.4,2.9c0.5,0.3,0.9,0.6,1.3,1
				c-0.4,1.3-0.8,1.6-2,1.3c-0.3-0.1-0.6,0.1-0.9,0.1c-0.5-0.1-1-0.3-1.5-0.5c-0.5-0.3-1-0.8-1.5-1.1c-1-0.6-2-1.2-3-1.8
				s-1.9-1.2-2.8-1.9c-0.8-0.6-1.4-1.3-2.1-2C291,236.8,291,236.8,291.1,236.7z"/>
		</g>
	</g>
	<g>
		<polygon class="st4" points="376.1,143.8 371.4,146.9 374.5,159.7 389.4,198.5 434.2,191 474.6,183.9 472.4,173 		"/>
		<path class="st0" d="M435.7,187.9h5l25.8-9.9l8.7-1.9l-4.1-6c0,0-14.8,5-15.8,5C454.4,175.2,435.7,187.9,435.7,187.9z"/>
		<path class="st0" d="M374.5,136.3l17.4,53.5l6.2-2.2c0,0,19.9-2.5,25.8-2.2s11.8,2.5,11.8,2.5s8-8.4,12.2-9.6
			c4.2-1.3,17.3-4.7,20.1-5.9s6.2-1.9,6.2-1.9l-19.9-50c0,0-13.1,2.5-17.4,3.4c-4.4,0.9-9.7,7.4-12.5,8.5s-7.4,4.5-7.4,4.5
			s-9-4.4-14.3-3.7c-5.3,0.6-14.9,0.6-17.1,1.2C383.5,135.1,374.5,136.3,374.5,136.3z"/>
		<g>
			<path class="st3" d="M473.7,168.3c0.6,0.3,1.5,0.5,1.6,0.9c0.8,2.8,0.8,2.8-0.8,3.7c0.6,0.6,1.4,1,1.8,1.7
				c0.9,1.3,0.7,2.3-0.5,3.2c-0.9,0.6-1,1.1-0.2,1.9c1.2,1.4,1.3,3.3,0.7,4.9c-0.3,0.7-1.4,1.2-2.3,1.5c-1.5,0.5-3.1,1.1-4.6,1.1
				c-1.6,0-2.8,0.7-4.1,1.1c-0.4,0.1-1-0.3-1.5-0.4c-0.3-0.1-0.9-0.2-1,0c-1,1.2-2.4,1.1-3.7,1.3c-1.1,0.2-2.2,0.3-3.3,0.6
				c-1.3,0.4-2.2,0.2-2.6-0.9c-0.3-0.9,0.5-2.1,1.6-2.4c0.5-0.1,1.2-0.2,1.7-0.1c1.4,0.3,2.6-0.5,3.9-0.6c0.9-0.1,1.7-0.2,2.3,0.9
				c1.1-2,3.1-2.3,5-2.5c1.6-0.2,3.1-0.5,4.6-0.8c-0.3-1.3-0.5-2.4-0.8-3.5c-0.1-0.2-0.5-0.5-0.7-0.5c-1.1,0.1-2.3,0.2-3.4,0.4
				s-2.3,0.3-3.2,0.9c-1.1,0.7-2.4,0.9-3.6,1.3c-0.8,0.3-1.7,0.3-2.8,0.4c-0.5,1.4-1.8,1.8-3.1,0.5c-0.7,2-2.7,1.8-4.2,2.4
				c-0.5,0.2-1,0.5-1.5,0.8c-1.2,0.7-2.4,1.5-3.7,2.2c0.1,0.1,0.4,0.3,0.6,0.6c1.5-1.3,3.5-1.7,6-1.2c-0.2,0.4-0.4,0.7-0.6,1.1
				c0.1,0.1,0.1,0.1,0.2,0.2c0.3-0.3,0.6-0.5,0.9-0.8c0.1,0.1,0.2,0.1,0.3,0.2c-0.3,0.6-0.4,1.6-0.8,1.8c-2,0.6-4.2,1.8-5.7-1.1
				c-0.2,0.6-0.2,1.1-0.4,1.3c-0.3,0.4-0.8,1.1-1.1,1c-1.7-0.3-3.3,1.2-5.1,0.3c-0.3-0.1-0.9,0.4-1.4,0.6c-1.8,1-3.8,1-5.7,1.2
				c-0.9,0.1-1.8,0.6-2.5,0.3c-1.3-0.5-2.3,0.2-3.5,0.3c-0.6,0.1-1.3,0-1.8-0.2c-0.4-0.2-0.7-0.7-0.9-0.9c-0.7,0.4-1.3,0.8-2,1
				c-1.1,0.2-2.2,0.3-3.2,0.4c-0.9,0.1-1.7,0.3-2.6,0.4c-1.2,0.2-2.3,0.6-3.5,0.5c-0.5,0-1-0.8-1.5-1.2c-0.5,1.5-1.3,2.1-3.2,2.1
				c-1.6,0-3,0.5-4.5,0.9c-1,0.3-2.2,0.3-3.3,0.3c-0.8,0-1.6-1.3-1.2-2.1c0.3-0.7,0.8-1.4,1.8-0.9c0.2,0.1,0.6,0.2,0.7,0.1
				c1.4-1.3,3.3-0.7,4.9-1.1c0.3-0.1,0.6-0.2,0.9-0.3c1-0.5,2-0.6,3.1,0c0.2,0.1,0.9,0,1.1-0.2c0.6-0.7,1.2-1,2.2-0.9
				c1.1,0.1,2.2-0.4,3.3-0.6c1.8-0.2,3.5-0.5,5.3-0.5c0.5,0,1.1,0.5,1.7,0.9c1-1.6,2.8-1,4.4-1.2s3.2-0.5,4.8-0.7
				c-1.4-0.5-2.8-1-4.2-1.4c-0.9-0.3-1.8-0.4-2.6-0.5c-0.6-0.1-1.3-0.2-1.9-0.2c-1.7-0.1-3.3-0.2-5-0.2c-0.2,0-0.4,0-0.6,0
				c-1.9,0.3-3.7,0.6-5.6,0.9c-1,0.2-2.6-0.6-3-1.5c-0.4,0.5-0.8,1.2-1.4,1.5s-1.3,0-2,0.1c-1.1,0.1-2.1,0.2-3.2,0.5
				c-1.8,0.5-3.4,1.2-5.2,1.5c-1.3,0.2-2.8,0-4.2,0c-0.4,0-0.8,0.3-1.2,0.2c-0.6-0.1-1.5-0.2-1.7-0.6c-0.8-1.4-1.6-2.8-2.1-4.3
				c-0.9-2.4-1.7-4.9-2.5-7.3c-0.3-0.8-0.7-1.6-1-2.4c0-0.1-0.1-0.2-0.1-0.2c0.5-2.3-1.5-3.8-1.8-5.9c-0.1-0.7-0.2-1.3-0.4-2
				c-0.5-1.3-1-2.7-1.5-4c-0.2-0.6-0.3-1.3-0.5-1.9c-0.4-1-0.9-2-1.3-3.1c-0.6-1.5-1-3.1-1.6-4.7c-0.5-1.4-1-2.8-1.5-4.2
				c-0.1-0.4,0-0.9-0.1-1.3c0-0.3-0.2-0.6-0.3-1c-0.6-1.4-1.8-1.8-3.3-1.6c-0.6,1.2-0.4,2.7,0.5,3.9c0.3,0.4,0.5,0.9,0.5,1.3
				c0,2,1.3,3.5,1.7,5.3c0.2,0.9,0.1,1.9,0.2,2.8c0,0.2-0.1,0.7,0,0.7c1.1,0.4,1.1,1.4,1.4,2.3c0.3,0.8,0.7,1.5,1,2.2
				s0.5,1.4,0.7,2.1c0.3,1.2,0.6,2.5,0.9,3.7c0.1,0.2,0.2,0.5,0.3,0.7c0.6,0.7,1,1.4,1,2.3c0,0.4,0.2,0.9,0.4,1.3
				c0.8,1.8,1.8,3.5,2,5.5c0.1,0.7,0.7,1.2,0.9,1.9c0.4,1.1,1.1,2,1,3.3c0,0.7,0.7,1.3,0.9,2c0.4,1,0.7,2.1,1.1,3.1
				c0.5,1.3,1.2,2.6,1.7,3.9c0.2,0.5,0.2,1,0.3,1.8c1.2-0.3,2.5-0.5,3.7-1c1-0.4,3.1-0.5,3.9,0c0.5,0.3,0.9,0.6,0.5,1.2
				c-0.3,0.4-0.6,0.9-1,1.1c-1,0.5-2,0.6-3.1,0.7c-1.3,0.2-2.6,1-3.9,1.6c-1.7,0.8-2.6,0.4-3.1-1.4c-0.3-1.1-0.5-2.2-0.8-3.3
				c-0.4-1.3-1-2.5-1.5-3.7c-0.5-1.3-1-2.6-1.6-3.9c-0.6-1.3-1.3-2.7-1.8-4c-0.3-0.8-0.3-1.7-0.6-2.5c-0.5-1.3-1.5-2.6-1.6-4
				c-0.2-1.9-2-3.2-1.5-5.4c0.2-0.7-0.7-1.5-1.1-2.4c-0.3-0.8-0.6-1.6-0.9-2.4c-0.3-0.7-0.5-1.5-0.8-2.1c-0.6-1.2-1.5-2.4-1-4
				c0-0.1,0-0.3-0.1-0.4c-0.7-1.6-1.5-3.2-2.1-4.8c-0.2-0.6-0.1-1.3-0.2-1.9c0-0.3-0.1-0.6-0.2-0.8c-0.1-0.3-0.3-0.5-0.4-0.8
				c-0.4-1.5-0.7-3-1.2-4.5c-0.1-0.3-0.3-0.6-0.6-0.8c-0.2-0.3-0.5-0.5-0.9-0.8c0.8-0.8,1.5-1.4,2.1-2.1c0.8-1,1.6-0.6,2.4,0
				c0.4-0.4,0.9-0.7,1.2-1.1c0.2-0.3,0.2-0.7,0.1-1.1c-0.3-1.5-0.9-3-1.1-4.5c-0.2-1.8,0.7-2.3,2.5-1.8c0.8-0.8,1.5-1.6,2.9-1.6
				c1.5-0.1,3-0.4,4.5-0.6c2.1-0.3,4.1-0.8,6.2-1.1c1.9-0.2,3.8-0.2,5.7-0.3c0.6,0,1.1-0.3,1.6-0.2c1.1,0.2,2.1,0.6,3.3,1
				c0.6-0.6,1.3-1.3,2.7-0.9c0.8,0.2,1.7,0,2.6-0.1c1.1-0.1,2.1,0,2.5,1.4c1.3-0.9,2.5-1.5,3.7,0c0.1,0.1,0.4,0.2,0.5,0.2
				c1.6-0.6,2.7,0.2,3.9,1.1c0.8,0.7,1.9,0.3,2.4-0.6c0.3-0.5,0.7-0.8,1.1-1.2c1.1-1.1,2.1-2.1,3.2-3.1c0.4-0.3,0.9-0.5,1.3-0.7
				c0.6-0.3,1.2-0.7,1.7-1c0.1,0,0.1-0.2,0.2-0.1c2.1,0.3,2.7-2.1,4.4-2.4c1.6-0.3,2.6-1.9,4.4-1.6c0.2,0,0.4-0.3,0.6-0.4
				c0.4-0.2,0.8-0.5,1.2-0.6c2.1-0.3,4.2-0.6,6.3-0.9c0.3,0,0.6-0.2,0.9-0.3c1.1-0.3,2.2-0.7,3.3-1c1-0.3,1.9-0.6,2.9-0.8
				c0.7-0.1,1.4,0.1,2.1,0c0.9-0.1,1.8-0.3,2.7-0.3c0.3,0,0.8,0.2,1,0.5c0.9,1.1,2,2.2,2.6,3.5c0.6,1.1,0.6,2.4,1.1,3.5
				c0.7,1.7,1.6,3.4,2.3,5.1c0.5,1.3,0.9,2.7,1.4,4c0,0.1,0.1,0.2,0.1,0.3c1,1.7,1.9,3.5,2.9,5.2c0,0.1,0.2,0.1,0.1,0.2
				c-0.5,1.5,0.9,2.5,1.1,3.9c0.1,0.5,0.5,1,0.8,1.6c0.2,0.4,0.6,0.8,0.6,1.2c-0.1,1.7,1.2,2.9,1.5,4.5c0.4,1.6,0.8,3.1,1.2,4.7
				c0.2,0.6,0.3,1.3,0.7,1.7c1.8,1.8,1,4.6,2.6,6.5C474.8,166.7,474.5,167.8,473.7,168.3z M419,136.2c-0.2,2.7-1,3.3-3.5,2.6
				c-0.8-0.2-1.4-0.7-2.1-1.1c-0.8-0.4-1.7-0.9-2.5-1.3c-0.2-0.1-0.5-0.3-0.6-0.2c-1.3,0.4-2.2-0.1-2.8-1.2c-1,0.3-1.9,0.8-2.8,0.9
				c-0.8,0.1-1.7,0.1-2.6,0c-0.7-0.1-1.4-0.1-2-0.5c-0.5-0.3-0.8-1-1.2-1.4c-0.2,1.1-0.8,1.7-2.2,1.8c-1.1,0-2.3-0.1-3.4,0
				c-2.8,0.2-5.5,0.4-8.3,0.7c-2,0.2-4.1,0.6-6.1,0.9c-0.8,0.1-1.7,0.2-2.7,0.4c0.3,0.9,0.7,1.9,1.1,3s0.7,2.1,1,3.2
				c0.4,1.6,0,3.4,1.6,4.6c0.1,0.1,0.1,0.4,0.2,0.5c0.4,1.3,0.9,2.6,1.4,3.9c0.2,0.7,0.8,1.5,0.7,2.2c-0.1,2.2,2,3.7,1.6,5.9
				c1.2,1,1.3,2.4,1.7,3.8c0.6,2.4,1.6,4.8,2.4,7.2c0.2,0.5,0.1,1,0.2,1.5c0,0.2,0.1,0.5,0.2,0.7c0.2,0.5,0.6,0.9,0.7,1.4
				c0.7,2.3,1.4,4.5,2.1,6.8c0.2,0.5,0.3,1,0.6,1.4c1,1.3,1.5,2.6,1.3,4.1c1,0,2.1,0,3.2,0c0.2,0,0.4-0.3,0.6-0.3
				c1.2-0.4,2.5-0.7,3.7-1c0.7-0.2,1.4-0.1,2-0.2c0.7-0.1,1.3-0.3,2-0.5c0.3-0.1,0.6,0,0.8-0.1c1.1-0.7,2.1-0.4,3.2-0.1
				c0.3,0.1,0.7,0.3,0.9,0.1c1.1-0.9,2.4-0.8,3.7-0.9c2.2-0.1,4.4-0.8,6.5-0.6c3.1,0.2,6.2-0.4,9.2,0.8c0.8,0.3,1.6,0.5,2.4,0.8
				c1.2,0.4,2.3,0.8,3.5,1.2c0.3,0.1,1.1-0.1,1.1-0.2c0.2-1.6,1.7-2.1,2.6-3c0.7-0.8,2.1-1,2.7-1.8c1.2-1.6,3-2.2,4.6-3.1
				c0.7-0.4,1.6-0.4,2.1-0.5c1-0.5,1.8-1,2.6-1.4c1.9-0.9,3.7-1.9,5.7-2.8c3.1-1.3,6.6-1.5,9.7-3c1.5-0.8,3.5-0.8,5.2-1
				c1-0.1,1.9,0,1.6-1.5c-1.5-0.4-2.5-1.8-2.6-3.2c-0.2-1.8-1-3.3-1.3-5c-0.1-0.7-0.4-1.4-0.7-2.1c-0.8-2.2-1.6-4.5-2.5-6.7
				c-0.2-0.6-0.4-1.3-0.7-1.9c-0.6-1.5-1.3-2.9-1.9-4.4c-0.5-1.2-0.9-2.4-1.4-3.6c-0.3-0.7-0.9-1.4-1.2-2.1c-1-2.4-1.9-4.8-2.9-7.2
				c-0.7-1.6-1.5-3.2-2.2-4.7c0-0.1,0-0.2,0-0.3c-0.4-1.3-0.7-2.6-1.1-3.8c-0.1-0.2-0.5-0.4-0.6-0.3c-1.8,0.7-3.7,0.2-5.5,0.8
				c-1.8,0.6-3.7,1.8-5.9,1.1c-0.1,0-0.3,0-0.5,0.1c-1,0.3-2,0.7-3,0.9c-1.1,0.2-2.6-0.1-3.4,0.5c-1.6,1.2-3.6,1.4-5.2,2.4
				c-0.8,0.5-1.9,0.8-2.7,1.3c-1,0.6-2,1.4-3,2.1c-0.6,0.4-1.2,0.8-1.7,1.3C421.7,134.7,420.7,136,419,136.2z M457,180.7
				c0.5-0.3,0.9-0.6,1.3-0.8c1.6-0.6,3.1-1.2,4.7-1.7c2.1-0.6,4.3-1.1,6.5-1.7c1.1-0.3,2.2-0.5,3.3-0.8c0.2-1.7-0.8-2.9-2.3-2.3
				c-2.1,0.7-4.4,0.4-6.3,1.7c-0.1,0.1-0.3-0.1-0.4-0.1c-0.4,0.1-0.8,0.1-1.2,0.3c-0.5,0.2-1,0.6-1.6,0.8c-1.1,0.4-2.2,0.5-3.2,0.9
				s-1.9,1-2.9,1.4c-1.1,0.4-2.3,0.8-3.4,1.2c-0.7,0.2-1.3,0.5-2,0.8c-0.4,0.5-1,1-1.6,1.2c-0.8,0.4-1.9,0.4-2.6,0.9
				c-2,1.4-3.9,3-5.8,4.5c0.1,0.1,0.1,0.2,0.2,0.3c0.3-0.2,0.7-0.3,1-0.5c0.7-0.4,1.3-0.9,2-1.1c1.6-0.5,3.2-0.9,4.8-1.5
				c1.6-0.6,2.6-2.4,4.5-2.3c0.6-1,1.4-0.7,2.1-0.2C454.8,180.5,455.9,180.1,457,180.7z M434,190.1c0.7-0.2,1.2-0.4,1.7-0.6
				c0.5-0.1,1-0.3,1.4-0.2c1.1,0.2,1.3,0.1,1.5-1.3C437.2,189,435.1,187.7,434,190.1z"/>
			<path class="st3" d="M397.2,159.1c0.5-1.7,2-0.5,3-0.9c0.9-0.3,2,0.2,3.2,0.4c0,0,0.2-0.3,0.2-0.5c0.9,0.1,1.6,0.2,2.4,0.2
				s0.8,0.5,0.8,1c0,1.6,0.2,3.1,1.2,4.5c0.6,0.8,0.7,1.9,1.1,2.9c0.5,1.5,1,2.9,1.5,4.4c0.2,0.5,0.2,1.1,0,1.7
				c0,0.1,0.1,0.2,0.1,0.2c0.7,0.5,1.8,3.8,1.5,4.5c-0.3,0.8-1.6,1.4-2.4,0.9c-0.5-0.3-0.8-0.4-1.3,0.1c-0.2,0.2-0.7,0.4-1,0.2
				c-1.2-0.5-2.1,0.5-3.2,0.6c-0.7,0.1-1.4,0.1-2.1,0.1c-0.9,0.1-1.8,0-2.7,0.2c-1.4,0.3-2.2,0-2.8-1.2c-0.3-0.7-0.6-1.5-0.9-2.2
				c-0.5-1.1-1.4-2.2-1.5-3.4c-0.2-1.8-1.7-3.2-1-5.2c0.1-0.1-0.3-0.4-0.4-0.6c-0.8-0.9-1.1-2.7-0.6-3.7c-1.2-0.5-0.8-1.8-1.5-2.6
				c0.4-0.3,0.6-0.6,1-0.8c0.5-0.2,1-0.3,1.5-0.4c0.1,0.4,0.1,0.9,0.3,1.3c0.3,0.9,0.1,1.8,1,2.7c0.7,0.7,0.5,2.2,0.8,3.3
				c0,0.1-0.1,0.1-0.4,0.3c1.2-0.1,1.2,0.7,1.3,1.5c0.1,0.5,0.3,1,0.5,1.5c0.1,0.2,0.3,0.3,0.3,0.5c0.2,0.9,0.3,1.8,0.6,2.7
				c0.2,0.6,0.5,1,0.7,1.6c0.2,0.5,0.2,1.1,0.2,1.6c1.8-0.3,3.5-0.5,5.3-0.7c1.6-0.2,3.3-0.2,4.9-0.3c0-0.4,0-1.2,0-1.9
				c-0.1,0-0.1,0.1-0.2,0.1c-0.3-0.6-0.6-1.3-0.9-2c-0.6-1.5-1.2-3-1.7-4.6c-0.4-1.1-0.6-2.2-0.9-3.3c-0.4-1.3-0.9-2.6-1.5-4.3
				c-0.5,1.3-1.1,1.6-2.2,1.3c-0.7-0.2-1.6,0.1-2.4,0.3c-0.9,0.2-1.7,0-2.6,0.4c-0.7,0.3-1.6-0.3-1.8-1.2c-0.1-0.4,0.2-1.3,0.6-1.4
				C395.7,158.9,396.4,159.1,397.2,159.1z"/>
			<path class="st3" d="M444.6,155.6c-0.3-0.7-0.7-1.4-0.7-2c0.1-0.9,0.6-1.6,1.6-2c1.5-0.4,2.9-1.1,4.3-1.5
				c1.3-0.4,2.6-0.5,3.9-0.8c0.2,0,0.4-0.2,0.7-0.2c1.2-0.2,2.3-0.5,3.5-0.5c0.3,0,0.8,0.6,1,1c0.8,1.5,1.5,3.1,2.3,4.7v0.1
				c-0.2,1.9,1.3,3.2,1.8,4.9c0.2,0.5-0.1,1.1-0.2,1.8c1.3,1.1,1.7,2.8,0.6,3.8c-0.4,0.3-1.1,0.6-1.5,0.4c-1-0.5-1.4,0.1-2,0.6
				c-0.3,0.3-0.6,0.7-1,0.8c-0.9,0.4-2,0.4-2.6,1.4c0,0.1-0.3,0.1-0.4,0.1c-1.3-0.3-2.1,0.7-3.2,1c-0.7,0.2-1.5,0-2.3,0
				c-1,0-1.1-0.7-1.3-1.5c-0.1-0.4-0.8-0.7-0.9-1c-0.1-1.4-1.5-2.4-1.1-4c0.1-0.5-0.1-1.2-0.7-1.6c-0.5-0.3-0.8-1.1-1-1.6
				c-0.4-0.8-0.6-1.6-1-2.3C443.9,156.3,444.3,155.8,444.6,155.6z M459,157.1c-0.6-1.3-1.2-2.6-1.7-4c-0.2-0.6-0.4-0.9-1.1-0.9
				c-1.1,0-2.1,0.2-3.2,0.6c-1.5,0.5-3.3,0-4.6,1.4c-0.2,0.2-0.8,0.2-1.2,0.2c-0.5,0.1-1.1,0.2-1.7,0.4c0.6,0.3,1.3,0.5,1.4,0.8
				c0.4,0.9,0.6,1.9,0.9,2.9c0.1,0.2,0.1,0.5,0.3,0.6c0.8,0.7,0.9,1.4,0.2,2.1c1.8,1.3,1.8,3.5,2.9,5.1c0.2-0.1,0.5-0.1,0.7-0.2
				c1.8-0.7,3.5-1.5,5.3-2.2c0.5-0.2,1.1-0.5,1.6-0.5c0.6-0.1,1.1,0.1,2,0.2c-0.6-1.8-1.1-3.2-1.5-4.6
				C459.2,158.3,459.1,157.7,459,157.1z"/>
			<path class="st3" d="M424.2,138.8c0.2-0.1,0.5-0.5,0.9-0.8c0.3-0.3,0.7-0.6,1.1-0.8c0.6-0.4,1.3-0.7,2-1.1c0.3-0.2,0.7-0.3,1-0.5
				c1.1-0.5,2.2-0.9,3.3-1.3c1.8-0.7,3.5-1.5,5.3-2.1c0.7-0.2,1.3-0.5,2-0.8c2-0.7,3.9-1.4,6-1.9c1.1-0.3,2.4-0.2,3.5,0
				c0.5,0.1,0.8,0.9,1.3,1.3c-0.5,0.2-0.9,0.4-1.4,0.6c-0.1,0-0.3-0.1-0.3,0c-1.3,1.5-3.2,0.8-4.8,1.4c-0.8,0.3-1.7,0.4-2.4,0.8
				c-1.8,1.2-3.9,1.4-6,1.8c-1.2,0.2-2.3,1-3.4,1.6c-1.5,0.8-2.9,1.6-4.3,2.4c-0.6,0.3-1.2,0.7-1.8,1
				C424.9,141.2,424.2,140.7,424.2,138.8z"/>
			<path class="st3" d="M411,151.3c-0.8,0-1.6,0.1-2.6,0.1c-0.5,2.1-2.5,0.9-4,1.2c-1.4,0.3-3,0.3-4.4,0.5c-0.4,0-0.8,0-1.2-0.1
				c-0.5,0-0.9-0.2-1.4-0.1c-1,0.2-2,0.6-3.1,0.8c-0.7,0.1-1.5-0.1-2.2-0.1c-1.6,0.1-3.3,0.2-4.9,0.3c-0.3-1.8,0.5-2.6,2.1-2.8
				c0.9-0.1,1.8-0.6,2.7-0.8c1-0.2,2-0.2,3.1-0.3c1.5-0.2,3-0.4,4.5-0.5c0.7-0.1,1.4,0,2.1,0c1.4,0,2.9,0,4.3,0.1
				c1.5,0.1,2.8,1.1,4.3,0.7c0.2,0,0.4,0.3,0.7,0.5C411,151,411,151.1,411,151.3z"/>
			<path class="st3" d="M425.7,158.8c0.6,1.6,1.2,2.9,1.7,4.3c0.5,1.4,0.8,2.8,1.3,4.1c0.2,0.6,0.8,1.2,1,1.8
				c0.7,1.8,1.3,3.7,1.9,5.6c0.1,0.3,0.3,0.6,0.5,0.9c0.4,0.7,0.8,1.2,0.7,2.2c-0.1,0.7,0.5,1.5,0.8,2.2c0.1,0.4,0.3,0.8,0.3,1.2
				c0.6,0.6,0.6,1.8-0.2,2.6c-0.4-0.6-0.8-1.3-1.3-2.1c0,0-0.3,0-0.8-0.1c0-0.8,0-1.6,0-2.4c0-0.4,0-0.7-0.7-1s-1.9-0.7-1.2-2.2
				c0.2-0.4-0.5-1.2-0.8-1.9c-0.1-0.3-0.6-0.6-0.5-0.7c0.5-1.6-0.7-2.4-1.4-3.5c-0.4-0.5-0.3-1.3-0.6-1.9c-0.9-2.1-1.4-4.4-1.7-6.6
				c0-0.1,0.1-0.2,0.1-0.2C423.3,159.7,424.7,159.5,425.7,158.8z"/>
			<path class="st3" d="M428.5,152.1c1.9-2,4-3,6.3-3.8c1.6-0.5,3-1.4,4.6-1.9c1.2-0.3,2.2-1.1,3.6-0.7c0.8,0.2,1.9-0.3,2.8-0.5
				c0.4-0.1,0.9,0,1.4,0c0-0.2,0.1-0.4,0.1-0.7c0.2,0.1,0.3,0.1,0.3,0.2c0.1,0.5,0.3,1,0.2,1.5c-0.1,0.9-0.8,0.2-1.2,0.3
				c-0.2,0.1-0.5,0.2-0.7,0.3c-0.1,0.1-0.3,0.3-0.4,0.3c-1.7,0.1-3,1-4.3,2c-0.4,0.3-1.1,0.5-1.6,0.4c-1.6-0.2-2.7,0.6-3.9,1.4
				c-1.2,0.7-2.7,0.8-3.9,1.6C430.6,153.5,429.8,152.3,428.5,152.1z"/>
			<path class="st3" d="M424.7,159c-1.8-0.3-1.8-1.6-2.1-2.7c-0.4-1.2-1-2.4-1.4-3.7c-0.2-0.7-0.1-1.4-0.2-2.4
				c-0.2-0.3-0.5-0.9-0.8-1.5c-0.2-0.3-0.5-0.6-0.7-0.9c-0.2-0.3-0.4-0.7-0.5-1c-0.1-0.9-0.1-1.8-0.3-2.7c-0.1-0.4-0.5-0.6-0.9-1
				c0.7-1-0.1-1.4-0.7-1.7c0-0.7,0-1.3,0-2c1-0.4,2.3,0.3,2.7,1.4c0.4,1.2,0.9,2.4,1.3,3.5c0.6,1.6,1.1,3.2,1.7,4.8
				c0.5,1.3,1,2.5,1.4,3.8c0.4,1.1,0.8,2.3,0.9,3.4C425.2,157.3,424.9,158.2,424.7,159z"/>
			<path class="st3" d="M402.8,143.6c0.4-0.2,0.8-0.3,1.3-0.6c0.3,0.5,0.5,0.9,0.7,1.4c0.3-0.2,0.7-0.5,1.1-0.7
				c0.1,0.5,0.2,1,0.4,1.5c-0.3-0.3-0.6-0.4-0.8-0.6c-1,0.7-2.1,1.3-3.5,0.8c-0.2-0.1-0.5,0.1-0.8,0.1c-0.4,0-0.9,0.1-1.2-0.1
				c-1.6-1-1.6-1-3.1,0c-1.1,0.7-2.5,0.9-3.9,0.8c-1.1-0.1-2.2-0.1-3.2,0c-2.1,0.2-2.7,0.1-4.8-0.9c0.5-1,1.3-1.4,2.4-1.7
				c1.9-0.6,3.7-0.5,5.5-0.6c1-0.1,2-0.6,3,0c0.1,0,0.2,0,0.2,0c0.9,1.2,2,1.1,3.2,0.4c0.1-0.1,0.3,0.1,0.4,0
				C401.2,142.6,401.5,142.6,402.8,143.6z"/>
			<path class="st3" d="M433.7,143.5c-0.7,0.4-1.3,0.7-2,1.1c-0.3,0.2-0.5,0.5-0.8,0.5c-1.1,0.3-2,0.8-2.9,1.4
				c-0.1,0-0.7-0.6-0.7-0.7c0.3-0.8,0.3-1.8,1.6-2.1c1-0.2,1.8-1,2.7-1.6c1.6-1.1,3.2-2.2,5.2-2.5c0.8-0.1,1.6-0.6,2.7-1
				c0,0.9,0.1,1.6,0,2.2c-0.1,0.3-0.6,0.9-0.8,0.9c-1.5-0.6-2.1,1-3.1,1.4c-0.6,0.2-1.2,0.3-1.7,0.5
				C433.8,143.6,433.8,143.5,433.7,143.5z"/>
			<path class="st3" d="M419.4,159.6c-1.5,1.8-4.3,2.5-6,1.8c-0.2-0.1-0.5-0.1-0.8,0c-1.1,0.1-2.2,0.3-3.2,0.3c-0.2,0-0.6-0.7-0.6-1
				c0.2-1.3,1.4-2.4,2.8-2.1c1.1,0.2,2,0,3-0.1c0.9,0,1.7-0.1,2.3,0.7c0.1,0.2,0.5,0.2,0.7,0.2C418.1,159.4,418.7,159.5,419.4,159.6
				z"/>
			<path class="st3" d="M422.7,169.7c0.4,1.7,0.1,2.1-1.8,2.4c-1.5,0.2-3,0.7-4.5,0.9c-0.7,0.1-1.6,0.1-2-0.3
				c-1.2-1.2-0.9-2.1,0.7-2.5c1.7-0.4,3.5-0.5,5.2-0.8c0.1,0,0.3,0.1,0.5,0.1C421.4,169.5,422,169.6,422.7,169.7z"/>
			<path class="st3" d="M424.1,177.9c-0.6,0.1-1.1,0.3-1.7,0.3c-1.9,0-3.7,1.2-5.6,0.5c-0.7-0.2-1.3-0.4-1.3-1.2
				c0-0.9,1-1.8,1.8-1.7c1.6,0.1,3.2,0.2,4.8,0.2C423.2,175.9,423.8,176.5,424.1,177.9z"/>
			<path class="st3" d="M420.4,165.1c-0.8,2-1.6,2.3-3.4,2.2c-0.6-0.1-1.3,0.3-1.9,0.3c-0.5,0-1.3-0.2-1.4-0.6
				c-0.3-0.5-0.3-1.3-0.2-1.9c0.1-0.3,0.8-0.6,1.2-0.7c1-0.1,2.1-0.3,3.1-0.1C418.7,164.3,419.5,164.7,420.4,165.1z"/>
			<path class="st3" d="M443.7,163.2c0.1-0.3,0.2-0.5,0.3-0.8c0.3,1.7-0.8,2.9-2.3,2.9c-0.5,0-1.1,0.2-1.5,0.5
				c-0.9,0.6-1.6,0.6-2.3-0.2c-0.2-0.2-0.6-0.1-1-0.2c0.7-1,1.2-2.1,2.7-2.2c0.7,0,1.5-0.3,2.1-0.6
				C442.6,162.1,443.2,162.3,443.7,163.2z"/>
			<path class="st3" d="M434.4,160.8c0.3-2.5,1.9-3.9,4.2-4c1.2,0,2.2,0.9,1.8,1.9c-0.2,0.5-0.8,1-1.4,1.2c-1.1,0.4-2.3,0.6-3.5,0.8
				C435.3,160.8,434.9,160.8,434.4,160.8z"/>
			<path class="st3" d="M444.2,139.6c-0.7,0.1-1.2,0-1.6,0.1c-1.5,0.5-2,0.1-2.1-1.6c1.1,0.1,2.3,0.5,2.9-1.1c0.1,0,0.2,0,0.4,0.1
				C444,138,444.1,138.8,444.2,139.6z"/>
			<path class="st3" d="M442.2,158.7c-1-0.5-1.2-1.2-0.4-2.3c0.3,0.7,0.6,1.4,0.9,2.2C442.5,158.6,442.3,158.6,442.2,158.7z"/>
		</g>
	</g>
	<g>
		<path class="st4" d="M243.1,71.6c0,0-5.7,0.6-7.1,2.8c-1.4,2.3-1.4,7.4-1.4,10.5s0.3,38.6,0.3,38.6s2.3,6.8,6.2,7.7
			s24.4,0.3,26.1,0.3s7.1,0,7.1,0l-0.9,9.9l-10.2-0.6c0,0-2,1.1-4.3,3.4c-2.3,2.3-6.8,8.2-6.8,8.2h7.1H305c0,0-0.3-1.7-1.4-3.1
			c-1.1-1.4-6.8-7.7-6.8-7.7s-2.6-1.4-4.5-1.4c-2,0-9.4,0.3-9.4,0.3l-0.9-9.1l32.1,0.3c0,0,5.1-1.1,7.4-6c2.3-4.8,1.7-22.7,1.7-25
			s0-21.3-1.1-24.4s-2.8-4-6.5-4.5c-3.7-0.6-15.1,0-15.1,0L243.1,71.6z"/>
		<path class="st0" d="M246.8,78.1c0,0-5.7-1.4-6.2,5.1l0.9,35.8c0,0-0.3,4.8,3.7,5.4l33.6,0.4l34,0.1c0,0,1.7-2.3,2.3-5.7
			c0.6-3.4,1.1-32.7,1.1-32.7s0.6-7.1-1.7-8c-2.3-0.9-8,0-8,0L246.8,78.1z"/>
		<g>
			<path class="st3" d="M276.4,155.2c-0.5-0.2-0.9-0.5-1.4-0.8c-0.7,0.9-1.2,0.3-1.8-0.3c-1.8,0.9-3.8,0.8-5.8,0.7
				c-1.4,0-2.8,0.1-4.1,0c-1.7-0.1-3.5-0.3-5.2-0.4c-0.2,0-0.5,0-0.7,0.1c-1.4,0.5-2.7,0.3-3.9-0.4c-0.2-0.1-0.5-0.2-0.7-0.1
				c-0.9,0.3-1.5-0.1-2.1-0.8c-1.2-1.4-1.2-1.4,0.2-2.7c0.8-0.7,1.3-1.7,2-2.4c0.4-0.3,1.4-0.6,1.6-0.4c0.5,0.6,1.5,1.2,0.4,2.2
				c-0.3,0.3-0.2,0.9-0.3,1.3c1.1,0.1,2,0.2,2.9,0.3v-0.1c0.9-0.1,1.8-0.1,2.7-0.2c0.6,0,1.2,0,1.8,0c1.6,0,3.1-0.2,4.7,0
				c1.8,0.3,3.5-0.1,5.2-0.1c0.6,0,1.1,0.5,1.6,0.6c0.4,0.1,0.9,0.3,1.3,0.3s0.8-0.4,1.2-0.5c0.6-0.2,1.1-0.4,1.7-0.4
				c0.5-0.1,1.1-0.1,1.6,0s1.1,0.2,1.6,0.4c0.6,0.2,1,1.1,1.8,0.3c0.1-0.1,0.6,0.2,1,0.3c0.7-0.7,1.3-0.9,2.4-0.8
				c1.6,0.2,3.2,0,4.8,0c2.2-0.1,4.5-0.2,6.7-0.2c0.6,0,1.3,0.3,2,0.5c0.8-0.1,1.7-0.2,2.9-0.4c-0.1-0.4-0.1-1-0.5-1.4
				c-1-1,0.3-1.4,0.6-2.1c0-0.1,1-0.1,1.3,0.2c0.7,0.6,1.2,1.4,1.8,2.1c0.3,0.3,0.7,0.5,0.9,0.9c0.3,0.4,0.6,1,0.5,1.4
				c-0.2,1-1.8,1.9-2.8,1.8c-0.2,0-0.5,0-0.7,0c-0.6,0.2-1.2,0.7-1.8,0.7c-2,0-3.9-0.1-5.9-0.1c-0.4,0-0.9,0.2-1.3,0.2
				c-2.1,0-4.1,0.1-6.2,0c-1.5-0.1-3.1-0.3-4.9-0.4c-0.7,0.7-0.9,0.7-1.5,0c-0.5,0.3-1,0.5-1.5,0.8c-0.1,0-0.2,0-0.2,0
				c-1.2-0.8-2.4-0.8-3.6,0C276.6,155.2,276.5,155.2,276.4,155.2z"/>
			<path class="st3" d="M323.5,82.9c0.1,0.5,0.4,0.9,0.4,1.3c0.2,2.7-0.2,5.5,0.2,8.3c0.2,1.3-0.2,2.6-0.2,3.9
				c-0.1,2.4-0.1,4.9-0.2,7.3c0,0.1,0,0.3,0.1,0.4c0.6,1.1,0.2,1.9-0.8,2.5c0.9,1.4,1.4,2.8,0.8,4.4c-0.2,0.6,0.2,1.3,0.1,2
				c-0.1,1.3-0.3,2.5-0.6,3.7c-0.2,0.9-0.7,1.6-0.2,2.6c0.4,0.8,0.4,1.8,0.3,2.7c-0.3,2.5-0.5,5.1-2,7.3c-0.7,1.1-1.4,2.3-3.1,2.1
				c-0.1,0-0.3,0-0.3,0c-0.5,1.7-2.3,1.3-3.5,2.1c-0.9,0.6-2.6,0.6-3.7,0.3c-1.3-0.4-2.5,0-3.8-0.2c-0.6-0.1-1.2-0.5-1.8-0.7
				c-0.2-0.1-0.5-0.2-0.7-0.1c-0.8,0.2-1.5,0.8-2.3,0.8c-1.4,0-2.9-0.4-4.3-0.6c-0.2,0-0.5-0.1-0.7,0c-1.1,0.7-2.1,1.2-3.1-0.2
				c-0.1-0.2-0.4-0.2-0.5-0.2c-1.3,0.3-2,1.5-3.5,1c-1.4-0.5-3.1-0.3-4.7-0.3c-1.2,0-1.4,0.9-1.4,1.8c0,1,0.1,2,0.2,3.1
				c1.1-0.2,2.3-0.1,3.2,0.9c0.1,0.1,0.7-0.2,1-0.4c0.8-0.4,1.4-0.6,2.4-0.3c0.8,0.3,1.8,0.1,2.7,0.1c0.8,0,1.4,0.1,1.9,0.9
				c0.2,0.3,0.6,0.5,1,0.7c1,0.4,1.9,0.7,2.5,1.8c0.6,1,1.5,1.8,2.3,2.7c0.6,0.7,1.1,1.3,0.9,2.3s-0.9,1.4-1.8,0.9
				c-1.9-1-3.5-2.4-4.5-4.3c-1-1.7-2.5-1.6-4.2-1.6c-1,0-1.9-0.3-2.9-0.4c-0.4,0-0.7-0.1-1.3-0.1c-0.8,1.5-2.4,0-3.8,0.6
				c-0.1,0.3-0.1,0.8-0.2,1.3c-0.4,1.4-2.6,3.4-4.6,2.5c-0.5-0.3-1.4,0.2-2.1,0.2c-1.5-0.1-2.8-1.5-3-2.9c0-0.4-0.2-0.8-0.3-1
				c-1.3-0.6-2.9,0.9-3.8-0.7c-0.6,0.2-1.1,0.5-1.7,0.5c-1.3,0.1-2.6,0.2-3.9,0c-1.4-0.1-2.1,0.8-2.6,1.6c-1.1,1.7-2.5,3.1-4.3,4.1
				c-0.5,0.3-1.2,0.7-1.5,0c-0.3-0.6-0.4-1.4-0.2-2s0.8-1.1,1.3-1.6c0.5-0.7,1.1-1.3,1.5-2c0.6-0.8,1.1-1.6,2.2-1.9
				c0.6-0.1,1.1-0.8,1.7-1.1c0.4-0.2,1-0.4,1.5-0.5c1.1-0.2,2.2-0.3,3.3-0.4c0.5,0,1.1,0,1.5,0.3c0.9,0.8,1.6,0.5,2.5,0.1
				c0.7-0.3,1.5-0.3,2.1-0.4c0.1-1,0.2-2,0.1-3c0-1.2-0.6-1.8-1.9-1.8c-0.9,0-1.7,0.1-2.6,0.2c-0.9,0.1-1.7,0.5-2.5,0.4
				c-0.9-0.2-1.7-0.8-2.6-1.3c-0.2,0.1-0.5,0.2-0.7,0.4c-0.8,1.3-1.6,0.8-2.6,0.3c-0.3-0.2-0.8-0.2-1.1-0.1c-2.2,0.7-4.3,1-6.4-0.2
				c-0.2-0.1-0.7-0.1-0.8,0c-1,1.2-2.3,0.4-3.4,0.7c-0.5,0.1-1-0.1-1.5,0c-1.8,0.3-3.6,0.5-5.2-0.6c-0.5-0.3-1.4-0.2-1.7-0.6
				c-0.7-0.8-1.6-0.9-2.4-1.3c-0.7-0.3-1.4-1.1-1.7-1.8c-0.7-1.4-1.4-2.8-1.6-4.3c-0.3-2-0.3-4-0.1-6c0.1-0.6,0.2-1.2-0.1-1.8
				c-0.7-1.8-0.8-3.6-0.7-5.5c0-0.3,0-0.7-0.1-1c-0.5-1.5,0-2.9,0.9-4.2c-1-0.6-1.5-1.5-0.8-2.7c0.1-0.1,0-0.3,0-0.4
				c0-2.6,0-5.1-0.1-7.7c0-1-0.3-1.9-0.3-2.9c0-2.5,0.2-5,0.3-7.6c0-0.9-0.7-1.9,0.4-2.4c-0.2-0.5-0.4-1-0.5-1.5
				c-0.3-1.7-0.8-3.4,0.3-4.9c0.8-1.1,1.2-2.2,1.7-3.4c0.7-1.7,2.4-2.2,4-2.6c0.6-0.2,1.3-0.4,1.9-0.5c0.3-0.1,0.6-0.1,0.9,0
				c1.4,0.8,2.8,0.1,4.3,0c2-0.2,4.1,0,6.1,0c1,0,2,0.3,3,0.1c2.3-0.3,4.5-0.4,6.8,0.2c0.2,0.1,0.4,0.1,0.6,0.1
				c1.8-0.8,3.6-0.4,5.4-0.3c2.8,0.1,5.6-0.1,8.4-0.1c2.3,0,4.5-0.1,6.8-0.1c1.9,0,3.7,0.2,5.6,0.2c1.3,0,2.5-0.1,3.8-0.1
				c0.3,0,0.7,0.1,1,0.2c0.4,0.1,0.8,0.3,1.1,0.2c1.8-0.5,3.7-0.5,5.6-0.4c1.2,0,2.4,0.2,3.6,0.2c1,0,2-0.1,3-0.2
				c2.2-0.1,4.3-0.2,6.4,0.6c0.1,0.1,0.3,0.1,0.4,0c2.6-1.4,4.8,0.3,7.1,1c0.8,0.2,1.6,2.2,1.4,3.2c0,0.1,0.1,0.4,0.2,0.4
				c2.3,1.6,1.9,3.9,1.6,6.1C323.9,82.1,323.7,82.5,323.5,82.9z M320.9,117.9c-0.9-0.8-1-2.2-0.8-3.3c0.3-1.6,0.2-3.3,0.3-5
				c0-0.7,0.1-1.4,0.1-2c0-0.3,0.2-0.6,0.1-0.8c-0.1-1.4-0.3-2.7-0.4-4.1c0-1.6,0.1-3.3,0.2-4.9c0-0.7-0.2-1.3-0.2-2
				c0.1-2.1,0.3-4.2,0.4-6.3c0.1-1.7-0.5-3.4,0.1-5.1c0.6-1.8,0.4-3.6,0.1-5.3c-0.1-1-0.5-1.9-0.8-2.8c-0.4-0.3-1-0.6-1.3-1.1
				c-0.6-1-1.5-1.2-2.6-1.3c-1.2-0.1-2.6,0.1-3.3-0.8c-0.7,0.4-1.4,0.9-2,0.9c-2.7,0.1-5.5,0-8.2-0.1c-1.7,0-3.4-0.3-5.1-0.2
				c-1.2,0.1-2.3,0.1-2.9-0.4c-1,0.2-1.8,0.4-2.5,0.6c-1.7,0.4-3.4-0.8-5.1,0.2c-0.2,0.1-0.6-0.1-0.9-0.2c-0.7-0.1-1.5-0.3-2.2-0.3
				c-1.1,0-2.2,0.3-3.4,0.3c-1,0-2.1-0.1-3.1-0.1c-0.6,0-1.2,0.1-1.7,0.1c-1-0.1-2-0.3-3-0.2c-1.4,0.1-2.8,0.8-4.2-0.1
				c-0.1-0.1-0.4,0.1-0.6,0.1c-1.2,0.1-2.3,0.3-3.5,0.3c-0.7,0-1.3-0.4-2.2-0.7c-0.6,0.4-1.5,0.8-2.6,0.5c-0.8-0.2-1.6-0.1-2.4,0
				c-1.9,0.1-3.8,0.1-5.7,0.2c-1.7,0.1-3.5,0-5.2,0.2c-1,0.1-1.8-0.2-2.1-1.3c-1,1.4-2.5,0.9-3.8,1.2c-0.8,0.2-1.6,0.7-2.3,1.2
				c-0.6,0.4-1.1,0.9-1.4,1.2c-0.3,1-0.7,1.8-0.8,2.7c-0.3,2.1-0.3,4.2,0.2,6.3c0.1,0.6,0.1,1.2,0.1,1.8c0,1.2-0.1,2.5-0.1,3.7
				c0,2.5,0.1,5,0.2,7.5c0,1.3,0.1,2.6,0.2,4c0.1,2.2-0.8,4.4,0.2,6.6c0.1,0.2,0,0.5-0.1,0.7c-0.4,1.9-0.3,3.7,0.3,5.5
				c0.1,0.4,0.1,0.8,0,1.2c-0.2,1.2-1.5,2.3,0.2,3.4c0.2,0.1,0.2,0.6,0.2,0.9c0,0.7,0,1.5,0,2.2c0,1,0.1,2,0.2,3
				c0,0.4,0,1.1,0.2,1.2c1.5,0.8,2.1,2.9,4.2,2.8c0.1,0,0.2,0,0.2,0.1c0.7,1.3,1.9,0.4,2.8,0.6c1.8,0.3,3.8-0.1,5.7-0.1
				c0.9,0,1.8,0.7,2.6-0.2c0.1-0.1,0.5,0,0.8,0s0.7,0.2,1,0.1c1.5-0.4,3-0.3,4.4,0.4c0.2,0.1,0.4,0.1,0.5,0c1.2-0.6,2.2-0.2,3,0.7
				c0.5-0.4,1-1,1.5-1.1c1.1-0.2,2.2-0.2,3.3-0.2c1.7,0,3.4,0.2,5.1,0.2c1.4,0,2.8-0.2,4.2-0.2c1.7,0,3.4,0.2,5.1,0.2
				c2.1,0,4.3-0.4,6.4-0.1c1.7,0.2,3.8-0.8,5,1.1c0.7-0.3,1.2-0.8,1.8-0.8c1.1,0,2.2,0.1,3.3-0.3c0.8-0.3,1.7-0.3,2.5,0
				c1.1,0.3,2.4-0.6,3.4,0.5c0.1,0.1,0.4-0.1,0.6-0.2c2.2-0.6,4.3-0.6,6.5-0.2c0.8,0.1,1.8,0,2.6-0.2c0.6-0.1,1.2-0.5,1.9-0.8
				c0.2-0.1,0.5-0.1,0.6-0.2c0.5-0.5,1-1.1,1.5-1.6c0.7-0.7,1-1.3,0.9-2.5c-0.2-1.5,0-3.2,0.3-4.7
				C319.9,119.5,320.5,118.7,320.9,117.9z M276.4,133.8c0,0.5,0.1,1.1,0.1,1.7c-0.2,1.6,0.2,3.3-0.6,4.8c-0.2,0.3,0,1.2,0.3,1.4
				c1.2,0.8,2.6,1.9,4,0.3c0.1-0.1,0.2,0,0.3-0.1c0.8-0.3,1-1,0.7-1.7c-0.8-1.5-0.4-3.2-0.7-4.8c-0.1-0.6,0-1.3,0-1.7
				C279.1,133.8,277.9,133.8,276.4,133.8z"/>
			<path class="st3" d="M278.6,124.8c0.3-1,1.1-1.2,2.3-1.1c2.3,0.1,4.7-0.1,7.1-0.1c3.5,0,6.9,0.2,10.4,0.3c1.2,0,2.3-0.6,3.5-0.1
				c0.3,0.1,0.6,0.2,0.7,0.2c0.9-0.2,1.6-0.4,2.3-0.4c1.1-0.1,2.3-0.1,3.4-0.1c0.8,0,1.5,0.2,2.2,0.4c1.2,0.3,2-0.5,3-0.8
				c0.1,0,0.3-0.5,0.2-0.6c-1-1.1,0.1-2.1,0.2-3.1c0-0.3,0.3-0.6,0.2-0.7c-0.6-0.8-0.1-1.3,0.5-1.8c-0.4-1.1-1.3-2.5-1-3.3
				c0.5-1.2-0.3-2.3,0.3-3.3c0.1-0.2,0.2-0.7,0.1-0.9c-0.8-0.9-0.3-1.9-0.3-2.9c0.1-1.4,0.1-2.9,0.2-4.3c0-0.4,0.3-0.7,0.4-1.1
				c0.1-0.5,0.2-1,0.2-1.5c0.1-1.1,0.1-2.3,0.1-3.4c0-0.5-0.1-1-0.1-1.6c0.1-1.1,0.3-2.2,0.5-3.3c0.9,0,1.7,0,2.4,0
				c0.2,0.4,0.4,0.8,0.5,1.2c0.1,0.8,0.5,1.7,0.2,2.4c-0.6,1.8,0,3.6-0.2,5.4c-0.2,1.2-0.3,2.5-0.4,3.7c-0.1,1.3-0.3,2.6-0.4,4
				c-0.1,2.8-0.2,5.6-0.3,8.4c0,1.5,0.2,2.9,0.2,4.4c0,1.2-0.8,2.3-2,2.3c-0.2,0-0.4,0.1-0.6,0.2c0.6,0.7,1.4,1.3,0.9,2.3
				c-0.5,1.1-1.6,2.3-2.5,2.1c-2.7-0.6-5.4-0.1-8.1-0.3c-0.7-0.1-1.4-0.3-2-0.3c-0.9,0.1-1.9,0.3-2.8,0.4c-1.3,0.1-2.6,0-4,0
				c-1.3,0-2.6,0-3.9,0c-0.5,0-1.1-0.2-1.6-0.2c-0.3,0-0.7-0.1-1,0c-1.2,0.1-2.5,0.2-3.7,0.3c-1,0-2-0.1-3-0.1c-0.8,0-1.6,0-2.5,0
				s-1.7-0.4-1.9-1.6c-0.8,2.3-2.7,1.5-4.1,1.7c-1.7,0.2-3.4,0.1-5.2,0.2c-0.2,0-0.5,0-0.7,0c-2.2-0.7-4.4,0-6.6-0.2
				c-2.1-0.2-4.2,0.1-6.3,0.1c-0.5,0-1.1-0.3-1.7-0.5c-1.3,1-2.9,0.5-4.5,0.6c-1.8,0.1-3.6,0.1-5.3,0.2c-1,0.1-2.2-0.8-2.7-1.9
				c-0.4-0.9-0.1-1.6,1-2.4c-1.1-0.1-2.3-0.3-2.4-1.6c-0.2-1.4-0.1-2.9-0.1-4.3c0-0.6,0.2-1.3,0.2-1.9c0-1.7-0.1-3.5-0.2-5.2
				c-0.1-1.5-0.4-3-0.5-4.5c-0.1-3-0.2-6-0.3-9c0-0.3-0.2-0.5-0.2-0.8c-0.2-1.3-0.6-2.6,0.3-3.9c0.1-0.2,0-0.6,0-0.8
				c0.8,0,1.6,0,2.5,0c0.2,1.1,0.4,2.2,0.5,3.3c0.1,1.7,0,3.4,0,5c0,0.4,0,0.9,0.2,1.2c0.8,1.5,0.7,3.2,0.7,4.8
				c0,0.5,0.2,0.9,0.1,1.4c0,0.7-0.2,1.4-0.3,2.1c0,0.3,0,0.7,0,1c0,0.6,0.1,1.2,0.1,1.8c0,0.1-0.1,0.3-0.1,0.4
				c0.2,1.4,0,3.4-0.5,4.5c0.6,0.5,0.9,0.9,0.5,1.8c-0.2,0.5,0.1,1.5,0.5,2c0.5,0.7,0.2,1.1-0.1,1.6s-0.3,0.8,0.4,0.8
				c0.1,0,0.3,0,0.4,0.1c1,1.2,2.3,0.6,3.5,0.5c2.1-0.1,4.3-0.5,6.3,0.4c0.3,0.1,0.8-0.2,1.2-0.2c1.3,0,2.6,0.1,3.9,0
				c2-0.1,4-0.5,5.9-0.2c2.6,0.4,5.1-0.2,7.6,0c1.4,0.1,2.9-0.1,4.4,0.1C277.4,123.7,277.9,124.4,278.6,124.8z"/>
			<path class="st3" d="M317.4,90.7c-2.1-0.1-2.9-1.1-2.5-3.1c0.4-2.3,0.3-4.6-0.5-6.8c-0.3-1-1.5-1.3-2.7-1
				c-1.4,0.4-2.7,0.5-4.1-0.1c-0.7-0.3-1.6-0.2-2.3,0c-1,0.4-1.9,0.3-2.8-0.1c-0.8-0.3-1.6-0.7-2.4,0.2c-0.2,0.2-0.7,0-1.1,0
				c-2.6,0-5.1,0-7.7,0c-1.3,0-2.5,0.1-3.8,0c-1.2-0.1-2.3-0.5-3.5-0.5c-0.8,0-1.5,0.4-2.3,0.5c-2.4,0.1-4.9,0.3-7.2-0.1
				c-1.5-0.2-2.9-0.1-4.4,0c-0.9,0.1-1.9-0.1-2.8-0.1c-1.9,0-3.8,0.1-5.7,0.2c-1.4,0-2.8,0.1-4.2,0.1c-0.5,0-1-0.5-1.5-0.6
				c-0.6,0-1.1,0.3-1.7,0.4c-0.7,0.1-1.4,0.1-2,0c-1.2-0.1-2.3-0.6-3.5,0.2c-0.7,0.4-1.9,0.1-2.8-0.1c-2.2-0.6-3.6,0.6-3.7,2.9
				c-0.1,1.9,0,3.7,0.2,5.5c0.2,1.5-0.8,2.3-2.8,2.3c-0.1-1.3-0.8-2.9-0.3-4c0.7-1.6,0.2-3.2,0.2-4.7c0-1.3,0.3-2.3,1-3.3
				c0.8-1.3,2-2.2,3.4-2.3c1.7-0.1,3.5,0.1,5.3,0.2c0.7,0,1.4-0.1,2.1-0.1c0.7,0,1.4,0,2.1-0.1c2.8-0.1,5.5-0.3,8.3-0.4
				c0.2,0,0.5,0,0.7,0.1c1.4,0.4,2.8,0.3,4.2,0.1c1-0.1,2.1,0.1,3.2,0.1c3,0,6,0,9,0c3.3,0,6.6,0.2,9.9,0.2c2.2,0,4.3-0.4,6.5-0.5
				c1.4-0.1,2.8,0.1,4.2,0.2c2,0,4.1-0.3,6,0.1c1.6,0.4,3.1,0.1,4.7,0.1c0.4,0,0.8-0.1,1.3-0.2c1.7-0.4,4.7,0.7,5.6,2.4
				c0.2,0.4,0.6,0.8,0.8,1.2c0.5,1.5,0.3,3,0.2,4.5c0,0.4-0.1,0.9,0,1.2c0.5,1.4,1.1,2.8,0,4.2C317.3,90,317.4,90.4,317.4,90.7z"/>
			<path class="st3" d="M269.1,105.3c0.4-1.3,0.9-1.5,2.4-1.1c0.3,0.1,0.6,0.1,0.9,0.1c1.8,0.1,3.6,0.2,5.4,0.2c1.7,0,3.3-0.2,5-0.2
				c0.5,0,1.1,0.2,1.6,0.2c1.6,0,3.1-0.1,4.7-0.2c0.3,0,0.6,0,0.9,0c0.7,0.1,1.3,0.1,2,0.2c0.8,0,1.6,0.1,2.4,0.1
				c0.2,0,0.4-0.1,0.6-0.1c0.5,0,1.4-0.1,1.5,0.2c0.2,0.5,0.3,1.3,0.1,1.8c-0.1,0.4-0.8,0.7-1.3,0.7c-1.3,0-2.6-0.5-3.8-0.2
				c-1.3,0.4-2.6,0.4-3.9,0.4c-0.5,0-1.1-0.1-1.6-0.3c-1-0.4-1.9-0.3-2.9,0.2c-0.1,0.1-0.3,0.1-0.3,0c-1-0.8-1.9,0-2.8,0
				c-1.4,0-2.8-0.3-4.2-0.3c-1.2,0-2.4,0.1-3.5,0.2s-2.3,0.4-3-0.8c-1.5,1.2-3,1-4.7,0.7c-1.2-0.2-2.6,0.2-3.9,0.2
				c-0.9,0-1.8-0.1-2.7-0.2c-0.6,0-1.2,0-1.8-0.1c-0.6-0.2-1.2-0.6-1.8-0.9c-0.3,0.3-0.8,0.7-1.4,1.1c-0.2-0.1-0.3-0.2-0.5-0.3
				c0.4-0.8,0.7-1.6,1.1-2.4c0.2,0,0.3,0,0.5-0.1c0.2,0.3,0.3,0.6,0.5,0.9c0-0.1,0-0.3,0-0.4c0.6-0.2,1.2-0.7,1.8-0.7
				c2.2,0,4.4,0.2,6.6,0.3c0.2,0,0.4,0.1,0.6,0c1.3-0.9,2.7-0.4,4-0.2C268.1,104.3,268.6,104.9,269.1,105.3z"/>
			<path class="st3" d="M292.6,98.3c-0.6,0.5-1.3,0.7-2.1,0c-0.2-0.1-0.7-0.2-0.8-0.1c-1,1.2-1.7,0.6-2.5-0.2
				c-0.9,1-4.6,0.9-6.3-0.1c-0.8,0.9-3.1,1.3-4.2,0.8c-0.2-0.1-0.5-0.2-0.7-0.2c-0.8,0.1-1.5,0.3-2.3,0.3c-2,0-4.1-0.1-6.1-0.1
				c-0.9,0-1.8,0.1-2.7,0.3c-0.8,0.2-1.4-0.3-1.6-0.9c-0.1-0.5,0.1-1.5,0.5-1.7c0.9-0.4,2-0.7,3-0.7c1.9,0,3.7,0.2,5.6,0.3
				c1.4,0,2.8,0,4.2,0c0.3,0,0.6,0,0.8-0.1c1.3-0.6,2.3,0.2,3.1,0.8c0.8-0.2,1.5-0.6,2.1-0.6c1.4,0.2,3-1.2,4,0
				c1.1,0.1,1.8,0.1,2.6,0.2c0.5,0,1.1,0.1,1.5-0.1c1-0.6,1.7-0.6,2.2,0.7c1-1.3,2.5-1.3,3.5-0.8c1.5,0.7,2.8-0.1,4.1-0.1
				c0.4,0,0.8,0.1,1.3,0.1c0.2,0,0.5,0.1,0.7,0c0.8-0.4,1.4-0.4,1.7,0.5c0.2,0.7-0.5,1.8-1.2,2c-1.5,0.4-3,0.4-4.6-0.1
				c-0.5-0.2-1.1,0.1-1.7,0.2c-0.5,0.1-1,0.1-1.5,0.1s-1,0.1-1.4,0C293.5,98.7,293.1,98.5,292.6,98.3z"/>
			<path class="st3" d="M302.5,91.5c-0.2,0.1-0.3,0.3-0.5,0.3c-0.9,0.1-1.8,0.2-2.7,0.3c0,0.1,0,0.2,0,0.3c-0.2-0.2-0.3-0.4-0.4-0.6
				c-0.8,0.2-1.6,0.6-2.4,0.6c-0.8,0.1-1.8,0-2.5-0.3c-0.5-0.2-0.6-0.2-1,0c-0.5,0.2-1.1,0.3-1.7,0.3c-0.5,0-1.1-0.1-1.6-0.2
				s-1-0.3-1.7-0.6c-0.3,0.3-0.8,0.7-1.3,1.1c0-0.1,0-0.2,0-0.3c-1.8,0-3.5,0.1-5.3,0s-3.6,0.4-5.3-0.4c-0.1,0-0.2-0.1-0.3-0.1
				c-3.1,1-6.2,0.5-9.3,0.2c-0.8-0.1-1.8,0-2.5,0.3c-1.2,0.6-1.8-0.1-2.4-0.8c-0.4,0.2-0.8,0.5-1.1,0.4c-0.6-0.3-1-0.8-1.6-1.3
				c0-0.2,0.1-0.3,0.1-0.5c0.6-0.2,1.3-0.4,1.9-0.5c0,0,0.2,0.5,0.3,0.9c1.2-1.6,2.7-1.1,4.3-1.1c3.1,0.1,6.1-0.2,9.2-0.1
				c1.7,0.1,3.4,0.1,5-0.1c0.6-0.1,1.2,0,1.7,0.1c0.6,0.1,1.1,0.5,1.7,0.7c0.5-0.3,1-0.9,1.7-1c0.9-0.1,1.8,0.3,2.7,0.4
				c0.3,0,0.6,0,0.9,0c1.4,0.4,2.7,0,4.1-0.1c0.4,0,0.9,0.1,1.3,0.1c1.4-0.1,2.7-0.2,4.1,0.4c0.4,0.1,1-0.4,1.5-0.3
				c0.7,0.1,1.4,0.3,2.1,0.6C302,90.7,302.2,91.2,302.5,91.5L302.5,91.5z"/>
			<path class="st3" d="M272.4,111.8c0.4-0.9,1.1-1.2,2.2-0.6c0.3,0.1,0.8-0.3,1.2-0.3c1.7,0.1,3.5-0.7,5.2,0.3
				c0.1,0,0.2,0.1,0.2,0.1c0.9-0.8,1.9-0.4,2.9-0.3c0.8,0,1.5-0.2,2.4,0.3c0.8,0.4,2.1-0.1,3.1-0.1c1.1,0,2.2,0.1,3.3,0.1
				c0.8,0,1.7,0.3,2.3,0c1.4-0.6,2.5-0.2,3.8,0.2c0.1,0,0.4,0.1,0.4,0.1c0.8-1.5,1.9-0.1,2.9-0.2c0.4-0.1,0.8,0.5,1.3,0.8
				c-0.4,0.4-0.7,1-1.1,1.1c-0.9,0.2-1.9,1-2.9,0c-0.3-0.3-1.4,0.3-2.1,0.3c-1.3,0-2.7-0.1-4-0.1c-1.1,0-2.3,0.2-3.4,0.4
				c-0.1,0-0.2,0.1-0.2,0.1c-1-0.7-2.1,0.3-3.1-0.2c-0.4-0.2-0.9-0.2-1.3-0.1c-1.2,0.5-2.3,0.2-3.5-0.1c-0.5-0.1-1.1,0.3-1.7,0.3
				c-0.8,0-1.7-0.1-2.5-0.1c-0.5,0-1.1,0.4-1.5,0.3c-1.6-0.7-3.2,0.3-4.6-0.3c-1.6-0.7-3.3,0.8-4.8-0.3c-0.2-0.2-1.1,0.6-1.2-0.3
				c0-0.8,0.3-1.6,1.3-1.8C268.7,110.7,270.5,110.8,272.4,111.8z"/>
			<path class="st3" d="M261.7,96.2c-0.1,0.2-0.2,0.4-0.4,0.7c0.5-0.1,0.8-0.2,1.4-0.4c-0.3,0.7-0.4,1.4-0.8,1.6
				c-0.9,0.4-1.8,0.7-2.8,0.8c-1.3,0.1-2.7-0.1-4-0.2c-1.7-0.1-2.3-0.6-2.7-2.3C255.5,95.9,258.6,95.5,261.7,96.2z"/>
			<path class="st3" d="M300.7,105.4c0.8-1.5,3.4-1.8,4.3-0.5c0.2,0.3,0.3,1.1,0.1,1.3c-0.5,0.5-1.3,1.1-1.8,1
				c-0.9-0.2-2.3,0.2-2.5-1.4c-0.5,0.9-1,1.7-2.1,1.1c-0.9-0.5-1.4-1.6-1-2.1C298.1,104.1,299,104.3,300.7,105.4z"/>
			<path class="st3" d="M254.5,89.6c1.4,0.1,2.3,0.3,3.3,0.3c1.1,0.1,1,0.9,0.9,1.5c-0.1,0.7-0.6,1.3-1.6,1
				c-0.4-0.1-0.9,0.1-1.4,0.1c-0.4,0-0.9,0-1.3-0.2c-0.8-0.3-1.6-0.6-2.3-1c-0.6-0.3-0.8-0.9,0.1-1.2C253.1,90,254,89.7,254.5,89.6z
				"/>
			<path class="st3" d="M302.5,91.6c0-0.4,0-0.9-0.1-1.5c0.8,0.7,1.6,1.3,2.4,0.2c0.8,0.4,1,1,0,1.9c-0.1-0.4-0.2-0.7-0.3-1
				C303.8,90.9,303.4,92.4,302.5,91.6C302.5,91.5,302.5,91.6,302.5,91.6z"/>
		</g>
	</g>
</g>
<g>
	<g>
		<path class="st4" d="M126.9,439.2c0,0-7.4,1.5-7.8,6.3s2.2,27.7,2.2,27.7l5.5,37.3c0,0,1.8,5.5,5.5,6.3s71.3,3.7,71.3,3.7
			l33.6,1.8c0,0,4.1-4.1,3.7-5.9c-0.4-1.8-4.4-3-4.4-3l-26.2-3.3l-11.1-3.3c0,0-0.9-10.1-1.6-13.8c-0.6-3.6-1.7-32.1-1.7-34.3
			c0-2.2-0.7-12.6-3-14c-2.2-1.5-7-2.6-10-2.6S126.9,439.2,126.9,439.2z"/>
		<path class="st1" d="M224.9,425.5c0,0-10.7,8.4-12.2,12.7c-1.4,4.3-16.6,26.4-16.6,26.4l1.6,28.3c0,0,10.9-17.8,13.6-19.4
			s14-13.6,14-13.6s3.9,11.6,3.9,14.7c0,3.1,1.6,11.3,0.8,14.7c-0.8,3.5-1.2,9.3-1.2,9.3l2.7,1.2l-1.9,13.2c0,0,9.7,0,10.5,1.6
			c0.8,1.6,1.2,4.3,1.2,4.3s46.2,1.6,51.6-0.8c5.4-2.3,9.7-3.1,12.4-9.3c2.7-6.2,8.5-39.6,10.5-45s0-24.8-2.7-30.3
			c-2.7-5.4-6.6-7.8-8.9-10.1s-8.5-4.3-8.5-4.3s-6.5,1.5-7.5,1.7s-4.9-0.5-4.9-0.5s-2.3,8.5-5.8,11.6C273.8,435.2,266,443,266,443
			s-0.4,23.7-1.6,28.7c-1.2,5-2.7,24.4-2.7,24.4l-10.1,1.6l-5.4,1.2c0,0-1.9-11.3-0.8-19s1.6-31.4,2.3-34.9c0.8-3.5-3.1-7.8-2.7-12
			c0.4-4.3-0.4-10.1-0.4-10.1L224.9,425.5z"/>
		<path class="st2" d="M261.6,341.1c0,0-3.6,10.7-7.6,14.3c-4,3.6-8.8,5.2-10,5.7s-3.3-0.9-3.3-0.9s-3.8,2.6-5.9,2.8
			c-2.1,0.2-2.8-1.2-2.8-1.2s-2.1,3.3-3.1,5.7s0.7,14.7,3.8,20.6c3.1,5.9,10.2,10.2,14.2,11.9s5.7,4.5,5.2,7.4
			c-0.5,2.8-2.4,9.7-4.5,12.6c-2.1,2.8-5.2,6.6-5.2,6.6l-7.4,1.7c0,0-0.7,5.9-0.5,6.6c0.2,0.7-1.2,3.6-3.8,1.9
			c-2.6-1.7-10-11.6-10.4-19c-0.5-7.4-3.3-35.1-2.1-38.7c1.2-3.6-0.7-28.2,4.3-37.7s10.4-19.7,14.9-23s17.3-8.8,26.8-8.1
			s17.6,7.6,21.1,11.6c3.6,4,9.7,23.7,10.7,27.3c0.9,3.6,2.4,13.5,2.4,18.7s-2.1,28.7-2.6,32c-0.5,3.3-0.2,12.6,0,15.4
			c0.2,2.8,0.7,5,0.7,5s-5,1.7-8.5,0.7c-3.6-0.9-8.5-2.8-11.4-5.9c-2.8-3.1-5-8.1-5-11.1c0-3.1,0.5-8.5,0.5-8.5s3.6-3.1,5.9-7.1
			c2.4-4,4.5-10.2,4.5-10.2s6.6-3.1,8.8-5.9c2.1-2.8,2.4-7.8,0.5-9.2s-4.3-0.9-5.9-1.2c-1.7-0.2-5,2.6-7.4,1.4
			c-2.4-1.2-5.9-2.1-9-6.2C266.4,353,261.6,341.1,261.6,341.1z"/>
		<g>
			<path class="st3" d="M116.8,445.5c0.3-0.9,0.7-1.8,0.9-2.8c0.2-0.8,0.4-1.4,1.2-1.8c0.2-0.1,0.5-0.3,0.6-0.5
				c0.9-1.7,2.5-1.9,4.1-2.1c0.5-0.1,1-0.5,1.5-0.6c0.9-0.1,1.9,0,2.8,0.2c1.5,0.2,2.9,0.6,4.4,0.7c1.8,0.1,3.7-0.1,5.5-0.2
				c0.1,0,0.2,0,0.2,0c2.1,0,4.2,0,6.3,0.2c1.4,0.1,2.8,0.5,4.1,0.8c0.2,0,0.5-0.1,0.7-0.2c0.4-0.1,0.8-0.2,1.1-0.2
				c1.6,0.1,3.2,0.2,4.8,0.4c1.8,0.2,3.7-0.6,5.4,0.5c0,0,0.1,0,0.1,0c1.1,0.1,2.2,0.3,3.3,0.2c3.1-0.3,6.3-0.1,9.4-0.1
				c1.6,0,3.1,0,4.7,0.5c0,0,0.1,0,0.1,0c2.2-1.4,4.5,0.7,6.8-0.2c0.6-0.2,1.4,0.3,2.1,0.5c0.4,0.1,0.8,0.4,1.2,0.6
				c0.9,0.3,1.9,0.7,2.9,1c0,0.1-0.1,0.2-0.1,0.3c0.5-0.2,0.9-0.4,1.2-0.5c1.2,1,2.2,1.9,3.2,2.9c0.3,0.3,0.4,0.9,0.5,1.4
				c0.2,0.6,0.3,1.3,0.5,1.9c0.3,0.7,0.4,4.3,0.1,4.7c1.5,2.3,0.3,4.9,1.3,7.3c0.2-0.4,0.3-0.9,0.6-1.4c0.7-1.2,1.5-2.3,2.3-3.4
				c0.7-0.9,1.5-1.6,2.2-2.4c0.2-0.3,0.5-0.6,0.6-0.9c0.2-1.4,1-2.5,2.1-3.3c0.1-0.1,0.3-0.3,0.3-0.4c0-1.7,1.4-2.5,2.4-3.5
				c0.1-0.1,0.2-0.2,0.2-0.3c0.6-2.5,1-2.8,3.6-2.8c0.1,0,0.2,0,0.4,0c0,0.1-0.1,0.3-0.1,0.3c0.8,1.8,0.7,2.1-0.9,3.3
				c-0.3,0.2-0.4,0.6-0.6,1c-0.3,0.6-0.5,1.2-0.9,1.7c-0.9,1-2,1.9-2.3,3.3c-0.4,1.7-2.3,2.4-2.8,4.2c-0.4,1.4-1.6,2.5-2.5,3.7
				c-1.5,2.1-2.3,4.7-4.5,6.4c-0.2,0.1-0.1,0.6-0.1,0.9c0.2,2.5,1,4.9,0.2,7.4c-0.1,0.2,0.1,0.4,0.2,0.6c0.2,0.4,0.6,0.9,0.7,1.3
				c0.2,1.4,0.4,2.8,0.4,4.3c0,2.7-0.2,5.3-0.4,8c1.6-0.3,0.9-2.6,2.3-2.3c0.8-1.3,1.4-2.4,2.1-3.5c0.4-0.6,0.8-1.2,1.3-1.7
				c0.4-0.5,0.8-1,1.2-1.5c0.5-0.6,1.2-1,1.4-1.7c0.5-1.5,1.8-2.1,2.7-3.1c0.7-0.8,1.8-1.5,2.2-2.4c0.7-1.9,2-3.3,3.5-4.4
				c0.5-0.4,1.2-0.6,1.1-1.5c0-0.2,0.3-0.5,0.5-0.7c1-1.2,2-2.5,3-3.7c0.8-0.9,1.6-1.8,2.4-2.7c0.4-0.5,1.1-0.9,1.2-1.4
				c0.2-1.5,0.1-3,0.1-4.4c0-1.2-0.2-2.3-0.1-3.5c0.2-1.4,1.6-2.1,2.6-1.4c0.8,0.5,1.2,1.3,1.1,2.3c-0.1,1.3,0,2.7,0,4
				c0,0.5-0.2,0.9-0.2,1.4c-0.1,0.8-0.4,1.7-0.3,2.4c0.2,1.2,0.7,2.2,0.5,3.5c-0.1,0.4,0.2,0.8,0.2,1.1c0.3,1.4,0.7,2.7,0.7,4.1
				c0,1.4,1.2,2.6,0.7,4.1c0,0.1,0.2,0.4,0.3,0.5c1,0.6,1,1.7,1.1,2.7c0.1,0.8,0.4,1.6,0.5,2.5c0.2,1.3,0.5,2.5,0.3,3.8
				c-0.2,1.3-0.3,2.4,0.2,3.6c0.3,0.8,0.3,1.8,0.4,2.7c0,0.6-0.3,1.4-0.2,1.9c0.5,1.9-0.4,3.5-1,4.6c0,2,0,3.5,0,5.1
				c0.8-0.4,1.4-1,2.1-1c1.7-0.2,3.5-0.1,5.2-0.1c1.6,0,3.2,0,4.9,0c-0.3-2.2,0-3.1,1-4.1c-0.2-0.3-0.5-0.5-0.6-0.8
				c-0.2-1-0.3-1.9-0.4-2.9c-0.1-1.5-0.5-3.1-0.1-4.5c0.6-2.2,0.1-4.4,0.5-6.5c0.2-1.2,0.1-2.4,0.2-3.7c0.1-1.6,0.8-3.3,0.5-4.8
				c-0.4-2,1.1-3.8,0-5.7c0-0.1,0.1-0.2,0.1-0.3c0.8-0.9,0.4-1.9,0.2-2.8c-0.1-0.3-0.2-0.6-0.1-0.8c1.2-1.7,0.4-3.5,0.3-5.3
				c0-1.7,0.7-3.3,0.2-5.1c-0.4-1.4,0-3,0-4.5c0-1.5,0.3-2.8-0.4-4.4c-0.8-1.7-1-3.7-1.4-5.6c-0.1-0.7-0.2-1.4-0.3-2.1
				c-0.1-1-0.4-1.9-0.5-2.8c0-0.6,0.2-1.2,0.4-2c-2.6,0.6-5.1,1.2-7.5,1.8c0.5,1.8,1,3.5,1.4,5.3c0.4,1.7-0.1,2.5-1.8,2.9
				c-0.2,0.1-0.5,0.1-0.7,0.2c-1.5,0.8-2.9,0-4.1-0.6c-1.3-0.6-2.2-2.1-3.3-3.2c-0.4-0.4-0.8-1.3-0.9-1.3c-1.5-0.7-1.6-2.6-3-3.4
				c-0.8,1.3-2.6,1.7-3,3.4c0,0,0,0.1-0.1,0.1c-0.9,1.2-2.5,1.8-2.5,3.6c0,0.2-0.2,0.3-0.3,0.5c-0.5,0.8-1.1,1.5-1.5,2.3
				c-0.7,1.2-1.7,1.8-3.2,1.7c-1.6-1.2-1.6-2.1-0.1-3.3c0.1-0.1,0.3-0.2,0.3-0.3c0.6-1,1.2-2.1,1.8-3.1c0.1-0.1,0.2-0.2,0.3-0.2
				c1.6-0.3,1.8-1.9,2.5-3c0.6-0.9,1.5-1.4,2-2.4c0.6-1.2,1.7-2.1,2.6-3.2c-0.9-1.2-1.4-2.6-1.6-4.3c-0.2-1.5-1-2.9-1.3-4.4
				c-0.2-1,0-2.1,0-3.1c0-0.4-0.3-0.8-0.4-1.2c-0.2-0.5-0.4-0.9-0.4-1.4c-0.1-0.6-0.1-1.2-0.2-1.8c-0.2-1-0.3-2-0.1-3.1
				c0.2-0.9-0.4-2-0.5-3c-0.2-1.6-0.5-3.2-0.6-4.9c0-2.1,0.2-4.1,0.2-6.2c0-2.2-0.2-4.3-0.3-6.5c0-2.8,0.3-5.6,0-8.3
				c-0.2-1.7,0-3.4,0.1-5.1c0.1-2.2,0.2-4.4,0.4-6.6c0.2-1.9,0.6-3.7,0.8-5.6c0.2-1.8,0.1-3.5,0.3-5.3c0.2-1.6,0.5-3.2,0.8-4.8
				c0.3-1.4,0.7-2.9,1-4.3c0.1-0.6,0-1.2,0.1-1.7c0.2-0.7,0.7-1.3,1.1-2.1c-0.5-1.3,0-2.6,1-3.7c0.2-0.2,0.5-0.6,0.4-0.9
				c-0.3-1.3,0.4-2.1,1.2-2.8c0.1-0.1,0.4-0.2,0.4-0.3c0.6-1.4,1.2-2.7,1.8-4.1c0.3-0.8,0.6-1.5,1.5-1.8c0.1,0,0.3-0.2,0.3-0.3
				c1.4-3.1,3-5.9,6-7.8c0.1-0.1,0.3-0.2,0.3-0.2c0-2.4,2.3-2.7,3.6-3.9c0.4-0.4,0.9-0.9,1.4-1.3c1.8-1.5,3.8-2.5,6-3.2
				c0.7-0.2,1.3-0.6,2-0.9c0.1,0,0.2-0.1,0.3-0.1c3.1-0.6,6.2-1.2,9.3-1.7c1.8-0.3,3.6-0.3,5.4-0.2c2.8,0.2,5.6,0.5,8.4,0.8
				c0.1,0,0.2,0.1,0.3,0.1c1.8,1.9,4.6,1.5,6.5,3.1c1.4,1.2,3.1,2.2,4.7,3.2c0.4,0.3,1,0.5,1.4,0.9c0.9,0.8,1.3,1.9,1.2,3.2
				c0.4-0.1,0.7-0.2,1.2-0.4c0.3,0.7,0.5,1.5,0.9,2.2c0.3,0.6,0.9,1.1,1.3,1.6c1.5,1.5,1.9,3.5,2.9,5.2c0.5,0.9,0.9,1.8,1.3,2.8
				c0.7,1.8,1.3,3.5,1.9,5.3c0.2,0.6,0.4,1.2,0.6,1.8c0.1,0.2,0.2,0.6,0.1,0.8c-1.1,1.6,0.7,2.4,1,3.7c0,0.1,0.3,0.3,0.3,0.4
				c-0.5,1.3,0.5,2.2,1.1,3.1c0.8,1.1,0.7,2.3,0.7,3.6c0,0.6,0.5,1.1,0.6,1.7c0.4,2.2,0.8,4.3,0.8,6.5c0.1,2.9,0.5,5.8,0.7,8.7
				c0.1,2,0.2,4,0.3,6c0,1.5,0,3.1-0.1,4.6c0,0.6-0.2,1.1-0.3,1.7c-0.1,0.5-0.1,1.1-0.2,1.7c0,0.3,0,0.6,0,0.8c-0.7,3-1,6-1.2,9.1
				c-0.1,1.5-0.5,3-0.7,4.4c0,0.3,0.1,0.7,0.2,1c0.2,0.9,0,1.7-0.8,2.3c0.5,1.1,1,2,0.5,3.4c-0.4,1.1,0.2,2.4,0,3.6
				c-0.2,1.4,0.5,3.2-1.3,4.2c1,0.8,1.4,1.5,1,2.8c-0.3,1.1,0.5,2.5,0.8,3.8c0.1,0.5,0.2,1,0.2,1.6c0,0.4-0.2,0.7-0.3,1.1
				c1.5,0.9,3.5,1,4,3.1c1.7,0,3,0.6,4.1,2.1c1,1.3,2.3,2.3,3.5,3.5c0.8,0.8,1.6,1.6,2.3,2.5c0.3,0.3,0.2,0.9,0.4,1.3
				c0.9,2,1.7,3.9,2.7,5.8c0.8,1.5,1,3.1,0.2,4.1c0.7,0.7,1.1,2.6,0.7,3.5c-0.1,0.1-0.1,0.3,0,0.5c0.1,0.9,0.2,1.7,0.4,2.6
				c0.1,0.6,0.2,1.2,0.3,1.9c0.1,1.4,0.3,2.7,0.4,4.1c0.1,1.7,0.1,3.4,0.1,5.2c0,0.2,0,0.4-0.1,0.6c-1.1,2.4-0.4,5-0.9,7.4
				c-0.2,0.7-0.5,1.3-0.7,2c-0.2,0.9-0.4,1.9-0.6,2.9c-0.2,0.7-0.4,1.3-0.6,2c-0.1,0.2-0.3,0.4-0.3,0.6c0,1.7-1.2,1-2.3,1.2
				c0.4-0.4,0.6-0.6,0.7-0.8c-1.2-0.8-1.4-2.6-0.8-4.1c0.4-1.1,1-2.2,0.7-3.5c-0.1-0.5,0.2-1.2,0.3-1.7c0.1-0.8,0.3-1.6,0.4-2.5
				c0.2-0.9,0.3-1.8,0.5-2.9c-0.1-2.2-0.2-4.7-0.3-7.2c-0.1-2.5-0.1-5-0.1-7.7c-1.4-1.1,0.2-2.4,0.2-3.7c-1.2-0.4-1-1.7-1.4-2.6
				c-0.3-0.9-0.5-1.8-0.7-2.7c-0.1-0.3-0.2-0.7-0.1-1c0.2-1-0.6-1.4-1.2-2c-0.3-0.3-0.7-0.4-1-0.7c-2.2-2.2-4.3-4.4-6.5-6.7
				c-0.3-0.3-0.5-0.7-0.8-1c-0.4-0.4-0.7-0.8-1.2-1.1c-1.6-0.7-3.3-1.5-5-2c-0.7-0.2-1.7-0.4-2.2-0.1c-1.7,1.3-3.6,0.8-5.4,0.8
				c-1.2,0-2.5-0.4-3.8-0.6c-0.6,1.4-1.1,3.1-1.9,4.6c-0.8,1.8-1.4,3.9-3.7,4.4c0.1,1.9-2.2,4.8-3.7,5.1c-0.6,0.8-0.9,1.3-1.4,1.8
				c-0.8,0.8-1.7,1.5-2.6,2.2c-0.6,0.5-1.2,1-1.9,1.3c-0.7,0.4-1.1,0.8-1.2,1.7c-0.1,2.3-0.5,4.6-0.6,6.9c-0.1,1.5,0.3,2.9,0.4,4.4
				c0.1,1.5,0,3,0,4.5c-0.1,1.9-0.2,3.9-0.3,5.8c-0.1,1.7-0.2,3.3-0.3,5c-0.2,2.4-0.5,4.8-0.8,7.1c-0.1,1.1-0.5,2.2-0.8,3.2
				c0,0.1-0.1,0.3-0.1,0.4c0.5,1.6-0.1,3-0.5,4.5c-0.2,0.6,0.1,1.3,0,2c-0.1,1.3-0.1,2.5-0.3,3.8c-0.2,1.3-0.5,2.6-0.7,3.6
				c1.6,0.1,3.3,0.4,4.9,0.4c0.9,0,1.8-0.1,2.7-0.3c0.7-0.2,1.3-0.3,1.9,0.1c0.1,0.1,0.3,0,0.5,0c0.8,0,1.7-0.1,2.5-0.2
				c1-0.1,2-0.2,3-0.3c0.2,0,0.4-0.2,0.5-0.2c1.4,0.9,3,0.2,4.6,0.7c0-0.6,0-1.2,0-1.8c0-0.3,0-0.5,0-0.8c0.7-2.2,1.5-4.3,2.2-6.5
				c0.1-0.3,0.3-0.7,0.2-1c-0.4-1.8,0.3-3.5,1.1-4.9c0.6-1,0.4-2.1,0.7-3.1c0.5-1.8,0.9-3.6,1.3-5.4c0.2-0.9,0.3-1.9,0.5-2.8
				c0.1-0.4,0.3-0.8,0.5-1.2c0.1-0.4,0.4-0.8,0.4-1.2c0.1-1.5,0-3.1,1.6-3.9c-0.2-1.3-0.5-2.4,0.4-3.6c0.3-0.3-0.3-1.2-0.1-1.8
				c0.9-2.6,0.4-5.5,1.4-8.1c0.6-1.6,0.5-3.5,1-5.2c0.6-2.1,1.4-4.2,2.2-6.3c0.2-0.5,0.4-0.9,0.6-1.4c0.4-0.6,0.9-1,1.6-0.6
				c0.4,0.2,1,0.7,1.1,1.1c0.1,0.9,0,1.9-0.3,2.7c-0.5,1.9-1,3.9-1.8,5.8c-0.7,1.9-0.6,3.9-1.2,5.7c-0.5,1.4-0.8,2.9-1.1,4.3
				c-0.2,0.9,0.1,1.9-0.3,2.7c-0.5,1.1-0.2,2.2-0.5,3.2c-0.1,0.5-0.4,1-0.7,1.7c0.7,0.7,0.5,1.7-0.1,2.6c-0.8,1.2-1,2.4-1.1,3.8
				c-0.1,1.5-0.5,3-0.8,4.5c-0.2,1-0.3,2-0.6,2.9c-0.6,1.6-1.2,3.3-1.9,4.9c-0.1,0.2,0,0.5-0.1,0.8c-0.2,0.8-0.5,1.6-0.7,2.4
				c-0.2,1-0.9,1.9-0.8,3.1c0.1,1.1-0.4,2.3-0.8,3.4c-0.3,1.2-0.8,2.3-1,3.4c-0.1,0.2,0.4,0.7,0.7,0.9c0.5,0.3,1.1,0.3,1.7,0.5
				c1.5,0.4,2.9,0.9,4.4,1.3c0.3,0.1,0.7,0.1,0.8,0.3c0.9,1.8,2.9,1.5,4.4,2.3c0.8,0.4,1.3,1.1,1.1,1.9c-0.1,0.5-0.7,1-1.1,1.4
				c-0.1,0.1-0.3,0.2-0.4,0.2c-1.6-0.5-3.3-0.7-4-2.2c-1.8-0.6-3.4-1.1-5-1.6c-0.3-0.1-0.5-0.1-0.8-0.2c-1.1-0.3-2.2-0.6-3.4-0.8
				c-0.2-0.1-0.4-0.2-0.7-0.2c-2.2-0.2-4.3-0.5-6.5-0.6c-1.1-0.1-2.2,0.2-3.3,0.3c-0.2,0-0.4,0.1-0.6,0c-1.4-0.9-2.8,0.1-4.3,0.1
				c-1,0-2.1-0.2-2.4-1.4c-0.3,1.3-1.1,1.7-2.3,1.9c-1.1,0.2-2.1,0.1-3.2-0.3c-0.6-0.2-1.5-0.2-2,0.1c-1.6,1.2-3.4,0.9-5.2,1
				c-0.6,0-1.1,0.1-1.7,0.2c-0.5,0-1.2,0.2-1.5,0c-0.8-0.6-1.5-0.1-2.2,0.1c-0.5,0.1-1.1,0-1.7,0.1c-1.1,0.1-2.2,0-3.2,0.3
				c-1.8,0.6-3.7,0.6-5.6,0.5c-0.6,0-1.2,0.3-1.8,0.3c-1.4,0-2.8-0.2-4.2-0.3c-0.8,0.9-1.4,1.8-1.4,3.2c0,1.1-0.7,2.1-1,3.2
				c-0.1,0.3-0.2,0.7-0.2,1c0,0.8,0,1.7-0.2,2.6c0.3,0.9,0.7,1.2,1.9,0.6c0.9-0.4,2.2,0.1,3.3,0.2c0.5,0.1,1.1,0.4,1.6,0.4
				c2.3-0.2,3.4,1.5,4.7,3c0,0,0,0.1,0,0.1c-0.2,2,1.1,1.4,2.2,1.4c1.1,0,2.1,0.3,3.2,0.4c1.2,0.1,2.5,0,3.7,0.1
				c1.9,0.3,3.8,0,5.7,0.2c1.7,0.2,3.3,0.2,5,0.6c0.2,0,0.4-0.1,0.6-0.2c1.1-0.6,2.1-0.4,3.2,0c0.5,0.2,1.2,0,1.7-0.1
				c1.2-0.3,2.2,0,3.1,0.6c0.5-0.2,0.9-0.6,1.3-0.6c1.1,0,2.2,0.3,3.3,0.3c1,0.1,2.2,0.2,3.1-0.1c1.3-0.4,2.4-0.6,3.7-0.3
				c0.8,0.2,1.8-0.2,2.7-0.3c1-0.1,2.1-0.1,3.1-0.2c1.7-0.2,3.5-0.1,5.1-0.7c3.2-1.2,6.5-2.4,8-5.9c1.8-1.4,1.6-3.9,3.1-5.5
				c0,0,0.1-0.1,0.1-0.1c-0.7-1.8,1.5-3.1,0.9-4.9c-0.1-0.4,0-1.1,0.3-1.4c1-1.1,0.7-2.5,1.1-3.8c0.5-1.7,0.5-3.6,0.9-5.3
				c0.4-1.6,1.1-3.1,1.7-4.7c0.1-0.1,0.1-0.3,0.1-0.4c-0.5-1.5,0.1-2.9,0.6-4.3c0.2-0.6,0.2-1.3,0.4-2c0.2-1,1.2-1.6,2.2-1.3
				c0.9,0.2,1.5,1.3,1.3,2.3c-0.4,1.5-0.4,3.2-1.1,4.5c-1.1,2.1-0.4,4.4-1.3,6.4c-0.2,0.5-0.5,1-0.6,1.6c-0.1,0.5,0,1.1-0.1,1.6
				c-0.6,1.6-0.1,3.5-1.2,5c-0.2,0.3-0.3,0.7-0.3,1.1c-0.1,1.5-1.2,2.8-0.7,4.4c0.1,0.2-0.1,0.7-0.3,0.8c-1.5,1.1-1.3,2.8-1.6,4.4
				c-0.1,0.7-0.6,1.4-1,2.1c-0.6,1-1.2,1.9-1.8,2.9c1.4,0.1,2.9,0.3,4.4,0.5c1.8,0.2,3.6,0,5.3,0.7c0.7,0.3,1.7-0.1,2.6-0.1
				c0.7,0,1.5,0.2,2.2,0.3c0.4,0.1,0.8,0.2,1.2,0.2c1,0,1.9,0,2.9,0.1c1.3,0,2.6,0.1,4,0.2c1.8,0.2,3.6,0.4,5.3,0.6
				c0.3,0,0.7,0.2,0.9,0c1.3-0.7,2.4,0,3.7,0.1c0.4,0.1,0.9,0.1,1.3,0.1c1.9-0.2,2.3,0,3.2,1.7c0.1-0.4,0.2-0.7,0.3-1.2
				c1.4-0.1,2.8-0.3,4.3-0.4c1,0,1.8,0.5,2,1.6c0.2,0.9-0.2,1.6-1.1,2c-0.1,0.1-0.3,0.2-0.4,0.2c-1.5-0.2-2.9-0.4-4.3-0.6
				c-0.2,0-0.5-0.1-0.5-0.2c-0.2-1.3-0.4-1.1-1.1-0.2c-0.3,0.4-1.2,0.8-1.6,0.7c-1.7-0.6-3.4,0.4-5.1,0c-2-0.4-4-0.6-6-0.9
				c-0.3,0-0.7,0.1-1,0.1c-2.1-0.1-4.2-0.1-6.4-0.3c-0.8-0.1-1.6-0.4-2.4,0.1c-0.1,0.1-0.4-0.1-0.7-0.1c-0.3-0.1-0.5-0.3-0.8-0.3
				c-2.1,0-4.3,0.1-6.4-0.1c-2.1-0.1-4.2-0.7-6.3-0.7c-1.4,0-2.8-0.8-4.3,0.1c-1,0.6-2.1,1.5-3.2,1.5c-2.1,0-3.6,1.7-6,1.4
				c-3-0.4-6,0.3-9.1,0.4c-0.7,0-1.5-0.1-2.2-0.1c-1.4,0.1-2.8,0.2-4.2,0.3c-0.6,0-1.4,0.1-1.9-0.2c-1-0.6-1.7-0.3-2.5,0.2
				c-0.2,0.1-0.5,0.2-0.7,0.1c-1.8-1-3.7-0.2-5.5-0.2c-0.5,0-1-0.3-1.8-0.5c-0.1,0-0.5,0.3-0.9,0.3c-1.6,0-3.2-0.1-4.8-0.2
				c-1.6-0.1-3.3-0.2-4.9-0.2c-0.8,0-1.5,0.1-2.3,0c-1.7-0.1-3.5-0.4-5.2-0.5c-0.7-0.1-1.1,0.4-1.6,0.8c-1.7,1.2-3.4,2.8-5.7,2.9
				c-0.1,0-0.2,0.1-0.4,0.2c-1,0-2.1,0-3.1,0c-0.3-0.1-0.7-0.2-1-0.2c-1.3-0.1-2.7,0-4-0.3c-1.7-0.4-3.4-0.5-5.2-0.4
				c-0.7,0-1.4-0.1-2.1-0.1c-1.5,0-2.8-1.1-4.4-0.4c-0.4,0.2-1,0.2-1.5,0.1c-1.5,0-3-0.1-4.4-0.1c-2.5,0-5-0.8-7.6-0.2
				c-0.2,0.1-0.6,0-0.8-0.2c-0.9-0.7-1.8-0.5-2.7-0.2c-0.5,0.1-1,0.2-1.5,0.2c-1.5-0.2-2.9-0.7-4.4-0.1c-0.2,0.1-0.4,0-0.6,0
				c-1.8-0.2-3.6-0.6-5.4-0.7c-1.2-0.1-2.4,0.3-3.6,0.2c-2.1-0.2-4.2-0.6-6.4-0.9c-0.2,0-0.3,0-0.5,0c-0.7,0.1-1.4,0.1-2.4,0.2
				c-0.6,0-1.7,0.2-2.5,0c-1.3-0.4-2.3-0.8-3.7-0.1c-0.7,0.3-1.9-0.5-3-0.8c-1.7,1.3-1.6,0.9-2.5-0.2c-1,0.7-2,0.9-3.1,0.3
				c-0.1-0.1-0.4-0.1-0.4,0c-0.8,0.8-1.5,0.3-2.3,0c-0.2-0.1-0.6-0.2-0.6-0.2c-0.9,1.1-1.4,0.3-2-0.3c-1.4,0.8-8.7,0.4-9.6-0.5
				c-0.9,1-3.3,1-4.3-0.1c-1.3,0.8-2.8,0.8-4-0.1c-0.2-0.1-0.3-0.3-0.5-0.3c-1.4,0-2.7-0.1-4.1,0c-1.3,0.1-2.5-0.4-3.5-1.2
				c-0.8-0.6-1.7-1.3-2.3-2.2c-0.8-1.1-1.6-2.3-2.1-3.6c-0.4-1.1-0.2-2.4-0.3-3.6c0-0.2-0.2-0.4-0.3-0.6c-0.2-0.5-0.6-0.9-0.7-1.4
				c-0.3-1.5-0.5-3-0.8-4.5c-0.3-1.8-0.3-3.6-0.2-5.5c0-1.7,0.9-3.7-0.5-5.3c-0.2-0.3-0.1-0.8-0.1-1.3c-0.3-1.4,0.4-2.8-0.6-4.1
				c-0.2-0.2-0.2-0.6-0.2-0.9c0-0.9,0-1.8-0.1-2.6c-0.3-2.1-0.7-4.1-1-6.2c-0.3-2.6-0.6-5.1-0.8-7.7c-0.1-0.8-0.1-1.6-0.3-2.4
				c-0.2-1.3-0.6-2.5-0.7-3.8c-0.2-2.1-0.4-4.1-0.5-6.2c0-0.6,0.1-1.2,0.2-1.8c0.2-1-0.5-2.1,0.3-3c-0.1,0-0.2-0.1-0.2-0.1
				c-0.2-0.6-0.5-1.2-0.7-1.8c-0.1-0.4-0.2-0.9-0.3-1.4C116.8,446.7,116.8,446.1,116.8,445.5z M276,362.1c0.3,0.1,0.5,0.2,0.5,0.2
				c0.3-0.6,0.4-1.3,0.7-1.3c1.2-0.2,2.5-0.5,3.2,0.8c0.5-0.2,0.9-0.7,1.2-0.6c1.3,0.4,2.2-0.5,3.2-0.9c0.2-0.1,0.4-0.3,0.5-0.2
				c1,0.3,1.9-0.2,2.9-0.3c1.1-0.1,3.5,0.6,4,1.6c0.7,1.4,1.8,2.7,1.7,4.4c0,0.8,0.1,1.6,0,2.4c-0.2,1.5-0.4,2.9-0.7,4.3
				c-0.4,1.9-2.1,2.9-3.2,4.4c-1.3,1.7-3.5,1.9-5.2,2.5c-1.4,0.5-1.5,1.3-1.9,2.2c-0.6,1.2-0.8,2.5-1.3,3.7
				c-0.3,0.8-0.7,1.6-1.1,2.4c-0.7,1.4-1.3,2.9-2.2,4.1c-1,1.3-2.3,2.3-3.7,3.3c-1.4,1-1.8,2.1-1.5,3.7c0.3,1.8,0.4,3.6,0.8,5.4
				c0.4,1.8,0,3.8,1.5,5.2c0.1,0.1,0,0.4,0.1,0.6c0.1,0.5,0.2,0.9,0.4,1.3c0.4,1.1,0.8,2.1,1.2,3.1c0.6,0.7,1.2,1.3,1.9,1.9
				c0.2,0.2,0.4,0.2,0.6,0.3c0.6,0.3,1.3,0.6,1.9,0.9c0.4,0.2,0.9,0.2,1.4,0.2c0.6,0.1,1.4,0,1.7,0.3c1.3,1.5,3.3,1.2,4.8,1.4
				c1.6,0.2,3.4-0.6,5-0.9c0.1-1.3,0.2-2.4,0.1-3.4c0-1-0.6-2.1-0.3-2.9c0.4-1.3,0.2-2.3,0-3.6c-0.3-1.7-0.2-3.4,0.1-5.1
				c0.3-1.4-0.5-3,0.7-4.3c0,0,0-0.2,0-0.3c-0.4-1.1-0.5-2.2,0.2-3.2c0.2-0.3,0.4-0.8,0.2-1c-0.9-1.2-0.2-2.5-0.2-3.7
				c0.1-1.1,0.3-2.3,0.5-3.4c0.2-0.9,1-1.7,0.2-2.8c-0.2-0.2,0.1-0.7,0.2-1.1c0.1-0.7,0.4-1.3,0.4-2c0.1-1.2,0.2-2.3,0.2-3.5
				c0-0.7,0-1.3,0-2c0-1.3,0-2.5,0.1-3.8c0.1-1.3,0.4-2.5,0.3-3.8c-0.2-3.1-0.6-6.2-0.9-9.2c-0.2-1.8-0.2-3.7-0.4-5.5
				c-0.2-2-1-3.9-0.9-5.8c0.1-1.6-1-2.5-1.5-3.7c-0.2-0.5-0.6-1.1-0.7-1.8c0-0.6,0.1-1.2-0.7-1.6c-0.2-0.1-0.3-0.6-0.4-1
				c-0.6-1.8-1-3.7-1.7-5.5c-1.2-2.8-2.7-5.5-4.1-8.3c-0.4-0.7-0.7-1.5-1.1-2.2c-0.6-1-1.3-2-2-3.1c-0.4-0.2-1.1-0.3-1.4-0.7
				c-1.3-1.5-2.7-2.8-4.5-3.6c-1.9-0.8-3.4-2.2-5.6-2.6c-2.1-0.4-4.2-0.9-6.3-1.2c-1.1-0.2-2.3-0.3-3.4-0.2
				c-1.8,0.1-3.7,0.3-5.5,0.4c-2.9,0.2-5.8,0.7-8.6,1.7c-1.4,0.5-2.6,1.8-4.3,1.6c-0.2,0-0.5,0.2-0.7,0.4c-1,1.2-2.6,1.7-3.4,3.1
				c-0.1,0.2-0.5,0.3-0.8,0.4c-3.1,1.3-4.4,4.2-6,6.8c-0.7,1-0.7,2.5-2,3.1c-0.1,0-0.1,0.2-0.2,0.4c-0.5,1.1-0.9,2.3-1.5,3.3
				c-0.5,0.9-1.2,1.6-1.7,2.4c-0.6,1-1,2.1-1.5,3.3c0.5,0.6-0.2,1.3-0.5,2.1c-0.4,0.8-0.8,1.6-1,2.4c-0.3,0.9-0.4,1.8-0.6,2.7
				c0,0.2,0,0.5-0.1,0.7c-0.1,0.6-0.1,1.1-0.2,1.7c-0.1,0.7-0.3,1.4-0.5,2.1c-0.1,0.4-0.2,0.7-0.2,1.1c-0.1,0.5-0.2,0.9-0.2,1.4
				c0,0.4,0,0.8,0,1.2c-0.1,1.3-0.3,2.6-0.4,3.9c-0.2,1.6-0.4,3.2-0.6,4.8c-0.1,0.5-0.1,1-0.2,1.5c-0.1,0.8-0.1,1.5-0.2,2.3
				c-0.1,0.5-0.3,1.1-0.3,1.6c-0.1,2.4-0.1,4.8-0.2,7.2c-0.1,1.2-0.3,2.3-0.1,3.6c0.2,1-0.2,2.1-0.3,3.2c0,0.1-0.1,0.3,0,0.3
				c0.9,1.6,0.1,3.4,0.4,5.1c0.3,1.5-0.2,3.2-0.1,4.8c0.1,2,0.3,3.9,0.4,5.9c0,0.6,0.1,1.3,0.1,1.9c0,0.7,0,1.4,0.1,2.2
				c0.1,1.3,0.1,2.7,0.2,4c0.2,1.8,0.6,3.7,0.9,5.5c0.1,0.4-0.1,0.9,0,1.3c0.4,1.4,0.9,2.8,1.4,4.2c0.4,1.4,0.6,2.8,1.2,4.2
				c0.9,2.4,1.5,4.9,3.1,7c0.6,0.8,0.8,2,1.6,2.8c1.2,1.2,2.2,2.7,3.7,3c-0.3-1.7-0.7-3.5-1-5.4c-0.2-1,0.1-2.1-0.2-3
				c-0.4-1.2-0.2-1.8,0.8-2.3c1-0.5,1.7-0.2,2.5,0.7c0.4,0.4,1.1,0.7,1.7,0.9c1.5,0.5,2.8-0.2,4.1-0.8c0.6-0.2,1.3-1.3,1.2-1.8
				c-0.2-0.8,0-1.3,0.5-1.7c1.5-1.5,3.1-3,4.6-4.5c0.5-0.5,1.2-1,1.5-1.6c0.4-0.9,0.5-2,0.8-3c0.2-0.6,0.6-1.1,0.9-1.7
				c0.1-0.2,0.2-0.4,0.1-0.6c-0.4-1.3,0.1-2.4,0.6-3.2c-0.2-0.8-0.4-1.4-0.4-2c0-0.9-0.6-1.4-1.4-1.7c-1.1-0.4-2.4-0.7-3.2-1.4
				c-0.9-0.9-2.1-1-3.1-1.4c-0.7-0.3-1.3-0.9-2-1.4c-0.2-0.1-0.3-0.3-0.5-0.4c-1-0.8-2.3-1.4-3.1-2.4c-1.7-2.1-3.8-3.8-5-6.3
				c-0.7-1.5-1.5-3-2.4-4.4c-0.2-0.3-0.6-0.7-0.6-1c0-1.3-0.4-2.4-0.9-3.6c-0.3-0.7-0.1-1.5-0.3-2.2c-0.4-1.5-1.1-3-1.3-4.6
				c-0.3-2.1-0.1-4.2-0.4-6.3c-0.4-2.2,1-3.6,1.9-5.1c0.9-1.4,2.4-2.4,2.8-4.2c0.2-1,1.3-1.3,2.2-1.1c0.8,0.1,1.2,0.9,1.2,1.8
				c0,0.5,0.2,1.1,0.2,1.6c0.1,0.1,0.3,0.2,0.4,0.2c1.6-1.1,3.4-2,4.9-3.2c0.9-0.8,1.8-1,2.8-0.8c0.8,0.2,1.4,1,0.9,2.2
				c2.1-1.2,4-2.2,5.8-3.2c0.7-0.4,1.8-0.9,1.8-1.3c0-1.6,1.6-1.8,2.2-3c0.3-0.6,0.9-1,1.4-1.5c0.6-0.7,1.2-1.4,1.6-2.1
				c0.5-0.9,0.8-1.8,1.2-2.8c0.5-1.3,1.1-2.6,1.5-3.9c0.5-1.5,0.9-3,1.5-4.8c0.3,0.5,0.4,0.8,0.6,0.9c1,0.7,1.6,1.7,1.9,2.9
				c0.2,0.8,0.1,1.8,0.6,2.2c1.4,1,1.4,2.8,2.3,4c0.4,0.5,0.7,1.2,1,1.8c0.3,0.6,0.4,1.3,0.7,1.9c0.6,1.2,1.2,2.5,2,3.6
				c1,1.3,2.1,2.6,3.3,3.7c1.1,1,2.5,1.7,3.8,2.5c-0.1,0.1-0.2,0.2-0.3,0.3C276.3,361.2,276.2,361.6,276,362.1
				c-0.5,0.2-1.1,0.7-1.6,0.6c-1.4-0.3-2.9-0.8-3.7-2.2c-0.1-0.2-0.3-0.4-0.5-0.6c-0.8-0.8-1.7-1.4-2.3-2.3
				c-1.3-1.8-2.5-3.7-3.7-5.6c-0.4-0.6-0.5-1.3-0.7-2c-0.4-0.9-0.8-1.8-1.3-2.7c-0.2-0.4-0.4-0.8-0.7-1.4c-1.1,2.1-2.2,4.1-3.2,6.1
				c1.1,0.2,1.9,0.4,2.8,0.4c1,0,1.7,0.5,1.7,1.4c0,0.6-0.2,1.5-0.6,1.8c-0.8,0.6-1.8,0.4-2.6-0.1c-0.2-0.1-0.4-0.3-0.6-0.3
				c-1,0.2-1.8,0.1-2.3-0.6c-1.8,0.1-2.1,2.5-4,2.5c-0.1,0-0.1,0.4-0.3,0.5c-0.7,0.8-1.4,1.7-2.2,2.4c-0.7,0.6-1.8,0.8-2.5,1.4
				c-1.1,1-2.4,1.4-3.9,1.7c-1.2,0.2-2.1-0.2-2.9-1c-0.4,0.3-0.8,0.7-1.3,1c-1.5,0.7-2.8,1.5-4.7,1.5c-1.1,0-2,0.2-2.9-0.8
				c-0.7,1-1.4,1.9-2,2.8c-0.3,0.4-0.2,1.1-0.2,1.6c0,1,0.3,2,0.2,2.9c-0.3,2.8,0.9,5.4,1.3,8.1c0.1,1,0.3,1.9,0.5,3
				c0.4,0.7,1,1.6,1.5,2.5c0.7,1.5,1.1,3.2,2.1,4.5c1.5,2,3.2,3.8,5,5.6c1.9,1.9,4.1,3.3,6.7,4c1,0.3,1.9,0.9,2.9,1.3
				c1.3,0.5,2,1.4,2.9,2.4c1.4,1.6,1.7,3.7,0.6,5.2c0.7,1.3,0.4,2.6,0.1,3.8c-0.3,1.3-1,2.6-1.2,3.9c-0.1,1.2-0.6,1.9-1.4,2.6
				c-0.6,0.6-1,1.3-1.5,1.9c-0.3,0.3-0.5,0.7-0.8,1c-1.2,0.8-1.8,2-1.9,3.4c-0.2,1.5,0,2.9-0.2,4.4c-0.3,2.5,0,5,0.6,7.5
				c0.5,1.9,1.6,3.7,1.6,5.8c0,1,0.6,1.5,1.4,1.8c1.1,0.3,2.3,0.6,3.5,0.8c0.8,0.2,1.7,0.2,2.5,0.3c0.8,0.1,1.7,0.1,2.6,0.2
				c0.3,0,0.6-0.1,0.9-0.1c1.5,0,3,0,4.4,0c0.4-1.4,0.7-2.9,1.3-4.2c0.3-0.8,0.9-1.5,1.6-2c1.8-1.1,3.6-2,5-3.5
				c0.3-0.3,0.8-0.4,1.2-0.6c0.8-2.1,1.8-4,4.3-4.8c-0.8-1.8,1.2-2.7,1.6-4.2c0.4-1.4,1.3-2.7,1.9-4.1c0.1-0.3-0.3-0.9-0.6-1.1
				c-1.2-0.8-2.6-1.4-3.8-2.2c-0.4-0.2-0.7-0.7-0.9-1.1c-0.8-1.3-1.4-2.7-2.4-3.9c-1.1-1.4-1.3-2.8-1.1-4.2c-0.3-0.3-0.6-0.6-0.7-1
				c-0.3-1.4-0.5-2.9-0.7-4.4c0-0.3,0.1-0.7,0-0.9c-0.7-1.4-0.6-2.8-0.3-4.6c-0.7,0.5-1.2,0.9-1.7,1.3c-0.5,0.4-1.1,0.7-1.6,1.1
				c-1.4,1.1-3,1.3-4.4,0.4c-0.6,2.1-2.5,1.8-4,2.1c-1.7,0.4-3.2,0.2-4.3-1.3c1.3-2.1,5.9-3.2,7.7-2.1c1.1-0.8,2-1.6,3.1-2.2
				c1.8-1.1,3.8-2,5.6-3.1c0.2-0.1,0.3-0.3,0.4-0.5c0.6-0.8,1-1.7,1.8-2.3c1.7-1.3,3.4-2.4,4.1-4.6c0.1-0.4,0.5-0.7,0.7-1.1
				c0.5-1,1.1-1.9,1.4-3c0.7-1.9,1.3-3.8,1.9-5.6c0.1-0.4,0.6-0.8,1-1c2.1-0.8,4.1-1.3,6.1-2.6c1.1-0.7,1.6-1.6,2-2.6
				c0.4-1,0.7-2.1,0.7-3.2c0-1.6-0.3-3.2-0.5-4.8c-0.2,0-0.6,0-0.8-0.1c-0.7-0.6-1.5-0.5-2.3-0.1c-0.4,0.2-0.9,0.4-1.3,0.6
				c-0.6,0.3-1.3,1-1.9,1c-1.9-0.1-3.9-0.4-5.8-0.7c-0.2,0-0.4-0.2-0.6-0.4c-0.5-0.3-1-0.7-1.5-1.1
				C275.8,362.6,275.9,362.3,276,362.1z M187.4,444.2c-1.2-0.3-2.2-0.6-3.1-0.7c-1.1-0.2-2.3-0.3-3.4-0.3c-1.3,0-2.7,0.4-4,0.2
				c-0.9-0.1-1.7-0.4-2.6,0.1c-0.1,0.1-0.4,0-0.6-0.1c-1-0.2-1.9-0.5-2.8-0.5c-1.5-0.1-3,0-4.6,0c-2.1,0-4.2,0.2-6.4,0.1
				c-1.4,0-2.8-0.4-4.1-0.4c-2.1,0-4.2,0.2-6.3-0.4c-0.4-0.1-0.9,0-1.4,0c-0.6,0-1.2,0-1.8-0.1c-0.2,0-0.5-0.2-0.7-0.2
				c-1.4,0-2.8,0.2-4.2,0c-1.9-0.3-3.7-0.6-5.5,0.2c-0.2,0.1-0.4,0-0.6,0c-1.6-0.2-3.2-0.4-4.8-0.5c-2-0.1-3.9,0.1-5.9,0.1
				c-1.1,0-3.2,1.4-3.4,2.5c-0.4,2.1-0.7,4.3-0.8,6.4c-0.1,1.2,0.5,2.4,0.6,3.6c0.1,0.6,0,1.2-0.1,1.8c0,0.2,0,0.4,0,0.6
				c0.2,1,0.4,2,0.6,2.9c0.5,2.6-0.1,5.3,0.9,7.9c0.1,0.2,0,0.4,0,0.6c0.1,1.4,0.1,2.8,0.3,4.2c0.4,2.5,0.9,5,1.2,7.4
				c0.4,3.4,0.8,6.9,1.1,10.3c0,0.3-0.2,0.7-0.1,1c0,0.7,0,1.5,0.3,2c0.6,0.9,0.8,1.6,0.5,2.7c-0.3,1.1-0.7,2.5,0.8,3.4
				c0.3,0.2,0.5,0.8,0.6,1.2c0.1,0.7,0.1,1.4,0.1,2.1c0,0.7-0.1,1.3-0.2,2.2c0.9,1,1,1.4,0.8,3.2c0,0.2,0,0.4,0,0.6
				c0.5,1.4,1,2.8,1.5,4.3c0.1,0.1,0.1,0.3,0.3,0.4c0.6,0.4,1.1,0.8,1.7,1.1c0.5,0.2,1,0.9,1.8,0.3c0.2-0.2,0.7,0,1,0.1
				c0.6,0.2,1.1,0.5,1.7,0.6c1.5,0,2.9,0.2,4.3,0.8c0.3,0.1,0.8,0.2,1,0.1c1.1-0.8,2.3-0.3,3.5-0.4c0.9-0.1,1.8-0.3,2.7-0.2
				c1.5,0.1,2.9,0.4,4.4,0.6c1.7,0.2,3.4,0.3,5.1,0.4c0.8,0,1.5,0,2.3,0.1c0.5,0,1,0.2,1.4,0.2c1.8,0,3.6-0.1,5.4,0
				c2.3,0.1,4.7,0.5,7,0.7c1.9,0.1,3.9-0.5,5.8,0.4c0.1,0,0.2,0,0.2,0c1.2-0.1,2.5-0.5,3.7,0.2c0.2,0.1,0.5-0.1,0.8-0.1
				c0.3,0,0.7-0.1,1-0.1c2,0.2,3.9,0.3,5.9,0.6c0.9,0.1,2-0.9,2.5,0.6c1-0.5,1.9-0.7,3-0.3c1.4,0.4,3,0.2,4.5,0.3
				c1.3,0.1,2.6,0.5,3.9,0.3c1.7-0.2,3.3-0.8,4.9,0.3c0.1,0.1,0.4,0.1,0.6,0c1.9-0.6,3.8,0,5.8,0c0.9,0,1.8,0.2,2.7,0.3
				c0.4,0,0.8-0.3,1.3-0.3c0.7,0,1.5,0.2,2.2,0.2c1.7-0.1,3.4,0.3,5.1,0.3c3.4-0.1,6.8,0.3,10.2,0.4c0.7,0,1.7-0.4,2-1
				c0.4-0.8,1.4-1.8,0.5-3c-0.5-0.7-1.6-1.3-2.5-1c-0.5,0.2-1.2,0.4-1.6,0.2c-1.3-0.4-2.8,0.1-3.9-1c-0.1-0.1-0.4,0.1-0.6,0
				c-1.4-0.3-2.9,0.1-4-1.1c-0.8,0.7-1.7,0.8-2.6,0.2c-0.2-0.1-0.5-0.4-0.6-0.4c-1.8,0.6-3.5,0.1-5.2-0.6c-0.3-0.1-0.7-0.2-1-0.3
				c-1.1-0.1-2.1-0.2-3.2-0.3c0-0.6,0-0.9,0-1.7c-1,1.7-2.2,1.7-3.5,1.1c-0.1,0-0.1-0.1-0.2-0.1c-2.7-0.4-5.3-0.7-8-1.1
				c0,0.2,0.1,0.5,0.1,0.9c-0.6-0.4-1.2-0.6-1.7-1c-0.8-0.6-1.7-1.2-2.5-1.8c-1.4-1.2-1-3-1.4-4.5c-0.3-1.1-0.2-2.3-0.2-3.4
				c0-1.2-0.5-2.6,1.3-3.3c-1.7-0.9-2-1.1-1.6-2.5c0.4-1.3-0.1-2.3-0.3-3.4c-0.1-0.6-0.4-1.2-0.4-1.8c-0.1-1.8,0-3.6,0-5.4
				c0-2.1-0.1-4.1-0.1-6.2c0-0.8-0.1-1.5-0.1-2.3c0-0.9,0.8-1.8-0.4-2.5c-0.2-0.1-0.1-0.8,0.1-1.1c0.7-1.2,0.1-2.4-0.2-3.4
				c-0.2-0.9-0.4-1.6,0.3-2.3c-1.2-0.9-1.1-2.2-1-3.4c0-0.3,0.1-0.6,0.1-0.9c-0.2-1.4-0.4-2.8-0.6-4.3c-0.3-2,0.6-4.1-0.4-6.1
				c-0.1-0.2-0.1-0.5,0-0.7c0.7-0.9,0.1-1.5-0.2-2.3c-0.2-0.6-0.3-1.3-0.7-1.6c-0.7-0.7-1.5-1.6-2.4-1.8
				C188.9,445.3,187.8,445.1,187.4,444.2z M260,495.8c0.2-0.8,0.5-1.8,0.6-2.7c0.2-1.1,0.3-2.2,0.5-3.3c0.2-1.4,0.3-2.9,0.8-4.2
				c0.3-0.6,0.3-1.1,0.3-1.7c0-1.1,0.1-2.2,0.2-3.3c0-0.3,0.1-0.5,0.1-0.8c0-1,0-2,0-3c0.2-2.3,0.5-4.7,0.7-7c0.1-0.7,0.2-1.3,0.2-2
				c0.2-1.1,0.4-2.3,0.4-3.4c0.1-1.9,0-3.9,0-5.8c0-1.3,0.3-2.7,0.2-4c-0.1-2-0.4-3.9-0.5-5.8c-0.9,0-1.7,0-2.5,0
				c-1.3,0-2.6,0.2-3.8,0c-1.6-0.2-3.2-0.7-4.9-0.9c-1.4-0.1-2.7,0-3.9-1.1c0.1,0.6,0.2,1,0.1,1.4c-0.1,1.6-0.1,3.2-0.3,4.8
				c-0.3,2.1-0.1,4.2-0.3,6.2c-0.1,1.4,0.2,2.8-0.1,4.3c-0.3,1.7,0,3.4-0.2,5.1c-0.2,2.5-0.7,4.9-0.7,7.4c0,1.4,0.4,2.9-0.3,4.4
				c-0.4,0.8-0.4,1.7-0.4,2.6c0,1.7,0.2,3.3,0.2,5c0,1,0.1,2,0,2.9c0,0.6-0.3,1.1-0.4,1.7c-0.1,0.3-0.3,0.7-0.2,1
				c0.2,0.7,0.6,1.4,0.6,2.1c0.1,1.3,0.2,1.3,1.4,1.1c0.9-0.2,2.2-0.6,2.8-0.2c1.2,0.8,1.8,0.2,2.6-0.3c0.2-0.1,0.5-0.2,0.7-0.2
				C256.2,495.9,258.1,495.9,260,495.8z M200.2,496.2c1.2-2.1,3.8-1.2,5.1-3c0.1-0.1,0.4-0.2,0.6-0.2c1.4,0,2.6-1.2,4.1-0.5
				c0.1,0,0.3-0.3,0.5-0.3c1.6-0.3,3.3-1,4.7,0.1c0.9,0.7,1.8,0.8,2.7,1c1.3,0.3,2.5,0.8,3.7,1.1c1,0.2,2.2,0,2.5,1.4
				c0,0.1,0.2,0.2,0.3,0.2c1,0.4,2,0.7,2.9,1c0-0.5,0-1.1,0.2-1.7c0.3-0.7,0.9-1.3,0.6-2.3c-0.2-0.9,0.1-2,0.2-3
				c0.1-2.7-0.5-5.5,1.2-7.9c0.1-0.2,0.2-0.4,0.3-0.5c-0.1,0-0.1-0.1-0.2-0.1c-0.2,0.2-0.5,0.4-0.8,0.6c-1.1-3.2-1.7-6.5-2-10.1
				c-0.7-0.3-1.3-1-0.8-2.2c0-0.1,0-0.2-0.1-0.3c-1.1-1.2-1-2.7-1.3-4.1c-0.2-0.8-0.4-1.6-0.6-2.4c-0.6,0.6-1.3,1.1-1.9,1.7
				c-0.7,0.7-1.6,1.5-2.1,2.3c-0.8,1.3-2.3,2.1-2.6,3.7c0,0.1-0.3,0.1-0.4,0.3c-1.1,1.4-2.9,2.2-3.4,4.1c-0.1,0.5-0.6,0.9-1,1.3
				c-0.5,0.6-1.2,1.1-1.6,1.7c-1,1.4-1.9,3-3.1,4.3c-0.6,0.7-1.6,1.2-1.6,2.3c0,0.1-0.1,0.3-0.2,0.3c-2,1.2-2.5,3.8-4.7,4.9
				c-0.8,0.4-1.3,1.7-1.8,2.6C199.2,493.7,199.4,494.8,200.2,496.2z M200.3,503.3c2-1,3.8-1.9,5.6-2.8c0.5-0.3,1.1-0.4,1.7-0.6
				c1-0.4,1.9-1,2.9-1.4c1-0.3,1.6,0.2,2,1.3c0.3,1.1-0.2,1.7-1.1,2c-1.3,0.5-2.7,0.8-3.9,1.9c-0.6,0.5-1.5,1.2-2.2,1.1
				c-1.6-0.1-2.3,1.1-3.3,2c0.5,0.2,1,0.2,1.5,0.2c0.7,0,1.5-0.2,2,0.2c0.7,0.5,1,0,1.4-0.2c1.3-0.8,2.6-1.6,4-2.3
				c1.2-0.6,2.4,0,2.7,1.2c0.3,0.9-0.2,1.7-1.4,2.2c-0.2,0.1-0.3,0.2-0.2,0.1c0.7,0.6,1.5,1.2,2.1,1.6c0.8-0.1,1.6-0.4,2.4-0.3
				c1.7,0.1,3.5,0.6,5.2,0.6c1,0,1.9-0.1,2.3,0.8c0.8,0,1.4-0.1,2,0.1c1.1,0.3,2-0.1,2.1-1.2c0.2-1.4,0.5-2.9,0.7-4.3
				c0.1-0.8,0.1-1.6,0.4-2.2c0.4-1,0.2-1.8-0.8-2.2c-1.5-0.6-3-1.1-4.4-1.7c-1.5-0.6-2.8-1.5-4.3-2c-1.9-0.7-3.8-1.3-5.7-1.8
				c-1.3-0.3-2.7-0.3-4.1,0c-1.6,0.4-3.3,0.8-5,1.1c-1.1,1.6-3.3,2-5,3.2c0.1,0.5,0.2,1,0.3,1.6C200.3,502,200.3,502.6,200.3,503.3z
				"/>
			<path class="st3" d="M247.6,388.1c0.9,0.2,1.7,0.4,2.6,0.5c1.2,0.2,2.1-0.2,2.8-1.1c0.7-0.8,1.4-0.6,2-0.2c0.5,0.3,1.1,1.1,1,1.4
				c-0.3,0.8-1,1.4-1.5,2.1c-0.9,1.2-2.3,0.9-3.5,1.2c-1.7,0.5-3.5,0.1-4.8-1.2c-0.8-0.8-1.5-1.7-2.1-2.7c-0.4-0.7,0.3-1.9,1.2-2.3
				c0.9-0.4,2,0.1,2.3,1.1C247.6,387.5,247.6,387.9,247.6,388.1z"/>
			<path class="st3" d="M259.9,369.5c0,1.3-1.3,3.2-2.2,3.3c-1.8,0.1-3.3-1.4-3.3-3.5c0-1.3,1.7-3,3.1-3
				C258.6,366.3,259.9,368,259.9,369.5z"/>
			<path class="st3" d="M237.5,373.2c-2.1-0.2-2.9-1-2.9-2.9c0-1.1,0-2.1,1-2.8c0.6-0.4,1.2-1,2.1-0.5c0.9,0.5,1.7,1.1,1.6,2.2
				c-0.1,1-0.2,2-0.5,2.9C238.7,372.6,238,372.9,237.5,373.2z"/>
			<path class="st3" d="M246,377c0.9,0.2,1.9,1.2,1.7,1.9c-0.1,0.7-0.1,1.6-1.2,1.6c-1,0-2-1.2-1.9-2.5
				C244.6,377.6,245.5,377.4,246,377z"/>
		</g>
	</g>
	<g>
		<path class="st5" d="M168.3,344.7c0,0-10.2-3.3-9.5-7.9c0.7-4.6,5.5-9.4,11.6-7.8s7.7,4.4,7.3,8.5
			C177.2,341.4,175.2,345.5,168.3,344.7z"/>
		<g id="PuZpFZ.tif">
			<g>
				<path class="st3" d="M174.7,349.7c0.5,0.1,0.9,0.1,1,0.1c0.3,1.2,0.4,2.3,0.8,3.3c0.4,1.3-0.5,2.1-1.1,2.8
					c-1.2,1.4-2.8,2.1-4.7,2.1c-0.7,0-1.5,0.3-2.2,0.3c-1.8-0.2-2.4-1.6-2.7-3.1c-0.4-1.9-0.8-3.9-1.2-5.8c-0.1-0.5,0-1,0-1.5
					c0-0.4,0-0.9,0.1-1.3c0.2-0.7,0.4-1.3,0.6-2.1c0,0-0.1-0.2-0.3-0.2c-1.9,0.3-2.9-1-3.9-2.1c-0.1-0.1-0.2-0.2-0.4-0.3
					c-1.8-1.2-2.4-2.8-2-4.9c0-0.1,0.1-0.2,0.1-0.2c-1-1.4,0.3-2.6,0.4-4c0-1.2,1.3-2.2,2.5-2.2c0-0.8,0-1.4,1.1-1.6
					c0.9-0.1,1.5-1.2,2.6-0.6c0,0,0.2-0.3,0.4-0.4c0.2-0.2,0.3-0.4,0.5-0.4c2.2-0.3,4.5-0.7,6.6,0.4c1,0.6,2.2,1,3.1,1.7
					c0.7,0.5,1.3,1.2,1.7,2c0.6,1.3,1.1,2.7,1.6,4.1c0.3,1.1,0.5,2.2-0.1,3.3c-0.6,1.2-1.1,2.6-1.7,3.9c-0.1,0.2-0.3,0.6-0.5,0.6
					c-1.4,0.5-1.3,1.6-1,2.7C176.4,347.7,176,348.8,174.7,349.7z M172.1,341.3c0,0,0.2,0.4,0.4,0.4c0.5,0,1.2-0.1,1.6-0.5
					c1.5-1.4,1.8-3.3,1.7-5.3c-0.1-2.4-1.8-3.7-3.5-4.8c-1.2-0.7-2.5-1.5-4-1.1c-0.8,0.2-1.6,0.1-2.5,0.2c-0.4,0.4-0.9,0.9-1.5,1.3
					c-0.6,0.4-1.4,0.5-1.8,1c-1.8,2.1-2.3,4.3-0.8,6.8c0.6,1,1.2,1.5,2.5,1.5c-1.1-2,0.7-3,1.6-3.7c1.2-1,3-1.3,4.6,0
					c0.4,0.3,1,0.5,1.5,0.6c0.9,0.2,1.9,0.7,1.8,1.7C173.6,340,172.8,340.5,172.1,341.3z M167.3,346.9c0.1,0.5,0.2,0.9,0.3,1.1
					c1.7-0.1,3.2-0.2,4.9-0.4c-0.1-0.6-0.2-1.2-0.3-1.5C170.5,346.4,169,346.6,167.3,346.9z M168.1,350.4c0.2,1.3,1.1,1.3,1.7,1.1
					c1.4-0.6,2.6-0.5,3.9,0.5c-0.1-1-0.1-1.8-0.2-2.6C171.9,350.5,170.1,351,168.1,350.4z M168.1,339.1c-0.2-0.1-0.3-0.1-0.5-0.2
					c-0.3,0.5-0.8,1-0.8,1.5c0,0.9,0.7,1.4,1.8,1.4C168.3,340.9,168.2,340,168.1,339.1z M173.2,352c-0.5,0.8-0.8,1.4-1.2,2.1
					c0.1,0.1,0.3,0.2,0.4,0.2C172.2,353.4,174.2,353.5,173.2,352z M168.9,354.1c0,0.1,0,0.3,0,0.4c0.9-0.1,1.7-0.1,2.6-0.2
					c0-0.1,0-0.3,0-0.4C170.6,354,169.8,354.1,168.9,354.1z"/>
				<path class="st3" d="M153.7,319.3c1.2,1,2.3,1.7,3.3,2.6c0.4,0.4,0.7,0.9,0.9,1.4c0.1,0.2,0.1,0.8-0.1,0.9
					c-0.5,0.4-1.2,1-1.6,0.9c-1.1-0.4-2.2-1-3-1.8c-0.6-0.6-0.8-1.7-0.9-2.7C152.3,320.2,153.1,319.8,153.7,319.3z"/>
				<path class="st3" d="M163.7,316.4c-0.4-0.5-1.1-1-1.1-1.4c0-0.7,0.3-1.5,0.7-2c0.2-0.3,1.1-0.2,1.6,0c0.6,0.3,1.2,1,0.9,1.7
					c-0.6,1.2,0.3,2.5-0.2,3.6c-0.2,0.4-0.2,0.8-0.5,1c-0.2,0.2-0.8,0.3-1,0.1C163.2,318.8,163.1,317.1,163.7,316.4z"/>
				<path class="st3" d="M161,320.4c-0.8,0.3-1.6,1-2,0.8c-0.8-0.4-2-0.5-2.1-1.9c-0.1-0.9-0.9-1.6-0.2-2.6c0.8-1.1,2.2-1,2.8,0.2
					C159.9,318,160.4,319.1,161,320.4z"/>
			</g>
		</g>
	</g>
</g>
</svg>
