<?xml version="1.0" encoding="utf-8"?>
<!-- Generator: Adobe Illustrator 25.3.1, SVG Export Plug-In . SVG Version: 6.00 Build 0)  -->
<svg version="1.1" id="レイヤー_1" xmlns="http://www.w3.org/2000/svg" xmlns:xlink="http://www.w3.org/1999/xlink" x="0px"
	 y="0px" viewBox="0 0 447.4 279.8" style="enable-background:new 0 0 447.4 279.8;" xml:space="preserve">
<style type="text/css">
	.st0{fill:#FFFFFF;}
	.st1{fill:#7A6150;}
	.st2{fill:#F1EBE3;}
	.st3{fill:#FFEFDA;}
	.st4{fill:#FFEBE7;}
	.st5{fill:#F2E2F1;}
</style>
<g>
	<path class="st0" d="M176.7,73.6l14.1,81l6.5,18c0,0,31.6-1,38.4-4.3c6.8-3.3,31.3-9.7,31.3-9.7l-9.6-44.6l-8.8-49.4
		c0,0-40.1,4.4-45.8,4.8C197.2,69.9,176.7,73.6,176.7,73.6z"/>
	<g id="DvJ0O0.tif">
		<g>
			<path class="st1" d="M269.3,156.7c-0.1,0.4-0.4,0.8-0.4,1.1c-0.1,1.7-1,2.3-2.6,1.9c-0.5-0.1-1.1,0.1-1.6,0.2
				c-1.8,0.5-3.6,1.1-5.3,1.7c-1.7,0.6-3.4,1.2-5.1,1.8c-0.6,0.2-1.2,0.2-1.8,0.4c-0.5,0.2-1,0.5-1.5,0.8c-0.2,0.1-0.4,0.3-0.6,0.3
				c-1.6,0.2-3.3,0.5-4.9,0.6c-0.5,0-0.9-0.4-1.5-0.6c-0.2,1.3-1.4,1.8-2.7,2.3c-1.8,0.7-3.6,0.9-5.6,1c-1.4,0-2.9,0.8-4.3,1.3
				c-0.1,0-0.2,0.1-0.2,0c-1.9-0.5-3.5,0.9-5.4,0.8c-1,0-2,0.2-3,0.3c-0.5,0-0.9-0.1-1.4,0c-0.9,0.1-1.8,0.3-2.7,0.3
				c-1.3,0.1-2.5,0.2-3.8,0.3c-1.5,0.1-2.9,0.1-4.4,0.2c-1.5,0.1-3,0.3-4.6,0.5c-0.3,0-0.8,0.1-0.9-0.1c-0.7-0.8-1.3-0.2-2-0.1
				c-1,0.3-2.1,0.3-3.2,0.4c-0.8,0.1-1.6-0.2-2.5,0.4c-0.5,0.3-1.7-0.3-2.5-0.4c-0.2-1.6,0.9-2.7,2.4-2.4c0.3,0,0.6,0.1,0.8,0
				c1.3-1.2,3.1-0.6,4.6-1.1c0.2-0.1,0.6,0.2,0.9,0.3c0.2,0.1,0.6,0.3,0.7,0.2c1.8-1,3.8-0.8,5.8-0.9c1.6-0.1,3.2-0.4,4.7-0.3
				c1.2,0.1,2.4-0.7,3.6,0.2c0.1,0.1,0.3,0,0.5-0.1c1.5-1,3.2-0.6,4.8-0.7c1-0.1,1.9-0.4,2.9-0.5c2.2-0.1,4.2-0.8,6.2-1.3
				c1.7-0.4,3.5-0.6,5.2-1c0.7-0.2,1.4-0.6,2.2-0.7c0.9-0.2,1.9-0.3,2.9-0.4c0.5,0,1.1,0.1,1.6,0.1c-0.2,0.3-0.5,0.7-0.7,1
				c0.2-0.2,0.5-0.5,0.6-0.7c0.5-1.5,1.5-2.2,3.1-2.2c1.2,0,2.3-0.4,3.5-0.9c1.6-0.8,3.5-1,5.3-1.6c1.7-0.5,3.3-1.1,4.9-1.6
				c0.7-0.2,1.4-0.4,2.1-0.5c0.7-0.1,1.5-0.2,2.6-0.4c-0.6-1.8-1.1-3.4-1.6-4.9c-0.4-1.2-0.7-2.5-0.9-3.8c-0.1-0.4,0.3-0.9,0.4-1.4
				c-1.4-0.1-1.1-1.4-1.4-2.3c-0.4-1.4-0.8-2.9-1.1-4.3c-0.3-1.5-0.5-3-0.8-4.5c0-0.2-0.1-0.5-0.2-0.7c-0.1-0.5-0.2-1-0.3-1.4
				c-0.1-0.3-0.1-0.6-0.3-0.8c-0.2-0.4-0.8-0.9-0.7-1.2c0.6-1.6-0.8-2.8-0.9-4.2c-0.1-2-1.2-3.6-1.2-5.6c0-0.2,0.2-0.4,0.3-0.6
				c0-0.4,0.2-1,0-1.1c-1.5-0.9-1.2-2.5-1.4-3.9c-0.4-2.2-0.2-4.5-1-6.5c-0.9-2.2-0.5-4.5-1.2-6.7c-0.3-0.9-0.3-1.9-0.4-2.9
				c-0.1-1.1,0.3-2.3,0.5-3.6c-1-0.6-1.4-1.7-1.2-3.2c0.1-0.8,0-1.7-0.2-2.5c-0.3-1.5-0.6-2.9-0.9-4.3c-0.3-1.6-0.5-3.2-0.7-4.8
				c-0.2-1.3,0.1-2.7-0.4-3.8c-1.1-2.4-0.7-5.1-1.7-7.5c-0.5-1.2-0.5-2.7-0.8-4c-0.1-0.3-0.3-0.6-0.4-0.8c-1.4,0.4-2.8,0.9-4.1,1.2
				c-0.3,0.1-0.6,0-0.9-0.2c-0.7-0.3-1.3-0.7-2-1c-0.1-0.1-0.4-0.1-0.5,0c-0.8,1.1-2,0.4-3,0.8c-1,0.4-2.2,0.2-3.3,0.3
				c-0.7,0-1.4,0.2-2.1,0.1c-0.7-0.1-1.3-0.3-1.8-0.4c-0.8,0.3-1.6,0.6-2.4,0.9c-0.2,0.1-0.5,0.1-0.7,0.2c-0.9,0.6-1.8,0.4-2.8-0.1
				c-0.3-0.1-0.8-0.1-1.1,0.1c-0.8,0.7-1.7,0.6-2.6,0.3c-1.2-0.4-1.4-1.9-0.3-2.6c0.9-0.6,1.8-0.9,2.9-0.3c0.2,0.1,0.5,0,0.7,0
				c0.6-0.2,1.3-0.4,1.9-0.6c1.4-0.5,2.7-0.1,4.1,0.2c0.1,0,0.3-0.1,0.5-0.2c0.4-0.2,0.8-0.5,1.2-0.4c1.2,0.2,2.4,0.1,3.5,0
				c1.2-0.1,2.3-0.1,3.5-0.2c0.3,0,0.6,0.1,0.9,0.1c0.6,0,1.2,0,1.7-0.1c0.8-0.2,1.5-0.1,2.3,0.2c1.1,0.4,2.5,0.1,3.8,0
				c0.1,0,0.2-0.3,0.3-0.4c0.2-0.9,1-1.1,1.7-1c0.5,0.1,1.3,0.6,1.4,1c0.6,1.7,1.1,3.4,1.5,5.2c0.6,2.9,1.2,5.7,1.8,8.6
				c0.6,3.2,1.6,6.5,1.6,9.7c0,2.4,1.1,4.5,1.2,6.7c0,0.4,0,0.9-0.1,1.3c-0.1,0.7-0.4,1.4-0.3,2.2c0.1-0.1,0.2-0.3,0.3-0.4
				c0.3,1.2,0.6,2.4,0.8,3.7c0.4,2.2,0.8,4.4,1,6.6c0.1,1.2,0.8,2.4,0.3,3.8c-0.3,0.9,0.5,2.1,0.8,3.2c0.3,1.1,0.8,2.2,0.9,3.3
				c0.1,0.7-0.3,1.4-0.4,2.2c-0.1,0.3-0.1,0.8,0,0.8c1.3,0.8,1.3,2.3,1.6,3.5c0.4,1.7,1,3.4,0.6,5.2c0,0.2,0.4,0.5,0.5,0.8
				c0.2,0.6,0.3,1.2,0.5,1.8c0,0.2-0.2,0.6-0.1,0.6c1.3,0.7,0.9,2.1,1.3,3.1c0.4,1.1,0.6,2.4,0.9,3.5c0.3,1,0.6,1.9,0.8,2.9
				c0.1,0.6,0.2,1.3,0.2,1.9c0,1.9,1,3.4,1.3,5.2c0.2,1.2,0.6,2.3,0.9,3.4c0.4,1.4,0.8,2.8,1.2,4.1c0,0.1,0.1,0.2,0.2,0.2
				C269.3,156.5,269.3,156.6,269.3,156.7z"/>
			<path class="st1" d="M182.2,113.3c-1.5-0.8-2-4.2-1-6.3c-1.1-0.3-1.2-1.2-1.3-2.2c-0.2-2.2-0.7-4.4-1.1-6.7
				c-0.2-1.2-0.3-2.3-0.5-3.5c-0.1-0.3-0.1-0.7-0.2-1c-0.4-1.1-0.3-2,0.8-2.4c0.4-0.2,1.1-0.3,1.4-0.1c0.5,0.3,0.9,0.9,1,1.4
				c0.4,2.1,0.7,4.2,1,6.3c0.2,1.4,0.3,2.9,0.5,4.3c0.1,0.6,0.3,1.2,0.2,1.8c-0.2,1.8,0.3,3.4,1,5.1c0.4,0.9,0,2.1,0.2,3.1
				c0.1,1,0.2,2.1,0.8,2.8c0.7,1,0.8,2,0.7,3c-0.1,1.1,0,2.1,0.4,3.2c0.6,1.5,0.6,3.2,1.1,4.7c0.4,1.3,0.2,2.6,1,3.9
				c0.6,1,0.2,2.5,0.5,3.8c0.4,1.6-0.1,3.4,1.2,4.8c0.7,0.8,0.4,1.5-0.5,2c1.3,1.8,1.5,3.9,1.8,5.9c0.2,1.4-0.1,3.1,0.6,4.1
				c1.1,1.5,0.5,3.1,1.1,4.6c0.5,1.3,1,2.7,1.3,4.1c0.3,1.3,0.3,2.7,0.5,4.1c-1.4,0.1-1.8-0.5-2.4-1.2c-1.6-2-1.6-4.5-2.3-6.8
				c-0.4-1.3-0.1-2.9-0.1-4.6c-1-0.7-1.4-1.9-1.2-3.3c0-0.1,0-0.2,0-0.3c-1.2-1.9-1.3-3.9-1-6.1c0-0.2-0.1-0.5-0.3-0.6
				c-0.9-0.7-1.1-1.6-1.1-2.6c0-0.3-0.1-0.6-0.2-0.9c-0.1-0.4-0.5-0.8-0.4-1.1c0.3-1.2-0.2-2.3-0.5-3.4c-0.6-2.2-1.1-4.5-1.6-6.8
				c-0.3-1.3-0.9-2.6-0.6-3.8c0.3-1.3-0.6-2.2-0.6-3.2C182.3,117.4,181.2,115.4,182.2,113.3z"/>
			<path class="st1" d="M188.8,70.6c1.3-0.6,2.4-1.1,3.7-1.6c-0.1,0.6-0.2,1-0.3,1.4c0.9-1.9,2.7-1.9,4.3-2.2
				c4.1-0.7,8.2-1.4,12.3-2.1c2.2-0.4,4.3-0.8,6.5-1.1c1.2-0.2,2.1,0.5,2.9,1.3c0.2,0.2,0,1.1-0.2,1.3c-1.6,0.9-3.4,1.4-5.2,1.2
				c-0.2,0-0.5-0.1-0.7,0c-1.1,0.9-2.4,0.5-3.7,0.8c-3,0.5-5.9,1.3-8.9,1.8c-1.6,0.3-3.2,0.4-4.9,0.5c-0.4,0-0.8-0.2-1.3-0.4
				c-0.5,0.2-1.1,0.5-1.8,0.9c-0.1-0.4-0.2-0.6-0.2-0.9c-0.6,0.2-1.1,0.5-1.9,0.7c0.1-0.6,0.2-1,0.3-1.3c-0.1,0-0.2-0.1-0.2-0.1
				c-0.2,0.2-0.5,0.4-0.5,0.7c-0.3,1.4-1.5,2.2-2.8,1.8c-0.6-0.2-1.1-0.3-1.7,0.3c-0.5,0.5-1.5,0.5-2.2,0.6
				c-0.9,0.2-1.8,0.3-2.7,0.4c-0.2,0-0.4,0.3-0.4,0.4c0.1,0.9,0.3,1.8,0.4,2.8c0,0.3,0,0.7,0.1,1c0.1,0.4,0.3,0.9,0.3,1.3
				c0,0.9,0,1.9-0.1,2.8c0,0.3-0.1,0.6,0,0.9c0.3,1.7,0.7,3.3,1,5c0.1,0.8-0.4,1.4-1.1,1.6c-0.8,0.1-1.7,0.3-2.1-0.8
				c-0.1-0.4-0.2-0.9-0.2-1.4c0.1-1.5-0.8-3,0-4.5c0.2-0.4-0.3-1.2-0.4-1.9c-0.2-1.2-0.4-2.5-0.5-3.8c-0.1-0.7,0-1.5,0-2.3
				c0-0.7,0.1-1.4,0-2.2c-0.1-1.1,0.7-1.5,1.5-1.7c1.4-0.4,2.9-0.6,4.3-1c0.8-0.2,1.6-0.7,2.5-0.2c0.1,0,0.3-0.2,0.4-0.3
				C186.4,69.6,188.2,69.8,188.8,70.6z"/>
			<path class="st1" d="M206.8,83.9c-0.6,0.7-1.1,1.6-1.8,2c-0.6,0.4-1.6,1.1-2.2-0.2c-1.5,2.1-3.7,1.8-5.7,2.1
				c-1.1,0.2-2.3,0.4-3.4,0.6c-0.3,0.1-0.7,0.2-0.9,0.1c-0.9-0.3-1.9,0.2-2.8-0.6c-0.7-0.7-1.1-1.5-0.2-2c0.5-0.4,1.2-0.6,1.8-0.7
				c1.3-0.2,2.7-0.3,4.1-0.5c1.4-0.2,2.8-0.6,4.2-0.8c0.7-0.1,1.4-0.2,2.4-0.4c1.3-2,2.9-0.7,4.3,0.4c0.8-1.5,1.9-1.9,3.4-2.2
				c1.8-0.4,3.6,0.1,5.4-0.8c1.3-0.7,3.2-0.5,4.8-0.6c0.5,0,1-0.1,1.4-0.1c0.8,0,1.5,0,2.3,0c0.9-0.1,1.9-0.2,2.8-0.3
				c1.4-0.2,2.7-0.4,4.1-0.6c0.6-0.1,1.3-0.2,1.9-0.3c0.6-0.1,1.2-0.3,1.8-0.4c0.2,0,0.6,0.1,0.7,0c1.6-1.3,3-0.2,4.6,0.2
				c0,1.1,0.4,2.4-1.1,2.9c-0.8,0.3-1.6,0.5-2.4,0.5c-0.9-0.1-1.5,0.1-2.3,0.4c-0.8,0.4-1.9,0.3-2.8,0.4c-1.3,0.1-2.7,0.3-4,0.4
				c-0.3,0-0.6,0.2-0.8,0.1c-1.3-0.7-2.6,0.1-3.8,0.2c-1.1,0.1-2.2,0.1-3.3,0.3c-2.3,0.3-4.5,0.8-6.8,1.1c-1.6,0.2-3.3,1.1-4.9,0.1
				C207.2,84.8,207.1,84.4,206.8,83.9z"/>
			<path class="st1" d="M239.3,95.3c-0.9,2-2.2,2.5-3.7,1.9c-0.7,0.3-1.2,0.6-1.6,0.8c-0.8,0.3-1.6,0.7-2.5,0.9
				c-2.1,0.5-4.3,1-6.4,1.3c-0.9,0.2-1.8,0-2.8,0c-0.8,0-1.7,0-2.2,0.3c-1,0.7-1.9,0.4-2.9,0.4c-1,0.1-2,0.6-3.1,0.7
				c-0.8,0.1-1.6,0-2.4-0.1c-1.7,0.7-3.4,1.5-5.5,1c-0.8-0.2-1.7-0.4-2.4,0.4c-0.2,0.2-0.6,0.3-0.8,0.4c-1.4,0.1-2.8,0.2-4.3,0.2
				c-0.1,0-0.2-0.1-0.2,0c-0.9,0.6-1.8,0.7-2.9,0.7c-1.3,0.1-1.4,0.3-2.1-0.8c-0.3,0.1-0.6,0.2-1.1,0.3c1.3-2.1,3.1-2.7,5.4-2.8
				c1.2,0,2.3-0.6,3.5-0.8c0.9-0.1,1.9,0,3,0c2.2-0.6,4.5-1.6,6.5-1.1c1.6-0.4,2.7-0.7,3.8-0.9c1.7-0.3,3.4-0.5,5.1-0.8
				c1.3-0.2,2.5-0.4,3.8-0.6c2.4-0.3,4.8-0.6,7.2-0.9c1-0.1,2-0.8,2.9-0.6c1.6,0.3,2.9-0.6,4.4-0.5
				C238.4,94.9,238.8,95.1,239.3,95.3z"/>
			<path class="st1" d="M249.3,139c-0.5,0.3-1,0.8-1.6,1c-1,0.3-2.1,0.3-3.1,0.5c-0.3,0.1-0.6,0.3-0.8,0.6c-0.6,0.8-1.3,1.1-2.3,0.9
				c-0.6-0.1-1.3,0.4-2,0.5c-2.5,0.2-4.8,1.2-7.4,0.9c-1.2-0.2-2.5,0.8-3.8,1.1c-0.6,0.2-1.2,0.1-1.8,0.1c-0.9,0.1-1.9-0.1-2.6,0.2
				c-2.4,1-5,0.9-7.5,1.2c-1.9,0.2-3.8,0.8-5.7,1.2c-0.5,0.1-1.1,0-1.6-0.3c-0.5-0.2-0.8-0.4-1.1,0.2c-0.1,0.2-1.1,0.3-1.1,0.2
				c-0.2-0.6-0.5-1.3-0.4-1.9c0-0.3,0.6-0.8,1-0.9c1.1-0.4,2.3-0.7,3.5-0.9c1.3-0.2,2.7-0.2,4-0.3c0.2,0,0.5,0.2,0.6,0.1
				c1.6-1.2,3.5-0.7,5.2-1c2.3-0.4,4.6-0.7,6.9-1.1c0.6-0.1,1.2-0.4,1.9-0.5c0.4-0.1,0.9,0.2,1.3,0.2c0.3,0,0.6,0,0.9-0.1
				c0.7-0.2,1.4-0.6,2.2-0.8c1.9-0.4,3.8-0.8,5.7-0.9c1.5-0.1,3.1,0.1,4.6,0.1c0.2,0,0.5,0,0.7-0.1c0.7-0.2,1.4-0.6,2.1-0.7
				c0.7-0.1,1.4,0.1,2.1,0.1C249.2,138.8,249.2,138.9,249.3,139z"/>
			<path class="st1" d="M245.8,134.9c-1,0.1-1.9,0.1-2.9,0.2c-0.4,0-0.9,0-1.2,0.3c-0.7,0.6-1.4,0.4-2.2,0.4c-0.3,0-0.5,0.1-0.8,0.2
				c-0.3,0.1-0.7,0.3-1,0.4c-1.7,0.2-3.4,0.3-5.1,0.5c-1.4,0.1-2.9,0.3-4.3,0.4c-0.8,0.1-1.6-0.1-2.4,0.1c-2.2,0.4-4.4,0.9-6.7,1.3
				c0,0-0.1,0.1-0.1,0c-1.5-0.8-2.8,0.5-4.3,0.5c-1.6-0.1-3.3,0.7-4.9,1.1c-0.3,0.1-0.7,0.1-1,0.2c-0.5,0.1-0.9,0.2-1.4,0.3
				c-1.1,0.3-2.2,0.7-3.2,0.7c-0.6,0-1.4-0.9-1.6-1.6c-0.2-0.8,0.5-1.2,1.3-1.4c2.7-0.6,5.3-1.4,7.9-2.1c2.3-0.5,4.5-0.8,6.8-1.3
				c1.2-0.2,2.3-0.5,3.5-0.7c0.1,0,0.2,0,0.4-0.1c2.3-0.2,4.7-0.3,7-0.5c0.9-0.1,1.8-0.2,2.7-0.3c1.3,0,2.6,0.1,4,0.1
				c1.4,0,2.7,0,4.1,0c0.8,0,1.7,0,2.5,0c0.2,0,0.4,0,0.6-0.1C244.9,132.9,245.5,133.3,245.8,134.9z"/>
			<path class="st1" d="M241.9,127.9c-1.2,1.5-4.5,1.7-5.9,0.5c-1.8,1.7-4,2.1-5.7,1.2c-0.9,0.9-1.7,1.6-3.1,1.1
				c-0.7-0.2-1.6,0.1-2.4,0.2c-1.6,0.2-3.2,0.3-4.7,0.8c-1.1,0.4-1.8,0-2.6-0.7c-0.3,1.4-1.1,1.7-2.4,1.4c-0.8-0.2-1.8,0.2-2.6,0.2
				c-0.8,0-0.9-0.8-0.6-1.2c0.4-0.7,0.8-1.6,2-1.4c0.4,0,0.8,0,1.1-0.2c0.7-0.3,1.2-0.1,1.8,0.3c0.2,0.2,0.9,0.1,1,0
				c0.5-1.2,1.8-1,2.7-1.4c0.9-0.4,2-0.3,3.1-0.4c0.6-0.1,1.3-0.2,1.9,0c1.5,0.4,3.3-1.6,4.3,0.2c0.4-0.4,0.8-0.9,1.1-1.3
				c0.2,0.1,0.3,0.3,0.5,0.4c0.2,0.3,0.4,0.6,0.7,1c0.6-1.2,1.3-1.3,2.5-0.8c0.9,0.4,2.1,0,3.1-0.1c0.5,0,1-0.1,1.5,0
				c1,0.2,1.9,0.3,2.8-0.5c0.2,0.3,0.5,0.6,0.5,0.7c0.9-0.1,1.8-0.2,2.6-0.4c0,0.1,0,0.2,0.1,0.3c0.2-0.3,0.3-0.6,0.5-0.8
				c0,0,0.1,0,0.1,0.1c-0.1,0.5-0.3,1-0.3,1.2c-0.7,0-1.2,0-1.6,0.1C243.1,128.4,242.5,129,241.9,127.9z"/>
			<path class="st1" d="M214.3,115.3c0.5,0,1.1-0.1,1.6-0.1c0.1,0.8,0.1,1.6,0.1,2.3c0,0.1-0.4,0.2-0.6,0.2c-0.1,0-0.4-0.2-0.4-0.2
				c-1.7,1.4-3.9,0.2-5.7,0.9c-0.6,0.3-1.1,0.9-1.9,0.7c0,0-0.1,0.1-0.1,0c-2.1-0.7-4.1,0.3-6.2,0.5c-1.1,0.1-2.4-0.4-3.5-0.9
				c-0.3-0.2-0.5-1.1-0.5-1.6c0-0.2,0.8-0.7,0.9-0.6c0.6,0.4,1.1,0,1.6-0.1c2-0.1,3.9,0.2,5.9,0c1.6-0.1,3.1-0.5,4.7-0.9
				c1.3-0.3,2.6-1.1,3.9,0C214.3,115.5,214.3,115.4,214.3,115.3z"/>
			<path class="st1" d="M216.3,122.5c-1,0.5-1.8,1-2.6,1.3c-0.5,0.2-1.1,0.1-1.7,0.2c-1.4,0.3-2.8,0.8-4.3,0.9
				c-1.2,0.1-2.4-0.1-3.6-0.2c-0.3,0-0.7,0.1-1,0c-0.7-0.1-1.4-0.1-2-0.4c-0.8-0.4-0.4-1.1-0.1-1.6c0.4-1,1.3-0.5,2.1-0.6
				c0.1,0,0.3,0.2,0.4,0.2c1.5-0.3,3-0.6,4.5-0.9c0.3-0.1,0.7-0.2,1-0.2c1.3,0.3,2.5-0.1,3.7-0.4c0.9-0.2,2.1,0.3,3.1,0.7
				C216,121.7,216.2,122.2,216.3,122.5z"/>
			<path class="st1" d="M203.7,112.1c0.2-1.2,0.8-1.9,2.1-1.9c1.3,0,2.7,0.2,3.9-0.1c1.4-0.5,2.8,0.1,4.1-0.1
				c0.5-0.1,1.1,0.3,1.6,0.5c0,0.1-0.1,0.2-0.1,0.4c0.5-0.2,1-0.3,1.5-0.5c0,0.2,0.1,0.3,0.1,0.3c-1.9,1-3.6,2.5-6.1,1.9
				c-0.9-0.2-2,0.4-3,0.6c-0.9,0.2-1.8,0.5-2.7,0.3C204.6,113.5,204.2,112.6,203.7,112.1L203.7,112.1z"/>
			<path class="st1" d="M203.7,112.1c-0.2,1.6-1,1.9-3,0.9c-1.3,0.9-2.8,0.8-4.2,0.6c-0.3,0-0.6-0.8-0.5-1.2c0-0.6-0.1-1.6,1.1-1.4
				c1.1,0.1,2.2,0.3,3.2,0.5c0.1,0,0.2-0.1,0.3-0.1C202.1,110.5,202.7,110.6,203.7,112.1C203.7,112.1,203.7,112.1,203.7,112.1z"/>
			<path class="st1" d="M209.9,130.6c0.9,1.7,0.4,2.6-1.5,2.8c-0.7,0.1-1.4,0.4-2.2,0.5c-0.4,0-1.1-0.1-1.2-0.4
				c-0.2-0.5-0.3-1.2-0.1-1.7c0.1-0.3,0.6-0.7,1-0.8C207.2,130.8,208.6,130.7,209.9,130.6z"/>
			<path class="st1" d="M197.8,133.7c0.3-0.4,0.6-1.2,1.1-1.4c1-0.3,2.1-0.6,3.1-0.4c0.9,0.1,1.1,1.1,1,2c-0.1,0.8-0.7,0.6-1.3,0.8
				C200.2,135,199,134.7,197.8,133.7z"/>
			<path class="st1" d="M196.7,168.1c-0.9,1-1.6,0.6-2.3-0.1c-0.7-0.7-0.8-1.9-0.3-2.6c0.5-0.7,1.5-0.5,1.9,0.4
				C196.3,166.5,196.5,167.3,196.7,168.1z"/>
		</g>
	</g>
</g>
<g>
	<path class="st2" d="M82,165.6c0,0-6.9-0.3-9.5-3.4c-2.6-3.2-5.3-8.4-5.3-8.4l-3.4-2c0,0-13.8,3.6-18.3,7.5s-11.4,18-15.3,25.9
		c-4,7.9-8,28.4-9.7,32.1s-3.2,9.8-0.9,11.4s16.4,9.2,16.4,9.2s0.8-5.3,2.1-8.7c1.3-3.4,5.5-10.3,5.5-10.3l-3.7-2.6l10-18
		c0,0,2.4,10.3,3.7,14.3c1.3,4,2.1,6.6,2.1,6.6l5.8,5.5l44.6-0.8l4.5-5c0,0,2.1-13.2,3.2-16.1s2.6-5.5,2.6-5.5l7.7,17.4l-5.3,2.4
		c0,0,5,1.8,7.1,5c2.1,3.2,3.8,11.8,3.8,11.8s9.4-1.7,11-3.6s4.2-5.5,3.7-10c-0.5-4.5-2.8-14.9-6.2-20.4c-3.3-5.5-12.3-30-15.5-33.2
		c-3.2-3.2-6.9-7.9-10.3-10c-3.4-2.1-11.4-5.3-11.4-5.3l-5-0.8l-2.9,3.4c0,0,1.1,5.8-1.1,7.9C90.1,164,82,165.6,82,165.6z"/>
	<path class="st3" d="M91.5,105.7c0,0-3.7,6.3-7.9,10.6s-7.7,6.5-8.6,6.9s0.4-6.2,0.7-6.7s-1.6,0.8-6.3,4.2s-8.7,4.8-8.7,4.8
		l-6.1,4.2l-4.2,1.6c0,0-5.3-8.7-5-13.5c0.3-4.8,0.3-19.3,4.2-24s6.9-9,11.4-10.8c4.5-1.8,10.3-5.3,13.5-6.6
		c3.2-1.3,12.1-1.3,15.3-0.5c3.2,0.8,10.6,3.4,15,7.1s10.3,13.5,11.6,17.7s2.6,5.3,1,12.1c-1.6,6.9-5.5,15.8-5.5,15.8
		s-4.4-1.3-5.1,0.2c-0.7,1.4-1.2,2.2-1.2,2.2s-5.3-6.9-8.4-11.4C93.8,115.2,91.5,105.7,91.5,105.7z"/>
	<g>
		<path class="st1" d="M19.2,225.2c-0.7-0.5-1.9-0.5-2-1.8c0-1.1-0.1-2.2-0.1-3.4c0-0.5-0.1-1,0-1.5c0.3-0.9,0.6-1.7,0.9-2.6
			c0.1-0.2,0.3-0.5,0.2-0.6c-0.7-0.8-0.1-1.4,0.2-2.1c0.7-1.4,0.7-2.9,0.9-4.4c0.4-2.2,1-4.3,1.6-6.4c0.2-0.8,0.8-1.5,1.2-2.3
			c0.5-1.3,0.9-2.6,1.4-3.9c0.4-1.2,0.9-2.3,1.5-3.4c0.7-1.4,1.5-2.7,2.2-4.2c0.3-0.6,0.2-1.4,0.5-2c0.6-1.3,1.2-2.7,1.8-4
			c0.5-1.1,0.9-2.2,1.4-3.3c0.2-0.4,0.5-0.7,0.7-1.1c0.2-0.5,0.3-1,0.5-1.4c0.3-0.6,0.6-1.1,0.9-1.8c-0.5-0.7,0.2-1.4,0.7-2.2
			c0.8-1.4,1.6-2.8,2.6-4.1c0.7-1,1.7-1.8,2.5-2.7c0.4-0.5,0.6-1.1,0.9-1.8c-0.2,0-0.5-0.1-0.7-0.2c0-0.1,0-0.2,0-0.2
			c0.4-0.1,0.7-0.2,0.8-0.2c0.4-0.6,0.7-1.1,1-1.5c0.7-0.8,1.4-1.6,2.1-2.4c0.6-0.6,0.8-1.7,2-1.4c0.1,0,0.4-0.2,0.5-0.4
			c1-1.7,2.6-2.2,4.3-2.7c0.3-0.1,0.6-0.3,0.9-0.5c0.8-0.4,1.5-0.7,2.3-1.2c0.5-0.3,0.9-0.8,1.4-1.1c1.3-0.7,2.7-1.4,4.1-1.9
			c1-0.3,2.2-0.2,3.7-0.4c-0.9-0.8-1.6-1.3-2.1-1.9c-0.8-0.9-1.6-1.8-2-2.8c-0.5-1.5-2-1.8-2.9-1.8c-1.8,0-2.6-1.3-3.8-2.1
			c-0.8-0.5-1.2-1.7-1.9-2.4c-1.1-1.1-0.9-2.3-1-3.7c-0.1-1.3,0.1-2.5,0.1-3.7c0.1-1.2,1-1.5,1.5-2.2c0,0,0.1-0.1,0.1-0.1
			c0.6-0.1,1.2-0.2,2.1-0.3c-0.4-0.6-0.8-1.2-1.2-1.7c-0.1-0.1-0.3-0.2-0.2-0.2c0.3-1.4-1.7-2.3-0.8-3.9c0.1-0.2-0.3-0.6-0.3-0.9
			c-0.3-1.9-1-3.8-0.3-5.9c0.3-0.9-0.3-1.9,0-3c0.3-0.9,0.1-1.8,0.6-2.8c0.5-0.9,0.3-2.2,0.4-3.3c0.1-0.8,0.2-1.7,0.4-2.5
			c0.2-0.8,0.9-1,1.6-0.7c0.9,0.3,1.4,1.5,1.2,2.2c-0.3,1-1,2-0.6,3.2c0.1,0.2,0.1,0.6,0,0.7c-0.9,0.8-0.1,1.8-0.4,2.6
			c-0.2,0.7-0.2,1.5-0.2,2.2c-0.1,0.7-0.5,1.4-0.1,2.2c0.2,0.4-0.1,1.1-0.1,1.7c0,0.4,0,0.8,0.1,1.1c0.2,0.7,0.4,1.4,0.6,2.3
			c0.2,0.1,0.7,0.2,1.3,0.4c-0.7,1.8-0.2,3.4,0.4,5c1.1,2.7,2.1,5.4,3.1,8.2c0.2,0.6,0.2,1.4,0,2.1c-0.1,0.6-1.9,0.8-2.3,0.3
			c-1.2-1.7-1.8-3.6-2-5.6c-0.1-0.4,0-0.9,0-1.3c-2,0.3-2.3,0.7-2.3,2.7c0,0.1,0,0.2,0,0.2c-0.5,2,0.5,3.5,2,4.6
			c0.8,0.6,1.7,1,2.5,1.4c0.1,0.1,0.5-0.2,0.6-0.3c0.9-1.1,2.1-1.1,2.8,0.1c1.2,2.1,2.3,4.3,3.5,6.4c0.3,0.5,0.9,0.8,1.4,1.3
			c0.9,0.8,1.9,1.7,2.8,2.6c1.1,1,2.1,2,3.2,3c0.2,0.2,0.5,0.2,0.7,0.3c0.3,0.1,0.6,0,0.8,0.2c1.3,1,2.8,1.1,4.2,1.4
			c1.6,0.3,3.2,0.2,4.8,0.2c1.5,0,3,0,4.5-0.3c1.2-0.2,2.3-0.9,3.3-1.5c1.4-0.8,2.8-1.7,4-2.8c1.6-1.6,3.1-3.4,4.6-5.1
			c0.9-1.1,1.8-2.2,2.5-3.2c0.5-1.1,0.8-2.1,1.2-3c0.3-0.8,0.6-1.5,1-2.2c0.3-0.7,0.7-1.4,1.1-2c0.1-0.2,0.3-0.3,0.3-0.5
			c-0.2-1.5,0.8-2.6,1.2-3.9c0.1-0.4,0.2-0.7,0.3-1.1c0.2-1.7,0.2-1.7,1.9-1.2c0.1-1.8,1.3-2.1,2.8-2.2c0.4,0,0.9-0.5,1.1-0.9
			c0.7-1.6,1.1-3.3,2-4.8c1.1-1.9,1.2-4.1,2.4-5.9c0.3-0.5,0-1.4,0.2-2c0.2-1.2,0.7-2.2,0.3-3.5c-0.4-1.5-0.2-3.2,0-4.8
			c0.1-0.7,0.6-1.5,1.5-1.2c0.8,0.2,1.7,0.2,1.6,1.6c-0.1,1.3,0.2,2.7,0.4,4c0,0.2,0.1,0.3,0.1,0.5c-1.1,2.4-0.2,5.1-1.1,7.5
			c-0.3,0.7-0.6,1.4-0.8,2c-0.8,2.1-1.6,4.3-2.5,6.4c-0.3,0.7-1,1.2-1.4,1.8c-0.3,0.5-1,1.1-0.1,1.8c0.1,0.1,0,0.5-0.1,0.6
			c-0.5,1-0.2,1.9,0,2.9c0.2,0.9,0.1,1.9-0.2,2.8c-0.5,1.6-1.1,3.4-2.4,4.5c-2,1.7-4.2,3.3-7,3.6c-0.3,0-0.7-0.1-0.9-0.1
			c-0.1,0.4,0,0.8-0.2,1.1c-0.7,1.3-1.6,2.5-2.3,3.8c-0.5,0.9-0.2,1.3,0.8,1.4c0.6,0,1.2,0.2,1.8,0.5c1.3,0.6,2.6,1.1,3.9,1.8
			c1.3,0.7,2.6,1.6,3.8,2.4c0.2,0.1,0.4,0.4,0.6,0.4c1.5-0.2,2.7,0.9,3.7,1.6c0.9,0.6,1.8,1.3,2.7,1.9c0.5,0.4,0.7,1.1,1.2,1.6
			c0.8,0.9,1.6,1.8,2.4,2.6c0.1,0.1,0.1,0.3,0.1,0.6c0.1,0,0.5,0.1,0.9,0.2c0,0.1,0,0.1,0,0.2c-0.2,0.1-0.5,0.1-0.9,0.2
			c1.4,1.7,2.7,3.4,4,5.1c0.4,0.6,0.7,1.3,1.1,1.9c0.4,0.7,1,1.4,1.3,2.1c0.3,0.6,0.3,1.2,0.6,2c0.5,0.2,0.9,0.7,0.7,1.6
			c0,0.2,0,0.5,0.1,0.7c1.2,1.5,2.1,3.1,2.6,4.9c0.4,1.4,1.5,2.6,1.7,4c0.2,1.8,1.5,2.9,1.9,4.6c0.4,1.7,1.6,3.2,2.2,4.8
			c0.6,1.4,1.6,2.8,1,4.4c-0.4,1.2,0.9,1.3,1.2,2.1c0.5,1.3,1.3,2.6,1.8,3.9c0.7,1.6,1.3,3.2,1.9,4.8c0.3,0.8,0.3,1.7,0.5,2.5
			c0.3,1.1,0.7,2.1,1,3.1c0.2,0.8,0.3,1.7,0.1,2.4c-0.2,0.8,0.2,1.5,0.1,2.2c-0.1,2.2-0.2,4.4-1.5,6.3c0.6,0.6,0.7,2.1,0.1,2.6
			c-1.3,1.1-2.5,2.2-3.9,3.2c-1.4,1-2.9,0.7-4.6,0.3c-1.6,1.2-2.7,1.4-4.1,0.4c0.1-0.3,0.2-0.6,0.3-1c-0.5,0.3-0.9,0.6-1.5,1
			c-0.1,0.8,0.3,1.9-1,2.4c0.3,1.2-0.8,1.7-1.3,2.5c-1,1.4-2.3,2.2-3.8,3.2c0.4,0.5,1,0.9,1.4,1.5c0.7,1.2,1.3,2.4,2,3.6
			c0.9,1.6,2,3.2,2.9,4.8c0.8,1.3,1.4,2.7,2.2,4c0.4,0.6,0.9,1,1.4,1.5c0.4,0.5,0.9,0.9,1.1,1.5c0.3,0.7,0.5,1.6,0.3,2.4
			c-0.1,0.5-1.1,1.1-1.6,1c-0.9-0.1-1.8,0.1-2.6,0.2c-1.6,0.1-3.3,0.1-4.9,0.1c-1.3,0-2.7-0.1-4-0.1c-1.1,0-2.3,0.3-3.3,0.1
			c-1.9-0.4-3.8,0.4-5.7-0.5c-1.4-0.7-3.1-0.8-4.8-0.6c-1.6,0.2-3.2,0.2-4.7,0.1c-0.7-0.1-1.5-0.5-2.1-0.9c-0.2-0.1-0.3-0.8-0.1-1.1
			c0.9-1.4,2.4-1.9,4-1.4c0.3,0.1,0.6,0.2,0.9,0.1c2.4-0.7,4.8-0.4,7.3,0c0.5,0.1,1.2,0.1,1.6-0.1c1-0.5,1.8-0.4,2.3,0.1
			c0.8-0.2,1.5-0.5,1.7-0.3c1.2,1,2.5,0.9,3.9,1c1.1,0.1,2.1,0.2,3.2,0.2c1.2,0,2.4,0,3.5,0c0.2,0,0.6-0.2,0.6-0.4
			c0-0.3-0.2-0.6-0.3-0.8c-1-1.5-1.9-3.1-3-4.4c-1.1-1.3-1.5-2.8-2.2-4.3c-0.6-1.5-1.9-2.8-2.9-4.2c-0.4-0.6-0.8-1.2-1.1-1.8
			c-1-1.5-1.9-3-2.9-4.5c-0.3-0.5-0.5-1.2-0.9-1.4c-1.3-0.6-1.1-2-1.7-2.9c-1-1.4-1.7-2.9-2.5-4.3c-1.6,0.3-3.2,1-4.7,0.9
			c-1.3-0.1-2.5-1.1-3.6-1.9c-0.4-0.3-0.3-1.3-0.4-2.2c-0.5,0-1.2,0.1-1.8,0c-1.5-0.3-2.9-0.5-4.4-0.2c-0.5,0.1-1,0-1.6,0
			c-1.5,0-3-0.1-4.5-0.1c-2,0-4.1,0.2-6.1,0.2c-0.5,0-1-0.3-1.3-0.4c-1.4,0.2-2.5,0.4-3.7,0.4c-1-0.1-2,0.2-3.1-0.5
			c-0.7-0.5-2.1-0.1-3.2,0.1c-2.5,0.5-5,0.5-7.4,0.3c-0.9-0.1-1.9-0.3-2.8-0.2c-0.5,0-0.9,0.6-1.3,1c-1.4,0.1-2.3-0.5-2.7-1.9
			c-0.2-0.6-0.3-1.2-0.6-1.7c-0.3-0.4-0.9-0.8-1.4-1c-0.4-0.2-0.9-0.2-1.4-0.3c-1.6-0.5-2.5-2.4-4.4-2.5c-0.6,0-1.3,0.2-1.8,0.1
			c-1.5-0.5-2.9-0.1-4.2,0.4c-1.3,0.5-2.3,1.5-2.6,3.1c-0.2,1-0.7,1.9-1.3,2.7c-0.4,0.6-1,0.9-1.5,1.4c-0.2,0.2-0.7,0.5-0.7,0.5
			c0.6,1.1-0.3,2-0.4,3c-0.2,1.6-0.4,3.2-0.7,4.8c-0.6,3-0.1,3.8,2.8,5c1.1-1.6,2.7-2.7,3.1-4.8c0-0.1,0.2-0.3,0.3-0.4
			c1.7-0.5,1.8-2.4,2.8-3.5c0.8-0.9,1.2-2.2,2.7-2.4c-0.1-0.2,0-0.3-0.1-0.3c-0.9-0.9-0.9-1.4,0.1-2.4c0.9-0.9,1.3-0.8,2.1,0
			c0.5,0.5,1.1,0.9,1.7,1.2c1.5,0.7,3.1,1.3,4.7,1.8c0.7,0.2,1.6,0.2,2.1-0.7c0.4-0.8,0.8-1.5,1.3-2.3c0.2,0.2,0.3,0.6,0.5,0.6
			c1.4,0.4,1.8,1.1,1.5,2.5c-0.1,0.5,0,1.2-0.2,1.6c-0.8,1.4-2.4,1.9-4.4,1.4c-1.5-0.4-3.1-0.6-4.5-1.1c-1.5-0.6-2.9-1.5-4.2-2.2
			c0.1,0.4,0.1,1.1,0.3,1.8c0.2,0.9-0.5,1.3-1.1,1.8c-0.3,0.3-0.5,0.8-0.6,1.2c-0.2,0.9-0.5,1.5-1.1,1.5c-0.9,1.3-1.7,2.4-2.5,3.6
			c-0.6,0.8-1.7,1.4-0.9,2.7c0.1,0.1-0.2,0.4-0.3,0.6c-0.6,1.2-1.6,1.9-2.7,2.8c-0.7,0.6-1.1,1.6-1.8,2.3c0.1,0.7-0.2,1.3-1.2,2.1
			c-0.8,0.6-1.3,1.7-1.9,2.5c-0.9,1.5-1.8,3-2.8,4.5c-0.1,0.2-0.3,0.4-0.4,0.6c2.1,0.3,4.3-0.6,6.3,0.6c0.9-1.2,2.2-1.3,3.2-0.1
			c1.2-0.7,2.4-1.1,3.7-0.3c0.1,0.1,0.4,0.1,0.5,0.1c2.6-0.7,5.1-0.1,7.8-0.2c-0.2,0.4-0.2,0.6-0.4,1c0.3-0.1,0.5-0.2,0.7-0.3
			c0.5-0.2,1.1-0.7,1.6-0.6c1.2,0.1,2.3-0.2,3.5-0.2c2.2,0,4.3,0.2,6.5,0.3c0.5,0,1-0.1,1.5-0.2c1.2-0.3,2.2,0.3,2.5,1.4
			c0.2,0.9-0.6,1.9-1.7,2.1c-0.1,0-0.3,0.1-0.3,0c-1.7-0.8-3.4,0.2-5.2,0c-1-0.1-2.1,0.1-3.1-0.1c-1.3-0.2-2.6-0.2-3.9,0.2
			c-0.5,0.2-1.2-0.3-2-0.6c-1,0.8-2.3,0.6-3.7,0.3c-0.2,0-0.4-0.1-0.6,0c-0.8,0.4-1.6,0.6-2.5,0.1c-0.3-0.2-0.8-0.1-1.2,0
			c-1.2,0.1-2.4,0.3-3.7-0.1c-1.2-0.3-2.6-0.6-4,0.2c-0.6,0.3-1.6,0-2.4-0.1c-0.6,0-1.1-0.1-1.7,0c-1.3,0.1-2.5,0.3-3.3-1
			c-0.1-0.2-0.4-0.2-0.6-0.3c-0.5-0.3-1-0.5-1.3-0.7c0.3-0.7,0.5-1.2,0.7-1.7c0-0.1,0-0.3,0.1-0.3c1.2-1.6,1.9-3.4,2.9-5.1
			c0.5-0.8,1.4-1.4,2.2-2c0.5-0.4,0.9-0.6,0.8-1.5c-0.1-0.9,0.4-1.6,1.5-1.6c0.3-1.2,0.6-2.4,0.8-3.3c-1.6-1.4-3.7-1.9-4-4.1
			c-0.2-1.4-0.3-2.9-0.2-4.4c0.1-1.4,0.4-2.7,0.6-4.1c0-0.2,0.2-0.5,0.1-0.7c-0.3-2,0.9-2.9,2.1-3.4c1.4-2.5,1.1-5.4,3.4-7.4
			c-1.5,0-2.5-0.8-3.2-1.9c-0.1-0.2-0.7,0.1-0.9-0.1c-0.6-0.4-1.2-0.9-2-1.6c-1.2,0.4-2.8,1-4.4,1.6c-0.8,0.3-1.5,0.5-2.3,0.7
			c-0.2,0-0.8-0.3-0.8-0.5c0-0.6,0.1-1.6,0.2-1.7c1.2-0.2,2.1-1.4,3.4-1c0.1,0,0.2,0,0.2,0c0.9-1,2.1-1,3.3-1.4
			c1.1-0.3,2.3-0.3,3.2,0.4c0.5,0.4,1.2,0.2,1.5-0.3c0.7-1.3,1.5-2.5,2.1-3.7c0.4-0.7,0.8-1.4,0.9-2.1c0.2-1.5,0.9-2.8,1.7-4.1
			c0.5-0.8,0.9-1.6,1.2-2.5c0.5-1.2,0.7-2.4,1.3-3.6c0.5-1,1.3-1.9,2.1-2.8c0.5-0.6,1.7-0.2,2.1,0.6c0.2,0.4,0.4,1,0.3,1.5
			c-0.2,1.6,0,3.2,0.7,4.7c0.1,0.2,0.3,0.6,0.2,0.8c-0.8,2,0.6,3.5,1.1,5.3c0.2,0.7,0.2,1.5,0.3,2.3c0.2,1.3,0.5,2.6,0.7,3.9
			c0.3,0,0.6,0,0.9,0c0,0.5,0.1,0.8,0.1,1.3c-2.8-0.8-4.5-2.3-5.1-5.1c-0.2-0.9-0.6-1.8-0.9-2.7c-0.3-1.3-0.6-2.7-0.9-4.1
			c-1.1,0.5-1.6,1.1-1.4,2.2c0,0.2-0.4,0.6-0.5,0.9c-0.2,0.6-0.4,1.3-0.6,1.9c-0.1,0.4-0.2,0.8-0.4,1c-0.4,0.4-0.6,0.8-0.8,1.4
			c-0.5,1.6-1.2,3.2-2,4.8c-0.5,0.9-0.1,1.3,0.6,1.4c0.5,0.1,1.1,0,1.5-0.2c1.2-0.7,2.5-0.6,3.8-0.3c0.3,0.1,0.6-0.1,0.9-0.1
			c0.5,0,1.1,0,1.6,0.1c0.5,0.1,1.1,0.1,1.6,0.2c0.6,0.2,1.2,0.4,1.8,0.7c0.8,0.3,1.5,0.7,2.2,1.2c0.3,0.2,0.5,0.4,0.7,0.7
			c0.6,0.8,1.1,1.7,1.6,2.5c0.3-0.4,0.6-0.8,0.9-1.2c0.1,0.1,0.2,0.1,0.3,0.2c0,0.2-0.1,0.5-0.1,0.8c1.4-0.4,1.7,1,2.3,1.7
			c0.5,0.5,0.8,0.6,1.3,0.6c0.9-0.1,1.8,0,2.6-0.6c0.5-0.3,1.4,0,2.1,0.1c1.1,0.1,2.1,0.3,3.2,0.3c1,0,2.1-0.2,3.1-0.3
			c1-0.2,1.7,0.2,2,1.2c2-1.7,4.2-1.4,6.5-1c0.4,0.1,0.8,0,1.2,0c0.6,0,1.3,0.1,1.9,0.1c0.7,0,1.4,0.1,2-0.1
			c1.1-0.4,2.3,0.6,3.3-0.2c0.1-0.1,0.5,0,0.7,0.1c1.6,0.5,3.2,0.5,5,0.1c0.8-0.2,2,0,2.8,0.8c1.2-1.3,2.9-0.4,4.4-0.5
			c0.7-0.1,1.2-0.1,1.4-0.9c0.2-0.9,1-1.2,1.7-1.1c0.5,0.1,1.2,0.5,1.3,0.9c0.1,0.5-0.2,1.1-0.4,1.7c-0.4,1-0.8,1.9-1.2,2.9
			c0.1,0.1,0.2,0.3,0.3,0.4c1.2-0.3,2.4-0.5,3.6-0.8c0.2-0.1,0.4-0.4,0.7-0.5c1.1-0.6,2.1-1.3,3.2-1.6c0.3-0.1,1.1,0.6,1.4,1.1
			c0.3,0.6,0.5,1.4-0.4,1.9c-0.2,0.1-0.4,0.2-0.9,0.5c0.7,0.9,1.4,1.8,2,2.7c0.1,0.2,0.3,0.3,0.3,0.5c0.4,2.7,2.4,4.4,3.6,6.7
			c0.6,1.3,1.7,1.5,2.6,0.4c1.4-1.8,2.6-3.7,3.8-5.6c0.3-0.5,0.5-1.2,0.8-2.1c-0.4-0.6-1.1-1.5-1.7-2.4c-0.1-0.1-0.2-0.3-0.1-0.5
			c0.2-2.1-1.6-3.2-2.6-4.6c-0.4-0.6-1.6-0.7-2.5-1.1c-0.3-0.1-0.6-0.3-1-0.5c0.2-0.3,0.3-0.6,0.5-1c-0.8-1.4-2.6-2.4-4.2-2
			c-2,0.5-4.1,0.8-5.8,2.2c-0.6,0.4-1.2,0.8-1.7,1.2c-0.8-0.8-1.5-1.5-2.2-2.3c0,0,0.3-0.4,0.5-0.4c1,0,1.5-0.7,2.1-1.3
			c0.6-0.7,1.3-1,2.2-1.2c1.4-0.3,2.8-1.2,4.2-1.3c2.3-0.3,3.3-2.3,5.3-3.2c-0.8-1-1.4-2.1-2.2-2.9c-1.3-1.3-0.9-2.9-1.2-4.4
			c-0.1-0.3,0.7-1,1.1-1.1c0.9-0.2,1.8,0.7,2,1.6c0.1,0.6,0.5,1.1,0.7,1.6c0.5,1.2,1,2.4,1.5,3.6c0.2,0.4,0.3,0.9,0.5,1.3
			c0.4,0.5,0.7,1.1,1.5,0.5c1.3-1,2.8-0.1,4.2-0.4c2-0.5,4,0.6,4.5,2.6c-0.2,0.3-0.5,0.5-0.6,0.6c-4-0.1-7.8,0.4-11.8,1.3
			c1.4,0.7,2,1.7,1.8,3c2.3,1,4.2,2.5,5.3,4.7c0.6,1.3,1,2.7,1.6,4.1c0.4,0.8,0.1,1.2-0.5,1.6c0.3,0.5,0.7,1,0.9,1.5
			c0.2,1,0.7,0.7,1.1,0.3c0.6-0.6,1.2-0.8,2.1-0.3c0.3,0.2,1,0,1.5-0.2c0.7-0.3,1.1-0.9,2.1-0.7c0.5,0.1,1.2-0.5,1.6-1
			c0.8-0.8,1.4-1.7,2.1-2.6c-0.5-1.1-1.2-2.3-0.1-3.6c0.1-0.1,0.1-0.5,0-0.7c-0.2-0.8,0-1.5,0.5-2.2c0.2-0.3,0.2-0.8,0.2-1.1
			c-0.2-1.1-0.8-2.1-0.8-3.1c0.1-1.4-0.5-2.5-0.7-3.8c-0.3-1.4-0.7-2.8-1.2-4.1c-0.7-1.6-1.6-3-2.3-4.6c-0.2-0.5-0.1-1.1,0-1.8
			c-2-2.1-3-5-4.2-7.6c-0.7-1.7-1.1-3.6-1.7-5.4c-0.6-1.7-1-3.6-2-4.9c-1-1.2-1.2-2.6-1.5-3.9c-0.3-0.9,0-1.9-1.3-2.4
			c-0.4-0.1-0.4-1.1-0.6-1.7c-0.1-0.3,0-0.8-0.2-0.9c-1.1-0.6-1.5-1.6-1.7-2.7c-0.1-0.4-0.6-0.8-0.9-1.2c-0.3-0.4-0.4-0.9-0.6-1.3
			c-0.6-1-1.1-2.1-1.9-3c-0.4-0.4-1-0.6-1-1.4c0-0.3-0.4-0.5-0.6-0.8c-0.3-0.4-0.6-0.8-0.7-1.2c-0.2-1.2-0.8-1.9-2.1-1.8
			c-0.1,0-0.3,0-0.3-0.1c-1.4-1.9-3.7-2.6-5.3-4.2c-0.2-0.2-0.6-0.5-0.9-0.5c-1.1,0.3-1.5-0.5-2.1-1.2c-0.3-0.3-0.8-0.7-1.2-0.7
			c-1.5,0-2.6-0.9-3.8-1.6c-0.7-0.4-1.6-0.5-2.4-0.7c-0.5-0.2-1.1-0.2-1.6-0.4c-1.1-0.5-1.7-0.3-2.1,0.8c-0.2,0.6-0.5,1.1-0.6,1.7
			c-0.1,0.4,0.2,0.9,0.1,1.2c-0.2,1.3-0.4,2.6-0.9,3.8c-0.6,1.3-1.5,2.5-2.3,3.7c-1,1.4-2.6,2-4.3,2.4c-0.2,0-0.4-0.1-0.6-0.1
			c-0.5,0.9-1.1,1.4-2.4,1.4c-1.4,0-2.8,0.3-4-0.5c-0.5-0.3-1-1.2-1-1.9c0-0.7,0.7-0.8,1.4-0.7c1.1,0.2,2.3,0,3.4,0
			c1.5,0.1,2.2-1.2,3.3-1.8c2.1-1.1,3.4-3.3,3.7-6.1c-0.8,0.6-1.3,1-1.9,1.5c-0.2,0.1-0.4,0.3-0.6,0.4c-2.7,0.8-5.4,1.7-8.2,1.6
			c-1.7-0.1-3.4,0-5.1-0.3c-1.6-0.3-3.2-1.1-4.8-1.6c-0.2-0.1-0.4,0-0.6,0c0.3,0.9,0.7,1.8,1,2.8c-0.4,0.4-1,0.9-1.4,1.4
			c-0.5-0.3-1-0.5-1.3-0.9c-0.5-0.5-0.9-1.1-1.3-1.7c-0.3-0.6-0.5-1.2-0.7-1.8c-0.2-0.7-0.4-1.4-0.7-2.1c-0.2-0.4-0.4-0.7-0.7-1
			c-0.1-0.2-0.4-0.3-0.5-0.4c-0.4-0.6-0.7-1.2-1.2-1.9c-0.8,1.1-1.5,1.6-2.7,1.7c-1,0.1-2,0.6-2.9,1c-0.9,0.3-1.8,0.7-2.6,1.1
			c-0.6,0.3-1.3,0.6-1.7,1c-0.5,0.5-1,0.8-1.7,1c-0.9,0.2-1.6,1-2.5,1.5c-0.9,0.6-1.9,1.1-2.8,1.7c-0.2,0.1-0.3,0.3-0.3,0.5
			c-0.4,0.9-1,1.2-2,1.2c-0.3,0-0.6,0.4-0.8,0.7c-0.5,0.8-0.9,1.6-1.3,2.4c-0.1,0.3-0.2,0.5-0.4,0.8c-0.2,0.3-0.3,0.8-0.6,1
			c-1.1,1-2.1,2-2.1,3.6c0,0.2,0,0.5-0.2,0.6c-1.5,0.6-1.4,2.2-2.1,3.3c-0.2,0.3-0.4,0.7-0.7,0.8c-0.7,0.2-0.7,0.6-0.6,1.2
			c0.1,0.8-0.1,1.5-1.1,1.9c-0.4,0.1-0.9,0.9-0.8,1.3c0.4,1.4-0.4,2.7-0.9,3.7c-0.7,1.3-1.2,2.7-1.8,4c-0.4,0.8-0.7,1.6-1,2.4
			c-0.5,1.2-0.9,2.4-1.4,3.6c-0.9,2.2-1.8,4.4-2.7,6.6c-0.1,0.1-0.1,0.4-0.2,0.4c-1.6,0.3-1.1,1.7-1.5,2.6c-0.4,1.1-0.3,2.2-0.1,3.3
			c0.2,1.1,0.3,2-1,2.8c-0.7,0.4-0.6,1.9-1,2.9c-0.5,1.3-1.3,2.5-1.8,3.8c-0.2,0.4-0.2,1-0.1,1.4c0.3,1.4,0,2.7-0.3,4.1
			c-0.2,0.7,0.1,1.5-0.1,2.2C20,224.2,19.5,224.7,19.2,225.2C19.2,225.2,19.2,225.2,19.2,225.2z M109,128.8
			c-0.6,0.5-1.3,0.9-1.6,1.6c-0.3,0.7-0.1,1.6-0.3,2.3c-0.2,1.1-0.6,2.1-0.9,3.1c-0.3,1-0.6,2-0.9,3.2c0.6-0.3,1-0.4,1.2-0.6
			c1.3-0.9,2.7-1.7,3.2-3.5c0.2-0.9,0.5-1.7,0.8-2.5C110.7,131.2,110.3,129.6,109,128.8z"/>
		<path class="st1" d="M70.5,248.5c-1,1.5-2.1,1.8-3.7,1.4c-1.1-0.3-2.3-0.2-3.4-0.3c-1.3-0.1-2.7-0.3-4-0.4c-0.7-0.1-1.5,0.1-2.2,0
			c-0.8-0.1-1.4-0.6-1.3-1.6c-0.1,0-0.2,0-0.3,0c-0.4,0.4-0.4,1.3-1.3,0.9c-0.6-0.3-1-1.6-0.6-2.2c0.3-0.5,0.6-0.7,1.2-0.3
			c0.4,0.3,1,0.5,1.4,0.4c1.1-0.4,2-0.3,2.9,0c0.8-0.1,1.6-0.2,2.4-0.2c0.9,0,1.9,0.1,2.8,0.2c0.2,0,0.6-0.1,0.7,0
			c0.7,1.1,1.5,0.4,2.1,0c1.1-0.6,2.1,0.1,3.1,0.4c0.1,0,0.1,0.4,0.1,0.7c0.7-1.2,2.2-1.6,3.7-1.2c0.4,0.1,0.8-0.1,1.2,0
			c0.8,0.1,1.6,0.3,2.4,0.5c0.3,0.1,0.5,0.3,0.5,0.3c0.7-0.3,1.2-0.7,1.7-0.7c2.5-0.2,5-0.4,7.5-0.5c1.8,0,3.6,0.3,5.6,0.4
			c0.3-0.1,0.8-0.4,1.4-0.4c1.8,0,3.6-0.5,5.3,0.4c0.1,0,0.2,0.1,0.2,0.1c2.3-0.9,4.6,0.1,6.9-0.2c0.5-0.1,1,0,1.7,0
			c0.1,0.9-0.2,1.8-1.2,2.4c-0.9,0.6-1.7,1.1-2.9,0.5c-0.6-0.3-1.5,0.2-2.3,0.1c-0.8,0-1.5-0.2-2.3-0.3c-0.3,0-0.7,0-1,0.1
			c-0.9,0.1-1.8,0.3-2.7,0.4c-0.4,0.1-0.8,0.1-1.2,0.1c-0.5,0-1.2,0.2-1.4,0c-0.7-0.7-1.4-0.3-2.2-0.2c-1.1,0.1-2.3,0.1-3.4,0.2
			c-1.1,0.1-2.2,0.2-3.3,0.2c-1.8,0-3.5-0.1-5.3-0.2c-0.3,0-0.6-0.3-0.9-0.5c-0.6,0.9-1.6,0.9-2.7,0.8c-1.1-0.1-2.1,0.2-3.2,0.1
			C71.6,250,70.5,250,70.5,248.5z"/>
		<path class="st1" d="M50.3,129.9c-1.5,0.4-2.4-0.2-2.9-1.8c-0.2-0.7-0.8-1.3-1-2.1c-0.2-0.7,0-1.5,0-2.5c-1.1-0.6-1.5-1.3-1.3-2.9
			c0-0.3,0-0.5,0-0.8c-0.3-1.9-0.8-3.7-0.9-5.6c-0.1-1.3,0.3-2.6,0.5-3.9c0.2-1,0.7-1.9,0.7-2.9c0-0.9-0.4-1.8-0.6-2.7
			c0-0.2-0.3-0.4-0.2-0.5c0.9-1.9,1.1-3.9,1.5-5.9c0.4-1.8,1.6-3.1,2-5c0.3-1.4,1.9-2.4,2.4-3.8c0.4-1.4,1.7-1.9,2.3-3
			c0.5-1,1.3-1.4,2.1-2c1-0.8,2-1.5,3.1-2.1c0.8-0.4,1.4-1.1,2.1-1.4c0.6-0.3,1.3-0.3,1.9-0.2c0.3,0.1,0.3,1,0.4,1.5
			c0,0.2-0.2,0.5-0.3,0.6c-0.9,0.2-1.1,1.5-2.5,1.3c-0.6-0.1-1.4,1-2.2,1.5c-0.3,0.2-0.6,0.2-0.8,0.4c-0.7,0.7-1.4,1.4-2.1,2.1
			c-0.9,0.9-2.2,1.8-2.4,2.9c-0.4,1.6-1.6,2.5-2.1,3.8c-0.6,1.5-0.8,3.2-1.3,4.8c-0.1,0.5-0.4,1-0.7,1.5c-0.1,0.2-0.5,0.5-0.4,0.6
			c0.2,0.9,0.4,1.7-0.3,2.4c-0.3,0.3-0.3,0.8-0.5,1.3c1.3,0.1,1.5,1.2,1.6,2.4c0,0.4-0.2,0.8-0.2,1.1c-0.3,2.2-0.8,4.5-0.8,6.7
			c0,1.7-0.3,3.5,0.7,5.1c0.7,1.1,0.7,2-0.6,2.7c1.8,1,2.2,2.7,2.6,4.4c0,0.1,0.2,0.3,0.3,0.4c1.1,0.4,0.6,0.9,0.1,1.5
			C50.4,129.8,50.3,129.8,50.3,129.9z"/>
		<path class="st1" d="M92.8,114c-0.7-1.8-1.4-3.5-2.1-5.4c-0.6,0.8-1.6,1.2-1.7,2.5c0,0.5-0.8,1-1.2,1.6c-0.5,0.7-0.9,1.5-1.3,2.3
			c-0.2,0.3-0.4,0.8-0.5,0.7c-1.3-0.3-1.3,0.8-1.8,1.5c-0.5,0.8-1.2,1.4-1.8,2c-0.3,0.3-0.7,0.5-1,0.8c-0.7,0.8-1.4,1.5-2.1,2.3
			c-0.6,0.6-1.1,0.7-1.7,0c-0.2-0.2-0.5-0.3-0.8-0.5c0.4-1.2,1-2.2,2.2-2.8c0.3-0.1,0.4-0.5,0.7-0.8c0.5-0.5,1-0.9,1.6-1.4
			c0.3-0.2,0.5-0.5,0.7-0.8c0.4-0.4,0.9-0.8,1.2-1.2c0.4-0.5,0.7-1,1-1.5c0.6-0.9,1.3-1.7,1.9-2.6c0.3-0.4,0.5-0.8,0.8-1.3
			c0.2-0.4,0.4-0.8,0.7-1c0.6-0.4,0.8-1,1.1-1.7c0.6-1.5,1.5-2.9,2.4-4.2c0.1-0.1,1.1,0,1.1,0.2c0.2,0.6,0,1.2,0.2,1.8
			c0.2,0.8,0.4,1.6,0.7,2.4c0.8,1.7,1.8,3.3,2.7,5c0.4,0.8,0.6,1.7,1.1,2.4c0.3,0.5,0.9,0.8,1.4,1.1c0.8,0.5,1.6,1,2.4,1.5
			c-0.5,0.3-1,0.7-1.5,1.1c0.9,1.5,1.7,2.9,2.5,4.3c0.2,0.4,0.5,0.7,0.8,1c0.5,0.6,0.8,1.2,0.3,1.9c-0.2,0.3-0.7,0.6-1.1,0.7
			c-0.8,0.1-1.2-0.5-1.6-1.2c-0.2-0.5-0.6-1-1.1-1.2c-1.3-0.7-1.7-2-2.4-3.1c-0.7-1-1.3-2.1-2-3.1c-0.1-0.1-0.2-0.2-0.3-0.2
			c-1.2,0.8-2.1-0.4-3.2-0.6c-0.6-0.1-1.2-0.1-1.8-0.2c-0.2,0-0.6-0.1-0.7-0.3c-0.1-0.2,0-0.5,0.1-0.7c0.4-0.7,0.9-1.3,2-1.2
			C91.6,114.3,92.2,114.1,92.8,114z"/>
		<path class="st1" d="M68.2,239.1c0.7-0.2,1.3-0.5,2-0.5c2-0.2,4.1-0.3,6.1-0.3c0.6,0,1.2,0.3,1.8,0.3c0.8,0.1,1.6,0,2.5,0
			c1.4,0,2.8,0,4.2,0c1.7,0,3.4,0.7,5.2,0.3c1-0.2,2.2,0.5,3.3,0.8c0.2,0.1,0.5,0.2,0.7,0.1c1.8-0.7,3.5-0.2,5.1,0.6
			c0.2,0.1,0.4,0.5,0.4,0.8c0,0.2-0.4,0.5-0.6,0.6c-1.4,0.5-2.7,0.9-4.2,0.4c-0.1,0-0.3-0.1-0.3-0.1c-1.2,0.7-2.6,0-3.8,0.3
			c-1,0.2-2.1,0-3.2,0c-2.5,0.1-5.1-0.1-7.6-0.7c-2-0.4-3.9,0.6-5.7,0c-1.7-0.5-3.4,0.4-5.1-0.4c-0.7-0.3-2,0.3-2.9,0.6
			c-0.7,0.2-1.8-0.3-1.9-1c-0.2-0.8-0.4-1.6,0.9-2C66.1,238.7,67.3,238.3,68.2,239.1z"/>
		<path class="st1" d="M115.9,102.9c0-0.4,0.1-0.6,0-0.6c-1-0.9-1.9-1.8-2.4-2.9c-0.9-1.9-1.6-3.8-2.5-5.7c-0.3-0.6-0.7-1.2-1-1.9
			c-0.4-0.6-0.7-1.3-1.1-1.9c-0.2-0.3-0.5-0.5-0.7-0.8c-1.3-1.4-2.6-2.8-3.9-4.2c-0.1-0.1,0-0.3,0.1-0.4c-1.1,0.4-1.7-0.4-2.2-1.1
			c-0.5-0.6-0.9-1.3-1.5-1.9c-0.3-0.3-0.7-0.4-1.1-0.5c-0.1,0-0.2,0-0.3-0.1c-1.6-0.9-3.2-1.8-4.8-2.8c-0.2-0.1-0.4-0.1-0.6-0.2
			c-0.2-0.1-0.5-0.2-0.5-0.3c0-0.2,0.1-0.5,0.2-0.6c0.4-0.3,0.9-0.5,1.4-0.6c0.8-0.3,1.5-0.3,2.3,0.1c2.4,1.1,4.9,2.2,6.8,4.1
			c0.2,0.2,0.4,0.5,0.6,0.7c0.4,0.4,0.9,0.8,1.4,1.3c0.3,0.4,0.8,0.8,1,1.3c0.9,1.8,3,2.3,3.7,4.3c0.4,1.1,1.5,1.8,2.2,2.8
			c0.3,0.4,0.3,1,0.6,1.8c-0.1,0,0.3,0.1,0.4,0.2c0.9,1.8,1.8,3.7,2.5,5.6c0.2,0.6-0.1,1.4-0.2,2.2c0.2,0.3,0.6,0.7,1,1.2
			C116.9,102.2,116.5,102.5,115.9,102.9z"/>
		<path class="st1" d="M85.4,258.6c0.6-1.1,1.6-1.1,2.7-1c1,0,2.1-0.2,3.1,0c2.5,0.4,5,0.1,7.5,0.2c1.1,0.1,1.9,0.9,1.9,1.8
			c-0.1,1-1,1.7-2.1,1.8c-2.9,0-5.8,0.2-8.6,0c-1.4-0.1-3,0.4-4.2-1c-0.9,1.1-1.9,1.1-3.3,0.8c-1.6-0.3-3.3,0.1-5,0.1
			c-0.7,0-1.3-0.2-2-0.4c-1.3,0.6-2.5,0.6-2.9-0.4c-0.2-0.6-0.1-1.6,0.3-2.1c0.5-0.8,1.8-0.6,2.6,0c1-0.4,1.9-1.2,3.2-0.8
			c1.1,0.3,2.4,0,3.6,0.6c0.1,0,0.3,0,0.3-0.1C83.6,257.2,84.5,257.9,85.4,258.6z"/>
		<path class="st1" d="M81.3,234.4c-0.9,1-2.4,0.1-3.7,0.2c-1.1,0.1-2.3-0.1-3.4-0.2c-0.5,0-1.1-0.2-1.8-0.4
			c-0.6,1.4-2.1,0.4-3.3,0.7c-0.7,0.1-1.1-1.5-0.5-2.2c0.6-0.8,2.5-1,3.5-0.8c0.8,0.2,1.8,0,2.7-0.1c2.2-0.3,4.3-0.4,6,0.1
			c1.3-0.2,2.4-0.7,3.2-0.5c2,0.5,4,0.2,5.9,0.1c1.9-0.2,3.8,0.6,5.7,0c0.3-0.1,0.7,0.3,1,0.4c0.9,0.3,1.8,0.5,2.7-0.1
			c0.3-0.2,0.8,0.1,1.3,0.1c0,0.3,0,0.7,0,0.9c-0.7,0-1.5-0.1-2.1,0c-1.1,0.3-2.2,0.7-3.3,1c-1.4,0.4-2.9,0.7-4.4,0.8
			c-1.9,0.2-3.8,0.2-5.7,0.2C83.9,234.7,82.7,234.5,81.3,234.4z"/>
		<path class="st1" d="M84.9,76.1c-1.2-0.1-2.7-0.2-4.1-0.3c-1.1,0-2.3-0.1-3.3,0.2c-2.4,0.7-4.7,1.6-7,2.5
			c-1.7,0.7-3.3,1.6-4.8,2.4c-0.2,0.1-0.2,0.7-0.4,1.1c-0.3-0.1-0.5-0.2-0.5-0.3c-0.4-0.5-1.1-1-1.1-1.5c0-0.5,0.7-1.1,1.2-1.4
			c1.3-0.8,2.7-1.5,3.9-2.4c1.9-1.3,3.8-2.4,6.1-2.9c2.9-0.6,5.8-1.1,8.8-0.3c0.6,0.2,1.1,0.6,1.6,0.7c0.8,0.1,1.6,0.1,2.4,0.3
			c1.4,0.4,2.8,1,4.1,1.6c0.6,0.2,0.9,1.6,0.6,2.3c-0.5,0.9-1,0.6-1.8,0.2c-0.8-0.4-2-0.2-2.9-0.6C86.7,77.6,85.9,76.8,84.9,76.1z"
			/>
		<path class="st1" d="M115.5,193c0.6,1.3,1.2,2.4,1.7,3.5c0.6,1.3,1.2,2.6,1.8,3.9c0.6,1.2,0.4,2.6-0.5,3c-1.2,0.5-2.4,0-2.7-1.2
			c-0.1-0.3-0.1-0.7-0.2-1c-0.1,0-0.2,0-0.3-0.1c-0.4,1.4-0.7,2.9-1.1,4.3c-0.1,0.4-0.2,0.8-0.4,1.2c-0.8,1.6-1.9,3.2-2.3,4.9
			c-0.2,0.9-0.5,1.7-1.2,2.6c0-0.4-0.1-0.6-0.1-0.9c0-1.4,0.2-2.7,0.1-4.1c-0.2-2.6,0.8-4.8,1.8-7.1c0.4-0.8,0.3-1.8,0.4-2.7
			c0.1-1.2,0.5-2.2,1.2-3.1C114.5,195.3,114.9,194.2,115.5,193z"/>
		<path class="st1" d="M110.3,109.9c0.2,1,0.4,1.9,0.5,2.9c0.2,1.9,0.3,3.8,0.4,5.8c0,1.2,0.1,2.4-0.1,3.6c-0.3,1.2-1,2.3-1.5,3.3
			c-0.1,0.2-0.7,0.2-1,0.2c-0.1,0-0.3-0.6-0.2-0.8c0.9-1.8-0.1-3.6,0-5.4c0.1-1.6-0.1-3.3-0.2-4.9c-0.1-1.2-0.4-2.5-0.6-3.7
			c-0.3-1.3-0.6-2.7-0.9-4c-0.3-1.2-0.3-2.4-1.3-3.3c-0.3-0.2-0.3-1.2,0-1.6c0.3-0.4,1-0.8,1.6-0.8c0.3,0,0.8,0.5,1,0.9
			c0.8,2,1.6,4,2.3,6.1C110.3,108.7,110.3,109.3,110.3,109.9C110.4,109.9,110.3,109.9,110.3,109.9z"/>
		<path class="st1" d="M19.2,225.2c1.5-0.2,2,1.2,2.9,2c1.1,1,2.1,2.1,3.3,2.9c1.3,0.9,2.9,1.3,4.2,2.2c1.9,1.3,3.7,2.8,5.6,4.2
			c-1,1.6-3.1,1.1-4.6,0.3c-2-1-3.9-2.3-6-3.2c-2.7-1.1-4.4-3.2-6.2-5.3C17.8,227.5,18.2,226.1,19.2,225.2
			C19.2,225.2,19.2,225.2,19.2,225.2z"/>
		<path class="st1" d="M78.9,105.1c1.8,0.2,2.6,0.6,2.3,1.7c-0.4,1.2-0.1,2.4-1,3.6c-0.8,1-0.6,2.7-1.4,3.8c-1,1.5-0.6,3.6-2.2,4.7
			c-0.3,0.2-0.4,0.8-0.4,1.2c-0.1,1-0.1,2-1.2,2.6c-0.1,0.1-0.1,0.3-0.1,0.5c-0.1,1-0.8,1.2-1.5,1.2c-0.4,0-0.9-0.1-1.6-0.2
			c0.3-0.7,0.6-1.4,0.8-2.1c0.2-0.7,0.3-1.4,0.5-2c0.1-0.3,0.4-0.8,0.5-0.8c1.2,0.1,0.7-0.4,0.6-1c-0.1-0.5-0.1-1,0-1.5
			c0.4-1.2,1-2.4,1.4-3.6c0.3-0.9,0.3-2,1.3-2.7c0.5-0.4,0.3-1.5,0.6-2.2C77.9,107.2,78.4,106.1,78.9,105.1z"/>
		<path class="st1" d="M66.6,118.7c0,0.3,0.1,0.6,0,0.8c-1,1.6-1.9,3.3-3.4,4.5c-0.3,0.2-0.6,0.4-0.9,0.4c-0.8,0-0.8,0.2-0.5,0.9
			c0.1,0.2-0.1,0.6-0.2,0.8c-0.7,0.6-1.5,1-2.3,1.5c-0.2,0.1-0.4,0.1-0.7,0.2c-1-1.4,0-3.6,1.4-4.1c0.6-1.1,0.9-1.9,1.4-2.5
			c1-1.3,1.6-3,3.4-3.5c0,0,0.1-0.2,0-0.3c-0.2-1.7,1.3-2.4,2.2-3.5c0.2-0.3,0.3-0.7,0.6-0.9c0.5-0.3,1.1-0.8,1.6-0.7
			c0.6,0,1.3,0.3,1.4,1.2c0.1,0.8-0.2,1.1-0.7,1.6c-0.4,0.3-0.7,0.9-0.9,1.4C68.5,118,68,118.5,66.6,118.7z"/>
		<path class="st1" d="M57.4,115.4c-0.8-0.8-0.4-1.4,0-2.2c0.8-1.6,1.4-3.3,2.2-4.9c0.4-0.8,1.2-1.3,1.9-2c0.3,0.4,0.7,0.7,1,1.1
			c0.2,0.3,0.3,1,0.1,1.1c-1.4,1-0.9,2.6-1.6,3.9c-0.6,1.1-1.1,2.2-1.4,3.4c-0.4,1.2-0.5,2.4-0.8,3.6c-0.3,1-0.6,2.1-1.1,3
			c-0.2,0.4-0.9,0.7-1.3,0.6c-0.4-0.1-0.8-0.8-0.8-1.1c0.2-1.8,0.5-3.6,0.9-5.4C56.4,116.1,57,115.8,57.4,115.4z"/>
		<path class="st1" d="M83.2,150.1c-0.3,0.2-0.6,0.4-0.9,0.6c-0.7,0.6-1.4,0.6-2.2,0.4c-0.7-0.2-1.4-0.4-2.1-0.4
			c-1.4-0.1-1.9-0.4-2.2-1.9c-0.1-0.5-0.7-0.9-0.8-1.4c-0.1-0.4,0.1-0.9,0.2-1.4c0.4,0.1,0.9,0.2,1.2,0.5c0.6,0.6,3.1,1.3,4,1.2
			c0.9-0.2,2.1,0.3,2.8-0.7c0.6-0.9,1.3-0.9,2.3-0.8c1.3,0.1,1,1.1,0.9,1.6c-0.2,0.7-0.7,1.4-1.2,2c-0.4,0.4-1,0.4-1.6,0.6
			C83.4,150.3,83.3,150.2,83.2,150.1z"/>
		<path class="st1" d="M72.9,133.1c-0.4,0.3-0.6,0.5-0.9,0.7c-0.5,0.3-1.1,0.4-1.1,1.2c0,0.3-0.5,0.7-0.8,0.8
			c-1.5,0.3-3,1.2-4.5,0.4c-1.2-0.6-2.4-1.1-3.5-1.8c-0.8-0.5-0.8-1.3-0.2-2.1c0.6-0.6,1.1-1,2-0.1c0.3,0.3,0.9,0.5,1.6,0.5
			c0.9-0.1,1.9,0.3,2.8,0.4c0.7,0,1.4-0.2,2.1-0.1C71.4,132.3,71.7,132.2,72.9,133.1z"/>
		<path class="st1" d="M96.5,132.5c0.3-0.5,0.4-0.8,0.7-1.4c0.5,1,1.8,1.7,0.3,2.6c0,0,0.1,0.2,0.1,0.3c-0.1,0.4-0.2,0.9-0.4,1
			c-2,0.6-3.8,2.2-6.2,1c-0.3-0.2-0.7-0.1-1.1-0.2c-0.8-0.2-1.7-0.3-2.4-0.6c-0.5-0.2,0.1-2.1,0.9-2.4c0.5-0.2,1.3-0.3,1.7-0.1
			c1.1,0.6,2.2,0.5,3.4,0.2C94.6,132.8,95.6,132.6,96.5,132.5z"/>
		<path class="st1" d="M99.3,101c0.2,0,0.5,0.1,0.6,0.1c0,0.5-0.1,1-0.1,1.5c-1.2-1.4-2.7-2.7-3.4-4.3c-0.9-1.8-2-3.5-2.9-5.3
			c-0.6-1.1,0.1-1.3,0.5-1.9c0.1,0.1,0.3,0.4,0.4,0.3c1.4-0.4,1.7,0.8,2.2,1.6c0.4,0.7,1.1,1.4,1.5,2.1c0.5,1.1,0.8,2.3,1,3.4
			C99.3,99.4,99.3,100.2,99.3,101z"/>
		<path class="st1" d="M72.1,160.6c1.4,0.8,2.7,1.5,4,2.3c1,0.6,1.9,1.2,3.1,1.4c0.5,0.1,0.4,1.2-0.2,1.4c-1,0.2-2.1,0.5-3,0.2
			c-1.4-0.4-2.8-1.1-4-1.8c-0.5-0.3-1-1-1.2-1.7c-0.4-0.9,0.7-0.9,1.1-1.4C71.9,160.8,72.1,160.6,72.1,160.6z"/>
		<path class="st1" d="M74.5,105.8c-0.5,1.3-1,2.5-1.4,3.7c-0.1,0.3,0,0.6-0.1,0.9c-0.3,0.5-0.7,1.2-1.1,1.3
			c-0.5,0.1-1.3-0.3-1.6-0.7c-0.3-0.3-0.3-1-0.2-1.5c0.2-0.6,0.6-1.1,0.8-1.7C71.4,106.5,72.7,105.6,74.5,105.8z"/>
		<path class="st1" d="M55.5,126c-0.7-1.1-0.5-1.5,1.1-2.7c0.2,0.4,0.6,0.7,0.6,1.1C57.3,125.2,56.8,125.6,55.5,126z"/>
		<path class="st1" d="M80.5,145.5c-0.6-0.5-1.2-0.9-1.7-1.3c0.3-0.2,0.7-0.7,0.9-0.7c0.6,0.2,1.2,0.6,1.8,1
			C81.2,144.8,81,145,80.5,145.5z"/>
		<path class="st1" d="M52.5,101.1c0.5-0.1,1-0.4,1.3-0.3c0.5,0.2,0.9,0.6,1.4,0.9c-0.1,0.2-0.3,0.6-0.4,0.6
			c-0.6-0.1-1.1-0.3-1.6-0.5C52.9,101.7,52.8,101.5,52.5,101.1z"/>
	</g>
</g>
<g>
	<path class="st4" d="M378.7,156.2c0,0-1.6,6-4.1,9.5c-2.5,3.5-6.5,9-6.5,9s1.4,34.6,1.4,36.2s1.6,29.7,1.6,33.2
		c0,3.5-0.3,14.7-0.3,14.7h24.8c0,0-5.7-19.9-6.8-25.6c-1.1-5.7-0.5-10.6,0-14.2c0.5-3.5,4.4-21.5,4.4-21.5s8.8,30.8,11.1,34.6
		s5.8,10.3,8.3,10.9s3.3-2.2,3.5-6.3c0.3-4.1,2.7-46.6,3.3-50.4c0.5-3.8,0.5-19.3,0.5-19.3s-1.4,0.8-4.6,1.6s-6.3-1.9-6.3-1.9
		l-3,14.4c0,0-3.5-6.5-3.8-9.8c-0.3-3.3-2.5-11.2-5.2-13.4c-2.7-2.2-6.5-2.7-9.8-2.5C383.8,155.9,378.7,156.2,378.7,156.2z"/>
	<path class="st4" d="M343.5,154.3c0,0-0.8,8.4,1.6,13.4c2.5,4.9,6.8,7.4,6.8,7.4s0.3,31.9,0,35.4c-0.3,3.5-1.9,39.7-2.2,42.2
		s-0.5,5.5-0.5,5.5h-21.8h-17.7c0,0,1.9-14.2,3.8-19.2s6.3-26.5,6.6-30.4c0.3-3.8,4.1-30,5.2-34.9s3-13.1,4.1-15
		c1.1-1.9,3.5-4.4,7.6-4.9S343.5,154.3,343.5,154.3z"/>
	<path class="st5" d="M369.7,60.2c0,0-6.8-2.5-11.4-3.1c-4.6-0.6-16,4.6-18.1,6.8c-2.2,2.2-18.2,28.2-18.9,33.8
		c-0.7,5.6-1.4,27.7,1.7,33c3.1,5.2,5.5,11.1,7.4,14.8c1.8,3.7,3.4,8.9,3.4,8.9s11.5-2.5,12.7-2c1.2,0.5,2-1.1,3.9-2.8
		c1.9-1.7,2.5-5.7,1.6-7.2c-0.9-1.5-2.8-4.3-3.7-4.6c-0.9-0.3-10.2-7.4-12.3-12.3c-2.2-4.9-4.3-12.3-4.3-16.6s0.3-9.8,0.3-9.8
		s6.8-2.2,10.8-4.6c4-2.5,8-7.1,8-7.1s0.3,5.8,2.5,5.8c2.2,0,5.5-3.7,7.7-6.8c2.2-3.1,4.3-10.2,4.3-10.2s8,14.8,10.5,18.8
		c2.5,4,6.5,12,6.5,12l2.2,2.8c0,0,4.2-3.9,6.2-2.4s1.5,7.3-0.4,10.1c-1.8,2.8-5.8,6.1-7,5.6c-1.3-0.4-3.7,1.4-5,3.6
		c-1.2,2.2-8,9.8-8.6,10.8c-0.6,0.9-0.6,3.4,0,6.2c0.6,2.8,0.7,7.4,4.5,10.2s8.4,2.4,11.5,2.1c3.1-0.3,7.2-1.2,7.2-1.2
		s-3.8-2.8-2.3-8.7s4.3-13.5,7.7-20.6c3.4-7.1,1.5-13.8,1.2-18.8c-0.3-4.9-4-18.5-5.5-22.1c-1.5-3.7-8.4-12.5-11.3-16.2
		C379.5,64.5,376.8,61.5,369.7,60.2z"/>
	<g id="W3MNAL.tif">
		<g>
			<path class="st1" d="M309.8,248.6c0.2-0.7,0.4-1.4,0.6-2.1c0.5-1.5,0.9-3,1.4-4.5c0.2-0.6,0.6-1.2,0.7-1.9c0.1-0.6,0.2-1.1,1-1.3
				c0.2,0,0.3-0.4,0.3-0.6c0.5-1.8,0.8-3.5,1.5-5.2c0.2-0.4,1.2-0.8,1.8-0.7c0.4,0,0.9,0.8,1,1.3c0.1,1.4-0.2,2.7-1.1,3.9
				c-0.4,0.5-0.5,1.4-1.2,1.9c-0.1,0.1-0.1,0.3-0.1,0.4c0.2,1.9-0.8,3.6-1.6,5.1c-0.7,1.3-0.3,2.6-0.7,3.9c-0.3,0.8-0.5,1.5-1.4,1.8
				c-1.1,0.4-1.4-0.6-2.1-1.1C309.8,249.2,309.8,248.9,309.8,248.6z"/>
			<path class="st1" d="M322.6,104.7c0.7,1.1,0.5,1.8-0.3,2.4c0,1.1,0.1,2.1,0.1,3c0,1.3,0,2.7,0,4c0,1.8-0.2,3.7-0.2,5.5
				c0,1.4-0.4,2.8,0.2,4.3c0.6,1.5,0.6,3.2,0.9,4.8c0.1,0.5,0.4,0.9,0.6,1.3c0.7,1.7,1.4,3.4,2.1,5.1c0.2,0.5,0,1.1,0,1.3
				c0.5,0.6,1,1.2,1.5,1.7c0.4,0.4,0.8,0.9,1.1,1.3c0.7,0.9,1.4,1.9,2.1,2.8c0.3,0.4,0.3,0.9,0.5,1.4c0.1,0.3,0.1,0.7,0.2,0.8
				c1,0.5,1.4,1.4,1.5,2.5c0,0.6,0.2,1.3,0.2,1.9c0.5,1.3,1,2.6,1.5,3.9c2.6-0.5,5.4-1.2,8.5,0.1c0.7-0.9,2-0.7,3.3-0.5
				c1.6,0.2,3.4-1.2,3.9-2.8c0.4-1.2,0.7-2.5,1-3.7c0-0.1,0-0.2,0-0.2c-1.2-1.1-0.3-2.7-0.8-4c-0.3-0.9-0.6-1.6-1.6-1.8
				c-0.6-0.2-1.2-0.6-1.8-1c-1.2-0.8-2.4-1.5-3.4-2.4c-1.6-1.3-3.1-2.6-4.5-4c-1-1-1.9-2.2-2.9-3.3c-0.1-0.2-0.4-0.4-0.3-0.6
				c0.2-1.5-1-2.2-1.7-3.3c-0.5-0.7-0.9-1.6-1.1-2.4c-0.6-2.8-1.6-5.5-2.8-8.1c-0.2-0.4-0.3-1-0.1-1.4c0.8-1.5-0.1-2.9-0.2-4.3
				c0-1.1,0-2.2,0-3.8c-0.3-0.5-0.8-1.4-0.5-2.7c0.3-1.1,0.3-2.3,0.7-3.4c0.1-0.5,0.7-1.2,1.1-1.2c1.5-0.1,2.8-0.7,4.2-1.2
				c1-0.3,2-0.8,2.8-1.4c1.3-0.8,2.5-1.6,3.7-2.6c1-0.8,1.9-1.7,2.8-2.5c0.6-0.6,1.3-1.1,1.9-1.5c0.2-0.5,0.2-1,0.5-1.5
				c0.9-1.5,2.2-2.6,3.7-3.3c0.4-0.2,1,0,1.4,0.2c1,0.6,1.6,2.7,1.1,4.2c-0.3,0.9-0.2,1.9,0.6,2.7c5.8-4.9,9.3-11,10.7-18.7
				c0.3,0,1-0.1,1.4,0.2c0.3,0.2,0.3,0.9,0.4,1.3c0.3,0.8,0.5,1.6,0.8,2.5c0.2,0.7,0.5,1.4,0.8,2c0.5,1.2,1.1,2.3,1.6,3.5
				c0.5,1.2,1.1,2.3,1.6,3.5c0.3,0.8,0.5,1.6,0.9,2.3c0.3,0.6,0.6,1.2,1,1.7c1.3,2.4,2.6,4.8,3.9,7.1c0.9,1.7,1.9,3.4,3,5.2
				c0.2-0.1,0.5-0.2,0.9-0.3c1.1-0.3,2.3,0.6,2.3,1.7c0,0.9,0.1,1.8,0.3,2.7c0.1,0.6,0.5,1.1,0.6,1.3c1.5-0.3,2.8-0.8,4-0.8
				c0.7,0,1.6,0.4,2,0.9c0.6,0.9,2.3,1.1,1.9,2.7c-0.1,0.3,0.6,0.7,0.5,1c-0.1,0.6-0.4,1.3-0.7,2c0,0,0.2,0.2,0.4,0.4
				c0,0.1,0,0.2,0,0.2c-0.4,0.7-0.5,1.5-0.7,2.2c-0.4,1.3-1.4,2.4-2.3,3.4c-0.2,0.3-1.4,0.1-1.8-0.3c-0.4-0.3-0.6-1.3-0.3-1.7
				c0.7-1.4,1.6-2.8,2.4-4.1c0.1-0.1,0.3-0.3,0.3-0.3c-0.3-1.1-0.4-2.3-0.9-3.3c-0.4-0.8-2-0.5-2.7,0.2c-0.9,0.9-2,1.2-3.1,0.9
				c-1-0.2-1.7-1-1.7-2.2c0-0.2-0.2-0.4-0.3-0.5c-0.1-0.1-0.3-0.1-0.4-0.3c-0.4-1.4-1.2-2.6-2.1-3.7c-0.2-0.2,0.1-0.8,0.1-1.3
				c-2-0.1-1.9-0.1-2.4-2c-0.2-0.6-0.9-1.1-1.5-1.5c-1.4-1.1-1.8-2.7-2.6-4.1c-0.9-1.4-1.5-3.2-3.7-3.1c-0.3,0-0.8-0.3-1-0.6
				c-0.6-0.9-1.4-0.8-2.2-0.4c-0.6,0.3-1.2,0.6-1.7-0.2c-0.5-0.8-0.7-1.6,0.1-2.1c1.1-0.8,2.3-1.1,3.7-0.7c0.4,0.1,0.8,0.3,1.6,0.6
				c-1.2-3-2.2-5.8-3.3-8.6c-0.4,2.3-1.9,3.9-3.3,5.5c-1,1.1-1.2,2.5-2.1,3.6c-0.6,0.7-1.1,1.4-2,1.9c-0.6,0.3-1,1-1.5,1.5
				c-0.5,0.5-1.1,1-1.7,1.4c-1.3,1-3.9,0.5-4.5-0.9c-0.4-1.1-0.5-2.3-0.8-3.5c-0.7,0.2-1.5,0.3-2.3,0.5c0.6,1.4-0.5,2.2-1.2,2.9
				c-1.4,1.5-3.1,2.8-4.7,4.1c-0.3,0.2-0.7,0.3-1.1,0.5c-0.3,0.1-0.9,0.1-1,0.3c-0.7,1.5-2.3,1.4-3.4,2.2c-0.8,0.5-1.8,0.7-2.7,1.1
				c-0.3,0.1-0.7,0.2-1,0.2c-0.2,1.3-0.4,2.6-0.6,3.8c0,0.1-0.1,0.3,0,0.4c1.4,1.5,0.7,3.4,1.1,5c0.1,0.4,0.2,0.8,0.3,1.1
				c0.5,2.1,1.2,4.2,1.5,6.3c0.3,1.7,0.8,3.2,1.7,4.7c1.1,1.8,1.7,3.8,2.8,5.6c0.6,1,1.5,1.8,2.4,2.6c1.6,1.5,3.3,3,5,4.5
				c0.5,0.4,1.3,0.6,1.9,1c0.8,0.5,1.8,0.7,1.9,1.9c0,0.1,0.4,0.2,0.6,0.4c-0.1,0.9,0.5,2.1,1.3,2.6c2.4,1.3,2.6,2.8,0.7,4.7
				c0.9,2.4,0.7,5-1.1,6.9c0.2,0.2,0.5,0.4,0.5,0.4c-0.2,0.3-0.4,0.6-0.7,0.8c-0.7,0.3-1.5,0.4-2.1,0.7c-1.1,0.6-2.2,1-3.5,0.5
				c-0.6-0.3-1.5,0.7-1.5,1.5c0,0.8,0.3,1.7-0.3,2.5c-0.1,0.1,0.1,0.4,0.2,0.6c0.2,0.7,0.4,1.3,0.5,2c0.1,1.9,0.4,3.7,1.5,5.4
				c1,1.5,1.8,3.2,3.2,4.4c0.7,0.6,1.3,1.5,2.1,1.9c1.9,1.1,2.2,2.9,2,4.7c2.9,2,6.1,0.7,8.9,0.8c1.2-0.8,2.2-1.6,3.3-2.3
				c-0.8-2.1-0.5-3.3,1.3-5c1.1-0.9,2.3-1.7,3.3-2.6c0.6-0.5,0.9-1.3,1.4-1.9c0.6-0.8,1.3-1.6,2.1-2.6c0.4-0.9,0.9-2.1,1.3-3.3
				c0.5-1.4,1.9-2.6,1-4.6c-0.1,0-0.5-0.2-0.9-0.3c-1.2-0.2-1.9-1.2-1.5-2.4c0.2-0.6,0.5-0.7,1.1-0.6c0.8,0.2,1.6,0.3,2.4,0.4
				c0.3,0,0.7,0,1-0.2c0.9-0.5,1.5-0.2,1.9,0.6c0.2,0.4,0.4,0.9,0.7,1.3c0.9-0.7,1.8-0.8,2.9-0.4c0.6,0.2,1.3-0.4,2-0.4
				c2.3-0.1,4.5-0.7,6.8,0.2c0.8,0.3,1.7,0.4,2.5,0.7c0.7,0.2,1.4,0.6,1.8,1c0.9,0.9,1.7,1.9,2.6,2.9c0.4,0.5,0.9,1.1,1.3,1.6
				c1.3,1.5,2,3.3,2.1,5.1c0.2,2.8,0.9,5.4,1.5,8.1c0.1,0.7,0,1.4,0,2.3c0.9-0.4,0.9-1.2,1.1-1.9c0.4-1.4,0.6-2.8,1-4.3
				c0.3-1.2,0.6-2.3,0.9-3.5c0-0.2-0.1-0.5-0.2-0.7c-0.2-0.6-0.5-1.2-0.7-1.7c-0.1-0.1-0.2-0.3-0.3-0.3c-1.8-0.5-2.3-2.2-2.7-3.6
				c-0.3-1.4-0.2-2.9,0.9-4.1c0.4-0.5,0.8-1,1.1-1.5c0.4-0.7,1-0.9,1.7-0.7c0.5,0.2,1.1,0.6,1.1,1c0,0.6-0.2,1.4-0.6,1.8
				c-0.9,0.8-1.1,1.8-1.1,2.7c0.1,0.9,0.7,1.7,1.8,2c0.6,0.2,1.2,0.6,1.3,1.6c0.1,0.7,0.1,1.4,0.3,1.9c0.2,0.7,1.2,1.4,2,1.7
				c1,0.4,2.2,0.5,3.3,0.4c0.9-0.1,1.7-0.8,2.5-1.2c0.6-0.3,1.3-0.4,1.7-0.6c0.7-1.9,1.3-3.7,1.9-5.6c0.3-0.9,0.3-1.9,0.4-2.9
				c0.1-0.8,0.1-1.6,0.1-2.4c-0.1-1.1-0.2-2.3-0.4-3.4c-0.2-0.9,0.1-1.5,0.8-1.8c0.5,0.2,0.9,0.4,1.3,0.6c0,0,0-0.1,0-0.1
				c0.4,0.4,0.7,0.8,1.1,1.3c0.2,0.3,0.6,0.7,0.5,0.9c-0.4,1.8,0.7,3.8-0.5,5.5c-0.1,0.1,0,0.3,0.1,0.5c0.2,0.6,0.2,1-0.2,1.6
				c-0.4,0.6-0.3,1.5-0.6,2.3c-0.6,1.8-1,3.7-1.9,5.4c-0.7,1.3,0.1,2.6-0.4,3.9c-0.3,0.8-0.2,1.7-0.5,2.5c0.1,0.3,0.4,0.6,0.4,0.9
				c0,0.9-0.2,1.8-0.2,2.8c0,0.4,0,0.8,0,1.1c-0.1,1.1-0.1,2.2-0.2,3.3c0,0.5-0.2,1-0.2,1.5c0.3,2.3-0.1,4.5,0,6.8
				c0,1.6-0.4,3.3-0.5,4.9c-0.1,2.1,0.1,4.3,0.1,6.5c0,0.8-0.3,1.6-0.5,2.4c0,0.2,0,0.4,0,0.5c0.1,1.6,0.3,3.2,0.2,4.8
				c-0.1,2.3-0.4,4.6-0.6,6.9c-0.2,1.8-0.5,3.7-0.6,5.5c-0.1,1.2-0.3,2.5-0.1,3.8c0.1,1.4-0.2,2.5-0.7,3.7c-0.1,0.1-0.1,0.3-0.1,0.4
				c0.5,1.3,0.1,2.6-0.3,3.9c-0.1,0.4-0.2,1-0.1,1.4c0.3,1.8-0.2,3.6-0.8,5.2c-0.3,0.8-0.7,1.7-1.6,1.6c-0.1,0.8,0,1.7-0.3,2.4
				c-0.2,0.4-1,0.4-1.6,0.6c-0.5,0.2-1,0.5-1.6,0.6c-0.4,0.1-0.9,0.2-1.1,0.1c-1-0.8-2.1-1.7-3-2.7c-0.6-0.7-0.9-1.6-1.3-2.5
				c-0.4-0.8-0.7-1.6-1-2.4c-0.1-0.4-0.1-0.8-0.2-1.4c-1.7-1-2.1-2-1.3-4c-1.4-0.1-1.8-1.1-2-2.3c-0.3-1.3-1-2.5-1.5-3.8
				c-0.7-1.8-1.3-3.7-1.9-5.5c-0.5-1.4-1.1-2.8-1.6-4.3c-0.5-1.3-0.8-2.7-1.2-4.1c-0.5-1.6-0.9-3.1-1.4-4.7c-0.3-1-0.6-2-0.9-3
				c-0.2,0-0.3,0-0.5,0c-0.2,1-0.4,2-0.6,3c-0.3,1.2-0.6,2.3-0.9,3.5c-0.1,0.2-0.1,0.5-0.1,0.8c0.2,0.7,0,1.2-0.6,1.6
				c-0.5,0.4-0.5,0.8-0.5,1.5c0.1,1.6-0.1,3.3-0.3,4.9c-0.2,1.6-0.5,3.1-0.6,4.7c-0.1,1.3,0.4,2.8-0.7,4c-0.1,0.1-0.1,0.5,0,0.7
				c0.8,1.3,1.6,4.5,1.6,5.9c0,0.9,0.2,1.9,0.6,2.8c0.6,1.3,0.8,2.7,1.1,4.2c0.4,2.3,1,4.5,1.7,6.7c0.2,0.7-0.1,1-0.6,1.4
				c-0.5,0.3-1,0.8-1.7,0.2c-0.7-0.7-1.6-1.4-1.1-2.6c0-0.1,0-0.2,0-0.2c-0.6-1-0.5-2.3-0.9-3.2c-0.7-1.7-1-3.4-1.2-5.2
				c0-0.4-0.3-0.7-0.4-1c-0.1-0.5-0.2-1.1-0.3-1.7c-0.3-1.2-0.5-2.5-0.9-3.6c-0.4-1-0.4-2.5,0-3.1c-0.3-0.7-0.8-1.4-0.8-2
				c0.2-3.1,0-6.2,0.9-9.2c0.3-1.1,0.3-2.3,0.6-3.4c0.1-0.5,0.5-1,0.9-1.7c-0.3-1.5,0.2-3.2,0.6-4.9c0.3-1.2,0.6-2.5,0.8-3.7
				c0.3-1.5,0.7-2.9,1-4.4c0.1-0.3-0.1-0.6-0.1-0.8c0-0.5,0.1-1.1,0.1-1.6c0-0.5,0.2-1,0.1-1.5c0-0.3-0.3-0.5-0.6-1
				c-0.5-0.1-0.7-0.6-0.3-1.4c0.2-0.4,0-1,0-1.5c-0.1-1.5-0.4-3-0.4-4.5c0-0.5,0.9-1.4,1.4-1.4c0.7,0,1.4,0.8,1.4,1.7
				c0,1.2-0.1,2.5-0.1,3.7c0,0.7,0.4,1.3,0.6,1.9c0.1,0.2,0.3,0.3,0.4,0.5c0.9,2.7,1.8,5.4,2.8,8.2c0.4,1.2,1,2.4,1.2,3.7
				c0.3,2.1,1.8,3.8,1.5,6.1c-0.1,0.5,0.6,1.1,0.8,1.7c0.2,0.5,0.6,1.1,0.6,1.7c0,1.6,0.8,2.9,1.7,4.2c0.3,0.4,0.2,1,0.4,1.5
				c0.3,1,0.7,2.1,1.1,3.1c0.6,1.4,1.3,2.8,1.7,4.2c0.3,1.1,0.2,2.3,0.3,3.6c1.4,0.2,2.2,1.8,1.5,3.2c0.9,1.2,1.8,2.3,2.5,3.4
				c0.6,0.9,1,1.8,1.6,2.7c0.4,0.6,1,0.6,1.5,0.2c0.4-0.3,0.9-0.5,1.1-0.7c0.2-1,0.3-1.8,0.5-2.7c0.1-0.7,0.4-1.5,0.5-2.2
				c0.2-1.6,0.3-3.1,0.5-4.7c0.2-1.9,0.3-3.9,0.5-5.8c0.3-2.4,0.7-4.8,1-7.3c0.1-1.3,0.1-2.6,0.1-3.9c0.1-2,0.3-4,0.4-6
				c0-0.9-0.1-1.8-0.1-2.8c0-0.6,0.3-1.2,0.4-1.8c0-0.2,0-0.4,0-0.6c-0.1-0.9-0.1-1.8-0.2-2.7c0-0.7-0.1-1.5-0.1-2.2
				c0.1-1-0.3-2.1,0.5-3c0.1-0.1,0.1-0.4,0-0.5c-0.8-1.4-0.3-2.8-0.3-4.3c0-1.4,0.1-2.8,0.1-4.2c0-1.5-0.1-3.1,0-4.6
				c0.1-1.5,0.5-3,0.6-4.5c0.1-1,0.1-1.9,0.1-2.9c0-1.8,0-3.7,0-5.7c-1.3,0.3-2.5,0.8-3.8,0.9c-0.9,0.1-1.9-0.2-2.9-0.3
				c-0.1,0-0.3-0.1-0.4-0.1c-1.6-0.2-2.1,0.4-2.3,2.3c-0.2,1.6-0.6,3.1-0.9,4.6c-0.2,1-0.2,2.1-0.5,3c-0.4,1.4-0.9,1.5-2.3,1.1
				c-0.1,0-0.4,0.1-0.8,0.4c1.8,0.1,1.9,1.4,2.1,2.3c0.4,1.8,0.5,3.7-0.3,5.5c0-0.5,0-1,0-1.4c-0.4,0.7-1.1,1.2-0.8,2.2
				c0.2,0.5-0.4,1.4-0.6,2.1c-0.1,0.3,0,0.6,0,0.9c0,0.3,0.1,0.5,0.1,0.8c-0.4,2.5-0.5,5-0.7,7.6c-0.3,2.4-0.1,4.9-0.2,7.4
				c-0.1,1.6-0.2,3.2-0.3,4.9c0,0.4,0,0.8,0.1,1.2c0.3,1.3-0.3,2.4-0.7,3.5c-0.1,0.3-0.7,0.6-1.1,0.5c-0.3,0-0.7-0.5-0.7-0.8
				c-0.2-1.4-0.8-2.6-0.6-4.1c0.3-2.6-0.1-5.3-0.1-8c0-1.1,0.4-2.3,0.5-3.4c0.1-0.8,0-1.7,0-2.5c0.1-1.4,0.1-2.8,0.3-4.2
				c0.2-1.2,0.4-2.5,0.7-3.7c0.1-0.3,0.5-0.5,0.8-0.9c-0.1-0.7-0.5-1.4,0.1-2.4c0.4-0.7,0.3-1.9,0.7-2.8c0.2-0.5-0.3-1.4-0.4-2.1
				c-0.1-0.8,0-1.6,0-2.6c-1-0.7-1.2-2-1.4-3.5c0-0.6-0.4-1.2-0.6-1.9c-0.3-1.4-0.7-2.7-1-4.1c-0.1-0.6-0.3-1.1-0.4-1.7
				c-0.3-1.6-0.4-3.3-1-4.8c-0.5-1.2-0.6-2.6-1.8-3.5c-1.2-0.8-2.1-2.2-3.3-3.1c-0.7-0.5-1.7-0.8-2.5-0.8c-2.6,0-5.2,0.3-7.8,0.4
				c-0.7,0-1.5-0.2-2.2-0.4c-1.5-0.5-1.6,0.1-2,1.3c-0.1,0.4-0.3,0.7-0.5,1c-0.1,0.2-0.2,0.4-0.2,0.6c0.2,2.2-1.1,3.6-2.6,5
				c-0.1,0.1-0.4,0.3-0.4,0.4c0.4,2.2-1.3,3.3-2.5,4.6c-1.1,1.2-2.3,2.3-3.5,3.5c-0.6,0.7-0.7,1.5-0.6,2.4c0.1,1.2,0.1,2.3,0.2,3.5
				c0,0.2-0.1,0.4,0,0.6c0.4,1.6,0.1,3.1-0.2,4.6c-0.1,0.5,0.3,1.1,0.3,1.7c0.1,1.7,0,3.4,0.1,5.1c0,0.2,0.1,0.4,0.2,0.6
				c0.5,0.8,0.4,1.6-0.2,2.3c0.9,1.1,0.9,3.6-0.4,5c0.9,0.8,1.3,1.8,0.9,3c-0.1,0.5,0,1,0,1.5c0,0.6-0.1,1.3-0.1,1.9
				c0,0.2-0.1,0.5,0,0.6c0.7,1,0.8,2.1,0.6,3.3c-0.1,0.7,0.1,1.4,0.2,2.1c0.1,1.2,0.3,2.4,0.4,3.6c0.1,1,0,2.1,0.1,3.1
				c0.2,2.3,0.5,4.6,0.7,6.8c0.1,0.9,0,1.8,0.1,2.7c0,0.5,0.2,0.9,0.3,1.3c0.1,0.9,0.2,1.9,0.2,2.8c0.1,2.1,0.1,4.2,0.2,6.3
				c0,1.5,0.4,3.1,0.1,4.5c-0.5,1.7,0.1,3.4-0.4,4.9c-0.5,1.8,0.2,3.5,0.1,5.2c0,1-0.3,2-0.4,3c-0.1,0.7,0.1,1.4,0,2.1
				c-0.1,0.8-0.6,1.4-1.5,1.3c-0.9-0.1-1.7-0.9-1.6-1.8c0-2.1,0-4.3,0.1-6.4c0-0.1,0-0.3,0-0.3c0.7-0.7,0.3-1.5,0.3-2.3
				c-0.1-1.5,0.2-2.9,0.2-4.4c0-1.7-0.2-3.5-0.2-5.2c0-1.3,0.3-2.5,0.3-3.8c0-2,0-3.9-0.2-5.9c-0.3-2.5-0.9-5-1.2-7.6
				c-0.2-1.2,0.1-2.5,0-3.7c0-0.6-0.4-1.3-0.4-1.9c-0.2-2.2,0-4.4-0.5-6.5c-0.3-1.7,0.5-3.4-0.4-4.9c-0.1-0.1,0-0.3,0.1-0.4
				c0.2-0.6,0.6-1.2,0.1-1.9c-0.2-0.2-0.1-0.8,0.1-1c0.8-0.9,0.5-1.8,0-2.6c-0.8-1.5-0.1-2.8,0-3.8c-0.3-1.2-0.6-2.1-0.7-3
				c-0.1-0.8-0.2-1.5-0.2-2.3c0-0.5,0-1.1,0-1.6c0-0.4,0.1-0.9,0.1-1.3c0-2.3,0.1-4.6,0.1-6.9c0-0.1,0-0.3-0.1-0.5
				c-0.5,1.1-1.5,1.2-2.5,1.4c-0.7,0.1-1.2,0.8-1.8,1.1c-1.7,0.7-3.5,0.2-5.3,0.2c-0.8,0-1.6-0.3-2.3-0.6c-0.7-0.2-1.2,0.1-0.9,0.7
				c0.3,0.8,0,1.5-0.1,2.3c-0.2,1.3,0,2.7,0.1,4c0.1,1.9,0.5,3.9-0.3,5.7c-0.1,0.3,0.1,0.8,0.1,1.2c0.1,1.4,0.5,3.1,0,4.3
				c-0.6,1.4,0.1,2.6-0.1,3.9c-0.2,1.6-0.3,3.3-0.4,5c0,0.3,0.1,0.7,0.1,1c0,0.6-0.2,1.2-0.2,1.8c0,0.6,0.1,1.3,0.2,1.9
				c0.1,1.4,0.4,2.9,0.2,4.3c-0.2,1.7-1.5,2.3-2.5,1.4c-0.4-0.4-0.7-1.1-0.8-1.7c-0.1-0.6,0-1.3,0-1.9c0-0.3-0.1-0.5,0-0.8
				c0.6-2.2-0.1-4.3,0.2-6.5c0.2-1.7,0-3.4,0-5.1c0-0.6,0.2-1.1,0.3-1.7c0-0.2,0-0.5,0-0.7c0-0.5,0-0.9,0-1.4c0-2.1-0.3-4.3,0-6.4
				c0.2-1.7-0.4-3.6,0.8-5.3c-0.4-0.6-0.9-1.2-0.3-2.1c0.2-0.3-0.2-1-0.2-1.4c-0.1-2.5-0.1-5-0.3-7.5c0-0.5-0.4-1.1-0.7-1.4
				c-0.7-0.7-1.7-1.2-2.4-1.8c-1.4-1.1-2.6-2.4-3.3-4.1c-0.3-0.9-0.9-1.8-1.1-2.7c-0.4-1.6-0.7-3.2-0.8-4.8
				c-0.1-0.9,0.3-1.8,0.5-2.8c-1.3-0.9,0.1-2.5-0.4-3.8c-2.2,0.3-4.4,0.5-6.6,0.9c-0.5,0.1-0.9,0.5-1.4,0.7
				c-0.2,0.1-0.3,0.3-0.4,0.3c-1.5,0-2.2,1-2.8,2.2c-0.4,0.7-1,1.4-1.3,2.2c-0.5,1.1-0.8,2.2-1.2,3.3c-0.4,1.2-0.9,2.1-2.4,1.5
				c-1.3-1.8-0.2-3.6,0.5-5.3c0.6-1.6,1.4-3.1,2.2-4.6c0.2-0.3,0.6-0.5,0.9-0.6c1.9-1,2.2-1.8,1.4-3.7c-0.5-1.1-0.5-1.1,0-2.4
				c-1.2-0.7-1.4-1.9-1.5-3.2c0-0.5-0.5-1-0.8-1.5c-0.2-0.3-0.4-0.5-0.6-0.8c-0.7-1.2-2.1-2.1-2-3.8c0-0.2-0.3-0.4-0.4-0.5
				c-1-0.7-1.1-1.1-0.3-2.1c-2-0.3-2.5-0.9-2.6-2.7c0-0.6-0.7-1.3-0.7-1.9c0-1.3-0.9-2.1-1.2-3.2c-0.4-1.3-0.8-2.7-1.2-4
				c-0.2-0.5-0.3-1-0.4-1.6c0-0.2-0.2-0.4-0.1-0.5c0.9-1.7-0.3-3.4,0-5.2c0.3-1.7,0.1-3.4,0.2-5.2c0-1.6,0.1-3.3,0.2-4.9
				c0-0.2,0.1-0.5,0.2-0.6c0.5-0.6,0.6-1.1,0.4-1.9c-0.1-0.5,0.3-1.1,0.6-1.7c-0.9-0.8-0.7-3.2,0.6-5c0.3-0.5,0.6-0.7,0.2-1.4
				c-0.3-0.5-0.1-1.4,0.2-2c0.4-0.8,0.9-1.6,0.7-2.6c-0.1-0.3,0.1-0.8,0.3-1.2c0.5-1.5,1-3.1,1.7-4.6c0.6-1.5,1.4-2.9,2-4.3
				c0.8-2,1.7-4,2.9-5.8c0.9-1.3,1.6-2.8,2.5-4.1c0.8-1.2,1.5-2.3,2.5-3.4c0.6-0.7,1.7-0.9,1.6-2.2c0-0.4,0.5-0.8,0.9-1.1
				c1.8-1.3,2.7-3.7,5.3-3.7c0.3-1.9,4.5-4.6,6.5-4.1c0.8-1.3,4.1-2.6,5.7-2.2c0.2,0.1,0.5,0.2,0.6,0.1c1.6-1.1,3.4-0.4,5-0.2
				c1.3,0.1,2.6,0,3.8,0.3c1.3,0.3,2.7,0.3,3.8,1.5c0.4,0.4,1.3,0.7,1.9,0.7c1-0.1,1.4,0.5,1.6,1.1c0.2,0.5,0.1,1.5-0.2,1.7
				c-0.5,0.4-1.4,0.6-2,0.3c-1.6-0.6-3.1-1.5-4.7-2.2c-0.6-0.3-1.3-0.4-2-0.5c-1.3-0.2-2.6-0.4-3.8-0.6c-0.5-0.1-1.1,0.1-1.7,0.1
				c-0.4,0-0.8-0.2-1-0.1c-1.1,0.3-2.2,0.7-3.3,1c-0.4,0.1-0.9,0-1,0.3c-0.6,0.9-1.3,0.9-1.9,0.6c-1.1,0.7-2.1,1.3-3,1.8
				c-0.6,0.4-1.2,0.7-1.9,1c-0.6,0.3-1.2,0.4-1.7,0.8c-0.6,0.4-1,1-1.5,1.6c-0.6,0.6-1.2,1.3-1.8,1.9c-0.3,0.4-0.7,0.8-1.1,1
				c-1.5,1.1-1.3,3.5-3.3,4.3c-0.2,0.1-0.3,0.6-0.4,0.9c-0.4,0.7-0.7,1.5-1.1,2.2c-0.1,0.3-0.5,0.4-0.6,0.7c-1,1.7-2,3.3-2.9,5
				c-0.5,1.1-0.8,2.3-1.2,3.4c-0.3,0.9-0.8,1.7-1.1,2.6c-0.4,1-0.7,2.1-1,3.1c-0.2,0.5-0.4,1.1-0.6,1.6c-0.2,0.5-0.3,1-0.5,1.5
				c-0.4,0.9-1.1,1.6-0.8,2.7c0.1,0.4-0.6,1-0.7,1.5c-0.2,0.4-0.2,1-0.2,1.4c0,0.5,0.2,0.9,0.1,1.4c0,0.8-0.1,1.7-0.3,2.5
				C323.2,103.7,322.9,104.1,322.6,104.7z"/>
			<path class="st1" d="M322.2,192.8c0.2,0.7,0.7,1.6,0.7,2.4c-0.1,1.4-0.7,2.8-0.8,4.2c0,1.3-1,2.4-0.2,3.8
				c0.3,0.6-0.2,1.7-0.3,2.6c-0.2,1.4-0.4,2.8-0.5,4.2c-0.1,1.1-0.1,2.2-0.2,3.2c0,0.2,0,0.6-0.2,0.7c-0.7,0.4-0.3,1.1-0.5,1.5
				c-0.8,1.8,0.4,3.9-0.8,5.7c-0.5,0.7-0.1,2-0.2,3c-0.2,1.7-0.3,3.3-0.7,5c-0.1,0.5-0.9,1.2-1.5,1.2c-0.7,0-1.3-0.6-1.3-1.5
				c0-0.8-0.2-1.6-0.2-2.4c0-0.7,0.1-1.5,0.2-2.2c0.3-1.2,0.7-2.4,1.2-3.7c0,0-0.2-0.1-0.4-0.2c0.7-1-0.4-2.6,1.2-3.4
				c-0.6-0.8-1.2-1.6-0.1-2.5c0.1-0.1,0.1-0.2,0.1-0.3c0-1.6-0.4-3.3,0.1-4.7c0.5-1.6,0.4-3.2,0.5-4.7c0.1-1.4,0.9-2.6,0.4-4.2
				c-0.4-1.2,0.2-2.8,0.5-4.2c0.1-0.6,0.4-1.1,0.5-1.7c0-1.2,0.7-1.8,2.1-2c-2.5-0.9-1.2-2.7-1.3-4.1c-0.1-1,0.3-1.9,0.5-2.9
				c0.2-1.2,0-2.5,0.5-3.6c0.9-2.1,0.9-4.4,1.5-6.6c0.3-1.2,0.1-2.4,0.4-3.6c0.2-0.8,0.8-1.6,1.2-2.4c0-0.1,0.3-0.1,0.3-0.1
				c-0.4-1.5,1.4-1.3,1.9-2.2c-0.2,0.7-0.4,1.4-0.7,2.4c0.5-0.6,0.8-0.9,1.3-1.4c0,0.4,0,0.8-0.1,0.8c-0.9,0.6-0.4,1.6-0.6,2.4
				c-0.2,1.1-0.5,2.2-0.7,3.3c0,0.1-0.2,0.3-0.1,0.4c0.5,1.8-0.7,3.2-1,4.8c-0.2,1.4-0.2,2.8-0.4,4.3c-0.2,1.5-0.5,3-0.7,4.5
				c-0.1,0.8,0,1.7-0.3,2.5C323.3,191.8,322.6,192.3,322.2,192.8z"/>
			<path class="st1" d="M393.9,89c-0.4-0.6-0.8-1.1-1-1.7c-0.4-1.4-0.5-3-1.7-4.2c-0.2-0.2-0.3-0.6-0.3-0.9c0.1-0.6-0.2-1-0.7-1.3
				c-0.3-0.2-0.4-0.6-0.6-0.9c-0.2-0.4-0.5-0.8-0.7-1.2c-0.6-0.9-1.1-1.9-1.6-2.8c-0.3-0.6-0.4-1.6-0.8-1.7c-1.1-0.4-1.1-1.3-1.4-2
				c-0.6-1.2,0.2-2.4,1.4-2.3c0.4,0,0.8,0.2,1,0.5c1.1,1.8,2,3.6,3.1,5.4c0.6,1,1.3,2,1.9,3c0.2,0.3,0.2,0.6,0.2,0.9
				c0.1,0.3,0.1,0.8,0.3,0.8c1,0.2,0.9,1.1,1.1,1.8c0.2,0.5,0.5,0.9,0.7,1.3c0.1,0.2,0.2,0.3,0.2,0.5c0,0.9,0.3,1.6,1,2.2
				c0.1,0,0.1,0.1,0.1,0.2c-0.1,1.1,0,2.1,0.6,3.2c0.7,1.3,0.9,2.9,1.3,4.4c0.4,1.6,0.8,3.2,1.2,4.9c0.3,1.1,0.5,2.2,0.7,3.4
				c0.3,1.4,0.5,2.7,0.7,4.1c0.1,0.8,0.4,1.5,0.3,2.3c0,1.3,0.6,2.6-0.1,3.9c-0.2,0.4,0,1.3,0.3,1.8c0.6,0.9,0.1,1.6-0.4,2
				c-0.5,0.3-1.3,0.4-1.9,0.2c-0.7-0.2-1.1-1-0.8-1.8c0.7-1.5-0.2-2.8-0.2-4.2c-0.1-2.2-0.5-4.4-0.8-6.6c-0.1-0.9-0.3-1.8-0.5-2.8
				c-0.3-1.8-0.6-3.6-1-5.3c-0.2-0.9-0.7-1.8-1-2.8c-0.3-1-0.7-2-0.9-3C393.6,89.9,393.8,89.3,393.9,89z"/>
			<path class="st1" d="M417.3,129.6c-0.2,0.4-0.4,0.7-0.7,1.1c0,0,0.1,0,0.1,0c-0.2,0.7-0.4,1.5-0.7,2.1c-0.3,0.5-0.8,0.9-0.3,1.6
				c0.1,0.1,0.1,0.3,0,0.3c-1.1,0.9-0.5,2.3-0.8,3.5c-0.3,1.1-0.1,2.4-0.2,3.6c0,0.5,0,1.1-0.1,1.6c-0.1,0.9-0.7,2-0.4,2.8
				c0.4,1.2-0.4,1.4-1,1.6c-0.7,0.3-1.5,0.2-2.3,0.3c-1.6,0.1-3.2,1.1-3.7,2.7c-0.2,0.6-0.3,1.4-0.6,1.9c-0.3,0.5-0.8,1.1-1.3,1.2
				c-0.4,0.1-1-0.4-1.4-0.9c-0.8-1-0.3-2.2,0.1-3.1c0.9-2.3,2.4-3.9,5-4.2c0.7-0.1,1.3-0.3,2.1-0.5c0.9-1.4,0.1-3.1,0.4-4.7
				c0.3-1.6,0.7-3.1,1-4.6c0.1-0.4,0-0.8,0-1.2c0.3-1.3,0.9-2.6,1.1-4c0-0.3,0.6-0.5,0.9-0.8c0.5-0.4,1.4-0.6,0.8-1.7
				c-0.1-0.2,0-1,0.3-1.1c1.3-0.8,1.6-2.5,2.8-3.3c0.5-0.4,1.4-0.6,2-0.5c0.8,0.1,1.7,1.8,1.6,2.4c-0.1,0.4-0.1,0.8-0.1,1.2
				c0,0.2,0.2,0.4,0.1,0.5c-1,1.4,0.1,3.1-0.4,4.6c-0.3,1-0.4,2-0.6,3c-0.2,0.8-0.9,1.3-1.6,1c-0.5-0.2-1-1.1-1.1-1.7
				c0-0.9,0.6-1.9,0.5-2.8c-0.2-1.3-0.1-2.3,0.9-3.1c0.1-0.1-0.4-1-0.8-1.2c-0.5-0.2-0.7,0.2-0.8,0.8
				C418.2,128.5,417.7,129,417.3,129.6C417.3,129.6,417.3,129.6,417.3,129.6z"/>
			<path class="st1" d="M365.9,37.8c0.1,0.4,0.3,1.1,0.3,1.2c-0.6,0.3-1.2,0.4-1.8,0.5c-0.1,0-0.3-0.7-0.5-1.3
				c-1.1-0.6-1.4-1.5-0.8-2.6c-0.2-1.5-0.3-2.8-0.4-4c-0.1-1,0-2,0.1-3.1c0-0.4,0.1-0.8,0.2-1.2c0-0.2,0.2-0.6,0.1-0.7
				c-0.9-1.3,0-2.2,0.7-3.2c-1.2-1.3-0.7-2.7,0.1-4.1c0.3-0.5,0.8-0.8,1.2-1.1c0.4,0.6,1.1,1.1,1.3,1.7c0.3,1,0.5,2-0.3,3
				c-0.2,0.2-0.3,0.8-0.2,1.1c0.5,1,0.3,1.9-0.1,2.8c-0.1,0.3,0.1,0.8,0.1,1.3c1.4-1.7,2.5-3.3,4.6-3.7c0.5-0.1,1-0.7,1.5-1
				c0.2-0.1,0.4-0.3,0.5-0.3c0.8-0.2,1.6-0.3,2.4-0.5c0.6-0.1,1.3,0.9,0.8,1.5c-0.7,0.9-1.6,1.8-2.5,2.5c-0.8,0.5-1.5,1.2-2.6,1.1
				c-0.3,0-1,0.7-1,1.1c0,0.5,0.5,1,0.8,1.5c0.4,0.5,0.8,0.9,1.2,1.2c0.7,0.5,1.6,0.8,2.2,1.4c0.7,0.7,1.3,1.5,1.8,2.4
				c0.3,0.6,0,1.2-0.8,1.2c-1,0-2,0.1-2.8-0.9c-0.8-0.9-2-1.5-2.9-2.3c-0.4-0.4-0.8-1-1-1.5c-0.5-1.2-0.7-1.2-1.6-0.3
				c-0.8,0.8-1,1.6-0.7,2.8C366.2,35.2,366,36.5,365.9,37.8C366,37.7,365.9,37.7,365.9,37.8z"/>
			<path class="st1" d="M381.4,122.8c0.3,1.1,0,2-0.9,2.8c-0.5,0.4-0.6,1.2-0.9,1.9c-0.9,2.1-2.4,3.6-4.3,4.8c-0.4,0.2-0.7,0.6-1,1
				c-0.2,0.3-0.3,0.8-0.6,0.9c-1.8,1-2.1,3.1-3.5,4.5c-0.3,0.3-0.1,1.2-0.1,1.7c0.1,1.1,0.2,2.3,0.3,3.4c0,0.5,0.1,1.1,0.2,1.6
				c0.4,1.5,0.9,3.1,1.3,4.6c0.1,0.5,0.1,0.9,0.2,1.6c0.1,0.1,0.5,0.2,1,0.4c-0.4,0.3-0.7,0.5-0.9,0.6c-1-0.5-2-0.8-2.6-1.4
				c-0.9-0.9-1.4-2.2-1.4-3.6c0-0.8-0.4-1.5-0.5-2.3c-0.1-0.4-0.3-1-0.2-1.2c0.5-0.7,0.1-1.2-0.1-1.8c-0.3-1-0.9-2.1-0.8-3
				c0.1-1.2,0.8-2.4,1.4-3.4c0.5-0.9,1.4-1.5,1.9-2.4c1.2-1.9,2.9-3.1,4.5-4.5c1-0.9,1.7-2.2,2.5-3.3c0.1-0.2,0.1-0.5,0.3-0.6
				c0.9-0.6,1.7-1.4,2.3-2.3c0.2-0.2,0.7-0.2,1.1-0.3c0-0.1,0.1-0.1,0.1-0.2c-0.9-2.1-0.3-2.9,2-2.8c0.7,0,1.3-0.1,2-0.3
				c1.1-0.3,2.1,0.2,2.3,1.2c0.2,0.9-0.5,1.5-1.3,1.8c-0.9,0.3-1.9,0.7-2.9,0.9C382.5,123.2,382,122.9,381.4,122.8z"/>
			<path class="st1" d="M341.2,32.1c0.2-1.7,0.1-3,0.5-4c0.5-1.2,1.5-2.3,2.3-3.4c0.5-0.6,0.8-1.6,1.5-1.8c1.3-0.5,2.7-0.7,4-1
				c0.1,0,0.3,0.3,0.5,0.4c0.8,0.5,1.6,1.1,2.6,1.5c0.9,0.3,1.6,0.6,2,1.6c0.1,0.3,0.5,0.4,0.7,0.6c0.4,0.4,1.1,0.8,1.2,1.2
				c0.1,1.3,0.9,2.6,0.1,4c-0.5,0.9-0.5,2.1-1,3.1c-1,1.8-2.7,2.8-4.6,3.6c-1.5,0.7-3.2,0.7-4.7,0.2c-1.7-0.5-3-1.7-3.8-3.4
				C341.9,33.6,341.4,32.6,341.2,32.1z M346,26.4c0-0.1,0.1,0.2,0,0.3c-1.4,1.3-1.2,3.1-1.4,4.8c-0.1,0.6,1.3,3,1.8,3.2
				c1.1,0.3,2.2,0.2,3.4-0.2c2.6-1,3.7-2.6,3.8-5.2c0-0.8-0.3-1.5-0.5-2.1c-1.6-0.6-3.2-1.2-4.6-1.8C347.8,25.7,347,26.1,346,26.4z"
				/>
			<path class="st1" d="M349.8,252.6c-1.2-0.9-0.9-2.3-0.5-3.7c0.1-0.6,0.1-1.3,0.1-2c0-0.5-0.2-1.1,0-1.5c0.5-1.4,0-2.9,0-4.3
				c0.1-2.3,0.3-4.5,0.4-6.8c0.1-1.9,0.1-3.9,0.3-5.8c0.1-0.7,0.5-1.3,0.8-2c-1.1-1.3-1.1-2.1-0.3-3.7c0.1-0.2-0.1-0.7-0.1-1
				c0-0.5-0.1-1.4,0.1-1.6c0.5-0.3,1.3-0.4,1.9-0.3c0.7,0.1,1.3,0.7,0.9,1.6c-0.3,0.8-0.4,1.6-0.2,2.5c0.3,1.3-0.5,2.3-1.8,2.7
				c1.5,0.2,1.9,1,1.7,2.5c-0.2,1.2-0.8,2.4-0.1,3.8c0.3,0.7-0.1,1.7-0.2,2.6c-0.1,2.4-0.4,4.7-0.1,7.2c0.2,1.6-0.6,3.2-0.8,4.9
				c-0.1,0.5,0.1,1,0.3,1.5c0.7,1.7,0.1,3.1-1.5,3.7c2,2,0.6,4.2,0.5,6.3c0,0.2-0.3,0.4-0.6,0.5c-1.4,0.6-2.4-0.1-2.4-1.6
				c0-1.2,0-2.4,0.2-3.5C348.5,253.7,349.3,253.2,349.8,252.6z"/>
			<path class="st1" d="M332.1,233.6c0.1-1,0.2-2,0.4-3c0.4-1.7,0.8-3.5,1.3-5.2c0.1-0.5,0.6-0.9,1.1-1.6c-0.4-0.5-1.2-1.3-0.4-2.3
				c0.2-0.3,0.4-0.5,0.7-0.6c0.9-0.4,1.7-0.1,2,0.9c0.4,1-0.1,1.6-1.6,2.3c1.8,1,1.2,2.7,1.1,4.1c-0.1,1.2-0.7,2.4-1,3.7
				c-0.7,2.7-1.4,5.5-2.1,8.2c-0.1,0.3-0.3,0.7-0.4,1c-0.4,0.7-1,1.3-0.3,2.2c0,0,0,0.1,0,0.2c-0.4,1.7-0.8,3.4-1.1,5.1
				c-0.2,1.2-0.3,2.4-0.6,3.7c-0.1,0.8-0.5,1.5-0.7,2.2c-0.1,0.2-0.2,0.4-0.1,0.5c0.4,1-0.4,1.3-1,1.6c-0.3,0.1-0.8,0-1.1-0.2
				c-0.2-0.1-0.1-0.7,0-1c0.5-0.6,0.3-0.9-0.2-1.5c-0.6-0.8-0.2-1.8,0.1-2.7c0.1-0.4,0.2-0.8,0.2-1.2c0-0.1-0.1-0.3,0-0.4
				c0.1-1,0.2-2.1,0.3-3.1c0-0.2,0-0.4,0.1-0.5c1-1.7,1-3.7,1.2-5.6c0-0.3,0.1-0.6,0.2-1c0.3-1.3,0.6-2.6,1-3.9
				C331.3,234.9,331.7,234.3,332.1,233.6z"/>
			<path class="st1" d="M331.1,192.7c1.8,0.5,2.1,1.2,1.9,3c-0.3,2.2-0.2,4.5,0.3,6.7c0.3,1.3,0.5,2.5,0.9,3.8
				c0.2,0.6,0.4,1.2,0.7,1.7c0.5,0.8,1.1,1.5,1.1,2.7c0,1,0.5,2,0.6,3.1c0.3,1.6,0.5,3.3,0.6,4.9c0.1,1-0.6,1.5-1.6,1.5
				c-1.1,0-1.4-0.7-1.5-1.6c-0.1-1-0.1-1.8-0.9-2.7c-0.7-0.7-0.6-2.1-0.9-3.3c-0.3-1.4-0.5-2.8-0.8-4.1c-0.2-1-0.5-2-0.8-3
				c-0.3-0.9,0.1-2-0.7-2.8c-0.3-0.3-0.2-1.1-0.2-1.7c-0.1-1.2-0.1-2.4-0.1-3.7C329.6,195.6,329.6,193.9,331.1,192.7z"/>
			<path class="st1" d="M355.9,126.7c-0.6-0.3-1.2-0.7-1.8-1.1c-0.4-0.3-0.7-0.7-1.2-0.8c-1.7-0.5-1.9-2-2.2-3.3
				c-0.5-1.6-0.6-3.2-0.9-4.9c-0.1-0.8,0.1-1.4,1.1-1.2c1.6,0.3,3.2,0.4,4.7-0.4c0.2-0.1,0.4,0.1,0.6,0.1c0.8,0.2,1.4,0.5,2.3,0
				c0.5-0.3,1.5,0.2,2.2,0.5c0.9,0.3,1.2,1,1.1,2c-0.1,0.3,0.1,0.8,0.3,1c0.7,0.6,0.7,1.3,0.5,2c-0.8,2.2-1.9,4.2-4,5.4
				C357.8,126.3,357,126.4,355.9,126.7z M354,117.8c-0.4,0.2-1.1,0.5-1.1,0.7c0.3,1.3,0.2,2.7,1.4,3.6c0.5,0.3,0.9,0.9,1.4,1
				c0.6,0.1,1.6,0,1.9-0.4c1-1.3,1.8-2.8,2.6-4.3C358.1,117.6,355.8,118.9,354,117.8z"/>
			<path class="st1" d="M392.3,138.2c-0.8-0.7-1.1-2.3-0.4-3.8c0.8-1.6,1.7-3.2,2.5-4.8c0.2-0.4,0.4-0.9,0.6-1.3
				c0.7-1.8,1.3-3.6,2-5.4c0.1-0.3,0.2-0.6,0.2-1c0.1-1.9,0.8-2.7,2.7-3.3c0.2,0.4,0.4,0.7,0.6,1c0.1,0.4,0.3,0.9,0.2,1.3
				c-0.6,2.1-1.3,4.2-2,6.3c-0.5,1.5-1.1,3-1.7,4.5c-0.1,0.3-0.2,0.6-0.5,0.8c-1.1,1-1.3,2.3-1.6,3.6
				C394.6,137.3,393.4,138.3,392.3,138.2L392.3,138.2z"/>
			<path class="st1" d="M392.2,138.2c0.6,0.8,1,1.8,0.6,2.8c-0.5,1.3-0.1,2.8-0.8,4.1c-0.5,0.9-0.6,2.3-0.1,3.2
				c0.5,1,0.3,1.9,0.5,2.9c0.2,0.8,0.3,1.9-0.8,2.1c-0.8,0.2-1.4-0.5-1.8-1.3c-1.1-2.5-1.3-4.9-0.6-7.6c0.4-1.4,0.4-2.8,0.6-4.3
				c0.2-1.4,0.9-2,2.3-1.8c0,0,0.1,0,0.1,0C392.3,138.4,392.3,138.3,392.2,138.2C392.3,138.2,392.2,138.2,392.2,138.2z"/>
			<path class="st1" d="M376.5,63.6c-0.6,0.4-1.2,0.5-2-0.1c-0.4-0.4-1.4-0.1-2-0.4c-0.6-0.3-1-0.9-1.4-1.3c0.3-0.2,0.3-0.4,0.4-0.3
				c1.4,0.5,2.8-0.5,4.2-0.2c1.1,0.2,2.2,0.7,3.2,1c1.4,0.4,2.4,2.1,3.7,3c1,0.7,1.1,2,2.4,2.4c0.7,0.2,1,1.1,0.6,1.8
				c-0.2,0.3-0.7,0.6-1.1,0.6c-0.6,0-1.5,0.2-1.6-0.9c0-0.3-0.3-0.5-0.6-0.8c-0.5-0.5-0.9-1-1.5-1.5c-1-0.8-2.1-1.6-3.1-2.4
				C377.5,64.1,377.1,63.9,376.5,63.6z"/>
			<path class="st1" d="M346.5,101.6c0.1,0.6,0.2,1.5,0.4,2.4c0.7,2.3-1,3.9-3.1,3.7c-1-0.1-1.8-1.5-1.6-2.5c0.3-1.4,0.6-2.8,1-4.2
				c0.2-0.9,1.2-1.6,2.1-1.3C346.2,99.8,346.6,100.5,346.5,101.6z"/>
			<path class="st1" d="M365.5,99.4c0.7,0.5,1.7,0.1,1.8,1.2c0,0.2,0.4,0.3,0.6,0.5c0.3,0.5,0.9,1.2,0.8,1.6
				c-0.2,1.1-0.8,2.2-1.3,3.3c-0.3,0.7-1,1-1.7,0.9c-1-0.2-1.6-1-1.9-1.9c-0.6-1.7-0.2-3.2,0.7-4.7
				C364.6,99.9,365.1,99.7,365.5,99.4z"/>
			<path class="st1" d="M331.8,191.8c-1.6-0.7-1.5-3.4,0.1-4.9c-0.6-1.7,0.6-4.7,2.3-5.3c1.5,1.6,1.5,1.6,0.6,3.5
				c-0.1,0.1,0,0.3-0.1,0.4c-0.2,0.7-0.4,1.4-0.8,2.4c0.5,0.9,0.1,2.8-1.4,4c0.1-0.3,0.1-0.6,0.2-1
				C332.4,191.3,332.1,191.5,331.8,191.8z"/>
			<path class="st1" d="M387.2,25.9c0.4-1.1,0.8-2.4,1.2-3.6c0.1-0.3,0.1-0.6,0.1-0.9c-0.2-1,0.3-1.9,1.1-2.2c1-0.3,1.8-0.3,2.1,0.8
				c0.2,0.5,0.1,1.2-0.1,1.8c-0.5,1.4-1.1,2.7-1.3,4.2c-0.1,1-0.8,1.6-1.7,2c-0.2,0.1-0.6-0.1-0.7-0.2
				C387.6,27.2,387.5,26.6,387.2,25.9z"/>
			<path class="st1" d="M420.9,139.4c-0.1,0.5,0,1.1-0.3,1.5c-0.3,0.4-0.7,0.9-1.2,1c-0.5,0-1.1-0.3-1.4-0.6
				c-0.6-0.6-0.3-3.2,0.2-3.8c0.8-0.9,2-0.7,2.4,0.5C420.8,138.3,420.8,138.9,420.9,139.4z"/>
			<path class="st1" d="M418.8,142.4c1.2,0,1.7,1,1.2,2.1c-0.3,0.7-0.2,1.5-0.3,2.2c-0.2,0.9-1.1,1-1.7,0.9
				c-0.6-0.1-0.9-0.6-0.7-1.4c0.2-0.8,0.1-1.7,0-2.5C417.2,143,417.9,142.4,418.8,142.4z"/>
			<path class="st1" d="M395.4,254.2c0,1-0.8,2-1.6,2c-0.9,0-1.8-1.3-1.8-2.4c0-1,0.8-2,1.6-1.9
				C394.3,251.9,395.4,253.3,395.4,254.2z"/>
			<path class="st1" d="M387.7,37.3c-0.6,0-1.6-1.1-1.6-1.8c0-1,0.9-2,1.8-1.9c0.8,0,1.8,1.2,1.8,2.1
				C389.7,36.9,389.2,37.2,387.7,37.3z"/>
			<path class="st1" d="M354.2,110.6c-0.5-0.1-1.2-0.1-1.2-1.1c0-1,0.7-1.5,1.8-1.5c0.9,0,1.3,0.6,1.3,1.3
				C356.2,109.9,355.2,110.6,354.2,110.6z"/>
		</g>
	</g>
</g>
<g>
	<path class="st1" d="M138.7,74.8c-1.1-0.3-2.3-0.5-3.4-0.9c-0.7-0.2-1.4-0.6-2.2-1c-0.9,0.8-2,0.6-3.3-0.1c-1-0.5-1.9-1.3-3.2-1.3
		c-1.2,0-2.2-1.4-2-2.7c0.1-0.5,0.5-1.2,0.8-1.3c0.6-0.1,1.2,0.1,1.9,0.3c0.6,0.1,1.3,0.4,1.9,0.5c0.9,0.2,1.9,0.2,2.8,0.5
		c1.1,0.3,1.9,1.4,3.2,1.2c0.1,0,0.3,0.1,0.4,0.2c0.9,1,1.8,1.5,3.3,1.2c0.8-0.1,1.9,0.9,2.6,1.7c0.6,0.6-0.1,1.2-0.6,1.7
		C140.1,74.8,139.4,74.8,138.7,74.8z"/>
	<path class="st1" d="M134.6,36.9c0.8,0.6,1.5,0.9,2,1.4c2.1,2,3.6,4.5,5.2,6.9c1.5,2.2,3.4,4.1,5,6.2c0.7,0.9,1.3,2,1.6,3.1
		c0.3,0.9,0,2-1,2.4c-0.4,0.2-1.2,0-1.5-0.3c-1.1-1.1-2.1-2.4-3.1-3.5c-1.2-1.3-2.4-2.7-3.5-4c-0.9-1-1.7-2.1-2.5-3.2
		c-0.4-0.5-0.7-1.1-1.1-1.7c-0.9-1.3-1.9-2.6-2.7-4c-0.3-0.5-0.5-1.4-0.2-1.8C133.1,37.8,133.9,37.4,134.6,36.9z"/>
	<path class="st1" d="M158.4,46.8c-0.4-0.3-0.7-0.6-1.2-0.9c0-0.3,0.1-0.6,0.1-0.7c-0.4-0.7-0.6-1.1-1-1.5c-0.5-0.6-1.2-1.1-1.6-1.8
		c-0.4-0.8-0.8-1.8-0.8-2.7c0-0.7-0.2-1-0.5-1.5c-0.7-1-1.2-2.2-1.8-3.3c-0.3-0.5-0.5-1.1-0.7-1.7c-0.3-0.8-0.7-1.5-0.4-2.6
		c0.2-0.7-0.7-1.6-1.2-2.4c-0.5-0.9-0.4-2.7,0.3-3.5c0.6-0.7,1.1-0.6,1.6,0.1c1,1.4,1.5,2.9,1.7,4.6c0,0.4,0.5,0.7,0.7,1.1
		c0.2,0.3,0.5,0.7,0.7,1c0.5,1.3,1,2.6,1.5,3.9c0.2,0.6,0.3,1.2,0.5,1.8c0.1,0.3,0.1,0.7,0.3,1c0.9,1.3,1.4,2.6,1.5,4.2
		c0,0.2,0.3,0.4,0.4,0.6c0.1,0.4,0.4,0.8,0.3,1.2C158.7,44.7,158.5,45.7,158.4,46.8z"/>
</g>
<g>
	<path class="st1" d="M294.8,39.3c-0.1,1.7-1.3,2.2-2.7,2.6c-0.5,0.1-1,0.5-1.5,0.7c-0.2,0.1-0.3,0.3-0.5,0.4
		c-2.8,0.5-4.6,3.1-7.4,3.7c-0.7,0.2-1.3,0.9-1.8,1.2c-0.7,0.5-1.6,1.5-1.9,1.4c-0.7-0.4-1.1-1.3-1.7-1.9c0,0,0-0.2,0-0.2
		c0.7-0.6,1.3-1.3,2.1-1.9c0.4-0.3,1-0.5,1.4-0.8c1.9-1.4,3.5-3.2,6-3.8c0.3-0.1,0.5-0.2,0.8-0.3c1.1-0.8,2.1-1.7,3.3-2.4
		c1.2-0.7,2.5-0.3,3.7,0.2C294.6,38.6,294.7,38.9,294.8,39.3z"/>
	<path class="st1" d="M266.3,36.8c0.4,1-0.5,1.5-1.3,1.6c-0.7,0.1-1.6-0.2-2.2-0.6c-0.5-0.3,0.3-1.9,1-2.2c0-1,0-1.9,1-2.4
		c0.1-0.1,0.3-0.3,0.3-0.5c-0.2-1.2,0.7-2,1.3-2.8c1.5-2.2,3.3-4.2,4.7-6.4c0.9-1.4,1.9-2.1,3.5-1.6c0.6,0.2,1.2,0.7,1.4,1.2
		c0.1,0.3-0.4,0.9-0.8,1.4c-1.2,1.6-2.4,3.2-3.6,4.8c-0.1,0.2-0.2,0.4-0.4,0.6c-1.4,1.9-2.9,3.8-3.7,6.1
		C267.4,36.3,266.8,36.4,266.3,36.8z"/>
	<path class="st1" d="M282.4,61.2c0.7,0.6,1.2,0.3,1.9-0.1c1.4-0.9,3-1.5,4.6-2.1c0.8-0.4,1.7-0.9,2.5-0.9c1.4-0.1,2.7-0.2,3.9-1.3
		c0.5-0.5,1.6-0.5,2.4-0.4c0.4,0,1,0.5,1.2,0.9c0.4,1,0.1,2-0.8,2.5c-0.6,0.4-1.5,0.3-2.3,0.4c-0.2,0-0.4-0.2-0.7-0.3
		c-0.2,0.3-0.4,0.7-0.7,1c-0.9,1-1.8,1.9-3.3,1.8c-0.1,0-0.3,0-0.4,0.1c-2.1,1.5-4.6,1.3-7,1.7c-0.1,0-0.2,0-0.3-0.1
		C282.8,64,282.1,62,282.4,61.2z"/>
</g>
</svg>
