<?xml version="1.0" encoding="utf-8"?>
<!-- Generator: Adobe Illustrator 25.3.1, SVG Export Plug-In . SVG Version: 6.00 Build 0)  -->
<svg version="1.1" id="レイヤー_1" xmlns="http://www.w3.org/2000/svg" xmlns:xlink="http://www.w3.org/1999/xlink" x="0px"
	 y="0px" viewBox="0 0 257.4 279.8" style="enable-background:new 0 0 257.4 279.8;" xml:space="preserve">
<style type="text/css">
	.st0{fill:#F1EBE3;}
	.st1{fill:#FFEFDA;}
	.st2{fill:#7A6150;}
</style>
<path class="st0" d="M127.1,158.7c0,0-6.9-0.3-9.5-3.4c-2.6-3.2-5.3-8.4-5.3-8.4l-3.4-2c0,0-13.8,3.6-18.3,7.5
	c-4.5,4-11.4,18-15.3,25.9c-4,7.9-8,28.4-9.7,32.1c-1.7,3.8-3.2,9.8-0.9,11.4c2.4,1.6,16.4,9.2,16.4,9.2s0.8-5.3,2.1-8.7
	c1.3-3.4,5.5-10.3,5.5-10.3l-3.7-2.6l10-18c0,0,2.4,10.3,3.7,14.3c1.3,4,2.1,6.6,2.1,6.6l5.8,5.5l44.6-0.8l4.5-5
	c0,0,2.1-13.2,3.2-16.1c1.1-2.9,2.6-5.5,2.6-5.5l7.7,17.4l-5.3,2.4c0,0,5,1.8,7.1,5c2.1,3.2,3.8,11.8,3.8,11.8s9.4-1.7,11-3.6
	c1.6-1.8,4.2-5.5,3.7-10s-2.8-14.9-6.2-20.4c-3.3-5.5-12.3-30-15.5-33.2s-6.9-7.9-10.3-10c-3.4-2.1-11.4-5.3-11.4-5.3l-5-0.8
	l-2.9,3.4c0,0,1.1,5.8-1.1,7.9C135.3,157.1,127.1,158.7,127.1,158.7z"/>
<path class="st1" d="M136.6,98.7c0,0-3.7,6.3-7.9,10.6s-7.7,6.5-8.6,6.9s0.4-6.2,0.7-6.7c0.3-0.5-1.6,0.8-6.3,4.2s-8.7,4.8-8.7,4.8
	l-6.1,4.2l-4.2,1.6c0,0-5.3-8.7-5-13.5c0.3-4.8,0.3-19.3,4.2-24c4-4.8,6.9-9,11.4-10.8c4.5-1.8,10.3-5.3,13.5-6.6
	c3.2-1.3,12.1-1.3,15.3-0.5c3.2,0.8,10.6,3.4,15,7.1s10.3,13.5,11.6,17.7c1.3,4.2,2.6,5.3,1,12.1s-5.5,15.8-5.5,15.8
	s-4.4-1.3-5.1,0.2c-0.7,1.4-1.2,2.2-1.2,2.2s-5.3-6.9-8.4-11.4C139,108.2,136.6,98.7,136.6,98.7z"/>
<g>
	<path class="st2" d="M64.4,218.3c-0.7-0.5-1.9-0.5-2-1.8c0-1.1-0.1-2.2-0.1-3.4c0-0.5-0.1-1,0-1.5c0.3-0.9,0.6-1.7,0.9-2.6
		c0.1-0.2,0.3-0.5,0.2-0.6c-0.7-0.8-0.1-1.4,0.2-2.1c0.7-1.4,0.7-2.9,0.9-4.4c0.4-2.2,1-4.3,1.6-6.4c0.2-0.8,0.8-1.5,1.2-2.3
		c0.5-1.3,0.9-2.6,1.4-3.9c0.4-1.2,0.9-2.3,1.5-3.4c0.7-1.4,1.5-2.7,2.2-4.2c0.3-0.6,0.2-1.4,0.5-2c0.6-1.3,1.2-2.7,1.8-4
		c0.5-1.1,0.9-2.2,1.4-3.3c0.2-0.4,0.5-0.7,0.7-1.1c0.2-0.5,0.3-1,0.5-1.4c0.3-0.6,0.6-1.1,0.9-1.8c-0.5-0.7,0.2-1.4,0.7-2.2
		c0.8-1.4,1.6-2.8,2.6-4.1c0.7-1,1.7-1.8,2.5-2.7c0.4-0.5,0.6-1.1,0.9-1.8c-0.2,0-0.5-0.1-0.7-0.2c0-0.1,0-0.2,0-0.2
		c0.4-0.1,0.7-0.2,0.8-0.2c0.4-0.6,0.7-1.1,1-1.5c0.7-0.8,1.4-1.6,2.1-2.4c0.6-0.6,0.8-1.7,2-1.4c0.1,0,0.4-0.2,0.5-0.4
		c1-1.7,2.6-2.2,4.3-2.7c0.3-0.1,0.6-0.3,0.9-0.5c0.8-0.4,1.5-0.7,2.3-1.2c0.5-0.3,0.9-0.8,1.4-1.1c1.3-0.7,2.7-1.4,4.1-1.9
		c1-0.3,2.2-0.2,3.7-0.4c-0.9-0.8-1.6-1.3-2.1-1.9c-0.8-0.9-1.6-1.8-2-2.8c-0.5-1.5-2-1.8-2.9-1.8c-1.8,0-2.6-1.3-3.8-2.1
		c-0.8-0.5-1.2-1.7-1.9-2.4c-1.1-1.1-0.9-2.3-1-3.7c-0.1-1.3,0.1-2.5,0.1-3.7c0.1-1.2,1-1.5,1.5-2.2c0,0,0.1-0.1,0.1-0.1
		c0.6-0.1,1.2-0.2,2.1-0.3c-0.4-0.6-0.8-1.2-1.2-1.7c-0.1-0.1-0.3-0.2-0.2-0.2c0.3-1.4-1.7-2.3-0.8-3.9c0.1-0.2-0.3-0.6-0.3-0.9
		c-0.3-1.9-1-3.8-0.3-5.9c0.3-0.9-0.3-1.9,0-3c0.3-0.9,0.1-1.8,0.6-2.8c0.5-0.9,0.3-2.2,0.4-3.3c0.1-0.8,0.2-1.7,0.4-2.5
		c0.2-0.8,0.9-1,1.6-0.7c0.9,0.3,1.4,1.5,1.2,2.2c-0.3,1-1,2-0.6,3.2c0.1,0.2,0.1,0.6,0,0.7c-0.9,0.8-0.1,1.8-0.4,2.6
		c-0.2,0.7-0.2,1.5-0.2,2.2c-0.1,0.7-0.5,1.4-0.1,2.2c0.2,0.4-0.1,1.1-0.1,1.7c0,0.4,0,0.8,0.1,1.1c0.2,0.7,0.4,1.4,0.6,2.3
		c0.2,0.1,0.7,0.2,1.3,0.4c-0.7,1.8-0.2,3.4,0.4,5c1.1,2.7,2.1,5.4,3.1,8.2c0.2,0.6,0.2,1.4,0,2.1c-0.1,0.6-1.9,0.8-2.3,0.3
		c-1.2-1.7-1.8-3.6-2-5.6c-0.1-0.4,0-0.9,0-1.3c-2,0.3-2.3,0.7-2.3,2.7c0,0.1,0,0.2,0,0.2c-0.5,2,0.5,3.5,2,4.6
		c0.8,0.6,1.7,1,2.5,1.4c0.1,0.1,0.5-0.2,0.6-0.3c0.9-1.1,2.1-1.1,2.8,0.1c1.2,2.1,2.3,4.3,3.5,6.4c0.3,0.5,0.9,0.8,1.4,1.3
		c0.9,0.8,1.9,1.7,2.8,2.6c1.1,1,2.1,2,3.2,3c0.2,0.2,0.5,0.2,0.7,0.3c0.3,0.1,0.6,0,0.8,0.2c1.3,1,2.8,1.1,4.2,1.4
		c1.6,0.3,3.2,0.2,4.8,0.2c1.5,0,3,0,4.5-0.3c1.2-0.2,2.3-0.9,3.3-1.5c1.4-0.8,2.8-1.7,4-2.8c1.6-1.6,3.1-3.4,4.6-5.1
		c0.9-1.1,1.8-2.2,2.5-3.2c0.5-1.1,0.8-2.1,1.2-3c0.3-0.8,0.6-1.5,1-2.2c0.3-0.7,0.7-1.4,1.1-2c0.1-0.2,0.3-0.3,0.3-0.5
		c-0.2-1.5,0.8-2.6,1.2-3.9c0.1-0.4,0.2-0.7,0.3-1.1c0.2-1.7,0.2-1.7,1.9-1.2c0.1-1.8,1.3-2.1,2.8-2.2c0.4,0,0.9-0.5,1.1-0.9
		c0.7-1.6,1.1-3.3,2-4.8c1.1-1.9,1.2-4.1,2.4-5.9c0.3-0.5,0-1.4,0.2-2c0.2-1.2,0.7-2.2,0.3-3.5c-0.4-1.5-0.2-3.2,0-4.8
		c0.1-0.7,0.6-1.5,1.5-1.2c0.8,0.2,1.7,0.2,1.6,1.6c-0.1,1.3,0.2,2.7,0.4,4c0,0.2,0.1,0.3,0.1,0.5c-1.1,2.4-0.2,5.1-1.1,7.5
		c-0.3,0.7-0.6,1.4-0.8,2c-0.8,2.1-1.6,4.3-2.5,6.4c-0.3,0.7-1,1.2-1.4,1.8c-0.3,0.5-1,1.1-0.1,1.8c0.1,0.1,0,0.5-0.1,0.6
		c-0.5,1-0.2,1.9,0,2.9c0.2,0.9,0.1,1.9-0.2,2.8c-0.5,1.6-1.1,3.4-2.4,4.5c-2,1.7-4.2,3.3-7,3.6c-0.3,0-0.7-0.1-0.9-0.1
		c-0.1,0.4,0,0.8-0.2,1.1c-0.7,1.3-1.6,2.5-2.3,3.8c-0.5,0.9-0.2,1.3,0.8,1.4c0.6,0,1.2,0.2,1.8,0.5c1.3,0.6,2.6,1.1,3.9,1.8
		c1.3,0.7,2.6,1.6,3.8,2.4c0.2,0.1,0.4,0.4,0.6,0.4c1.5-0.2,2.7,0.9,3.7,1.6c0.9,0.6,1.8,1.3,2.7,1.9c0.5,0.4,0.7,1.1,1.2,1.6
		c0.8,0.9,1.6,1.8,2.4,2.6c0.1,0.1,0.1,0.3,0.1,0.6c0.1,0,0.5,0.1,0.9,0.2c0,0.1,0,0.1,0,0.2c-0.2,0.1-0.5,0.1-0.9,0.2
		c1.4,1.7,2.7,3.4,4,5.1c0.4,0.6,0.7,1.3,1.1,1.9c0.4,0.7,1,1.4,1.3,2.1c0.3,0.6,0.3,1.2,0.6,2c0.5,0.2,0.9,0.7,0.7,1.6
		c0,0.2,0,0.5,0.1,0.7c1.2,1.5,2.1,3.1,2.6,4.9c0.4,1.4,1.5,2.6,1.7,4c0.2,1.8,1.5,2.9,1.9,4.6c0.4,1.7,1.6,3.2,2.2,4.8
		c0.6,1.4,1.6,2.8,1,4.4c-0.4,1.2,0.9,1.3,1.2,2.1c0.5,1.3,1.3,2.6,1.8,3.9c0.7,1.6,1.3,3.2,1.9,4.8c0.3,0.8,0.3,1.7,0.5,2.5
		c0.3,1.1,0.7,2.1,1,3.1c0.2,0.8,0.3,1.7,0.1,2.4c-0.2,0.8,0.2,1.5,0.1,2.2c-0.1,2.2-0.2,4.4-1.5,6.3c0.6,0.6,0.7,2.1,0.1,2.6
		c-1.3,1.1-2.5,2.2-3.9,3.2c-1.4,1-2.9,0.7-4.6,0.3c-1.6,1.2-2.7,1.4-4.1,0.4c0.1-0.3,0.2-0.6,0.3-1c-0.5,0.3-0.9,0.6-1.5,1
		c-0.1,0.8,0.3,1.9-1,2.4c0.3,1.2-0.8,1.7-1.3,2.5c-1,1.4-2.3,2.2-3.8,3.2c0.4,0.5,1,0.9,1.4,1.5c0.7,1.2,1.3,2.4,2,3.6
		c0.9,1.6,2,3.2,2.9,4.8c0.8,1.3,1.4,2.7,2.2,4c0.4,0.6,0.9,1,1.4,1.5c0.4,0.5,0.9,0.9,1.1,1.5c0.3,0.7,0.5,1.6,0.3,2.4
		c-0.1,0.5-1.1,1.1-1.6,1c-0.9-0.1-1.8,0.1-2.6,0.2c-1.6,0.1-3.3,0.1-4.9,0.1c-1.3,0-2.7-0.1-4-0.1c-1.1,0-2.3,0.3-3.3,0.1
		c-1.9-0.4-3.8,0.4-5.7-0.5c-1.4-0.7-3.1-0.8-4.8-0.6c-1.6,0.2-3.2,0.2-4.7,0.1c-0.7-0.1-1.5-0.5-2.1-0.9c-0.2-0.1-0.3-0.8-0.1-1.1
		c0.9-1.4,2.4-1.9,4-1.4c0.3,0.1,0.6,0.2,0.9,0.1c2.4-0.7,4.8-0.4,7.3,0c0.5,0.1,1.2,0.1,1.6-0.1c1-0.5,1.8-0.4,2.3,0.1
		c0.8-0.2,1.5-0.5,1.7-0.3c1.2,1,2.5,0.9,3.9,1c1.1,0.1,2.1,0.2,3.2,0.2c1.2,0,2.4,0,3.5,0c0.2,0,0.6-0.2,0.6-0.4
		c0-0.3-0.2-0.6-0.3-0.8c-1-1.5-1.9-3.1-3-4.4c-1.1-1.3-1.5-2.8-2.2-4.3c-0.6-1.5-1.9-2.8-2.9-4.2c-0.4-0.6-0.8-1.2-1.1-1.8
		c-1-1.5-1.9-3-2.9-4.5c-0.3-0.5-0.5-1.2-0.9-1.4c-1.3-0.6-1.1-2-1.7-2.9c-1-1.4-1.7-2.9-2.5-4.3c-1.6,0.3-3.2,1-4.7,0.9
		c-1.3-0.1-2.5-1.1-3.6-1.9c-0.4-0.3-0.3-1.3-0.4-2.2c-0.5,0-1.2,0.1-1.8,0c-1.5-0.3-2.9-0.5-4.4-0.2c-0.5,0.1-1,0-1.6,0
		c-1.5,0-3-0.1-4.5-0.1c-2,0-4.1,0.2-6.1,0.2c-0.5,0-1-0.3-1.3-0.4c-1.4,0.2-2.5,0.4-3.7,0.4c-1-0.1-2,0.2-3.1-0.5
		c-0.7-0.5-2.1-0.1-3.2,0.1c-2.5,0.5-5,0.5-7.4,0.3c-0.9-0.1-1.9-0.3-2.8-0.2c-0.5,0-0.9,0.6-1.3,1c-1.4,0.1-2.3-0.5-2.7-1.9
		c-0.2-0.6-0.3-1.2-0.6-1.7c-0.3-0.4-0.9-0.8-1.4-1c-0.4-0.2-0.9-0.2-1.4-0.3c-1.6-0.5-2.5-2.4-4.4-2.5c-0.6,0-1.3,0.2-1.8,0.1
		c-1.5-0.5-2.9-0.1-4.2,0.4c-1.3,0.5-2.3,1.5-2.6,3.1c-0.2,1-0.7,1.9-1.3,2.7c-0.4,0.6-1,0.9-1.5,1.4c-0.2,0.2-0.7,0.5-0.7,0.5
		c0.6,1.1-0.3,2-0.4,3c-0.2,1.6-0.4,3.2-0.7,4.8c-0.6,3-0.1,3.8,2.8,5c1.1-1.6,2.7-2.7,3.1-4.8c0-0.1,0.2-0.3,0.3-0.4
		c1.7-0.5,1.8-2.4,2.8-3.5c0.8-0.9,1.2-2.2,2.7-2.4c-0.1-0.2,0-0.3-0.1-0.3c-0.9-0.9-0.9-1.4,0.1-2.4c0.9-0.9,1.3-0.8,2.1,0
		c0.5,0.5,1.1,0.9,1.7,1.2c1.5,0.7,3.1,1.3,4.7,1.8c0.7,0.2,1.6,0.2,2.1-0.7c0.4-0.8,0.8-1.5,1.3-2.3c0.2,0.2,0.3,0.6,0.5,0.6
		c1.4,0.4,1.8,1.1,1.5,2.5c-0.1,0.5,0,1.2-0.2,1.6c-0.8,1.4-2.4,1.9-4.4,1.4c-1.5-0.4-3.1-0.6-4.5-1.1c-1.5-0.6-2.9-1.5-4.2-2.2
		c0.1,0.4,0.1,1.1,0.3,1.8c0.2,0.9-0.5,1.3-1.1,1.8c-0.3,0.3-0.5,0.8-0.6,1.2c-0.2,0.9-0.5,1.5-1.1,1.5c-0.9,1.3-1.7,2.4-2.5,3.6
		c-0.6,0.8-1.7,1.4-0.9,2.7c0.1,0.1-0.2,0.4-0.3,0.6c-0.6,1.2-1.6,1.9-2.7,2.8c-0.7,0.6-1.1,1.6-1.8,2.3c0.1,0.7-0.2,1.3-1.2,2.1
		c-0.8,0.6-1.3,1.7-1.9,2.5c-0.9,1.5-1.8,3-2.8,4.5c-0.1,0.2-0.3,0.4-0.4,0.6c2.1,0.3,4.3-0.6,6.3,0.6c0.9-1.2,2.2-1.3,3.2-0.1
		c1.2-0.7,2.4-1.1,3.7-0.3c0.1,0.1,0.4,0.1,0.5,0.1c2.6-0.7,5.1-0.1,7.8-0.2c-0.2,0.4-0.2,0.6-0.4,1c0.3-0.1,0.5-0.2,0.7-0.3
		c0.5-0.2,1.1-0.7,1.6-0.6c1.2,0.1,2.3-0.2,3.5-0.2c2.2,0,4.3,0.2,6.5,0.3c0.5,0,1-0.1,1.5-0.2c1.2-0.3,2.2,0.3,2.5,1.4
		c0.2,0.9-0.6,1.9-1.7,2.1c-0.1,0-0.3,0.1-0.3,0c-1.7-0.8-3.4,0.2-5.2,0c-1-0.1-2.1,0.1-3.1-0.1c-1.3-0.2-2.6-0.2-3.9,0.2
		c-0.5,0.2-1.2-0.3-2-0.6c-1,0.8-2.3,0.6-3.7,0.3c-0.2,0-0.4-0.1-0.6,0c-0.8,0.4-1.6,0.6-2.5,0.1c-0.3-0.2-0.8-0.1-1.2,0
		c-1.2,0.1-2.4,0.3-3.7-0.1c-1.2-0.3-2.6-0.6-4,0.2c-0.6,0.3-1.6,0-2.4-0.1c-0.6,0-1.1-0.1-1.7,0c-1.3,0.1-2.5,0.3-3.3-1
		c-0.1-0.2-0.4-0.2-0.6-0.3c-0.5-0.3-1-0.5-1.3-0.7c0.3-0.7,0.5-1.2,0.7-1.7c0-0.1,0-0.3,0.1-0.3c1.2-1.6,1.9-3.4,2.9-5.1
		c0.5-0.8,1.4-1.4,2.2-2c0.5-0.4,0.9-0.6,0.8-1.5c-0.1-0.9,0.4-1.6,1.5-1.6c0.3-1.2,0.6-2.4,0.8-3.3c-1.6-1.4-3.7-1.9-4-4.1
		c-0.2-1.4-0.3-2.9-0.2-4.4c0.1-1.4,0.4-2.7,0.6-4.1c0-0.2,0.2-0.5,0.1-0.7c-0.3-2,0.9-2.9,2.1-3.4c1.4-2.5,1.1-5.4,3.4-7.4
		c-1.5,0-2.5-0.8-3.2-1.9c-0.1-0.2-0.7,0.1-0.9-0.1c-0.6-0.4-1.2-0.9-2-1.6c-1.2,0.4-2.8,1-4.4,1.6c-0.8,0.3-1.5,0.5-2.3,0.7
		c-0.2,0-0.8-0.3-0.8-0.5c0-0.6,0.1-1.6,0.2-1.7c1.2-0.2,2.1-1.4,3.4-1c0.1,0,0.2,0,0.2,0c0.9-1,2.1-1,3.3-1.4
		c1.1-0.3,2.3-0.3,3.2,0.4c0.5,0.4,1.2,0.2,1.5-0.3c0.7-1.3,1.5-2.5,2.1-3.7c0.4-0.7,0.8-1.4,0.9-2.1c0.2-1.5,0.9-2.8,1.7-4.1
		c0.5-0.8,0.9-1.6,1.2-2.5c0.5-1.2,0.7-2.4,1.3-3.6c0.5-1,1.3-1.9,2.1-2.8c0.5-0.6,1.7-0.2,2.1,0.6c0.2,0.4,0.4,1,0.3,1.5
		c-0.2,1.6,0,3.2,0.7,4.7c0.1,0.2,0.3,0.6,0.2,0.8c-0.8,2,0.6,3.5,1.1,5.3c0.2,0.7,0.2,1.5,0.3,2.3c0.2,1.3,0.5,2.6,0.7,3.9
		c0.3,0,0.6,0,0.9,0c0,0.5,0.1,0.8,0.1,1.3c-2.8-0.8-4.5-2.3-5.1-5.1c-0.2-0.9-0.6-1.8-0.9-2.7c-0.3-1.3-0.6-2.7-0.9-4.1
		c-1.1,0.5-1.6,1.1-1.4,2.2c0,0.2-0.4,0.6-0.5,0.9c-0.2,0.6-0.4,1.3-0.6,1.9c-0.1,0.4-0.2,0.8-0.4,1c-0.4,0.4-0.6,0.8-0.8,1.4
		c-0.5,1.6-1.2,3.2-2,4.8c-0.5,0.9-0.1,1.3,0.6,1.4c0.5,0.1,1.1,0,1.5-0.2c1.2-0.7,2.5-0.6,3.8-0.3c0.3,0.1,0.6-0.1,0.9-0.1
		c0.5,0,1.1,0,1.6,0.1c0.5,0.1,1.1,0.1,1.6,0.2c0.6,0.2,1.2,0.4,1.8,0.7c0.8,0.3,1.5,0.7,2.2,1.2c0.3,0.2,0.5,0.4,0.7,0.7
		c0.6,0.8,1.1,1.7,1.6,2.5c0.3-0.4,0.6-0.8,0.9-1.2c0.1,0.1,0.2,0.1,0.3,0.2c0,0.2-0.1,0.5-0.1,0.8c1.4-0.4,1.7,1,2.3,1.7
		c0.5,0.5,0.8,0.6,1.3,0.6c0.9-0.1,1.8,0,2.6-0.6c0.5-0.3,1.4,0,2.1,0.1c1.1,0.1,2.1,0.3,3.2,0.3c1,0,2.1-0.2,3.1-0.3
		c1-0.2,1.7,0.2,2,1.2c2-1.7,4.2-1.4,6.5-1c0.4,0.1,0.8,0,1.2,0c0.6,0,1.3,0.1,1.9,0.1c0.7,0,1.4,0.1,2-0.1c1.1-0.4,2.3,0.6,3.3-0.2
		c0.1-0.1,0.5,0,0.7,0.1c1.6,0.5,3.2,0.5,5,0.1c0.8-0.2,2,0,2.8,0.8c1.2-1.3,2.9-0.4,4.4-0.5c0.7-0.1,1.2-0.1,1.4-0.9
		c0.2-0.9,1-1.2,1.7-1.1c0.5,0.1,1.2,0.5,1.3,0.9c0.1,0.5-0.2,1.1-0.4,1.7c-0.4,1-0.8,1.9-1.2,2.9c0.1,0.1,0.2,0.3,0.3,0.4
		c1.2-0.3,2.4-0.5,3.6-0.8c0.2-0.1,0.4-0.4,0.7-0.5c1.1-0.6,2.1-1.3,3.2-1.6c0.3-0.1,1.1,0.6,1.4,1.1c0.3,0.6,0.5,1.4-0.4,1.9
		c-0.2,0.1-0.4,0.2-0.9,0.5c0.7,0.9,1.4,1.8,2,2.7c0.1,0.2,0.3,0.3,0.3,0.5c0.4,2.7,2.4,4.4,3.6,6.7c0.6,1.3,1.7,1.5,2.6,0.4
		c1.4-1.8,2.6-3.7,3.8-5.6c0.3-0.5,0.5-1.2,0.8-2.1c-0.4-0.6-1.1-1.5-1.7-2.4c-0.1-0.1-0.2-0.3-0.1-0.5c0.2-2.1-1.6-3.2-2.6-4.6
		c-0.4-0.6-1.6-0.7-2.5-1.1c-0.3-0.1-0.6-0.3-1-0.5c0.2-0.3,0.3-0.6,0.5-1c-0.8-1.4-2.6-2.4-4.2-2c-2,0.5-4.1,0.8-5.8,2.2
		c-0.6,0.4-1.2,0.8-1.7,1.2c-0.8-0.8-1.5-1.5-2.2-2.3c0,0,0.3-0.4,0.5-0.4c1,0,1.5-0.7,2.1-1.3c0.6-0.7,1.3-1,2.2-1.2
		c1.4-0.3,2.8-1.2,4.2-1.3c2.3-0.3,3.3-2.3,5.3-3.2c-0.8-1-1.4-2.1-2.2-2.9c-1.3-1.3-0.9-2.9-1.2-4.4c-0.1-0.3,0.7-1,1.1-1.1
		c0.9-0.2,1.8,0.7,2,1.6c0.1,0.6,0.5,1.1,0.7,1.6c0.5,1.2,1,2.4,1.5,3.6c0.2,0.4,0.3,0.9,0.5,1.3c0.4,0.5,0.7,1.1,1.5,0.5
		c1.3-1,2.8-0.1,4.2-0.4c2-0.5,4,0.6,4.5,2.6c-0.2,0.3-0.5,0.5-0.6,0.6c-4-0.1-7.8,0.4-11.8,1.3c1.4,0.7,2,1.7,1.8,3
		c2.3,1,4.2,2.5,5.3,4.7c0.6,1.3,1,2.7,1.6,4.1c0.4,0.8,0.1,1.2-0.5,1.6c0.3,0.5,0.7,1,0.9,1.5c0.2,1,0.7,0.7,1.1,0.3
		c0.6-0.6,1.2-0.8,2.1-0.3c0.3,0.2,1,0,1.5-0.2c0.7-0.3,1.1-0.9,2.1-0.7c0.5,0.1,1.2-0.5,1.6-1c0.8-0.8,1.4-1.7,2.1-2.6
		c-0.5-1.1-1.2-2.3-0.1-3.6c0.1-0.1,0.1-0.5,0-0.7c-0.2-0.8,0-1.5,0.5-2.2c0.2-0.3,0.2-0.8,0.2-1.1c-0.2-1.1-0.8-2.1-0.8-3.1
		c0.1-1.4-0.5-2.5-0.7-3.8c-0.3-1.4-0.7-2.8-1.2-4.1c-0.7-1.6-1.6-3-2.3-4.6c-0.2-0.5-0.1-1.1,0-1.8c-2-2.1-3-5-4.2-7.6
		c-0.7-1.7-1.1-3.6-1.7-5.4c-0.6-1.7-1-3.6-2-4.9c-1-1.2-1.2-2.6-1.5-3.9c-0.3-0.9,0-1.9-1.3-2.4c-0.4-0.1-0.4-1.1-0.6-1.7
		c-0.1-0.3,0-0.8-0.2-0.9c-1.1-0.6-1.5-1.6-1.7-2.7c-0.1-0.4-0.6-0.8-0.9-1.2c-0.3-0.4-0.4-0.9-0.6-1.3c-0.6-1-1.1-2.1-1.9-3
		c-0.4-0.4-1-0.6-1-1.4c0-0.3-0.4-0.5-0.6-0.8c-0.3-0.4-0.6-0.8-0.7-1.2c-0.2-1.2-0.8-1.9-2.1-1.8c-0.1,0-0.3,0-0.3-0.1
		c-1.4-1.9-3.7-2.6-5.3-4.2c-0.2-0.2-0.6-0.5-0.9-0.5c-1.1,0.3-1.5-0.5-2.1-1.2c-0.3-0.3-0.8-0.7-1.2-0.7c-1.5,0-2.6-0.9-3.8-1.6
		c-0.7-0.4-1.6-0.5-2.4-0.7c-0.5-0.2-1.1-0.2-1.6-0.4c-1.1-0.5-1.7-0.3-2.1,0.8c-0.2,0.6-0.5,1.1-0.6,1.7c-0.1,0.4,0.2,0.9,0.1,1.2
		c-0.2,1.3-0.4,2.6-0.9,3.8c-0.6,1.3-1.5,2.5-2.3,3.7c-1,1.4-2.6,2-4.3,2.4c-0.2,0-0.4-0.1-0.6-0.1c-0.5,0.9-1.1,1.4-2.4,1.4
		c-1.4,0-2.8,0.3-4-0.5c-0.5-0.3-1-1.2-1-1.9c0-0.7,0.7-0.8,1.4-0.7c1.1,0.2,2.3,0,3.4,0c1.5,0.1,2.2-1.2,3.3-1.8
		c2.1-1.1,3.4-3.3,3.7-6.1c-0.8,0.6-1.3,1-1.9,1.5c-0.2,0.1-0.4,0.3-0.6,0.4c-2.7,0.8-5.4,1.7-8.2,1.6c-1.7-0.1-3.4,0-5.1-0.3
		c-1.6-0.3-3.2-1.1-4.8-1.6c-0.2-0.1-0.4,0-0.6,0c0.3,0.9,0.7,1.8,1,2.8c-0.4,0.4-1,0.9-1.4,1.4c-0.5-0.3-1-0.5-1.3-0.9
		c-0.5-0.5-0.9-1.1-1.3-1.7c-0.3-0.6-0.5-1.2-0.7-1.8c-0.2-0.7-0.4-1.4-0.7-2.1c-0.2-0.4-0.4-0.7-0.7-1c-0.1-0.2-0.4-0.3-0.5-0.4
		c-0.4-0.6-0.7-1.2-1.2-1.9c-0.8,1.1-1.5,1.6-2.7,1.7c-1,0.1-2,0.6-2.9,1c-0.9,0.3-1.8,0.7-2.6,1.1c-0.6,0.3-1.3,0.6-1.7,1
		c-0.5,0.5-1,0.8-1.7,1c-0.9,0.2-1.6,1-2.5,1.5c-0.9,0.6-1.9,1.1-2.8,1.7c-0.2,0.1-0.3,0.3-0.3,0.5c-0.4,0.9-1,1.2-2,1.2
		c-0.3,0-0.6,0.4-0.8,0.7c-0.5,0.8-0.9,1.6-1.3,2.4c-0.1,0.3-0.2,0.5-0.4,0.8c-0.2,0.3-0.3,0.8-0.6,1c-1.1,1-2.1,2-2.1,3.6
		c0,0.2,0,0.5-0.2,0.6c-1.5,0.6-1.4,2.2-2.1,3.3c-0.2,0.3-0.4,0.7-0.7,0.8c-0.7,0.2-0.7,0.6-0.6,1.2c0.1,0.8-0.1,1.5-1.1,1.9
		c-0.4,0.1-0.9,0.9-0.8,1.3c0.4,1.4-0.4,2.7-0.9,3.7c-0.7,1.3-1.2,2.7-1.8,4c-0.4,0.8-0.7,1.6-1,2.4c-0.5,1.2-0.9,2.4-1.4,3.6
		c-0.9,2.2-1.8,4.4-2.7,6.6c-0.1,0.1-0.1,0.4-0.2,0.4c-1.6,0.3-1.1,1.7-1.5,2.6c-0.4,1.1-0.3,2.2-0.1,3.3c0.2,1.1,0.3,2-1,2.8
		c-0.7,0.4-0.6,1.9-1,2.9c-0.5,1.3-1.3,2.5-1.8,3.8c-0.2,0.4-0.2,1-0.1,1.4c0.3,1.4,0,2.7-0.3,4.1c-0.2,0.7,0.1,1.5-0.1,2.2
		C65.2,217.2,64.7,217.7,64.4,218.3C64.4,218.3,64.4,218.3,64.4,218.3z M154.2,121.8c-0.6,0.5-1.3,0.9-1.6,1.6
		c-0.3,0.7-0.1,1.6-0.3,2.3c-0.2,1.1-0.6,2.1-0.9,3.1c-0.3,1-0.6,2-0.9,3.2c0.6-0.3,1-0.4,1.2-0.6c1.3-0.9,2.7-1.7,3.2-3.5
		c0.2-0.9,0.5-1.7,0.8-2.5C155.9,124.2,155.5,122.7,154.2,121.8z"/>
	<path class="st2" d="M115.7,241.5c-1,1.5-2.1,1.8-3.7,1.4c-1.1-0.3-2.3-0.2-3.4-0.3c-1.3-0.1-2.7-0.3-4-0.4c-0.7-0.1-1.5,0.1-2.2,0
		c-0.8-0.1-1.4-0.6-1.3-1.6c-0.1,0-0.2,0-0.3,0c-0.4,0.4-0.4,1.3-1.3,0.9c-0.6-0.3-1-1.6-0.6-2.2c0.3-0.5,0.6-0.7,1.2-0.3
		c0.4,0.3,1,0.5,1.4,0.4c1.1-0.4,2-0.3,2.9,0c0.8-0.1,1.6-0.2,2.4-0.2c0.9,0,1.9,0.1,2.8,0.2c0.2,0,0.6-0.1,0.7,0
		c0.7,1.1,1.5,0.4,2.1,0c1.1-0.6,2.1,0.1,3.1,0.4c0.1,0,0.1,0.4,0.1,0.7c0.7-1.2,2.2-1.6,3.7-1.2c0.4,0.1,0.8-0.1,1.2,0
		c0.8,0.1,1.6,0.3,2.4,0.5c0.3,0.1,0.5,0.3,0.5,0.3c0.7-0.3,1.2-0.7,1.7-0.7c2.5-0.2,5-0.4,7.5-0.5c1.8,0,3.6,0.3,5.6,0.4
		c0.3-0.1,0.8-0.4,1.4-0.4c1.8,0,3.6-0.5,5.3,0.4c0.1,0,0.2,0.1,0.2,0.1c2.3-0.9,4.6,0.1,6.9-0.2c0.5-0.1,1,0,1.7,0
		c0.1,0.9-0.2,1.8-1.2,2.4c-0.9,0.6-1.7,1.1-2.9,0.5c-0.6-0.3-1.5,0.2-2.3,0.1c-0.8,0-1.5-0.2-2.3-0.3c-0.3,0-0.7,0-1,0.1
		c-0.9,0.1-1.8,0.3-2.7,0.4c-0.4,0.1-0.8,0.1-1.2,0.1c-0.5,0-1.2,0.2-1.4,0c-0.7-0.7-1.4-0.3-2.2-0.2c-1.1,0.1-2.3,0.1-3.4,0.2
		c-1.1,0.1-2.2,0.2-3.3,0.2c-1.8,0-3.5-0.1-5.3-0.2c-0.3,0-0.6-0.3-0.9-0.5c-0.6,0.9-1.6,0.9-2.7,0.8c-1.1-0.1-2.1,0.2-3.2,0.1
		C116.8,243.1,115.7,243,115.7,241.5z"/>
	<path class="st2" d="M95.5,122.9c-1.5,0.4-2.4-0.2-2.9-1.8c-0.2-0.7-0.8-1.3-1-2.1c-0.2-0.7,0-1.5,0-2.5c-1.1-0.6-1.5-1.3-1.3-2.9
		c0-0.3,0-0.5,0-0.8c-0.3-1.9-0.8-3.7-0.9-5.6c-0.1-1.3,0.3-2.6,0.5-3.9c0.2-1,0.7-1.9,0.7-2.9c0-0.9-0.4-1.8-0.6-2.7
		c0-0.2-0.3-0.4-0.2-0.5c0.9-1.9,1.1-3.9,1.5-5.9c0.4-1.8,1.6-3.1,2-5c0.3-1.4,1.9-2.4,2.4-3.8c0.4-1.4,1.7-1.9,2.3-3
		c0.5-1,1.3-1.4,2.1-2c1-0.8,2-1.5,3.1-2.1c0.8-0.4,1.4-1.1,2.1-1.4c0.6-0.3,1.3-0.3,1.9-0.2c0.3,0.1,0.3,1,0.4,1.5
		c0,0.2-0.2,0.5-0.3,0.6c-0.9,0.2-1.1,1.5-2.5,1.3c-0.6-0.1-1.4,1-2.2,1.5c-0.3,0.2-0.6,0.2-0.8,0.4c-0.7,0.7-1.4,1.4-2.1,2.1
		c-0.9,0.9-2.2,1.8-2.4,2.9c-0.4,1.6-1.6,2.5-2.1,3.8c-0.6,1.5-0.8,3.2-1.3,4.8c-0.1,0.5-0.4,1-0.7,1.5c-0.1,0.2-0.5,0.5-0.4,0.6
		c0.2,0.9,0.4,1.7-0.3,2.4c-0.3,0.3-0.3,0.8-0.5,1.3c1.3,0.1,1.5,1.2,1.6,2.4c0,0.4-0.2,0.8-0.2,1.1c-0.3,2.2-0.8,4.5-0.8,6.7
		c0,1.7-0.3,3.5,0.7,5.1c0.7,1.1,0.7,2-0.6,2.7c1.8,1,2.2,2.7,2.6,4.4c0,0.1,0.2,0.3,0.3,0.4c1.1,0.4,0.6,0.9,0.1,1.5
		C95.5,122.8,95.5,122.9,95.5,122.9z"/>
	<path class="st2" d="M138,107.1c-0.7-1.8-1.4-3.5-2.1-5.4c-0.6,0.8-1.6,1.2-1.7,2.5c0,0.5-0.8,1-1.2,1.6c-0.5,0.7-0.9,1.5-1.3,2.3
		c-0.2,0.3-0.4,0.8-0.5,0.7c-1.3-0.3-1.3,0.8-1.8,1.5c-0.5,0.8-1.2,1.4-1.8,2c-0.3,0.3-0.7,0.5-1,0.8c-0.7,0.8-1.4,1.5-2.1,2.3
		c-0.6,0.6-1.1,0.7-1.7,0c-0.2-0.2-0.5-0.3-0.8-0.5c0.4-1.2,1-2.2,2.2-2.8c0.3-0.1,0.4-0.5,0.7-0.8c0.5-0.5,1-0.9,1.6-1.4
		c0.3-0.2,0.5-0.5,0.7-0.8c0.4-0.4,0.9-0.8,1.2-1.2c0.4-0.5,0.7-1,1-1.5c0.6-0.9,1.3-1.7,1.9-2.6c0.3-0.4,0.5-0.8,0.8-1.3
		c0.2-0.4,0.4-0.8,0.7-1c0.6-0.4,0.8-1,1.1-1.7c0.6-1.5,1.5-2.9,2.4-4.2c0.1-0.1,1.1,0,1.1,0.2c0.2,0.6,0,1.2,0.2,1.8
		c0.2,0.8,0.4,1.6,0.7,2.4c0.8,1.7,1.8,3.3,2.7,5c0.4,0.8,0.6,1.7,1.1,2.4c0.3,0.5,0.9,0.8,1.4,1.1c0.8,0.5,1.6,1,2.4,1.5
		c-0.5,0.3-1,0.7-1.5,1.1c0.9,1.5,1.7,2.9,2.5,4.3c0.2,0.4,0.5,0.7,0.8,1c0.5,0.6,0.8,1.2,0.3,1.9c-0.2,0.3-0.7,0.6-1.1,0.7
		c-0.8,0.1-1.2-0.5-1.6-1.2c-0.2-0.5-0.6-1-1.1-1.2c-1.3-0.7-1.7-2-2.4-3.1c-0.7-1-1.3-2.1-2-3.1c-0.1-0.1-0.2-0.2-0.3-0.2
		c-1.2,0.8-2.1-0.4-3.2-0.6c-0.6-0.1-1.2-0.1-1.8-0.2c-0.2,0-0.6-0.1-0.7-0.3c-0.1-0.2,0-0.5,0.1-0.7c0.4-0.7,0.9-1.3,2-1.2
		C136.8,107.4,137.4,107.2,138,107.1z"/>
	<path class="st2" d="M113.4,232.1c0.7-0.2,1.3-0.5,2-0.5c2-0.2,4.1-0.3,6.1-0.3c0.6,0,1.2,0.3,1.8,0.3c0.8,0.1,1.6,0,2.5,0
		c1.4,0,2.8,0,4.2,0c1.7,0,3.4,0.7,5.2,0.3c1-0.2,2.2,0.5,3.3,0.8c0.2,0.1,0.5,0.2,0.7,0.1c1.8-0.7,3.5-0.2,5.1,0.6
		c0.2,0.1,0.4,0.5,0.4,0.8c0,0.2-0.4,0.5-0.6,0.6c-1.4,0.5-2.7,0.9-4.2,0.4c-0.1,0-0.3-0.1-0.3-0.1c-1.2,0.7-2.6,0-3.8,0.3
		c-1,0.2-2.1,0-3.2,0c-2.5,0.1-5.1-0.1-7.6-0.7c-2-0.4-3.9,0.6-5.7,0c-1.7-0.5-3.4,0.4-5.1-0.4c-0.7-0.3-2,0.3-2.9,0.6
		c-0.7,0.2-1.8-0.3-1.9-1c-0.2-0.8-0.4-1.6,0.9-2C111.3,231.8,112.4,231.4,113.4,232.1z"/>
	<path class="st2" d="M161.1,96c0-0.4,0.1-0.6,0-0.6c-1-0.9-1.9-1.8-2.4-2.9c-0.9-1.9-1.6-3.8-2.5-5.7c-0.3-0.6-0.7-1.2-1-1.9
		c-0.4-0.6-0.7-1.3-1.1-1.9c-0.2-0.3-0.5-0.5-0.7-0.8c-1.3-1.4-2.6-2.8-3.9-4.2c-0.1-0.1,0-0.3,0.1-0.4c-1.1,0.4-1.7-0.4-2.2-1.1
		c-0.5-0.6-0.9-1.3-1.5-1.9c-0.3-0.3-0.7-0.4-1.1-0.5c-0.1,0-0.2,0-0.3-0.1c-1.6-0.9-3.2-1.8-4.8-2.8c-0.2-0.1-0.4-0.1-0.6-0.2
		c-0.2-0.1-0.5-0.2-0.5-0.3c0-0.2,0.1-0.5,0.2-0.6c0.4-0.3,0.9-0.5,1.4-0.6c0.8-0.3,1.5-0.3,2.3,0.1c2.4,1.1,4.9,2.2,6.8,4.1
		c0.2,0.2,0.4,0.5,0.6,0.7c0.4,0.4,0.9,0.8,1.4,1.3c0.3,0.4,0.8,0.8,1,1.3c0.9,1.8,3,2.3,3.7,4.3c0.4,1.1,1.5,1.8,2.2,2.8
		c0.3,0.4,0.3,1,0.6,1.8c-0.1,0,0.3,0.1,0.4,0.2c0.9,1.8,1.8,3.7,2.5,5.6c0.2,0.6-0.1,1.4-0.2,2.2c0.2,0.3,0.6,0.7,1,1.2
		C162.1,95.2,161.7,95.5,161.1,96z"/>
	<path class="st2" d="M130.6,251.6c0.6-1.1,1.6-1.1,2.7-1c1,0,2.1-0.2,3.1,0c2.5,0.4,5,0.1,7.5,0.2c1.1,0.1,1.9,0.9,1.9,1.8
		c-0.1,1-1,1.7-2.1,1.8c-2.9,0-5.8,0.2-8.6,0c-1.4-0.1-3,0.4-4.2-1c-0.9,1.1-1.9,1.1-3.3,0.8c-1.6-0.3-3.3,0.1-5,0.1
		c-0.7,0-1.3-0.2-2-0.4c-1.3,0.6-2.5,0.6-2.9-0.4c-0.2-0.6-0.1-1.6,0.3-2.1c0.5-0.8,1.8-0.6,2.6,0c1-0.4,1.9-1.2,3.2-0.8
		c1.1,0.3,2.4,0,3.6,0.6c0.1,0,0.3,0,0.3-0.1C128.8,250.2,129.7,251,130.6,251.6z"/>
	<path class="st2" d="M126.4,227.5c-0.9,1-2.4,0.1-3.7,0.2c-1.1,0.1-2.3-0.1-3.4-0.2c-0.5,0-1.1-0.2-1.8-0.4
		c-0.6,1.4-2.1,0.4-3.3,0.7c-0.7,0.1-1.1-1.5-0.5-2.2c0.6-0.8,2.5-1,3.5-0.8c0.8,0.2,1.8,0,2.7-0.1c2.2-0.3,4.3-0.4,6,0.1
		c1.3-0.2,2.4-0.7,3.2-0.5c2,0.5,4,0.2,5.9,0.1c1.9-0.2,3.8,0.6,5.7,0c0.3-0.1,0.7,0.3,1,0.4c0.9,0.3,1.8,0.5,2.7-0.1
		c0.3-0.2,0.8,0.1,1.3,0.1c0,0.3,0,0.7,0,0.9c-0.7,0-1.5-0.1-2.1,0c-1.1,0.3-2.2,0.7-3.3,1c-1.4,0.4-2.9,0.7-4.4,0.8
		c-1.9,0.2-3.8,0.2-5.7,0.2C129.1,227.7,127.9,227.6,126.4,227.5z"/>
	<path class="st2" d="M130.1,69.2c-1.2-0.1-2.7-0.2-4.1-0.3c-1.1,0-2.3-0.1-3.3,0.2c-2.4,0.7-4.7,1.6-7,2.5
		c-1.7,0.7-3.3,1.6-4.8,2.4c-0.2,0.1-0.2,0.7-0.4,1.1c-0.3-0.1-0.5-0.2-0.5-0.3c-0.4-0.5-1.1-1-1.1-1.5c0-0.5,0.7-1.1,1.2-1.4
		c1.3-0.8,2.7-1.5,3.9-2.4c1.9-1.3,3.8-2.4,6.1-2.9c2.9-0.6,5.8-1.1,8.8-0.3c0.6,0.2,1.1,0.6,1.6,0.7c0.8,0.1,1.6,0.1,2.4,0.3
		c1.4,0.4,2.8,1,4.1,1.6c0.6,0.2,0.9,1.6,0.6,2.3c-0.5,0.9-1,0.6-1.8,0.2c-0.8-0.4-2-0.2-2.9-0.6C131.9,70.6,131.1,69.9,130.1,69.2z
		"/>
	<path class="st2" d="M160.7,186c0.6,1.3,1.2,2.4,1.7,3.5c0.6,1.3,1.2,2.6,1.8,3.9c0.6,1.2,0.4,2.6-0.5,3c-1.2,0.5-2.4,0-2.7-1.2
		c-0.1-0.3-0.1-0.7-0.2-1c-0.1,0-0.2,0-0.3-0.1c-0.4,1.4-0.7,2.9-1.1,4.3c-0.1,0.4-0.2,0.8-0.4,1.2c-0.8,1.6-1.9,3.2-2.3,4.9
		c-0.2,0.9-0.5,1.7-1.2,2.6c0-0.4-0.1-0.6-0.1-0.9c0-1.4,0.2-2.7,0.1-4.1c-0.2-2.6,0.8-4.8,1.8-7.1c0.4-0.8,0.3-1.8,0.4-2.7
		c0.1-1.2,0.5-2.2,1.2-3.1C159.7,188.3,160.1,187.3,160.7,186z"/>
	<path class="st2" d="M155.5,103c0.2,1,0.4,1.9,0.5,2.9c0.2,1.9,0.3,3.8,0.4,5.8c0,1.2,0.1,2.4-0.1,3.6c-0.3,1.2-1,2.3-1.5,3.3
		c-0.1,0.2-0.7,0.2-1,0.2c-0.1,0-0.3-0.6-0.2-0.8c0.9-1.8-0.1-3.6,0-5.4c0.1-1.6-0.1-3.3-0.2-4.9c-0.1-1.2-0.4-2.5-0.6-3.7
		c-0.3-1.3-0.6-2.7-0.9-4c-0.3-1.2-0.3-2.4-1.3-3.3c-0.3-0.2-0.3-1.2,0-1.6c0.3-0.4,1-0.8,1.6-0.8c0.3,0,0.8,0.5,1,0.9
		c0.8,2,1.6,4,2.3,6.1C155.5,101.7,155.5,102.4,155.5,103C155.5,103,155.5,103,155.5,103z"/>
	<path class="st2" d="M64.4,218.3c1.5-0.2,2,1.2,2.9,2c1.1,1,2.1,2.1,3.3,2.9c1.3,0.9,2.9,1.3,4.2,2.2c1.9,1.3,3.7,2.8,5.6,4.2
		c-1,1.6-3.1,1.1-4.6,0.3c-2-1-3.9-2.3-6-3.2c-2.7-1.1-4.4-3.2-6.2-5.3C63,220.6,63.4,219.1,64.4,218.3
		C64.4,218.3,64.4,218.3,64.4,218.3z"/>
	<path class="st2" d="M124.1,98.1c1.8,0.2,2.6,0.6,2.3,1.7c-0.4,1.2-0.1,2.4-1,3.6c-0.8,1-0.6,2.7-1.4,3.8c-1,1.5-0.6,3.6-2.2,4.7
		c-0.3,0.2-0.4,0.8-0.4,1.2c-0.1,1-0.1,2-1.2,2.6c-0.1,0.1-0.1,0.3-0.1,0.5c-0.1,1-0.8,1.2-1.5,1.2c-0.4,0-0.9-0.1-1.6-0.2
		c0.3-0.7,0.6-1.4,0.8-2.1c0.2-0.7,0.3-1.4,0.5-2c0.1-0.3,0.4-0.8,0.5-0.8c1.2,0.1,0.7-0.4,0.6-1c-0.1-0.5-0.1-1,0-1.5
		c0.4-1.2,1-2.4,1.4-3.6c0.3-0.9,0.3-2,1.3-2.7c0.5-0.4,0.3-1.5,0.6-2.2C123.1,100.2,123.6,99.2,124.1,98.1z"/>
	<path class="st2" d="M111.8,111.7c0,0.3,0.1,0.6,0,0.8c-1,1.6-1.9,3.3-3.4,4.5c-0.3,0.2-0.6,0.4-0.9,0.4c-0.8,0-0.8,0.2-0.5,0.9
		c0.1,0.2-0.1,0.6-0.2,0.8c-0.7,0.6-1.5,1-2.3,1.5c-0.2,0.1-0.4,0.1-0.7,0.2c-1-1.4,0-3.6,1.4-4.1c0.6-1.1,0.9-1.9,1.4-2.5
		c1-1.3,1.6-3,3.4-3.5c0,0,0.1-0.2,0-0.3c-0.2-1.7,1.3-2.4,2.2-3.5c0.2-0.3,0.3-0.7,0.6-0.9c0.5-0.3,1.1-0.8,1.6-0.7
		c0.6,0,1.3,0.3,1.4,1.2c0.1,0.8-0.2,1.1-0.7,1.6c-0.4,0.3-0.7,0.9-0.9,1.4C113.7,111,113.2,111.5,111.8,111.7z"/>
	<path class="st2" d="M102.6,108.5c-0.8-0.8-0.4-1.4,0-2.2c0.8-1.6,1.4-3.3,2.2-4.9c0.4-0.8,1.2-1.3,1.9-2c0.3,0.4,0.7,0.7,1,1.1
		c0.2,0.3,0.3,1,0.1,1.1c-1.4,1-0.9,2.6-1.6,3.9c-0.6,1.1-1.1,2.2-1.4,3.4c-0.4,1.2-0.5,2.4-0.8,3.6c-0.3,1-0.6,2.1-1.1,3
		c-0.2,0.4-0.9,0.7-1.3,0.6c-0.4-0.1-0.8-0.8-0.8-1.1c0.2-1.8,0.5-3.6,0.9-5.4C101.6,109.1,102.2,108.8,102.6,108.5z"/>
	<path class="st2" d="M128.4,143.1c-0.3,0.2-0.6,0.4-0.9,0.6c-0.7,0.6-1.4,0.6-2.2,0.4c-0.7-0.2-1.4-0.4-2.1-0.4
		c-1.4-0.1-1.9-0.4-2.2-1.9c-0.1-0.5-0.7-0.9-0.8-1.4c-0.1-0.4,0.1-0.9,0.2-1.4c0.4,0.1,0.9,0.2,1.2,0.5c0.6,0.6,3.1,1.3,4,1.2
		c0.9-0.2,2.1,0.3,2.8-0.7c0.6-0.9,1.3-0.9,2.3-0.8c1.3,0.1,1,1.1,0.9,1.6c-0.2,0.7-0.7,1.4-1.2,2c-0.4,0.4-1,0.4-1.6,0.6
		C128.5,143.4,128.5,143.3,128.4,143.1z"/>
	<path class="st2" d="M118,126.1c-0.4,0.3-0.6,0.5-0.9,0.7c-0.5,0.3-1.1,0.4-1.1,1.2c0,0.3-0.5,0.7-0.8,0.8c-1.5,0.3-3,1.2-4.5,0.4
		c-1.2-0.6-2.4-1.1-3.5-1.8c-0.8-0.5-0.8-1.3-0.2-2.1c0.6-0.6,1.1-1,2-0.1c0.3,0.3,0.9,0.5,1.6,0.5c0.9-0.1,1.9,0.3,2.8,0.4
		c0.7,0,1.4-0.2,2.1-0.1C116.6,125.3,116.9,125.3,118,126.1z"/>
	<path class="st2" d="M141.7,125.5c0.3-0.5,0.4-0.8,0.7-1.4c0.5,1,1.8,1.7,0.3,2.6c0,0,0.1,0.2,0.1,0.3c-0.1,0.4-0.2,0.9-0.4,1
		c-2,0.6-3.8,2.2-6.2,1c-0.3-0.2-0.7-0.1-1.1-0.2c-0.8-0.2-1.7-0.3-2.4-0.6c-0.5-0.2,0.1-2.1,0.9-2.4c0.5-0.2,1.3-0.3,1.7-0.1
		c1.1,0.6,2.2,0.5,3.4,0.2C139.7,125.8,140.8,125.7,141.7,125.5z"/>
	<path class="st2" d="M144.5,94c0.2,0,0.5,0.1,0.6,0.1c0,0.5-0.1,1-0.1,1.5c-1.2-1.4-2.7-2.7-3.4-4.3c-0.9-1.8-2-3.5-2.9-5.3
		c-0.6-1.1,0.1-1.3,0.5-1.9c0.1,0.1,0.3,0.4,0.4,0.3c1.4-0.4,1.7,0.8,2.2,1.6c0.4,0.7,1.1,1.4,1.5,2.1c0.5,1.1,0.8,2.3,1,3.4
		C144.5,92.4,144.5,93.2,144.5,94z"/>
	<path class="st2" d="M117.3,153.6c1.4,0.8,2.7,1.5,4,2.3c1,0.6,1.9,1.2,3.1,1.4c0.5,0.1,0.4,1.2-0.2,1.4c-1,0.2-2.1,0.5-3,0.2
		c-1.4-0.4-2.8-1.1-4-1.8c-0.5-0.3-1-1-1.2-1.7c-0.4-0.9,0.7-0.9,1.1-1.4C117.1,153.8,117.2,153.7,117.3,153.6z"/>
	<path class="st2" d="M119.7,98.8c-0.5,1.3-1,2.5-1.4,3.7c-0.1,0.3,0,0.6-0.1,0.9c-0.3,0.5-0.7,1.2-1.1,1.3
		c-0.5,0.1-1.3-0.3-1.6-0.7c-0.3-0.3-0.3-1-0.2-1.5c0.2-0.6,0.6-1.1,0.8-1.7C116.5,99.5,117.8,98.7,119.7,98.8z"/>
	<path class="st2" d="M100.7,119c-0.7-1.1-0.5-1.5,1.1-2.7c0.2,0.4,0.6,0.7,0.6,1.1C102.4,118.2,102,118.6,100.7,119z"/>
	<path class="st2" d="M125.7,138.5c-0.6-0.5-1.2-0.9-1.7-1.3c0.3-0.2,0.7-0.7,0.9-0.7c0.6,0.2,1.2,0.6,1.8,1
		C126.4,137.8,126.2,138.1,125.7,138.5z"/>
	<path class="st2" d="M97.6,94.1c0.5-0.1,1-0.4,1.3-0.3c0.5,0.2,0.9,0.6,1.4,0.9c-0.1,0.2-0.3,0.6-0.4,0.6c-0.6-0.1-1.1-0.3-1.6-0.5
		C98.1,94.8,98,94.5,97.6,94.1z"/>
</g>
<g id="ApQ6lP.tif">
	<g>
		<path class="st2" d="M120,26.2c0.5,0.5,0.8,1.2,1.4,1.6c0.5,0.4,1.1,0.8,1.8,0.8c1,0.1,2-0.3,2.9-0.2c0.5,0,0.9,0.6,1.4,1
			c-0.4,0.4-0.7,1-1.2,1.2c-0.6,0.3-1.5,0.4-2.1,0.2c-1.8-0.4-1.8,0.7-1.4,1.8c0.7,2.1,0.7,4.4,2.9,6.1c1.4,1,1.9,3.3,2.5,5.1
			c0.3,0.9,0,2.1-1.2,2.2c-1-2.4-1.9-4.7-2.9-7.1c-0.2,0.1-0.4,0.1-0.6,0.2c-0.4,1.3-0.6,2.6-1.1,3.8c-0.8,1.8-2.5,2.9-3.6,2.5
			c-1.7-0.7-2.6-2.9-2-4.9c0.7-2.3,2.2-3.7,4.8-4.2c-0.5-1.9-1-3.8-1.5-5.7c-2,0.2-3.8,0.5-5.7,0.6c-0.5,0-1-0.5-1.5-0.8
			c0.4-0.4,0.8-1,1.3-1.1c1.5-0.3,3-0.4,4.5-0.5c0.3-0.8,0.6-1.6,0.9-2.4C119.7,26.2,119.9,26.2,120,26.2z M121.8,38.6
			c-0.3-0.2-0.6-0.4-0.8-0.6c-0.8,0.8-1.9,1.5-2.2,2.4c-0.3,0.9,0.1,2.1,0.2,3.2c0.3,0,0.6,0.1,1,0.1
			C120.6,42,121.2,40.3,121.8,38.6z"/>
		<path class="st2" d="M233,62c-1.3,3-2.5,6.1-3.8,9.1c-0.2,0.5-0.7,0.8-1.1,1.2c-0.2-0.5-0.8-1.1-0.7-1.5c1-3.2,2-6.4,3.2-9.5
			c0.7-1.6,1.6-0.5,2.3,0.2C232.9,61.8,233,61.9,233,62z"/>
		<path class="st2" d="M66.1,44.9c0.7-0.9-0.2-2.9,1.8-2.8c0.5,0,0.9,1,1.2,1.4c1.3,0.3,2.8,0.4,4,1c0.6,0.3,1.1,1.6,1,2.4
			c-0.1,0.6-1.2,1-1.7,1.6c-0.6,0.6-1.1,1.4-2,2.5c2-0.5,3.4-0.8,4.8-1.2c0.4,1.6-0.2,2.1-1.4,2.2c-1.3,0.2-1.5,0.9-0.6,1.4
			c0.8,0.3,1.7,0.6,2.5,0.8c-0.6,0.7-1.1,1.5-1.7,2.2c-0.4,0.5-0.7,1.7,0.9,0.7c0.4-0.3,1.2,0,1.8,0c-0.3,0.6-0.5,1.3-0.9,1.7
			c-0.4,0.4-1,0.5-1.5,0.7c0.1,0.9,0.2,1.7,0.3,2.5c1.7,0.3,2.8-2.2,5.1-0.3c-1.9,1.1-3.3,2.3-5,2.7c-1.8,0.4-4,1.5-5.7-0.5
			c-0.6-0.7-1.4-1.3-1.6-2.1c-0.8-2.4-1.3-4.9-2-7.3c-0.1-0.4-0.5-0.7-0.8-0.9c-1.5-0.9-2.2-2-1.7-3.9c0.3-1.1,0-2.3,0.2-3.4
			C63.6,44.1,63.9,43.9,66.1,44.9z M68.6,51.8c0.4-2.6,0.7-5.1,4.4-5.3c-3.4-1.9-5.6,0.3-6.5,5.5C67.1,51.9,67.8,51.8,68.6,51.8z
			 M72.8,62.8c-0.2-1-0.3-1.8-0.4-2.6c-0.7,1.1-3.2-0.9-2.9,1.6C69.8,63.8,71.4,62.8,72.8,62.8z M68.2,56.3c0.8-0.9,3.5-0.5,2-2.9
			C68.5,53.7,67.2,54.2,68.2,56.3z"/>
		<path class="st2" d="M141.7,41.7c-0.4,0.2-1,0.5-1.6,0.8c-0.2-0.6-0.6-1.1-0.6-1.7c-0.4-3-0.7-6-1-9c-0.3-2.6-0.3-2.6-1.9-4.2
			c1.2-1.5,9-1.7,10.5-0.4c-0.8,1.3-1.5,2.6-2.5,4.1c1.4,0.2,2.5,0.4,3.6,0.6c1.2,0.2,1.5,0.9,0.9,1.9c-0.4,0.7-1,1.4-1.3,2.1
			c-0.3,0.7-0.6,1.5-0.6,2.3c0,1.4,0.3,2.9,0.3,4.3c0,0.6-0.6,1.2-0.9,1.7c-0.5-0.6-1.3-1.2-1.4-1.8c-0.2-1.7-0.1-3.5-0.1-5.1
			c-2.8-0.9-4-2.4-3.8-5c0-0.6,0.4-1.2,0.8-1.7c0.4-0.6,1-1.2,1.7-2.1c-1.5-0.1-2.4-0.1-3.4-0.1c0,0.8-0.1,1.5,0,2.1
			c0.3,3.1,0.6,6.1,1,9.5c0.2-0.8,0.2-1.4,0.5-1.7c0.5-0.4,1.2-0.7,1.8-1c0.1,0.6,0.2,1.3,0.2,1.9c0,0.4-0.1,0.9-0.2,1.3
			C143.6,42.3,142.7,42.1,141.7,41.7z"/>
		<path class="st2" d="M152,28.4c3-0.8,5.1,0.4,6.2,3.7c0.5,1.4,0.8,2.9,1,4.4c0.3,2.4-0.3,2.8-2.5,1.8c-0.3,0.4-0.5,0.9-0.8,1.3
			c1.3,1.3,2.6,2.5,4.1,3.9c-3.1,1.1-4.2-1-5.5-2.3c-1.9,1.1-3.7,2.2-5.8,3.4c-0.4-2.5,1.3-2.9,2.4-3.8c-0.6-0.6-1.3-1.2-2.2-2
			c0.8-0.4,1.4-0.8,2.1-1.2c-0.3-1.6-0.7-3.3-1-5c-0.1-0.4-0.1-1.1,0-1.2c1.3-0.5,0.9-1.7,1.2-2.6C151.5,28.7,151.7,28.5,152,28.4z"
			/>
		<path class="st2" d="M207.8,49.4c0.5,2-1.1,1.4-2.3,1.3c-0.5,2.5-1.2,4.9-1.2,7.3c0,1.2,1.3,2.4,1.8,3.7c0.2,0.6,0.1,1.3,0.1,1.9
			c-0.6-0.4-1.2-0.6-1.6-1.1c-0.5-0.6-0.8-1.4-1.2-2.2c-1.7,0.8-3.1,2.9-5,0.8c-1-1.1-1.4-2.4-0.5-3.7c1.2-1.7,2.8-1.7,4.8-0.6
			c0.3-2.1,0.5-4,0.8-6c-1.6-0.2-2.9-0.2-4.1-0.6c-0.8-0.3-1.3-1.1-2-1.7c0.8-0.1,1.7-0.4,2.5-0.4c1,0,2,0.3,3,0.5
			c0.1-3,0.1-3-2.6-3.7c-0.7-0.2-1.5-0.2-2-0.6c-0.4-0.3-0.6-1-0.9-1.5c0.5-0.2,1.1-0.6,1.6-0.5c1.1,0.2,2.2,0.6,3.5,0.9
			c0-0.7-0.2-1.4-0.1-2c0.1-0.6,0.6-1,1-1.6c0.5,0.5,1.2,0.9,1.3,1.4c0.2,1.3-0.2,2.7,1.2,3.6c0.1,0.1,0.1,0.9-0.1,1
			c-1.2,0.7-0.8,1.9-0.4,2.6C205.5,48.8,206.6,48.9,207.8,49.4z M201.7,58.8c-0.1-0.2-0.1-0.4-0.2-0.7c-0.7,0.1-1.4,0.2-2.1,0.2
			c0.2,0.7,0.4,1.3,0.7,2.3C200.9,59.8,201.3,59.3,201.7,58.8z"/>
		<path class="st2" d="M216.8,67c-2.4,0.9-3.6,0-4.4-1.6c-0.6-1.3-0.7-2.8,0.7-3.7c1.9-1.2,3.1,0.2,4.4,1.6c0.7-1.7,1.2-3.4,1.9-5
			c0.6-1.3,0-1.7-1.2-2.1c-1.3-0.4-2.6-0.7-3.8-1.3c-0.5-0.2-0.7-1-1-1.6c0.6-0.1,1.3-0.5,1.8-0.3c1.6,0.5,3.1,1.1,4.9,1.8
			c0-0.8,0-1.4-0.1-2c-0.1-1.1-0.3-2.3,1.1-2.4c0.4,0,1.2,1.5,1.1,2.2c-0.3,1.9,0.9,2.9,2.2,3.7c0.4,0.3,1,0.4,1.6,0.6
			c-1.1,2.1-1.1,2.1-4.1,0.6c-1.1,2.1-2.3,4.2-3.1,6.4c-0.6,1.5-0.3,3.3-0.8,4.8c-0.6,1.9-1.5,3.7-2.5,5.4c-0.3,0.6-1.4,0.8-2.2,1
			c-0.3,0.1-0.9-0.4-1-0.7c-0.1-0.3,0.2-1,0.5-1.1C216.4,72.5,215.8,69.6,216.8,67z"/>
		<path class="st2" d="M96.6,37.2c0.2-1.2,0.4-2.2,0.6-3.5c-1.5,0.5-2.7,1-3.9,1.2c-0.7,0.1-1.5-0.3-2.2-0.4
			c0.5-0.5,0.9-1.3,1.5-1.4c3.1-0.5,6.2-1.1,9.3-1.3c1.4-0.1,2.7,0.7,3,2.4c0.3,1.6-0.6,2.5-1.8,3.4c-0.7,0.5-1.1,1.5-1.8,1.9
			c-0.9,0.5-2,0.7-3.3,1.2c-0.4,0.6-0.1,2.3-2.1,2.2c0-0.4-0.2-0.9-0.1-1.2c0.7-1.6,0-2.5-1.3-3.2c-1-0.6-1.9-1.5-1-2.5
			c0.9-1,1.5,0.1,2.2,0.7C95.9,36.8,96.1,36.9,96.6,37.2z M99.9,38.2c-0.1-0.2-0.1-0.4-0.2-0.6c0.5-0.4,1-0.8,1.5-1.2
			c0.6-0.5,1.4-0.8,1.9-1.4c0.1-0.1-0.2-1.1-0.3-1.1c-1-0.2-2.1-0.4-3.1-0.1c-0.7,0.2-0.8,4-0.3,4.3C99.4,38.3,99.7,38.2,99.9,38.2z
			"/>
		<path class="st2" d="M58.3,51.2c0.2,0.8,0.7,1.5,0.5,2.1c-1.1,3.9-2.3,7.7-3.6,11.5c-0.1,0.4-0.8,0.7-1.2,1
			c-0.3-0.1-0.5-0.3-0.8-0.4c1.2-4.4,2.4-8.8,3.7-13.2c-1.1-0.1-2.5,1.7-3.7-0.7c1.8-1,3.6-2.1,5.5-2.9c0.9-0.4,2-1.9,2.8-0.5
			c0.9,1.5-1,1.7-1.9,2.3C59.1,50.7,58.5,51,58.3,51.2z"/>
		<path class="st2" d="M64.8,59.8c0.3,2.4-2.7,7.3-4.7,7.9c-0.4,0.1-1.4-0.1-1.5-0.4c-0.6-1.8-1.1-3.6-1.6-5.4c-0.4-1.5,1-3.3,2.9-4
			c2.2-0.8,3.9-0.4,4.7,1.2C64.8,59.3,64.8,59.6,64.8,59.8z M60,64.9c0.3,0,0.5,0,0.8-0.1c0.9-1.6,2.4-2.9,1.9-5.7
			c-1.3,0.7-2.9,1.1-3.1,1.9C59.1,62.1,59.8,63.6,60,64.9z"/>
		<path class="st2" d="M186.8,57.9c-2.6,0.3-4.9-1.4-5.4-3.9c-0.8-4.2,0.2-8.1,2.7-11.5c0.4-0.5,1.7-0.9,2-0.7
			c0.9,0.8,0.2,1.5-0.4,2.3c-2.5,2.9-3,6.3-2.3,10c0.3,1.4,1.4,2,2.9,2.1c0.4,0,0.8,0.7,1.3,1C187.2,57.4,186.9,57.8,186.8,57.9z"/>
		<path class="st2" d="M93.5,53c0.2,2-1,3.6-3,3.8c-2.3,0.2-4.8-1.8-5-4c-0.1-1.8,1.1-3,3.4-3.2C91.1,49.5,93.3,51,93.5,53z
			 M90.4,55.3c0.7-1,1.1-1.6,1.5-2.2c-0.9-0.5-1.7-1.2-2.7-1.5C89,51.6,87.9,53,88,53.1C88.6,53.9,89.4,54.4,90.4,55.3z"/>
		<path class="st2" d="M31.9,63.9c1.8-2.4,4.6-2.8,7.1-3.8c0.3-0.1,0.6-0.2,1-0.2c0.9,0,1.9,0.1,2.8,0.1c-0.1,0.9,0,1.9-0.4,2.7
			c-0.6,1.1-1.4,2-2.3,2.9c-0.2,0.2-0.8,0.1-1.2,0.1c0-0.4-0.2-0.9-0.1-1.2c0.6-1,1.2-2,2.2-3.4c-2.6,1.2-4.7,2.2-6.8,3.3
			C33.2,65,32.6,65,31.9,63.9z"/>
		<path class="st2" d="M36.2,78.1c1-0.6,1.6-1.3,2.3-1.3c3.5-0.3,6.1-2,8.3-4.6c0.4-0.5,1.2-0.7,2.2-1.2C48,75.9,40.6,80,36.2,78.1z
			"/>
		<path class="st2" d="M91.5,37.8c-0.6,0.4-1.2,0.9-1.9,1.1c-2.9,0.9-5.9,1.8-8.9,2.7c-0.4,0.1-0.9,0.4-1.3,0.3
			c-0.5-0.1-1-0.4-1.5-0.6c0.3-0.4,0.5-1.1,0.9-1.2c2.8-0.9,5.7-1.7,8.5-2.5c1.3-0.3,2.6-0.5,3.9-0.8C91.4,37.1,91.4,37.5,91.5,37.8
			z"/>
		<path class="st2" d="M103.4,50.4c0.2-0.5,0.2-0.8,0.4-1c0.4-0.4,0.8-0.6,1.2-1c0.2,0.5,0.7,1.1,0.6,1.6c-0.3,2.1-2.4,3.1-4.1,1.9
			c-1.6-1.2-2.8-2.8-4-4.3c-0.3-0.4,0.2-1.3,0.3-2c0.6,0.3,1.4,0.5,1.7,1C100.5,48.2,101.3,49.8,103.4,50.4z"/>
		<path class="st2" d="M152,28.4c-0.3,0.2-0.5,0.3-0.8,0.5c-0.8,0.6-1.6,1.2-2.6,1.8c-0.2-0.5-0.5-0.8-0.5-1.2c0-2.9,5-6,7.6-4.6
			c0.3,0.2,0.7,0.8,0.6,1c-0.2,0.4-0.7,0.8-1.1,0.8C154,26.9,152.7,27,152,28.4z"/>
		<path class="st2" d="M97.3,53.3c-0.9,1.1-1.6,1.2-2.2-0.7c-0.7-2-0.8-4.2-1.1-6.3c0-0.4,0.6-0.9,0.9-1.4c0.2,0,0.4,0,0.7,0
			c0.2,0.8,0.5,1.6,0.7,2.4C96.6,49.2,96.9,51,97.3,53.3z"/>
		<path class="st2" d="M166.2,43.1c-0.8,0-1.2,0.1-1.3,0c-0.5-1.1-1.3-2.2-1.3-3.2c0-1.4,0.6-2.8,1-4.2c0.4,0.3,1.2,0.7,1.2,1
			c-0.1,1.8-0.3,3.6,1,5.2C167,42,166.4,42.8,166.2,43.1z"/>
		<path class="st2" d="M82.3,48.9c0.5-0.8,0.7-1.7,1.1-1.8c2.5-0.6,5-1.1,7.5-1.6C91.1,47.7,87.5,49.2,82.3,48.9z"/>
		<path class="st2" d="M90.1,42.5c-0.3,0.5-0.4,1.4-0.9,1.5c-1.8,0.6-3.7,1-5.6,1.5c-1.5,0.4-1.9-0.2-1.8-1.8
			c2.6-0.6,5.2-1.1,7.8-1.7C89.9,42.1,90,42.3,90.1,42.5z"/>
		<path class="st2" d="M172.8,40.4c-0.1-0.7-0.3-1.5-0.2-2.1c0.1-0.5,0.8-0.9,1.3-1.1c0.2-0.1,0.9,0.7,1,1.1
			c0.1,1.3,0.1,2.6-0.1,3.9c0,0.4-0.6,0.8-0.9,1.2c-0.3-0.4-0.8-0.8-0.9-1.3C172.7,41.6,172.7,41,172.8,40.4
			C172.7,40.4,172.7,40.4,172.8,40.4z"/>
		<path class="st2" d="M81.1,33.3c0.6-0.2,1.4-0.7,1.9-0.4c1.5,0.8,3.5,1.1,3.6,4.1c-2.1-1.1-3.8-1.9-5.5-2.8
			C81,33.9,81.1,33.6,81.1,33.3z"/>
		<path class="st2" d="M43.5,54.6c0.4-0.6,0.8-1.2,1.2-1.8c0.4,0.5,0.9,0.9,1.2,1.4c0.4,0.6,0.7,1.2,0.8,1.9
			c0.1,0.4-0.1,0.9-0.4,1.2c-0.2,0.2-0.9,0.2-1.1,0C44.7,56.6,44.2,55.7,43.5,54.6z"/>
		<path class="st2" d="M99.3,44.2c0.4-0.6,0.7-1.1,1.1-1.6c0.4,0.5,0.9,1,1.3,1.5c0.2,0.3,0.4,0.8,0.5,1.2c0.1,0.5,0.1,1.1,0.2,1.7
			c-0.6-0.1-1.3-0.1-1.7-0.4C100.1,45.9,99.8,45.1,99.3,44.2z"/>
		<path class="st2" d="M51.5,54.8c-0.4,0.5-0.7,1.2-0.9,1.1c-0.7-0.2-1.5-0.4-1.9-1c-0.5-0.6-0.7-1.5-0.9-2.3c0-0.1,0.9-0.5,1-0.4
			C49.7,53,50.5,53.9,51.5,54.8z"/>
		<path class="st2" d="M106.9,45.1c-0.5,0.5-0.8,0.9-1.1,1.2c-0.9-0.8-1.7-1.6-2.5-2.5c-0.1-0.1,0.6-0.8,1-1.2
			C105.1,43.3,105.9,44.1,106.9,45.1z"/>
		<path class="st2" d="M131.7,28.9c0.5-0.9,0.9-1.5,1.2-2.1c0.5,0.5,1.3,0.9,1.4,1.4c0.1,0.7-0.5,1.4-0.9,2
			C132.9,29.9,132.4,29.5,131.7,28.9z"/>
		<path class="st2" d="M227.4,80c-0.1-0.7-0.1-1.3-0.2-2c0.5,0,1-0.1,1.5-0.1c0,0.7-0.1,1.4-0.1,2.1C228.2,79.9,227.8,80,227.4,80z"
			/>
	</g>
</g>
</svg>
