<?xml version="1.0" encoding="utf-8"?>
<!-- Generator: Adobe Illustrator 25.3.1, SVG Export Plug-In . SVG Version: 6.00 Build 0)  -->
<svg version="1.1" id="レイヤー_1" xmlns="http://www.w3.org/2000/svg" xmlns:xlink="http://www.w3.org/1999/xlink" x="0px"
	 y="0px" viewBox="0 0 143.1 121.9" style="enable-background:new 0 0 143.1 121.9;" xml:space="preserve">
<style type="text/css">
	.st0{fill:#EFB5B6;}
</style>
<path class="st0" d="M25.8,54c0,0-0.2,2.9-0.5,6.2s-1.9,11.9,3.4,16.7s9,5.5,15.2,6s22.4-2.2,28.3-2.2s30.9-3.1,31.9-3.1
	s8.8-2.1,12.2-6c3.4-4,5-8.3,5-11.6s-1.4-10-5.2-12.6c-3.8-2.6-7.9-5.5-13.4-5.7S89.3,42.6,85.8,43c-3.4,0.3-21.6,2.6-25.2,3.1
	C57.1,46.6,27.9,49,25.8,54z"/>
</svg>
