<?xml version="1.0" encoding="utf-8"?>
<!-- Generator: Adobe Illustrator 25.3.1, SVG Export Plug-In . SVG Version: 6.00 Build 0)  -->
<svg version="1.1" id="レイヤー_1" xmlns="http://www.w3.org/2000/svg" xmlns:xlink="http://www.w3.org/1999/xlink" x="0px"
	 y="0px" viewBox="0 0 76.1 67.4" style="enable-background:new 0 0 76.1 67.4;" xml:space="preserve">
<style type="text/css">
	.st0{fill:#EFB5B6;}
	.st1{fill:#FFFFFF;}
</style>
<path class="st0" d="M55.8,22c-2.9-10.9-6.5-20.9-12.4-0.4H37h-0.4h-2.2C28.7,1.1,25,11.1,22.1,22c-3.6,0.8-13.3,8.9-10.5,21.1
	c3.2,13.8,18.7,16.3,27.3,16c8.6,0.4,24.1-2.2,27.3-16C69,31.4,59.4,22.8,55.8,22z"/>
<path class="st1" d="M32.6,47.7c3.2-1,5.5-2.8,6.7-5.2c-1.7,0-3.4,0-5,0c3.4,9.1,19.1,3.5,6.5,0.6c-0.3-0.2-0.7-0.5-1-0.8
	c0.1,0.1,0.1,0.1,0.2,0.2c-2.1-4.3-5.4-2.5-6.4-0.2c-0.2,0.2-1.6,1.2-1,0.8C29.4,43.7,27.2,47.8,32.6,47.7z"/>
</svg>
