<?xml version="1.0" encoding="utf-8"?>
<!-- Generator: Adobe Illustrator 25.3.1, SVG Export Plug-In . SVG Version: 6.00 Build 0)  -->
<svg version="1.1" id="レイヤー_1" xmlns="http://www.w3.org/2000/svg" xmlns:xlink="http://www.w3.org/1999/xlink" x="0px"
	 y="0px" viewBox="0 0 33.1 11.1" style="enable-background:new 0 0 33.1 11.1;" xml:space="preserve">
<style type="text/css">
	.st0{fill:#FFFFFF;}
</style>
<path class="st0" d="M2.6,5.1c0,0.7,0,1.4,0,2.2c0,0.4,0.1,0.7,0.2,1s0.3,0.6,0.5,0.8c0.2,0.3,0.5,0.4,0.8,0.5
	c0.3,0.2,0.6,0.2,1,0.2c0.2,0,0.5-0.1,0.7-0.1C6.2,9.6,6.6,9.4,7,9c0.1-0.2,0.3-0.4,0.4-0.5c0.2-0.4,0.4-0.8,0.4-1.3
	c0-0.7,0-1.4,0-2.2c0-0.4-0.1-0.7-0.2-1S7.3,3.4,7.1,3.2C6.9,2.9,6.6,2.8,6.3,2.7C6,2.5,5.7,2.5,5.3,2.5c-0.2,0-0.5,0.1-0.7,0.1
	C4.2,2.7,3.8,2.9,3.4,3.3C3.3,3.5,3.1,3.7,3,3.8C2.7,4.2,2.6,4.6,2.6,5.1c0,0.7,0,1.4,0,2.2c0,0.4,0.1,0.7,0.2,1s0.3,0.6,0.5,0.8
	c0.2,0.3,0.5,0.4,0.8,0.5c0.3,0.2,0.6,0.2,1,0.2c0.2,0,0.5-0.1,0.7-0.1C6.2,9.6,6.6,9.4,7,9c0.1-0.2,0.3-0.4,0.4-0.5
	c0.2-0.4,0.4-0.8,0.4-1.3c0-0.7,0-1.4,0-2.2c0-0.4-0.1-0.7-0.2-1S7.3,3.4,7.1,3.2C6.9,2.9,6.6,2.8,6.3,2.7C6,2.5,5.7,2.5,5.3,2.5
	c-0.2,0-0.5,0.1-0.7,0.1C4.2,2.7,3.8,2.9,3.4,3.3C3.3,3.5,3.1,3.7,3,3.8C2.7,4.2,2.6,4.6,2.6,5.1L2.6,5.1z"/>
<path class="st0" d="M24.9,5.1c0,0.7,0,1.4,0,2.2c0,0.4,0.1,0.7,0.2,1c0.1,0.3,0.3,0.6,0.5,0.8c0.2,0.3,0.5,0.4,0.8,0.5
	c0.3,0.2,0.6,0.2,1,0.2c0.2,0,0.5-0.1,0.7-0.1c0.4-0.1,0.8-0.3,1.2-0.7c0.1-0.2,0.3-0.4,0.4-0.5c0.2-0.4,0.4-0.8,0.4-1.3
	c0-0.7,0-1.4,0-2.2c0-0.4-0.1-0.7-0.2-1c-0.1-0.3-0.3-0.6-0.5-0.8c-0.2-0.3-0.5-0.4-0.8-0.5c-0.3-0.2-0.6-0.2-1-0.2
	c-0.2,0-0.5,0.1-0.7,0.1c-0.4,0.1-0.8,0.3-1.2,0.7c-0.1,0.2-0.3,0.4-0.4,0.5C25,4.2,24.9,4.6,24.9,5.1c0,0.7,0,1.4,0,2.2
	c0,0.4,0.1,0.7,0.2,1c0.1,0.3,0.3,0.6,0.5,0.8c0.2,0.3,0.5,0.4,0.8,0.5c0.3,0.2,0.6,0.2,1,0.2c0.2,0,0.5-0.1,0.7-0.1
	c0.4-0.1,0.8-0.3,1.2-0.7c0.1-0.2,0.3-0.4,0.4-0.5c0.2-0.4,0.4-0.8,0.4-1.3c0-0.7,0-1.4,0-2.2c0-0.4-0.1-0.7-0.2-1
	c-0.1-0.3-0.3-0.6-0.5-0.8c-0.2-0.3-0.5-0.4-0.8-0.5c-0.3-0.2-0.6-0.2-1-0.2c-0.2,0-0.5,0.1-0.7,0.1c-0.4,0.1-0.8,0.3-1.2,0.7
	c-0.1,0.2-0.3,0.4-0.4,0.5C25,4.2,24.9,4.6,24.9,5.1L24.9,5.1z"/>
</svg>
