<?xml version="1.0" encoding="utf-8"?>
<!-- Generator: Adobe Illustrator 25.3.1, SVG Export Plug-In . SVG Version: 6.00 Build 0)  -->
<svg version="1.1" id="レイヤー_1" xmlns="http://www.w3.org/2000/svg" xmlns:xlink="http://www.w3.org/1999/xlink" x="0px"
	 y="0px" viewBox="0 0 68.9 31.7" style="enable-background:new 0 0 68.9 31.7;" xml:space="preserve">
<style type="text/css">
	.st0{fill:#E8EFC5;}
	.st1{fill:#FAE7BA;}
	.st2{fill:#FFFFFF;}
</style>
<path class="st0" d="M19.8,27c0,0-7.3-13.3-11.3-16c0,0,5.7-0.3,9.7,5.7S19.8,27,19.8,27z"/>
<path class="st0" d="M55.7,24.2c0.4-0.7,3.7-4.5,6.5-5.3c2.8-0.7,4-2,4-2s-5-2.1-8,0.9C55.2,21,55.7,24.2,55.7,24.2z"/>
<path class="st0" d="M43.8,27c0,0,4.3-4.3,6.7-6.7c2.3-2.3,4.7-6,4.7-6s-3-0.7-6.3,2C45.5,19,43.1,26,43.8,27z"/>
<g>
	<path class="st1" d="M42.8,11.5c-0.9-2.5-3.9-3.7-6.6-3c0.2-5.6-9.5-5.3-10-0.3c-7.7-0.6-7.1,9.3,0.4,7.7c1.8,3.9,9,3.7,10.8-0.2
		C40.1,16.4,43.9,14.6,42.8,11.5z"/>
	<ellipse class="st2" cx="31.8" cy="11.9" rx="3.2" ry="2.1"/>
</g>
<path class="st0" d="M14.1,27.6c0,0-1.7-6-4.7-8.3s-9.7-2.7-9.7-2.7s3.3,2.3,6.7,5S14.1,27.6,14.1,27.6z"/>
</svg>
