<?xml version="1.0" encoding="utf-8"?>
<!-- Generator: Adobe Illustrator 25.3.1, SVG Export Plug-In . SVG Version: 6.00 Build 0)  -->
<svg version="1.1" id="レイヤー_1" xmlns="http://www.w3.org/2000/svg" xmlns:xlink="http://www.w3.org/1999/xlink" x="0px"
	 y="0px" viewBox="0 0 129.4 84.4" style="enable-background:new 0 0 129.4 84.4;" xml:space="preserve">
<style type="text/css">
	.st0{fill:#FFFFFF;}
	.st1{fill:#F5C4C7;}
	.st2{fill:#EFB5B6;}
</style>
<g>
	<path class="st0" d="M115.2,38.9c3.3-0.1,5.1-4.5,3.8-7.5c-4.9-8-17-8.1-25.3-6.9c-1.7-9-26.2-5.9-32.5-2.6
		c-13-8.3-32.4-3.9-40.6,9.1l0.7,1.6C10.1,32.9,6,49.4,18.5,50C13.4,63.8,38.8,63.1,47,61.6c6.1,3.1,13.2,4.3,20,3.3
		c3.5,3.1,7,6.2,10.5,9.2c0.9-4.3,1.7-8.5,2.6-12.8c10.9,1.5,22.5,1,31.7-5.7C117.6,52.5,122.2,43,115.2,38.9z"/>
	<path class="st1" d="M115.2,42.4c3.7-0.3,6.6-2.9,7.4-6.5c0.8-3.7-0.5-6.8-3.1-9.4c-4.4-4.3-10.8-5.8-16.8-6
		c-3.3-0.1-6.6,0.2-9.9,0.6c1.4,0.8,2.9,1.6,4.3,2.4c-1.2-5.8-7.7-7.6-12.8-8.2c-5.8-0.7-11.9-0.1-17.6,1.1c-2.5,0.5-5,1.2-7.3,2.4
		c1.2,0,2.4,0,3.5,0c-12.6-7.9-30.2-5.4-40.8,4.7c-1.5,1.4-2.9,3.1-4,4.8c-1,1.5-1.2,2.8-0.5,4.5c0.2,0.5,0.5,1,0.7,1.5
		c1-1.8,2-3.5,3-5.3c-5.1,0.2-10,3-12.4,7.6c-2.2,4.3-2.2,9.6,1.2,13.3c2.2,2.3,5.3,3.2,8.4,3.4c-1.1-1.5-2.2-3-3.4-4.4
		c-1.1,2.9-1.1,6.2,0.4,9c1.3,2.4,3.6,4.1,6,5.1c5.6,2.4,12,2.8,18,2.6c2.9-0.1,5.7-0.4,8.5-0.9c-0.9-0.1-1.8-0.2-2.7-0.4
		C52,68,59.6,69.4,67,68.4c-0.8-0.3-1.6-0.7-2.5-1c3.5,3.1,7,6.2,10.5,9.2c1.9,1.6,5.3,1.2,5.8-1.5c0.9-4.3,1.7-8.5,2.6-12.8
		c-1.4,0.8-2.9,1.6-4.3,2.4c8.8,1.2,18.1,1.4,26.5-1.9c2.2-0.9,4.3-1.9,6.3-3.1c1.6-1,3.2-2,4.6-3.3c2.6-2.3,4.7-5.7,5.3-9.1
		c0.8-4.6-0.9-8.9-5-11.4c-1.6-1-3.8-0.4-4.8,1.3c-1,1.7-0.4,3.8,1.3,4.8c0.1,0.1,0.3,0.2,0.4,0.3c0.1,0.1,0.6,0.5,0.3,0.2
		c-0.2-0.2,0.3,0.3,0.4,0.4c0.6,0.6,0-0.2,0.2,0.3c0,0.1,0.1,0.3,0.2,0.4c0.2,0.3-0.2-0.7,0,0c0.1,0.3,0.1,0.5,0.2,0.8
		c0.2,0.6,0-0.6,0,0.3c0,0.3,0,0.5,0,0.8c0,0.1-0.1,0.7,0,0.2c0.1-0.5,0,0.1-0.1,0.2c-0.2,0.6-0.3,1.2-0.6,1.8
		c0.3-0.6-0.1,0.2-0.2,0.4c-0.2,0.3-0.3,0.6-0.5,0.9c-0.2,0.3-0.4,0.6-0.6,0.9c-0.2,0.3,0.1-0.1,0.1-0.1c-0.1,0.2-0.3,0.3-0.4,0.5
		c-0.5,0.5-1,1-1.5,1.5c-0.5,0.4,0.3-0.2-0.2,0.2c-0.3,0.2-0.6,0.4-0.8,0.5c-0.8,0.5-1.5,1-2.3,1.5c-1.5,1-3.2,1.8-4.7,2.4
		c-1.7,0.6-3.4,1.1-5.2,1.5c-2,0.4-3.1,0.6-5.1,0.7c-4,0.3-8.6,0-12.1-0.5c-1.8-0.2-3.9,0.4-4.3,2.4c-0.9,4.3-1.7,8.5-2.6,12.8
		c1.9-0.5,3.9-1,5.8-1.5c-3-2.5-5.9-5-8.7-7.6c-0.8-0.7-1.6-1.6-2.5-2.1c-1.1-0.7-2.3-0.4-3.5-0.3c-1.7,0.1-3.5,0.2-5.3,0
		c-3-0.2-6.4-1-9.3-2.2c-0.9-0.4-1.8-1-2.8-1.3c-0.8-0.2-1.6,0-2.5,0.1c-0.3,0-0.5,0.1-0.8,0.1c-0.7,0.1,0.9-0.1,0.2,0
		c-0.2,0-0.5,0.1-0.7,0.1c-3.7,0.4-7.4,0.5-11.1,0.2c-0.5,0-1-0.1-1.5-0.1c-0.3,0-1.9-0.2-0.8-0.1c-0.9-0.1-1.9-0.3-2.8-0.5
		c-0.8-0.2-1.6-0.4-2.4-0.7c-0.4-0.1-0.8-0.3-1.2-0.5c1.1,0.4-0.4-0.2-0.6-0.4c-0.4-0.2-0.8-0.5-1.1-0.7c-0.5-0.3,0.3,0.2,0.3,0.2
		c0,0-0.5-0.4-0.5-0.5c-0.1-0.1-0.2-0.3-0.4-0.4c-0.6-0.6,0.3,0.5,0,0c-0.1-0.1-0.2-0.3-0.3-0.4c-0.1-0.1-0.1-0.2-0.2-0.3
		c-0.2-0.3-0.1-0.2,0.1,0.4c0-0.1-0.2-0.9-0.3-1c-0.2-0.6,0,0.9,0,0.2c0-0.3,0-0.5,0-0.8c0-0.1,0-0.5,0-0.6c-0.1,0.6-0.1,0.7,0,0.3
		c0-0.1,0.1-0.3,0.1-0.4c0.1-0.5,0.3-1.1,0.5-1.6c0.8-2.3-1.3-4.3-3.4-4.4c-0.2,0-1.4-0.2-0.5,0c-0.3-0.1-0.5-0.1-0.8-0.2
		c-0.3-0.1-0.6-0.2-1-0.3c-0.7-0.2,0.5,0.3,0,0c-0.2-0.1-0.5-0.3-0.8-0.4c-0.6-0.3,0.5,0.5,0,0c-0.2-0.2-0.4-0.4-0.6-0.6
		c-0.5-0.4,0.4,0.6,0.1,0.1c-0.1-0.2-0.3-0.4-0.4-0.7c-0.4-0.7,0,0.1,0,0.1c-0.1,0-0.4-1.3-0.4-1.3c0.1,0.6,0.1,0.7,0,0.3
		c0-0.1,0-0.3,0-0.4c0-0.2,0-0.4,0-0.6c0-0.2,0-0.6,0.1-0.8c-0.4,0.7-0.1,0.5,0,0c0.1-0.5,0.3-0.9,0.4-1.4c0.1-0.2,0-0.1-0.1,0.3
		c0.1-0.1,0.1-0.3,0.2-0.4c0.1-0.2,0.2-0.5,0.4-0.7c0.1-0.2,0.3-0.4,0.4-0.7c0.1-0.1,0.2-0.2,0.3-0.4c-0.3,0.4-0.4,0.5-0.2,0.3
		c0.4-0.4,0.7-0.8,1.1-1.1c0.2-0.2,0.9-0.7,0.1-0.1c0.2-0.2,0.4-0.3,0.7-0.5c0.2-0.1,0.5-0.3,0.7-0.4c0.1,0,1-0.4,0.4-0.2
		c-0.5,0.2,0.4-0.1,0.5-0.2c0.3-0.1,0.6-0.2,0.8-0.2c0.2,0,1.2-0.2,0.2-0.1c0.4,0,0.7-0.1,1.1-0.1c2.8-0.1,4.1-2.9,3-5.3
		c-0.2-0.5-0.5-1.1-0.7-1.6c0,1.2,0,2.4,0,3.5c0.2-0.3,0.4-0.6,0.6-1c0.1-0.1,0.7-0.9,0.3-0.5c0.5-0.6,1-1.2,1.5-1.7
		c0.5-0.6,1.1-1.1,1.6-1.6c0.2-0.2,0.5-0.4,0.7-0.6c0.1-0.1,1.1-0.8,0.6-0.5c1.2-0.9,2.5-1.7,3.9-2.4c0.7-0.4,1.4-0.7,2.1-1
		c0.6-0.3-0.2,0.1,0.4-0.2c0.4-0.2,0.8-0.3,1.2-0.5c1.5-0.5,2.9-0.9,4.4-1.2c0.4-0.1,0.8-0.1,1.1-0.2c0.1,0,0.8-0.1,0.3-0.1
		c-0.4,0,0.1,0,0.2,0c0.8-0.1,1.5-0.1,2.3-0.2c1.6-0.1,3.2,0,4.7,0.2c0.4,0-0.1,0-0.1,0c0.2,0,0.3,0,0.5,0.1
		c0.4,0.1,0.8,0.1,1.1,0.2c0.8,0.2,1.6,0.4,2.4,0.6c0.7,0.2,1.3,0.4,2,0.7c0.2,0.1,0.4,0.2,0.6,0.2c-0.1,0-0.5-0.2-0.1,0
		c0.4,0.2,0.8,0.4,1.2,0.6c0.6,0.3,1.2,0.7,1.9,1c1.5,0.8,2.6,0.7,4.1,0c0.1,0,0.4-0.1,0.5-0.2c-0.1,0.2-0.8,0.3-0.2,0.1
		c0.4-0.2,0.9-0.3,1.3-0.5c1-0.3,2-0.6,2.9-0.8c1.1-0.3,2.3-0.5,3.4-0.7c0.3,0,0.6-0.1,0.9-0.1c0.4-0.1,0.7-0.1,0.1,0
		c0.7-0.1,1.3-0.2,2-0.2c2.5-0.2,5.1-0.3,7.6-0.2c0.7,0,1.4,0.1,2.1,0.2c0.8,0.1-0.5-0.1,0.3,0c0.3,0.1,0.6,0.1,1,0.2
		c1.1,0.2,2.2,0.5,3.3,0.9c-0.7-0.3-0.3-0.1,0.1,0.1c0.2,0.1,0.4,0.2,0.7,0.4c0.1,0,0.2,0.1,0.2,0.2c0.6,0.4-0.2-0.1-0.2-0.2
		c0,0,0.5,0.4,0.5,0.5c0.1,0.1,0.5,0.7,0.2,0.2c-0.4-0.5,0.1,0.1,0.1,0.3c0.4,0.6,0,0,0-0.1c0,0.2,0.2,0.5,0.2,0.7
		c0.4,2,2.5,2.7,4.3,2.4c0.4-0.1,0.4-0.1-0.1,0c0.2,0,0.4-0.1,0.6-0.1c0.3,0,0.6-0.1,0.9-0.1c0.7-0.1,1.5-0.1,2.2-0.2
		c1.4-0.1,2.8-0.1,4.3-0.1c0.7,0,1.4,0.1,2.2,0.1c0.4,0,0.8,0.1,1.2,0.1c-0.7-0.1,0.3,0.1,0.4,0.1c1.4,0.2,2.9,0.6,4.2,1.1
		c0.1,0.1,1.1,0.5,0.5,0.2c0.3,0.1,0.6,0.3,0.8,0.4c0.6,0.3,1.2,0.7,1.8,1.1c0.6,0.4-0.3-0.3,0.3,0.2c0.2,0.2,0.5,0.4,0.7,0.6
		c0.3,0.3,0.6,0.6,0.8,0.9c0.1,0.1,0.1,0.2,0.2,0.2c-0.2-0.3-0.2-0.3,0,0.1c0.2,0.4,0.2,0.4,0.1,0c0,0.1,0.1,0.2,0.1,0.3
		c0.1,0.2,0.1,0.4,0.1,0.6c-0.1-0.4-0.1-0.4,0,0c0,0.2-0.1,1.1,0,0.3c-0.1,0.3-0.1,0.6-0.2,0.9c-0.1,0.4-0.1,0.4,0,0
		c-0.1,0.1-0.1,0.3-0.2,0.4c-0.1,0.1-0.2,0.2-0.2,0.4c0.3-0.3,0.2-0.3,0-0.1c-0.4,0.8,0.3-0.5-0.2,0.1c0.4-0.1,0.4-0.2,0.1,0
		c-0.4,0.1-0.4,0.1,0.1,0c-1.9,0.1-3.5,1.5-3.5,3.5C111.7,40.7,113.3,42.6,115.2,42.4z"/>
</g>
<g>
	<path class="st0" d="M115.2,38.9c3.3-0.1,5.1-4.5,3.8-7.5c-4.9-8-17-8.1-25.3-6.9c-1.7-9-26.2-5.9-32.5-2.6
		c-13-8.3-32.4-3.9-40.6,9.1l0.7,1.6C10.1,32.9,6,49.4,18.5,50C13.4,63.8,38.8,63.1,47,61.6c6.1,3.1,13.2,4.3,20,3.3
		c3.5,3.1,7,6.2,10.5,9.2c0.9-4.3,1.7-8.5,2.6-12.8c10.9,1.5,22.5,1,31.7-5.7C117.6,52.5,122.2,43,115.2,38.9z"/>
</g>
<g>
	<path class="st2" d="M35.9,45c-1.7-1.1-3.4-2.7-5.2-4.2c-0.7-0.5-1.2-0.5-1.8-0.1c-1.1,0.9-1.8,1.5-2.4,1.7c-1,0.4-1.7-1-0.6-1.5
		c0.4-0.2,1.3-0.7,2.2-1.4c1.2-0.8,2.3-0.6,3.3,0.1c1.2,0.9,4,3,5.5,4c0.4,0.3,0.4,0.8,0.1,1.1C36.9,45.1,36.4,45.3,35.9,45z M34,40
		c-0.9,0-1.6-0.7-1.6-1.6c0-0.9,0.7-1.6,1.6-1.6s1.6,0.7,1.6,1.6C35.6,39.3,34.9,40,34,40z M34,37.6c-0.4,0-0.8,0.3-0.8,0.8
		s0.3,0.8,0.8,0.8c0.4,0,0.8-0.3,0.8-0.8S34.4,37.6,34,37.6z"/>
	<path class="st2" d="M39.6,41.5c-0.4,0-0.6-0.3-0.6-0.7c0-0.4,0.2-0.7,0.6-0.7h7.3c0.4,0,0.6,0.4,0.6,0.7c0,0.3-0.2,0.7-0.6,0.7
		H39.6z"/>
	<path class="st2" d="M52.8,42c-0.5-0.3-1.2-0.6-1.8-0.7c-0.9-0.1-0.6-1.5,0.5-1.3c0.7,0.1,1.5,0.4,2.1,0.7c0.5,0.2,0.5,0.8,0.3,1.1
		C53.7,42.1,53.3,42.3,52.8,42z M52.8,46.5c-1.1,0.4-1.6-1.2-0.5-1.5c2.9-0.8,6.1-4,7.6-6.8c0.5-0.9,1.9-0.3,1.3,0.8
		C59.4,42.4,56.1,45.5,52.8,46.5z M54.5,39.4c-0.4-0.5-1-0.9-1.6-1.1c-0.8-0.3-0.2-1.6,0.7-1.2c0.6,0.3,1.4,0.7,1.9,1.2
		c0.4,0.3,0.3,0.8,0.1,1.1C55.4,39.8,54.9,39.8,54.5,39.4z M57.6,36.8c-0.7-0.3-0.2-1.2,0.5-0.9c0.4,0.1,1.1,0.5,1.4,0.9
		c0.6,0.6-0.3,1.5-0.8,0.9C58.6,37.4,57.9,36.9,57.6,36.8z M58.9,35.6c-0.7-0.3-0.2-1.2,0.5-1c0.4,0.1,1.1,0.5,1.5,0.8
		c0.6,0.6-0.2,1.5-0.7,0.9C59.9,36.2,59.2,35.7,58.9,35.6z"/>
	<path class="st2" d="M67.9,46.1c0,1.2-1.6,1.2-1.6,0.1c0.1-2.3,0.1-8,0.1-10.1c0-1,1.5-1,1.5,0c0,0.7,0,2,0,3.4c0.1,0,0.2,0,0.2,0
		c0.8,0.1,2.7,0.6,3.5,1.3c0.8,0.6-0.1,1.9-0.9,1.3c-0.6-0.5-2.1-1-2.8-1.2C67.9,42.9,67.9,45,67.9,46.1z"/>
	<path class="st2" d="M76.4,42.7c-0.2-0.4-0.5-0.8-0.8-1.1c-0.6-0.5,0.2-1.4,0.9-0.8c0.4,0.3,0.8,0.8,1.1,1.3
		C78.1,42.8,76.9,43.6,76.4,42.7z M76.1,46.6c-0.1-0.3,0-0.7,0.4-0.9c2.4-1,4-3.1,4.6-5.5c0.2-0.9,1.6-0.5,1.4,0.4
		c-0.8,2.7-2.4,4.9-5.3,6.2C76.6,47.1,76.3,46.9,76.1,46.6z M78.4,41.9c-0.1-0.4-0.4-0.9-0.7-1.2c-0.5-0.6,0.4-1.4,1-0.7
		c0.3,0.4,0.7,0.9,0.9,1.4C79.9,42.3,78.7,42.8,78.4,41.9z"/>
	<path class="st2" d="M87.2,45.1c3.2-1,5.1-3.6,5.7-5.8c0.1-0.4,0.1-0.8-0.5-0.8c-1.4,0-3.7,0-5.8,0.1c-1,0-1.1-1.4,0-1.4
		c1.9-0.1,4.6-0.1,6.5-0.1c1.2,0,2,0.9,1.6,2.1c-1,2.9-2.8,5.7-6.8,7.2C86.6,47,86.1,45.5,87.2,45.1z M95.8,37.5
		c-0.8,0-1.5-0.7-1.5-1.5s0.7-1.5,1.5-1.5c0.8,0,1.5,0.7,1.5,1.5S96.6,37.5,95.8,37.5z M95.8,35.3c-0.4,0-0.7,0.3-0.7,0.8
		s0.3,0.7,0.7,0.7c0.4,0,0.7-0.3,0.7-0.7S96.2,35.3,95.8,35.3z"/>
	<path class="st2" d="M102.1,40.7c-0.6-0.4-0.8-0.4-1.3,0c-0.5,0.4-1.1,0.9-1.6,1.2c-0.7,0.4-1.5-0.6-0.6-1c0.3-0.1,1.1-0.7,1.7-1.1
		c1-0.7,1.7-0.5,2.5,0c1.4,1,3,2.4,4.5,3.2c0.7,0.4,0.1,1.5-0.7,1.1C105.1,43.5,103.4,41.7,102.1,40.7z"/>
</g>
</svg>
