<?xml version="1.0" encoding="utf-8"?>
<!-- Generator: Adobe Illustrator 25.3.1, SVG Export Plug-In . SVG Version: 6.00 Build 0)  -->
<svg version="1.1" id="レイヤー_1" xmlns="http://www.w3.org/2000/svg" xmlns:xlink="http://www.w3.org/1999/xlink" x="0px"
	 y="0px" viewBox="0 0 77.7 53.1" style="enable-background:new 0 0 77.7 53.1;" xml:space="preserve">
<style type="text/css">
	.st0{fill:#F2B5BC;}
</style>
<g>
	<g>
		<path class="st0" d="M18.2,17.9c-0.1,0-0.2,0-0.3,0c-0.4,0-0.6-0.3-0.6-0.5c0-0.2,0.2-0.5,0.5-0.6c2.3-0.9,2.9-3,3-4.1
			c0-0.1,0-0.2,0-0.2c0-0.1,0-0.2-0.1-0.3c0-0.1-0.1-0.3-0.1-0.4c0-0.4,0.3-0.6,0.6-0.7c0.1,0,0.1,0,0.1,0c0.4,0,0.7,0.2,0.8,0.7
			c0,0.2,0,0.4,0,0.5c0.1,0,0.1,0,0.2-0.1c0.7-0.2,1.5-0.7,1.8-1.2c0-0.1,0.1-0.2,0.1-0.3c0-0.2-0.1-0.4-0.6-0.4c0,0,0,0,0,0
			c-1,0-2.8,0.1-3.9,0.2c-0.2,0-0.4,0-0.5,0c-0.3,0-0.5,0-0.7-0.1c-0.4-0.1-0.6-0.4-0.6-0.7c0-0.3,0.3-0.6,0.7-0.6
			c0.1,0,0.2,0,0.4,0.1c0.3,0.1,0.4,0.1,0.8,0.1c1.2,0,2.9-0.1,4-0.1c0,0,0.1,0,0.1,0c1.2,0,1.9,0.6,1.9,1.4c0,0.2-0.1,0.5-0.2,0.8
			c-0.5,1-1.8,1.8-2.9,2c-0.1,0-0.1,0-0.2,0c-0.1,0-0.3-0.1-0.4-0.1C21.7,15.2,20.3,17.2,18.2,17.9z"/>
		<path class="st0" d="M32.9,17.3c0,0.5-0.4,0.8-0.7,0.8c-0.3,0-0.7-0.3-0.7-0.8c0,0,0,0,0-0.1c0.1-1.4,0.1-3.3,0.1-5
			c0-0.8,0-1.5,0-2.1c0-0.1,0-0.2-0.1-0.3c-0.2-0.1-0.3-0.3-0.3-0.5c0-0.4,0.4-0.7,0.8-0.7c0.2,0,0.4,0.1,0.6,0.2
			c0.2,0.2,0.3,0.4,0.3,0.8c0,0,0,0,0,0.1c0,0.9-0.1,2.2-0.1,3.4C32.9,14.6,32.9,16.2,32.9,17.3C32.9,17.3,32.9,17.3,32.9,17.3z
			 M34.9,13.8c-0.3-0.5-1.1-0.8-1.5-0.8c-0.3,0-0.5-0.3-0.5-0.6c0-0.3,0.2-0.6,0.6-0.6c0,0,0.1,0,0.1,0c0.8,0.1,1.9,0.4,2.3,1
			c0.1,0.2,0.2,0.4,0.2,0.6c0,0.4-0.4,0.8-0.7,0.8C35.3,14.1,35.1,14,34.9,13.8z"/>
		<path class="st0" d="M43.6,10c0,0.5,0,1.1,0,1.9c0,0.4,0,0.8,0,1.3c0,0,0,0,0,0.1c0,0.6-0.3,0.8-0.7,0.8c0,0,0,0,0,0
			c-0.3,0-0.6-0.3-0.6-0.7c0,0,0-0.1,0-0.1c0.1-0.4,0.1-0.9,0.1-1.4c0-0.6,0-1.2-0.1-1.7c0-0.2-0.1-0.3-0.2-0.5
			C42,9.5,42,9.4,42,9.3c0-0.4,0.4-0.6,0.7-0.6c0.2,0,0.4,0.1,0.6,0.3C43.6,9.2,43.6,9.5,43.6,10z M42.6,18.3
			c-0.4,0-0.6-0.3-0.6-0.5c0-0.2,0.1-0.4,0.5-0.5c2.2-0.8,2.8-3.1,2.8-4.8c0-0.1,0-0.1,0-0.2c0-0.6,0-1.6,0-2.3
			c0-0.2-0.1-0.3-0.2-0.5c0-0.1,0-0.2,0-0.3c0-0.4,0.3-0.6,0.7-0.6c0.3,0,0.6,0.2,0.7,0.5c0.1,0.2,0.1,0.4,0.1,0.6
			c0,0.1,0,0.3,0,0.4c0,0.4,0,0.8,0,1.3c0,0.3,0,0.6,0,0.9c0,0.1,0,0.3,0,0.4c0,2.6-1.4,4.7-3.7,5.6C42.8,18.2,42.7,18.3,42.6,18.3z
			"/>
		<path class="st0" d="M56.1,12.2c0.2,0.2,0.3,0.4,0.3,0.7c0,0.1,0,0.1,0,0.2c-0.1,0.6-0.1,1.4-0.2,2c0,0.1,0,0.2-0.1,0.3
			c1.4-0.1,2.6-0.2,3.4-0.2c0.7,0,1,0.4,1,0.7c0,0.3-0.3,0.6-0.9,0.6c-0.1,0-0.1,0-0.2,0c-0.6-0.1-1.3-0.1-2-0.1
			c-1.6,0-3.3,0.1-4.8,0.2c-0.1,0-0.2,0-0.3,0c-0.3,0-0.7,0-1-0.2c-0.3-0.2-0.5-0.4-0.5-0.6c0-0.3,0.3-0.6,0.7-0.6
			c0.1,0,0.3,0,0.4,0.1c0.4,0.1,0.4,0.2,0.8,0.2c0.2,0,0.4,0,0.7,0c0.4,0,0.8,0,1.2,0c0.3,0,0.4-0.2,0.4-0.3
			c0.1-0.4,0.1-1.4,0.1-1.8c0-0.1,0-0.2-0.1-0.3c-0.1-0.1-0.2-0.2-0.2-0.3c0-0.2,0.1-0.3,0.2-0.4l-1,0.1c-0.1,0-0.3,0-0.4,0
			c-0.3,0-0.6,0-0.8-0.1c-0.4-0.1-0.6-0.4-0.6-0.6c0-0.3,0.3-0.6,0.7-0.6c0.1,0,0.2,0,0.4,0.1c0.3,0.1,0.4,0.1,0.8,0.1
			c1.3,0,2.5-0.2,3.8-0.3c0.1,0,0.1,0,0.2,0c0.5,0,0.8,0.3,0.8,0.6c0,0.3-0.3,0.6-0.9,0.6C57.3,12.1,56.6,12.1,56.1,12.2L56.1,12.2z
			"/>
	</g>
	<g>
		<path class="st0" d="M15.3,38.3c-0.6,0.7-1.2,1.4-1.9,2.1c-0.5,0.5-1.1,0.8-1.7,0.8c-0.8,0-1.6-0.5-2.1-1.4
			c-0.3-0.5-0.4-1.1-0.4-1.7c0-2.4,1.9-5.6,5.8-7.3l0.2-1.8C14.8,29,14.4,29,14,29c-1,0-2-0.2-2.7-0.7c-0.4-0.3-0.5-0.6-0.5-0.9
			c0-0.6,0.5-1.2,1.2-1.2c0.3,0,0.5,0.1,0.8,0.2c0.5,0.3,1.1,0.4,1.7,0.4c0.3,0,0.6,0,0.8-0.1c0.1-1,0.3-1.8,0.3-2.5
			c0.1-0.8,0.6-1.1,1.2-1.1c0.6,0,1.2,0.4,1.2,1.2c0,0.1,0,0.2,0,0.3c-0.1,0.6-0.3,1.1-0.4,1.6c0.9-0.3,1.7-0.6,2.4-0.9
			c0.3-0.1,0.5-0.2,0.7-0.2c0.7,0,1.2,0.5,1.2,1.1c0,0.5-0.4,1-1.1,1.2c-1,0.3-2.2,0.7-3.6,1l-0.2,1.5c0.3-0.1,0.6-0.1,1-0.2
			c0.5-0.1,1-0.1,1.4-0.1c3.8,0,6.3,2.5,6.3,5.3c0,1.2-0.5,2.6-1.6,3.8c-1,1.1-2.5,2.2-4.8,2.9C19.2,41.9,19,42,18.8,42
			c-0.7,0-1.2-0.5-1.2-1c0-0.5,0.3-0.9,1.1-1.2c1.7-0.6,3-1.5,3.7-2.4c0.6-0.8,0.9-1.6,0.9-2.4c0-1.8-1.5-3.3-4-3.3
			c-0.3,0-0.7,0-1,0.1c-0.5,0.1-1,0.2-1.4,0.3c0,0.3-0.1,0.6-0.1,0.9c0.2-0.1,0.4-0.1,0.5-0.1c0.6,0,1.1,0.4,1.1,1c0,0,0,0.1,0,0.1
			c0,0.2-0.1,0.5-0.2,0.8c-0.4,0.6-0.7,1-1.1,1.6c0.1,0.4,0.3,0.8,0.4,1.1c0.2,0.3,0.2,0.6,0.2,0.8c0,0.8-0.6,1.2-1.1,1.2
			c-0.5,0-0.9-0.3-1.2-0.9L15.3,38.3z M14.8,34.4c0-0.5,0-1,0.1-1.5c-2.3,1.4-3.4,3.4-3.4,4.7c0,0.3,0.1,0.6,0.2,0.8
			c0.1,0.2,0.2,0.3,0.4,0.3c0.1,0,0.2,0,0.3-0.1c0.7-0.7,1.7-1.7,2.6-2.8C14.8,35.3,14.8,34.8,14.8,34.4z"/>
		<path class="st0" d="M36.6,39.5c-0.5,0.5-1.1,0.8-1.6,0.8c-0.7,0-1.3-0.4-1.8-1.1c-0.7-1-1-1.9-1-2.9c0-1.4,0.6-2.8,1.7-4.2
			c0.3-0.4,0.6-0.7,0.9-1c-0.8-1.2-1.6-2.1-2.2-2.4c-0.6-0.3-0.8-0.7-0.8-1.1c0-0.6,0.5-1.1,1.2-1.1c0.3,0,0.7,0.1,1.1,0.4
			c0.8,0.6,1.6,1.6,2.5,2.9c1.3-0.7,2.7-1.2,4.1-1.3c0-0.2,0-0.3,0-0.4c0-0.7-0.2-1.3-0.7-1.7c-0.4-0.3-0.6-0.6-0.6-1
			c0-0.6,0.5-1.1,1.2-1.1c0.4,0,0.8,0.2,1.2,0.5c0.7,0.6,1,1.5,1,2.6c0,0.4,0,0.8-0.1,1.2c1.5,0.3,2.9,1.1,3.8,2.5
			c0.7,1.1,1,2.2,1,3.3c0,3.5-3.2,6.8-7.2,7.2c0,0-0.1,0-0.2,0c-0.7,0-1.2-0.5-1.2-1c0-0.5,0.4-0.9,1.2-1c2.7-0.3,5.1-2.7,5.1-5.2
			c0-0.7-0.2-1.5-0.7-2.2c-0.6-0.9-1.4-1.5-2.4-1.7c-0.6,1.7-1.5,3.5-2.6,5.2c0.1,0.3,0.2,0.7,0.3,0.9c0,0.2,0,0.3,0,0.5
			c0,0.7-0.5,1.2-1,1.2c-0.3,0-0.6-0.2-0.8-0.7C37.6,38.4,37.1,39,36.6,39.5z M35.8,32.6c-0.2,0.2-0.3,0.3-0.4,0.5
			c-0.8,1-1.2,2-1.2,2.9c0,0.6,0.2,1,0.5,1.4c0.2,0.2,0.4,0.4,0.6,0.4c0.2,0,0.4-0.1,0.6-0.3c0.4-0.4,0.9-1.1,1.5-1.9
			C36.9,34.7,36.3,33.6,35.8,32.6z M37.4,31.4c0.4,0.8,0.8,1.5,1.2,2.3c0.6-1,1.1-2.1,1.5-3.1C39.1,30.6,38.2,30.9,37.4,31.4z"/>
		<path class="st0" d="M56.1,40.9c-0.5,0-1-0.3-1.2-0.9c-0.4-1-0.5-2.3-0.5-3.8c0-2.3,0.4-5.1,0.9-7.7c0.1-0.3,0.1-0.6,0.1-0.7
			c0-0.2-0.1-0.4-0.1-0.7c0-0.1-0.1-0.2-0.1-0.3c0-0.7,0.6-1.1,1.3-1.1c0.5,0,0.9,0.2,1.1,0.7c0.2,0.3,0.2,0.7,0.2,1.1
			c0,0.5-0.1,1-0.2,1.4c-0.6,2.4-1,4.8-1,6.9c0,0.9,0.1,1.7,0.3,2.5c0.1,0.3,0.3,0.5,0.4,0.8c0.1,0.2,0.1,0.5,0.1,0.7
			C57.4,40.4,56.8,40.9,56.1,40.9z M65.5,40.1c-2.2,0-3.9-0.8-5-1.8c-0.4-0.3-0.5-0.7-0.5-1c0-0.6,0.5-1.1,1.1-1.1
			c0.3,0,0.6,0.1,0.8,0.4c0.8,0.7,1.9,1.1,3.3,1.1c0.6,0,1.3-0.1,2-0.3c0.3-0.1,0.6-0.2,0.8-0.3c0.2,0,0.3-0.1,0.4-0.1
			c0.7,0,1.1,0.4,1.1,0.9c0,0.1,0,0.1,0,0.2c0,0.6-0.4,1.1-1.2,1.4C67.4,40,66.4,40.1,65.5,40.1z M67.5,30.2c-0.1,0-0.3,0-0.4-0.1
			c-0.3-0.1-0.5-0.3-0.8-0.3c-0.6-0.2-1.3-0.3-1.9-0.3c-0.8,0-1.5,0.2-2.2,0.5c-0.2,0.1-0.4,0.2-0.6,0.2c-0.6,0-1-0.5-1-1.1
			c0-0.4,0.2-0.8,0.8-1.1c1-0.5,2.2-0.6,3.3-0.6c1.4,0,2.7,0.3,3.2,0.5c0.6,0.3,0.9,0.8,0.9,1.2C68.7,29.7,68.3,30.2,67.5,30.2z"/>
	</g>
</g>
</svg>
